<svg xmlns="http://www.w3.org/2000/svg" xmlns:xlink="http://www.w3.org/1999/xlink" viewBox="0 0 252.17 144"><defs><style>.cls-1{fill:url(#linear-gradient);}.cls-2{fill:#fff;}</style><linearGradient id="linear-gradient" x1="-7.5" y1="-1571.3" x2="244.68" y2="-1571.3" gradientTransform="translate(7.5 1643.3)" gradientUnits="userSpaceOnUse"><stop offset="0" stop-color="#ab1e2e"/><stop offset="1" stop-color="#79242f"/></linearGradient></defs><g id="Layer_2" data-name="Layer 2"><g id="front"><rect class="cls-1" width="252.17" height="144" transform="translate(252.17 144) rotate(180)"/><path class="cls-2" d="M50.27,47H45.1l-4.58-8.78c-.29-.6-.6-1.25-1.56-3.46l-.53-1.13h-.09l0,1c.07,1.54.07,1.66.07,3.15V47h-3V31h5.13l4.18,8.11c.6,1.2.79,1.61,1.87,3.92l.63,1.32h.09l0-1c-.07-1.48-.07-1.6-.07-3.09V31h3.05Z"/><path class="cls-2" d="M52.81,39a3.48,3.48,0,0,1,.48-2.21c.6-.86,1.77-1.17,4.27-1.17,3.94,0,5.09.91,5.09,4V47H59.94l.12-1.53H60c-.6,1.29-1.41,1.68-3.55,1.68-3,0-4.08-.92-4.08-3.49s1.13-3.5,4.13-3.5c2.18,0,3,.29,3.41,1.3h0V39.62c0-1.77-.46-2.21-2.28-2.21s-2.07.27-2.12,1.61Zm2.3,4.49c0,1.39.43,1.7,2.35,1.7s2.5-.38,2.5-1.63S59.41,42,57.46,42,55.11,42.26,55.11,43.51Z"/><path class="cls-2" d="M68,35.78l-.08,1.73h0c.58-1.32,1.59-1.87,3.41-1.87,2,0,3.17.72,3.38,2.09h.05c.55-1.47,1.63-2.09,3.55-2.09,1.61,0,2.79.48,3.34,1.37a4.84,4.84,0,0,1,.51,2.56V47H79.47V40.15a4.25,4.25,0,0,0-.24-1.61c-.21-.45-.77-.69-1.65-.69a2.42,2.42,0,0,0-2.28,1,3.75,3.75,0,0,0-.24,1.63V47H72.34V40.05a4.11,4.11,0,0,0-.19-1.53c-.21-.43-.81-.67-1.68-.67-1.77,0-2.49.74-2.49,2.64V47H65.26V35.78Z"/><path class="cls-2" d="M94.71,43.42c0,2.85-1.13,3.72-4.82,3.72-4.49,0-5.5-1.06-5.5-5.81,0-2.45.27-3.65,1-4.47s2-1.22,4.29-1.22c2.93,0,4.18.65,4.75,2.42a12,12,0,0,1,.29,3.82H87.13v.43c0,2.28.48,2.81,2.54,2.81S92,44.85,92,43.42Zm-2.66-3.65c0-1.78-.41-2.12-2.43-2.12-1.46,0-2,.2-2.28.89a4.79,4.79,0,0,0-.19,1.66h4.9Z"/><path class="cls-2" d="M39.57,68.59H37.74V58.24H34.06V56.58H43.3v1.68l-3.73,0Z"/><path class="cls-2" d="M46.23,58.15H44.58V56.58h1.65Zm0,10.44H44.58V60.18h1.65Z"/><path class="cls-2" d="M53.29,61.48H50.07v4.64c0,1,.19,1.26,1,1.26s1.12-.28,1.12-1.51a3,3,0,0,0,0-.39h1.44c0,.23,0,.5,0,.57,0,2-.68,2.65-2.65,2.65-1.36,0-2.07-.31-2.39-1.06a3,3,0,0,1-.18-1.35V61.48H47.27v-1.3h1.14V58.24h1.66v1.94h3.22Z"/><path class="cls-2" d="M56.37,68.59H54.71v-12h1.66Z"/><path class="cls-2" d="M65.73,66v.33c0,1.76-1,2.41-3.62,2.41-3.23,0-4-.81-4-4.36s.78-4.27,3.91-4.27c2.11,0,3,.45,3.42,1.71a8.69,8.69,0,0,1,.24,2.9H59.86v.26c0,2,.37,2.46,2.16,2.46s2-.2,2-1.44Zm-1.66-2.39a3.85,3.85,0,0,0-.16-1.52c-.2-.54-.67-.72-1.87-.72-1.84,0-2.15.33-2.16,2.24Z"/><path class="cls-2" d="M38.46,93.1a3.85,3.85,0,0,1,1.19.16,2.14,2.14,0,0,1,.83.45,1.74,1.74,0,0,1,.49.7,2.38,2.38,0,0,1,.16.91,2.32,2.32,0,0,1-.17.92,2.11,2.11,0,0,1-.51.71,2.45,2.45,0,0,1-.84.47,3.62,3.62,0,0,1-1.15.17H37.31v2.68h-1V93.1Zm0,3.72a2.4,2.4,0,0,0,.74-.11,1.61,1.61,0,0,0,.53-.31,1.18,1.18,0,0,0,.33-.47,1.74,1.74,0,0,0,.11-.61,1.38,1.38,0,0,0-.42-1.07,1.86,1.86,0,0,0-1.29-.38H37.31v2.95Z"/><path class="cls-2" d="M43,95.88a2.66,2.66,0,0,1,.72-.55,1.91,1.91,0,0,1,.91-.21,1.83,1.83,0,0,1,.73.14,1.38,1.38,0,0,1,.53.39,1.69,1.69,0,0,1,.32.61,2.37,2.37,0,0,1,.11.78v3.23h-.89V97a1.39,1.39,0,0,0-.26-.89,1,1,0,0,0-.8-.32,1.48,1.48,0,0,0-.74.19,2.36,2.36,0,0,0-.63.52v3.73h-.9V92.9H43Z"/><path class="cls-2" d="M49.83,95.12a2.48,2.48,0,0,1,1,.19,2,2,0,0,1,.76.52,2.31,2.31,0,0,1,.48.82,3.52,3.52,0,0,1,0,2.16,2.31,2.31,0,0,1-.48.82,2,2,0,0,1-.76.52,2.66,2.66,0,0,1-1,.19,2.71,2.71,0,0,1-1-.19,2,2,0,0,1-.76-.52,2.31,2.31,0,0,1-.48-.82,3.52,3.52,0,0,1,0-2.16,2.31,2.31,0,0,1,.48-.82,2,2,0,0,1,.76-.52A2.53,2.53,0,0,1,49.83,95.12Zm0,4.52a1.32,1.32,0,0,0,1.12-.5,2.85,2.85,0,0,0,0-2.81,1.3,1.3,0,0,0-1.12-.51,1.5,1.5,0,0,0-.66.13,1.17,1.17,0,0,0-.47.38,1.52,1.52,0,0,0-.28.6,2.9,2.9,0,0,0-.1.81,2.31,2.31,0,0,0,.38,1.4A1.31,1.31,0,0,0,49.83,99.64Z"/><path class="cls-2" d="M54.2,95.94a2.79,2.79,0,0,1,.35-.34,3.42,3.42,0,0,1,.4-.26,1.91,1.91,0,0,1,.44-.16,2,2,0,0,1,.5-.06,1.83,1.83,0,0,1,.73.14,1.38,1.38,0,0,1,.53.39,1.69,1.69,0,0,1,.32.61,2.37,2.37,0,0,1,.11.78v3.23h-.89V97a1.39,1.39,0,0,0-.26-.89,1,1,0,0,0-.8-.32,1.48,1.48,0,0,0-.74.19,2.36,2.36,0,0,0-.63.52v3.73h-.9V95.2h.54a.21.21,0,0,1,.23.19Z"/><path class="cls-2" d="M63.05,99.56a1.83,1.83,0,0,1-.39.34,2.82,2.82,0,0,1-.49.25,3.53,3.53,0,0,1-1.1.19,2.58,2.58,0,0,1-1-.18,2.1,2.1,0,0,1-.76-.52,2.33,2.33,0,0,1-.51-.85,3.45,3.45,0,0,1-.18-1.16,2.94,2.94,0,0,1,.17-1,2.27,2.27,0,0,1,.46-.8,2.37,2.37,0,0,1,.75-.53,2.4,2.4,0,0,1,1-.19,2.32,2.32,0,0,1,.84.15,2.05,2.05,0,0,1,.67.44,2,2,0,0,1,.44.71,2.7,2.7,0,0,1,.16,1,.61.61,0,0,1,0,.28.21.21,0,0,1-.17.07H59.53a2.87,2.87,0,0,0,.14.83,1.52,1.52,0,0,0,.32.59,1.36,1.36,0,0,0,.5.36,1.71,1.71,0,0,0,.65.12,1.93,1.93,0,0,0,.58-.08,2.81,2.81,0,0,0,.42-.17,3.22,3.22,0,0,0,.29-.17.4.4,0,0,1,.2-.07.18.18,0,0,1,.17.08Zm-.72-2.38a2.07,2.07,0,0,0-.08-.57,1.28,1.28,0,0,0-.26-.44,1.09,1.09,0,0,0-.41-.29,1.54,1.54,0,0,0-1.55.27,1.74,1.74,0,0,0-.47,1Z"/><path class="cls-2" d="M72.8,93.1v7.17h-.49a.53.53,0,0,1-.19,0,.64.64,0,0,1-.15-.14l-4.15-5.4a2.11,2.11,0,0,1,0,.25v5.33H67V93.1h.61l.08,0a.18.18,0,0,1,.07.05l.08.09L72,98.66c0-.09,0-.17,0-.25a1.85,1.85,0,0,1,0-.23V93.1Z"/><path class="cls-2" d="M78.49,95.2v5.07H78a.24.24,0,0,1-.24-.19l-.07-.54a2.75,2.75,0,0,1-.74.58,1.9,1.9,0,0,1-.94.23,1.86,1.86,0,0,1-.73-.14,1.38,1.38,0,0,1-.53-.39,1.58,1.58,0,0,1-.32-.6,2.48,2.48,0,0,1-.11-.79V95.2h.89v3.23a1.39,1.39,0,0,0,.26.89,1,1,0,0,0,.8.32,1.57,1.57,0,0,0,.74-.19,2.36,2.36,0,0,0,.63-.52V95.2Z"/><path class="cls-2" d="M79.9,100.27V95.2h.54a.21.21,0,0,1,.23.19l.07.52a2.81,2.81,0,0,1,.63-.57,1.45,1.45,0,0,1,.81-.22,1.22,1.22,0,0,1,.83.29,1.55,1.55,0,0,1,.45.77,1.62,1.62,0,0,1,.29-.48,1.7,1.7,0,0,1,.38-.33,1.66,1.66,0,0,1,.46-.19,2.05,2.05,0,0,1,.49-.06,1.81,1.81,0,0,1,.72.13,1.5,1.5,0,0,1,.53.37,1.73,1.73,0,0,1,.33.6,2.58,2.58,0,0,1,.11.82v3.23h-.89V97a1.36,1.36,0,0,0-.26-.9.91.91,0,0,0-.75-.31,1.16,1.16,0,0,0-.42.08,1,1,0,0,0-.35.23.93.93,0,0,0-.23.37,1.47,1.47,0,0,0-.09.53v3.23h-.9V97a1.43,1.43,0,0,0-.24-.91.87.87,0,0,0-.72-.3,1.11,1.11,0,0,0-.61.18,2.28,2.28,0,0,0-.51.48v3.78Z"/><path class="cls-2" d="M89,95.93a2.71,2.71,0,0,1,.73-.59,1.82,1.82,0,0,1,.92-.22,1.92,1.92,0,0,1,.81.17,1.67,1.67,0,0,1,.6.49,2.34,2.34,0,0,1,.39.79,4,4,0,0,1,.13,1,3.94,3.94,0,0,1-.15,1.12,2.67,2.67,0,0,1-.43.86,2,2,0,0,1-.69.56,2.06,2.06,0,0,1-.91.2,1.77,1.77,0,0,1-.84-.19,1.88,1.88,0,0,1-.6-.53l0,.46a.21.21,0,0,1-.23.19h-.57V92.9H89Zm0,3.12a1.51,1.51,0,0,0,.54.46,1.53,1.53,0,0,0,.64.14,1.28,1.28,0,0,0,1.1-.51,2.51,2.51,0,0,0,.38-1.5,2.21,2.21,0,0,0-.34-1.37,1.13,1.13,0,0,0-1-.44,1.46,1.46,0,0,0-.76.2,2.28,2.28,0,0,0-.6.57Z"/><path class="cls-2" d="M97.84,99.56a1.67,1.67,0,0,1-.4.34,2.51,2.51,0,0,1-.49.25,3.05,3.05,0,0,1-.54.14,3.53,3.53,0,0,1-.56,0,2.49,2.49,0,0,1-1-.18,2.14,2.14,0,0,1-.77-.52,2.45,2.45,0,0,1-.5-.85,3.45,3.45,0,0,1-.18-1.16,2.94,2.94,0,0,1,.16-1,2.45,2.45,0,0,1,.47-.8,2.22,2.22,0,0,1,.74-.53,2.46,2.46,0,0,1,1-.19,2.34,2.34,0,0,1,.85.15,2.16,2.16,0,0,1,.67.44,2.31,2.31,0,0,1,.44.71,2.7,2.7,0,0,1,.16,1,.58.58,0,0,1,0,.28.2.2,0,0,1-.17.07H94.32a2.89,2.89,0,0,0,.13.83,1.68,1.68,0,0,0,.33.59,1.36,1.36,0,0,0,.5.36,1.67,1.67,0,0,0,.65.12,2,2,0,0,0,.58-.08,2.31,2.31,0,0,0,.41-.17l.3-.17a.35.35,0,0,1,.2-.07.19.19,0,0,1,.17.08Zm-.72-2.38a1.75,1.75,0,0,0-.09-.57,1.26,1.26,0,0,0-.25-.44,1.18,1.18,0,0,0-.41-.29,1.35,1.35,0,0,0-.55-.1,1.37,1.37,0,0,0-1,.37,1.73,1.73,0,0,0-.46,1Z"/><path class="cls-2" d="M99.85,96.22a2.37,2.37,0,0,1,.59-.82,1.33,1.33,0,0,1,.86-.29,1.06,1.06,0,0,1,.31,0,.85.85,0,0,1,.26.11l-.07.66a.15.15,0,0,1-.15.13l-.2,0a1.42,1.42,0,0,0-.31,0,1.09,1.09,0,0,0-.42.07.9.9,0,0,0-.34.2,1.28,1.28,0,0,0-.26.34,3.45,3.45,0,0,0-.22.47v3.2H99V95.2h.51a.27.27,0,0,1,.2.06.28.28,0,0,1,.07.19Z"/><path class="cls-2" d="M40.77,111.48v.79H36.35V105.1h4.41v.79H37.32v2.38h2.79V109H37.32v2.45Z"/><path class="cls-2" d="M41.77,112.27V107.2h.54a.21.21,0,0,1,.23.19l.07.52a2.43,2.43,0,0,1,.63-.57,1.45,1.45,0,0,1,.81-.22,1.22,1.22,0,0,1,.83.29,1.55,1.55,0,0,1,.45.77,1.62,1.62,0,0,1,.29-.48,1.7,1.7,0,0,1,.38-.33,1.66,1.66,0,0,1,.46-.19,2.05,2.05,0,0,1,.49-.06,1.81,1.81,0,0,1,.72.13,1.5,1.5,0,0,1,.53.37,1.73,1.73,0,0,1,.33.6,2.58,2.58,0,0,1,.11.82v3.23h-.89V109a1.36,1.36,0,0,0-.26-.9.93.93,0,0,0-.75-.31,1.16,1.16,0,0,0-.42.08,1,1,0,0,0-.35.23.93.93,0,0,0-.23.37,1.47,1.47,0,0,0-.09.53v3.23h-.9V109a1.43,1.43,0,0,0-.24-.91.87.87,0,0,0-.72-.3,1.11,1.11,0,0,0-.61.18,2.28,2.28,0,0,0-.51.48v3.78Z"/><path class="cls-2" d="M49.87,107.92a2.87,2.87,0,0,1,.9-.61,2.92,2.92,0,0,1,1.08-.2,2,2,0,0,1,.75.14,1.49,1.49,0,0,1,.56.39,1.72,1.72,0,0,1,.34.61,2.37,2.37,0,0,1,.11.78v3.24h-.39a.34.34,0,0,1-.2,0c-.05,0-.08-.08-.11-.16l-.1-.48a5,5,0,0,1-.39.32,1.85,1.85,0,0,1-.4.24,1.7,1.7,0,0,1-.45.15,2.15,2.15,0,0,1-.53.06,1.67,1.67,0,0,1-.55-.09A1.08,1.08,0,0,1,50,112a1.21,1.21,0,0,1-.31-.42,1.57,1.57,0,0,1-.11-.6,1.13,1.13,0,0,1,.16-.58,1.45,1.45,0,0,1,.54-.49,3.53,3.53,0,0,1,1-.35,7.3,7.3,0,0,1,1.46-.16V109a1.36,1.36,0,0,0-.25-.9.93.93,0,0,0-.75-.3,1.73,1.73,0,0,0-.55.08,1.92,1.92,0,0,0-.38.19l-.28.18a.4.4,0,0,1-.24.09.25.25,0,0,1-.15-.05.43.43,0,0,1-.11-.12ZM52.74,110a7.07,7.07,0,0,0-1,.09,2.62,2.62,0,0,0-.71.21,1,1,0,0,0-.39.29.58.58,0,0,0-.13.38,1,1,0,0,0,.07.35.58.58,0,0,0,.18.23.72.72,0,0,0,.26.14,1.15,1.15,0,0,0,.33,0,1.45,1.45,0,0,0,.43,0,1.63,1.63,0,0,0,.37-.13,3.15,3.15,0,0,0,.33-.22,3.84,3.84,0,0,0,.3-.28Z"/><path class="cls-2" d="M56.1,105.61a.6.6,0,0,1-.05.24.78.78,0,0,1-.14.2.6.6,0,0,1-.21.14.7.7,0,0,1-.25,0,.69.69,0,0,1-.24,0,.66.66,0,0,1-.2-.14.58.58,0,0,1-.13-.2.47.47,0,0,1-.05-.24.53.53,0,0,1,.05-.25.86.86,0,0,1,.13-.2.66.66,0,0,1,.2-.14.69.69,0,0,1,.24,0,.7.7,0,0,1,.25,0,.6.6,0,0,1,.21.14,1.43,1.43,0,0,1,.14.2A.7.7,0,0,1,56.1,105.61Zm-.19,1.59v5.07H55V107.2Z"/><path class="cls-2" d="M58.29,104.9v7.37H57.4V104.9Z"/></g></g></svg>