<svg xmlns="http://www.w3.org/2000/svg" viewBox="0 0 50.8 50.8"><defs><style>.cls-1{fill:#fff;}</style></defs><g id="Layer_2" data-name="Layer 2"><g id="small"><g id="connxsmart-small"><g id="Layer_2-2" data-name="Layer 2"><g id="Layer_1-2" data-name="Layer 1-2"><path class="cls-1" d="M29.89,22h0l-4.84,1.64-4.8,1.76a3.78,3.78,0,0,1-2.38-7l14-5-1.2-3.55L27.35,11h0L16.71,14.93h0A7.32,7.32,0,1,0,21.4,28.8h0l4.84-1.64L31,25.4a3.79,3.79,0,0,1,2.38,7l-14,5,.9,2.66.3.9,3.16-1.18h0l10.78-4h0A7.32,7.32,0,0,0,29.89,22Z"/><path class="cls-1" d="M45.31,24.25a2.14,2.14,0,1,0-.7,2.95,2.14,2.14,0,0,0,.7-2.95Z"/><path class="cls-1" d="M6.85,24.27a2.22,2.22,0,1,0,.07,0Z"/><path class="cls-1" d="M25.4,50.8A25.4,25.4,0,1,1,50.8,25.4,25.4,25.4,0,0,1,25.4,50.8ZM25.4,1A24.36,24.36,0,1,0,49.76,25.4,24.36,24.36,0,0,0,25.4,1Z"/></g></g></g></g></g></svg>