<svg xmlns="http://www.w3.org/2000/svg" viewBox="0 0 73.18 72.59"><defs><style>.cls-1{fill:#cbcdce;}.cls-2{fill:#d48a94;}.cls-3{fill:#a7a7a9;}.cls-4{fill:#54575a;}.cls-5{fill:#79242f;}.cls-6{fill:#76777b;}.cls-7{fill:#fff;}</style></defs><g id="Layer_2" data-name="Layer 2"><g id="color"><g id="eir-color"><circle class="cls-1" cx="36" cy="36" r="36"/><path class="cls-2" d="M42,17.26a11.8,11.8,0,0,0-6.79,7.38A12,12,0,0,0,26.9,18.1c-6.69-1.25-9.75-1.57-9.75-1.57s9.32,17.67,17.78,9.8C45.18,34,51.32,13.89,51.32,13.89S48.38,14.78,42,17.26Z"/><polygon class="cls-3" points="17.62 47.76 7.4 48.78 5.36 38.04 7.4 31.64 17.62 32.45 17.62 47.76"/><path class="cls-4" d="M14.55,44a2.69,2.69,0,0,1-1.26-.38A8.16,8.16,0,0,0,14.35,42a.51.51,0,0,0-.29-.66.5.5,0,0,0-.66.27,7.08,7.08,0,0,1-1,1.47,9.74,9.74,0,0,1-1.56-1.58.51.51,0,0,0-.82.61,10.5,10.5,0,0,0,1.71,1.74c-.28.31-.59.64-1,1a.5.5,0,0,0,0,.72.49.49,0,0,0,.37.16.49.49,0,0,0,.35-.14c.44-.41.8-.79,1.12-1.14a3.9,3.9,0,0,0,1.93.6.51.51,0,1,0,0-1Z"/><path class="cls-5" d="M34.35,34.36s.86-4.61-.6-8a18.84,18.84,0,0,0-9.88-5.74s5.68-.42,11.17,5.45c0,0,2-4.09,10-6.94,0,0-9.26,5-9.39,8.92a21.21,21.21,0,0,0,.5,6.14Z"/><path d="M66.17,68.54H64.78V68h3.37v.5H66.76v4h-.59Z"/><path d="M72.5,70.59c0-.63-.08-1.39-.07-2h0c-.16.53-.35,1.1-.58,1.73l-.8,2.2h-.45l-.73-2.16c-.22-.64-.4-1.23-.53-1.77h0c0,.57,0,1.33-.09,2l-.12,2h-.56L68.86,68h.75l.77,2.2c.19.56.35,1.06.46,1.53h0c.12-.46.28-1,.48-1.53l.81-2.2h.75l.28,4.55h-.57Z"/><path class="cls-3" d="M37.59,47.18c4.1,1.5,7.93,3.18,12.6,3.18,3.24,0,5.68-1.62,7.71-2.47a2.84,2.84,0,0,0-.43-2.73c-.53-.53-5.09,1-9.64,1.67A67.27,67.27,0,0,1,37.59,47.18Z"/><path class="cls-6" d="M47.83,46.83q1.16-.16,2.28-.39c-3.57-16.07-16.87-12.64-23.32-9.9l2.84.18h0c.22,0,10.45,1.23,13.41,2.75s2.75,1.81,2.79,2.62-1,1.53-1.52,1.79a2,2,0,0,1-.59.15l-11.48-.85a.43.43,0,0,0-.41.65c.44.72,1.55,1.87,4.34,2.84.48.16,1,.33,1.42.51A67.09,67.09,0,0,0,47.83,46.83Z"/><path class="cls-7" d="M61.24,47.71c-2.73-1.51-5.85,2.65-11.05,2.65s-9.36-2.08-14-3.69c-2.79-1-3.9-2.12-4.34-2.84a.43.43,0,0,1,.41-.65L43.73,44a2,2,0,0,0,.59-.15c.48-.26,1.56-1,1.52-1.79S46,41,43.05,39.47s-13.19-2.73-13.41-2.75h0l-12-.77V46.24c4.57,1.11,5.59,4.56,11,6.72,6,2.42,14.31,3.64,18.28,3.12a21.69,21.69,0,0,0,11.49-4.71C62.39,48.23,62.59,48.45,61.24,47.71Z"/></g></g></g></svg>