<svg xmlns="http://www.w3.org/2000/svg" viewBox="0 0 50.8 50.8"><defs><style>.cls-1{fill:#fff;}</style></defs><g id="Layer_2" data-name="Layer 2"><g id="small"><g id="eir-small"><path class="cls-1" d="M25.4,0A25.4,25.4,0,1,0,50.8,25.4,25.4,25.4,0,0,0,25.4,0Zm0,49.72A24.36,24.36,0,1,1,49.76,25.4,24.36,24.36,0,0,1,25.4,49.72Z"/><path class="cls-1" d="M43.06,33.09a2.57,2.57,0,0,0-1.92-.18,2.42,2.42,0,0,0-.53-1.54c-.38-.38-1.07-.24-3.21.25-.71.16-1.52.35-2.37.51-1.66-6.56-5.76-8.13-9.68-7.94a23.78,23.78,0,0,1-.18-4.3,2.34,2.34,0,0,1,.18-.75c6.67,4,10.65-9,10.65-9s-2,.61-6.43,2.33a8.18,8.18,0,0,0-4.69,5.1A8.24,8.24,0,0,0,19.11,13c-4.63-.87-6.74-1.09-6.74-1.09s6,11.26,11.6,7.32a15.91,15.91,0,0,1,.4,5.05,18.75,18.75,0,0,0-4.25,1.06l-7.43-.42V23l-7-.57L4.22,26.81l1.42,7.42,7.05-.71v-.14a12.66,12.66,0,0,1,3.08,1.74,21.3,21.3,0,0,0,4.33,2.46,34.47,34.47,0,0,0,11.4,2.27,12.56,12.56,0,0,0,1.5-.08,15.59,15.59,0,0,0,8.14-3.32l1.21-.93c1.19-.91,1.51-1.22,1.48-1.62S43.47,33.32,43.06,33.09Zm-9.45.29c1.45-.2,2.86-.53,4-.79A17.06,17.06,0,0,1,40,32.15a1.59,1.59,0,0,1,.15,1.13l-.81.38a9.45,9.45,0,0,1-4.12,1.2,20.72,20.72,0,0,1-6-1.21A41.54,41.54,0,0,0,33.61,33.38Zm8.17,1.26-1.23,1a14.52,14.52,0,0,1-7.7,3.15c-2.58.34-8.17-.44-12.38-2.13a20.64,20.64,0,0,1-4.14-2.35,13.36,13.36,0,0,0-3.64-2V25.92l8.24.47c.09,0,7.09.85,9.09,1.85,1.65.84,1.65,1,1.65,1.26v.16c0,.19-.35.53-.78.76l-.14,0-7.94-.58a.8.8,0,0,0-.74.39.76.76,0,0,0,0,.82,5.86,5.86,0,0,0,3.27,2.17l.91.33v0h.08l1,.37a21.55,21.55,0,0,0,7.9,1.79,10.3,10.3,0,0,0,4.56-1.3c1.33-.64,2.12-1,2.89-.56C42.48,34.11,42.14,34.36,41.78,34.64Z"/></g></g></g></svg>