<svg xmlns="http://www.w3.org/2000/svg" viewBox="0 0 73.19 73.66"><defs><style>.cls-1{fill:#333;}.cls-2,.cls-3{fill:#fff;}.cls-3,.cls-4{opacity:0.5;}</style></defs><g id="Layer_2" data-name="Layer 2"><g id="one"><g id="myconnxion-one"><path class="cls-1" d="M37.56,8.91l0,.05h0Z"/><path class="cls-1" d="M37.53,9.47l0,0h0Z"/><path class="cls-1" d="M26.33,20.87s0,0,0,0l-.09-.05Z"/><path class="cls-2" d="M66.15,69.6H64.76v-.51h3.38v.51H66.75v4.06h-.6Z"/><path class="cls-2" d="M72.5,71.66c0-.64-.07-1.41-.07-2h0c-.15.54-.34,1.11-.57,1.74L71,73.63h-.45l-.74-2.17c-.21-.64-.4-1.23-.52-1.78h0c0,.57,0,1.34-.09,2l-.12,2h-.56l.32-4.57h.75l.78,2.21c.19.57.34,1.07.46,1.54h0c.12-.46.28-1,.48-1.54l.81-2.21h.76l.28,4.57h-.57Z"/><ellipse class="cls-3" cx="36.2" cy="36.45" rx="36.2" ry="36.45"/><g class="cls-4"><path class="cls-2" d="M3.2,30.89c.86,1.29,1.09,3.8,1.51,5.36a3.8,3.8,0,0,0,.75,1.67c.81.85,2,.58,2.93,1a9.8,9.8,0,0,1,2.74,2.44,2.92,2.92,0,0,0,1.67,1.23h.36a3.49,3.49,0,0,0,1.26-.57c-.17-.3-.61-.22-.95-.21a1.73,1.73,0,0,1-1.72-1.8c0-.42.18-.91-.11-1.2s-1.07,0-1.47-.33c-.24-.2-.3-.51-.68-.7s.86-.68-.75-1c-.68-.15-1.42,0-1.75-.62a3.15,3.15,0,0,1-.15-2.06,3.92,3.92,0,0,1,.55-1.52,1.66,1.66,0,0,1,1.36-.75c.37,0,.76.2,1.09,0,.54-.31.82-1,1.58-.51a1.94,1.94,0,0,1,.68.93,8.06,8.06,0,0,0,.48,1.08.66.66,0,0,0,.33.31c.79-1.07-.44-2.34.84-3.47a6.31,6.31,0,0,0,2-2.77,3.79,3.79,0,0,1,1.43-1.71c.87-.55,1.25-1.59,2.19-2a1.92,1.92,0,0,0,1.64-1c.06-.11-1-1.67-1.3-1.24.4-.67,2.06-.85,2.72-1,.82-.22,2-.31,2.65-.94s.27-.45-.06-1c-.16-.27-.17-.45-.39-.66s-.51-.07-.68-.32-.13-1.14-.34-1.58c-.83-1.79-.67,0-1.78,0-.8,0-.37-.38-.48-.83a1.62,1.62,0,0,0-1.27-1.36,1.28,1.28,0,0,0-1.16.14,1.87,1.87,0,0,0-.42.55c-.2.37-.39.75-.56,1.14a.76.76,0,0,0-.1.39,1.64,1.64,0,0,0,.28.6c.46.93-1.37,1.06-1.64,1.67-.19.42.26,1.19-.33,1.4-.9.32-.52-.74-.55-1.06-.16-1.39-1.93-1.24-2.37-2.4s1.85-2.67,2.66-3.33a5.87,5.87,0,0,1,1.88-1c.59-.2,1.5-.25,1.88-.84.23-.37,0-1-.52-.79a1.78,1.78,0,0,0-.45.37.61.61,0,0,1-.53.19C17.8,10.74,18,8.71,18,8.69c-.85.22-1.09.75-1.64,1.35a2.26,2.26,0,0,1-2.24.69.57.57,0,0,0-.29,0c-.27.13-.87.69-1.07.15a1.22,1.22,0,0,1,0-.57.64.64,0,0,0-.09-.54c-.36-.38-.35,0-.8-.33A29.47,29.47,0,0,0,7,15.05a36.4,36.4,0,0,0-3.74,6.19c-.36.9.18,1.28-.18,2.18a11.48,11.48,0,0,0-.8,3.51"/><path class="cls-2" d="M32.93,51.27c-.22-.76-1.33-1-2-1.33-1.28-.62-2.75-1-4.09-1.52a2.42,2.42,0,0,0-.36-.1c-.1,0-1.44,1-1.14.16.06-.17.22-.28.32-.43a1.06,1.06,0,0,0-.2-1.14c-1-1.3-2.48-.87-3.47-1.86-.29-.28-1.31-.79-1.43-1.07a2.09,2.09,0,0,1-.07-.36.74.74,0,0,0-.73-.48c-.79,0-1.4.38-2.18,0s-1.45-.41-1.73.44a.26.26,0,0,1-.13-.29c0-.16.07-.31.08-.47a.39.39,0,0,0-.2-.4,15.18,15.18,0,0,0-1.45,1.45c-1.27,1.2.64,2.29-.31,3.36a2.58,2.58,0,0,0-.73,1,8,8,0,0,0,.41,2.48c.28,1,1.19,1.41,1.79,2.15s.81,1.66,1.54,2.17a10,10,0,0,0,1.24.57c1.2.62,1.3,1.76,1.76,2.88a23.88,23.88,0,0,1,1.24,3.72A15.28,15.28,0,0,0,23.81,67a6.49,6.49,0,0,0,.9,1,6.76,6.76,0,0,0,1.77,1.39c.48.23,1.37.49,1.65-.11a.82.82,0,0,0-.5-.24,2.77,2.77,0,0,1-1.28-.64c-.44-.44-.42-1.12-.85-1.6a1,1,0,0,1-.33-.49c-.07-.48.52-1.09-.2-1.28.26-.28.46-.83.88-.89.74-.13.88-.57.22-1-.93-.6.36-.5.69-.64a3.09,3.09,0,0,0,1.44-2.4,5.32,5.32,0,0,1,.05-1c.2-.83,1.3-.92,2-1.14a1.27,1.27,0,0,0,.53-.27c.64-.63.52-2,.61-2.86.13-1.22,1.39-1.75,1.6-2.91A1.38,1.38,0,0,0,32.93,51.27Z"/><path class="cls-2" d="M36.63,5.39a12.85,12.85,0,0,1-1-1.61c-.09-.12-1.8-1.46-1.71-1.45-2-.25-3.25,1-5,1.91a1.08,1.08,0,0,0-.4.33.35.35,0,0,0,.07.47,1.05,1.05,0,0,0,.24.06,1,1,0,0,1,.68.89,2.14,2.14,0,0,1-.34,1.14,2.93,2.93,0,0,0-.59,1.34c.32.13,1,0,1.06-.43a2.43,2.43,0,0,1-.88,1.32,1.69,1.69,0,0,0-.66,1.41,1.81,1.81,0,0,0,.2.5l.5.92c.33.63.79,1.33,1.49,1.34a2.66,2.66,0,0,1,.69,0c.33.11.51.53.86.56a.72.72,0,0,0,.62-.41,6.41,6.41,0,0,0,.66-2.08c.46-1.9,2.2-2.13,3.31-3.5A.76.76,0,0,0,36.53,8a1.86,1.86,0,0,0,.34-1.66"/><path class="cls-2" d="M56.5,22.1a.63.63,0,0,1,.22.21l.92,1.28a1.51,1.51,0,0,0,.61.59c.62.25,1.33-.36,2-.15s.74,1.3.59,2.08a.92.92,0,0,1-.26.56.79.79,0,0,1-.5.13A7.11,7.11,0,0,1,56.6,26c-.36-.17-.94-.29-1,.11a2.77,2.77,0,0,1,0,.3c-.09.21-.39.18-.6.11l-2.84-.88c-.34-.11-.73-.27-.8-.62s.2-.73,0-1a.65.65,0,0,0-.46-.2,8,8,0,0,0-3.3.22,6.87,6.87,0,0,1-2.34.5,2.49,2.49,0,0,0-.61,0,1.27,1.27,0,0,0-.57.35c-.76.72-.92,1.67-1.48,2.52a9.1,9.1,0,0,1-1,1.06,7.35,7.35,0,0,0-1.43,2,2.73,2.73,0,0,0-.32,1.31c0,.35.16.68.19,1A12.6,12.6,0,0,1,39.57,35a3.2,3.2,0,0,0,.81,2.29c1.88,2.27,4.66,3.42,7.46,2.28a1.76,1.76,0,0,1,1.68,0,4.12,4.12,0,0,0,.85.52c.25.09.53.09.8.16a.94.94,0,0,1,.66,1c0,1.35-.39,1.87.29,3.2.47.9,1.13,1.81.84,2.89s-1.28,1.8-1.34,3.17a16,16,0,0,0,.3,2.84A18.21,18.21,0,0,1,52,56.77c-.16,2.44,2.91.72,3.94-.05a12.8,12.8,0,0,0,2.47-2.62,8.42,8.42,0,0,0,.89-1.39,8.91,8.91,0,0,1,.7-1.5c.47-.66,1.27-1,1.8-1.61.81-.91.64-2,.59-3.07-.06-1.69.47-2.42,1.58-3.63a12.87,12.87,0,0,0,2.13-3.17c.16-.33,1-3.35.74-3.38s-.68.29-1,.49c-1.13.7-1.85-1.82-2.22-2.53l-2.29-4.37a1.65,1.65,0,0,1-.26-1.31c0,.1,2.43,1.45,2.58,1.69a15.34,15.34,0,0,1,1.51,2.2c.27.67-.13,1.8.83,1.79a3.23,3.23,0,0,0,2.66-2.71,2.12,2.12,0,0,0-.48-1.47c-.14-.16-.44.71-.67.7-.67,0-.5-.77-1.12-1.5-.32-.38-.88-1-.79-1.48.3.15.45.42.7.65a12.76,12.76,0,0,0,1.38.81c1.34.93,2.46.87,3.12,2.55.49,1.26.39,3.68,1.35,4.61,0-.11,0-.22,0-.32.34-2.45-.32-5.46-.84-7.84A35.82,35.82,0,0,0,68.91,21,36.62,36.62,0,0,0,57,6.56a16.91,16.91,0,0,0-1.52-1,2.26,2.26,0,0,0-.74-.31c-.64,0,1.71,2,1.79,2.16a.45.45,0,0,0-.34-.11c-.9-.34-2.94-1.37-3.69.37h0c-1.53-.79-3.84-1.37-4.61-.26-.6.86-.4,2.15-1.13,2.9a2.38,2.38,0,0,0-.52.53,1.34,1.34,0,0,0-.11.6,1.85,1.85,0,0,0,.29,1.11.8.8,0,0,0,1,.25,3.4,3.4,0,0,1,.31-.25c.35-.17.72.15,1,.45l.53.64a.52.52,0,0,1,.16.33.48.48,0,0,1-.22.34l-3.33,3.08c-.2.19.33,1,.23.64.19.76-.67.47-.39,1.19a1.06,1.06,0,0,1-.8,1.26c-.58.16-1.9-.56-2,.28-.2,1.05.18.53,1,1.24a2.12,2.12,0,0,0,2.88-.36c.52-.59.33.4.84-.19a3.44,3.44,0,0,1,1.8-1.05,2.24,2.24,0,0,1,1.12,0,2.69,2.69,0,0,1,.93.56,12.39,12.39,0,0,1,1.1.94c.59.56.61.86.78.9"/></g><path class="cls-2" d="M65.44,29.74a.8.8,0,0,0-.3-.48q-.19-.12-.51.36l-.82,1.12c-.38.53-.85,1.16-1.41,1.88s-1.17,1.5-1.84,2.33l-2.07,2.54c-.7.85-1.39,1.68-2.08,2.48s-1.32,1.52-1.9,2.16q1.18-3,2.2-5.8c.67-1.86,1.25-3.53,1.72-5s.86-2.71,1.14-3.68S60,26.09,60,25.9a1.88,1.88,0,0,0-.59-1.32A5.87,5.87,0,0,0,58,23.39a3.32,3.32,0,0,0-1.53-.52.63.63,0,0,0-.75.68,12,12,0,0,1-.36,1.65q-.31,1.18-.87,2.94a25.92,25.92,0,0,1-2.25,4.16,43,43,0,0,1-3,4.17,26.4,26.4,0,0,1-3.12,3.24A4.25,4.25,0,0,1,43.59,41c-.21,0-.23-.33-.06-1s.45-1.49.83-2.5.83-2.12,1.33-3.31l1.45-3.44c.47-1.09.86-2.06,1.19-2.9a8.65,8.65,0,0,0,.54-1.66,1.8,1.8,0,0,0-.6-1.3,6.65,6.65,0,0,0-1.42-1.18,3.35,3.35,0,0,0-1.51-.51.63.63,0,0,0-.76.67,9.5,9.5,0,0,1-.49,2q-.42,1.23-1,2.64c-.18.44-.39.91-.59,1.36l-1.27,1.9c-.56.82-1.13,1.67-1.73,2.53s-1.19,1.73-1.8,2.58-1.19,1.61-1.75,2.26a17.43,17.43,0,0,1-1.51,1.6,1.9,1.9,0,0,1-1.11.62c-.32,0-.4-.29-.24-.88s.49-1.41.84-2.32.7-1.86,1.07-2.86.75-2,1.13-3,.73-1.93,1-2.8.56-1.61.76-2.22a7.66,7.66,0,0,0,.33-1.28,1.48,1.48,0,0,0-.33-1,5.66,5.66,0,0,0-.94-1,6.64,6.64,0,0,0-1.19-.75A2.43,2.43,0,0,0,34.66,23h-.08a.22.22,0,0,0-.16,0,.48.48,0,0,0-.39.28,13.7,13.7,0,0,0-1.21,1.29c-.49.58-1,1.24-1.61,2S30,28.21,29.42,29.06s-1.2,1.69-1.78,2.52-1.13,1.6-1.63,2.34l-1.23,1.81c.34-.88.71-1.81,1.09-2.81s.74-2,1.07-2.84.61-1.69.84-2.38a7.48,7.48,0,0,0,.37-1.48,1.82,1.82,0,0,0-.61-1.3,7.07,7.07,0,0,0-1.45-1.18,3.31,3.31,0,0,0-1.51-.51.62.62,0,0,0-.75.67v0c-.3.38-.66.86-1.1,1.44l-1.4,1.94c-.51.71-1,1.45-1.55,2.24l-1.55,2.3c-.5.74-1,1.44-1.39,2.1l-1.07,1.65,1.13-3c.38-1,.73-1.93,1.05-2.8s.58-1.61.8-2.24a6.77,6.77,0,0,0,.35-1.3A1.88,1.88,0,0,0,18.49,25,6.57,6.57,0,0,0,17,23.78a3.31,3.31,0,0,0-1.51-.51.62.62,0,0,0-.75.67A10.22,10.22,0,0,1,14.26,26c-.29.86-.65,1.78-1.07,2.78s-.87,2-1.35,3.12S10.91,34,10.49,35s-.78,1.89-1.07,2.7a7.56,7.56,0,0,0-.48,1.94,2.64,2.64,0,0,0,.52,1.86,5.18,5.18,0,0,0,2.94,1.9c.5.1.83.08,1-.08a.59.59,0,0,0,.2-.38c0-.12,0-.29,0-.5.39-.72.95-1.65,1.66-2.78s1.49-2.32,2.33-3.58S19.2,33.61,20,32.4s1.53-2.26,2.14-3.14c-.32.77-.64,1.55-.95,2.32s-.62,1.51-.9,2.22-.51,1.35-.69,2a6.83,6.83,0,0,0-.32,1.54,2.65,2.65,0,0,0,.42,1.86A4.61,4.61,0,0,0,21,40.41a4.48,4.48,0,0,0,1.45.64,1.18,1.18,0,0,0,.95,0,.67.67,0,0,0,.18-.34c0-.12,0-.25,0-.38.26-.43.68-1,1.25-1.78s1.23-1.61,2-2.56l2.44-3.05L32,29.54c-.42,1-.86,2-1.31,3.1s-.86,2-1.25,3-.71,1.79-1,2.56A7.85,7.85,0,0,0,28,40a2.6,2.6,0,0,0,.46,1.76A4.82,4.82,0,0,0,29.72,43a5.35,5.35,0,0,0,1.49.68,2,2,0,0,0,1.07.08,4.74,4.74,0,0,0,2-1,17.78,17.78,0,0,0,2.21-2c.74-.8,1.47-1.68,2.2-2.64l.73-1A6.13,6.13,0,0,0,39,38.85a3.47,3.47,0,0,0,.35,1.92,5,5,0,0,0,1.1,1.42,5.73,5.73,0,0,0,1.36.9,3.16,3.16,0,0,0,1.2.32,4.72,4.72,0,0,0,2.42-.74,13.86,13.86,0,0,0,2.38-1.86A23.08,23.08,0,0,0,50,38.37c.68-.88,1.28-1.7,1.81-2.48q-1.2,3.21-2.56,6.58t-2.8,6.37l-3.53,2.64c-1.11.82-2.09,1.6-2.94,2.32a16.25,16.25,0,0,0-2,2,3.11,3.11,0,0,0-.82,1.7,4.06,4.06,0,0,0,.06,1.28,3.62,3.62,0,0,0,.58,1.36,3.31,3.31,0,0,0,1.21,1.06,4.24,4.24,0,0,0,2,.42,4.81,4.81,0,0,0,3-1.32,18.46,18.46,0,0,0,3.11-3.52,42.91,42.91,0,0,0,3-5c1-1.91,1.92-3.88,2.82-5.94a.61.61,0,0,1,.16-.12.4.4,0,0,0,.15-.12,19.64,19.64,0,0,0,2-2c.79-.87,1.62-1.81,2.48-2.82s1.73-2.06,2.6-3.14,1.67-2.08,2.38-3,1.31-1.69,1.79-2.33l.87-1.2a1.9,1.9,0,0,0,.1-.58A2.79,2.79,0,0,0,65.44,29.74Z"/></g></g></g></svg>