<svg xmlns="http://www.w3.org/2000/svg" viewBox="0 0 50.8 50.8"><defs><style>.cls-1{fill:#fff;}</style></defs><g id="Layer_2" data-name="Layer 2"><g id="small"><g id="portal-small"><path class="cls-1" d="M36.09,22.35V19l-3.84,3.89V8.66h-20V37.92L28.09,46.2V38.8h4.16v-11l3.84,3.9V28.36h7.46v-6ZM17,17.59l2.12,1.29.3,1.5.14.76.07.37.11.85.13-.15.21-.32.22-.31.44-.63,1-1.5,1.89.76L21,23.13,22.31,28l-2-1.14L20,25.19l-.16-.82L19.73,24l-.1-.55-.17.21-.24.35-.24.35L18.5,25l-.77,1.08L16,25.39l2.31-2.85ZM31.25,37.8H28.09V17.62l-15.23-8H31.25V23.88l-1.42,1.44,1.42,1.44Z"/><path class="cls-1" d="M25.4,0A25.4,25.4,0,1,0,50.8,25.4,25.4,25.4,0,0,0,25.4,0Zm0,49.72A24.36,24.36,0,1,1,49.76,25.4,24.36,24.36,0,0,1,25.4,49.72Z"/></g></g></g></svg>