<svg xmlns="http://www.w3.org/2000/svg" viewBox="0 0 72.45 72.98"><defs><style>.cls-1{fill:#cbcdce;}.cls-2{fill:#fff;}.cls-3{fill:#76777b;}.cls-4{fill:#aa192d;}.cls-5{fill:#54575a;}.cls-6{fill:#79242f;}</style></defs><g id="Layer_2" data-name="Layer 2"><g id="color"><g id="scorecard-color"><circle class="cls-1" cx="36" cy="36" r="36"/><rect class="cls-2" x="9.35" y="21.42" width="52.41" height="31.11" rx="5.09"/><rect class="cls-3" x="37.45" y="28.54" width="18.99" height="1.53"/><rect class="cls-3" x="37.45" y="32.83" width="13.68" height="1.53"/><path class="cls-4" d="M30.41,39.9,24.56,29.78a2.64,2.64,0,0,0-4.57,0L14.14,39.9a2.64,2.64,0,0,0,2.29,4h11.7A2.64,2.64,0,0,0,30.41,39.9ZM23,41.55H21.59V40H23ZM23,38.67h-1.4l-.1-5.75h1.62Z"/><path class="cls-3" d="M43.33,18a8.35,8.35,0,0,0-15.55,0h-5.9v6.07H49.22V18Zm-10.82.76a3,3,0,0,1,6.08,0Z"/><polygon class="cls-5" points="41.03 38.59 40.32 37.87 38.91 39.3 37.5 37.87 36.78 38.59 38.2 40.02 36.78 41.44 37.5 42.17 38.91 40.74 40.32 42.17 41.03 41.44 39.62 40.02 41.03 38.59"/><rect class="cls-5" x="42.7" y="42.32" width="13.14" height="1.02"/><path class="cls-6" d="M52.3,40.27a.48.48,0,0,1-.23-.05c-1.12-.57-1.41-.42-1.79-.23a2.06,2.06,0,0,1-1,.28c-1.15,0-1.46-.18-1.51-1.14a9.81,9.81,0,0,0-1.17,1,.49.49,0,0,1-.55.11.51.51,0,0,1-.31-.47c0-.62-.2-1.53-.5-1.53-.46,0-1.21,1-1.57,1.76a.51.51,0,0,1-.68.23.52.52,0,0,1-.23-.69c.19-.38,1.22-2.32,2.48-2.32.78,0,1.21.68,1.4,1.49,1.12-.94,1.54-.77,1.7-.7a.74.74,0,0,1,.43.74c0,.19,0,.38,0,.5h.5a1.14,1.14,0,0,0,.56-.17c.61-.31,1.24-.51,2.7.23a.5.5,0,0,1,.22.68A.49.49,0,0,1,52.3,40.27Z"/><path d="M65.44,68.93H64.05v-.5h3.37v.5H66v4h-.59Z"/><path d="M71.76,71c0-.64-.07-1.4-.06-2h0c-.16.54-.35,1.1-.58,1.73L70.3,73h-.45l-.73-2.17c-.22-.64-.4-1.23-.53-1.77h0c0,.57,0,1.33-.09,2l-.12,2h-.56l.32-4.55h.75l.77,2.2c.19.56.35,1.06.46,1.53h0c.12-.46.28-1,.48-1.53l.81-2.2h.75L72.45,73h-.57Z"/></g></g></g></svg>