<svg xmlns="http://www.w3.org/2000/svg" viewBox="0 0 50.8 50.8"><defs><style>.cls-1{fill:#fff;}</style></defs><g id="Layer_2" data-name="Layer 2"><g id="small"><g id="smartscrub-small"><path class="cls-1" d="M37.75,28.89a10.16,10.16,0,0,0-6.87-9.47v-.09a3.13,3.13,0,0,0-2.27-3.73L30,9.46l-1.38-.32.48-2.06-3.87-.89-.47,2.06-1.38-.32-3.17,13.7v.08l-.43,5,1.32.3-.61,2.64,2.48.58.61-2.64,1.44.33,1.8-4.66H26.8a1.59,1.59,0,0,0,.12-.27l.28-1.23a3.17,3.17,0,0,0,2.6-.65,7.13,7.13,0,0,1-2.62,13.6,2.22,2.22,0,0,0-3.11-.31,2.29,2.29,0,0,0-.57.71H16.63v2.26h6.63v3.4h-7.2a2.81,2.81,0,0,0-2.66,1.88H36.45a2.82,2.82,0,0,0-2.66-1.92H27.73V39.21A10.17,10.17,0,0,0,37.75,28.89Z"/><path class="cls-1" d="M25.4,0A25.4,25.4,0,1,0,50.8,25.4,25.4,25.4,0,0,0,25.4,0Zm0,49.72A24.36,24.36,0,1,1,49.76,25.4,24.36,24.36,0,0,1,25.4,49.72Z"/></g></g></g></svg>