<svg xmlns="http://www.w3.org/2000/svg" viewBox="0 0 72.7 72.71"><defs><style>.cls-1,.cls-2{fill:#fff;}.cls-1{opacity:0.5;}</style></defs><g id="Layer_2" data-name="Layer 2"><g id="one"><g id="smartsearch-one"><circle class="cls-1" cx="35.98" cy="35.98" r="35.98"/><path class="cls-1" d="M67.11,30.18,57.59,19.82,49.51,30.18h5.62a21.19,21.19,0,1,1-6.87-10.57L52.87,15a27.57,27.57,0,1,0,9.06,15.19Z"/><polygon class="cls-1" points="30.34 43.22 31.15 46.44 31.55 48.91 32.35 48.91 32.66 51.22 39.3 51.22 39.6 48.91 40.4 48.91 40.8 46.44 41.61 43.22 30.34 43.22"/><path class="cls-2" d="M65.73,68.68H64.35v-.5H67.7v.5H66.32v4h-.59Z"/><path class="cls-2" d="M72,70.72c0-.63-.08-1.39-.07-2h0c-.15.53-.34,1.09-.57,1.72l-.8,2.19h-.44l-.73-2.15c-.22-.64-.4-1.23-.53-1.76h0c0,.56,0,1.32-.09,2l-.12,1.94h-.55l.31-4.53h.75l.77,2.19c.18.56.34,1,.45,1.52h0c.12-.45.28-1,.48-1.52l.8-2.19h.75l.28,4.53h-.57Z"/><path class="cls-2" d="M35.23,13.07A11.73,11.73,0,0,0,24.31,24.55a11.6,11.6,0,0,0,2.32,7.15,18,18,0,0,1,3.71,10.74v.78H33.2a62.3,62.3,0,0,0-1-11.21c-2.67-.53-3.37-1.63-3.52-2.36a1.73,1.73,0,0,1,1-1.94,2.34,2.34,0,0,1,2.83,1,6.72,6.72,0,0,1,.86,1.95,22.12,22.12,0,0,0,5,0,6.72,6.72,0,0,1,.87-1.95,2.34,2.34,0,0,1,2.83-1,1.73,1.73,0,0,1,1,1.94c-.15.73-.85,1.83-3.52,2.36a62.2,62.2,0,0,0-1,11.21h3v-.4a19.16,19.16,0,0,1,3.8-11.24A11.67,11.67,0,0,0,35.23,13.07ZM31,19.38a9.27,9.27,0,0,0-1.62,2.41,20.83,20.83,0,0,0-1.09,2.93,6.48,6.48,0,0,1,0-3.33,6.56,6.56,0,0,1,1.61-3,7.84,7.84,0,0,1,2.81-1.94A7,7,0,0,1,36,15.87,17.14,17.14,0,0,0,31,19.38Z"/><path class="cls-2" d="M38,32.23q-.92.09-2,.09h-.1q-1.14,0-2-.09a65.4,65.4,0,0,1,.89,11h2.39A65.75,65.75,0,0,1,38,32.23Z"/><path class="cls-2" d="M41.49,29.11a.54.54,0,0,0-.19,0,1,1,0,0,0-.78.51,4.2,4.2,0,0,0-.38.71c1.07-.33,1.46-.75,1.5-1S41.54,29.14,41.49,29.11Z"/><path class="cls-2" d="M30.55,29.08a.58.58,0,0,0-.19,0c-.05,0-.18.1-.15.22s.43.64,1.5,1a3.59,3.59,0,0,0-.38-.71A1,1,0,0,0,30.55,29.08Z"/></g></g></g></svg>