<svg xmlns="http://www.w3.org/2000/svg" viewBox="0 0 72.41 72.95"><defs><style>.cls-1{fill:#cbcdce;}.cls-2{fill:#cfd2d3;}.cls-3{fill:#aa192d;}.cls-4{fill:#76777b;}</style></defs><g id="Layer_2" data-name="Layer 2"><g id="color"><g id="suppliers-color"><circle class="cls-1" cx="36" cy="36" r="36"/><circle class="cls-2" cx="36.42" cy="36.11" r="9.94"/><circle class="cls-3" cx="36.42" cy="34.04" r="3.14"/><path class="cls-4" d="M63.3,34.57a6.36,6.36,0,0,0-12.52.67H47.07a10.68,10.68,0,0,0-4.68-8l1.86-3.06a6.43,6.43,0,0,0,2.79.66,6.38,6.38,0,1,0-5.67-3.45h0a6.28,6.28,0,0,0,1.59,2l-1.89,3.11a10.7,10.7,0,0,0-10.19.5l-2.14-3.34L29,23.4a6.37,6.37,0,1,0-4.56,1.92h.08a6.31,6.31,0,0,0,3-.78l2.13,3.31a10.61,10.61,0,0,0-3.86,7.39H21.54a6.37,6.37,0,1,0,0,1.53h4.18A10.66,10.66,0,0,0,30,44.69l-2.39,4a6.36,6.36,0,0,0-7.95,9.72,6.3,6.3,0,0,0,4.38,2.15l.41,0A6.37,6.37,0,0,0,29.27,50l-.39-.4,2.46-4a10.51,10.51,0,0,0,9.76.21l3,4.68a5.6,5.6,0,0,0-.63.56A6.37,6.37,0,0,0,48,61.77h.09a6.36,6.36,0,0,0,4.36-10.93A6.24,6.24,0,0,0,48,49a6.4,6.4,0,0,0-2.53.56l-3-4.64a10.6,10.6,0,0,0,4.67-8.18h3.68a6.37,6.37,0,1,0,12.52-2.2ZM44.2,41a9.17,9.17,0,1,1-2.92-12.64A9.19,9.19,0,0,1,44.2,41Z"/><path d="M68.76,65.62a3.67,3.67,0,1,1-2.6,1.07A3.55,3.55,0,0,1,68.76,65.62Zm0,.38a3.08,3.08,0,0,0-2.28,1,3.35,3.35,0,0,0,0,4.65,3.18,3.18,0,0,0,4.55,0A3.35,3.35,0,0,0,71,67,3,3,0,0,0,68.75,66Zm-1.64,5.3V67.2h2q1.26,0,1.26,1.2c0,.58-.19.93-.57,1.06a.75.75,0,0,1,.51.79v1h-.54v-1c0-.43-.2-.65-.6-.65H67.64v1.6Zm.53-2.09H69c.59,0,.88-.23.88-.7a1.24,1.24,0,0,0-.13-.68.81.81,0,0,0-.58-.15h-1.5Z"/><path class="cls-3" d="M31.61,41.36v2.55a9.16,9.16,0,0,0,9.62,0V41.36a3,3,0,0,0-3-3H34.66A3,3,0,0,0,31.61,41.36Z"/></g></g></g></svg>