<svg xmlns="http://www.w3.org/2000/svg" viewBox="0 0 73.16 73.09"><defs><style>.cls-1,.cls-2,.cls-3,.cls-4{fill:#fff;}.cls-1{opacity:0.5;}.cls-2{opacity:0.77;}.cls-3{opacity:0.33;}</style></defs><g id="Layer_2" data-name="Layer 2"><g id="one"><g id="tiertracker-one"><circle class="cls-1" cx="36.2" cy="36.2" r="36.2"/><rect class="cls-2" x="14.29" y="23.88" width="7.7" height="30.81"/><rect class="cls-1" x="27.13" y="16.17" width="7.7" height="38.51"/><rect class="cls-3" x="39.97" y="8.47" width="7.7" height="46.21"/><path class="cls-4" d="M66.14,69H64.76v-.5h3.37V69h-1.4v4h-.59Z"/><path class="cls-4" d="M72.47,71.09c0-.64-.08-1.4-.07-2h0c-.16.54-.34,1.1-.57,1.73L71,73.06h-.44l-.74-2.17c-.21-.64-.4-1.23-.53-1.77h0c0,.57,0,1.33-.09,2l-.12,2h-.56l.32-4.55h.75l.77,2.2c.19.56.35,1.06.46,1.53h0c.12-.46.28-1,.48-1.53l.81-2.2h.75l.29,4.55h-.58Z"/><path class="cls-4" d="M43.82,29.76V26.91h.34a2.59,2.59,0,0,1,1.36.22c.2.16.3.51.3,1.08v.2h.89v-.26a2,2,0,0,0-.53-1.61,3.41,3.41,0,0,0-2-.42h-.34v-.76h-.7v.76a4.46,4.46,0,0,0-2.42.45,2.08,2.08,0,0,0-.61,1.76,2.13,2.13,0,0,0,.59,1.79,4.55,4.55,0,0,0,2.44.43v3h-.29a2.8,2.8,0,0,1-1.6-.28c-.21-.18-.31-.64-.31-1.37v-.15H40c0,1.59.58,2.44,1.76,2.53q.3,0,.75,0h.6v.92h.7v-.92h.26a3.64,3.64,0,0,0,2.23-.49A2.26,2.26,0,0,0,46.9,32a2.09,2.09,0,0,0-.62-1.79A4.49,4.49,0,0,0,43.82,29.76Zm-.7,0H42.9a2.79,2.79,0,0,1-1.56-.28A1.6,1.6,0,0,1,41,28.21c0-.54.11-.9.35-1.07a3,3,0,0,1,1.51-.25h.28Zm1,3.87-.33-.05v-3H44a3.09,3.09,0,0,1,1.6.27A1.42,1.42,0,0,1,46,32C46,33.19,45.4,33.73,44.15,33.63Z"/><path class="cls-4" d="M61,44.57l-7.22-7.29a12.77,12.77,0,1,0-10.71,5.85,12.63,12.63,0,0,0,7.19-2.23l7.19,7.25a2.49,2.49,0,0,0,3.55,0A2.55,2.55,0,0,0,61,44.57ZM50.79,34.25a4.68,4.68,0,0,1-.3.54l0,.06a9,9,0,0,1-1.06,1.4l-.09.1a3.83,3.83,0,0,1-.29.28l-.26.24-.26.22-.36.27-.22.15a8.2,8.2,0,0,1-4.61,1.4,8.44,8.44,0,1,1,8.37-8.43A8.51,8.51,0,0,1,50.79,34.25Z"/></g></g></g></svg>