<svg xmlns="http://www.w3.org/2000/svg" viewBox="0 0 50.8 50.8"><defs><style>.cls-1{fill:#fff;}</style></defs><g id="Layer_2" data-name="Layer 2"><g id="small"><g id="tiertracker-small"><path class="cls-1" d="M25.4,0A25.4,25.4,0,1,0,50.8,25.4,25.4,25.4,0,0,0,25.4,0Zm0,49.72A24.36,24.36,0,1,1,49.76,25.4,24.36,24.36,0,0,1,25.4,49.72Z"/><path class="cls-1" d="M43.69,32.21l-5.25-5.3a9.4,9.4,0,0,0-5.18-14.09V6.73h-4.5v5.91A9.16,9.16,0,0,0,24.25,15V11.23h-4.5V38.1h4.5V28.57A9.23,9.23,0,0,0,28.76,31v7.1h4.5V30.78a9.19,9.19,0,0,0,2.63-1.24l5.22,5.27a1.81,1.81,0,0,0,2.56,0l0,0A1.85,1.85,0,0,0,43.69,32.21ZM36.6,24a6.1,6.1,0,0,1-3.34,3.64v-.05a6.73,6.73,0,0,1-2.54.51,6.4,6.4,0,0,1-1.84-.27A6.09,6.09,0,1,1,36.6,24Z"/><rect class="cls-1" x="10.77" y="16.93" width="4.5" height="21.17"/><path class="cls-1" d="M33.32,21.55a4.94,4.94,0,0,0-1.74-.25V19.44c1,0,1.23.12,1.23.83a1,1,0,0,0,0,.14H34a1.08,1.08,0,0,0,0-.22,1.68,1.68,0,0,0-.56-1.49c-.41-.27-.72-.32-1.9-.37v-.72h-.83v.72c-2,0-2.57.46-2.57,2.07,0,1,.24,1.46.84,1.72a5,5,0,0,0,1.73.24v2c-1.25,0-1.4-.13-1.39-1.22H28.1v.28A1.71,1.71,0,0,0,29,25.2a3.66,3.66,0,0,0,1.77.24v.84h.83v-.84a4.26,4.26,0,0,0,1.67-.2c.68-.27,1-.86,1-1.93S34,21.8,33.32,21.55Zm-2.57-.29h-.33a1.33,1.33,0,0,1-.7-.14c-.19-.1-.28-.37-.28-.77s.09-.65.28-.76.28-.13,1-.14Zm.83,3.11v-2c1.2,0,1.39.16,1.39,1S32.69,24.37,31.58,24.37Z"/></g></g></g></svg>