<svg xmlns="http://www.w3.org/2000/svg" viewBox="0 0 50.8 50.8"><defs><style>.cls-1{fill:#fff;}</style></defs><g id="Layer_2" data-name="Layer 2"><g id="small"><g id="tier1-small"><path class="cls-1" d="M34.49,24.28q-1.7-1.41-6.56-1.68h-1V16.18h.68c2.39,0,3.59.95,3.58,2.84v.46H35.4V18.9c0-2.51-.6-4.22-1.8-5.15s-3.37-1.38-6.6-1.38V9.89H24v2.48q-5.13,0-7,1.45c-1.25,1-1.88,2.75-1.89,5.36s.63,4.5,1.88,5.51,3.59,1.5,7,1.48v6.91h-.65c-1.75,0-2.89-.22-3.39-.68s-.77-1.47-.77-3v-.5H14.87v.87q0,3.86,1.88,5.42t6.47,1.56h.83V39.6H27V36.77h.89c3.09,0,5.24-.54,6.48-1.63s1.86-3,1.86-5.67Q36.2,25.69,34.49,24.28ZM24,22.42h-.65c-2.57,0-3.86-1.06-3.85-3.18s1.3-3.12,3.87-3H24Zm7.82,7.1q0,3.56-4.23,3.56H27V26.33c2,0,3.26.2,3.89.62A2.9,2.9,0,0,1,31.82,29.52Z"/><path class="cls-1" d="M25.4,0A25.4,25.4,0,1,0,50.8,25.4,25.4,25.4,0,0,0,25.4,0ZM41.71,14.34l4-2.4a24.22,24.22,0,0,1,3.84,10.4H44.8A19.26,19.26,0,0,0,41.71,14.34ZM44,25.16A18.36,18.36,0,1,1,25.86,6.79,18.47,18.47,0,0,1,44,25.16ZM25.4,49.72A24.36,24.36,0,1,1,38.88,5.08L36,8.83A19.63,19.63,0,0,0,5.81,25.16a19.62,19.62,0,0,0,39.1,2.07h4.77A24.35,24.35,0,0,1,25.4,49.72Z"/></g></g></g></svg>