<?xml version="1.0" encoding="utf-8"?>
<!-- Generator: Adobe Illustrator 25.2.0, SVG Export Plug-In . SVG Version: 6.00 Build 0)  -->
<svg version="1.1" id="Layer_1" xmlns="http://www.w3.org/2000/svg" xmlns:xlink="http://www.w3.org/1999/xlink" x="0px" y="0px"
	 viewBox="0 0 72.7 72.7" style="enable-background:new 0 0 72.7 72.7;" xml:space="preserve">
<style type="text/css">
	.st0{opacity:0.3;enable-background:new    ;}
	.st1{opacity:0.77;enable-background:new    ;}
	.st2{opacity:0.5;}
</style>
<g id="smartsearch-one">
	<circle class="st0" cx="36" cy="36" r="36"/>
	<polygon class="st1" points="30.3,43.2 31.1,46.4 31.5,48.9 32.3,48.9 32.7,51.2 39.3,51.2 39.6,48.9 40.4,48.9 40.8,46.4 
		41.6,43.2 	"/>
	<path d="M65.7,68.7h-1.4v-0.5h3.3v0.5h-1.4v4h-0.6V68.7z"/>
	<path d="M72,70.7c0-0.6-0.1-1.4-0.1-2l0,0c-0.2,0.5-0.3,1.1-0.6,1.7l-0.8,2.2h-0.4l-0.7-2.2c-0.2-0.6-0.4-1.2-0.5-1.8l0,0
		c0,0.6,0,1.3-0.1,2l-0.1,1.9h-0.6l0.3-4.5h0.8l0.8,2.2c0.2,0.6,0.3,1,0.4,1.5l0,0c0.1-0.4,0.3-1,0.5-1.5l0.8-2.2h0.8l0.3,4.5h-0.6
		L72,70.7z"/>
	<path class="st2" d="M35.2,13.1c-6.1,0.4-10.8,5.4-10.9,11.5c0,2.6,0.8,5.1,2.3,7.1c2.4,3.1,3.7,6.9,3.7,10.7v0.8h2.9
		c0-3.8-0.3-7.5-1-11.2c-2.7-0.5-3.4-1.6-3.5-2.4c-0.2-0.8,0.2-1.6,1-1.9c1.1-0.4,2.3,0,2.8,1c0.4,0.6,0.7,1.3,0.9,2
		c1.7,0.2,3.3,0.2,5,0c0.2-0.7,0.5-1.4,0.9-2c0.6-1,1.8-1.4,2.8-1c0.8,0.3,1.2,1.1,1,1.9c-0.2,0.7-0.8,1.8-3.5,2.4
		c-0.7,3.7-1,7.5-1,11.2h3v-0.4c0-4.1,1.4-8,3.8-11.2c3.8-5.2,2.6-12.5-2.6-16.3C40.6,13.7,37.9,12.9,35.2,13.1z M31,19.4
		c-0.7,0.7-1.2,1.5-1.6,2.4c-0.4,0.9-0.8,1.9-1.1,2.9c-0.3-1.1-0.3-2.2,0-3.3c0.3-1.1,0.8-2.2,1.6-3c0.8-0.8,1.7-1.5,2.8-1.9
		c1-0.5,2.2-0.7,3.3-0.6C34.1,16.7,32.4,17.9,31,19.4z"/>
	<path class="st2" d="M38,32.2c-0.6,0.1-1.3,0.1-2,0.1h-0.1c-0.8,0-1.4,0-2-0.1c0.6,3.6,0.9,7.3,0.9,11h2.4
		C37.1,39.5,37.4,35.9,38,32.2z"/>
	<path class="st2" d="M41.5,29.1c-0.1,0-0.1,0-0.2,0c-0.3,0-0.6,0.2-0.8,0.5c-0.1,0.2-0.3,0.5-0.4,0.7c1.1-0.3,1.5-0.8,1.5-1
		S41.5,29.1,41.5,29.1z"/>
	<path class="st2" d="M30.5,29.1c-0.1,0-0.1,0-0.2,0c0,0-0.2,0.1-0.1,0.2s0.4,0.6,1.5,1c-0.1-0.3-0.2-0.5-0.4-0.7
		C31.2,29.3,30.9,29.1,30.5,29.1z"/>
	<path class="st0" d="M67.1,30.2l-9.5-10.4l-8.1,10.4h5.6c3.2,11.3-3.4,23-14.7,26.1s-23-3.4-26.1-14.7
		c-3.1-11.2,3.3-22.8,14.4-26.1c1.8-1.4,4-2.4,6.5-2.5c2.7-0.2,5.4,0.6,7.5,2.2c0.8,0.6,1.6,1.3,2.2,2.1c1.2,0.6,2.3,1.4,3.3,2.2
		l4.6-4.6c-11.6-9.9-29-8.5-38.9,3.1c-9.9,11.6-8.5,29,3.1,38.9c11.6,9.9,29,8.5,38.9-3.1c5.6-6.5,7.8-15.3,6-23.7L67.1,30.2z"/>
</g>
</svg>
