<?xml version="1.0" encoding="utf-8"?>
<!-- Generator: Adobe Illustrator 25.2.0, SVG Export Plug-In . SVG Version: 6.00 Build 0)  -->
<svg version="1.1" id="Layer_1" xmlns="http://www.w3.org/2000/svg" xmlns:xlink="http://www.w3.org/1999/xlink" x="0px" y="0px"
	 viewBox="0 0 50.8 50.8" style="enable-background:new 0 0 50.8 50.8;" xml:space="preserve">
<style type="text/css">
	.st0{fill:#AA192D;}
</style>
<g id="Layer_2_1_">
	<g id="small">
		<g id="smartscrub-small">
			<path class="st0" d="M37.8,28.9c-0.1-4.3-2.8-8.1-6.9-9.5v-0.1c0.4-1.7-0.6-3.3-2.3-3.7L30,9.5l-1.4-0.3l0.5-2.1l-3.9-0.9
				l-0.5,2.1l-1.4-0.3l-3.2,13.7v0.1l-0.4,5l1.3,0.3l-0.6,2.6l2.5,0.6l0.6-2.6l1.4,0.3l1.8-4.7h0c0-0.1,0.1-0.2,0.1-0.3l0.3-1.2
				c0.9,0.2,1.9-0.1,2.6-0.6c3.6,1.6,5.1,5.9,3.5,9.5c-1.1,2.4-3.5,4-6.1,4.1c-0.8-0.9-2.2-1.1-3.1-0.3c-0.2,0.2-0.4,0.4-0.6,0.7
				h-6.9v2.3h6.6v3.4h-7.2c-1.2,0-2.3,0.8-2.7,1.9h23.1c-0.4-1.1-1.5-1.9-2.7-1.9h-6.1v-1.5C33.3,39.1,37.8,34.5,37.8,28.9
				C37.8,28.9,37.8,28.9,37.8,28.9z"/>
			<path class="st0" d="M25.4,0C11.4,0,0,11.4,0,25.4s11.4,25.4,25.4,25.4s25.4-11.4,25.4-25.4S39.4,0,25.4,0C25.4,0,25.4,0,25.4,0z
				 M25.4,49.7C11.9,49.7,1,38.8,1,25.4C1,11.9,11.9,1,25.4,1c13.5,0,24.4,10.9,24.4,24.4c0,0,0,0,0,0
				C49.7,38.8,38.8,49.7,25.4,49.7z"/>
		</g>
	</g>
</g>
</svg>
