<svg xmlns="http://www.w3.org/2000/svg" viewBox="0 0 50.8 50.8"><defs><style>.cls-1{fill:#fff;}</style></defs><g id="Layer_2" data-name="Layer 2"><g id="small"><g id="scorecard-small"><path class="cls-1" d="M38.11,14.82H34.54V13H30.46a5.77,5.77,0,0,0-10.75,0H15.64v1.82H12.11a5.61,5.61,0,0,0-5.59,5.59V31.73a5.61,5.61,0,0,0,5.59,5.59h26a5.6,5.6,0,0,0,5.59-5.59V20.41A5.61,5.61,0,0,0,38.11,14.82Zm-13-3.43a2.1,2.1,0,0,1,2.1,2.1H23A2.1,2.1,0,0,1,25.1,11.39ZM42.7,31.73a4.61,4.61,0,0,1-4.59,4.59h-26a4.61,4.61,0,0,1-4.59-4.59V20.41a4.61,4.61,0,0,1,4.59-4.59h3.53V17.2h18.9V15.82h3.57a4.61,4.61,0,0,1,4.59,4.59Z"/><rect class="cls-1" x="26.4" y="20.24" width="13.13" height="1.23"/><rect class="cls-1" x="26.4" y="23.67" width="9.45" height="1.23"/><polygon class="cls-1" points="29.45 27.09 28.05 28.51 26.65 27.09 25.94 27.81 27.34 29.23 25.94 30.64 26.65 31.36 28.05 29.94 29.45 31.36 30.16 30.64 28.76 29.23 30.16 27.81 29.45 27.09"/><path class="cls-1" d="M25.4,0A25.4,25.4,0,1,0,50.8,25.4,25.4,25.4,0,0,0,25.4,0Zm0,49.72A24.36,24.36,0,1,1,49.76,25.4,24.36,24.36,0,0,1,25.4,49.72Z"/><path class="cls-1" d="M17.85,21.19a1.91,1.91,0,0,0-2.61-.7,2,2,0,0,0-.7.7L10.3,28.53A1.91,1.91,0,0,0,12,31.39h8.47a1.9,1.9,0,0,0,1.88-1.92,1.85,1.85,0,0,0-.26-.94ZM17,30.34H15.63V29H17Zm-.06-2.42H15.7l-.17-4.24h1.55Z"/></g></g></g></svg>