<?xml version="1.0" encoding="utf-8"?>
<!-- Generator: Adobe Illustrator 25.2.0, SVG Export Plug-In . SVG Version: 6.00 Build 0)  -->
<svg version="1.1" id="Layer_1" xmlns="http://www.w3.org/2000/svg" xmlns:xlink="http://www.w3.org/1999/xlink" x="0px" y="0px"
	 viewBox="0 0 50.8 50.8" style="enable-background:new 0 0 50.8 50.8;" xml:space="preserve">
<style type="text/css">
	.st0{fill:#AA192D;}
</style>
<g id="Layer_2_1_">
	<g id="small">
		<g id="tier1-small">
			<path class="st0" d="M34.5,24.3c-1.1-0.9-3.3-1.5-6.6-1.7h-1v-6.4h0.7c2.4,0,3.6,1,3.6,2.8v0.5h4.2v-0.6c0-2.5-0.6-4.2-1.8-5.1
				s-3.4-1.4-6.6-1.4V9.9h-3v2.5c-3.4,0-5.8,0.5-7,1.4c-1.2,1-1.9,2.7-1.9,5.4s0.6,4.5,1.9,5.5s3.6,1.5,7,1.5v6.9h-0.6
				c-1.8,0-2.9-0.2-3.4-0.7s-0.8-1.5-0.8-3v-0.5h-4.3v0.9c0,2.6,0.6,4.4,1.9,5.4s3.4,1.6,6.5,1.6H24v2.8h3v-2.8h0.9
				c3.1,0,5.2-0.5,6.5-1.6s1.9-3,1.9-5.7C36.2,26.9,35.6,25.2,34.5,24.3z M24,22.4h-0.6c-2.6,0-3.9-1.1-3.9-3.2s1.3-3.1,3.9-3H24
				V22.4z M31.8,29.5c0,2.4-1.4,3.6-4.2,3.6H27v-6.8c2,0,3.3,0.2,3.9,0.6C31.6,27.6,32,28.6,31.8,29.5z"/>
			<path class="st0" d="M25.4,0C11.4,0,0,11.4,0,25.4s11.4,25.4,25.4,25.4s25.4-11.4,25.4-25.4S39.4,0,25.4,0C25.4,0,25.4,0,25.4,0z
				 M41.7,14.3l4-2.4c2.1,3.1,3.4,6.7,3.8,10.4h-4.8C44.4,19.5,43.3,16.7,41.7,14.3z M44,25.2c0,10.1-8.2,18.4-18.4,18.3
				c-10.1,0-18.4-8.2-18.3-18.4S15.5,6.8,25.7,6.8c0.1,0,0.1,0,0.2,0C35.9,7,43.9,15.1,44,25.2z M25.4,49.7C11.9,49.7,1,38.8,1,25.4
				S11.9,1,25.4,1c4.8,0,9.5,1.4,13.5,4.1L36,8.8c-9.1-5.8-21.3-3.2-27.1,6c-2,3.1-3,6.7-3.1,10.3C6,36,14.8,44.7,25.7,44.5
				c9.8-0.1,18.1-7.5,19.2-17.3h4.8C48.7,39.9,38.1,49.7,25.4,49.7z"/>
		</g>
	</g>
</g>
</svg>
