<?xml version="1.0" encoding="utf-8"?>
<!-- Generator: Adobe Illustrator 25.2.0, SVG Export Plug-In . SVG Version: 6.00 Build 0)  -->
<svg version="1.1" id="Layer_1" xmlns="http://www.w3.org/2000/svg" xmlns:xlink="http://www.w3.org/1999/xlink" x="0px" y="0px"
	 viewBox="0 0 50.8 50.8" style="enable-background:new 0 0 50.8 50.8;" xml:space="preserve">
<style type="text/css">
	.st0{fill:#AA192D;}
</style>
<g id="Layer_2_1_">
	<g id="small">
		<g id="eir-small">
			<path class="st0" d="M25.4,0C11.4,0,0,11.4,0,25.4s11.4,25.4,25.4,25.4s25.4-11.4,25.4-25.4S39.4,0,25.4,0C25.4,0,25.4,0,25.4,0z
				 M25.4,49.7C11.9,49.7,1,38.8,1,25.4C1,11.9,11.9,1,25.4,1c13.5,0,24.4,10.9,24.4,24.4c0,0,0,0,0,0
				C49.7,38.8,38.8,49.7,25.4,49.7z"/>
			<path class="st0" d="M43.1,33.1c-0.6-0.3-1.3-0.4-1.9-0.2c0-0.6-0.2-1.1-0.5-1.5c-0.4-0.4-1.1-0.2-3.2,0.2
				c-0.7,0.2-1.5,0.4-2.4,0.5c-1.7-6.6-5.8-8.1-9.7-7.9c-0.2-1.4-0.3-2.9-0.2-4.3c0-0.3,0.1-0.5,0.2-0.8c6.7,4,10.7-9,10.7-9
				s-2,0.6-6.4,2.3c-2.2,0.9-4,2.8-4.7,5.1c-1.1-2.3-3.2-4-5.8-4.6c-4.6-0.9-6.7-1.1-6.7-1.1s6,11.3,11.6,7.3c0.4,1.7,0.5,3.4,0.4,5
				c-1.5,0.2-2.9,0.5-4.2,1.1l-7.4-0.4V23l-7-0.6l-1.5,4.4l1.4,7.4l7.1-0.7v-0.1c1.1,0.4,2.1,1,3.1,1.7c1.3,1,2.8,1.8,4.3,2.5
				c3.6,1.4,7.5,2.2,11.4,2.3c0.5,0,1,0,1.5-0.1c3-0.3,5.8-1.5,8.1-3.3l1.2-0.9c1.2-0.9,1.5-1.2,1.5-1.6S43.5,33.3,43.1,33.1z
				 M33.6,33.4c1.5-0.2,2.9-0.5,4-0.8c0.8-0.2,1.6-0.4,2.4-0.4c0.2,0.3,0.2,0.7,0.2,1.1l-0.8,0.4c-1.3,0.7-2.7,1.1-4.1,1.2
				c-2-0.1-4.1-0.5-6-1.2C30.7,33.6,32.2,33.5,33.6,33.4z M41.8,34.6l-1.2,1c-2.2,1.8-4.9,2.9-7.7,3.2c-2.6,0.3-8.2-0.4-12.4-2.1
				c-1.5-0.6-2.9-1.4-4.1-2.3c-1.1-0.9-2.3-1.5-3.6-2v-6.4l8.2,0.5c0.1,0,7.1,0.9,9.1,1.9c1.6,0.8,1.6,1,1.6,1.3v0.2
				c0,0.2-0.4,0.5-0.8,0.8h-0.1l-7.9-0.6c-0.3,0-0.6,0.1-0.7,0.4c-0.2,0.2-0.2,0.6,0,0.8c0.8,1.1,2,1.8,3.3,2.2l0.9,0.3l0,0h0.1
				l1,0.4c2.5,1.1,5.2,1.7,7.9,1.8c1.6-0.1,3.2-0.5,4.6-1.3c1.3-0.6,2.1-1,2.9-0.6C42.5,34.1,42.1,34.4,41.8,34.6z"/>
		</g>
	</g>
</g>
</svg>
