<svg xmlns="http://www.w3.org/2000/svg" viewBox="0 0 72.99 73.09"><defs><style>.cls-1,.cls-2{fill:#fff;}.cls-1{opacity:0.5;}</style></defs><g id="Layer_2" data-name="Layer 2"><g id="one"><g id="portal-one"><circle class="cls-1" cx="36.2" cy="36.2" r="36.2"/><rect class="cls-1" x="17.07" y="12.58" width="28.38" height="42.39" transform="translate(62.51 67.55) rotate(180)"/><polygon class="cls-2" points="51.76 26.86 42.65 36.09 51.76 45.33 51.76 40.51 62.62 40.51 62.62 31.77 51.76 31.77 51.76 26.86"/><path class="cls-2" d="M66,69H64.59v-.5H68V69H66.57v4H66Z"/><path class="cls-2" d="M72.3,71.09c0-.64-.07-1.4-.06-2h0c-.16.54-.35,1.1-.58,1.73l-.8,2.21h-.45l-.73-2.17c-.22-.64-.4-1.23-.53-1.77h0c0,.57-.05,1.33-.09,2l-.12,2h-.56l.32-4.55h.74l.78,2.2c.19.56.34,1.06.46,1.53h0c.11-.46.28-1,.48-1.53l.81-2.2h.75L73,73.09h-.57Z"/><path class="cls-2" d="M17.07,13.39V55l23,12V25.42ZM31.16,38.3l-1.46-.86-1.61-4.06L26.54,36l-1.12-.51,2.21-3.27L25.7,26.51l1.24.66,1.41,3.9,1.83-2.71,1.12.52-2.49,3.4Zm4.53,6.12a1.54,1.54,0,1,1,1.54-1.54A1.54,1.54,0,0,1,35.69,44.42Z"/></g></g></g></svg>