<?xml version="1.0" encoding="utf-8"?>
<!-- Generator: Adobe Illustrator 25.2.0, SVG Export Plug-In . SVG Version: 6.00 Build 0)  -->
<svg version="1.1" id="Layer_1" xmlns="http://www.w3.org/2000/svg" xmlns:xlink="http://www.w3.org/1999/xlink" x="0px" y="0px"
	 viewBox="0 0 73.2 73.2" style="enable-background:new 0 0 73.2 73.2;" xml:space="preserve">
<style type="text/css">
	.st0{opacity:0.3;}
	.st1{opacity:0.33;enable-background:new    ;}
	.st2{opacity:0.5;enable-background:new    ;}
</style>
<g id="tier1-one">
	<g class="st0">
		<circle cx="36.2" cy="36.2" r="36.2"/>
	</g>
	<path class="st1" d="M36.2,9.1C21.5,9.3,9.7,21.4,9.8,36.1s12.2,26.6,27,26.4c14.6-0.2,26.4-12.1,26.4-26.7
		C63.1,21,51.1,9.1,36.2,9.1z"/>
	<path d="M38.5,22.8v9.3l1.4,0c4.7,0.3,7.9,1.1,9.5,2.4c1.7,1.4,2.5,3.9,2.5,7.5c0,3.9-0.9,6.7-2.7,8.3s-4.9,2.4-9.4,2.4h-1.3v4.2
		h-4.3v-4.2H33c-4.5,0-7.6-0.8-9.4-2.3s-2.7-4.1-2.7-7.9v-1.3h6.3V42c0,2.3,0.4,3.8,1.1,4.4s2.4,1,4.9,1h0.9V37.3
		c-5,0-8.4-0.7-10.2-2.1s-2.7-4.1-2.7-8c0-3.8,0.9-6.4,2.8-7.8s5.2-2.1,10.2-2.1v-3.7h4.3v3.6c4.8,0,8,0.7,9.7,2s2.6,3.8,2.6,7.5
		v0.9h-6.1v-0.7c0-2.7-1.7-4.1-5.2-4.1L38.5,22.8z M34.2,22.8h-0.9c-3.7,0-5.6,1.5-5.6,4.4c0,3.1,1.9,4.6,5.6,4.6l0.9,0V22.8z
		 M38.5,47.4h0.9c4.1,0,6.1-1.7,6.1-5.2c0-1.9-0.5-3.1-1.4-3.7s-2.8-0.9-5.7-0.9L38.5,47.4z"/>
	<path d="M72.4,35.8c0-1.4-0.1-2.7-0.2-4.1h-7.7C62,16.2,47.4,5.5,31.9,7.9c-13.8,2.1-24,14-24.2,27.9C7.9,51.6,20.8,64.2,36.6,64
		c14.3-0.2,26.3-11,28-25.2h7.7C72.3,37.9,72.4,36.8,72.4,35.8z M36.2,62.6c-14.8-0.2-26.6-12.2-26.4-27C10,20.8,22.1,9,36.8,9.1
		c14.6,0.2,26.4,12.1,26.4,26.7C63.1,50.7,51.1,62.6,36.2,62.6z"/>
	<path d="M66.1,69.1h-1.4v-0.5h3.4v0.5h-1.4v4h-0.6L66.1,69.1z"/>
	<path d="M72.5,71.2c0-0.6-0.1-1.4-0.1-2l0,0c-0.2,0.5-0.3,1.1-0.6,1.7L71,73.1h-0.4L69.8,71c-0.2-0.6-0.4-1.2-0.5-1.8l0,0
		c0,0.6,0,1.3-0.1,2l-0.1,2h-0.6l0.3-4.6h0.8l0.8,2.2c0.2,0.6,0.3,1.1,0.5,1.5l0,0c0.1-0.5,0.3-1,0.5-1.5l0.8-2.2h0.8l0.3,4.6h-0.6
		L72.5,71.2z"/>
	<path class="st2" d="M59.9,20.1l6.6-3.9c-2.7-4-6.1-7.5-10.1-10.1l-4.8,6C54.9,14.2,57.7,16.9,59.9,20.1z"/>
</g>
</svg>
