<?xml version="1.0" encoding="utf-8"?>
<!-- Generator: Adobe Illustrator 25.2.0, SVG Export Plug-In . SVG Version: 6.00 Build 0)  -->
<svg version="1.1" id="Layer_1" xmlns="http://www.w3.org/2000/svg" xmlns:xlink="http://www.w3.org/1999/xlink" x="0px" y="0px"
	 viewBox="0 0 50.8 50.8" style="enable-background:new 0 0 50.8 50.8;" xml:space="preserve">
<style type="text/css">
	.st0{fill:#AA192D;}
</style>
<g id="Layer_2_1_">
	<g id="small">
		<g id="database-small">
			<rect x="5" y="18.4" class="st0" width="6.8" height="1.1"/>
			<path class="st0" d="M33.6,29.6c3.3-5.2,1.8-12.1-3.3-15.4s-12.1-1.8-15.4,3.3S13.1,29.7,18.2,33c1.8,1.2,3.9,1.8,6.1,1.8
				c2.2,0,4.4-0.7,6.3-2l6.3,6.3c0.9,0.8,2.2,0.8,3.1,0l0,0c0.8-0.9,0.8-2.2,0-3.1L33.6,29.6z M24.5,31.1L24.5,31.1
				c-4.1,0-7.4-3.2-7.4-7.3s3.2-7.4,7.3-7.4c4.1,0,7.4,3.2,7.4,7.3v0.1C31.8,27.8,28.5,31.1,24.5,31.1
				C24.5,31.1,24.5,31.1,24.5,31.1z"/>
			<rect x="3.7" y="25.4" class="st0" width="7.7" height="1.1"/>
			<rect x="7.5" y="31.7" class="st0" width="6.5" height="1.1"/>
			<rect x="14.6" y="37.5" class="st0" width="5.5" height="1.1"/>
			<rect x="38.6" y="23.1" class="st0" width="6.7" height="1.1"/>
			<rect x="38.9" y="28.3" class="st0" width="3.3" height="1.1"/>
			<rect x="38.6" y="17.8" class="st0" width="4.9" height="1.1"/>
			<rect x="19.1" y="7.9" class="st0" width="10.6" height="1.1"/>
			<rect x="8.4" y="12.2" class="st0" width="7.1" height="0.8"/>
			<rect x="33" y="11.9" class="st0" width="4.7" height="1.1"/>
			<polygon class="st0" points="26.3,21.5 24.5,23.3 22.6,21.5 21.7,22.4 23.6,24.2 21.8,26 22.6,26.9 24.5,25.1 26.3,26.9 27.1,26 
				25.3,24.2 27.2,22.4 			"/>
			<path class="st0" d="M25.4,0C11.4,0,0,11.4,0,25.4s11.4,25.4,25.4,25.4s25.4-11.4,25.4-25.4S39.4,0,25.4,0C25.4,0,25.4,0,25.4,0z
				 M25.4,49.7C11.9,49.7,1,38.8,1,25.4C1,11.9,11.9,1,25.4,1c13.5,0,24.4,10.9,24.4,24.4c0,0,0,0,0,0
				C49.7,38.8,38.8,49.7,25.4,49.7z"/>
		</g>
	</g>
</g>
</svg>
