<?xml version="1.0" encoding="utf-8"?>
<!-- Generator: Adobe Illustrator 25.2.0, SVG Export Plug-In . SVG Version: 6.00 Build 0)  -->
<svg version="1.1" id="Layer_1" xmlns="http://www.w3.org/2000/svg" xmlns:xlink="http://www.w3.org/1999/xlink" x="0px" y="0px"
	 viewBox="0 0 50.8 50.8" style="enable-background:new 0 0 50.8 50.8;" xml:space="preserve">
<style type="text/css">
	.st0{fill:#AA192D;}
</style>
<g id="Layer_2_1_">
	<g id="small">
		<g id="portal-small">
			<path class="st0" d="M36.1,22.4V19l-3.8,3.9V8.7h-20v29.3l15.8,8.3v-7.4h4.2v-11l3.8,3.9v-3.3h7.5v-6L36.1,22.4z M17,17.6
				l2.1,1.3l0.3,1.5l0.1,0.8l0.1,0.4l0.1,0.9l0.1-0.1l0.2-0.3l0.2-0.3l0.4-0.6l1-1.5l1.9,0.8L21,23.1l1.3,4.9l-2-1.1L20,25.2
				l-0.2-0.8L19.7,24l-0.1-0.5l-0.2,0.2L19.2,24L19,24.4L18.5,25l-0.8,1.1L16,25.4l2.3-2.9L17,17.6z M31.2,37.8h-3.2V17.6l-15.2-8
				h18.4v14.3l-1.4,1.4l1.4,1.4V37.8z"/>
			<path class="st0" d="M25.4,0C11.4,0,0,11.4,0,25.4s11.4,25.4,25.4,25.4s25.4-11.4,25.4-25.4S39.4,0,25.4,0C25.4,0,25.4,0,25.4,0z
				 M25.4,49.7C11.9,49.7,1,38.8,1,25.4C1,11.9,11.9,1,25.4,1c13.5,0,24.4,10.9,24.4,24.4c0,0,0,0,0,0
				C49.7,38.8,38.8,49.7,25.4,49.7z"/>
		</g>
	</g>
</g>
</svg>
