<?xml version="1.0" encoding="utf-8"?>
<!-- Generator: Adobe Illustrator 25.2.0, SVG Export Plug-In . SVG Version: 6.00 Build 0)  -->
<svg version="1.1" id="Layer_1" xmlns="http://www.w3.org/2000/svg" xmlns:xlink="http://www.w3.org/1999/xlink" x="0px" y="0px"
	 viewBox="0 0 73.2 73.2" style="enable-background:new 0 0 73.2 73.2;" xml:space="preserve">
<style type="text/css">
	.st0{opacity:0.3;enable-background:new    ;}
	.st1{opacity:0.33;enable-background:new    ;}
	.st2{opacity:0.5;}
</style>
<g id="connxsmart-one">
	<ellipse class="st0" cx="36.2" cy="36" rx="36.2" ry="36"/>
	<path class="st1" d="M56,37.7c-1.9-5.5-7.7-8.5-13.3-6.7l0,0l-7,2.4l-7,2.5c-3,0.4-5.8-1.7-6.2-4.6c-0.3-2.2,0.8-4.4,2.7-5.5
		l20.4-7.3l-1.7-5.1l-20.3,7.5l0,0c-5.4,1.9-8.3,7.9-6.5,13.3c1.9,5.5,7.8,8.4,13.3,6.7l0,0l7-2.4l7-2.5c3-0.4,5.8,1.6,6.2,4.6
		c0.3,2.2-0.8,4.5-2.7,5.6l-20.3,7.3l1.8,5.1l20.3-7.5l0,0C55,49.1,57.9,43.2,56,37.7z"/>
	<ellipse cx="62.5" cy="35.9" rx="3.1" ry="3.1"/>
	<ellipse cx="10.9" cy="37" rx="3.1" ry="3.1"/>
	<polygon class="st2" points="27.5,53.4 29.3,58.6 33.9,56.9 32.1,51.8 	"/>
	<polygon class="st2" points="45.6,18.5 43.8,13.3 39,15.1 40.9,20.1 	"/>
	<path d="M69.5,65.9c2,0,3.6,1.6,3.6,3.6c0,1-0.4,1.9-1.1,2.6c-0.7,0.7-1.6,1.1-2.6,1.1c-2,0-3.6-1.6-3.7-3.6c0,0,0,0,0,0
		c0-1,0.4-1.9,1.1-2.5C67.6,66.3,68.5,65.9,69.5,65.9z M69.5,66.3c-0.9,0-1.7,0.3-2.3,0.9c-1.3,1.3-1.3,3.3,0,4.6
		c1.2,1.2,3.2,1.3,4.4,0.1c0,0,0.1-0.1,0.1-0.1c1.2-1.3,1.2-3.3,0-4.6C71.2,66.6,70.4,66.2,69.5,66.3L69.5,66.3z M67.9,71.5v-4.1h2
		c0.8,0,1.2,0.4,1.2,1.2c0,0.6-0.2,0.9-0.6,1.1c0.3,0.1,0.5,0.4,0.5,0.8v1h-0.5v-0.9c0-0.4-0.2-0.7-0.6-0.7h-1.5v1.6L67.9,71.5z
		 M68.4,69.4h1.3c0.6,0,0.9-0.2,0.9-0.7c0-0.2,0-0.5-0.1-0.7c-0.2-0.1-0.4-0.2-0.6-0.2h-1.5L68.4,69.4z"/>
</g>
</svg>
