<?xml version="1.0" encoding="utf-8"?>
<!-- Generator: Adobe Illustrator 25.2.0, SVG Export Plug-In . SVG Version: 6.00 Build 0)  -->
<svg version="1.1" id="Layer_1" xmlns="http://www.w3.org/2000/svg" xmlns:xlink="http://www.w3.org/1999/xlink" x="0px" y="0px"
	 viewBox="0 0 73 73.1" style="enable-background:new 0 0 73 73.1;" xml:space="preserve">
<style type="text/css">
	.st0{opacity:0.3;enable-background:new    ;}
	.st1{opacity:0.5;}
	.st2{opacity:0.5;enable-background:new    ;}
</style>
<circle class="st0" cx="36.2" cy="36.2" r="36.2"/>
<polygon points="51.8,26.9 42.7,36.1 51.8,45.3 51.8,40.5 62.6,40.5 62.6,31.8 51.8,31.8 "/>
<path d="M66,69h-1.4v-0.5H68V69h-1.4v4H66V69z"/>
<path d="M72.3,71.1c0-0.6-0.1-1.4-0.1-2l0,0c-0.2,0.5-0.3,1.1-0.6,1.7L70.9,73h-0.4l-0.7-2.2c-0.2-0.6-0.4-1.2-0.5-1.8l0,0
	c0,0.6-0.1,1.3-0.1,2l-0.1,2h-0.6l0.3-4.6h0.7l0.8,2.2c0.2,0.6,0.3,1.1,0.5,1.5l0,0c0.1-0.5,0.3-1,0.5-1.5l0.8-2.2h0.8l0.3,4.5h-0.6
	L72.3,71.1z"/>
<path class="st1" d="M17.1,13.4V55l23,12V25.4L17.1,13.4z M31.2,38.3l-1.5-0.9l-1.6-4.1L26.5,36l-1.1-0.5l2.2-3.3l-1.9-5.7l1.2,0.7
	l1.4,3.9l1.8-2.7l1.1,0.5l-2.5,3.4L31.2,38.3z M35.7,44.4c-0.9,0-1.5-0.7-1.5-1.5c0-0.9,0.7-1.5,1.5-1.5c0.9,0,1.5,0.7,1.5,1.5
	S36.5,44.4,35.7,44.4L35.7,44.4z"/>
<g class="st1">
	<circle class="st2" cx="35.7" cy="42.9" r="1.5"/>
	<polygon class="st2" points="26.5,36 28.1,33.3 29.7,37.4 31.2,38.3 28.7,32.3 31.2,28.9 30.1,28.4 28.3,31.1 26.9,27.2 25.7,26.5 
		27.6,32.2 25.4,35.5 	"/>
	<polygon class="st2" points="17.1,12.6 17.1,13.4 40.1,25.4 40.1,55 45.5,55 45.5,12.6 	"/>
</g>
</svg>
