<?xml version="1.0" encoding="utf-8"?>
<!-- Generator: Adobe Illustrator 25.2.0, SVG Export Plug-In . SVG Version: 6.00 Build 0)  -->
<svg version="1.1" id="Layer_1" xmlns="http://www.w3.org/2000/svg" xmlns:xlink="http://www.w3.org/1999/xlink" x="0px" y="0px"
	 viewBox="0 0 73.2 73.1" style="enable-background:new 0 0 73.2 73.1;" xml:space="preserve">
<style type="text/css">
	.st0{opacity:0.3;enable-background:new    ;}
	.st1{opacity:0.77;enable-background:new    ;}
	.st2{opacity:0.5;}
	.st3{opacity:0.33;enable-background:new    ;}
	.st4{opacity:0.5;enable-background:new    ;}
</style>
<circle class="st0" cx="36.2" cy="36.2" r="36.2"/>
<rect x="14.3" y="23.9" class="st1" width="7.7" height="30.8"/>
<path d="M66.1,69h-1.4v-0.5h3.4V69h-1.4v4h-0.6L66.1,69z"/>
<path d="M72.5,71.1c0-0.6-0.1-1.4-0.1-2l0,0c-0.2,0.5-0.3,1.1-0.6,1.7L71,73.1h-0.4l-0.7-2.2c-0.2-0.6-0.4-1.2-0.5-1.8l0,0
	c0,0.6,0,1.3-0.1,2l-0.1,2h-0.6l0.3-4.6h0.8l0.8,2.2c0.2,0.6,0.3,1.1,0.5,1.5l0,0c0.1-0.5,0.3-1,0.5-1.5l0.8-2.2h0.8l0.3,4.6h-0.6
	L72.5,71.1z"/>
<path class="st2" d="M43.8,29.8v-2.9h0.3c0.5-0.1,0.9,0,1.4,0.2c0.2,0.2,0.3,0.5,0.3,1.1v0.2h0.9v-0.3c0.1-0.6-0.1-1.2-0.5-1.6
	c-0.6-0.3-1.3-0.5-2-0.4h-0.3v-0.8h-0.7v0.8c-0.8-0.1-1.7,0.1-2.4,0.5c-0.5,0.5-0.7,1.1-0.6,1.8c-0.1,0.7,0.1,1.3,0.6,1.8
	c0.8,0.4,1.6,0.5,2.4,0.4v3h-0.3c-0.5,0.1-1.1,0-1.6-0.3c-0.2-0.2-0.3-0.6-0.3-1.4v-0.1H40c0,1.6,0.6,2.4,1.8,2.5c0.2,0,0.4,0,0.8,0
	h0.6v0.9h0.7v-0.9h0.3c0.8,0.1,1.6-0.1,2.2-0.5c0.5-0.5,0.7-1.1,0.6-1.8c0.1-0.7-0.1-1.3-0.6-1.8C45.5,29.8,44.7,29.7,43.8,29.8z
	 M43.1,29.8h-0.2c-0.5,0.1-1.1,0-1.6-0.3c-0.3-0.4-0.4-0.8-0.3-1.3c0-0.5,0.1-0.9,0.3-1.1c0.5-0.2,1-0.3,1.5-0.2h0.3L43.1,29.8z
	 M44.1,33.6l-0.3,0v-3H44c0.5-0.1,1.1,0,1.6,0.3c0.3,0.3,0.4,0.7,0.4,1.1C46,33.2,45.4,33.7,44.1,33.6L44.1,33.6z"/>
<path d="M61,44.6l-7.2-7.3c3.8-5.9,2.1-13.8-3.8-17.7s-13.8-2.1-17.7,3.8s-2.1,13.8,3.8,17.7c2.1,1.3,4.5,2,6.9,2
	c2.6,0,5.1-0.8,7.2-2.2l7.2,7.2c1,1,2.5,1,3.5,0c0,0,0,0,0,0C61.9,47.2,61.9,45.6,61,44.6z M50.8,34.2c-0.1,0.2-0.2,0.4-0.3,0.5v0.1
	c-0.3,0.5-0.7,1-1.1,1.4l-0.1,0.1c-0.1,0.1-0.2,0.2-0.3,0.3l-0.3,0.2l-0.3,0.2l-0.4,0.3L48,37.5c-1.4,0.9-3,1.4-4.6,1.4
	c-4.7,0-8.5-3.7-8.5-8.4s3.7-8.5,8.4-8.5c4.7,0,8.5,3.7,8.5,8.4c0,0,0,0.1,0,0.1C51.7,31.8,51.4,33.1,50.8,34.2z"/>
<g>
	<path class="st3" d="M47.7,37.7V23.3c-1.3-0.8-2.8-1.3-4.5-1.2c-1.1,0-2.2,0.2-3.2,0.7v15.5c1,0.4,2.2,0.7,3.4,0.7
		C44.9,38.9,46.4,38.5,47.7,37.7z"/>
	<path class="st3" d="M43.1,43.1C42,43.1,41,43,40,42.7v11.9h7.7V42.3C46.2,42.8,44.7,43.1,43.1,43.1z"/>
	<path class="st3" d="M47.7,18.5v-10H40V18C42.5,17.4,45.2,17.5,47.7,18.5z"/>
</g>
<path class="st4" d="M32.3,23.4c0.7-1.1,1.6-2.1,2.5-2.9v-4.4h-7.7v38.5h7.7V40.1C30,36,28.8,28.9,32.3,23.4z"/>
</svg>
