<svg xmlns="http://www.w3.org/2000/svg" viewBox="0 0 73.16 73.16"><defs><style>.cls-1,.cls-3{opacity:0.5;}.cls-2,.cls-3{fill:#fff;}</style></defs><g id="Layer_2" data-name="Layer 2"><g id="one"><g id="tier1-one"><g class="cls-1"><circle class="cls-2" cx="36.2" cy="36.2" r="36.2"/></g><path class="cls-3" d="M36.24,9.15a26.71,26.71,0,1,0,27,26.7A26.88,26.88,0,0,0,36.24,9.15Z"/><path class="cls-2" d="M38.48,22.79v9.29l1.41.05q7.06.39,9.55,2.44t2.47,7.52c0,3.92-.9,6.68-2.7,8.26s-4.94,2.37-9.42,2.37l-1.31,0V56.9H34.21V52.75l-1.2,0c-4.47,0-7.61-.75-9.43-2.27s-2.72-4.14-2.72-7.89l0-1.27h6.34v.65c0,2.28.37,3.76,1.11,4.42s2.38,1,4.94,1l.94,0V37.32q-7.49,0-10.22-2.14t-2.74-8c0-3.8.91-6.4,2.75-7.8s5.24-2.1,10.21-2.1V13.63h4.27v3.62q7.13,0,9.74,2t2.62,7.48v.85H44.72l0-.67q0-4.12-5.22-4.13Zm-4.27,0-.92,0q-5.62,0-5.63,4.41,0,4.62,5.61,4.62l.94.05Zm4.27,24.61h.92c4.06,0,6.1-1.73,6.1-5.19,0-1.89-.45-3.13-1.36-3.74s-2.79-.9-5.66-.9Z"/><path class="cls-2" d="M72.4,35.82a34,34,0,0,0-.24-4.06h-7.7A28.55,28.55,0,0,0,7.7,35.85a28.55,28.55,0,0,0,56.9,3h7.66C72.35,37.86,72.4,36.85,72.4,35.82ZM36.24,62.56a26.71,26.71,0,1,1,27-26.71A26.88,26.88,0,0,1,36.24,62.56Z"/><path class="cls-2" d="M66.14,69.11H64.76v-.5h3.37v.5h-1.4v4h-.59Z"/><path class="cls-2" d="M72.47,71.16c0-.64-.08-1.4-.07-2h0c-.16.54-.34,1.1-.57,1.73L71,73.13h-.44L69.82,71c-.21-.64-.4-1.23-.53-1.77h0c0,.57,0,1.33-.09,2l-.12,2h-.56l.32-4.55h.75l.77,2.2c.19.56.35,1.06.46,1.53h0c.12-.46.28-1,.48-1.53l.81-2.2h.75l.29,4.55h-.58Z"/><path class="cls-3" d="M59.93,20.15l6.55-3.93A36.38,36.38,0,0,0,56.37,6.09l-4.76,6A28.54,28.54,0,0,1,59.93,20.15Z"/></g></g></g></svg>