<svg xmlns="http://www.w3.org/2000/svg" viewBox="0 0 72.22 73.1"><defs><style>.cls-1{fill:#cbcdce;}.cls-2{fill:#fff;}.cls-3{fill:#d48a94;}.cls-4{fill:#54575a;}.cls-5{fill:#76777b;}.cls-6{fill:#79242f;}</style></defs><g id="Layer_2" data-name="Layer 2"><g id="color"><g id="smartsearch-color"><circle class="cls-1" cx="36" cy="36" r="36"/><path class="cls-2" d="M67.16,30.2,57.62,19.83,49.54,30.2h5.63a21.2,21.2,0,1,1-6.88-10.58L52.91,15A27.57,27.57,0,1,0,62,30.2Z"/><path class="cls-3" d="M47.68,24.73a11.68,11.68,0,1,0-21,7,18,18,0,0,1,3.72,10.75v.78H41.64v-.4a19.12,19.12,0,0,1,3.8-11.25A11.57,11.57,0,0,0,47.68,24.73Z"/><polygon class="cls-4" points="40.83 46.47 31.17 46.47 30.36 43.25 41.64 43.25 40.83 46.47"/><polygon class="cls-5" points="40.43 48.95 31.57 48.95 31.17 46.47 40.83 46.47 40.43 48.95"/><polygon class="cls-4" points="39.32 51.25 32.68 51.25 32.38 48.95 39.62 48.95 39.32 51.25"/><path class="cls-6" d="M42.13,27.73a2.33,2.33,0,0,0-2.83,1,6.72,6.72,0,0,0-.87,2,22,22,0,0,1-5,0,6.72,6.72,0,0,0-.87-2,2.33,2.33,0,0,0-2.83-1,1.72,1.72,0,0,0-1,1.93c.15.74.85,1.84,3.52,2.37a62.41,62.41,0,0,1,1,11.22h1.53a65.4,65.4,0,0,0-.89-11c.6.05,1.29.08,2,.08H36c.75,0,1.44,0,2-.08a65.4,65.4,0,0,0-.89,11h1.53a62.41,62.41,0,0,1,1-11.22c2.67-.53,3.37-1.63,3.52-2.37A1.72,1.72,0,0,0,42.13,27.73Zm-11.9,1.62c0-.12.1-.19.15-.22a.58.58,0,0,1,.19,0,1,1,0,0,1,.78.51,3.59,3.59,0,0,1,.38.71C30.66,30,30.27,29.57,30.23,29.35Zm9.94,1a3.59,3.59,0,0,1,.38-.71,1,1,0,0,1,.78-.51.58.58,0,0,1,.19,0s.18.1.15.22S41.24,30,40.17,30.32Z"/><path class="cls-6" d="M36,15.88a17,17,0,0,0-4.94,3.52,9,9,0,0,0-1.62,2.4,21.8,21.8,0,0,0-1.09,2.93,6.83,6.83,0,0,1,1.57-6.36,7.75,7.75,0,0,1,2.81-1.95A7,7,0,0,1,36,15.88Z"/><path d="M65.25,69.07H63.88v-.49h3.35v.49H65.84v4h-.59Z"/><path d="M71.54,71.11c0-.63-.07-1.39-.07-2h0c-.15.53-.34,1.09-.57,1.72l-.8,2.19h-.44l-.73-2.15c-.21-.64-.39-1.22-.52-1.76h0c0,.56,0,1.32-.08,2l-.12,1.94h-.56l.31-4.52h.75l.77,2.18c.19.56.34,1.06.46,1.52h0c.11-.45.27-1,.47-1.52l.81-2.18h.74l.28,4.52h-.57Z"/></g></g></g></svg>