<?xml version="1.0" encoding="utf-8"?>
<!-- Generator: Adobe Illustrator 25.2.0, SVG Export Plug-In . SVG Version: 6.00 Build 0)  -->
<svg version="1.1" id="Layer_1" xmlns="http://www.w3.org/2000/svg" xmlns:xlink="http://www.w3.org/1999/xlink" x="0px" y="0px"
	 viewBox="0 0 73.2 73" style="enable-background:new 0 0 73.2 73;" xml:space="preserve">
<style type="text/css">
	.st0{opacity:0.3;enable-background:new    ;}
</style>
<g id="detexion-one">
	<circle class="st0" cx="36.2" cy="36.2" r="36.2"/>
	<path d="M52.7,22.8c-0.3,0-0.6-0.2-0.7-0.5C46.6,9.8,30.7,14,30.5,14.1c-0.4,0.1-0.8-0.1-1-0.4c-0.1-0.4,0.1-0.8,0.4-1
		c0,0,0.1,0,0.1,0c0.2,0,17.4-4.6,23.3,9.1c0.2,0.4,0,0.8-0.4,1c0,0,0,0,0,0C52.9,22.8,52.8,22.8,52.7,22.8z"/>
	<path d="M19.5,22.8c-0.1,0-0.2,0-0.3-0.1c-0.4-0.2-0.6-0.6-0.4-1c0.1-0.2,2.5-5.5,7.3-7.4c0.4-0.1,0.8,0.1,1,0.4
		c0.1,0.4-0.1,0.8-0.4,1c-4.2,1.6-6.4,6.5-6.4,6.6C20.1,22.6,19.8,22.8,19.5,22.8z"/>
	<path d="M26.1,22.7c-0.2,0-0.4-0.1-0.5-0.2c-0.3-0.3-0.3-0.8,0-1.1c0.1-0.1,10.1-9.9,21.8-0.5c0.3,0.3,0.4,0.7,0.1,1.1c0,0,0,0,0,0
		c-0.3,0.3-0.7,0.4-1.1,0.1c-10.6-8.5-19.4,0.1-19.8,0.4C26.5,22.6,26.3,22.7,26.1,22.7z"/>
	<path d="M20.2,36.9c-0.3,0-0.6-0.2-0.7-0.5c-0.9-4.3,0.6-8.7,4-11.5c0.3-0.3,0.8-0.2,1.1,0.1c0.3,0.3,0.2,0.8-0.1,1.1
		c-2.9,2.4-4.3,6.3-3.5,10c0.1,0.4-0.1,0.8-0.5,0.9c0,0,0,0,0,0C20.4,36.9,20.3,36.9,20.2,36.9z"/>
	<path d="M52.5,43.6L52.5,43.6c-0.5-0.1-0.8-0.4-0.7-0.8c0,0,0,0,0,0c2-14.4-3.5-17.9-3.6-18c-0.3-0.2-0.5-0.7-0.3-1
		c0.2-0.3,0.6-0.5,1-0.3c0.3,0.2,6.4,4,4.3,19.5C53.2,43.4,52.9,43.6,52.5,43.6z"/>
	<path d="M32.3,25.3c-0.4,0-0.7-0.3-0.7-0.8c0-0.2,0.1-0.4,0.3-0.6c2.7-2.3,6.7-2.5,9.5-0.3c0.3,0.3,0.4,0.7,0.1,1.1
		c-0.3,0.3-0.7,0.4-1.1,0.1c0,0,0,0,0,0C36.7,22,33,25,32.8,25.1C32.7,25.2,32.5,25.3,32.3,25.3z"/>
	<path d="M19.9,42.3c-0.4,0-0.7-0.4-0.7-0.8c0-0.4,0.3-0.7,0.6-0.7c5.3-0.5,5.6-4.2,5.6-4.2c0.2-8.8,2.2-9.9,3.1-9.9
		c0.4,0,0.8,0.4,0.7,0.8c0,0.3-0.2,0.6-0.6,0.7c-0.2,0.1-1.6,1.1-1.7,8.5C27,36.8,26.5,41.7,19.9,42.3L19.9,42.3z M28.6,28.2
		L28.6,28.2z"/>
	<path d="M39,44.8c-0.4,0-0.8-0.3-0.8-0.7c0-0.3,0.1-0.5,0.4-0.7c4.1-2.4,3.2-10,3-11c-0.7-1.5-2.1-2.6-3.7-3
		C35.4,29,33.1,31,33.1,31c-0.3,0.3-0.8,0.3-1.1,0c0,0,0,0,0,0c-0.3-0.3-0.3-0.8,0-1.1c0.1-0.1,2.9-2.5,6-2c1.9,0.3,3.5,1.6,4.8,3.8
		c0,0.1,0.1,0.2,0.1,0.2c0.1,0.4,1.6,9.7-3.7,12.8C39.1,44.8,39.1,44.8,39,44.8z"/>
	<path d="M19.8,46.7L19.8,46.7c-0.5,0-0.8-0.4-0.7-0.8c0-0.4,0.3-0.6,0.7-0.7c0.1,0,5.9,0,9.3-3.6c1.8-1.9,2.5-4.5,2.3-7.8
		c0-0.4,0.3-0.8,0.8-0.8c0.4,0,0.7,0.3,0.8,0.6c0.3,3.7-0.6,6.7-2.7,8.9C26.4,46.6,20.4,46.7,19.8,46.7z"/>
	<path d="M52.9,50L52.9,50c-1.7-0.1-3.3-0.8-4.3-2.2C45,43.6,46,34.4,46.1,33.5c-0.2-4.3-2.2-5.2-2.2-5.2c-0.4-0.1-0.6-0.5-0.5-0.9
		s0.5-0.6,0.9-0.5c0,0,0.1,0,0.1,0.1c0.1,0,3,1.2,3.2,6.6c0,0,0,0.1,0,0.1c0,0.1-1.1,9.4,2.1,13.3c0.8,1,2,1.6,3.3,1.6
		c0.4,0,0.7,0.4,0.7,0.8C53.6,49.7,53.4,49.9,52.9,50L52.9,50z"/>
	<path d="M19.9,52.2c-0.3,0-0.6-0.2-0.7-0.5c-0.1-0.4,0.1-0.8,0.5-0.9c0.1,0,10.9-3.1,13.7-7.8c0.2-0.3,0.6-0.5,1-0.3
		c0.3,0.2,0.5,0.6,0.3,1c-3.1,5.3-14.1,8.4-14.6,8.6L19.9,52.2z"/>
	<path d="M22.9,56.8c-0.4,0-0.7-0.3-0.8-0.7c0-0.4,0.2-0.8,0.6-0.8c5.4-1.1,10.3-4.2,13.6-8.6c0.3-0.3,0.8-0.3,1.1,0
		c0.3,0.2,0.3,0.6,0.1,1C34.1,52.4,28.8,55.7,22.9,56.8L22.9,56.8z"/>
	<path d="M51.2,55.8c-5.4,0-9-7.2-9.1-7.5c-0.2-0.4,0-0.8,0.4-1c0.4-0.2,0.8,0,1,0.3c0,0,0,0,0,0c0,0.1,3.3,6.6,7.7,6.6
		c0.4,0,0.8,0.3,0.8,0.7s-0.3,0.8-0.7,0.8C51.3,55.8,51.2,55.8,51.2,55.8L51.2,55.8z"/>
	<path d="M28.5,60.8c-0.3,0-0.5-0.1-0.7-0.4c-0.2-0.4-0.1-0.8,0.3-1c0.1,0,7.3-4.1,9.5-5.7c0.4-0.5,1.1-0.7,1.7-0.8
		c2-0.1,4.5,1.6,7.6,5c0.3,0.3,0.2,0.8-0.1,1c-0.3,0.3-0.8,0.3-1.1,0c-3.6-4.1-5.5-4.6-6.4-4.5c-0.2,0-0.5,0.1-0.7,0.2
		c0,0.1-0.1,0.1-0.2,0.2c-2.2,1.6-9.4,5.6-9.7,5.8C28.8,60.8,28.6,60.8,28.5,60.8z"/>
	<path d="M41.3,60.8c-0.2,0-0.4-0.1-0.5-0.2c-0.7-0.8-1.7-1.3-2.7-1.3c-0.9,0.1-1.6,0.5-2.2,1.2c-0.3,0.3-0.7,0.4-1.1,0.1
		c-0.3-0.2-0.4-0.7-0.2-1c0.8-1,2-1.7,3.3-1.9c1.5,0,2.9,0.6,3.9,1.7c0.3,0.3,0.3,0.8,0,1.1c0,0,0,0,0,0
		C41.7,60.7,41.5,60.8,41.3,60.8z"/>
	<path d="M38.3,39.8c-0.4,0-0.8-0.3-0.8-0.8c0-1.8-2.3-4.6-3.2-5.5c-0.3-0.3-0.2-0.8,0.1-1.1c0.3-0.2,0.7-0.2,1,0
		c0.4,0.4,3.7,3.7,3.7,6.5C39.1,39.4,38.8,39.8,38.3,39.8z"/>
	<path d="M34,39.8c-0.2,0-0.4-0.1-0.5-0.2c-0.3-0.3-0.3-0.8,0-1.1c3.5-3.9,4.1-6.2,4.1-6.2c0.1-0.4,0.5-0.6,0.9-0.5c0,0,0,0,0,0
		c0.4,0.1,0.6,0.5,0.5,0.9c0,0.1-0.8,2.7-4.5,6.8C34.5,39.7,34.3,39.8,34,39.8z"/>
	<path d="M66.2,69h-1.4v-0.5h3.4V69h-1.4v4h-0.6V69z"/>
	<path d="M72.5,71c0-0.6-0.1-1.4-0.1-2l0,0c-0.2,0.5-0.3,1.1-0.6,1.7L71.1,73h-0.4l-0.7-2.2c-0.2-0.7-0.4-1.2-0.5-1.8l0,0
		c0,0.6,0,1.3-0.1,2l-0.1,2h-0.6l0.3-4.6h0.8l0.8,2.2c0.2,0.5,0.3,1,0.5,1.5l0,0c0.1-0.5,0.3-1,0.5-1.5l0.8-2.2h0.8l0.3,4.5h-0.6
		L72.5,71z"/>
</g>
</svg>
