<?xml version="1.0" encoding="utf-8"?>
<!-- Generator: Adobe Illustrator 25.2.0, SVG Export Plug-In . SVG Version: 6.00 Build 0)  -->
<svg version="1.1" id="Layer_1" xmlns="http://www.w3.org/2000/svg" xmlns:xlink="http://www.w3.org/1999/xlink" x="0px" y="0px"
	 viewBox="0 0 72.8 73.2" style="enable-background:new 0 0 72.8 73.2;" xml:space="preserve">
<style type="text/css">
	.st0{opacity:0.3;enable-background:new    ;}
	.st1{opacity:0.33;}
</style>
<circle class="st0" cx="36.1" cy="36.1" r="36.1"/>
<path d="M69.2,65.8c2,0,3.6,1.6,3.6,3.7c0,2-1.6,3.6-3.7,3.6c-2,0-3.6-1.6-3.6-3.7c0-1,0.4-1.9,1.1-2.6
	C67.3,66.2,68.2,65.8,69.2,65.8z M69.2,66.2c-0.9,0-1.7,0.4-2.3,1c-1.3,1.3-1.3,3.3,0,4.6c1.2,1.3,3.2,1.3,4.5,0.1
	c0,0,0.1-0.1,0.1-0.1c1.3-1.3,1.3-3.3,0-4.6C70.9,66.6,70.1,66.2,69.2,66.2z M67.6,71.5v-4.1h2c0.8,0,1.2,0.4,1.2,1.2
	c0,0.6-0.2,0.9-0.6,1.1c0.3,0.1,0.5,0.4,0.5,0.8v1h-0.5v-0.9c0-0.4-0.2-0.7-0.6-0.7h-1.5v1.6L67.6,71.5z M68.1,69.4h1.3
	c0.6,0,0.9-0.2,0.9-0.7c0-0.2,0-0.5-0.1-0.7c-0.2-0.1-0.4-0.2-0.6-0.2h-1.5V69.4z"/>
<g class="st1">
	<rect x="29.1" y="39.1" transform="matrix(0.2253 -0.9743 0.9743 0.2253 -15.6838 62.2652)" width="4.5" height="3.7"/>
	<rect x="23.4" y="50.1" width="10.9" height="3.3"/>
	<path d="M48.3,57.6H22.5c-1.7,0-3.3,1.1-3.9,2.7h33.4C51.6,58.7,50,57.6,48.3,57.6z"/>
	<path d="M39.2,28.8c5.7,0.6,9.9,5.6,9.3,11.4c-0.5,5.3-5,9.4-10.3,9.4l1.1,6.6c8.2,0,14.8-6.6,14.8-14.8c0-7.6-5.8-14-13.3-14.7
		l1.1,1.6l-1,0.7l-1.3-2l-0.6,0.4l0,0l-1.3,0.9l-0.7-1l2-1.3l-1.3-2l1-0.7l1.3,2l0.2-0.1L42.8,13l-9.6-2.2l-4.9,21.3l9.6,2.2
		L39.2,28.8z"/>
</g>
<polygon points="38.2,33 28.6,30.7 28,38 35.6,39.7 "/>
<path d="M36.2,48.4c-1.8,0-3.2,1.5-3.2,3.2l0,0l0,0v8.7h6.5v-8.6l0,0l0,0C39.5,49.9,38.1,48.4,36.2,48.4
	C36.3,48.4,36.3,48.4,36.2,48.4z M36.2,52.9c-0.5-0.1-0.8-0.5-0.7-0.9c0-0.4,0.3-0.7,0.7-0.7c0.5,0.1,0.8,0.5,0.7,0.9
	C36.9,52.5,36.6,52.8,36.2,52.9z"/>
<rect x="36.9" y="7.5" transform="matrix(0.2253 -0.9743 0.9743 0.2253 19.647 45.443)" width="3.1" height="5.8"/>
<path d="M40.6,21.8c-2.5-0.6-4.9,1-5.5,3.5c-0.6,2.5,1,4.9,3.5,5.5c2.5,0.5,4.9-1,5.5-3.4C44.7,24.8,43.1,22.4,40.6,21.8
	C40.6,21.8,40.6,21.8,40.6,21.8z M41.8,28.3l-1,0.7l-1.3-2l-2,1.3l-0.7-1l2-1.3l-1.3-2l1-0.7l1.3,2l2-1.3l0.7,1l-2,1.3L41.8,28.3z"
	/>
</svg>
