<svg xmlns="http://www.w3.org/2000/svg" viewBox="0 0 49.76 49.76"><defs><style>.cls-1{fill:#fff;}</style></defs><g id="Layer_2" data-name="Layer 2"><g id="small"><g id="myconnxion-small"><path class="cls-1" d="M24.88,0A24.88,24.88,0,1,0,49.76,24.88,24.88,24.88,0,0,0,24.88,0Zm0,48.72A23.86,23.86,0,1,1,48.74,24.88,23.86,23.86,0,0,1,24.88,48.72Z"/><path class="cls-1" d="M44.45,20.4a.46.46,0,0,0-.2-.32c-.09,0-.2,0-.34.24s-.29.39-.55.75h.11c-.26.36-.58.77-.95,1.26s-.79,1-1.24,1.56l-1.39,1.7q-.7.86-1.41,1.65c-.46.54-.89,1-1.28,1.44.54-1.33,1-2.62,1.48-3.87s.85-2.36,1.17-3.35.57-1.81.76-2.46a11.42,11.42,0,0,0,.31-1.16,1.33,1.33,0,0,0-.4-.88,4.33,4.33,0,0,0-1-.81,2.21,2.21,0,0,0-1-.34.43.43,0,0,0-.5.34.41.41,0,0,0,0,.11,5.23,5.23,0,0,1-.24,1.11c-.14.53-.34,1.18-.58,2a17.38,17.38,0,0,1-1.51,2.78,29.5,29.5,0,0,1-2.06,2.79,18,18,0,0,1-2.1,2.17,2.89,2.89,0,0,1-1.66.87c-.14,0-.15-.22,0-.66s.31-1,.57-1.67.55-1.41.89-2.22.66-1.56,1-2.29.57-1.38.8-1.94A5.44,5.44,0,0,0,33.41,18a1.21,1.21,0,0,0-.4-.87,4.77,4.77,0,0,0-1-.79A2.25,2.25,0,0,0,31,16a.43.43,0,0,0-.5.34.41.41,0,0,0,0,.11,5.23,5.23,0,0,1-.33,1.35c-.19.54-.42,1.13-.68,1.76l-.41,1c-.26.38-.53.8-.86,1.26h0l-1.16,1.7c-.4.58-.81,1.15-1.22,1.72s-.8,1.07-1.17,1.51a14.39,14.39,0,0,1-1,1.07,1.22,1.22,0,0,1-.75.41c-.21,0-.26-.19-.16-.58s.33-.95.56-1.55l.73-1.91c.25-.66.5-1.34.76-2s.49-1.29.69-1.87.38-1.07.51-1.48a6.42,6.42,0,0,0,.23-.86,1,1,0,0,0-.23-.66,3.24,3.24,0,0,0-.63-.65,5.1,5.1,0,0,0-.8-.5,1.67,1.67,0,0,0-.75-.22H23.7a.36.36,0,0,0-.27.19,8.34,8.34,0,0,0-.81.87c-.33.38-.69.82-1.08,1.33s-.79,1.05-1.2,1.62L19.13,21.6,18,23.18c-.34.49-.62.9-.83,1.22.23-.59.48-1.22.73-1.88l.73-1.9c.22-.6.41-1.13.56-1.59a4.88,4.88,0,0,0,.25-1,1.22,1.22,0,0,0-.41-.87,4.77,4.77,0,0,0-1-.79A2.21,2.21,0,0,0,17,16a.43.43,0,0,0-.5.34.41.41,0,0,0,0,.11l-.74,1c-.29.39-.61.82-1,1.3l-1,1.49-1,1.54c-.34.5-.65,1-.93,1.4l-.73,1.11c.25-.66.51-1.32.77-2s.49-1.29.7-1.87.4-1.08.54-1.5a6.2,6.2,0,0,0,.24-.87A1.19,1.19,0,0,0,13,17.2a4,4,0,0,0-1-.8,2.35,2.35,0,0,0-1-.35.41.41,0,0,0-.49.33.29.29,0,0,0,0,.13,7.45,7.45,0,0,1-.35,1.39c-.2.57-.44,1.19-.72,1.85s-.59,1.37-.91,2.09l-.91,2.07q-.42,1-.72,1.8A4.77,4.77,0,0,0,6.53,27a1.73,1.73,0,0,0,.35,1.24,3.11,3.11,0,0,0,.93.84,3.29,3.29,0,0,0,1,.43,1.06,1.06,0,0,0,.67-.05.38.38,0,0,0,.13-.26,1.82,1.82,0,0,0,0-.33c.26-.48.64-1.1,1.12-1.86s1-1.55,1.56-2.39S13.43,23,14,22.17s1-1.51,1.45-2.1l-.65,1.55-.6,1.48c-.18.48-.34.91-.46,1.31a4.26,4.26,0,0,0-.22,1,1.81,1.81,0,0,0,.28,1.24,3.16,3.16,0,0,0,.86.85,3,3,0,0,0,1,.42.94.94,0,0,0,.64,0,.31.31,0,0,0,.12-.23,1,1,0,0,0,0-.25c.18-.29.46-.69.84-1.19s.83-1.08,1.34-1.71l1.64-2.05c.59-.73,1.16-1.49,1.76-2.23-.29.68-.58,1.37-.89,2.07s-.58,1.37-.84,2-.47,1.19-.65,1.71a5.26,5.26,0,0,0-.3,1.23,1.75,1.75,0,0,0,.31,1.17,3.09,3.09,0,0,0,.86.83,3.37,3.37,0,0,0,1,.46,1.36,1.36,0,0,0,.72.05,3.12,3.12,0,0,0,1.35-.67A11.93,11.93,0,0,0,25,27.75,22.82,22.82,0,0,0,26.55,26l.43-.57a4.17,4.17,0,0,0-.26,1,2.45,2.45,0,0,0,.28,1.3,3.22,3.22,0,0,0,.73.95,4.28,4.28,0,0,0,.92.6,2.21,2.21,0,0,0,.8.21A3.16,3.16,0,0,0,31.08,29a8.8,8.8,0,0,0,1.61-1.25,14.94,14.94,0,0,0,1.45-1.63c.46-.58.86-1.14,1.22-1.65-.54,1.42-1.11,2.89-1.72,4.39s-1.25,2.93-1.89,4.26l-2.38,1.77c-.74.55-1.4,1.07-2,1.55A11.24,11.24,0,0,0,26,37.83,2,2,0,0,0,25.47,39a3.1,3.1,0,0,0,0,.86,2.46,2.46,0,0,0,.39.91,2.38,2.38,0,0,0,.81.7,2.85,2.85,0,0,0,1.38.28,3.19,3.19,0,0,0,2-.88,12,12,0,0,0,2.1-2.35,29.43,29.43,0,0,0,2-3.38c.66-1.27,1.29-2.6,1.9-4l.11-.08a.25.25,0,0,0,.1-.08,13.16,13.16,0,0,0,1.37-1.32c.53-.58,1.09-1.21,1.67-1.88s1.16-1.38,1.75-2.1,1.12-1.39,1.6-2,.88-1.14,1.2-1.57.52-.69.59-.8a1,1,0,0,0,.07-.39A1.51,1.51,0,0,0,44.45,20.4Zm-15.76,18c-.61.77-1.15,1.16-1.61,1.16a.25.25,0,0,1-.18-.08v0q-.09-.07-.06-.48c0-.41.41-.92,1.12-1.52s1.6-1.31,2.67-2.12A21,21,0,0,1,28.69,38.35Z"/></g></g></g></svg>