<?xml version="1.0" encoding="utf-8"?>
<!-- Generator: Adobe Illustrator 25.2.0, SVG Export Plug-In . SVG Version: 6.00 Build 0)  -->
<svg version="1.1" id="Layer_1" xmlns="http://www.w3.org/2000/svg" xmlns:xlink="http://www.w3.org/1999/xlink" x="0px" y="0px"
	 viewBox="0 0 73.2 73.7" style="enable-background:new 0 0 73.2 73.7;" xml:space="preserve">
<style type="text/css">
	.st0{opacity:0.3;enable-background:new    ;}
	.st1{opacity:0.33;}
</style>
<g id="myconnxion-one">
	<path d="M37.6,8.9L37.6,8.9L37.6,8.9L37.6,8.9z"/>
	<path d="M37.5,9.5L37.5,9.5L37.5,9.5z"/>
	<path d="M26.3,20.9L26.3,20.9L26.3,20.9L26.3,20.9z"/>
	<path d="M66.2,69.6h-1.4v-0.5h3.4v0.5h-1.4v4.1h-0.6V69.6z"/>
	<path d="M72.5,71.7c0-0.6-0.1-1.4-0.1-2l0,0c-0.2,0.5-0.3,1.1-0.6,1.7L71,73.6h-0.4l-0.7-2.2c-0.2-0.6-0.4-1.2-0.5-1.8l0,0
		c0,0.6,0,1.3-0.1,2l-0.1,2h-0.6l0.3-4.6h0.8l0.8,2.2c0.2,0.6,0.3,1.1,0.5,1.5l0,0c0.1-0.5,0.3-1,0.5-1.5l0.8-2.2h0.8l0.3,4.6h-0.6
		L72.5,71.7z"/>
	<ellipse class="st0" cx="36.2" cy="36.5" rx="36.2" ry="36.5"/>
	<g class="st1">
		<path d="M3.2,30.9c0.9,1.3,1.1,3.8,1.5,5.4c0.1,0.6,0.4,1.2,0.8,1.7c0.8,0.8,2,0.6,2.9,1c1.1,0.6,2,1.5,2.7,2.4
			c0.4,0.6,1,1,1.7,1.2h0.4c0.5-0.1,0.9-0.3,1.3-0.6c-0.2-0.3-0.6-0.2-0.9-0.2c-1,0-1.7-0.8-1.7-1.7c0,0,0,0,0-0.1
			c0-0.4,0.2-0.9-0.1-1.2s-1.1,0-1.5-0.3c-0.2-0.2-0.3-0.5-0.7-0.7s0.9-0.7-0.8-1c-0.7-0.2-1.4,0-1.8-0.6c-0.3-0.7-0.3-1.4-0.2-2.1
			c0.1-0.5,0.3-1.1,0.6-1.5c0.3-0.5,0.8-0.7,1.4-0.8c0.4,0,0.8,0.2,1.1,0c0.5-0.3,0.8-1,1.6-0.5c0.3,0.2,0.6,0.6,0.7,0.9
			c0.1,0.4,0.3,0.7,0.5,1.1c0.1,0.1,0.2,0.2,0.3,0.3c0.8-1.1-0.4-2.3,0.8-3.5c0.9-0.7,1.6-1.7,2-2.8c0.3-0.7,0.8-1.3,1.4-1.7
			c0.9-0.5,1.2-1.6,2.2-2c0.7,0,1.3-0.4,1.6-1c0.1-0.1-1-1.7-1.3-1.2c0.4-0.7,2.1-0.9,2.7-1c0.8-0.2,2-0.3,2.6-0.9s0.3-0.5-0.1-1
			c-0.2-0.3-0.2-0.5-0.4-0.7s-0.5-0.1-0.7-0.3s-0.1-1.1-0.3-1.6c-0.8-1.8-0.7,0-1.8,0c-0.8,0-0.4-0.4-0.5-0.8
			c-0.1-0.7-0.6-1.2-1.3-1.4c-0.4-0.1-0.8-0.1-1.2,0.1c-0.2,0.2-0.3,0.3-0.4,0.6c-0.2,0.4-0.4,0.8-0.6,1.1c-0.1,0.1-0.1,0.3-0.1,0.4
			c0.1,0.2,0.1,0.4,0.3,0.6c0.5,0.9-1.4,1.1-1.6,1.7c-0.2,0.4,0.3,1.2-0.3,1.4c-0.9,0.3-0.5-0.7-0.6-1.1c-0.2-1.4-1.9-1.2-2.4-2.4
			s1.9-2.7,2.7-3.3c0.6-0.4,1.2-0.8,1.9-1c0.6-0.2,1.5-0.2,1.9-0.8c0.2-0.4,0-1-0.5-0.8c-0.2,0.1-0.3,0.2-0.5,0.4
			c-0.1,0.1-0.3,0.2-0.5,0.2c-0.3,0-0.1-2.1-0.1-2.1c-0.9,0.2-1.1,0.8-1.6,1.4c-0.6,0.6-1.4,0.9-2.2,0.7c-0.1,0-0.2,0-0.3,0
			c-0.3,0.1-0.9,0.7-1.1,0.1c0-0.2,0-0.4,0-0.6c0.1-0.2,0-0.4-0.1-0.5c-0.4-0.4-0.4,0-0.8-0.3C10,11.1,8.4,13,7,15.1
			c-1.4,1.9-2.7,4-3.7,6.2c-0.4,0.9,0.2,1.3-0.2,2.2c-0.4,1.1-0.7,2.3-0.8,3.5"/>
		<path d="M32.9,51.3c-0.2-0.8-1.3-1-2-1.3c-1.3-0.6-2.8-1-4.1-1.5c-0.1,0-0.2-0.1-0.4-0.1c-0.1,0-1.4,1-1.1,0.2
			c0.1-0.2,0.2-0.3,0.3-0.4c0.2-0.4,0.1-0.8-0.2-1.1C24.5,45.6,23,46,22,45c-0.3-0.3-1.3-0.8-1.4-1.1c0-0.1-0.1-0.2-0.1-0.4
			c-0.1-0.3-0.4-0.5-0.7-0.5c-0.8,0-1.4,0.4-2.2,0s-1.5-0.4-1.7,0.4c-0.1-0.1-0.2-0.2-0.1-0.3c0-0.2,0.1-0.3,0.1-0.5
			c0-0.2-0.1-0.3-0.2-0.4c-0.5,0.5-1,0.9-1.4,1.5c-1.3,1.2,0.6,2.3-0.3,3.4c-0.3,0.3-0.6,0.6-0.7,1c0,0.8,0.1,1.7,0.4,2.5
			c0.3,1,1.2,1.4,1.8,2.2s0.8,1.7,1.5,2.2c0.4,0.2,0.8,0.4,1.2,0.6c1.2,0.6,1.3,1.8,1.8,2.9c0.5,1.2,0.9,2.4,1.2,3.7
			c0.6,1.8,1.5,3.4,2.7,4.8c0.3,0.4,0.6,0.7,0.9,1c0.5,0.6,1.1,1,1.8,1.4c0.5,0.2,1.4,0.5,1.6-0.1c-0.1-0.1-0.3-0.2-0.5-0.2
			c-0.5-0.1-0.9-0.3-1.3-0.6c-0.4-0.4-0.4-1.1-0.9-1.6c-0.2-0.1-0.3-0.3-0.3-0.5c-0.1-0.5,0.5-1.1-0.2-1.3c0.3-0.3,0.5-0.8,0.9-0.9
			c0.7-0.1,0.9-0.6,0.2-1c-0.9-0.6,0.4-0.5,0.7-0.6c0.8-0.5,1.4-1.4,1.4-2.4c0-0.3,0-0.7,0-1c0.2-0.8,1.3-0.9,2-1.1
			c0.2,0,0.4-0.1,0.5-0.3c0.6-0.6,0.5-2,0.6-2.9c0.1-1.2,1.4-1.8,1.6-2.9C33,51.7,33,51.5,32.9,51.3z"/>
		<path d="M36.6,5.4c-0.4-0.5-0.7-1-1-1.6c-0.1-0.1-1.8-1.5-1.7-1.5c-2-0.2-3.2,1-5,1.9c-0.2,0.1-0.3,0.2-0.4,0.3
			c-0.1,0.2-0.1,0.4,0.1,0.5c0.1,0,0.2,0,0.2,0.1c0.4,0.1,0.7,0.5,0.7,0.9c0,0.4-0.1,0.8-0.3,1.1c-0.3,0.4-0.5,0.9-0.6,1.3
			c0.3,0.1,1,0,1.1-0.4c-0.1,0.5-0.4,1-0.9,1.3c-0.4,0.3-0.7,0.9-0.7,1.4c0,0.2,0.1,0.3,0.2,0.5l0.5,0.9c0.3,0.6,0.8,1.3,1.5,1.3
			c0.2,0,0.5,0,0.7,0c0.3,0.1,0.5,0.5,0.9,0.6c0.3,0,0.5-0.2,0.6-0.4c0.3-0.7,0.6-1.4,0.7-2.1c0.5-1.9,2.2-2.1,3.3-3.5
			c0,0,0.1-0.1,0.1-0.1c0.4-0.5,0.5-1.1,0.3-1.7"/>
		<path d="M56.5,22.1c0.1,0.1,0.2,0.1,0.2,0.2l0.9,1.3c0.1,0.3,0.4,0.5,0.6,0.6c0.6,0.2,1.3-0.4,2-0.1s0.7,1.3,0.6,2.1
			c0,0.2-0.1,0.4-0.3,0.6c-0.1,0.1-0.3,0.1-0.5,0.1c-1.2,0-2.4-0.2-3.5-0.8c-0.4-0.2-0.9-0.3-1,0.1c0,0.1,0,0.2,0,0.3
			c-0.1,0.2-0.4,0.2-0.6,0.1l-2.8-0.9c-0.3-0.1-0.7-0.3-0.8-0.6s0.2-0.7,0-1c-0.1-0.1-0.3-0.2-0.5-0.2c-1.1-0.2-2.2-0.1-3.3,0.2
			c-0.7,0.3-1.5,0.5-2.3,0.5c-0.2,0-0.4,0-0.6,0c-0.2,0.1-0.4,0.2-0.6,0.4c-0.8,0.7-0.9,1.7-1.5,2.5c-0.3,0.4-0.6,0.7-1,1.1
			c-0.6,0.6-1.1,1.3-1.4,2c-0.2,0.4-0.3,0.9-0.3,1.3c0,0.3,0.2,0.7,0.2,1c-0.1,0.8-0.2,1.5-0.5,2.2c0,0.8,0.2,1.7,0.8,2.3
			c1.9,2.3,4.7,3.4,7.5,2.3c0.5-0.3,1.2-0.3,1.7,0c0.3,0.2,0.5,0.4,0.8,0.5c0.2,0.1,0.5,0.1,0.8,0.2c0.4,0.1,0.7,0.6,0.7,1
			c0,1.3-0.4,1.9,0.3,3.2c0.5,0.9,1.1,1.8,0.8,2.9s-1.3,1.8-1.3,3.2c0,1,0.1,1.9,0.3,2.8c0.1,1.1,0.2,2.3,0.1,3.4
			c-0.2,2.4,2.9,0.7,3.9,0c0.9-0.8,1.8-1.6,2.5-2.6c0.3-0.4,0.6-0.9,0.9-1.4c0.2-0.5,0.4-1,0.7-1.5c0.5-0.7,1.3-1,1.8-1.6
			c0.8-0.9,0.6-2,0.6-3.1c-0.1-1.7,0.5-2.4,1.6-3.6c0.9-0.9,1.6-2,2.1-3.2c0.2-0.3,1-3.3,0.7-3.4s-0.7,0.3-1,0.5
			c-1.1,0.7-1.8-1.8-2.2-2.5l-2.3-4.4c-0.3-0.4-0.4-0.9-0.3-1.3c0,0.1,2.4,1.5,2.6,1.7c0.6,0.7,1.1,1.4,1.5,2.2
			c0.3,0.7-0.1,1.8,0.8,1.8c1.4-0.2,2.5-1.3,2.7-2.7c0-0.5-0.1-1.1-0.5-1.5c-0.1-0.2-0.4,0.7-0.7,0.7c-0.7,0-0.5-0.8-1.1-1.5
			c-0.3-0.4-0.9-1-0.8-1.5c0.3,0.1,0.4,0.4,0.7,0.6c0.4,0.3,0.9,0.6,1.4,0.8c1.3,0.9,2.5,0.9,3.1,2.5c0.5,1.3,0.4,3.7,1.3,4.6
			c0-0.1,0-0.2,0-0.3c0.3-2.5-0.3-5.5-0.8-7.8c-0.5-2.5-1.3-5-2.4-7.3C66.3,15.2,62.2,10.3,57,6.6c-0.5-0.4-1-0.7-1.5-1
			c-0.2-0.1-0.5-0.3-0.7-0.3c-0.6,0,1.7,2,1.8,2.2c-0.1-0.1-0.2-0.1-0.3-0.1c-0.9-0.3-2.9-1.4-3.7,0.4l0,0c-1.5-0.8-3.8-1.4-4.6-0.3
			c-0.6,0.9-0.4,2.1-1.1,2.9c-0.2,0.1-0.4,0.3-0.5,0.5c-0.1,0.2-0.1,0.4-0.1,0.6c0,0.4,0.1,0.8,0.3,1.1c0.2,0.3,0.7,0.4,1,0.2
			c0.1-0.1,0.2-0.2,0.3-0.2c0.3-0.2,0.7,0.1,1,0.4l0.5,0.6c0.1,0.1,0.1,0.2,0.2,0.3c0,0.1-0.1,0.3-0.2,0.3l-3.3,3.1
			c-0.2,0.2,0.3,1,0.2,0.6c0.2,0.8-0.7,0.5-0.4,1.2c0.1,0.6-0.2,1.1-0.8,1.3c-0.6,0.2-1.9-0.6-2,0.3c-0.2,1,0.2,0.5,1,1.2
			c0.9,0.7,2.2,0.5,2.9-0.4c0.5-0.6,0.3,0.4,0.8-0.2c0.5-0.5,1.1-0.9,1.8-1c0.4-0.1,0.8-0.1,1.1,0c0.3,0.1,0.7,0.3,0.9,0.6
			c0.4,0.3,0.8,0.6,1.1,0.9c0.6,0.6,0.6,0.9,0.8,0.9"/>
	</g>
	<path d="M65.4,29.7c0-0.2-0.1-0.4-0.3-0.5c-0.1-0.1-0.3,0-0.5,0.4l-0.8,1.1c-0.4,0.5-0.8,1.2-1.4,1.9s-1.2,1.5-1.8,2.3l-2.1,2.5
		c-0.7,0.8-1.4,1.7-2.1,2.5s-1.3,1.5-1.9,2.2c0.8-2,1.5-3.9,2.2-5.8c0.7-1.9,1.2-3.5,1.7-5s0.9-2.7,1.1-3.7s0.4-1.6,0.4-1.8
		c0-0.5-0.2-1-0.6-1.3c-0.4-0.5-0.9-0.9-1.4-1.2c-0.5-0.3-1-0.5-1.5-0.5c-0.3-0.1-0.7,0.2-0.7,0.5c0,0.1,0,0.1,0,0.2
		c-0.1,0.6-0.2,1.1-0.4,1.6c-0.2,0.8-0.5,1.8-0.9,2.9c-0.6,1.5-1.4,2.8-2.2,4.2c-0.9,1.4-1.9,2.8-3,4.2c-0.9,1.2-2,2.3-3.1,3.2
		c-0.7,0.7-1.6,1.2-2.5,1.3c-0.2,0-0.2-0.3-0.1-1s0.5-1.5,0.8-2.5s0.8-2.1,1.3-3.3l1.5-3.4c0.5-1.1,0.9-2.1,1.2-2.9
		c0.2-0.5,0.4-1.1,0.5-1.7c0-0.5-0.2-1-0.6-1.3c-0.4-0.5-0.9-0.9-1.4-1.2c-0.5-0.3-1-0.5-1.5-0.5c-0.3-0.1-0.7,0.1-0.7,0.5
		c0,0.1,0,0.1,0,0.2c-0.1,0.7-0.3,1.4-0.5,2c-0.3,0.8-0.6,1.7-1,2.6c-0.2,0.4-0.4,0.9-0.6,1.4l-1.3,1.9c-0.6,0.8-1.1,1.7-1.7,2.5
		s-1.2,1.7-1.8,2.6s-1.2,1.6-1.8,2.3c-0.5,0.6-1,1.1-1.5,1.6c-0.3,0.3-0.7,0.5-1.1,0.6c-0.3,0-0.4-0.3-0.2-0.9s0.5-1.4,0.8-2.3
		s0.7-1.9,1.1-2.9s0.8-2,1.1-3s0.7-1.9,1-2.8s0.6-1.6,0.8-2.2c0.1-0.4,0.3-0.8,0.3-1.3c0-0.4-0.1-0.7-0.3-1c-0.3-0.4-0.6-0.7-0.9-1
		c-0.4-0.3-0.8-0.5-1.2-0.8C35.4,23.1,35,23,34.7,23h-0.1c-0.1,0-0.1,0-0.2,0c-0.2,0-0.3,0.1-0.4,0.3c-0.4,0.4-0.8,0.8-1.2,1.3
		c-0.5,0.6-1,1.2-1.6,2s-1.2,1.6-1.8,2.5s-1.2,1.7-1.8,2.5s-1.1,1.6-1.6,2.3l-1.2,1.8c0.3-0.9,0.7-1.8,1.1-2.8s0.7-2,1.1-2.8
		s0.6-1.7,0.8-2.4c0.2-0.5,0.3-1,0.4-1.5c0-0.5-0.2-1-0.6-1.3c-0.4-0.5-0.9-0.9-1.5-1.2c-0.5-0.3-1-0.5-1.5-0.5
		c-0.3-0.1-0.7,0.1-0.7,0.5c0,0.1,0,0.1,0,0.2l0,0c-0.3,0.4-0.7,0.9-1.1,1.4l-1.4,1.9c-0.5,0.7-1,1.5-1.5,2.2l-1.5,2.3
		c-0.5,0.7-1,1.4-1.4,2.1l-1.1,1.7l1.1-3c0.4-1,0.7-1.9,1-2.8s0.6-1.6,0.8-2.2c0.2-0.4,0.3-0.9,0.4-1.3c0-0.5-0.3-0.9-0.6-1.2
		c-0.4-0.5-0.9-0.9-1.5-1.2c-0.5-0.3-1-0.5-1.5-0.5c-0.3-0.1-0.7,0.1-0.7,0.5c0,0.1,0,0.1,0,0.2c-0.1,0.7-0.2,1.4-0.5,2.1
		c-0.3,0.9-0.6,1.8-1.1,2.8s-0.9,2-1.4,3.1C11.4,33,10.9,34,10.5,35s-0.8,1.9-1.1,2.7C9.2,38.3,9,39,8.9,39.6
		c-0.1,0.7,0.1,1.3,0.5,1.9c0.7,1,1.8,1.6,2.9,1.9c0.5,0.1,0.8,0.1,1-0.1c0.1-0.1,0.2-0.2,0.2-0.4c0-0.1,0-0.3,0-0.5
		c0.4-0.7,0.9-1.7,1.7-2.8s1.5-2.3,2.3-3.6s1.6-2.5,2.4-3.7s1.5-2.3,2.1-3.1c-0.3,0.8-0.6,1.5-1,2.3s-0.6,1.5-0.9,2.2
		s-0.5,1.3-0.7,2c-0.2,0.5-0.3,1-0.3,1.5c-0.1,0.7,0.1,1.3,0.4,1.9c0.4,0.5,0.8,0.9,1.3,1.2c0.4,0.3,0.9,0.5,1.5,0.6
		c0.3,0.1,0.6,0.1,1,0c0.1-0.1,0.2-0.2,0.2-0.3c0-0.1,0-0.2,0-0.4c0.3-0.4,0.7-1,1.2-1.8s1.2-1.6,2-2.6l2.4-3l2.7-3.4
		c-0.4,1-0.9,2-1.3,3.1s-0.9,2-1.2,3s-0.7,1.8-1,2.6c-0.2,0.6-0.4,1.2-0.4,1.8c-0.1,0.6,0.1,1.2,0.5,1.8c0.3,0.5,0.8,0.9,1.3,1.2
		c0.5,0.3,1,0.5,1.5,0.7c0.3,0.1,0.7,0.2,1.1,0.1c0.7-0.2,1.4-0.5,2-1c0.8-0.6,1.5-1.3,2.2-2c0.7-0.8,1.5-1.7,2.2-2.6l0.7-1
		c-0.2,0.6-0.4,1.1-0.4,1.7c-0.1,0.7,0.1,1.3,0.3,1.9c0.3,0.5,0.7,1,1.1,1.4c0.4,0.4,0.9,0.7,1.4,0.9c0.4,0.2,0.8,0.3,1.2,0.3
		c0.9,0,1.7-0.3,2.4-0.7c0.9-0.5,1.7-1.2,2.4-1.9c0.8-0.8,1.5-1.6,2.2-2.4c0.7-0.9,1.3-1.7,1.8-2.5c-0.8,2.1-1.7,4.3-2.6,6.6
		s-1.8,4.4-2.8,6.4l-3.5,2.6c-1.1,0.8-2.1,1.6-2.9,2.3c-0.7,0.6-1.4,1.3-2,2c-0.4,0.5-0.7,1.1-0.8,1.7c0,0.4,0,0.9,0.1,1.3
		c0.1,0.5,0.3,1,0.6,1.4c0.3,0.4,0.7,0.8,1.2,1.1c0.6,0.3,1.3,0.4,2,0.4c1.1-0.1,2.2-0.5,3-1.3c1.2-1,2.2-2.2,3.1-3.5
		c1.1-1.6,2.1-3.3,3-5c1-1.9,1.9-3.9,2.8-5.9c0,0,0.1-0.1,0.2-0.1c0.1,0,0.1-0.1,0.2-0.1c0.7-0.6,1.4-1.3,2-2
		c0.8-0.9,1.6-1.8,2.5-2.8s1.7-2.1,2.6-3.1s1.7-2.1,2.4-3s1.3-1.7,1.8-2.3l0.9-1.2c0.1-0.2,0.1-0.4,0.1-0.6
		C65.5,30.3,65.5,30,65.4,29.7z"/>
</g>
</svg>
