<svg xmlns="http://www.w3.org/2000/svg" viewBox="0 0 72.89 73.22"><defs><style>.cls-1{fill:#cbcdce;}.cls-2{fill:#aa192d;}.cls-3{fill:#76777b;}.cls-4{fill:#fff;}</style></defs><g id="Layer_2" data-name="Layer 2"><g id="color"><g id="connxsmart-color"><circle class="cls-1" cx="36" cy="36" r="36"/><path class="cls-2" d="M55.7,37.79a10.6,10.6,0,0,0-13.2-6.72h0l-7,2.37L28.55,36A5.48,5.48,0,0,1,25.1,25.79l20.24-7.3L43.6,13.36,23.43,20.85v0a10.59,10.59,0,0,0,6.78,20.06h0l7-2.37L44.17,36a5.48,5.48,0,0,1,3.45,10.19L27.38,53.5l1.74,5.14,20.17-7.49v0A10.58,10.58,0,0,0,55.7,37.79Z"/><circle class="cls-3" cx="62.17" cy="35.96" r="3.1"/><circle class="cls-3" cx="10.79" cy="37.01" r="3.1"/><polygon class="cls-4" points="27.38 53.51 29.12 58.64 33.68 56.95 31.94 51.86 27.38 53.51"/><polygon class="cls-4" points="45.34 18.5 43.6 13.36 38.83 15.13 40.68 20.18 45.34 18.5"/><path d="M69.26,65.93a3.65,3.65,0,0,1,3.63,3.64,3.53,3.53,0,0,1-1.07,2.58,3.64,3.64,0,1,1-2.56-6.22Zm0,.38a3.08,3.08,0,0,0-2.26,1,3.21,3.21,0,0,0-.94,2.31A3.18,3.18,0,0,0,67,71.88a3.14,3.14,0,0,0,4.52,0,3.17,3.17,0,0,0,.93-2.31,3.2,3.2,0,0,0-.93-2.31A3.05,3.05,0,0,0,69.25,66.31Zm-1.63,5.26V67.5h2c.83,0,1.25.4,1.25,1.19,0,.58-.19.93-.56,1.06a.75.75,0,0,1,.5.78v1h-.53v-.93c0-.44-.2-.65-.6-.65H68.15v1.58Zm.53-2.07h1.32c.58,0,.87-.23.87-.7a1.14,1.14,0,0,0-.13-.67.76.76,0,0,0-.57-.15H68.15Z"/></g></g></g></svg>