<?xml version="1.0" encoding="utf-8"?>
<!-- Generator: Adobe Illustrator 25.2.0, SVG Export Plug-In . SVG Version: 6.00 Build 0)  -->
<svg version="1.1" id="Layer_1" xmlns="http://www.w3.org/2000/svg" xmlns:xlink="http://www.w3.org/1999/xlink" x="0px" y="0px"
	 viewBox="0 0 73 73.2" style="enable-background:new 0 0 73 73.2;" xml:space="preserve">
<style type="text/css">
	.st0{opacity:0.3;enable-background:new    ;}
</style>
<g id="one">
	<g id="database-one">
		<path d="M66.1,69.2h-1.4v-0.5H68v0.5h-1.3v4h-0.6L66.1,69.2z"/>
		<path d="M72.3,71.2c0-0.6-0.1-1.4-0.1-1.9l0,0c-0.2,0.5-0.3,1.1-0.6,1.7l-0.8,2.2h-0.4L69.7,71c-0.2-0.6-0.4-1.2-0.5-1.7l0,0
			c0,0.6,0,1.3-0.1,2L69,73.2h-0.6l0.3-4.5h0.7l0.8,2.2c0.2,0.5,0.3,1,0.4,1.5l0,0c0.1-0.4,0.3-0.9,0.5-1.5l0.8-2.2h0.7l0.3,4.5
			h-0.6L72.3,71.2z"/>
		<circle class="st0" cx="36.2" cy="36.2" r="36.2"/>
		<path d="M52.8,47.9l-7.2-7.3c3.8-5.9,2.1-13.8-3.8-17.6s-13.8-2.1-17.6,3.8S22,40.7,27.9,44.5c2.1,1.3,4.5,2,6.9,2
			c2.6,0,5.1-0.8,7.2-2.2l7.2,7.3c1,1,2.5,1,3.5,0c0,0,0,0,0,0C53.7,50.5,53.7,48.9,52.8,47.9z M35.1,43c-5.1,0-9.2-4.1-9.3-9.1
			s4.1-9.2,9.1-9.3c5.1,0,9.2,4.1,9.3,9.1c0,0,0,0.1,0,0.1C44.2,38.9,40.1,43,35.1,43z"/>
		<rect x="7.9" y="24.3" width="9.8" height="1.5"/>
		<rect x="5.7" y="31.2" width="11.2" height="1.5"/>
		<rect x="12.8" y="41.5" width="4.1" height="1.5"/>
		<rect x="10" y="36.9" width="6.9" height="1.5"/>
		<rect x="10" y="47.5" width="15.5" height="1.5"/>
		<rect x="16.9" y="52.5" width="22.3" height="1.5"/>
		<rect x="53" y="32.9" width="12" height="1.5"/>
		<rect x="53" y="40.7" width="6.9" height="1.5"/>
		<rect x="51.3" y="25.2" width="11.2" height="1.5"/>
		<rect x="26.9" y="10.8" width="15.5" height="1.5"/>
		<rect x="11.3" y="17" width="18.5" height="1.2"/>
		<rect x="42.7" y="16.6" width="11.2" height="1.5"/>
		<polygon points="38.1,31.6 37,30.5 34.8,32.8 32.6,30.5 31.5,31.6 33.7,33.8 31.5,36 32.6,37.1 34.8,34.9 37,37.1 38.1,36 
			35.9,33.8 		"/>
	</g>
</g>
</svg>
