<svg xmlns="http://www.w3.org/2000/svg" viewBox="0 0 50.8 50.8"><defs><style>.cls-1{fill:#fff;}</style></defs><g id="Layer_2" data-name="Layer 2"><g id="small"><g id="database-small"><rect class="cls-1" x="5.02" y="18.35" width="6.76" height="1.06"/><path class="cls-1" d="M33.61,29.64a11.13,11.13,0,1,0-9.33,5.11,11,11,0,0,0,6.27-2l6.27,6.32a2.18,2.18,0,0,0,3.08,0l0,0a2.36,2.36,0,0,0,0-3.07Zm-9.12,1.45h0a7.36,7.36,0,1,1,7.3-7.42v.07A7.32,7.32,0,0,1,24.49,31.09Z"/><rect class="cls-1" x="3.68" y="25.4" width="7.68" height="1.06"/><rect class="cls-1" x="7.52" y="31.74" width="6.47" height="1.06"/><rect class="cls-1" x="14.63" y="37.45" width="5.53" height="1.06"/><rect class="cls-1" x="38.61" y="23.14" width="6.7" height="1.06"/><rect class="cls-1" x="38.88" y="28.3" width="3.35" height="1.06"/><rect class="cls-1" x="38.61" y="17.82" width="4.93" height="1.06"/><rect class="cls-1" x="19.14" y="7.93" width="10.63" height="1.06"/><rect class="cls-1" x="8.41" y="12.24" width="7.08" height="0.83"/><rect class="cls-1" x="32.99" y="11.92" width="4.65" height="1.06"/><polygon class="cls-1" points="26.27 21.5 24.45 23.31 22.63 21.49 21.74 22.38 23.56 24.2 21.75 26.01 22.64 26.9 24.45 25.09 26.26 26.9 27.15 26.01 25.34 24.2 27.16 22.39 26.27 21.5"/><path class="cls-1" d="M25.4,0A25.4,25.4,0,1,0,50.8,25.4,25.4,25.4,0,0,0,25.4,0Zm0,49.72A24.36,24.36,0,1,1,49.76,25.4,24.36,24.36,0,0,1,25.4,49.72Z"/></g></g></g></svg>