<?xml version="1.0" encoding="utf-8"?>
<!-- Generator: Adobe Illustrator 25.2.0, SVG Export Plug-In . SVG Version: 6.00 Build 0)  -->
<svg version="1.1" id="Layer_1" xmlns="http://www.w3.org/2000/svg" xmlns:xlink="http://www.w3.org/1999/xlink" x="0px" y="0px"
	 viewBox="0 0 50.8 50.8" style="enable-background:new 0 0 50.8 50.8;" xml:space="preserve">
<style type="text/css">
	.st0{fill:#AA192D;}
</style>
<g id="Layer_2_1_">
	<g id="small">
		<g id="suppliers-small">
			<path class="st0" d="M25.4,0C11.4,0,0,11.4,0,25.4s11.4,25.4,25.4,25.4s25.4-11.4,25.4-25.4S39.4,0,25.4,0C25.4,0,25.4,0,25.4,0z
				 M25.4,49.7C11.9,49.7,1,38.8,1,25.4C1,11.9,11.9,1,25.4,1c13.5,0,24.4,10.9,24.4,24.4c0,0,0,0,0,0
				C49.7,38.8,38.8,49.7,25.4,49.7z"/>
			<path class="st0" d="M25.7,21.9c-1.2,0-2.2,1-2.2,2.2c0,1.2,1,2.2,2.2,2.2c1.2,0,2.2-1,2.2-2.2c0,0,0,0,0,0l0,0
				C27.8,22.8,26.9,21.9,25.7,21.9z"/>
			<path class="st0" d="M44.3,24.4c-0.3-1.1-1-2.1-2-2.7c-2.1-1.3-4.8-0.7-6.1,1.4c-0.3,0.5-0.6,1.2-0.6,1.8H33
				c-0.2-2.2-1.4-4.3-3.2-5.5l1.3-2.1c0.6,0.3,1.3,0.4,1.9,0.5c0.7,0,1.4-0.2,2-0.5c2.2-1.1,3-3.8,1.9-5.9c-1.1-2.2-3.8-3-5.9-1.9
				c-2.2,1.1-3,3.8-1.9,5.9c0.3,0.5,0.6,1,1.1,1.4l-1.3,2.1c-2.2-1.1-4.9-0.9-7,0.4l-1.5-2.3c0.1,0,0.1-0.1,0.2-0.2
				c1.7-1.7,1.7-4.5-0.1-6.2c-0.8-0.8-2-1.3-3.1-1.2c-2.4,0.2-4.2,2.3-4,4.8c0.2,2.1,1.9,3.9,4,4h0.1c0.7,0,1.4-0.2,2.1-0.5l1.5,2.3
				c-1.5,1.3-2.5,3.1-2.7,5.1h-2.9c-0.3-2.5-2.5-4.3-5-4c-2.5,0.3-4.3,2.5-4,5s2.5,4.3,5,4c2.1-0.2,3.7-1.9,4-4h2.9
				c0.1,2.2,1.2,4.2,3,5.5l-1.6,2.7c-2.1-1.2-4.8-0.5-6,1.6s-0.5,4.8,1.6,6c0.6,0.3,1.2,0.5,1.9,0.6h0.3c2.4,0,4.4-2,4.4-4.4
				c0-1.1-0.4-2.1-1.1-2.9c-0.1-0.1-0.2-0.2-0.3-0.3l1.7-2.7c1.1,0.6,2.3,0.9,3.5,0.9c1.1,0,2.2-0.3,3.2-0.8l2.1,3.2
				c-0.2,0.1-0.3,0.3-0.4,0.4c-1.7,1.7-1.7,4.5,0.1,6.2c0.8,0.8,1.9,1.3,3.1,1.3h0.1c2.4,0,4.4-2.1,4.3-4.5c0-1.2-0.5-2.3-1.3-3.1
				c-0.8-0.8-2-1.3-3.1-1.2c-0.6,0-1.2,0.1-1.8,0.4l-2.1-3.2c1.9-1.3,3.1-3.4,3.2-5.6h2.5c0.3,2.4,2.5,4.1,4.9,3.8
				c1.3-0.2,2.5-0.9,3.2-2C44.3,26.7,44.5,25.5,44.3,24.4z M31.1,28.9L31.1,28.9v-0.1c-0.5,0.8-1.2,1.5-2.1,2v-1.7
				c0-1.2-0.9-2.1-2.1-2.1h-2.4c-1.2,0-2.1,0.9-2.1,2.1v1.8l0,0c-3-1.9-3.9-5.8-2-8.7c1.9-3,5.8-3.9,8.7-2
				C32.1,22,33,25.9,31.1,28.9C31.1,28.9,31.1,28.9,31.1,28.9L31.1,28.9z"/>
		</g>
	</g>
</g>
</svg>
