<svg xmlns="http://www.w3.org/2000/svg" viewBox="0 0 72.29 73.34"><defs><style>.cls-1{fill:#cbcdce;}.cls-2{fill:#aa192d;}.cls-3{fill:#76777b;}.cls-4{fill:#a7a7a9;}.cls-5{fill:#fff;}</style></defs><g id="Layer_2" data-name="Layer 2"><g id="color"><g id="smartscrub-color"><circle class="cls-1" cx="36" cy="36" r="36"/><polygon class="cls-2" points="41.44 9.5 35.85 8.2 35.16 11.19 36.16 11.42 28.94 42.64 32.54 43.47 39.76 12.25 40.75 12.48 41.44 9.5"/><path class="cls-3" d="M39.59,26.55l3.15-13.61-9.57-2.21L28.25,32l9.57,2.21,1.26-5.45a10.37,10.37,0,0,1-1,20.69l.09.54H23.31v3.28H38.68L39.14,56a14.73,14.73,0,0,0,.45-29.45Z"/><circle class="cls-2" cx="39.54" cy="26.21" r="4.56"/><path class="cls-3" d="M52,60.15a4.11,4.11,0,0,0-3.86-2.73H22.49a4.08,4.08,0,0,0-3.85,2.73Z"/><path class="cls-4" d="M39.37,51.48a3.24,3.24,0,1,0-6.47,0s0,0,0,0h0v8.63h6.47V51.52h0Zm-3.23,1.24A.82.82,0,1,1,37,51.9.81.81,0,0,1,36.14,52.72Z"/><rect class="cls-5" x="38.94" y="23.12" width="1.2" height="5.92" transform="translate(-7.83 26.01) rotate(-33.32)"/><rect class="cls-5" x="36.58" y="25.49" width="5.92" height="1.2" transform="translate(-7.83 26.02) rotate(-33.33)"/><path d="M68.65,66a3.67,3.67,0,1,1-2.59,1.07A3.51,3.51,0,0,1,68.65,66Zm0,.38a3.08,3.08,0,0,0-2.27,1,3.32,3.32,0,0,0,0,4.63,3.16,3.16,0,0,0,4.54,0,3.32,3.32,0,0,0,0-4.63A3,3,0,0,0,68.64,66.41ZM67,71.69V67.61h2c.84,0,1.25.39,1.25,1.19,0,.58-.18.94-.56,1.06a.75.75,0,0,1,.51.79v1h-.54v-.94c0-.43-.2-.65-.6-.65H67.54v1.59Zm.54-2.07h1.32c.59,0,.88-.24.88-.71a1.2,1.2,0,0,0-.13-.67.79.79,0,0,0-.58-.15H67.54Z"/><polygon class="cls-4" points="38.13 32.87 38.13 32.87 38.13 32.87 38.13 32.87"/><polygon class="cls-4" points="37.63 34.16 28.45 32.04 27.95 37.85 35.53 39.6 37.63 34.16"/></g></g></g></svg>