<svg xmlns="http://www.w3.org/2000/svg" viewBox="0 0 73.16 73.09"><defs><style>.cls-1,.cls-2,.cls-3{fill:#fff;}.cls-1{opacity:0.5;}.cls-2{opacity:0.33;}</style></defs><g id="Layer_2" data-name="Layer 2"><g id="one"><g id="scorecard-one"><circle class="cls-1" cx="36.2" cy="36.2" r="36.2"/><rect class="cls-2" x="9.4" y="21.54" width="52.7" height="31.28" rx="5.09"/><path class="cls-3" d="M24.7,29.94a2.66,2.66,0,0,0-4.59,0L14.22,40.12a2.66,2.66,0,0,0,2.3,4H28.29a2.65,2.65,0,0,0,2.29-4ZM23.17,41.78H21.71V40.22h1.46Zm-.06-2.9h-1.4l-.1-5.77h1.63Z"/><path class="cls-3" d="M49.5,18.11H43.57a8.4,8.4,0,0,0-15.64,0H22v6.1H49.5Zm-16.8.76a3.06,3.06,0,0,1,6.11,0Z"/><rect class="cls-3" x="37.66" y="28.7" width="19.1" height="1.54"/><rect class="cls-3" x="37.66" y="33.01" width="13.75" height="1.54"/><polygon class="cls-3" points="40.55 38.08 39.13 39.52 37.71 38.08 36.99 38.81 38.41 40.24 36.99 41.68 37.71 42.4 39.13 40.97 40.55 42.4 41.27 41.68 39.84 40.24 41.27 38.81 40.55 38.08"/><rect class="cls-3" x="42.94" y="42.55" width="13.21" height="1.03"/><path class="cls-3" d="M50.11,39.3a1.18,1.18,0,0,1-.57.17h-.49c0-.12,0-.31,0-.5a.76.76,0,0,0-.44-.75c-.16-.06-.58-.24-1.71.71-.19-.82-.62-1.5-1.41-1.5-1.27,0-2.3,1.95-2.49,2.34a.51.51,0,0,0,.23.68.5.5,0,0,0,.68-.22c.37-.75,1.12-1.78,1.58-1.78S46,39.36,46,40a.51.51,0,0,0,.31.47.49.49,0,0,0,.55-.11,8.5,8.5,0,0,1,1.18-1c0,1,.36,1.15,1.51,1.15a2.18,2.18,0,0,0,1-.28c.38-.2.68-.35,1.81.22a.46.46,0,0,0,.22.06.52.52,0,0,0,.46-.29.51.51,0,0,0-.23-.68C51.36,38.79,50.73,39,50.11,39.3Z"/><path class="cls-3" d="M66.14,69H64.76v-.5h3.37V69H66.74v4h-.6Z"/><path class="cls-3" d="M72.47,71.09c0-.64-.08-1.4-.07-2h0c-.16.54-.34,1.1-.57,1.73L71,73.06h-.44l-.74-2.17c-.21-.64-.4-1.23-.52-1.77h0c0,.57,0,1.33-.09,2l-.12,2h-.56l.32-4.55h.75l.78,2.2c.18.56.34,1.06.45,1.53h0c.12-.46.28-1,.48-1.53l.81-2.2h.75l.29,4.55h-.58Z"/></g></g></g></svg>