<?xml version="1.0" encoding="utf-8"?>
<!-- Generator: Adobe Illustrator 25.2.0, SVG Export Plug-In . SVG Version: 6.00 Build 0)  -->
<svg version="1.1" id="Layer_1" xmlns="http://www.w3.org/2000/svg" xmlns:xlink="http://www.w3.org/1999/xlink" x="0px" y="0px"
	 viewBox="0 0 49.8 49.8" style="enable-background:new 0 0 49.8 49.8;" xml:space="preserve">
<style type="text/css">
	.st0{fill:#AA192D;}
</style>
<g id="Layer_2_1_">
	<g id="small">
		<g id="myconnxion-small">
			<path class="st0" d="M24.9,0C11.1,0,0,11.1,0,24.9s11.1,24.9,24.9,24.9s24.9-11.1,24.9-24.9S38.6,0,24.9,0C24.9,0,24.9,0,24.9,0z
				 M24.9,48.7C11.7,48.7,1,38,1,24.9C1,11.7,11.7,1,24.9,1c13.2,0,23.9,10.7,23.9,23.9c0,0,0,0,0,0C48.7,38,38,48.7,24.9,48.7z"/>
			<path class="st0" d="M44.5,20.4c0-0.1-0.1-0.2-0.2-0.3c-0.1,0-0.2,0-0.3,0.2s-0.3,0.4-0.5,0.8h0.1c-0.3,0.4-0.6,0.8-1,1.3
				s-0.8,1-1.2,1.6l-1.4,1.7c-0.5,0.6-0.9,1.1-1.4,1.6c-0.5,0.5-0.9,1-1.3,1.4c0.5-1.3,1-2.6,1.5-3.9s0.8-2.4,1.2-3.4
				s0.6-1.8,0.8-2.5c0.1-0.4,0.2-0.8,0.3-1.2c0-0.3-0.2-0.6-0.4-0.9c-0.3-0.3-0.6-0.6-1-0.8c-0.3-0.2-0.6-0.3-1-0.3
				c-0.2,0-0.5,0.1-0.5,0.3c0,0,0,0.1,0,0.1c0,0.4-0.1,0.7-0.2,1.1c-0.1,0.5-0.3,1.2-0.6,2c-0.4,1-0.9,1.9-1.5,2.8
				c-0.6,1-1.3,1.9-2.1,2.8c-0.6,0.8-1.3,1.5-2.1,2.2c-0.4,0.5-1,0.8-1.7,0.9c-0.1,0-0.1-0.2,0-0.7s0.3-1,0.6-1.7s0.5-1.4,0.9-2.2
				s0.7-1.6,1-2.3c0.3-0.7,0.6-1.4,0.8-1.9c0.1-0.4,0.2-0.8,0.3-1.2c0-0.3-0.2-0.6-0.4-0.9c-0.3-0.3-0.6-0.6-1-0.8
				c-0.3-0.2-0.7-0.3-1-0.3c-0.2,0-0.5,0.1-0.5,0.3c0,0,0,0.1,0,0.1c0,0.5-0.2,0.9-0.3,1.4c-0.2,0.5-0.4,1.1-0.7,1.8l-0.4,1
				c-0.3,0.4-0.5,0.8-0.9,1.3l0,0l-1.2,1.7c-0.4,0.6-0.8,1.1-1.2,1.7s-0.8,1.1-1.2,1.5c-0.3,0.4-0.6,0.7-1,1.1
				c-0.2,0.2-0.5,0.4-0.8,0.4c-0.2,0-0.3-0.2-0.2-0.6s0.3-1,0.6-1.5l0.7-1.9c0.2-0.7,0.5-1.3,0.8-2s0.5-1.3,0.7-1.9s0.4-1.1,0.5-1.5
				c0.1-0.3,0.2-0.6,0.2-0.9c0-0.2-0.1-0.5-0.2-0.7c-0.2-0.2-0.4-0.5-0.6-0.6c-0.3-0.2-0.5-0.4-0.8-0.5C24.4,16,24.1,16,23.8,16
				h-0.1c-0.1,0-0.2,0.1-0.3,0.2c-0.3,0.3-0.6,0.6-0.8,0.9c-0.3,0.4-0.7,0.8-1.1,1.3s-0.8,1-1.2,1.6l-1.2,1.6L18,23.2
				c-0.3,0.5-0.6,0.9-0.8,1.2c0.2-0.6,0.5-1.2,0.7-1.9l0.7-1.9c0.2-0.6,0.4-1.1,0.6-1.6c0.1-0.3,0.2-0.7,0.2-1
				c0-0.3-0.2-0.6-0.4-0.9c-0.3-0.3-0.6-0.6-1-0.8c-0.3-0.2-0.7-0.3-1-0.4c-0.2,0-0.5,0.1-0.5,0.3c0,0,0,0.1,0,0.1l-0.7,1
				c-0.3,0.4-0.6,0.8-1,1.3l-1,1.5l-1,1.5c-0.3,0.5-0.6,1-0.9,1.4l-0.7,1.1c0.2-0.7,0.5-1.3,0.8-2s0.5-1.3,0.7-1.9s0.4-1.1,0.5-1.5
				c0.1-0.3,0.2-0.6,0.2-0.9c0-0.3-0.1-0.6-0.4-0.8c-0.3-0.3-0.6-0.6-1-0.8c-0.3-0.2-0.6-0.3-1-0.4c-0.2,0-0.4,0.1-0.5,0.3
				c0,0,0,0,0,0c0,0,0,0.1,0,0.1c-0.1,0.5-0.2,0.9-0.4,1.4c-0.2,0.6-0.4,1.2-0.7,1.9s-0.6,1.4-0.9,2.1l-0.9,2.1
				c-0.3,0.7-0.5,1.3-0.7,1.8c-0.2,0.4-0.3,0.8-0.4,1.3c0,0.4,0.1,0.9,0.3,1.2c0.2,0.3,0.6,0.6,0.9,0.8c0.3,0.2,0.6,0.3,1,0.4
				c0.2,0.1,0.5,0,0.7,0c0.1-0.1,0.1-0.2,0.1-0.3c0-0.1,0-0.2,0-0.3c0.3-0.5,0.6-1.1,1.1-1.9s1-1.5,1.6-2.4s1.1-1.6,1.7-2.5
				s1-1.5,1.4-2.1l-0.6,1.5l-0.6,1.5c-0.2,0.5-0.3,0.9-0.5,1.3c-0.1,0.3-0.2,0.7-0.2,1c-0.1,0.4,0,0.9,0.3,1.2
				c0.2,0.3,0.5,0.6,0.9,0.9c0.3,0.2,0.6,0.3,1,0.4c0.2,0.1,0.4,0.1,0.6,0c0.1-0.1,0.1-0.1,0.1-0.2c0-0.1,0-0.2,0-0.2
				c0.2-0.3,0.5-0.7,0.8-1.2s0.8-1.1,1.3-1.7l1.6-2c0.6-0.7,1.2-1.5,1.8-2.2c-0.3,0.7-0.6,1.4-0.9,2.1s-0.6,1.4-0.8,2
				s-0.5,1.2-0.6,1.7c-0.1,0.4-0.2,0.8-0.3,1.2c0,0.4,0.1,0.8,0.3,1.2c0.2,0.3,0.5,0.6,0.9,0.8c0.3,0.2,0.6,0.4,1,0.5
				c0.2,0.1,0.5,0.1,0.7,0c0.5-0.1,1-0.3,1.4-0.7c0.5-0.4,1-0.9,1.4-1.4c0.5-0.6,1.1-1.1,1.5-1.8l0.4-0.6c-0.1,0.3-0.2,0.7-0.3,1
				c0,0.5,0.1,0.9,0.3,1.3c0.2,0.4,0.4,0.7,0.7,1c0.3,0.2,0.6,0.4,0.9,0.6c0.3,0.1,0.5,0.2,0.8,0.2c0.6,0,1.1-0.2,1.6-0.5
				c0.6-0.4,1.1-0.8,1.6-1.2c0.5-0.5,1-1.1,1.5-1.6c0.5-0.6,0.9-1.1,1.2-1.6c-0.5,1.4-1.1,2.9-1.7,4.4s-1.2,2.9-1.9,4.3l-2.4,1.8
				c-0.7,0.5-1.4,1.1-2,1.5c-0.5,0.4-1,0.9-1.4,1.4c-0.3,0.3-0.5,0.7-0.5,1.2c0,0.3,0,0.6,0,0.9c0.1,0.3,0.2,0.6,0.4,0.9
				c0.2,0.3,0.5,0.5,0.8,0.7c0.4,0.2,0.9,0.3,1.4,0.3c0.7,0,1.5-0.4,2-0.9c0.8-0.7,1.5-1.5,2.1-2.3c0.7-1.1,1.4-2.2,2-3.4
				c0.7-1.3,1.3-2.6,1.9-4l0.1-0.1c0,0,0.1,0,0.1-0.1c0.5-0.4,0.9-0.8,1.4-1.3c0.5-0.6,1.1-1.2,1.7-1.9s1.2-1.4,1.8-2.1
				s1.1-1.4,1.6-2s0.9-1.1,1.2-1.6s0.5-0.7,0.6-0.8c0-0.1,0.1-0.3,0.1-0.4C44.5,20.7,44.5,20.6,44.5,20.4z M28.7,38.4
				c-0.6,0.8-1.1,1.2-1.6,1.2c-0.1,0-0.1,0-0.2-0.1l0,0c-0.1,0-0.1-0.2-0.1-0.5c0-0.4,0.4-0.9,1.1-1.5s1.6-1.3,2.7-2.1
				C30.1,36.4,29.4,37.4,28.7,38.4L28.7,38.4z"/>
		</g>
	</g>
</g>
</svg>
