<svg xmlns="http://www.w3.org/2000/svg" viewBox="0 0 50.8 50.8"><defs><style>.cls-1{fill:#fff;}</style></defs><g id="Layer_2" data-name="Layer 2"><g id="small"><g id="suppliers-small"><path class="cls-1" d="M25.4,0A25.4,25.4,0,1,0,50.8,25.4,25.4,25.4,0,0,0,25.4,0Zm0,49.72A24.36,24.36,0,1,1,49.76,25.4,24.36,24.36,0,0,1,25.4,49.72Z"/><path class="cls-1" d="M25.69,21.87A2.17,2.17,0,1,0,27.86,24v0A2.17,2.17,0,0,0,25.69,21.87Z"/><path class="cls-1" d="M44.26,24.41a4.31,4.31,0,0,0-1.95-2.74,4.41,4.41,0,0,0-6.07,1.4,4.46,4.46,0,0,0-.63,1.8H33.05a7.39,7.39,0,0,0-3.23-5.53l1.28-2.11a4.44,4.44,0,0,0,1.93.45,4.35,4.35,0,0,0,2-.49A4.4,4.4,0,1,0,29.1,15.3a4.15,4.15,0,0,0,1.1,1.36l-1.3,2.15a7.37,7.37,0,0,0-7,.35l-1.48-2.31a1.29,1.29,0,0,0,.17-.16,4.41,4.41,0,0,0-3.21-7.48,4.41,4.41,0,0,0,0,8.79h.06a4.36,4.36,0,0,0,2.06-.54L21,19.77a7.28,7.28,0,0,0-2.66,5.1H15.41a4.52,4.52,0,1,0,0,1.06H18.3a7.37,7.37,0,0,0,3,5.47l-1.65,2.73a4.4,4.4,0,1,0-2.47,8.21h.29A4.41,4.41,0,0,0,20.75,35a3.44,3.44,0,0,0-.27-.27L22.18,32a7.39,7.39,0,0,0,3.5.91,7.59,7.59,0,0,0,3.24-.76L31,35.34a5.34,5.34,0,0,0-.44.39,4.4,4.4,0,0,0,3.15,7.48h.06a4.41,4.41,0,0,0,3-7.56,4.31,4.31,0,0,0-3.13-1.25,4.42,4.42,0,0,0-1.75.39l-2.07-3.21a7.35,7.35,0,0,0,3.23-5.65h2.54a4.4,4.4,0,0,0,8.1,1.8A4.35,4.35,0,0,0,44.26,24.41ZM31.07,28.86h0v-.1a6.12,6.12,0,0,1-2.07,2V29.1A2.12,2.12,0,0,0,26.91,27H24.47a2.11,2.11,0,0,0-2.1,2.11v1.77l0,0a6.34,6.34,0,1,1,8.74-2Z"/></g></g></g></svg>