<?xml version="1.0" encoding="utf-8"?>
<!-- Generator: Adobe Illustrator 25.2.0, SVG Export Plug-In . SVG Version: 6.00 Build 0)  -->
<svg version="1.1" id="Layer_1" xmlns="http://www.w3.org/2000/svg" xmlns:xlink="http://www.w3.org/1999/xlink" x="0px" y="0px"
	 viewBox="0 0 50.8 50.8" style="enable-background:new 0 0 50.8 50.8;" xml:space="preserve">
<style type="text/css">
	.st0{fill:#AA192D;}
</style>
<g id="Layer_2_1_">
	<g id="small">
		<g id="scorecard-small">
			<path class="st0" d="M38.1,14.8h-3.6V13h-4.1C29.3,10,26,8.6,23,9.7c-1.5,0.6-2.7,1.8-3.3,3.3h-4.1v1.8h-3.5
				c-3.1,0-5.6,2.5-5.6,5.6v11.3c0,3.1,2.5,5.6,5.6,5.6h26c3.1,0,5.6-2.5,5.6-5.6V20.4C43.7,17.3,41.2,14.8,38.1,14.8z M25.1,11.4
				c1.2,0,2.1,0.9,2.1,2.1c0,0,0,0,0,0H23C23,12.3,23.9,11.4,25.1,11.4L25.1,11.4L25.1,11.4z M42.7,31.7c0,2.5-2.1,4.6-4.6,4.6h-26
				c-2.5,0-4.6-2.1-4.6-4.6V20.4c0-2.5,2.1-4.6,4.6-4.6h3.5v1.4h18.9v-1.4h3.6c2.5,0,4.6,2.1,4.6,4.6V31.7z"/>
			<rect x="26.4" y="20.2" class="st0" width="13.1" height="1.2"/>
			<rect x="26.4" y="23.7" class="st0" width="9.4" height="1.2"/>
			<polygon class="st0" points="29.5,27.1 28,28.5 26.6,27.1 25.9,27.8 27.3,29.2 25.9,30.6 26.6,31.4 28,29.9 29.5,31.4 30.2,30.6 
				28.8,29.2 30.2,27.8 			"/>
			<path class="st0" d="M25.4,0C11.4,0,0,11.4,0,25.4s11.4,25.4,25.4,25.4s25.4-11.4,25.4-25.4S39.4,0,25.4,0C25.4,0,25.4,0,25.4,0z
				 M25.4,49.7C11.9,49.7,1,38.8,1,25.4C1,11.9,11.9,1,25.4,1c13.5,0,24.4,10.9,24.4,24.4c0,0,0,0,0,0
				C49.7,38.8,38.8,49.7,25.4,49.7z"/>
			<path class="st0" d="M17.9,21.2c-0.5-0.9-1.7-1.2-2.6-0.7c0,0,0,0,0,0c-0.3,0.2-0.5,0.4-0.7,0.7l-4.2,7.3
				c-0.5,0.9-0.2,2.1,0.7,2.6c0.3,0.2,0.6,0.3,1,0.3h8.5c1,0,1.9-0.9,1.9-1.9c0,0,0,0,0,0c0-0.3-0.1-0.7-0.3-0.9L17.9,21.2z
				 M17,30.3h-1.4V29H17V30.3z M16.9,27.9h-1.2l-0.2-4.2h1.6L16.9,27.9z"/>
		</g>
	</g>
</g>
</svg>
