<svg xmlns="http://www.w3.org/2000/svg" viewBox="0 0 72.84 73.16"><defs><style>.cls-1,.cls-2{fill:#fff;}.cls-1,.cls-3{opacity:0.5;}</style></defs><g id="Layer_2" data-name="Layer 2"><g id="one"><g id="smartscrub-one"><circle class="cls-1" cx="36.09" cy="36.09" r="36.09"/><path class="cls-2" d="M69.19,65.85a3.65,3.65,0,1,1-2.59,1.07A3.53,3.53,0,0,1,69.19,65.85Zm0,.38a3.07,3.07,0,0,0-2.27,1,3.33,3.33,0,0,0,0,4.64,3.15,3.15,0,0,0,4.53,0,3.33,3.33,0,0,0,0-4.64A3.05,3.05,0,0,0,69.19,66.23Zm-1.64,5.28V67.42h2c.83,0,1.25.4,1.25,1.2,0,.58-.19.93-.56,1.06a.75.75,0,0,1,.5.79v1h-.54v-.94c0-.44-.2-.65-.6-.65H68.08v1.59Zm.53-2.08h1.33c.58,0,.87-.23.87-.7a1.1,1.1,0,0,0-.13-.67.79.79,0,0,0-.58-.15H68.08Z"/><g class="cls-3"><rect class="cls-2" x="29.09" y="39.14" width="4.45" height="3.7" transform="translate(-15.68 62.27) rotate(-76.98)"/><rect class="cls-2" x="23.37" y="50.12" width="10.95" height="3.28"/><path class="cls-2" d="M48.26,57.56H22.55a4.09,4.09,0,0,0-3.86,2.74H52.13A4.11,4.11,0,0,0,48.26,57.56Z"/><path class="cls-2" d="M39.18,28.84a10.39,10.39,0,0,1-1,20.73l1.1,6.57a14.77,14.77,0,0,0,1.45-29.47l1.08,1.63-1,.66-1.3-2-.63.42h0l-1.35.88-.66-1,2-1.3-1.3-2,1-.66,1.3,2,.22-.14L42.85,13l-9.6-2.21L28.33,32.08l9.59,2.22Z"/></g><polygon class="cls-2" points="38.23 32.95 28.64 30.73 28.02 37.95 35.62 39.7 38.23 32.95"/><path class="cls-2" d="M36.23,48.37A3.24,3.24,0,0,0,33,51.61v0h0V60.3h6.48V51.66h0v0A3.24,3.24,0,0,0,36.23,48.37Zm0,4.49a.83.83,0,0,1,0-1.65.83.83,0,0,1,0,1.65Z"/><rect class="cls-2" x="36.86" y="7.49" width="3.07" height="5.75" transform="translate(19.65 45.44) rotate(-76.98)"/><path class="cls-2" d="M40.64,21.82a4.57,4.57,0,1,0,3.46,5.47A4.57,4.57,0,0,0,40.64,21.82Zm1.13,6.48-1,.66-1.3-2-2,1.3-.66-1,2-1.3-1.3-2,1-.66,1.3,2,2-1.3.66,1-2,1.3Z"/></g></g></g></svg>