<?xml version="1.0" encoding="utf-8"?>
<!-- Generator: Adobe Illustrator 25.2.0, SVG Export Plug-In . SVG Version: 6.00 Build 0)  -->
<svg version="1.1" id="Layer_1" xmlns="http://www.w3.org/2000/svg" xmlns:xlink="http://www.w3.org/1999/xlink" x="0px" y="0px"
	 viewBox="0 0 50.8 50.8" style="enable-background:new 0 0 50.8 50.8;" xml:space="preserve">
<style type="text/css">
	.st0{fill:#AA192D;}
</style>
<g id="Layer_2_1_">
	<g id="small">
		<g id="tiertracker-small">
			<path class="st0" d="M25.4,0C11.4,0,0,11.4,0,25.4s11.4,25.4,25.4,25.4s25.4-11.4,25.4-25.4S39.4,0,25.4,0C25.4,0,25.4,0,25.4,0z
				 M25.4,49.7C11.9,49.7,1,38.8,1,25.4C1,11.9,11.9,1,25.4,1c13.5,0,24.4,10.9,24.4,24.4c0,0,0,0,0,0
				C49.7,38.8,38.8,49.7,25.4,49.7z"/>
			<path class="st0" d="M43.7,32.2l-5.2-5.3c2.8-4.4,1.6-10.2-2.8-13c-0.7-0.5-1.5-0.8-2.4-1.1V6.7h-4.5v5.9
				c-1.7,0.3-3.3,1.2-4.5,2.4v-3.8h-4.5v26.9h4.5v-9.5c1.2,1.2,2.8,2.1,4.5,2.4v7.1h4.5v-7.3c0.9-0.3,1.8-0.7,2.6-1.2l5.2,5.3
				c0.7,0.7,1.9,0.7,2.6,0c0,0,0,0,0,0l0,0C44.4,34.1,44.4,32.9,43.7,32.2z M36.6,24c-0.6,1.6-1.8,3-3.3,3.6v0
				c-0.8,0.3-1.7,0.5-2.5,0.5c-0.6,0-1.2-0.1-1.8-0.3c-3.2-1.1-4.9-4.5-3.8-7.7s4.5-4.9,7.7-3.8C36,17.4,37.7,20.8,36.6,24z"/>
			<rect x="10.8" y="16.9" class="st0" width="4.5" height="21.2"/>
			<path class="st0" d="M33.3,21.5c-0.6-0.2-1.1-0.3-1.7-0.2v-1.9c1,0,1.2,0.1,1.2,0.8c0,0,0,0.1,0,0.1H34c0-0.1,0-0.1,0-0.2
				c0.1-0.6-0.1-1.1-0.6-1.5c-0.4-0.3-0.7-0.3-1.9-0.4v-0.7h-0.8v0.7c-2,0-2.6,0.5-2.6,2.1c0,1,0.2,1.5,0.8,1.7
				c0.6,0.2,1.1,0.3,1.7,0.2v2c-1.2,0-1.4-0.1-1.4-1.2h-1.2v0.3c-0.1,0.7,0.2,1.4,0.9,1.8c0.6,0.2,1.2,0.3,1.8,0.2v0.8h0.8v-0.8
				c0.6,0,1.1,0,1.7-0.2c0.7-0.3,1-0.9,1-1.9S34,21.8,33.3,21.5z M30.8,21.3h-0.3c-0.2,0-0.5,0-0.7-0.1c-0.2-0.1-0.3-0.4-0.3-0.8
				s0.1-0.6,0.3-0.8s0.3-0.1,1-0.1L30.8,21.3z M31.6,24.4v-2c1.2,0,1.4,0.2,1.4,1S32.7,24.4,31.6,24.4z"/>
		</g>
	</g>
</g>
</svg>
