<?xml version="1.0" encoding="utf-8"?>
<!-- Generator: Adobe Illustrator 25.2.0, SVG Export Plug-In . SVG Version: 6.00 Build 0)  -->
<svg version="1.1" id="Layer_1" xmlns="http://www.w3.org/2000/svg" xmlns:xlink="http://www.w3.org/1999/xlink" x="0px" y="0px"
	 viewBox="0 0 50.8 50.8" style="enable-background:new 0 0 50.8 50.8;" xml:space="preserve">
<style type="text/css">
	.st0{fill:#AA192D;}
</style>
<g id="Layer_2_1_">
	<g id="small">
		<g id="detexion-small">
			<g id="Layer_2-2">
				<g id="Layer_1-2">
					<path class="st0" d="M25.4,50.8C11.4,50.8,0,39.4,0,25.4S11.4,0,25.4,0s25.4,11.4,25.4,25.4S39.4,50.8,25.4,50.8L25.4,50.8z
						 M25.4,1C11.9,1,1,11.9,1,25.4c0,13.5,10.9,24.4,24.4,24.4c13.4,0,24.3-10.9,24.4-24.3C49.8,11.9,38.9,1,25.4,1
						C25.4,1,25.4,1,25.4,1z"/>
					<path class="st0" d="M19.5,12.6c0.1,0,0.3-0.1,0.3-0.1c3.4-3.6,9.1-3.8,12.7-0.4c0,0,0,0,0.1,0.1l0,0c0.2,0.2,0.5,0.2,0.7,0
						l0,0c0.2-0.2,0.1-0.5-0.1-0.7C25.6,5,19.1,11.7,19,11.8c-0.2,0.2-0.2,0.5,0,0.7C19.2,12.6,19.3,12.7,19.5,12.6z"/>
					<path class="st0" d="M35.2,14.2c-0.2-0.1-0.6-0.1-0.7,0.2c-0.1,0.2-0.1,0.6,0.2,0.7c0,0,3.8,2.4,2.5,12.3
						c0,0.3,0.2,0.5,0.4,0.6h0.1c0.3,0,0.5-0.2,0.5-0.5C39.6,16.9,35.3,14.3,35.2,14.2z"/>
					<path class="st0" d="M29.2,13.7c0.3,0.2,0.6,0.1,0.8-0.1c0.2-0.2,0.2-0.4,0-0.6c0,0,0,0,0,0c0,0-0.1-0.1-0.1-0.1
						c-2.3-1.4-5.2-1.3-7.4,0.2c-0.2,0.1-0.3,0.4-0.1,0.6c0,0,0.1,0.1,0.1,0.1c0.1,0.1,0.3,0.2,0.5,0.2c0.1,0,0.3,0,0.4-0.1
						C25.1,12.7,27.4,12.6,29.2,13.7z"/>
					<path class="st0" d="M25.4,31.8c0.2-0.2,0.1-0.5-0.1-0.7l0,0c-0.2-0.2-0.6-0.1-0.7,0.1c-2.3,3-5.6,5.1-9.4,5.9
						c-0.3,0.1-0.4,0.4-0.3,0.7c0.1,0.2,0.2,0.3,0.4,0.3h0.1C19.4,37.3,22.9,35.1,25.4,31.8z"/>
					<path class="st0" d="M27.1,34.2c-0.4,0-0.9,0.2-1.2,0.5c-1.5,1.1-6.5,3.9-6.5,3.9c-0.3,0-0.5,0.3-0.5,0.6
						c0,0.3,0.3,0.5,0.6,0.5c0,0,0.1,0,0.1,0c0.1,0,0.2,0,0.3-0.1c0.2-0.1,5.2-2.9,6.7-4c0,0,0.1-0.1,0.1-0.1
						c0.1-0.1,0.3-0.2,0.5-0.2c0.6,0,1.9,0.3,4.4,3.1c0.2,0.2,0.5,0.3,0.7,0.1c0.2-0.2,0.3-0.5,0.1-0.7c0,0,0-0.1-0.1-0.1
						C30.2,35.3,28.5,34.2,27.1,34.2z"/>
					<path class="st0" d="M26.6,39.4c-0.9,0.1-1.7,0.6-2.2,1.2c-0.2,0.2-0.1,0.6,0.1,0.7c0,0,0,0,0,0l0,0c0.2,0.2,0.6,0.1,0.7-0.1
						c0.4-0.5,0.9-0.8,1.5-0.8c0.7,0,1.4,0.3,1.9,0.9c0.1,0.1,0.2,0.2,0.4,0.2c0.1,0,0.3-0.1,0.4-0.2c0.2-0.2,0.2-0.5,0-0.7
						C28.6,39.8,27.6,39.3,26.6,39.4z"/>
					<path class="st0" d="M23.6,27.6c0.2,0,0.3-0.1,0.5-0.2c0.6-0.7,1.2-1.4,1.8-2.2c0.3,0.5,0.5,1.2,0.6,1.8c0,0.3,0.3,0.6,0.6,0.6
						s0.6-0.3,0.6-0.6c-0.1-1-0.4-2.1-1.1-2.9c0.4-0.7,0.8-1.4,1-2.2c0.1-0.3-0.1-0.6-0.4-0.7l0,0c-0.3-0.1-0.6,0.1-0.7,0.4
						c0,0,0,0,0,0l0,0c-0.2,0.5-0.4,1-0.6,1.4c-0.3-0.4-0.7-0.9-1.1-1.2c-0.2-0.2-0.6-0.2-0.9,0c-0.2,0.2-0.2,0.6,0,0.8c0,0,0,0,0,0
						l0,0c0.5,0.5,0.9,1,1.2,1.5c-0.6,0.9-1.3,1.7-2,2.5c-0.2,0.2-0.2,0.6,0,0.8c0,0,0,0,0,0l0,0C23.2,27.6,23.4,27.7,23.6,27.6z"/>
					<path class="st0" d="M37.2,31.9c-2.5-1.1-3.8-4.3-3.3-7.8c0.3-2.2,0.3-4.4,0-6.6c0-0.3-0.3-0.4-0.6-0.4c0,0,0,0,0,0
						c-0.3,0-0.5,0.3-0.4,0.6c0,0,0,0,0,0c0.3,2.1,0.3,4.2,0,6.3c-0.5,4,1,7.5,3.9,8.9c0.1,0,0.1,0,0.2,0c0.2,0,0.4-0.1,0.5-0.3
						C37.6,32.2,37.5,32,37.2,31.9z"/>
					<path class="st0" d="M30,23.9h0.2c0.2,0,0.4-0.1,0.5-0.3c0-0.1,1.2-3.7-0.9-6.4c-1.7-2.2-3.8-2-4.7-1.6
						c-0.3,0.1-0.4,0.4-0.3,0.6c0.1,0.3,0.4,0.4,0.6,0.3h0.1c0,0,1.8-0.8,3.5,1.3s0.7,5.4,0.7,5.5C29.6,23.5,29.7,23.8,30,23.9
						C29.9,23.9,29.9,23.9,30,23.9L30,23.9z"/>
					<path class="st0" d="M36.3,35.5C30.3,34,30,27.9,30,27.6c0-0.3-0.2-0.5-0.5-0.5c0,0,0,0,0,0c-0.3,0-0.5,0.3-0.5,0.5
						c0,0.1,0.4,7.2,7.1,8.8h0.1c0.2,0,0.4-0.2,0.5-0.4C36.7,35.8,36.6,35.5,36.3,35.5L36.3,35.5z"/>
					<path class="st0" d="M14,23.4L14,23.4c0.3,0,0.5-0.2,0.5-0.4c0.5-3.1,1.7-6,3.4-8.6c0.2-0.2,0.1-0.5-0.1-0.7
						c-0.2-0.2-0.5-0.1-0.7,0.1c-1.9,2.7-3.1,5.8-3.6,9C13.5,23.1,13.7,23.4,14,23.4L14,23.4z"/>
					<path class="st0" d="M22,30.2c0.1-0.2,0.1-0.5-0.2-0.7c-0.2-0.1-0.5-0.1-0.7,0.2c-1.5,2.4-4.2,3.7-7,3.3
						c-0.3,0-0.5,0.1-0.6,0.4c0,0,0,0,0,0l0,0c0,0.3,0.2,0.5,0.4,0.5c0.3,0,0.7,0.1,1,0.1C17.9,34.1,20.5,32.7,22,30.2z"/>
					<path class="st0" d="M18.7,27.1c-1.2,3.2-3.6,2.5-3.8,2.4c-0.3-0.1-0.5,0.1-0.6,0.3c-0.1,0.3,0,0.5,0.3,0.6l0,0
						c0.3,0.1,0.7,0.1,1,0.1c1.1,0,2.9-0.5,4-3.2c0.1-0.2,0.1-0.5-0.2-0.7s-0.5-0.1-0.7,0.2C18.7,26.9,18.7,27,18.7,27.1L18.7,27.1z
						"/>
					<path class="st0" d="M21.2,16.2c0.2-0.1,0.4-0.4,0.2-0.7c-0.1-0.2-0.4-0.4-0.6-0.2c0,0,0,0,0,0l0,0c-0.1,0-2.4,1.2-2.9,6
						c-0.4,4.2-3.3,4.8-3.4,4.9c-0.3,0-0.5,0.3-0.4,0.5c0,0.3,0.3,0.5,0.6,0.5h0.1c0.1,0,3.8-0.8,4.2-5.8
						C19.3,17.2,21.2,16.2,21.2,16.2z"/>
					<path class="st0" d="M20.9,23.9L20.9,23.9c0.3,0,0.6-0.2,0.6-0.4c0.5-3.9,1.1-4.8,1.2-4.9c0.3,0,0.5-0.3,0.4-0.6
						s-0.3-0.5-0.6-0.4c0,0,0,0,0,0c-0.3,0-1.2,0-2,5.7C20.4,23.6,20.6,23.8,20.9,23.9C20.9,23.9,20.9,23.9,20.9,23.9L20.9,23.9z"/>
				</g>
			</g>
		</g>
	</g>
</g>
</svg>
