<svg xmlns="http://www.w3.org/2000/svg" viewBox="0 0 72.78 73.03"><defs><style>.cls-1{fill:#cfd2d3;}.cls-2{fill:#fff;}.cls-3{fill:#a9272f;}.cls-4{fill:#76777b;}.cls-5{fill:#a7a7a9;}</style></defs><g id="Layer_2" data-name="Layer 2"><g id="color"><g id="tier1-color"><circle class="cls-1" cx="36" cy="36" r="36"/><path class="cls-2" d="M36,9.09A26.56,26.56,0,1,0,62.88,35.65,26.73,26.73,0,0,0,36,9.09Z"/><path class="cls-3" d="M38.27,22.67V31.9l1.4.05c4.68.26,7.85,1.07,9.49,2.43s2.46,3.85,2.46,7.48c0,3.9-.89,6.63-2.68,8.21S44,52.43,39.57,52.43l-1.3,0v4.14H34V52.45l-1.2,0q-6.66,0-9.37-2.26t-2.71-7.85l0-1.26h6.3v.64c0,2.28.36,3.75,1.1,4.4s2.37,1,4.91,1l.94,0v-10q-7.44,0-10.17-2.13t-2.72-8q0-5.67,2.74-7.76T34,17.15V13.56h4.25v3.59q7.08,0,9.69,2c1.73,1.33,2.6,3.82,2.6,7.44v.85H44.47l0-.67c0-2.74-1.73-4.1-5.18-4.1Zm-4.25,0-.91,0q-5.59,0-5.6,4.38,0,4.61,5.57,4.6l.94.05Zm4.25,24.48h.91c4,0,6.07-1.72,6.07-5.16q0-2.82-1.35-3.72t-5.63-.9Z"/><path class="cls-4" d="M66.11,16.13a36,36,0,0,0-10-10.07l-4.74,6A28.41,28.41,0,0,0,7.66,35.65a28.38,28.38,0,0,0,56.75,0A27.77,27.77,0,0,0,59.6,20ZM36,62.21A26.56,26.56,0,1,1,62.88,35.65,26.73,26.73,0,0,1,36,62.21Z"/><path d="M65.77,69H64.38v-.5h3.37V69H66.36v4h-.59Z"/><path d="M72.09,71c0-.63-.07-1.39-.06-2h0c-.16.53-.35,1.1-.58,1.73l-.8,2.2h-.45l-.73-2.16c-.22-.64-.4-1.23-.53-1.77h0c0,.57,0,1.33-.09,2l-.12,2h-.56l.32-4.55h.74l.78,2.2c.19.56.34,1.06.46,1.53h0c.11-.45.28-.95.48-1.53l.81-2.2h.75L72.78,73h-.57Z"/><path class="cls-5" d="M71.76,31.58H64.1c.1.66.18,1.33.23,2s.08,1.37.08,2.06c0,.51,0,1,0,1.51v0q0,.75-.12,1.47h7.62c.09-1,.14-2,.14-3A35.92,35.92,0,0,0,71.76,31.58Z"/></g></g></g></svg>