<svg xmlns="http://www.w3.org/2000/svg" viewBox="0 0 72.84 72.94"><defs><style>.cls-1{fill:#cbcdce;}.cls-2{fill:#d48a94;}.cls-3{fill:#aa192d;}.cls-4{fill:#76777b;}.cls-5{fill:#54575a;}.cls-6{fill:#fbfbfb;}.cls-7{fill:#79242f;}</style></defs><g id="Layer_2" data-name="Layer 2"><g id="color"><g id="tiertracker-color"><circle class="cls-1" cx="36" cy="36" r="36"/><rect class="cls-2" x="39.74" y="8.43" width="7.66" height="45.96"/><rect class="cls-3" x="26.98" y="16.08" width="7.66" height="38.3"/><path class="cls-4" d="M61.31,45,53.5,37a12.69,12.69,0,1,0-10.66,5.85A12.6,12.6,0,0,0,50,40.65l7.75,7.86c.63.64,1.93.36,2.91-.63S61.94,45.59,61.31,45Z"/><path class="cls-5" d="M43.07,39.46a9.16,9.16,0,1,1,9.09-9.15A9.13,9.13,0,0,1,43.07,39.46Zm0-16.78a7.63,7.63,0,1,0,7.56,7.63A7.6,7.6,0,0,0,43.07,22.68Z"/><path class="cls-6" d="M43.07,22.68a7.63,7.63,0,1,0,7.56,7.63A7.6,7.6,0,0,0,43.07,22.68Z"/><rect class="cls-7" x="14.21" y="23.74" width="7.66" height="30.64"/><path class="cls-3" d="M43.57,26.76v2.83a4.45,4.45,0,0,1,2.45.46,2.07,2.07,0,0,1,.62,1.78,2.23,2.23,0,0,1-.59,1.81,3.61,3.61,0,0,1-2.21.49h-.27v.93h-.69v-.93h-.59c-.31,0-.56,0-.76,0q-1.74-.13-1.74-2.52h.9v.15c0,.73.1,1.19.31,1.37a2.87,2.87,0,0,0,1.59.27h.29v-3A4.65,4.65,0,0,1,40.45,30a2.14,2.14,0,0,1-.58-1.79,2,2,0,0,1,.61-1.75,4.38,4.38,0,0,1,2.4-.44v-.76h.69V26h.35a3.42,3.42,0,0,1,2,.42,2,2,0,0,1,.52,1.6v.26h-.88v-.2A1.41,1.41,0,0,0,45.27,27a2.55,2.55,0,0,0-1.35-.22Zm-.69,0H42.6a3,3,0,0,0-1.5.25,1.27,1.27,0,0,0-.35,1.06c0,.65.12,1.06.36,1.25a2.73,2.73,0,0,0,1.55.29h.22Zm.69,6.65.33,0c1.24.1,1.86-.44,1.86-1.61,0-.6-.12-1-.37-1.17a3.07,3.07,0,0,0-1.59-.27h-.23Z"/><path d="M65.82,68.89H64.44v-.5h3.37v.5h-1.4v4h-.59Z"/><path d="M72.15,70.94c0-.63-.08-1.39-.07-2h0c-.16.53-.34,1.1-.57,1.73l-.81,2.2h-.44l-.74-2.16c-.21-.64-.4-1.23-.52-1.77h0c0,.57,0,1.33-.09,2l-.12,2h-.56l.32-4.55h.75l.77,2.2c.19.56.35,1.06.46,1.53h0c.12-.45.28-1,.48-1.53l.81-2.2h.75l.29,4.55h-.58Z"/></g></g></g></svg>