<?xml version="1.0" encoding="utf-8"?>
<!-- Generator: Adobe Illustrator 25.2.0, SVG Export Plug-In . SVG Version: 6.00 Build 0)  -->
<svg version="1.1" id="Layer_1" xmlns="http://www.w3.org/2000/svg" xmlns:xlink="http://www.w3.org/1999/xlink" x="0px" y="0px"
	 viewBox="0 0 72.8 73.2" style="enable-background:new 0 0 72.8 73.2;" xml:space="preserve">
<style type="text/css">
	.st0{opacity:0.3;fill:#050505;enable-background:new    ;}
	.st1{opacity:0.5;fill:#050505;}
	.st2{fill:#050505;}
</style>
<g id="suppliers-one">
	<circle class="st0" cx="36.2" cy="36.2" r="36.2"/>
	<circle class="st1" cx="36.6" cy="34.2" r="3.2"/>
	<path class="st0" d="M63.7,34.8c-0.8-3.4-4.2-5.6-7.7-4.8c-1.6,0.4-3.1,1.4-4,2.8c-0.5,0.8-0.8,1.7-0.9,2.6h-3.7
		c-0.3-3.2-2-6.2-4.7-8l1.9-3.1c0.9,0.4,1.8,0.6,2.8,0.6c1,0,2-0.2,2.9-0.7c3.1-1.6,4.4-5.5,2.8-8.6c0,0,0,0,0,0
		c-1.6-3.1-5.5-4.4-8.6-2.8c0,0,0,0,0,0c-3.1,1.6-4.4,5.5-2.8,8.6l0,0c0.4,0.8,0.9,1.5,1.6,2l-1.9,3.1c-3.3-1.6-7.1-1.4-10.2,0.5
		l-2.2-3.4l0.2-0.2c2.5-2.5,2.4-6.6-0.1-9.1S22.5,12,20,14.6s-2.4,6.6,0.1,9.1c1.2,1.2,2.8,1.8,4.5,1.8h0.1c1.1,0,2.1-0.3,3-0.8
		l2.1,3.3c-0.9,0.7-1.7,1.6-2.3,2.6c-0.9,1.5-1.5,3.1-1.6,4.8h-4.2c-0.5-3.5-3.7-5.9-7.2-5.4c-0.2,0-0.4,0.1-0.6,0.1
		c-3.4,0.8-5.6,4.2-4.8,7.7s4.2,5.6,7.7,4.8c1.7-0.4,3.1-1.4,4-2.8c0.5-0.8,0.8-1.8,0.9-2.7h4.2c0.2,3.2,1.8,6.1,4.3,8l-2.4,4
		c-3.1-1.8-7-0.7-8.7,2.4c-1.8,3.1-0.7,7,2.4,8.7c0.8,0.5,1.8,0.8,2.8,0.8h0.4c3.5,0,6.4-2.9,6.4-6.4c0-1.6-0.6-3-1.6-4.2
		c-0.1-0.1-0.3-0.3-0.4-0.4l2.5-4.1c3,1.7,6.7,1.8,9.8,0.2l3,4.7c-0.2,0.2-0.4,0.4-0.6,0.6c-2.4,2.6-2.3,6.6,0.2,9
		c1.2,1.1,2.7,1.7,4.4,1.8h0.1c3.5,0,6.4-3,6.3-6.5c0-1.7-0.7-3.3-1.9-4.5c-1.9-1.8-4.7-2.3-7.1-1.2l-3-4.7c2.7-1.9,4.5-4.9,4.7-8.2
		h3.7c0.2,1.9,1.3,3.6,3,4.7c1,0.6,2.2,1,3.4,1c3.5,0,6.4-2.8,6.4-6.4C63.9,35.8,63.8,35.3,63.7,34.8L63.7,34.8z M44.5,41.2
		c-2.7,4.3-8.4,5.6-12.7,2.9c-4.3-2.7-5.6-8.4-2.9-12.7c1.7-2.7,4.6-4.3,7.8-4.3c1.7,0,3.4,0.5,4.9,1.4
		C45.8,31.2,47.1,36.9,44.5,41.2z"/>
	<path class="st2" d="M69.1,65.8c2,0,3.6,1.7,3.7,3.7c0,1-0.4,1.9-1.1,2.6c-0.7,0.7-1.6,1.1-2.6,1.1c-1,0-1.9-0.4-2.6-1.1
		c-1.4-1.4-1.4-3.7,0-5.2C67.2,66.2,68.1,65.8,69.1,65.8z M69.1,66.2c-0.9,0-1.7,0.4-2.3,1c-1.3,1.3-1.3,3.4,0,4.7
		c1.2,1.3,3.2,1.3,4.5,0.1c0,0,0.1-0.1,0.1-0.1c1.3-1.3,1.3-3.4,0-4.7C70.8,66.6,70,66.2,69.1,66.2z M67.5,71.5v-4.1h2
		c0.8,0,1.2,0.4,1.2,1.2c0,0.6-0.2,0.9-0.6,1.1c0.3,0.1,0.5,0.4,0.5,0.8v1h-0.5v-0.9c0-0.4-0.2-0.7-0.6-0.7H68v1.6L67.5,71.5z
		 M68,69.4h1.3c0.6,0,0.9-0.2,0.9-0.7c0-0.2,0-0.5-0.1-0.7c-0.2-0.1-0.4-0.2-0.6-0.2H68V69.4z"/>
	<path class="st1" d="M38.4,38.5h-3.5c-1.7,0-3.1,1.4-3.1,3.1v2.6c3,1.8,6.7,1.8,9.7,0v-2.6C41.5,39.9,40.1,38.5,38.4,38.5z"/>
</g>
</svg>
