<svg xmlns="http://www.w3.org/2000/svg" viewBox="0 0 72.98 73.16"><defs><style>.cls-1,.cls-2{fill:#fff;}.cls-2{opacity:0.5;}</style></defs><g id="Layer_2" data-name="Layer 2"><g id="one"><g id="database-one"><path class="cls-1" d="M66.06,69.16H64.7v-.49H68v.49H66.65v4h-.59Z"/><path class="cls-1" d="M72.3,71.18c0-.62-.07-1.37-.06-1.93h0c-.15.52-.34,1.08-.57,1.7l-.79,2.18h-.44L69.69,71c-.21-.63-.39-1.21-.52-1.74h0c0,.56,0,1.31-.09,2L69,73.16H68.4l.31-4.49h.74l.77,2.17a15.35,15.35,0,0,1,.45,1.51h0c.12-.45.28-.95.48-1.51l.8-2.17h.73L73,73.16h-.56Z"/><circle class="cls-2" cx="36.2" cy="36.2" r="36.2"/><path class="cls-1" d="M52.77,47.93l-7.23-7.3a12.76,12.76,0,1,0-10.71,5.86A12.67,12.67,0,0,0,42,44.25l7.19,7.26a2.49,2.49,0,0,0,3.55,0A2.55,2.55,0,0,0,52.77,47.93ZM35.06,43a9.21,9.21,0,1,1,9.14-9.2A9.19,9.19,0,0,1,35.06,43Z"/><rect class="cls-1" x="7.91" y="24.32" width="9.84" height="1.54"/><rect class="cls-1" x="5.72" y="31.19" width="11.17" height="1.54"/><rect class="cls-1" x="12.83" y="41.5" width="4.06" height="1.54"/><rect class="cls-1" x="10.01" y="36.94" width="6.87" height="1.54"/><rect class="cls-1" x="10.01" y="47.52" width="15.47" height="1.54"/><rect class="cls-1" x="16.89" y="52.51" width="22.34" height="1.54"/><rect class="cls-1" x="52.98" y="32.91" width="12.03" height="1.54"/><rect class="cls-1" x="52.98" y="40.65" width="6.87" height="1.54"/><rect class="cls-1" x="51.26" y="25.18" width="11.17" height="1.54"/><rect class="cls-1" x="26.92" y="10.79" width="15.47" height="1.54"/><rect class="cls-1" x="11.3" y="17.05" width="18.48" height="1.2"/><rect class="cls-1" x="42.67" y="16.58" width="11.17" height="1.54"/><polygon class="cls-1" points="38.14 31.62 37.05 30.53 34.83 32.75 32.62 30.53 31.53 31.62 33.74 33.84 31.53 36.05 32.62 37.14 34.83 34.92 37.05 37.14 38.14 36.05 35.92 33.84 38.14 31.62"/></g></g></g></svg>