<?xml version="1.0" encoding="utf-8"?>
<!-- Generator: Adobe Illustrator 25.2.0, SVG Export Plug-In . SVG Version: 6.00 Build 0)  -->
<svg version="1.1" id="Layer_1" xmlns="http://www.w3.org/2000/svg" xmlns:xlink="http://www.w3.org/1999/xlink" x="0px" y="0px"
	 viewBox="0 0 50.8 50.8" style="enable-background:new 0 0 50.8 50.8;" xml:space="preserve">
<style type="text/css">
	.st0{fill:#AA192D;}
</style>
<g id="Layer_2_1_">
	<g id="small">
		<g id="connxsmart-small">
			<g id="Layer_2-2">
				<g id="Layer_1-2">
					<path class="st0" d="M29.9,22L29.9,22L25,23.6l-4.8,1.8c-2.1,0.2-4-1.2-4.2-3.3c-0.2-1.5,0.5-2.9,1.8-3.7l14-5l-1.2-3.6
						L27.4,11l0,0l-10.6,3.9l0,0c-3.8,1.3-5.9,5.4-4.6,9.3s5.4,5.9,9.3,4.6l0,0l4.8-1.6l4.8-1.8c2.1-0.2,3.9,1.3,4.2,3.4
						c0.2,1.5-0.5,2.9-1.8,3.6l-14,5l0.9,2.7l0.3,0.9l3.2-1.2l0,0l10.8-4l0,0c3.7-1.7,5.2-6.1,3.5-9.8C36.5,23,33.2,21.3,29.9,22z"
						/>
					<path class="st0" d="M45.3,24.2c-0.6-1-1.9-1.3-2.9-0.7c-1,0.6-1.3,1.9-0.7,2.9c0.6,1,1.9,1.3,2.9,0.7
						C45.6,26.6,45.9,25.3,45.3,24.2C45.3,24.3,45.3,24.3,45.3,24.2z"/>
					<path class="st0" d="M6.8,24.3c-1.2,0-2.2,1-2.2,2.3s1,2.2,2.3,2.2c1.2,0,2.2-1,2.2-2.3C9.1,25.3,8.1,24.3,6.8,24.3L6.8,24.3z"
						/>
					<path class="st0" d="M25.4,50.8C11.4,50.8,0,39.4,0,25.4S11.4,0,25.4,0s25.4,11.4,25.4,25.4S39.4,50.8,25.4,50.8L25.4,50.8z
						 M25.4,1C11.9,1,1,11.9,1,25.4c0,13.5,10.9,24.4,24.4,24.4c13.4,0,24.3-10.9,24.4-24.3C49.8,11.9,38.9,1,25.4,1
						C25.4,1,25.4,1,25.4,1z"/>
				</g>
			</g>
		</g>
	</g>
</g>
</svg>
