<svg xmlns="http://www.w3.org/2000/svg" viewBox="0 0 252 144"><defs><style>.cls-1{fill:#fff;}.cls-2{fill:#231f20;}.cls-3{fill:#ac1e2e;}.cls-4{fill:#cbcdce;}.cls-5{fill:#a9272f;}</style></defs><g id="Layer_2" data-name="Layer 2"><g id="back"><rect class="cls-1" width="252" height="144"/><path class="cls-2" d="M60.6,122.31A1.63,1.63,0,0,0,60,122a2.14,2.14,0,0,0-.79-.14,4.16,4.16,0,0,0-.82.1l.26-1.5h1.8a.45.45,0,0,0,.32-.1.37.37,0,0,0,.1-.25v-.31H58.17l-.46,2.68.45.13a2.81,2.81,0,0,1,.48-.12,3.4,3.4,0,0,1,.45,0,1.55,1.55,0,0,1,.55.08,1,1,0,0,1,.39.24.88.88,0,0,1,.24.36,1.53,1.53,0,0,1,.08.49,1.38,1.38,0,0,1-.1.55,1.24,1.24,0,0,1-.26.43,1,1,0,0,1-.41.27,1.33,1.33,0,0,1-.54.1,1.51,1.51,0,0,1-.46-.06,1.84,1.84,0,0,1-.34-.14l-.25-.14a.32.32,0,0,0-.18-.06.2.2,0,0,0-.18.1l-.22.31a2,2,0,0,0,.3.23,3.2,3.2,0,0,0,.37.19,2.83,2.83,0,0,0,.44.13,2.44,2.44,0,0,0,.48.05,2.16,2.16,0,0,0,.81-.14,2,2,0,0,0,.66-.4,1.76,1.76,0,0,0,.43-.63,2,2,0,0,0,.16-.82,1.92,1.92,0,0,0-.12-.69A1.55,1.55,0,0,0,60.6,122.31Z"/><path class="cls-2" d="M64.54,119.73H64l-1.71,1.48.23.31s0,0,.06,0a.11.11,0,0,0,.08,0,.14.14,0,0,0,.09,0,.27.27,0,0,0,.11,0l1-.88c0,.12,0,.24,0,.36v3.9H62.6v.55h3.07v-.55H64.54Z"/><path class="cls-2" d="M69.88,122.31a1.63,1.63,0,0,0-.58-.36,2.14,2.14,0,0,0-.79-.14,4.16,4.16,0,0,0-.82.1l.26-1.5h1.8a.45.45,0,0,0,.32-.1.37.37,0,0,0,.1-.25v-.31H67.45L67,122.43l.45.13a2.81,2.81,0,0,1,.48-.12,3.4,3.4,0,0,1,.45,0,1.55,1.55,0,0,1,.55.08,1,1,0,0,1,.39.24.88.88,0,0,1,.24.36,1.53,1.53,0,0,1,.08.49,1.58,1.58,0,0,1-.1.55,1.24,1.24,0,0,1-.26.43,1.13,1.13,0,0,1-.41.27,1.33,1.33,0,0,1-.54.1,1.51,1.51,0,0,1-.46-.06,1.84,1.84,0,0,1-.34-.14l-.25-.14a.32.32,0,0,0-.18-.06.2.2,0,0,0-.18.1l-.22.31a2,2,0,0,0,.3.23,3.2,3.2,0,0,0,.37.19,2.83,2.83,0,0,0,.44.13,2.44,2.44,0,0,0,.48.05,2.16,2.16,0,0,0,.81-.14,2,2,0,0,0,.66-.4,1.76,1.76,0,0,0,.43-.63,2,2,0,0,0,.16-.82,1.92,1.92,0,0,0-.12-.69A1.55,1.55,0,0,0,69.88,122.31Z"/><path class="cls-2" d="M74.52,122.31a1.63,1.63,0,0,0-.58-.36,2.14,2.14,0,0,0-.79-.14,4.16,4.16,0,0,0-.82.1l.26-1.5h1.8a.45.45,0,0,0,.32-.1.37.37,0,0,0,.1-.25v-.31H72.09l-.46,2.68.45.13a2.81,2.81,0,0,1,.48-.12,3.4,3.4,0,0,1,.45,0,1.55,1.55,0,0,1,.55.08,1,1,0,0,1,.39.24,1,1,0,0,1,.24.36,1.53,1.53,0,0,1,.08.49,1.58,1.58,0,0,1-.1.55,1.24,1.24,0,0,1-.26.43,1.13,1.13,0,0,1-.41.27,1.33,1.33,0,0,1-.54.1,1.51,1.51,0,0,1-.46-.06,1.84,1.84,0,0,1-.34-.14l-.25-.14a.32.32,0,0,0-.18-.06.2.2,0,0,0-.18.1l-.22.31a2,2,0,0,0,.3.23,3.2,3.2,0,0,0,.37.19,2.83,2.83,0,0,0,.44.13,2.44,2.44,0,0,0,.48.05,2.16,2.16,0,0,0,.81-.14,2,2,0,0,0,.66-.4,1.76,1.76,0,0,0,.43-.63,2,2,0,0,0,.16-.82,1.92,1.92,0,0,0-.12-.69A1.55,1.55,0,0,0,74.52,122.31Z"/><polygon class="cls-2" points="78.3 125.48 79.07 125.48 79.07 123.01 81.43 123.01 81.43 122.38 79.07 122.38 79.07 120.38 81.83 120.38 81.83 119.75 78.3 119.75 78.3 125.48"/><path class="cls-2" d="M83.39,119.79a.71.71,0,0,0-.17-.11.5.5,0,0,0-.39,0,.91.91,0,0,0-.16.11.48.48,0,0,0-.1.17.41.41,0,0,0,0,.19.45.45,0,0,0,0,.2.54.54,0,0,0,.1.16.91.91,0,0,0,.16.11.5.5,0,0,0,.39,0,.71.71,0,0,0,.17-.11.91.91,0,0,0,.11-.16.45.45,0,0,0,0-.2.41.41,0,0,0,0-.19A.71.71,0,0,0,83.39,119.79Z"/><rect class="cls-2" x="82.68" y="121.43" width="0.71" height="4.05"/><path class="cls-2" d="M87.59,121.78a1.22,1.22,0,0,0-.43-.31,1.5,1.5,0,0,0-.58-.11,1.77,1.77,0,0,0-.41,0,1.48,1.48,0,0,0-.35.13,2.11,2.11,0,0,0-.31.21,3.45,3.45,0,0,0-.28.26l-.06-.44c0-.1-.08-.14-.19-.14h-.42v4h.71v-3a2.14,2.14,0,0,1,.51-.41,1.2,1.2,0,0,1,.59-.15.79.79,0,0,1,.64.25,1.1,1.1,0,0,1,.21.72v2.58h.71V122.9a2.08,2.08,0,0,0-.09-.63A1.34,1.34,0,0,0,87.59,121.78Z"/><path class="cls-2" d="M91.55,121.78a1.14,1.14,0,0,0-.44-.31,1.48,1.48,0,0,0-.61-.12,2.39,2.39,0,0,0-.86.16,2.25,2.25,0,0,0-.72.49l.13.23.08.09a.28.28,0,0,0,.13,0,.27.27,0,0,0,.18-.07l.23-.15A1.51,1.51,0,0,1,90,122a1.1,1.1,0,0,1,.44-.07.72.72,0,0,1,.59.24,1.07,1.07,0,0,1,.21.72v.31a5.41,5.41,0,0,0-1.17.13,2.72,2.72,0,0,0-.77.28,1.18,1.18,0,0,0-.43.39.9.9,0,0,0-.13.47,1.13,1.13,0,0,0,.09.47,1,1,0,0,0,.24.34,1,1,0,0,0,.36.2,1.63,1.63,0,0,0,.45.06,1.87,1.87,0,0,0,.42,0,1.9,1.9,0,0,0,.36-.12,2.07,2.07,0,0,0,.32-.19l.31-.26.08.38a.19.19,0,0,0,.09.13.24.24,0,0,0,.16,0h.31v-2.59a2.08,2.08,0,0,0-.09-.63A1.25,1.25,0,0,0,91.55,121.78Zm-.33,2.71a1.34,1.34,0,0,1-.25.23,1.06,1.06,0,0,1-.26.17,1,1,0,0,1-.3.11,1.22,1.22,0,0,1-.34,0,1.09,1.09,0,0,1-.26,0,.53.53,0,0,1-.21-.11.58.58,0,0,1-.15-.19.78.78,0,0,1,0-.28.47.47,0,0,1,.1-.3.77.77,0,0,1,.32-.24,2.55,2.55,0,0,1,.56-.16,6,6,0,0,1,.84-.08Z"/><path class="cls-2" d="M96,121.78a1.22,1.22,0,0,0-.43-.31,1.5,1.5,0,0,0-.58-.11,1.77,1.77,0,0,0-.41,0,1.48,1.48,0,0,0-.35.13,2.11,2.11,0,0,0-.31.21,3.45,3.45,0,0,0-.28.26l-.06-.44c0-.1-.08-.14-.19-.14H93v4h.71v-3a2.14,2.14,0,0,1,.51-.41,1.2,1.2,0,0,1,.59-.15.79.79,0,0,1,.64.25,1.1,1.1,0,0,1,.21.72v2.58h.71V122.9a2.08,2.08,0,0,0-.09-.63A1.34,1.34,0,0,0,96,121.78Z"/><path class="cls-2" d="M100.18,124.58a.2.2,0,0,0-.14.06l-.19.14a1,1,0,0,1-.28.14,1.25,1.25,0,0,1-.42.06,1.15,1.15,0,0,1-.5-.1,1.17,1.17,0,0,1-.37-.3,1.34,1.34,0,0,1-.23-.48,2.13,2.13,0,0,1-.09-.65,2.49,2.49,0,0,1,.08-.64,1.34,1.34,0,0,1,.23-.48,1,1,0,0,1,.38-.31,1.29,1.29,0,0,1,.53-.1,1.06,1.06,0,0,1,.38,0,1.27,1.27,0,0,1,.26.11l.18.11a.27.27,0,0,0,.13,0,.12.12,0,0,0,.09,0s0,0,.06-.06l.19-.26a1.74,1.74,0,0,0-.58-.39,2,2,0,0,0-.75-.14,1.94,1.94,0,0,0-.82.16,1.7,1.7,0,0,0-.59.43,1.94,1.94,0,0,0-.37.66,2.84,2.84,0,0,0-.13.84,2.62,2.62,0,0,0,.14.88,1.94,1.94,0,0,0,.38.66,1.41,1.41,0,0,0,.56.4,1.67,1.67,0,0,0,.71.14,3.11,3.11,0,0,0,.43,0,1.93,1.93,0,0,0,.41-.12,1.78,1.78,0,0,0,.36-.19,1.58,1.58,0,0,0,.3-.28l-.2-.26A.15.15,0,0,0,100.18,124.58Z"/><rect class="cls-2" x="101.32" y="121.43" width="0.71" height="4.05"/><path class="cls-2" d="M102,119.79a.91.91,0,0,0-.16-.11.71.71,0,0,0-.2,0,.65.65,0,0,0-.2,0,.83.83,0,0,0-.15.11.5.5,0,0,0-.11.17.41.41,0,0,0,0,.19.45.45,0,0,0,0,.2.57.57,0,0,0,.11.16.83.83,0,0,0,.15.11.65.65,0,0,0,.2,0,.71.71,0,0,0,.2,0,.91.91,0,0,0,.16-.11.57.57,0,0,0,.11-.16.45.45,0,0,0,0-.2.41.41,0,0,0,0-.19A.5.5,0,0,0,102,119.79Z"/><path class="cls-2" d="M105.73,121.78a1.1,1.1,0,0,0-.45-.31,1.4,1.4,0,0,0-.6-.12,2.39,2.39,0,0,0-.86.16,2.25,2.25,0,0,0-.72.49l.12.23.09.09a.28.28,0,0,0,.13,0,.27.27,0,0,0,.18-.07l.23-.15a1.68,1.68,0,0,1,.3-.14,1.18,1.18,0,0,1,.45-.07.72.72,0,0,1,.59.24,1.07,1.07,0,0,1,.21.72v.31a5.41,5.41,0,0,0-1.17.13,2.72,2.72,0,0,0-.77.28,1.18,1.18,0,0,0-.43.39.9.9,0,0,0-.13.47,1.13,1.13,0,0,0,.09.47,1,1,0,0,0,.24.34,1,1,0,0,0,.36.2,1.63,1.63,0,0,0,.45.06,1.87,1.87,0,0,0,.42,0,2.17,2.17,0,0,0,.36-.12,2.07,2.07,0,0,0,.32-.19l.31-.26.08.38a.19.19,0,0,0,.09.13.24.24,0,0,0,.16,0h.31v-2.59a2.08,2.08,0,0,0-.09-.63A1.25,1.25,0,0,0,105.73,121.78Zm-.33,2.71a1.74,1.74,0,0,1-.25.23,1.06,1.06,0,0,1-.26.17,1,1,0,0,1-.3.11,1.22,1.22,0,0,1-.34,0,1.09,1.09,0,0,1-.26,0,.53.53,0,0,1-.21-.11.47.47,0,0,1-.15-.19.78.78,0,0,1,0-.28.47.47,0,0,1,.1-.3.8.8,0,0,1,.31-.24,2.84,2.84,0,0,1,.57-.16,6,6,0,0,1,.84-.08Z"/><rect class="cls-2" x="107.2" y="119.59" width="0.71" height="5.89"/><path class="cls-2" d="M118,119.75a.25.25,0,0,0-.17,0,.22.22,0,0,0-.09.13l-1.19,4a1.55,1.55,0,0,0,0,.23c0,.08,0,.16-.05.25a1.84,1.84,0,0,0,0-.25c0-.08,0-.16-.07-.23l-1.34-4a.32.32,0,0,0-.1-.13.23.23,0,0,0-.17,0h-.22a.25.25,0,0,0-.17,0,.31.31,0,0,0-.1.13l-1.34,4a1.55,1.55,0,0,0-.07.23l-.06.27a2,2,0,0,0,0-.26,1.69,1.69,0,0,0,0-.24l-1.19-4a.2.2,0,0,0-.09-.13.23.23,0,0,0-.17,0h-.64l1.78,5.73h.7l1.46-4.37s0-.09,0-.14,0-.1,0-.15,0,.1,0,.15a.74.74,0,0,0,0,.14l1.45,4.37h.69l1.79-5.73Z"/><path class="cls-2" d="M121.38,121.78a1.14,1.14,0,0,0-.44-.31,1.48,1.48,0,0,0-.61-.12,2.39,2.39,0,0,0-.86.16,2.25,2.25,0,0,0-.72.49l.13.23.08.09a.28.28,0,0,0,.13,0,.27.27,0,0,0,.18-.07l.23-.15a1.8,1.8,0,0,1,.31-.14,1.13,1.13,0,0,1,.44-.07.72.72,0,0,1,.59.24,1.07,1.07,0,0,1,.21.72v.31a5.41,5.41,0,0,0-1.17.13,2.84,2.84,0,0,0-.77.28,1.18,1.18,0,0,0-.43.39.9.9,0,0,0-.13.47,1.13,1.13,0,0,0,.09.47,1,1,0,0,0,.24.34,1.27,1.27,0,0,0,.36.2,1.63,1.63,0,0,0,.45.06,1.87,1.87,0,0,0,.42,0,1.9,1.9,0,0,0,.36-.12,2.07,2.07,0,0,0,.32-.19l.31-.26.08.38a.19.19,0,0,0,.09.13.25.25,0,0,0,.16,0h.31v-2.59a2.08,2.08,0,0,0-.09-.63A1.25,1.25,0,0,0,121.38,121.78Zm-.33,2.71a1.34,1.34,0,0,1-.25.23,1.06,1.06,0,0,1-.26.17,1,1,0,0,1-.3.11,1.18,1.18,0,0,1-.34,0,1.09,1.09,0,0,1-.26,0,.53.53,0,0,1-.21-.11.58.58,0,0,1-.15-.19.78.78,0,0,1,0-.28.54.54,0,0,1,.1-.3.84.84,0,0,1,.32-.24,2.55,2.55,0,0,1,.56-.16,6,6,0,0,1,.84-.08Z"/><path class="cls-2" d="M125.54,121.47a.25.25,0,0,0-.08.1l-1,2.55q-.06.16-.12.36a2.89,2.89,0,0,0-.11-.35l-1.08-2.56a.35.35,0,0,0-.08-.1.2.2,0,0,0-.14,0h-.62l1.67,3.81-.74,1.61h.53a.26.26,0,0,0,.17,0,.48.48,0,0,0,.09-.13l2.26-5.24h-.57A.2.2,0,0,0,125.54,121.47Z"/><path class="cls-2" d="M127.27,124.7a.44.44,0,0,0-.15-.12.49.49,0,0,0-.56.09.44.44,0,0,0-.13.32.52.52,0,0,0,.13.35.46.46,0,0,0,.34.14h0a.73.73,0,0,1-.08.25,1.51,1.51,0,0,1-.11.22l-.13.17-.1.12a.1.1,0,0,0,0,0,.06.06,0,0,0,0,0s0,0,0,.06a.21.21,0,0,0,0,.06l.12.11a2,2,0,0,0,.32-.33,2.13,2.13,0,0,0,.39-.75,1.73,1.73,0,0,0,.05-.38.78.78,0,0,0,0-.22A.4.4,0,0,0,127.27,124.7Z"/><path class="cls-2" d="M135.83,119.77s-.07,0-.11.11l-1.94,3.52-.1.2a2,2,0,0,1-.08.22,1.33,1.33,0,0,0-.09-.21l-.09-.2-2-3.53a.19.19,0,0,0-.11-.11.34.34,0,0,0-.16,0h-.57v5.73h.68v-4.21c0-.12,0-.26,0-.4l2,3.6a.31.31,0,0,0,.28.18h.12a.3.3,0,0,0,.28-.18l2-3.58c0,.07,0,.13,0,.2s0,.12,0,.18v4.21h.68v-5.73H136A.37.37,0,0,0,135.83,119.77Z"/><path class="cls-2" d="M140.27,121.78a1.14,1.14,0,0,0-.44-.31,1.48,1.48,0,0,0-.61-.12,2.39,2.39,0,0,0-.86.16,2.25,2.25,0,0,0-.72.49l.12.23.09.09a.28.28,0,0,0,.13,0,.27.27,0,0,0,.18-.07l.23-.15a1.68,1.68,0,0,1,.3-.14,1.18,1.18,0,0,1,.45-.07.72.72,0,0,1,.59.24,1.07,1.07,0,0,1,.21.72v.31a5.41,5.41,0,0,0-1.17.13,2.72,2.72,0,0,0-.77.28,1.18,1.18,0,0,0-.43.39.9.9,0,0,0-.13.47,1.13,1.13,0,0,0,.09.47,1,1,0,0,0,.24.34,1,1,0,0,0,.36.2,1.63,1.63,0,0,0,.45.06,1.87,1.87,0,0,0,.42,0,2.17,2.17,0,0,0,.36-.12,2.07,2.07,0,0,0,.32-.19l.31-.26.08.38a.19.19,0,0,0,.09.13.24.24,0,0,0,.16,0h.31v-2.59a2.08,2.08,0,0,0-.09-.63A1.25,1.25,0,0,0,140.27,121.78Zm-.33,2.71a1.74,1.74,0,0,1-.25.23,1.06,1.06,0,0,1-.26.17,1,1,0,0,1-.3.11,1.22,1.22,0,0,1-.34,0,1,1,0,0,1-.26,0,.51.51,0,0,1-.22-.11.72.72,0,0,1-.14-.19.78.78,0,0,1,0-.28.47.47,0,0,1,.1-.3.8.8,0,0,1,.31-.24,2.84,2.84,0,0,1,.57-.16,6,6,0,0,1,.84-.08Z"/><path class="cls-2" d="M144,123.53a1.27,1.27,0,0,0-.34-.2,2.62,2.62,0,0,0-.39-.15l-.38-.12a2.18,2.18,0,0,1-.34-.14.76.76,0,0,1-.24-.18.37.37,0,0,1-.09-.26.46.46,0,0,1,.06-.23.52.52,0,0,1,.15-.18.66.66,0,0,1,.25-.13,1.07,1.07,0,0,1,.32,0,1.25,1.25,0,0,1,.36,0,1.39,1.39,0,0,1,.27.1l.18.1a.27.27,0,0,0,.14,0,.16.16,0,0,0,.15-.09l.16-.26a1.82,1.82,0,0,0-.55-.34,1.85,1.85,0,0,0-.72-.13,1.66,1.66,0,0,0-.61.1,1.38,1.38,0,0,0-.46.26,1,1,0,0,0-.37.82,1,1,0,0,0,.09.44,1,1,0,0,0,.24.31,1.38,1.38,0,0,0,.33.2c.13.06.26.1.39.15l.39.12a1.51,1.51,0,0,1,.34.14.76.76,0,0,1,.24.18.45.45,0,0,1,.09.28.75.75,0,0,1,0,.26.65.65,0,0,1-.16.21.81.81,0,0,1-.26.15,1.25,1.25,0,0,1-.36,0,1.22,1.22,0,0,1-.41-.06,1.47,1.47,0,0,1-.28-.12l-.19-.12a.26.26,0,0,0-.15-.06.21.21,0,0,0-.12,0,.19.19,0,0,0-.07.08l-.17.27a2.08,2.08,0,0,0,.58.35,2.21,2.21,0,0,0,1.43,0,1.4,1.4,0,0,0,.48-.27,1.14,1.14,0,0,0,.29-.41,1.3,1.3,0,0,0,.1-.52.93.93,0,0,0-.09-.42A.82.82,0,0,0,144,123.53Z"/><path class="cls-2" d="M148.3,121.93a1.75,1.75,0,0,0-.61-.42,2.24,2.24,0,0,0-1.61,0,1.75,1.75,0,0,0-.61.42,1.79,1.79,0,0,0-.38.66,2.71,2.71,0,0,0,0,1.72,1.79,1.79,0,0,0,.38.66,1.75,1.75,0,0,0,.61.42,2.38,2.38,0,0,0,1.61,0,1.75,1.75,0,0,0,.61-.42,1.94,1.94,0,0,0,.38-.66,2.71,2.71,0,0,0,0-1.72A1.94,1.94,0,0,0,148.3,121.93Zm-.52,2.65a1,1,0,0,1-.89.4,1.08,1.08,0,0,1-.91-.4,1.87,1.87,0,0,1-.3-1.13,2.49,2.49,0,0,1,.08-.64,1.33,1.33,0,0,1,.22-.48.93.93,0,0,1,.38-.3,1.25,1.25,0,0,1,.53-.11,1,1,0,0,1,.89.41,1.82,1.82,0,0,1,.3,1.12A1.87,1.87,0,0,1,147.78,124.58Z"/><path class="cls-2" d="M152.75,121.78a1.22,1.22,0,0,0-.43-.31,1.5,1.5,0,0,0-.58-.11,1.77,1.77,0,0,0-.41,0,1.48,1.48,0,0,0-.35.13,2.11,2.11,0,0,0-.31.21,3.45,3.45,0,0,0-.28.26l-.06-.44c0-.1-.08-.14-.19-.14h-.42v4h.71v-3a2.14,2.14,0,0,1,.51-.41,1.2,1.2,0,0,1,.59-.15.79.79,0,0,1,.64.25,1.1,1.1,0,0,1,.21.72v2.58h.71V122.9a2.08,2.08,0,0,0-.09-.63A1.34,1.34,0,0,0,152.75,121.78Z"/><path class="cls-2" d="M154.89,124.7a.61.61,0,0,0-.16-.12.46.46,0,0,0-.21,0,.48.48,0,0,0-.35.14.44.44,0,0,0-.13.32.52.52,0,0,0,.13.35.46.46,0,0,0,.34.14h0s0,0,0,0a1,1,0,0,1-.07.25l-.12.22-.13.17-.1.12a.1.1,0,0,0,0,0s0,0,0,0,0,0,0,.06l0,.06.12.11a2.5,2.5,0,0,0,.32-.33,2.06,2.06,0,0,0,.23-.37,1.66,1.66,0,0,0,.15-.38,1.28,1.28,0,0,0,0-.38.78.78,0,0,0,0-.22A.51.51,0,0,0,154.89,124.7Z"/><path class="cls-2" d="M162.73,120.5a2.54,2.54,0,0,0-.9-.6,3.12,3.12,0,0,0-2.3,0,2.41,2.41,0,0,0-.89.6,2.76,2.76,0,0,0-.58.93,3.21,3.21,0,0,0-.2,1.18,3.27,3.27,0,0,0,.2,1.19,2.82,2.82,0,0,0,.58.92,2.41,2.41,0,0,0,.89.6,3.12,3.12,0,0,0,2.3,0,2.54,2.54,0,0,0,.9-.6,2.64,2.64,0,0,0,.57-.92,3.27,3.27,0,0,0,.21-1.19,3.22,3.22,0,0,0-.21-1.18A2.59,2.59,0,0,0,162.73,120.5Zm-.16,3.06a2.07,2.07,0,0,1-.41.71,1.79,1.79,0,0,1-.64.44,2.28,2.28,0,0,1-1.68,0,1.79,1.79,0,0,1-.64-.44,2.07,2.07,0,0,1-.41-.71,3.26,3.26,0,0,1,0-1.89,2,2,0,0,1,.41-.71,1.69,1.69,0,0,1,.64-.45,2.29,2.29,0,0,1,1.68,0,1.69,1.69,0,0,1,.64.45,2,2,0,0,1,.41.71,3.26,3.26,0,0,1,0,1.89Z"/><polygon class="cls-2" points="168.48 122.3 165.39 122.3 165.39 119.75 164.62 119.75 164.62 125.48 165.39 125.48 165.39 122.87 168.48 122.87 168.48 125.48 169.26 125.48 169.26 119.75 168.48 119.75 168.48 122.3"/><path class="cls-2" d="M175.58,119.75h-.66l-2.79,3.7.07.36a.21.21,0,0,0,.08.11.22.22,0,0,0,.14,0H175v1.51h.62V124h.72a.12.12,0,0,0,.11,0,.15.15,0,0,0,0-.11v-.41h-.87Zm-.61,1.07a1.85,1.85,0,0,0,0,.23v2.36H172.9l2.09-2.84A2.11,2.11,0,0,0,175,120.82Z"/><path class="cls-2" d="M180.32,122.31a1.63,1.63,0,0,0-.58-.36,2.14,2.14,0,0,0-.79-.14,4.25,4.25,0,0,0-.82.1l.26-1.5h1.8a.45.45,0,0,0,.32-.1.33.33,0,0,0,.1-.25v-.31h-2.72l-.46,2.68.45.13a2.81,2.81,0,0,1,.48-.12,3.4,3.4,0,0,1,.45,0,1.55,1.55,0,0,1,.55.08,1,1,0,0,1,.39.24.88.88,0,0,1,.24.36,1.53,1.53,0,0,1,.08.49,1.59,1.59,0,0,1-.09.55,1.26,1.26,0,0,1-.27.43,1,1,0,0,1-.41.27,1.33,1.33,0,0,1-.54.1,1.56,1.56,0,0,1-.46-.06,2.18,2.18,0,0,1-.34-.14l-.24-.14a.38.38,0,0,0-.18-.06.22.22,0,0,0-.19.1l-.22.31c.09.08.19.15.3.23a3.36,3.36,0,0,0,.38.19,2.7,2.7,0,0,0,.43.13,2.52,2.52,0,0,0,.48.05,2.21,2.21,0,0,0,.82-.14,2,2,0,0,0,.65-.4,1.79,1.79,0,0,0,.44-.63,2.27,2.27,0,0,0,0-1.51A1.57,1.57,0,0,0,180.32,122.31Z"/><path class="cls-2" d="M185.12,120.4a1.64,1.64,0,0,0-.67-.54,1.94,1.94,0,0,0-1.63,0,1.68,1.68,0,0,0-.66.54,2.66,2.66,0,0,0-.44.91,5.4,5.4,0,0,0,0,2.61,2.76,2.76,0,0,0,.44.91,1.9,1.9,0,0,0,2.29.53,1.79,1.79,0,0,0,.67-.53,3,3,0,0,0,.44-.91,5.4,5.4,0,0,0,0-2.61A2.86,2.86,0,0,0,185.12,120.4Zm-.25,3.31a2,2,0,0,1-.3.72,1.06,1.06,0,0,1-.43.39,1.12,1.12,0,0,1-1,0,1.06,1.06,0,0,1-.43-.39,2.2,2.2,0,0,1-.29-.72,4.29,4.29,0,0,1-.11-1.1,4.39,4.39,0,0,1,.11-1.1,2.2,2.2,0,0,1,.29-.72,1.06,1.06,0,0,1,.43-.39,1.21,1.21,0,0,1,1,0,1.06,1.06,0,0,1,.43.39,2,2,0,0,1,.3.72,4.91,4.91,0,0,1,.11,1.1A4.79,4.79,0,0,1,184.87,123.71Z"/><path class="cls-2" d="M189.5,119.75h-.66l-2.79,3.7.07.36a.21.21,0,0,0,.08.11.22.22,0,0,0,.14,0h2.54v1.51h.62V124h.71c.06,0,.1,0,.12,0a.15.15,0,0,0,0-.11v-.41h-.87Zm-.61,1.07a1.85,1.85,0,0,0,0,.23v2.36h-2.06l2.09-2.84A2.11,2.11,0,0,0,188.89,120.82Z"/><path class="cls-2" d="M194.84,121.31a2.86,2.86,0,0,0-.44-.91,1.64,1.64,0,0,0-.67-.54,1.94,1.94,0,0,0-1.63,0,1.68,1.68,0,0,0-.66.54,2.66,2.66,0,0,0-.44.91,5.4,5.4,0,0,0,0,2.61,2.76,2.76,0,0,0,.44.91,1.9,1.9,0,0,0,2.29.53,1.79,1.79,0,0,0,.67-.53,3,3,0,0,0,.44-.91,5.4,5.4,0,0,0,0-2.61Zm-.69,2.4a2,2,0,0,1-.3.72,1.06,1.06,0,0,1-.43.39,1.12,1.12,0,0,1-1,0,1.13,1.13,0,0,1-.43-.39,2.2,2.2,0,0,1-.29-.72,4.29,4.29,0,0,1-.11-1.1,4.39,4.39,0,0,1,.11-1.1,2.2,2.2,0,0,1,.29-.72,1.13,1.13,0,0,1,.43-.39,1.21,1.21,0,0,1,1,0,1.06,1.06,0,0,1,.43.39,2,2,0,0,1,.3.72,4.91,4.91,0,0,1,.11,1.1A4.79,4.79,0,0,1,194.15,123.71Z"/><path class="cls-3" d="M41,109.27a5.67,5.67,0,0,1-1.63-.22c-.17-.09-.25-.37-.25-.83a.84.84,0,0,1,.3-.77,3,3,0,0,1,1.3-.18,2.15,2.15,0,0,1,1.06.16c.15.1.24.36.27.77,0,0,0,.09,0,.15h1.36v-.28a1.74,1.74,0,0,0-.57-1.53,4.38,4.38,0,0,0-2.23-.39,4.27,4.27,0,0,0-2.33.43,2,2,0,0,0-.58,1.71,2.08,2.08,0,0,0,.48,1.64,4.62,4.62,0,0,0,2.22.48l.77,0a1.44,1.44,0,0,1,.85.21,1,1,0,0,1,.19.71c0,.48-.08.78-.25.91a2.19,2.19,0,0,1-1.2.2,3.49,3.49,0,0,1-1.46-.17c-.18-.11-.27-.43-.27-.94v-.15H37.72v.27a2,2,0,0,0,.56,1.69,4.26,4.26,0,0,0,2.3.42,4.64,4.64,0,0,0,2.49-.43c.37-.28.56-.91.56-1.88a1.94,1.94,0,0,0-.48-1.57A4.3,4.3,0,0,0,41,109.27Z"/><path class="cls-3" d="M47.9,111.22c0,.94-.39,1.41-1.18,1.41a1,1,0,0,1-.76-.2,1.44,1.44,0,0,1-.18-.87v-3.15H44.55v3.45a1.55,1.55,0,0,0,1.74,1.75,1.57,1.57,0,0,0,1.66-1h0l-.07.88h1.23v-5.14H47.9Z"/><path class="cls-3" d="M53.26,108.35a1.69,1.69,0,0,0-1.65.83h0l.05-.76H50.38v7.34h1.28v-3h0a1.55,1.55,0,0,0,1.58.81,1.82,1.82,0,0,0,1.55-.57,3.77,3.77,0,0,0,.42-2.11,3.54,3.54,0,0,0-.42-2A1.84,1.84,0,0,0,53.26,108.35Zm.51,4c-.14.21-.45.31-.93.31a1.1,1.1,0,0,1-.94-.32,2.48,2.48,0,0,1-.24-1.33,2.74,2.74,0,0,1,.22-1.34,1.06,1.06,0,0,1,.92-.32c.5,0,.82.1,1,.31a4.41,4.41,0,0,1,0,2.69Z"/><path class="cls-3" d="M59.15,108.35a1.69,1.69,0,0,0-1.66.83h0l0-.76H56.26v7.34h1.28v-3h0a1.56,1.56,0,0,0,1.58.81,1.81,1.81,0,0,0,1.55-.57,3.77,3.77,0,0,0,.42-2.11,3.54,3.54,0,0,0-.42-2A1.83,1.83,0,0,0,59.15,108.35Zm.5,4c-.14.21-.45.31-.93.31a1.1,1.1,0,0,1-.94-.32,2.5,2.5,0,0,1-.23-1.33,2.78,2.78,0,0,1,.21-1.34,1.06,1.06,0,0,1,.92-.32c.5,0,.82.1,1,.31a4.22,4.22,0,0,1,0,2.69Z"/><rect class="cls-3" x="62.14" y="106.21" width="1.23" height="7.33"/><rect class="cls-3" x="64.58" y="106.21" width="1.23" height="1.03"/><rect class="cls-3" x="64.58" y="108.41" width="1.23" height="5.13"/><path class="cls-3" d="M69.25,108.35a2.71,2.71,0,0,0-1.93.51,3,3,0,0,0-.49,2,3.45,3.45,0,0,0,.47,2.2,2.72,2.72,0,0,0,2,.53c1.51,0,2.26-.51,2.26-1.51v-.2H70.32c0,.33-.06.54-.2.64a1.69,1.69,0,0,1-.88.15,1.29,1.29,0,0,1-.93-.25,1.53,1.53,0,0,1-.24-1s0-.12,0-.23h3.48v-.38a3,3,0,0,0-.47-2A2.49,2.49,0,0,0,69.25,108.35Zm-1.16,2.1a1.46,1.46,0,0,1,.21-1,1.27,1.27,0,0,1,.9-.22,1.56,1.56,0,0,1,.92.18,1.07,1.07,0,0,1,.21.79v.21Z"/><path class="cls-3" d="M75.18,108.33a1.46,1.46,0,0,0-1.38.81h0l.08-.72H72.62v5.14h1.23v-3c0-.81.3-1.22.91-1.22.43,0,.64.28.64.82,0,0,0,.14,0,.28h1.16V110C76.54,108.9,76.09,108.33,75.18,108.33Z"/><path class="cls-3" d="M85,109.62c-.1.25-.22.58-.35,1l-.16.5-.15.51h0l-.17-.51-.16-.51c-.15-.44-.27-.77-.36-1l-1.31-3.4H80v7.34H81.4v-4c0-.3,0-.65,0-1.07l0-.53,0-.54h0l.16.51.17.51c.15.45.26.79.35,1l1.63,4.11h1.27l1.61-4.14c.08-.22.2-.56.35-1l.16-.51.17-.51h0l0,.54,0,.55q0,.6,0,1.08v4h1.39v-7.34H86.26Z"/><path class="cls-3" d="M92,108.35a3.27,3.27,0,0,0-1.7.31,1.48,1.48,0,0,0-.43,1.24h1.26c0-.48.31-.72.94-.72a1.33,1.33,0,0,1,.86.2,1.08,1.08,0,0,1,.21.79V111h0c-.19-.39-.7-.59-1.55-.59-1.27,0-1.91.53-1.91,1.6s.62,1.59,1.87,1.59c.85,0,1.4-.26,1.64-.77h0l-.06.71h1.23v-3.36a1.77,1.77,0,0,0-.49-1.46A3.29,3.29,0,0,0,92,108.35Zm0,4.43a1.7,1.7,0,0,1-.91-.16.78.78,0,0,1-.21-.65c0-.48.35-.72,1-.72s1.2.26,1.2.77S92.76,112.78,92,112.78Z"/><path class="cls-3" d="M98.38,108.35a1.53,1.53,0,0,0-1.61.93h0l.05-.87H95.57v5.14H96.8v-3c0-.78.42-1.17,1.24-1.17.55,0,.85.19.91.57l0,.36v3.29h1.23v-3.5C100.2,108.92,99.6,108.35,98.38,108.35Z"/><path class="cls-3" d="M103.56,108.35a3.22,3.22,0,0,0-1.7.31,1.45,1.45,0,0,0-.43,1.24h1.25c0-.48.32-.72.94-.72a1.31,1.31,0,0,1,.86.2,1.08,1.08,0,0,1,.21.79V111h0c-.18-.39-.7-.59-1.55-.59-1.27,0-1.9.53-1.9,1.6s.62,1.59,1.86,1.59c.86,0,1.4-.26,1.64-.77h0l-.06.71h1.23v-3.36a1.77,1.77,0,0,0-.49-1.46A3.26,3.26,0,0,0,103.56,108.35Zm0,4.43a1.63,1.63,0,0,1-.9-.16.77.77,0,0,1-.22-.65q0-.72,1.05-.72c.79,0,1.19.26,1.19.77S104.33,112.78,103.58,112.78Z"/><path class="cls-3" d="M110.57,109.26h0a1.56,1.56,0,0,0-1.6-.91,1.85,1.85,0,0,0-1.55.56,3.36,3.36,0,0,0-.43,2,3.67,3.67,0,0,0,.43,2.11,1.9,1.9,0,0,0,1.59.56,1.44,1.44,0,0,0,1.5-.82h0v1.16c0,.63-.38.94-1.14.94a1.52,1.52,0,0,1-.84-.14c-.13-.09-.19-.31-.19-.64h-1.19a1.76,1.76,0,0,0,.44,1.4,3,3,0,0,0,1.77.35,2.82,2.82,0,0,0,1.87-.46,2.31,2.31,0,0,0,.51-1.73v-5.23h-1.23Zm-.3,3c-.14.2-.45.31-.94.31s-.79-.1-.92-.3a2.92,2.92,0,0,1-.2-1.39,2.61,2.61,0,0,1,.2-1.31c.13-.19.43-.28.91-.28s.81.09,1,.29a2.47,2.47,0,0,1,.22,1.31A2.69,2.69,0,0,1,110.27,112.3Z"/><path class="cls-3" d="M115.18,108.35a2.72,2.72,0,0,0-1.93.51,3,3,0,0,0-.49,2,3.52,3.52,0,0,0,.47,2.2,2.77,2.77,0,0,0,2,.53c1.5,0,2.25-.51,2.25-1.51v-.2h-1.23c0,.33-.07.54-.21.64a1.67,1.67,0,0,1-.88.15,1.33,1.33,0,0,1-.93-.25,1.54,1.54,0,0,1-.23-1s0-.12,0-.23h3.47v-.38a3,3,0,0,0-.46-2A2.53,2.53,0,0,0,115.18,108.35Zm-1.15,2.1a1.54,1.54,0,0,1,.2-1,1.27,1.27,0,0,1,.9-.22,1.56,1.56,0,0,1,.92.18,1.07,1.07,0,0,1,.21.79v.21Z"/><path class="cls-3" d="M124.46,108.35a1.51,1.51,0,0,0-1.58,1h0c-.11-.63-.62-1-1.55-1a1.54,1.54,0,0,0-1.57.86h0l0-.79h-1.23v5.14h1.23v-3c0-.83.38-1.24,1.13-1.24.37,0,.61.06.72.2a1.42,1.42,0,0,1,.17.84v3.18H123v-3c0-.81.37-1.21,1.12-1.21.6,0,.9.36.9,1.09v3.13h1.23v-3.4A1.59,1.59,0,0,0,124.46,108.35Z"/><path class="cls-3" d="M129.74,108.35a2.71,2.71,0,0,0-1.93.51,3,3,0,0,0-.49,2,3.45,3.45,0,0,0,.47,2.2,2.72,2.72,0,0,0,2,.53c1.51,0,2.26-.51,2.26-1.51v-.2h-1.24a.79.79,0,0,1-.2.64,1.69,1.69,0,0,1-.88.15,1.29,1.29,0,0,1-.93-.25,1.53,1.53,0,0,1-.24-1s0-.12,0-.23h3.48v-.38a3,3,0,0,0-.47-2A2.5,2.5,0,0,0,129.74,108.35Zm-1.16,2.1a1.46,1.46,0,0,1,.21-1,1.26,1.26,0,0,1,.89-.22,1.6,1.6,0,0,1,.93.18,1.07,1.07,0,0,1,.21.79v.21Z"/><path class="cls-3" d="M135.88,108.35a1.53,1.53,0,0,0-1.61.93h0l0-.87h-1.22v5.14h1.23v-3c0-.78.42-1.17,1.24-1.17.55,0,.85.19.91.57l0,.36v3.29h1.23v-3.5C137.7,108.92,137.1,108.35,135.88,108.35Z"/><path class="cls-3" d="M141.38,111.77c0,.58-.2.87-.59.87s-.55-.24-.55-.72v-2.57h2v-.94h-2v-1.15H139v1.15h-.66v.94H139v2.75c0,1,.55,1.51,1.65,1.51s1.68-.39,1.75-1.17c0-.17,0-.38,0-.61v-.26h-1.05Z"/><path class="cls-3" d="M150.87,109.62c-.1.25-.22.58-.35,1l-.16.5-.15.51h-.05l-.17-.51-.16-.51c-.15-.44-.26-.77-.35-1l-1.32-3.4H145.9v7.34h1.39v-4c0-.3,0-.65,0-1.07l0-.53,0-.54h.05l.16.51.17.51c.15.45.26.79.35,1l1.63,4.11h1.27l1.61-4.14c.08-.22.2-.56.35-1l.16-.51.17-.51h0l0,.54,0,.55q0,.6,0,1.08v4h1.39v-7.34h-2.31Z"/><path class="cls-3" d="M157.88,108.35a3.29,3.29,0,0,0-1.71.31,1.48,1.48,0,0,0-.43,1.24H157c0-.48.31-.72.94-.72a1.33,1.33,0,0,1,.86.2,1.08,1.08,0,0,1,.21.79V111h0c-.19-.39-.7-.59-1.55-.59-1.27,0-1.91.53-1.91,1.6s.62,1.59,1.87,1.59c.85,0,1.4-.26,1.64-.77h0l-.06.71h1.23v-3.36a1.77,1.77,0,0,0-.49-1.46A3.28,3.28,0,0,0,157.88,108.35Zm0,4.43a1.7,1.7,0,0,1-.91-.16.78.78,0,0,1-.21-.65c0-.48.35-.72,1-.72s1.2.26,1.2.77S158.65,112.78,157.9,112.78Z"/><path class="cls-3" d="M164.8,109.14h0c-.21-.53-.73-.8-1.57-.8a1.83,1.83,0,0,0-1.51.54,3.18,3.18,0,0,0-.42,1.91,4.28,4.28,0,0,0,.4,2.26,1.88,1.88,0,0,0,1.61.55,1.51,1.51,0,0,0,1.57-.9h0l0,.83H166v-7.34H164.8Zm-.21,3.18c-.14.21-.45.32-1,.32s-.77-.11-.91-.32a3.18,3.18,0,0,1-.2-1.44,2.46,2.46,0,0,1,.2-1.26c.14-.2.43-.29.89-.29s.8.09.95.29a2.26,2.26,0,0,1,.23,1.24A3.15,3.15,0,0,1,164.59,112.32Z"/><path class="cls-3" d="M169.48,108.35a2.71,2.71,0,0,0-1.93.51,3,3,0,0,0-.5,2,3.44,3.44,0,0,0,.48,2.2,2.72,2.72,0,0,0,2,.53c1.5,0,2.26-.51,2.26-1.51v-.2h-1.24a.79.79,0,0,1-.2.64,1.69,1.69,0,0,1-.88.15,1.34,1.34,0,0,1-.94-.25,1.6,1.6,0,0,1-.23-1s0-.12,0-.23h3.48v-.38a3,3,0,0,0-.47-2A2.5,2.5,0,0,0,169.48,108.35Zm-1.16,2.1a1.46,1.46,0,0,1,.21-1,1.24,1.24,0,0,1,.89-.22,1.54,1.54,0,0,1,.92.18,1,1,0,0,1,.22.79v.21Z"/><path class="cls-3" d="M178.62,109.27a5.6,5.6,0,0,1-1.63-.22c-.17-.09-.25-.37-.25-.83a.84.84,0,0,1,.3-.77,3,3,0,0,1,1.29-.18,2.17,2.17,0,0,1,1.07.16c.15.1.24.36.27.77,0,0,0,.09,0,.15H181v-.28a1.74,1.74,0,0,0-.57-1.53,4.38,4.38,0,0,0-2.23-.39,4.25,4.25,0,0,0-2.33.43,2,2,0,0,0-.58,1.71,2.08,2.08,0,0,0,.48,1.64,4.62,4.62,0,0,0,2.22.48l.77,0a1.47,1.47,0,0,1,.85.21,1,1,0,0,1,.19.71c0,.48-.08.78-.25.91a2.22,2.22,0,0,1-1.2.2,3.46,3.46,0,0,1-1.46-.17c-.18-.11-.27-.43-.27-.94v-.15H175.3v.27a2,2,0,0,0,.56,1.69,4.24,4.24,0,0,0,2.3.42,4.58,4.58,0,0,0,2.48-.43c.38-.28.57-.91.57-1.88a1.94,1.94,0,0,0-.48-1.57A4.3,4.3,0,0,0,178.62,109.27Z"/><rect class="cls-3" x="182.15" y="106.21" width="1.23" height="1.03"/><rect class="cls-3" x="182.15" y="108.41" width="1.23" height="5.13"/><path class="cls-3" d="M190.53,108.35a1.51,1.51,0,0,0-1.58,1h0c-.11-.63-.62-1-1.55-1a1.53,1.53,0,0,0-1.57.86h0l0-.79h-1.23v5.14h1.23v-3c0-.83.37-1.24,1.13-1.24a.92.92,0,0,1,.72.2,1.42,1.42,0,0,1,.17.84v3.18h1.23v-3c0-.81.37-1.21,1.12-1.21.6,0,.89.36.89,1.09v3.13h1.24v-3.4A1.59,1.59,0,0,0,190.53,108.35Z"/><path class="cls-3" d="M196.46,108.35a1.7,1.7,0,0,0-1.66.83h0l0-.76h-1.25v7.34h1.29v-3h0a1.54,1.54,0,0,0,1.58.81A1.82,1.82,0,0,0,198,113a3.77,3.77,0,0,0,.42-2.11,3.54,3.54,0,0,0-.42-2A1.84,1.84,0,0,0,196.46,108.35Zm.51,4c-.15.21-.46.31-.94.31a1.13,1.13,0,0,1-.94-.32,4.07,4.07,0,0,1,0-2.67,1,1,0,0,1,.91-.32c.51,0,.83.1,1,.31a2.6,2.6,0,0,1,.22,1.35A2.75,2.75,0,0,1,197,112.32Z"/><rect class="cls-3" x="199.45" y="106.21" width="1.23" height="7.33"/><path class="cls-3" d="M204.13,108.35a2.71,2.71,0,0,0-1.93.51,3,3,0,0,0-.5,2,3.44,3.44,0,0,0,.48,2.2,2.72,2.72,0,0,0,2,.53c1.5,0,2.26-.51,2.26-1.51v-.2H205.2a.79.79,0,0,1-.2.64,1.71,1.71,0,0,1-.89.15,1.33,1.33,0,0,1-.93-.25,1.6,1.6,0,0,1-.23-1s0-.12,0-.23h3.48v-.38a3,3,0,0,0-.47-2A2.5,2.5,0,0,0,204.13,108.35Zm-1.16,2.1a1.46,1.46,0,0,1,.21-1,1.24,1.24,0,0,1,.89-.22,1.56,1.56,0,0,1,.92.18,1,1,0,0,1,.22.79v.21Z"/><path class="cls-3" d="M213.59,107.24a3.73,3.73,0,1,0-2.63,6.38,3.54,3.54,0,0,0,2.63-1.1,3.72,3.72,0,0,0,0-5.28Zm-.4,4.92a3.1,3.1,0,0,1-4.47,0,3.26,3.26,0,0,1,0-4.56,3.13,3.13,0,0,1,4.47,0,3.26,3.26,0,0,1,0,4.56Z"/><path class="cls-3" d="M212.73,109.05c0-.87-.48-1.3-1.42-1.3h-2.13v4.19h.88v-1.37h1.12c.41,0,.62.2.62.59v.78h.88V111a.75.75,0,0,0-.6-.83C212.51,110.06,212.73,109.68,212.73,109.05Zm-1.55.77h-1.12V108.5h1.18a.57.57,0,0,1,.64.65C211.88,109.6,211.65,109.82,211.18,109.82Z"/><ellipse class="cls-4" cx="150.74" cy="56.53" rx="25.76" ry="25.62"/><polygon points="135.71 76.84 142.33 76.84 150.28 63.06 146.75 57.62 135.71 76.84"/><polygon points="165.76 36.21 159.05 36.21 151.39 50.07 154.96 55.45 165.76 36.21"/><polygon points="142.33 36.21 135.71 36.21 146.74 55.45 150.34 50.09 142.33 36.21"/><polygon points="151.49 63.03 159.14 76.84 165.76 76.84 154.94 57.62 151.49 63.03"/><polygon class="cls-5" points="147.21 56.57 150.87 62.21 154.52 56.57 150.87 51.03 147.21 56.57"/><path class="cls-5" d="M54,65.4H43.74A2.78,2.78,0,0,1,41,62.63V50.44a2.78,2.78,0,0,1,2.78-2.77H54a2.8,2.8,0,0,1,2.77,2.45h3.67V49.4a5.23,5.23,0,0,0-5.22-5.2H42.52a5.23,5.23,0,0,0-5.22,5.2V63.65a5.23,5.23,0,0,0,5.22,5.2H55.24a5.23,5.23,0,0,0,5.22-5.2V63.2H56.74A2.8,2.8,0,0,1,54,65.4Z"/><path class="cls-5" d="M80.1,44.2H67.39a5.23,5.23,0,0,0-5.23,5.2V63.65a5.23,5.23,0,0,0,5.23,5.2H80.1a5.23,5.23,0,0,0,5.23-5.2V49.4A5.23,5.23,0,0,0,80.1,44.2Zm1.57,18.43a2.79,2.79,0,0,1-2.79,2.77H68.6a2.78,2.78,0,0,1-2.78-2.77V50.44a2.78,2.78,0,0,1,2.78-2.77H78.88a2.79,2.79,0,0,1,2.79,2.77Z"/><polygon class="cls-5" points="107.24 44.2 107.24 63.42 90.9 44.2 87.65 44.2 87.65 68.85 90.9 68.85 90.9 49.99 107.24 68.82 107.24 68.85 110.49 68.85 110.49 44.2 107.24 44.2"/><polygon class="cls-5" points="132.65 44.2 132.65 63.42 116.31 44.2 113.07 44.2 113.07 68.85 116.31 68.85 116.31 49.99 132.65 68.82 132.65 68.85 135.9 68.85 135.9 44.2 132.65 44.2"/><path class="cls-5" d="M184.37,44.19V62.7a2.79,2.79,0,0,1-2.78,2.78H171.25a2.8,2.8,0,0,1-2.79-2.78V44.19h-3.54V63.44a5.46,5.46,0,0,0,5.46,5.42h12.31a5.46,5.46,0,0,0,5.46-5.42V44.19Z"/><path class="cls-5" d="M213,44.19v3.44H196.74c-1.45,0-3.31.69-3.31,2.25V52c0,.75.35,2.2,2.73,2.2h10.92c3.07,0,5.92,1.5,5.92,5.14v4.1c0,2,.17,5.46-5.29,5.46H190.06V65.48h16.38c2.38,0,3.07-.35,3.07-2.37V59.47c0-1.45-1.1-1.79-2.9-1.79H196.33c-2.67,0-6.27-1.16-6.27-4.68V49.13c0-1.5.7-4.94,5.4-4.94Z"/><path class="cls-2" d="M176.51,36.21a2.81,2.81,0,0,1,2,4.81,2.69,2.69,0,0,1-2,.83A2.82,2.82,0,0,1,173.67,39a2.67,2.67,0,0,1,.83-2A2.74,2.74,0,0,1,176.51,36.21Zm0,.29a2.4,2.4,0,0,0-1.76.74,2.56,2.56,0,0,0,0,3.58,2.45,2.45,0,0,0,3.51,0,2.57,2.57,0,0,0,0-3.58A2.4,2.4,0,0,0,176.5,36.5Zm-1.27,4.08V37.43h1.56c.65,0,1,.3,1,.92,0,.45-.14.72-.43.82a.57.57,0,0,1,.39.6v.81h-.42v-.72c0-.34-.15-.51-.46-.51h-1.19v1.23Zm.42-1.6h1c.45,0,.68-.18.68-.55a.9.9,0,0,0-.1-.51.61.61,0,0,0-.45-.12h-1.15Z"/></g></g></svg>