<svg xmlns="http://www.w3.org/2000/svg" viewBox="0 0 72.83 72.81"><defs><style>.cls-1{fill:#cbcdce;}.cls-2{fill:#76777b;}.cls-3{fill:#54575a;}.cls-4{fill:#fbfbfb;}.cls-5{fill:#aa192d;}</style></defs><g id="Layer_2" data-name="Layer 2"><g id="color"><g id="database-color"><circle class="cls-1" cx="36" cy="36" r="36"/><path class="cls-2" d="M52.65,47.66l-7.19-7.25a12.7,12.7,0,1,0-10.65,5.82A12.62,12.62,0,0,0,42,44l7.15,7.21a2.47,2.47,0,0,0,3.53,0A2.54,2.54,0,0,0,52.65,47.66Z"/><path class="cls-3" d="M35,42.8a9.16,9.16,0,1,1,9.09-9.15A9.13,9.13,0,0,1,35,42.8ZM35,26a7.63,7.63,0,1,0,7.56,7.63A7.6,7.6,0,0,0,35,26Z"/><path class="cls-4" d="M35,26a7.63,7.63,0,1,0,7.56,7.63A7.6,7.6,0,0,0,35,26Z"/><rect class="cls-3" x="8.04" y="24.18" width="9.78" height="1.53"/><rect class="cls-2" x="5.86" y="31.02" width="11.11" height="1.53"/><rect class="cls-2" x="12.93" y="41.27" width="4.04" height="1.53"/><rect class="cls-3" x="10.13" y="36.74" width="6.84" height="1.53"/><rect class="cls-3" x="10.13" y="47.26" width="15.38" height="1.53"/><rect class="cls-3" x="16.97" y="52.22" width="22.22" height="1.53"/><rect class="cls-2" x="52.86" y="32.73" width="11.96" height="1.53"/><rect class="cls-3" x="52.86" y="40.42" width="6.84" height="1.53"/><rect class="cls-3" x="51.15" y="25.04" width="11.11" height="1.53"/><rect class="cls-3" x="26.94" y="10.73" width="15.38" height="1.53"/><rect class="cls-3" x="11.41" y="16.96" width="18.37" height="1.2"/><rect class="cls-3" x="42.6" y="16.49" width="11.11" height="1.53"/><polygon class="cls-5" points="38.1 31.44 37.01 30.36 34.81 32.56 32.61 30.36 31.52 31.44 33.73 33.65 31.52 35.85 32.61 36.93 34.81 34.73 37.01 36.93 38.1 35.85 35.89 33.65 38.1 31.44"/><path d="M65.91,68.81H64.55v-.49h3.32v.49H66.5v4h-.59Z"/><path d="M72.16,70.84c0-.63-.08-1.38-.07-1.94h0c-.15.53-.34,1.09-.57,1.7l-.79,2.18h-.44l-.73-2.13c-.21-.64-.39-1.22-.52-1.75h0c0,.56-.05,1.31-.09,2l-.12,1.93h-.55l.31-4.49h.74l.77,2.17c.19.55.34,1.05.45,1.51h0c.12-.45.28-.94.48-1.51l.8-2.17h.73l.28,4.49h-.56Z"/></g></g></g></svg>