<svg xmlns="http://www.w3.org/2000/svg" viewBox="0 0 50.8 50.8"><defs><style>.cls-1{fill:#fff;}</style></defs><g id="Layer_2" data-name="Layer 2"><g id="small"><g id="detexion-small"><g id="Layer_2-2" data-name="Layer 2"><g id="Layer_1-2" data-name="Layer 1-2"><path class="cls-1" d="M25.4,50.8A25.4,25.4,0,1,1,50.8,25.4,25.4,25.4,0,0,1,25.4,50.8ZM25.4,1A24.36,24.36,0,1,0,49.76,25.4,24.36,24.36,0,0,0,25.4,1Z"/><path class="cls-1" d="M19.46,12.63a.45.45,0,0,0,.34-.15,9,9,0,0,1,12.79-.32l0,0a.47.47,0,0,0,.66,0l0,0a.52.52,0,0,0-.08-.72c-7.58-6.4-14.06.3-14.13.37a.54.54,0,0,0,0,.73A.47.47,0,0,0,19.46,12.63Z"/><path class="cls-1" d="M35.17,14.21a.52.52,0,0,0-.71.19.53.53,0,0,0,.18.71s3.82,2.45,2.48,12.35a.52.52,0,0,0,.44.58h.07a.51.51,0,0,0,.51-.45C39.59,16.92,35.35,14.32,35.17,14.21Z"/><path class="cls-1" d="M29.23,13.68a.68.68,0,0,0,.82-.09.41.41,0,0,0,0-.59.39.39,0,0,0-.1-.08,6.85,6.85,0,0,0-7.38.2.41.41,0,0,0-.15.56.31.31,0,0,0,.09.11A.65.65,0,0,0,23,14a.73.73,0,0,0,.38-.11A5.5,5.5,0,0,1,29.23,13.68Z"/><path class="cls-1" d="M25.39,31.8a.52.52,0,0,0-.07-.72h0a.53.53,0,0,0-.73.09,15.7,15.7,0,0,1-9.38,5.91.53.53,0,0,0-.32.66.52.52,0,0,0,.39.34h.07A16.56,16.56,0,0,0,25.39,31.8Z"/><path class="cls-1" d="M27.08,34.23a1.62,1.62,0,0,0-1.17.53c-1.51,1.07-6.46,3.87-6.51,3.9a.52.52,0,1,0,.25,1,.58.58,0,0,0,.26-.06c.21-.12,5.17-2.93,6.66-4a.37.37,0,0,0,.12-.13.71.71,0,0,1,.46-.17c.58,0,1.92.32,4.39,3.12a.52.52,0,0,0,.85-.6.27.27,0,0,0-.07-.08C30.21,35.31,28.45,34.16,27.08,34.23Z"/><path class="cls-1" d="M26.62,39.36a3.39,3.39,0,0,0-2.23,1.25.52.52,0,0,0,.1.73h0a.53.53,0,0,0,.73-.1,2.3,2.3,0,0,1,1.48-.84,2.44,2.44,0,0,1,1.86.89.51.51,0,0,0,.37.15.56.56,0,0,0,.37-.15.52.52,0,0,0,0-.73A3.44,3.44,0,0,0,26.62,39.36Z"/><path class="cls-1" d="M23.58,27.65a.61.61,0,0,0,.45-.2,25.29,25.29,0,0,0,1.78-2.21,4,4,0,0,1,.6,1.8.6.6,0,0,0,1.2,0,5.75,5.75,0,0,0-1.06-2.91,9,9,0,0,0,1-2.16.6.6,0,0,0-.41-.73h0a.58.58,0,0,0-.73.4v0a8.08,8.08,0,0,1-.65,1.4,14.34,14.34,0,0,0-1.09-1.25.61.61,0,0,0-.85,0,.6.6,0,0,0,0,.85h0a13.59,13.59,0,0,1,1.25,1.48,21.8,21.8,0,0,1-2,2.49.6.6,0,0,0,.05.85h0A.57.57,0,0,0,23.58,27.65Z"/><path class="cls-1" d="M37.22,31.85c-2.45-1.15-3.77-4.29-3.3-7.81a23.08,23.08,0,0,0,0-6.64.49.49,0,0,0-.59-.4.5.5,0,0,0-.41.59,22.23,22.23,0,0,1,0,6.31c-.53,4,1,7.52,3.86,8.86a.81.81,0,0,0,.22,0,.5.5,0,0,0,.45-.28A.49.49,0,0,0,37.22,31.85Z"/><path class="cls-1" d="M30,23.88h.16a.5.5,0,0,0,.48-.34c.05-.15,1.23-3.73-.86-6.38-1.73-2.21-3.84-2-4.71-1.59a.5.5,0,1,0,.37.93l.06,0s1.81-.83,3.49,1.3.71,5.42.7,5.45a.48.48,0,0,0,.26.64Z"/><path class="cls-1" d="M36.26,35.46C30.32,34.05,30,27.85,30,27.59a.5.5,0,0,0-.52-.48.51.51,0,0,0-.48.53c0,.07.4,7.21,7.08,8.79h.11a.51.51,0,0,0,.49-.38.51.51,0,0,0-.4-.59Z"/><path class="cls-1" d="M14,23.43h0a.49.49,0,0,0,.5-.43,20.89,20.89,0,0,1,3.41-8.55.5.5,0,0,0-.81-.59,21.66,21.66,0,0,0-3.59,9,.51.51,0,0,0,.43.57Z"/><path class="cls-1" d="M22,30.22a.51.51,0,0,0-.17-.69.51.51,0,0,0-.69.18,7.1,7.1,0,0,1-7,3.33.5.5,0,0,0-.58.41h0A.51.51,0,0,0,14,34a8.39,8.39,0,0,0,1,.06A8,8,0,0,0,22,30.22Z"/><path class="cls-1" d="M18.66,27.06c-1.22,3.21-3.64,2.47-3.76,2.43a.51.51,0,0,0-.63.32.49.49,0,0,0,.3.62h0a3.77,3.77,0,0,0,1,.14c1.14,0,2.94-.47,4-3.16a.5.5,0,1,0-.9-.43Z"/><path class="cls-1" d="M21.19,16.21a.52.52,0,0,0,.25-.67.49.49,0,0,0-.66-.24h0c-.1,0-2.42,1.16-2.87,6-.39,4.16-3.29,4.84-3.42,4.87a.5.5,0,0,0,.1,1h.1c.15,0,3.75-.82,4.21-5.76C19.29,17.19,21.18,16.21,21.19,16.21Z"/><path class="cls-1" d="M20.91,23.91H21a.51.51,0,0,0,.5-.43c.54-3.92,1.09-4.75,1.2-4.88a.51.51,0,1,0-.2-1c-.33,0-1.2,0-2,5.7a.51.51,0,0,0,.39.61Z"/></g></g></g></g></g></svg>