<svg xmlns="http://www.w3.org/2000/svg" viewBox="0 0 72.58 72.89"><defs><style>.cls-1{fill:#cbcdce;}.cls-2{fill:#fff;}.cls-3{fill:#aa192d;}.cls-4{fill:#a7a7a9;}.cls-5{fill:#54575a;}</style></defs><g id="Layer_2" data-name="Layer 2"><g id="color"><g id="portal-color"><circle class="cls-1" cx="36" cy="36" r="36"/><rect class="cls-2" x="16.97" y="12.51" width="28.22" height="42.16" transform="translate(62.17 67.18) rotate(180)"/><polygon class="cls-3" points="51.47 26.71 42.41 35.89 51.47 45.07 51.47 40.29 62.27 40.29 62.27 31.59 51.47 31.59 51.47 26.71"/><path class="cls-4" d="M17,13.31V54.67l22.92,12V25.28ZM31,38.08l-1.45-.85-1.61-4L26.4,35.76l-1.12-.52L27.48,32l-1.92-5.63,1.23.66,1.4,3.88L30,28.2l1.12.52L28.65,32.1Z"/><circle class="cls-5" cx="35.49" cy="42.64" r="1.53"/><path d="M65.56,68.84H64.18v-.5h3.37v.5H66.16v4h-.6Z"/><path d="M71.89,70.89c0-.64-.07-1.4-.07-2h0c-.15.54-.34,1.1-.57,1.73l-.8,2.21H70l-.74-2.17c-.21-.64-.39-1.23-.52-1.77h0c0,.57,0,1.33-.08,2l-.13,2h-.56l.32-4.55H69l.78,2.2c.19.56.34,1.06.46,1.53h0a13.67,13.67,0,0,1,.48-1.53l.81-2.2h.75l.28,4.55H72Z"/></g></g></g></svg>