<?xml version="1.0" encoding="utf-8"?>
<!-- Generator: Adobe Illustrator 25.2.0, SVG Export Plug-In . SVG Version: 6.00 Build 0)  -->
<svg version="1.1" id="Layer_1" xmlns="http://www.w3.org/2000/svg" xmlns:xlink="http://www.w3.org/1999/xlink" x="0px" y="0px"
	 viewBox="0 0 73.2 73.1" style="enable-background:new 0 0 73.2 73.1;" xml:space="preserve">
<style type="text/css">
	.st0{opacity:0.3;enable-background:new    ;}
	.st1{opacity:0.33;enable-background:new    ;}
</style>
<g id="scorecard-one">
	<circle class="st0" cx="36.2" cy="36.2" r="36.2"/>
	<path class="st1" d="M14.5,21.5H57c2.8,0,5.1,2.3,5.1,5.1v21.1c0,2.8-2.3,5.1-5.1,5.1H14.5c-2.8,0-5.1-2.3-5.1-5.1V26.6
		C9.4,23.8,11.7,21.5,14.5,21.5z"/>
	<path d="M24.7,29.9c-0.7-1.3-2.4-1.7-3.6-1c-0.4,0.2-0.7,0.6-1,1l-5.9,10.2c-0.7,1.3-0.3,2.9,1,3.6c0.4,0.2,0.9,0.4,1.3,0.4h11.8
		c1.5,0,2.7-1.2,2.7-2.6c0-0.5-0.1-0.9-0.4-1.4L24.7,29.9z M23.2,41.8h-1.5v-1.6h1.5L23.2,41.8z M23.1,38.9h-1.4l-0.1-5.8h1.6
		L23.1,38.9z"/>
	<path d="M49.5,18.1h-5.9c-1.7-4.3-6.6-6.4-10.9-4.8c-2.2,0.9-3.9,2.6-4.8,4.8H22v6.1h27.5V18.1z M32.7,18.9c0.1-1.7,1.5-3,3.2-2.9
		c1.6,0.1,2.8,1.3,2.9,2.9H32.7z"/>
	<rect x="37.7" y="28.7" width="19.1" height="1.5"/>
	<rect x="37.7" y="33" width="13.8" height="1.5"/>
	<polygon points="40.5,38.1 39.1,39.5 37.7,38.1 37,38.8 38.4,40.2 37,41.7 37.7,42.4 39.1,41 40.5,42.4 41.3,41.7 39.8,40.2 
		41.3,38.8 	"/>
	<rect x="42.9" y="42.5" width="13.2" height="1"/>
	<path d="M50.1,39.3c-0.2,0.1-0.4,0.2-0.6,0.2H49c0-0.1,0-0.3,0-0.5c0-0.3-0.2-0.6-0.4-0.8c-0.2-0.1-0.6-0.2-1.7,0.7
		c-0.2-0.8-0.6-1.5-1.4-1.5c-1.3,0-2.3,2-2.5,2.3c-0.1,0.3,0,0.6,0.2,0.7c0.2,0.1,0.5,0,0.7-0.2c0,0,0,0,0,0
		c0.4-0.8,1.1-1.8,1.6-1.8S46,39.4,46,40c0,0.2,0.1,0.4,0.3,0.5c0.2,0.1,0.4,0,0.5-0.1c0.4-0.4,0.8-0.7,1.2-1c0,1,0.4,1.2,1.5,1.2
		c0.4,0,0.7-0.1,1-0.3c0.4-0.2,0.7-0.3,1.8,0.2c0.1,0,0.1,0.1,0.2,0.1c0.2,0,0.4-0.1,0.5-0.3c0.1-0.3,0-0.6-0.2-0.7
		C51.4,38.8,50.7,39,50.1,39.3z"/>
	<path d="M66.1,69h-1.4v-0.5h3.4V69h-1.4v4h-0.6V69z"/>
	<path d="M72.5,71.1c0-0.6-0.1-1.4-0.1-2l0,0c-0.2,0.5-0.3,1.1-0.6,1.7L71,73.1h-0.4l-0.7-2.2c-0.2-0.6-0.4-1.2-0.5-1.8l0,0
		c0,0.6,0,1.3-0.1,2l-0.1,2h-0.6l0.3-4.6h0.8l0.8,2.2c0.2,0.6,0.3,1.1,0.4,1.5l0,0c0.1-0.5,0.3-1,0.5-1.5l0.8-2.2h0.8l0.3,4.6h-0.6
		L72.5,71.1z"/>
</g>
</svg>
