<?xml version="1.0" encoding="utf-8"?>
<!-- Generator: Adobe Illustrator 25.2.0, SVG Export Plug-In . SVG Version: 6.00 Build 0)  -->
<svg version="1.1" id="Layer_1" xmlns="http://www.w3.org/2000/svg" xmlns:xlink="http://www.w3.org/1999/xlink" x="0px" y="0px"
	 viewBox="0 0 50.8 50.8" style="enable-background:new 0 0 50.8 50.8;" xml:space="preserve">
<style type="text/css">
	.st0{fill:#AA192D;}
</style>
<g id="Layer_2_1_">
	<g id="small">
		<g id="smartsearch-small">
			<path class="st0" d="M25.4,0C11.4,0,0,11.4,0,25.4s11.4,25.4,25.4,25.4s25.4-11.4,25.4-25.4S39.4,0,25.4,0C25.4,0,25.4,0,25.4,0z
				 M25.4,49.7C11.9,49.7,1,38.8,1,25.4S11.9,1,25.4,1s24.4,10.9,24.4,24.4l0,0l0,0C49.8,38.8,38.9,49.7,25.4,49.7z"/>
			<path class="st0" d="M21.1,34.8l0.5,2l0.4,1.9h0.6l0.2,1.8H28l0.2-1.8h0.6l0.3-1.9l0.5-2h0.5V34c0-2.9,1-5.8,2.7-8.1
				c3-4.1,2-9.9-2.1-12.8s-9.9-2-12.8,2.1c-1.2,1.7-1.8,3.8-1.7,6c0.1,1.8,0.7,3.5,1.8,4.9c1.7,2.2,2.7,4.9,2.7,7.7v1.1H21.1z
				 M18.8,25.4c-2.7-3.6-2-8.8,1.7-11.5s8.8-2,11.5,1.7c2.2,2.9,2.2,6.8,0.1,9.8c-1.8,2.5-2.9,5.4-2.9,8.5h-1.2
				c-0.5-3-0.6-6.1-0.4-9.1c1.9-0.4,2.3-1.3,2.4-1.7c0.1-0.6-0.3-1.2-0.8-1.4c-0.6-0.2-1.4,0-2,1.1c-0.2,0.3-0.3,0.7-0.4,1.1
				c-0.4,0-0.9,0.1-1.3,0.1v1h1.1c-0.2,3,0,6,0.4,8.9h-3c0.4-2.9,0.6-5.9,0.4-8.8h1.1v-1c-0.4,0-0.8,0-1.3-0.1
				c-0.1-0.4-0.2-0.7-0.4-1.1c-0.6-1.1-1.4-1.3-2-1.1c-0.6,0.2-0.9,0.8-0.8,1.4c0.1,0.4,0.5,1.3,2.4,1.7c0.2,3,0.1,6-0.4,9h-1.2
				v-0.1C21.7,30.7,20.7,27.8,18.8,25.4z M27.8,23.7c0-0.1,0.1-0.3,0.2-0.4c0.2-0.5,0.5-0.6,0.7-0.6h0.1c0.1,0,0.2,0.1,0.2,0.2
				C28.9,23.1,28.5,23.5,27.8,23.7z M23.1,23.7L23.1,23.7c-0.8-0.2-1.1-0.5-1.1-0.8c0-0.1,0.1-0.2,0.2-0.2h0.1
				c0.2,0,0.5,0.2,0.7,0.6C23,23.4,23,23.5,23.1,23.7L23.1,23.7z"/>
			<path class="st0" d="M24.1,16c0.3,0.1,0.5-0.1,0.6-0.4c0,0,0,0,0,0l0,0c0.1-0.3-0.1-0.5-0.4-0.6l0,0c-1.1-0.2-2.3,0-3.2,0.6
				c-1.3,1-2.1,2.6-2.2,4.2c0,0.3,0.2,0.5,0.4,0.6h0.1c0.2,0,0.4-0.2,0.5-0.4c0-1.4,0.7-2.7,1.7-3.5C22.3,16,23.2,15.8,24.1,16z"/>
			<path class="st0" d="M41.9,15.6L39,22l3.3-0.8c2.5,9.2-2.9,18.6-12.1,21.1C21,44.8,11.5,39.3,9.1,30.2S12,11.6,21.2,9.1
				c5.8-1.6,12,0,16.3,4.1c0.2,0.1,0.4,0.2,0.6,0.2c0.5,0.1,1-0.3,1.1-0.9c0.1-0.5-0.2-0.9-0.6-1.1C30.6,4.4,18.4,5.1,11.4,13
				S5,33.2,12.9,40.2s20.1,6.4,27.2-1.5c3.2-3.6,4.9-8.2,4.9-13c0-1.7-0.2-3.4-0.7-5.1l3.6-0.9L41.9,15.6z"/>
		</g>
	</g>
</g>
</svg>
