<?xml version="1.0" encoding="utf-8"?>
<!-- Generator: Adobe Illustrator 25.2.0, SVG Export Plug-In . SVG Version: 6.00 Build 0)  -->
<svg version="1.1" id="Layer_1" xmlns="http://www.w3.org/2000/svg" xmlns:xlink="http://www.w3.org/1999/xlink" x="0px" y="0px"
	 viewBox="0 0 73.2 73.2" style="enable-background:new 0 0 73.2 73.2;" xml:space="preserve">
<style type="text/css">
	.st0{opacity:0.3;enable-background:new    ;}
	.st1{opacity:0.5;enable-background:new    ;}
	.st2{opacity:0.33;}
	.st3{enable-background:new    ;}
</style>
<circle class="st0" cx="36.2" cy="36.2" r="36.2"/>
<path class="st1" d="M42.3,17.4c-3.3,1.3-5.8,4.1-6.8,7.4c-1.6-3.4-4.7-5.8-8.4-6.6c-6.7-1.3-9.8-1.6-9.8-1.6s9.4,17.8,17.9,9.9
	C45.4,34.2,51.6,14,51.6,14S48.7,14.9,42.3,17.4z"/>
<polygon class="st1" points="17.7,48 7.4,49 5.4,38.3 7.4,31.8 17.7,32.6 "/>
<path d="M14.6,44.2c-0.4,0-0.9-0.2-1.3-0.4c0.4-0.5,0.8-1.1,1.1-1.7c0.1-0.3,0-0.6-0.3-0.7c-0.3-0.1-0.6,0-0.7,0.3l0,0
	c-0.3,0.5-0.6,1-1,1.5c-0.6-0.5-1.1-1-1.6-1.6c-0.2-0.2-0.5-0.3-0.7-0.1c-0.2,0.2-0.3,0.5-0.1,0.7c0,0,0,0,0,0
	c0.5,0.6,1.1,1.2,1.7,1.8c-0.3,0.3-0.6,0.6-1,1c-0.2,0.2-0.2,0.5,0,0.7c0.1,0.1,0.2,0.2,0.4,0.2c0.1,0,0.3-0.1,0.4-0.1
	c0.4-0.4,0.8-0.8,1.1-1.2c0.6,0.4,1.3,0.6,1.9,0.6c0.3,0.1,0.5-0.1,0.6-0.4c0.1-0.3-0.1-0.5-0.4-0.6C14.7,44.3,14.6,44.3,14.6,44.2
	L14.6,44.2z"/>
<path d="M34.5,34.5c0,0,0.9-4.6-0.6-8c-2.6-2.9-6.1-4.9-9.9-5.8c0,0,5.7-0.4,11.2,5.5c0,0,2-4.1,10.1-7c0,0-9.3,5-9.5,9
	c-0.1,2.1,0,4.1,0.5,6.2L34.5,34.5z"/>
<path d="M66.1,69.1h-1.4v-0.5h3.4v0.5h-1.4v4h-0.6L66.1,69.1z"/>
<path d="M72.5,71.2c0-0.6-0.1-1.4-0.1-2l0,0c-0.2,0.5-0.3,1.1-0.6,1.7L71,73.1h-0.4L69.8,71c-0.2-0.6-0.4-1.2-0.5-1.8l0,0
	c0,0.6,0,1.3-0.1,2l-0.1,2h-0.6l0.3-4.6h0.8l0.8,2.2c0.2,0.6,0.3,1.1,0.5,1.5l0,0c0.1-0.5,0.3-1,0.5-1.5l0.8-2.2h0.8l0.3,4.6h-0.6
	L72.5,71.2z"/>
<path class="st2" d="M61.6,48c-2.8-1.5-5.9,2.7-11.1,2.7s-9.4-2.1-14.1-3.7c-2.8-1-3.9-2.1-4.4-2.9c-0.1-0.2-0.1-0.5,0.1-0.6
	c0.1,0,0.2-0.1,0.3-0.1L44,44.3c0.2,0,0.4-0.1,0.6-0.2c0.5-0.3,1.6-1,1.5-1.8s0.2-1.1-2.8-2.6S30,37,29.8,36.9l0,0l-12.1-0.8v10.3
	c4.6,1.1,5.6,4.6,11,6.8c6.1,2.4,14.4,3.7,18.4,3.1c4.2-0.4,8.3-2.1,11.6-4.7C62.7,48.5,62.9,48.7,61.6,48z"/>
<path class="st3" d="M29.8,36.9c0.2,0.1,10.5,1.2,13.5,2.8c3,1.5,2.8,1.8,2.8,2.6c0,0.8-1,1.5-1.5,1.8c-0.2,0.1-0.4,0.1-0.6,0.1
	l-11.6-0.8c-0.1,0-0.2,0-0.3,0.1c-0.2,0.1-0.3,0.4-0.1,0.6c0.4,0.7,1.5,1.9,4.4,2.9c0.5,0.2,0.9,0.3,1.4,0.5c3.5,0.1,6.9,0,10.3-0.4
	c0.8-0.1,1.5-0.2,2.3-0.4c-3.6-16.2-17-12.7-23.4-10L29.8,36.9z"/>
<path class="st1" d="M37.8,47.4c4.1,1.5,8,3.2,12.7,3.2c3.3,0,5.7-1.6,7.8-2.5c0.1-0.2,0.5-1.8-0.4-2.8c-0.5-0.5-5.1,1-9.7,1.7
	C44.7,47.5,41.2,47.6,37.8,47.4z"/>
</svg>
