<svg xmlns="http://www.w3.org/2000/svg" viewBox="0 0 73.16 73.16"><defs><style>.cls-1,.cls-2{fill:#fff;}.cls-1{opacity:0.5;}</style></defs><g id="Layer_2" data-name="Layer 2"><g id="one"><g id="connxsmart-one"><ellipse class="cls-1" cx="36.2" cy="35.96" rx="36.2" ry="35.96"/><path class="cls-1" d="M56,37.74A10.66,10.66,0,0,0,42.74,31h0l-7,2.36-7,2.55a5.47,5.47,0,0,1-3.46-10.18l20.35-7.29-1.74-5.13L23.56,20.83h0a10.56,10.56,0,0,0-6.46,13.33,10.68,10.68,0,0,0,13.28,6.71h0l7-2.37,7-2.54a5.46,5.46,0,0,1,3.46,10.17L27.53,53.44l1.75,5.13,20.28-7.48v0A10.56,10.56,0,0,0,56,37.74Z"/><ellipse class="cls-2" cx="62.52" cy="35.92" rx="3.12" ry="3.1"/><ellipse class="cls-2" cx="10.85" cy="36.96" rx="3.12" ry="3.1"/><polygon class="cls-2" points="27.53 53.44 29.28 58.57 33.87 56.88 32.12 51.8 27.53 53.44"/><polygon class="cls-2" points="45.59 18.47 43.84 13.34 39.05 15.11 40.9 20.15 45.59 18.47"/><path class="cls-2" d="M69.53,65.88a3.63,3.63,0,0,1,2.56,6.21,3.47,3.47,0,0,1-2.56,1.07,3.64,3.64,0,0,1-3.66-3.64A3.5,3.5,0,0,1,66.94,67,3.56,3.56,0,0,1,69.53,65.88Zm0,.38a3,3,0,0,0-2.26.95,3.31,3.31,0,0,0,0,4.62,3.14,3.14,0,0,0,4.52,0,3.33,3.33,0,0,0,0-4.62A3,3,0,0,0,69.52,66.26Zm-1.63,5.26V67.45h2c.83,0,1.24.4,1.24,1.19,0,.58-.18.93-.56,1.06a.73.73,0,0,1,.51.78v1h-.54v-.94c0-.43-.2-.65-.6-.65H68.42v1.59Zm.53-2.07h1.32c.58,0,.87-.23.87-.7a1.1,1.1,0,0,0-.13-.67.79.79,0,0,0-.58-.15H68.42Z"/></g></g></g></svg>