<svg id="Layer_1" data-name="Layer 1" xmlns="http://www.w3.org/2000/svg" xmlns:xlink="http://www.w3.org/1999/xlink" viewBox="0 0 252 144"><defs><style>.cls-1{fill:url(#linear-gradient);}.cls-2{fill:none;}.cls-3{clip-path:url(#clip-path);}.cls-4{fill:#e24650;}.cls-5{mask:url(#mask);}.cls-6{clip-path:url(#clip-path-4);}.cls-7{fill:#f36e24;}.cls-8{fill:#fff;}.cls-9{opacity:0.05;}</style><linearGradient id="linear-gradient" x1="542.11" y1="144.28" x2="543.11" y2="144.28" gradientTransform="matrix(288, 0, 0, -288, -156146, 41626)" gradientUnits="userSpaceOnUse"><stop offset="0" stop-color="#fff"/><stop offset="0.24" stop-color="#fff"/><stop offset="0.57" stop-color="#5e5e5e"/><stop offset="0.74"/><stop offset="0.96"/><stop offset="1"/></linearGradient><clipPath id="clip-path"><rect class="cls-2" width="252" height="144"/></clipPath><mask id="mask" x="-18" y="-16" width="288" height="170" maskUnits="userSpaceOnUse"><rect class="cls-1" width="252" height="144"/></mask><clipPath id="clip-path-4"><rect class="cls-2" x="-18" y="-16" width="288" height="170"/></clipPath></defs><g class="cls-3"><g class="cls-3"><rect class="cls-4" width="252" height="144"/><g class="cls-3"><g class="cls-5"><g class="cls-6"><rect class="cls-7" x="-9" y="-9" width="270" height="162"/></g></g><path class="cls-8" d="M92.31,78.73A1.24,1.24,0,1,0,91.08,80a1.23,1.23,0,0,0,1.23-1.24m-4.17-1.67H86.05a2.27,2.27,0,0,1-2.21,1.31,2.58,2.58,0,0,1-2.67-2.48h7.16a6.08,6.08,0,0,0,.07-1,4.37,4.37,0,0,0-4.56-4.61,4.49,4.49,0,0,0-4.68,4.83A4.54,4.54,0,0,0,83.84,80a4.29,4.29,0,0,0,4.3-2.94M83.75,72a2.43,2.43,0,0,1,2.62,2.36H81.19A2.55,2.55,0,0,1,83.75,72m-6,5.27c-.1-3.38-5.39-2.33-5.39-4.21,0-.63.54-1.06,1.58-1.06a1.55,1.55,0,0,1,1.75,1.38H77.6c-.1-1.87-1.5-3-3.62-3s-3.6,1.21-3.6,2.7c0,3.44,5.44,2.38,5.44,4.22,0,.64-.6,1.12-1.72,1.12A1.71,1.71,0,0,1,72.23,77h-2c.09,1.7,1.67,3,3.91,3s3.59-1.19,3.59-2.77M61.23,75.16C61.23,73,62.54,72,64,72a2.83,2.83,0,0,1,2.82,3.15A2.89,2.89,0,0,1,64,78.32c-1.46,0-2.72-1-2.72-3.16m7.58,0a4.78,4.78,0,1,0-9.55,0A4.56,4.56,0,0,0,64,80a4.68,4.68,0,0,0,4.86-4.84M56,75.12a3,3,0,0,1-2.85,3.2,3.17,3.17,0,0,1,0-6.31A2.87,2.87,0,0,1,56,75.12M50.3,71.86V70.48H48.36V84.3H50.3V78.49A4.24,4.24,0,0,0,53.56,80C56,80,58,78,58,75.12a4.44,4.44,0,0,0-4.41-4.79,4.08,4.08,0,0,0-3.26,1.53m-6.53,3.06c0-2,.89-2.58,2.31-2.58h.5v-2a3.07,3.07,0,0,0-2.81,1.51V70.48H41.83v9.37h1.94Zm-4.49-4.44H37.35V75.7c0,1.72-.94,2.6-2.37,2.6s-2.34-.88-2.34-2.6V70.48H30.72V76a3.66,3.66,0,0,0,3.85,4,3.51,3.51,0,0,0,2.78-1.26v1.12h1.93ZM26.91,75.12a3,3,0,0,1-2.86,3.2,3.17,3.17,0,0,1,0-6.31,2.88,2.88,0,0,1,2.86,3.11m-5.7-3.26V70.48H19.27V84.3h1.94V78.49A4.24,4.24,0,0,0,24.48,80c2.46,0,4.4-2,4.4-4.88s-1.94-4.79-4.4-4.79a4.11,4.11,0,0,0-3.27,1.53"/><path class="cls-8" d="M104.29,57.85h1.94V52.61c0-1.71.93-2.6,2.36-2.6s2.35.89,2.35,2.6v5.24h1.92V52.32c0-2.61-1.63-4-3.72-4a3.73,3.73,0,0,0-2.91,1.24v-4.3h-1.94Zm-6-2.6c0,1.9,1,2.6,2.71,2.6h1.53V56.23h-1.19c-.82,0-1.09-.28-1.09-1V50.06h2.28V48.48h-2.28V46.15h-2v2.33h-1.1v1.58h1.1Zm-3.81-8A1.24,1.24,0,1,0,93.22,46a1.23,1.23,0,0,0,1.24,1.24m-1,10.61h1.94V48.48H93.48Zm-12.21,0h2l1.89-6.92,1.89,6.92h2L92,48.48h-1.9L88.19,56l-1.9-7.5h-2l-2,7.53-2-7.53h-2ZM70.44,52.92c0-2,.89-2.58,2.32-2.58h.49v-2a3.07,3.07,0,0,0-2.81,1.51V48.48H68.51v9.37h1.93Zm-4.09,2.14H64.26a2.27,2.27,0,0,1-2.21,1.31,2.57,2.57,0,0,1-2.67-2.48h7.15a6.08,6.08,0,0,0,.07-1,4.37,4.37,0,0,0-4.55-4.61,4.49,4.49,0,0,0-4.68,4.83A4.54,4.54,0,0,0,62.05,58a4.29,4.29,0,0,0,4.3-2.94M62,50a2.44,2.44,0,0,1,2.62,2.36H59.39A2.56,2.56,0,0,1,62,50m-6.1,5.1H53.77a2.27,2.27,0,0,1-2.21,1.31,2.57,2.57,0,0,1-2.67-2.48h7.16a6.06,6.06,0,0,0,.06-1,4.36,4.36,0,0,0-4.55-4.61,4.49,4.49,0,0,0-4.68,4.83A4.54,4.54,0,0,0,51.56,58a4.29,4.29,0,0,0,4.3-2.94M51.47,50a2.43,2.43,0,0,1,2.62,2.36H48.91A2.55,2.55,0,0,1,51.47,50m-8.53,3c0-2,.88-2.58,2.31-2.58h.49v-2a3.05,3.05,0,0,0-2.8,1.51V48.48H41v9.37h1.94Zm-6.44.24a2.91,2.91,0,0,1-2.84,3.16,3,3,0,0,1-2.84-3.2A2.87,2.87,0,0,1,33.66,50a2.91,2.91,0,0,1,2.84,3.15m-7.67,0c0,2.89,2,4.88,4.39,4.88a4.06,4.06,0,0,0,3.28-1.54v1.39h2V48.48h-2v1.36a4,4,0,0,0-3.25-1.51,4.45,4.45,0,0,0-4.42,4.79m-10.2,0A4.47,4.47,0,0,0,23.22,58a4.21,4.21,0,0,0,4.32-3.11H25.45a2.15,2.15,0,0,1-2.23,1.48c-1.57,0-2.6-1.16-2.6-3.21s1-3.2,2.6-3.2a2.21,2.21,0,0,1,2.23,1.48h2.09a4.08,4.08,0,0,0-4.32-3.11,4.47,4.47,0,0,0-4.59,4.83"/><path class="cls-8" d="M140.13,35.85h1.93V30.61a2.28,2.28,0,0,1,2.37-2.6c1.41,0,2.34.89,2.34,2.6v5.24h1.92V30.32c0-2.61-1.63-4-3.72-4a3.73,3.73,0,0,0-2.91,1.24v-4.3h-1.93Zm-10.85-4.69A4.47,4.47,0,0,0,133.87,36a4.21,4.21,0,0,0,4.32-3.11H136.1a2.14,2.14,0,0,1-2.23,1.48c-1.56,0-2.6-1.16-2.6-3.21s1-3.2,2.6-3.2a2.2,2.2,0,0,1,2.23,1.48h2.09a4.08,4.08,0,0,0-4.32-3.11,4.47,4.47,0,0,0-4.59,4.83m-1.51,1.9h-2.09a2.27,2.27,0,0,1-2.21,1.31,2.57,2.57,0,0,1-2.67-2.48H128a6.08,6.08,0,0,0,.07-.95,4.37,4.37,0,0,0-4.55-4.61,4.49,4.49,0,0,0-4.68,4.83A4.54,4.54,0,0,0,123.47,36a4.29,4.29,0,0,0,4.3-2.94M123.38,28A2.44,2.44,0,0,1,126,30.32h-5.19A2.56,2.56,0,0,1,123.38,28m-10,5.29c0,1.9,1,2.6,2.7,2.6h1.53V34.23h-1.19c-.81,0-1.09-.28-1.09-1V28.06h2.28V26.48h-2.28V24.15h-2v2.33h-1.11v1.58h1.11Zm-9.23-2.09a2.91,2.91,0,0,1-2.84,3.16,3,3,0,0,1-2.84-3.2A2.87,2.87,0,0,1,101.35,28a2.91,2.91,0,0,1,2.84,3.15m-7.67,0c0,2.89,2,4.88,4.39,4.88a4.06,4.06,0,0,0,3.28-1.54v1.39h2V26.48h-2v1.36a4,4,0,0,0-3.25-1.51,4.46,4.46,0,0,0-4.42,4.79m-8.36-.2c0-2,.88-2.58,2.31-2.58H91v-2a3.05,3.05,0,0,0-2.8,1.51V26.48H86.22v9.37h1.94Zm-4.1,2.14H82a2.27,2.27,0,0,1-2.21,1.31,2.58,2.58,0,0,1-2.67-2.48h7.16a6.08,6.08,0,0,0,.07-.95,4.37,4.37,0,0,0-4.56-4.61,4.49,4.49,0,0,0-4.68,4.83A4.54,4.54,0,0,0,79.76,36a4.28,4.28,0,0,0,4.3-2.94M79.67,28a2.43,2.43,0,0,1,2.62,2.36H77.11A2.55,2.55,0,0,1,79.67,28M64.83,26.48l3.56,9.37H70.7l3.57-9.37H72.21l-2.65,7.64-2.65-7.64Zm-8.39,4.68C56.44,29,57.75,28,59.21,28A2.84,2.84,0,0,1,62,31.16a2.89,2.89,0,0,1-2.87,3.16c-1.47,0-2.72-1-2.72-3.16m7.58,0a4.78,4.78,0,1,0-9.55,0A4.56,4.56,0,0,0,59.16,36,4.69,4.69,0,0,0,64,31.16m-19.77,0A4.47,4.47,0,0,0,48.84,36a4.21,4.21,0,0,0,4.32-3.11h-2.1a2.13,2.13,0,0,1-2.22,1.48c-1.57,0-2.6-1.16-2.6-3.21s1-3.2,2.6-3.2a2.18,2.18,0,0,1,2.22,1.48h2.1a4.08,4.08,0,0,0-4.32-3.11,4.47,4.47,0,0,0-4.59,4.83M42.8,33.23c-.1-3.38-5.39-2.33-5.39-4.21C37.41,28.39,38,28,39,28a1.56,1.56,0,0,1,1.76,1.38h1.93c-.1-1.87-1.49-3-3.62-3s-3.6,1.21-3.6,2.7c0,3.44,5.44,2.38,5.44,4.22,0,.64-.6,1.12-1.72,1.12A1.71,1.71,0,0,1,37.31,33h-2c.08,1.7,1.66,3,3.91,3s3.58-1.19,3.58-2.77m-10.49-8A1.24,1.24,0,1,0,31.07,24a1.23,1.23,0,0,0,1.24,1.24m-1,10.61h1.94V26.48H31.33ZM21.21,34.27V25.62h1.92c2.79,0,4.29,1.66,4.29,4.36s-1.5,4.29-4.29,4.29ZM23.13,24H19.27V35.85h3.86c3.79,0,6.28-2.23,6.28-5.87S26.92,24,23.13,24"/><g class="cls-9"><g class="cls-6"><path class="cls-8" d="M2.49,153,18,72H6.51L-9,153ZM261,153V-9H218.88L206,72h-11.3L208.08-9H196.59L183.2,72H29.52L14,153Z"/></g></g></g><rect class="cls-8" x="164.42" y="85.69" width="2.56" height="11.32"/><g class="cls-3"><path class="cls-8" d="M168.52,85.69h2.24q0,1,.12,1.56T171,88.6a5.68,5.68,0,0,1,1.73-2.32,4.36,4.36,0,0,1,2.8-.88,3.85,3.85,0,0,1,2.75.95,3.32,3.32,0,0,1,1.08,2.46V97h-2.53V90a2.27,2.27,0,0,0-.59-1.43,2.25,2.25,0,0,0-1.65-.65,3.49,3.49,0,0,0-1.42.28,3.41,3.41,0,0,0-1.12.76,3.35,3.35,0,0,0-.72,1.14,4,4,0,0,0-.25,1.44V97h-2.56Z"/><path class="cls-8" d="M182.69,91.31a3.73,3.73,0,0,0,.25,1.39,3.28,3.28,0,0,0,.72,1.1,3.43,3.43,0,0,0,1.11.74,3.73,3.73,0,0,0,1.41.26,3.86,3.86,0,0,0,1.42-.26,3.24,3.24,0,0,0,1.12-.75,3.37,3.37,0,0,0,.72-1.12,3.62,3.62,0,0,0,.26-1.36,3.52,3.52,0,0,0-.26-1.34,3.1,3.1,0,0,0-.72-1.08,3.48,3.48,0,0,0-1.12-.72,3.67,3.67,0,0,0-1.42-.27,3.73,3.73,0,0,0-1.41.26A3.22,3.22,0,0,0,182.94,90a3.51,3.51,0,0,0-.25,1.34m-2.56.11a6,6,0,0,1,.46-2.38,6,6,0,0,1,1.23-1.92,5.72,5.72,0,0,1,1.84-1.27,5.65,5.65,0,0,1,2.25-.45,4.85,4.85,0,0,1,1.6.24,6,6,0,0,1,1.16.53,3.93,3.93,0,0,1,.72.56c.17.18.27.29.31.32a3.73,3.73,0,0,1,.05-.64,5.55,5.55,0,0,0,.05-.72h2.45V96.43A6.93,6.93,0,0,1,191.8,99a5.13,5.13,0,0,1-1.27,1.89,5.64,5.64,0,0,1-1.94,1.16,7.56,7.56,0,0,1-2.49.4,6.62,6.62,0,0,1-1.82-.22,6.28,6.28,0,0,1-1.42-.56,7.11,7.11,0,0,1-1.14-.77c-.35-.28-.68-.57-1-.85l1.65-1.73A9,9,0,0,0,184,99.5a4.66,4.66,0,0,0,4.71-.3,2.76,2.76,0,0,0,1-2.27v-.3a2.19,2.19,0,0,1,0-.36,1.45,1.45,0,0,1,.05-.43,1.39,1.39,0,0,0,.05-.32c-.16.18-.35.37-.57.59a3.83,3.83,0,0,1-.8.58,4.43,4.43,0,0,1-1.08.44,5,5,0,0,1-1.41.18,6,6,0,0,1-2.34-.46,5.57,5.57,0,0,1-3-3.11,6.3,6.3,0,0,1-.43-2.32"/><path class="cls-8" d="M195.66,91.31a3.94,3.94,0,0,0,.25,1.39,3.28,3.28,0,0,0,.72,1.1,3.43,3.43,0,0,0,1.11.74,4,4,0,0,0,2.82,0,3.3,3.3,0,0,0,1.11-.75,3.37,3.37,0,0,0,.72-1.12,3.65,3.65,0,0,0,.25-1.36,3.51,3.51,0,0,0-.25-1.34,3.1,3.1,0,0,0-.72-1.08,3.59,3.59,0,0,0-2.52-1,3.77,3.77,0,0,0-1.41.26A3.22,3.22,0,0,0,195.91,90a3.71,3.71,0,0,0-.25,1.34m-2.58.16a5.82,5.82,0,0,1,.48-2.33,6.4,6.4,0,0,1,1.29-1.93,6.3,6.3,0,0,1,1.89-1.32A5.4,5.4,0,0,1,199,85.4a5,5,0,0,1,1.44.2,5.35,5.35,0,0,1,1.1.47,3,3,0,0,1,.73.54,2,2,0,0,1,.35.44l.11-1.36h2.47V97h-2.58v-.74a2.17,2.17,0,0,1,0-.26c0-.08,0-.13,0-.17s-.2.22-.38.39a2.9,2.9,0,0,1-.72.49,5.09,5.09,0,0,1-1.07.41,5.35,5.35,0,0,1-1.46.18,5.83,5.83,0,0,1-2.39-.48,6.12,6.12,0,0,1-1.89-1.28,5.72,5.72,0,0,1-1.68-4.08"/><path class="cls-8" d="M208.63,91.31a3.74,3.74,0,0,0,.26,1.39,3.11,3.11,0,0,0,.71,1.1,3.54,3.54,0,0,0,1.11.74,3.8,3.8,0,0,0,1.41.26,3.91,3.91,0,0,0,1.43-.26,3.44,3.44,0,0,0,1.12-.75,3.19,3.19,0,0,0,.71-1.12,3.62,3.62,0,0,0,.26-1.36,3.52,3.52,0,0,0-.26-1.34,3,3,0,0,0-.71-1.08,3.64,3.64,0,0,0-2.55-1,3.8,3.8,0,0,0-1.41.26,3.32,3.32,0,0,0-1.11.72,3.07,3.07,0,0,0-.71,1.09,3.52,3.52,0,0,0-.26,1.34m-2.55.11a6.23,6.23,0,0,1,.45-2.38,5.83,5.83,0,0,1,1.24-1.92,5.57,5.57,0,0,1,1.83-1.27,5.73,5.73,0,0,1,2.26-.45,4.83,4.83,0,0,1,1.59.24,5.76,5.76,0,0,1,1.16.53,3.93,3.93,0,0,1,.72.56c.17.18.27.29.31.32a5.12,5.12,0,0,1,.05-.64,4.21,4.21,0,0,0,.05-.72h2.45V96.43a6.93,6.93,0,0,1-.45,2.57,5.23,5.23,0,0,1-1.26,1.89,5.68,5.68,0,0,1-1.95,1.16,7.56,7.56,0,0,1-2.49.4,6.62,6.62,0,0,1-1.82-.22,6,6,0,0,1-1.41-.56,7.21,7.21,0,0,1-1.15-.77l-1-.85,1.65-1.73a9,9,0,0,0,1.6,1.18,4.68,4.68,0,0,0,4.72-.3,2.78,2.78,0,0,0,1-2.27v-.3a2.19,2.19,0,0,1,0-.36,1.88,1.88,0,0,1,.05-.43,1,1,0,0,0,.05-.32c-.16.18-.35.37-.57.59a3.83,3.83,0,0,1-.8.58,4.43,4.43,0,0,1-1.08.44,5,5,0,0,1-1.41.18,6,6,0,0,1-2.34-.46,5.61,5.61,0,0,1-1.84-1.25,5.83,5.83,0,0,1-1.2-1.86,6.29,6.29,0,0,1-.42-2.32"/><path class="cls-8" d="M164.11,83a1.49,1.49,0,0,1,.51-1.15,1.62,1.62,0,0,1,1.09-.45,1.58,1.58,0,0,1,1.08.45,1.51,1.51,0,0,1,.49,1.15,1.48,1.48,0,0,1-.49,1.16,1.61,1.61,0,0,1-1.08.44,1.65,1.65,0,0,1-1.09-.44,1.47,1.47,0,0,1-.51-1.16"/><path class="cls-8" d="M221.58,91.23a3.17,3.17,0,0,1,.26-1.24,3.82,3.82,0,0,1,.72-1.06,3.53,3.53,0,0,1,1.09-.75A3.48,3.48,0,0,1,225,87.9a3.18,3.18,0,0,1,1.25.28,2,2,0,0,1,1,.87l-1.25.49-1.45.6-1.52.63-1.42.57Zm4.83,3.32a4.1,4.1,0,0,1-1.4.25,3.4,3.4,0,0,1-1.81-.5,3.44,3.44,0,0,1-.89-.81l8.16-3.44A5.57,5.57,0,0,0,225,85.43a5.92,5.92,0,0,0-1.34.16h0a5.4,5.4,0,0,0-.94.3,6,6,0,0,0-1.89,1.28,6.22,6.22,0,0,0-1.29,1.89,5.6,5.6,0,0,0-.44,1.65c0,.2,0,.4,0,.6v.06a5.61,5.61,0,0,0,.48,2.3,6.22,6.22,0,0,0,1.29,1.89,5.93,5.93,0,0,0,1.92,1.28,6,6,0,0,0,2.36.47,7.05,7.05,0,0,0,2.39-.43,5.9,5.9,0,0,0,2-1.17l-1.89-1.84a3.36,3.36,0,0,1-1.16.68"/><path class="cls-8" d="M234,99.64l-4.29-2.85a.11.11,0,0,0-.17.09V98a.2.2,0,0,1-.2.2h-1.46a.17.17,0,0,0-.17.16v2.79a.17.17,0,0,0,.17.16h1.46a.2.2,0,0,1,.2.2v1.09a.11.11,0,0,0,.17.09L234,99.81a.1.1,0,0,0,0-.17m-8.22,1.24v-.65a.4.4,0,0,0-.4-.4h-.66a.39.39,0,0,0-.39.4v.65a.39.39,0,0,0,.39.4h.66a.4.4,0,0,0,.4-.4m1.66,0v-.65a.4.4,0,0,0-.4-.4h-.66a.39.39,0,0,0-.39.4v.65a.39.39,0,0,0,.39.4H227a.4.4,0,0,0,.4-.4m-3.33-1.66v-.65a.39.39,0,0,0-.39-.4H223a.4.4,0,0,0-.4.4v.65a.4.4,0,0,0,.4.4h.66a.39.39,0,0,0,.39-.4m1.67,0v-.65a.4.4,0,0,0-.4-.4h-.66a.39.39,0,0,0-.39.4v.65a.39.39,0,0,0,.39.4h.66a.4.4,0,0,0,.4-.4m1.26.4h-.66a.39.39,0,0,1-.39-.4v-.65a.39.39,0,0,1,.39-.4H227a.4.4,0,0,1,.4.4v.65a.4.4,0,0,1-.4.4"/></g></g></g></svg>