<svg id="Layer_1" data-name="Layer 1" xmlns="http://www.w3.org/2000/svg" xmlns:xlink="http://www.w3.org/1999/xlink" viewBox="0 0 252 144"><defs><style>.cls-1{fill:none;}.cls-2{clip-path:url(#clip-path);}.cls-3{fill:#216eb3;}.cls-4{fill:#ee6924;}.cls-5{fill:#066db6;}.cls-6{fill:#fff;}.cls-7{opacity:0.8;}.cls-8{clip-path:url(#clip-path-4);}.cls-9{fill:#3d3634;}.cls-10{clip-path:url(#clip-path-5);}</style><clipPath id="clip-path"><rect class="cls-1" width="252" height="144"/></clipPath><clipPath id="clip-path-4"><rect class="cls-1" x="9.07" y="112.7" width="140.02" height="15.81"/></clipPath><clipPath id="clip-path-5"><rect class="cls-1" x="9.56" y="101.88" width="67.06" height="13.62"/></clipPath></defs><g class="cls-2"><g class="cls-2"><polygon class="cls-3" points="137.78 0 161.46 144 252 144 252 0 137.78 0"/><rect class="cls-4" x="18.49" y="23.07" width="3.06" height="13.24"/><g class="cls-2"><path class="cls-4" d="M23.4,23.07h2.68c0,.75.09,1.35.14,1.82s.1,1,.14,1.57a6.8,6.8,0,0,1,2.07-2.71,5.39,5.39,0,0,1,3.35-1,4.74,4.74,0,0,1,3.3,1.11,3.89,3.89,0,0,1,1.29,2.88v9.6h-3v-8.2a2.6,2.6,0,0,0-.7-1.66,2.73,2.73,0,0,0-2-.77A4.34,4.34,0,0,0,29,26a4.19,4.19,0,0,0-1.34.89,3.81,3.81,0,0,0-.86,1.34,4.64,4.64,0,0,0-.3,1.68v6.39H23.4Z"/><path class="cls-5" d="M40.35,29.64a4.14,4.14,0,0,0,.31,1.62,3.57,3.57,0,0,0,.86,1.29,4,4,0,0,0,1.32.86,4.39,4.39,0,0,0,1.69.31,4.51,4.51,0,0,0,1.7-.31,3.85,3.85,0,0,0,2.2-2.18,4.24,4.24,0,0,0,.3-1.59,4.1,4.1,0,0,0-.3-1.57,3.58,3.58,0,0,0-.86-1.26A4.09,4.09,0,0,0,46.23,26a4.71,4.71,0,0,0-1.7-.31,4.58,4.58,0,0,0-1.69.3,3.92,3.92,0,0,0-1.32.84,3.61,3.61,0,0,0-.86,1.28,3.93,3.93,0,0,0-.31,1.57m-3.06.12A7,7,0,0,1,37.84,27a7,7,0,0,1,1.48-2.25,6.83,6.83,0,0,1,4.89-2,5.85,5.85,0,0,1,1.91.29,6.71,6.71,0,0,1,1.39.62,4.45,4.45,0,0,1,.86.65l.36.38a4.11,4.11,0,0,1,.07-.75,5.73,5.73,0,0,0,.06-.84h2.93V35.62a8,8,0,0,1-.54,3,6,6,0,0,1-1.51,2.21,6.64,6.64,0,0,1-2.33,1.35,9.09,9.09,0,0,1-3,.47,8.38,8.38,0,0,1-2.18-.25,7.82,7.82,0,0,1-1.69-.65,8.36,8.36,0,0,1-1.37-.91l-1.2-1,2-2a10.71,10.71,0,0,0,1.91,1.39,5,5,0,0,0,2.49.57,4.94,4.94,0,0,0,3.15-.93,3.18,3.18,0,0,0,1.18-2.65v-.36a3.19,3.19,0,0,1,0-.42,1.49,1.49,0,0,1,.07-.49,1.48,1.48,0,0,0,.06-.38c-.19.21-.42.44-.68.69a5.11,5.11,0,0,1-1,.68,5.88,5.88,0,0,1-1.29.52,6.58,6.58,0,0,1-1.69.2,7.27,7.27,0,0,1-2.8-.53,6.57,6.57,0,0,1-3.64-3.65,7.07,7.07,0,0,1-.51-2.71"/><path class="cls-5" d="M55.87,29.64a4.32,4.32,0,0,0,.3,1.62A3.84,3.84,0,0,0,57,32.55a4.12,4.12,0,0,0,1.33.86,4.76,4.76,0,0,0,3.38,0,4.1,4.1,0,0,0,1.32-.87,4,4,0,0,0,.86-1.31,4.24,4.24,0,0,0,.3-1.59,4.07,4.07,0,0,0-.3-1.57,3.71,3.71,0,0,0-.86-1.27A4.38,4.38,0,0,0,61.74,26a4.83,4.83,0,0,0-3.38,0,4.07,4.07,0,0,0-1.33.84,3.9,3.9,0,0,0-.86,1.28,4.07,4.07,0,0,0-.3,1.57m-3.09.19a6.68,6.68,0,0,1,.57-2.73,7.58,7.58,0,0,1,1.55-2.26,7.73,7.73,0,0,1,2.26-1.54,6.69,6.69,0,0,1,2.73-.58,5.77,5.77,0,0,1,1.72.24,6.82,6.82,0,0,1,1.32.54,4.09,4.09,0,0,1,.88.64,2.29,2.29,0,0,1,.41.52l.13-1.59h3V36.31H64.22v-.88a2.64,2.64,0,0,1,0-.29,1.82,1.82,0,0,0,0-.2,5.52,5.52,0,0,1-.44.45A4.13,4.13,0,0,1,63,36a7.1,7.1,0,0,1-1.29.49,6.94,6.94,0,0,1-1.74.2,7.27,7.27,0,0,1-2.87-.56,7.37,7.37,0,0,1-2.26-1.5,6.64,6.64,0,0,1-2-4.76"/><path class="cls-5" d="M71.39,29.64a4.32,4.32,0,0,0,.3,1.62,3.84,3.84,0,0,0,.86,1.29,4.12,4.12,0,0,0,1.33.86,4.39,4.39,0,0,0,1.69.31,4.51,4.51,0,0,0,1.7-.31,3.85,3.85,0,0,0,2.2-2.18,4.24,4.24,0,0,0,.3-1.59,4.1,4.1,0,0,0-.3-1.57,3.58,3.58,0,0,0-.86-1.26A4.09,4.09,0,0,0,77.27,26a4.71,4.71,0,0,0-1.7-.31,4.58,4.58,0,0,0-1.69.3,4.07,4.07,0,0,0-1.33.84,3.9,3.9,0,0,0-.86,1.28,4.1,4.1,0,0,0-.3,1.57m-3.06.12a7.08,7.08,0,0,1,2-5,6.78,6.78,0,0,1,2.19-1.48,7,7,0,0,1,2.7-.53,5.85,5.85,0,0,1,1.91.29,6.38,6.38,0,0,1,1.38.62,4.55,4.55,0,0,1,.87.65l.36.38a4.11,4.11,0,0,1,.07-.75,5.73,5.73,0,0,0,.06-.84h2.93V35.62a8,8,0,0,1-.54,3,6.12,6.12,0,0,1-1.51,2.21,6.64,6.64,0,0,1-2.33,1.35,9.13,9.13,0,0,1-3,.47,8.33,8.33,0,0,1-2.18-.25,7.82,7.82,0,0,1-1.69-.65,8.36,8.36,0,0,1-1.37-.91q-.63-.49-1.2-1l2-2a10.71,10.71,0,0,0,1.91,1.39,5,5,0,0,0,2.49.57,5,5,0,0,0,3.15-.93,3.18,3.18,0,0,0,1.18-2.65v-.36a3.19,3.19,0,0,1,0-.42,1.49,1.49,0,0,1,.07-.49,1.48,1.48,0,0,0,.06-.38q-.29.31-.69.69a4.72,4.72,0,0,1-.95.68,5.88,5.88,0,0,1-1.29.52,6.58,6.58,0,0,1-1.69.2,7.33,7.33,0,0,1-2.81-.53,6.52,6.52,0,0,1-2.19-1.46,6.62,6.62,0,0,1-1.44-2.19,7.07,7.07,0,0,1-.51-2.71"/><path class="cls-4" d="M18.13,19.87a1.71,1.71,0,0,1,.6-1.34A2,2,0,0,1,20,18a1.9,1.9,0,0,1,1.29.53,1.73,1.73,0,0,1,.59,1.34,1.71,1.71,0,0,1-.59,1.35,1.88,1.88,0,0,1-1.29.52,2,2,0,0,1-1.31-.52,1.68,1.68,0,0,1-.6-1.35"/><path class="cls-5" d="M86.88,29.55a3.36,3.36,0,0,1,.32-1.45,4.29,4.29,0,0,1,.86-1.25,4.12,4.12,0,0,1,1.3-.87A4.06,4.06,0,0,1,91,25.65a3.77,3.77,0,0,1,1.5.33,2.31,2.31,0,0,1,1.14,1l-1.49.58-1.74.7L88.58,29l-1.7.67Zm5.78,3.87a5,5,0,0,1-1.67.3,4.08,4.08,0,0,1-2.17-.59,4.41,4.41,0,0,1-1.07-.94l9.77-4a6.63,6.63,0,0,0-6.6-5.4,7,7,0,0,0-1.6.18h0a7.31,7.31,0,0,0-1.12.36,7.08,7.08,0,0,0-2.26,1.5A7.17,7.17,0,0,0,84.39,27a6.44,6.44,0,0,0-.53,1.93c0,.23,0,.46,0,.69v.07a6.47,6.47,0,0,0,.57,2.7,7.29,7.29,0,0,0,1.55,2.21,7.34,7.34,0,0,0,5.11,2,8.54,8.54,0,0,0,2.87-.5,7.26,7.26,0,0,0,2.39-1.37l-2.26-2.15a3.9,3.9,0,0,1-1.39.79"/><path class="cls-4" d="M101.69,39.38l-5.14-3.33a.13.13,0,0,0-.2.1v1.28a.23.23,0,0,1-.24.23H94.35a.19.19,0,0,0-.19.19v3.26a.2.2,0,0,0,.19.19h1.76a.23.23,0,0,1,.24.23V42.8a.13.13,0,0,0,.2.11l5.14-3.33a.12.12,0,0,0,0-.2m-9.85,1.45v-.76a.47.47,0,0,0-.47-.47h-.79a.47.47,0,0,0-.47.47v.76a.47.47,0,0,0,.47.47h.79a.47.47,0,0,0,.47-.47m2,0v-.76a.47.47,0,0,0-.48-.47h-.78a.48.48,0,0,0-.48.47v.76a.48.48,0,0,0,.48.47h.78a.47.47,0,0,0,.48-.47m-4-1.94v-.77a.47.47,0,0,0-.47-.46h-.79a.47.47,0,0,0-.47.46v.77a.46.46,0,0,0,.47.46h.79a.46.46,0,0,0,.47-.46m2,0v-.77a.47.47,0,0,0-.47-.46h-.79a.47.47,0,0,0-.47.46v.77a.46.46,0,0,0,.47.46h.79a.46.46,0,0,0,.47-.46m1.51.46h-.78a.47.47,0,0,1-.48-.46v-.77a.48.48,0,0,1,.48-.46h.78a.47.47,0,0,1,.48.46v.77a.46.46,0,0,1-.48.46"/><path class="cls-6" d="M231.67,38.07a1,1,0,0,1,1.05,1.12,1,1,0,0,1-1,1.07,1,1,0,0,1-1.13-1.12,1,1,0,0,1,1.1-1.07m1.69-1.29a1.57,1.57,0,0,0-1.69-1.41c-1.36,0-1.93,1-1.93,2.75s.41,2.86,2,2.86a1.69,1.69,0,0,0,1.79-1.83,1.63,1.63,0,0,0-1.68-1.8,1.58,1.58,0,0,0-1.38.69c0-1.43.42-1.95,1.2-1.95a.8.8,0,0,1,.9.69Zm-8.12,4.12h3.64v-.71h-2.37c.87-.8,2.22-1.82,2.22-3.14A1.57,1.57,0,0,0,227,35.4a1.66,1.66,0,0,0-1.76,1.76h.83c0-.62.34-1,.94-1s.89.39.89,1c0,1.08-1.36,2.07-2.65,3.2Zm-4.33,0h3.65v-.71h-2.38c.88-.8,2.23-1.82,2.23-3.14a1.57,1.57,0,0,0-1.74-1.65,1.66,1.66,0,0,0-1.77,1.76h.83c0-.62.34-1,.94-1s.89.39.89,1c0,1.08-1.36,2.07-2.65,3.2Zm-4.5-5.41v3.16h.81a1,1,0,0,1,1-.68,1,1,0,0,1,1.07,1.12,1.1,1.1,0,0,1-2.15.41h-.83A1.75,1.75,0,0,0,218.2,41a1.77,1.77,0,0,0,1.89-1.92,1.67,1.67,0,0,0-1.76-1.82,1.42,1.42,0,0,0-1.13.5v-1.5h2.51v-.75Zm-4.2,3.6L214,36.45v2.64ZM213.94,41h.84V39.84h.7v-.75h-.7V35.57h-1l-2.52,3.62v.65h2.71Zm-6.42,0h.85V35.76h-.85V38h-2.45V35.76h-.86V41h.86V38.7h2.45Zm-8.6-2.62a1.79,1.79,0,1,1,1.79,1.93,1.75,1.75,0,0,1-1.79-1.93m4.45,0A2.66,2.66,0,1,0,200.71,41a2.6,2.6,0,0,0,2.66-2.67M194.17,42h.55l.91-2.07h-.93Zm-1-5.73a.53.53,0,0,0,.54-.54.55.55,0,1,0-1.09,0,.53.53,0,0,0,.55.54M192.71,41h.86V36.84h-.86Zm-2.65-1.15c0,.84.46,1.15,1.19,1.15h.68v-.72h-.53c-.36,0-.48-.12-.48-.43V37.54h1v-.7h-1v-1h-.86v1h-.49v.7h.49Zm-2.12-.92a1.28,1.28,0,0,1-1.26,1.39,1.31,1.31,0,0,1-1.25-1.41,1.27,1.27,0,0,1,1.25-1.37,1.28,1.28,0,0,1,1.26,1.39m-3.39,0A2,2,0,0,0,186.49,41a1.8,1.8,0,0,0,1.45-.68V41h.86V36.84h-.86v.6a1.77,1.77,0,0,0-1.44-.66,2,2,0,0,0-1.95,2.11M182.9,41h.85V38.54a1.6,1.6,0,0,0-1.69-1.76,1.56,1.56,0,0,0-1.23.54v-.48H180V41h.86V38.67c0-.76.41-1.15,1-1.15s1,.39,1,1.15ZM178,41h.84V38.54a1.6,1.6,0,0,0-1.69-1.76,1.58,1.58,0,0,0-1.23.54v-.48h-.86V41H176V38.67c0-.76.41-1.15,1-1.15a1,1,0,0,1,1,1.15Zm-4.48-4.69a.53.53,0,0,0,.54-.54.55.55,0,1,0-1.09,0,.53.53,0,0,0,.55.54M173.12,41H174V36.84h-.86Zm-4.78-2.07a2,2,0,0,0,2,2.13,1.85,1.85,0,0,0,1.91-1.37h-.92a1,1,0,0,1-1,.65c-.69,0-1.14-.51-1.14-1.41s.45-1.41,1.14-1.41a1,1,0,0,1,1,.65h.92a1.79,1.79,0,0,0-1.91-1.37,2,2,0,0,0-2,2.13M166.69,41h.85V38.54a1.69,1.69,0,0,0-2.93-1.22v-.48h-.85V41h.85V38.67c0-.76.41-1.15,1-1.15s1,.39,1,1.15Zm-4.48-4.69a.53.53,0,0,0,.54-.54.55.55,0,1,0-1.09,0,.53.53,0,0,0,.55.54M161.78,41h.85V36.84h-.85Zm-6.09-2.62A2.61,2.61,0,0,0,158.36,41a2.48,2.48,0,0,0,2.42-1.56h-1a1.45,1.45,0,0,1-1.39.82,1.92,1.92,0,0,1,0-3.83,1.46,1.46,0,0,1,1.39.81h1a2.48,2.48,0,0,0-2.42-1.56,2.61,2.61,0,0,0-2.67,2.66"/><path class="cls-6" d="M233.64,29.48a.55.55,0,1,0-.54.55.54.54,0,0,0,.54-.55m-2.91-1.68c0-.88.39-1.14,1-1.14H232v-.89a1.35,1.35,0,0,0-1.24.67v-.6h-.85V30h.85Zm-5.32,1.48V25.46h.85a1.74,1.74,0,0,1,1.89,1.93,1.72,1.72,0,0,1-1.89,1.89Zm.85-4.52h-1.7V30h1.7A2.5,2.5,0,0,0,229,27.39a2.53,2.53,0,0,0-2.77-2.63m-4.6,4h-.93a1,1,0,0,1-1,.58,1.14,1.14,0,0,1-1.18-1.09h3.16a3.07,3.07,0,0,0,0-.42,1.93,1.93,0,0,0-2-2,2,2,0,0,0-2.06,2.13A2,2,0,0,0,219.76,30a1.9,1.9,0,0,0,1.9-1.3m-1.94-2.25a1.08,1.08,0,0,1,1.16,1.05h-2.29a1.12,1.12,0,0,1,1.13-1.05M216,27.9a1.28,1.28,0,0,1-1.25,1.4,1.3,1.3,0,0,1-1.25-1.41,1.26,1.26,0,1,1,2.5,0m-3.38,0A2,2,0,0,0,214.56,30a1.69,1.69,0,0,0,1.43-.69V30h.87V24.42H216v2a1.89,1.89,0,0,0-1.42-.65,2,2,0,0,0-2,2.12m-1.26-2.6a.55.55,0,1,0-.55-.54.54.54,0,0,0,.55.54M210.92,30h.85V25.84h-.85ZM210,28.82c0-1.49-2.37-1-2.37-1.86,0-.28.24-.47.69-.47a.69.69,0,0,1,.78.61h.85a1.42,1.42,0,0,0-1.6-1.33c-1,0-1.59.54-1.59,1.2,0,1.51,2.4,1.05,2.4,1.86,0,.28-.26.49-.75.49a.76.76,0,0,1-.83-.61h-.88A1.55,1.55,0,0,0,208.41,30c1,0,1.58-.52,1.58-1.22m-5.1-1c0-.88.39-1.14,1-1.14h.21v-.89a1.35,1.35,0,0,0-1.23.67v-.6H204V30h.86Zm-1.81.94h-.92a1,1,0,0,1-1,.58A1.14,1.14,0,0,1,200,28.23h3.16a3.07,3.07,0,0,0,0-.42,1.93,1.93,0,0,0-2-2,2,2,0,0,0-2.06,2.13A2,2,0,0,0,201.18,30a1.89,1.89,0,0,0,1.9-1.3m-1.94-2.25a1.08,1.08,0,0,1,1.16,1.05H200a1.13,1.13,0,0,1,1.13-1.05m-6.54-.65L196.16,30h1l1.58-4.13h-.91l-1.17,3.37-1.17-3.37Zm-1.06-.55a.55.55,0,1,0-.55-.54.54.54,0,0,0,.55.54M193.1,30H194V25.84h-.86Zm-4.74-5.21V30h.86V27.89h.65l1.2,2.08h1l-1.29-2.16A1.47,1.47,0,0,0,192,26.32c0-.85-.61-1.56-1.85-1.56Zm2.77,1.56a.84.84,0,0,1-1,.89h-.94V25.46h.94c.67,0,1,.34,1,.86m-9.3-.46h.83a.85.85,0,0,1,.93-.75c.59,0,.9.32.9.79s-.48.81-1.25.82H183v.7h.19c.9,0,1.36.25,1.36,1a.85.85,0,0,1-1,.9,1,1,0,0,1-1.06-.9h-.82A1.68,1.68,0,0,0,183.65,30a1.54,1.54,0,0,0,1.75-1.53,1.33,1.33,0,0,0-.94-1.4v0a1.27,1.27,0,0,0,.84-1.24c0-.79-.59-1.42-1.68-1.42a1.6,1.6,0,0,0-1.79,1.48m-4,2.23,1.77-2.65v2.65ZM179.6,30h.84V28.83h.7v-.74h-.7V24.57h-1l-2.52,3.62v.64h2.71Zm-5.35-2.76a1.06,1.06,0,1,1,1-1,.93.93,0,0,1-1,1m-1.74,1.28A1.57,1.57,0,0,0,174.23,30c1.44,0,1.83-1,1.83-2.83s-.48-2.76-1.89-2.76a1.68,1.68,0,0,0-1.81,1.81,1.63,1.63,0,0,0,1.74,1.74,1.46,1.46,0,0,0,1.21-.53c0,1.4-.34,1.85-1,1.85a.89.89,0,0,1-1-.76Zm-4.67,1.41h3.64v-.71H169.1c.88-.81,2.23-1.82,2.23-3.15a1.57,1.57,0,0,0-1.74-1.65,1.66,1.66,0,0,0-1.76,1.77h.82c0-.62.35-1,.95-1s.88.39.88,1c0,1.07-1.35,2.06-2.64,3.2Z"/><path class="cls-6" d="M232.25,122.72h-.65v2.43h.68v-1.27c0-.49.17-.69.54-.69s.43.19.43.59v1.37h.68v-1.5c0-.59-.19-1-.91-1a.9.9,0,0,0-.76.4h0Zm-3,1.21c0-.39.13-.78.6-.78s.61.39.61.78-.14.77-.61.77-.6-.39-.6-.77m-.68,0a1.29,1.29,0,1,0,1.28-1.27,1.18,1.18,0,0,0-1.28,1.27m-.38-1.21h-.68v2.43h.68Zm0-.93h-.68v.55h.68Zm-2.21.93h-.41v.45H226v1.42c0,.48.36.58.78.58a2.49,2.49,0,0,0,.4,0v-.52a.68.68,0,0,1-.21,0c-.23,0-.29-.06-.29-.28v-1.2h.5v-.45h-.5V122H226Zm-2.37,1.73c0-.25.19-.31.4-.35a1.58,1.58,0,0,0,.57-.14h0v.25a.5.5,0,0,1-.56.56c-.22,0-.42-.07-.42-.32m-.68,0c0,.49.38.72.85.72a1.18,1.18,0,0,0,.83-.3.69.69,0,0,0,.05.24h.69a1.16,1.16,0,0,1-.09-.55v-1.25c0-.59-.59-.69-1.09-.69s-1.13.18-1.17.81h.69c0-.27.2-.37.45-.37s.45,0,.45.33-.39.24-.81.31-.85.18-.85.74m-1.78-1.77h0v2.43h.67v-1.1c0-.43.18-.78.68-.78a1,1,0,0,1,.25,0v-.62l-.15,0a.89.89,0,0,0-.79.52h0v-.46Zm-2.35,1.21c0-.39.13-.78.6-.78s.61.39.61.78-.14.77-.61.77-.6-.39-.6-.77m-.69,0a1.29,1.29,0,1,0,1.29-1.27,1.2,1.2,0,0,0-1.29,1.27m-2.21,0c0-.39.14-.78.59-.78s.6.39.6.78-.14.77-.59.77-.6-.38-.6-.77m0-1.21h-.65V126H216v-1.16h0a.91.91,0,0,0,.75.37,1.13,1.13,0,0,0,1.09-1.25c0-.69-.35-1.3-1.13-1.3a.84.84,0,0,0-.75.38h0Zm-2.62,0h0v2.43H214v-1.1c0-.43.18-.78.68-.78a.88.88,0,0,1,.24,0v-.62l-.14,0a.88.88,0,0,0-.79.52h0v-.46Zm-2.3,1.21c0-.39.14-.78.61-.78s.61.39.61.78-.15.77-.61.77-.61-.39-.61-.77m-.69,0a1.22,1.22,0,0,0,1.3,1.28,1.28,1.28,0,1,0-1.3-1.28m-3.49-.46a1.63,1.63,0,0,0,1.69,1.74,1.42,1.42,0,0,0,1.51-1.36h-.73a.76.76,0,0,1-.78.74c-.68,0-.94-.56-.94-1.11s.26-1.15.94-1.15a.74.74,0,0,1,.76.59H210a1.39,1.39,0,0,0-1.48-1.21,1.64,1.64,0,0,0-1.69,1.77M234,118.81H206.8v1.69H234Zm-17.22-22h4.15c1.78,0,3.31.3,3.31,2.4,0,1.59-1,2.41-3.31,2.41h-4.15Zm0,6.5h4.73c1.73,0,3.37.55,3.37,2.52a2.63,2.63,0,0,1-2.92,2.7h-5.18Zm3.57-8.18h-5.64v15.1h7.51a4.36,4.36,0,0,0,4.72-4.34,3.47,3.47,0,0,0-3-3.63v0a3.49,3.49,0,0,0,2.31-3.38,3.56,3.56,0,0,0-1.83-3.15c-.94-.55-2.74-.55-4.11-.55m-11.77,7.55a11.83,11.83,0,1,1,11.82,11.48,11.65,11.65,0,0,1-11.82-11.48m-1.79,0a13.63,13.63,0,1,0,13.62-13.24,13.43,13.43,0,0,0-13.62,13.24m1.38-17a2.87,2.87,0,0,1-.07-.58,2.92,2.92,0,0,1,.07-.61,1.73,1.73,0,0,1,.22-.52,1.25,1.25,0,0,1,.42-.37,1.22,1.22,0,0,1,.61-.14,1,1,0,0,1,.38.07,1,1,0,0,1,.32.17,1.13,1.13,0,0,1,.23.26,1,1,0,0,1,.13.32h1a1.9,1.9,0,0,0-.23-.72,1.71,1.71,0,0,0-.47-.53,2.22,2.22,0,0,0-.63-.33,2.68,2.68,0,0,0-.76-.1,2.48,2.48,0,0,0-1,.19,2,2,0,0,0-.76.53,2.51,2.51,0,0,0-.47.79,2.86,2.86,0,0,0-.17,1,2.73,2.73,0,0,0,.17,1,2.36,2.36,0,0,0,.47.78,2.33,2.33,0,0,0,.76.52,2.62,2.62,0,0,0,1,.18,2.35,2.35,0,0,0,.82-.13,1.73,1.73,0,0,0,.66-.38,2,2,0,0,0,.45-.6,2.3,2.3,0,0,0,.21-.8h-1a1.21,1.21,0,0,1-.33.76,1,1,0,0,1-.77.3,1.34,1.34,0,0,1-.61-.14,1.14,1.14,0,0,1-.42-.36,1.79,1.79,0,0,1-.22-.51m4.67-.34a1,1,0,0,1,0-.22,1.16,1.16,0,0,1,.14-.24.76.76,0,0,1,.24-.18.8.8,0,0,1,.39-.08.71.71,0,0,1,.53.18,1.18,1.18,0,0,1,.23.54Zm0,.59h2.54a2.14,2.14,0,0,0-.07-.76,2.17,2.17,0,0,0-.31-.65,1.52,1.52,0,0,0-.55-.45,1.61,1.61,0,0,0-.78-.18,1.77,1.77,0,0,0-.73.15,1.48,1.48,0,0,0-.57.37A1.85,1.85,0,0,0,212,85a1.8,1.8,0,0,0-.13.71,1.93,1.93,0,0,0,.12.73,1.54,1.54,0,0,0,.36.57,1.52,1.52,0,0,0,.57.37,1.92,1.92,0,0,0,.74.13,2,2,0,0,0,1-.26,1.52,1.52,0,0,0,.62-.88h-.85a.59.59,0,0,1-.25.31,1,1,0,0,1-1.13-.07,1,1,0,0,1-.24-.67m5.09-1.13a.43.43,0,0,1,.17,0V84l-.22,0a1.34,1.34,0,0,0-.35,0,2,2,0,0,0-.33.15,1.43,1.43,0,0,0-.26.23,1.08,1.08,0,0,0-.18.29h0V84h-.92v3.42h1V85.91a1.48,1.48,0,0,1,.05-.44.81.81,0,0,1,.15-.34.78.78,0,0,1,.3-.24,1.2,1.2,0,0,1,.45-.09h.18m2-.17h.71V84h-.71V83h-1v1h-.59v.63H219v2a.83.83,0,0,0,.09.41.58.58,0,0,0,.24.25.85.85,0,0,0,.36.12,2.86,2.86,0,0,0,.42,0h.29l.27,0V86.7l-.15,0h-.15c-.16,0-.27,0-.32-.08s-.08-.15-.08-.31Zm1.2-1.16h1V82.7h-1Zm0,4h1V84h-1Zm3.29-4,.35,0v-.7l-.25,0a1.14,1.14,0,0,0-.26,0,1.2,1.2,0,0,0-.89.3,1,1,0,0,0-.29.74V84h-.58v.63h.58v2.79h1V84.65h.67V84H224v-.2a.4.4,0,0,1,.09-.3.35.35,0,0,1,.28-.09m.88,0h1V82.7h-1Zm0,4h1V84h-1Zm2.25-2.08a1,1,0,0,1,0-.22.84.84,0,0,1,.14-.24.66.66,0,0,1,.24-.18.8.8,0,0,1,.39-.08.67.67,0,0,1,.52.18.94.94,0,0,1,.24.54Zm0,.59h2.54a2.14,2.14,0,0,0-.07-.76,2.17,2.17,0,0,0-.31-.65,1.52,1.52,0,0,0-.55-.45,1.61,1.61,0,0,0-.78-.18,1.77,1.77,0,0,0-.73.15,1.56,1.56,0,0,0-.57.37,1.85,1.85,0,0,0-.37.58,1.8,1.8,0,0,0-.13.71,1.93,1.93,0,0,0,.12.73,1.54,1.54,0,0,0,.36.57,1.52,1.52,0,0,0,.57.37,1.92,1.92,0,0,0,.74.13,2,2,0,0,0,1-.26,1.52,1.52,0,0,0,.62-.88h-.85a.59.59,0,0,1-.25.31,1,1,0,0,1-1.13-.07,1,1,0,0,1-.24-.67m5.48-.23a1.84,1.84,0,0,1-.05.41.86.86,0,0,1-.13.36.69.69,0,0,1-.26.25.82.82,0,0,1-.4.1.84.84,0,0,1-.39-.1.69.69,0,0,1-.26-.25,1.17,1.17,0,0,1-.16-.36,1.87,1.87,0,0,1,0-.4,1.84,1.84,0,0,1,0-.41.88.88,0,0,1,.15-.34.63.63,0,0,1,.26-.25.74.74,0,0,1,.4-.1.67.67,0,0,1,.39.1.82.82,0,0,1,.26.23.83.83,0,0,1,.14.35,1.4,1.4,0,0,1,.05.41m0,1.72H234V82.7h-1v1.72h0a1,1,0,0,0-.44-.37,1.31,1.31,0,0,0-.59-.13,1.48,1.48,0,0,0-.68.15,1.25,1.25,0,0,0-.49.39,1.85,1.85,0,0,0-.29.56,2.07,2.07,0,0,0-.1.66,2.21,2.21,0,0,0,.1.69,2,2,0,0,0,.29.59,1.39,1.39,0,0,0,.49.4,1.63,1.63,0,0,0,.69.15,1.4,1.4,0,0,0,.62-.12A1.08,1.08,0,0,0,233,87h0Z"/><g class="cls-7"><g class="cls-8"><path class="cls-9" d="M139.25,125.47h.85V123a1.7,1.7,0,0,0-3.14-1,1.73,1.73,0,0,0-2.71-.28v-.47h-.86v4.13h.86v-2.3c0-.76.41-1.15,1-1.15a1,1,0,0,1,1,1.15v2.3h.84v-2.3a1,1,0,0,1,1.05-1.15c.62,0,1,.39,1,1.15ZM129.2,123.4a1.23,1.23,0,0,1,1.22-1.38,1.25,1.25,0,0,1,1.25,1.38,1.28,1.28,0,0,1-1.27,1.4,1.23,1.23,0,0,1-1.2-1.4m3.35,0a2.11,2.11,0,1,0-4.22,0,2,2,0,0,0,2.07,2.14,2.07,2.07,0,0,0,2.15-2.14m-8.73,0a2,2,0,0,0,2,2.14,1.85,1.85,0,0,0,1.9-1.37h-.92a.94.94,0,0,1-1,.65c-.69,0-1.15-.51-1.15-1.42s.46-1.4,1.15-1.4a1,1,0,0,1,1,.65h.92a1.79,1.79,0,0,0-1.9-1.37,2,2,0,0,0-2,2.12m-.63,1.58a.55.55,0,1,0-.54.55.54.54,0,0,0,.54-.55m-1.81-.66c0-1.49-2.38-1-2.38-1.86,0-.28.24-.46.7-.46a.68.68,0,0,1,.77.6h.86a1.42,1.42,0,0,0-1.6-1.32c-1,0-1.59.53-1.59,1.19,0,1.51,2.4,1,2.4,1.86,0,.28-.26.49-.76.49a.75.75,0,0,1-.82-.61h-.89a1.56,1.56,0,0,0,1.73,1.33c1,0,1.58-.52,1.58-1.22m-5.11-1c0-.88.39-1.14,1-1.14h.22v-.88a1.34,1.34,0,0,0-1.24.66v-.6h-.85v4.13h.85Zm-1.81,1h-.92a1,1,0,0,1-1,.57,1.14,1.14,0,0,1-1.18-1.09h3.16a3.07,3.07,0,0,0,0-.42,1.93,1.93,0,0,0-2-2,2,2,0,0,0-2.07,2.12,2,2,0,0,0,2.07,2.14,1.87,1.87,0,0,0,1.89-1.29M112.53,122a1.06,1.06,0,0,1,1.15,1H111.4a1.12,1.12,0,0,1,1.13-1m-3.68,3.47h.85V123a1.6,1.6,0,0,0-1.69-1.76,1.59,1.59,0,0,0-1.23.53v-.47h-.86v4.13h.86v-2.3c0-.76.41-1.15,1-1.15s1,.39,1,1.15Zm-5.58-1.14c0,.84.45,1.14,1.19,1.14h.67v-.71h-.52c-.36,0-.48-.12-.48-.43V122h1v-.7h-1v-1h-.86v1h-.49v.7h.49Zm-2.16-1c0-.88.39-1.14,1-1.14h.21v-.88a1.34,1.34,0,0,0-1.23.66v-.6h-.86v4.13h.86Zm-2.85.1A1.28,1.28,0,0,1,97,124.8a1.3,1.3,0,0,1-1.25-1.41,1.26,1.26,0,1,1,2.5,0m-3.38,0a2,2,0,0,0,1.94,2.15,1.76,1.76,0,0,0,1.44-.68v.61h.87v-4.13h-.87v.6a1.76,1.76,0,0,0-1.43-.66,2,2,0,0,0-2,2.11m-1.43,0a1.31,1.31,0,0,1-1.26,1.41,1.4,1.4,0,0,1,0-2.78,1.27,1.27,0,0,1,1.26,1.37M90.94,122v-.61h-.86v6.1h.86v-2.57a1.83,1.83,0,0,0,1.44.67,2,2,0,0,0,1.94-2.15,2,2,0,0,0-1.94-2.11,1.8,1.8,0,0,0-1.44.67m-1.81,2.3h-.92a1,1,0,0,1-1,.57,1.14,1.14,0,0,1-1.18-1.09h3.16a3.07,3.07,0,0,0,0-.42,1.92,1.92,0,0,0-2-2,2,2,0,0,0-2.06,2.12,2,2,0,0,0,2.06,2.14,1.89,1.89,0,0,0,1.9-1.29M87.19,122a1.08,1.08,0,0,1,1.16,1H86.06a1.13,1.13,0,0,1,1.13-1m-3.72,1.4a1.29,1.29,0,0,1-1.26,1.4A1.31,1.31,0,0,1,81,123.39a1.26,1.26,0,1,1,2.51,0m-3.39,0a2,2,0,0,0,2,2.15,1.8,1.8,0,0,0,1.44-.69v.69a1.1,1.1,0,0,1-1.16,1.23,1.16,1.16,0,0,1-1.18-.72h-.84c.1.92.92,1.46,2,1.46a1.87,1.87,0,0,0,2-2v-4.2h-.86v.6a1.77,1.77,0,0,0-1.44-.66,2,2,0,0,0-2,2.11m-1.7,0a1.29,1.29,0,0,1-1.25,1.4,1.3,1.3,0,0,1-1.25-1.41A1.26,1.26,0,0,1,77.13,122a1.28,1.28,0,0,1,1.25,1.38m-3.38,0a2,2,0,0,0,1.93,2.15,1.79,1.79,0,0,0,1.45-.68v.61h.86v-4.13h-.86v.6a1.76,1.76,0,0,0-1.43-.66,2,2,0,0,0-2,2.11m-1.7,0A1.29,1.29,0,0,1,72,124.8a1.31,1.31,0,0,1-1.25-1.41,1.26,1.26,0,1,1,2.51,0m-3.39,0a2,2,0,0,0,2,2.15,1.8,1.8,0,0,0,1.44-.69v.69a1.1,1.1,0,0,1-1.16,1.23,1.16,1.16,0,0,1-1.18-.72h-.84c.1.92.92,1.46,2,1.46a1.87,1.87,0,0,0,2-2v-4.2H73.3v.6a1.77,1.77,0,0,0-1.44-.66,2,2,0,0,0-2,2.11m-1.65,2.08h.85V123a1.6,1.6,0,0,0-1.69-1.76,1.59,1.59,0,0,0-1.23.53v-.47h-.86v4.13h.86v-2.3c0-.76.41-1.15,1-1.15s1,.39,1,1.15Zm-4.47-4.68a.55.55,0,1,0-.55-.54.54.54,0,0,0,.55.54m-.44,4.68h.86v-4.13h-.86Zm-3.59-1.92a1.25,1.25,0,0,1-1.13,1.32c-.49,0-.7-.33-.7-.77,0-.67.4-1.37,1.07-1.37a.74.74,0,0,1,.76.82m.79,2c1.1,0,1.71-1.22,1.71-2.39a2.45,2.45,0,0,0-2.75-2.51,3.78,3.78,0,0,0-3.88,3.87,2.45,2.45,0,0,0,2.72,2.5,3.73,3.73,0,0,0,1.53-.3l-.11-.56a3,3,0,0,1-1.25.26c-1.39,0-2.2-.68-2.2-2a3.07,3.07,0,0,1,3.09-3.21c1.41,0,2.16.69,2.16,2,0,.72-.27,1.78-.89,1.78-.37,0-.4-.27-.34-.67l.38-2.15H60l-.07.38a1,1,0,0,0-.92-.44,2,2,0,0,0-1.86,2.15,1.17,1.17,0,0,0,1.23,1.3,1.7,1.7,0,0,0,1.32-.65.78.78,0,0,0,.87.65m-6.87-2.13a1.29,1.29,0,0,1-1.26,1.4,1.31,1.31,0,0,1-1.25-1.41,1.26,1.26,0,1,1,2.51,0m-3.39,0a2,2,0,0,0,2,2.15,1.8,1.8,0,0,0,1.44-.69v.69a1.1,1.1,0,0,1-1.16,1.23,1.16,1.16,0,0,1-1.18-.72H50.5c.1.92.92,1.46,2,1.46a1.87,1.87,0,0,0,2-2v-4.2h-.86v.6a1.77,1.77,0,0,0-1.44-.66,2,2,0,0,0-2,2.11m-1.65,2.08h.85V123a1.6,1.6,0,0,0-1.69-1.76,1.59,1.59,0,0,0-1.23.53v-.47h-.86v4.13h.86v-2.3c0-.76.41-1.15,1-1.15s1,.39,1,1.15Zm-4.92-2.07a1.28,1.28,0,0,1-1.25,1.4,1.3,1.3,0,0,1-1.25-1.41,1.26,1.26,0,1,1,2.5,0m-3.38,0a2,2,0,0,0,1.94,2.15,1.76,1.76,0,0,0,1.44-.68v.61h.87v-4.13h-.87v.6a1.76,1.76,0,0,0-1.43-.66,2,2,0,0,0-1.95,2.11m-1.26-2.6a.55.55,0,1,0-.55-.54.54.54,0,0,0,.55.54m-.43,4.68h.85v-4.13h-.85Zm-2,0h.85v-5.55h-.85Zm-.93-.49a.54.54,0,1,0-.54.55.54.54,0,0,0,.54-.55m-2.87-1.58a1.29,1.29,0,0,1-1.25,1.4,1.3,1.3,0,0,1-1.25-1.41A1.26,1.26,0,0,1,31.62,122a1.28,1.28,0,0,1,1.25,1.38m-3.38,0a2,2,0,0,0,2,2.15,1.78,1.78,0,0,0,1.43-.69v.69a1.09,1.09,0,0,1-1.15,1.23,1.15,1.15,0,0,1-1.18-.72h-.85c.11.92.92,1.46,2,1.46a1.87,1.87,0,0,0,2-2v-4.2h-.87v.6a1.75,1.75,0,0,0-1.43-.66,2,2,0,0,0-2,2.11m-1.65,2.08h.85V123a1.7,1.7,0,0,0-2.93-1.23v-.47h-.85v4.13h.85v-2.3a1,1,0,0,1,1-1.15c.62,0,1,.39,1,1.15Zm-4.48-4.68a.55.55,0,1,0-.54-.54.54.54,0,0,0,.54.54m-.43,4.68h.85v-4.13h-.85Zm-2.74-1L19,121.34h-1l1.63,4.07-.84,2h.89l2.53-6.08H21.4Z"/></g></g><g class="cls-7"><g class="cls-10"><path class="cls-9" d="M66.77,111.67c0,1.07-.11,2-1.11,2s-1.11-.94-1.11-2,.11-2,1.11-2,1.11,1,1.11,2m-3.06,0c0,1.59.42,2.79,1.95,2.79s2-1.2,2-2.79-.42-2.76-2-2.76-1.95,1.2-1.95,2.76m-1.75,0c0,1.07-.11,2-1.11,2s-1.11-.94-1.11-2,.12-2,1.11-2,1.11,1,1.11,2m-3.06,0c0,1.59.42,2.79,2,2.79s2-1.2,2-2.79-.43-2.76-2-2.76-2,1.2-2,2.76M54.56,109v.73h2.77l-2.11,4.71h.86l2.09-4.8V109Zm-4.21,0v.73h2.78L51,114.47h.86l2.09-4.8V109Zm-4,3.09H49.4v-.72H46.32Zm-2.24,2.35h.86V109H43.38v.78h.7Zm-5-.07h3.64v-.71H40.36c.88-.8,2.23-1.82,2.23-3.15a1.57,1.57,0,0,0-1.74-1.65,1.66,1.66,0,0,0-1.76,1.77h.82c0-.62.35-1,1-1s.88.39.88,1c0,1.07-1.35,2.06-2.64,3.2Zm-4.41-4h.84a.85.85,0,0,1,.93-.75c.58,0,.89.32.89.79s-.47.81-1.25.82h-.2v.7h.2c.89,0,1.35.25,1.35,1a.85.85,0,0,1-1,.9,1,1,0,0,1-1.06-.9h-.82a1.68,1.68,0,0,0,1.89,1.61A1.54,1.54,0,0,0,38.26,113a1.34,1.34,0,0,0-.93-1.4v0a1.28,1.28,0,0,0,.84-1.24c0-.79-.6-1.42-1.68-1.42a1.61,1.61,0,0,0-1.8,1.48m-4.17,1.76h3.09v-.72H30.52Zm-4.67-1.76h.83a.85.85,0,0,1,.93-.75c.59,0,.9.32.9.79s-.48.81-1.25.82h-.2v.7h.19c.9,0,1.36.25,1.36,1a.85.85,0,0,1-.95.9,1,1,0,0,1-1.06-.9h-.82a1.68,1.68,0,0,0,1.89,1.61A1.54,1.54,0,0,0,29.42,113a1.34,1.34,0,0,0-.94-1.4v0a1.27,1.27,0,0,0,.84-1.24c0-.79-.59-1.42-1.68-1.42a1.6,1.6,0,0,0-1.79,1.48m-2,4.11h.86V109H23.13v.78h.7ZM18.67,109v3.16h.81a1,1,0,0,1,1-.68,1,1,0,0,1,1.06,1.11c0,.68-.33,1.18-1.06,1.18a1,1,0,0,1-1.08-.76h-.84a1.74,1.74,0,0,0,1.91,1.47,1.75,1.75,0,0,0,1.89-1.91,1.67,1.67,0,0,0-1.76-1.82,1.46,1.46,0,0,0-1.13.49v-1.49H22V109Z"/></g></g><path class="cls-4" d="M71,80.84c0,1.12.61,1.53,1.59,1.53h.9v-1h-.7c-.48,0-.64-.17-.64-.58v-3h1.34v-.93H72.14V75.49H71v1.37h-.65v.93H71Zm-2.76,1.53h1.13V79.12a2.15,2.15,0,0,0-2.26-2.35,2.12,2.12,0,0,0-1.64.72v-.63H64.32v5.51h1.14V79.29a1.34,1.34,0,0,1,1.39-1.53c.83,0,1.38.52,1.38,1.53Zm-6.56-2.76A1.71,1.71,0,0,1,60,81.47a1.74,1.74,0,0,1-1.67-1.88A1.69,1.69,0,0,1,60,77.76a1.71,1.71,0,0,1,1.67,1.85m-4.51,0a2.66,2.66,0,0,0,2.58,2.87,2.37,2.37,0,0,0,1.93-.91v.82h1.15V76.86H61.67v.8a2.35,2.35,0,0,0-1.91-.89,2.62,2.62,0,0,0-2.6,2.82M54,80.84c0,1.12.61,1.53,1.59,1.53h.9v-1h-.7c-.48,0-.64-.17-.64-.58v-3h1.34v-.93H55.15V75.49H54v1.37h-.65v.93H54Zm-2.82,1.53h1.14V75H51.18Zm-1.5-5.51H48.54v3.07a1.34,1.34,0,0,1-1.39,1.53c-.83,0-1.38-.52-1.38-1.53V76.86H44.64V80.1a2.15,2.15,0,0,0,2.27,2.35,2.05,2.05,0,0,0,1.63-.74v.66h1.14Zm-6.22,4c-.06-2-3.17-1.37-3.17-2.48,0-.37.32-.62.93-.62a.91.91,0,0,1,1,.81h1.14a1.89,1.89,0,0,0-2.13-1.77c-1.3,0-2.12.71-2.12,1.59,0,2,3.2,1.4,3.2,2.48,0,.38-.35.66-1,.66a1,1,0,0,1-1.1-.82H39.05a2.08,2.08,0,0,0,2.3,1.78c1.3,0,2.11-.7,2.11-1.63m-6.69,1.54H37.9V79.12a2.15,2.15,0,0,0-2.26-2.35,2.12,2.12,0,0,0-1.64.72v-.63H32.86v5.51H34V79.29a1.34,1.34,0,0,1,1.39-1.53c.83,0,1.38.52,1.38,1.53Zm-9.5-2.76a1.64,1.64,0,0,1,1.63-1.85,1.67,1.67,0,0,1,1.66,1.85,1.7,1.7,0,0,1-1.69,1.86,1.63,1.63,0,0,1-1.6-1.86m4.46,0a2.81,2.81,0,1,0-5.62,0,2.69,2.69,0,0,0,2.76,2.85,2.76,2.76,0,0,0,2.86-2.85m-13.36-.73a3.47,3.47,0,0,0,3.55,3.55,3.3,3.3,0,0,0,3.23-2.08H23.78a1.94,1.94,0,0,1-1.86,1.09,2.56,2.56,0,0,1,0-5.11,1.94,1.94,0,0,1,1.86,1.09h1.37a3.31,3.31,0,0,0-3.23-2.09,3.48,3.48,0,0,0-3.55,3.55"/><path class="cls-9" d="M87.71,62.81a2.39,2.39,0,0,1-2.34,2.6A2.43,2.43,0,0,1,83,62.78a2.37,2.37,0,0,1,2.34-2.56,2.4,2.4,0,0,1,2.34,2.59m-6.32,0a3.74,3.74,0,0,0,3.64,4,3.32,3.32,0,0,0,2.68-1.29V66.8a2.06,2.06,0,0,1-2.16,2.3,2.15,2.15,0,0,1-2.2-1.35H81.77c.19,1.71,1.72,2.73,3.78,2.73a3.5,3.5,0,0,0,3.77-3.68V59H87.71v1.12A3.28,3.28,0,0,0,85,58.83a3.67,3.67,0,0,0-3.64,4m-3.08,3.89h1.58V62.12a3.15,3.15,0,0,0-5.46-2.28V59H72.84v7.71h1.59V62.36a1.87,1.87,0,0,1,1.95-2.14c1.16,0,1.93.73,1.93,2.14Zm-9.18-3.86a2.39,2.39,0,0,1-2.34,2.6,2.43,2.43,0,0,1-2.34-2.63,2.37,2.37,0,0,1,2.34-2.56,2.4,2.4,0,0,1,2.34,2.59m-6.32,0a3.73,3.73,0,0,0,3.61,4,3.35,3.35,0,0,0,2.71-1.27v1.14h1.61V59H69.13v1.12a3.31,3.31,0,0,0-2.68-1.25,3.67,3.67,0,0,0-3.64,4m-2.35-4.84a1,1,0,1,0-1-1,1,1,0,0,0,1,1m-.81,8.73h1.6V59h-1.6Zm-6.22-9.73v9.73h4.89V65.39H55V56.94Zm-7.35,5.87a2.39,2.39,0,0,1-2.33,2.6,2.43,2.43,0,0,1-2.34-2.63,2.35,2.35,0,1,1,4.67,0m-6.31,0a3.74,3.74,0,0,0,3.64,4,3.3,3.3,0,0,0,2.67-1.29V66.8a2.05,2.05,0,0,1-2.15,2.3,2.15,2.15,0,0,1-2.2-1.35H40.15c.19,1.71,1.72,2.73,3.78,2.73a3.49,3.49,0,0,0,3.76-3.68V59H46.08v1.12a3.25,3.25,0,0,0-2.67-1.25,3.67,3.67,0,0,0-3.64,4m-3.08,3.89h1.58V62.12a3,3,0,0,0-3.16-3.29,3,3,0,0,0-2.3,1V59H31.22v7.71h1.59V62.36a1.87,1.87,0,0,1,1.95-2.14c1.16,0,1.93.73,1.93,2.14Zm-8.36-8.73a1,1,0,1,0-1-1,1,1,0,0,0,1,1m-.81,8.73h1.6V59h-1.6Zm-6.08-3.52v3.52H23V63.15l3.22-6.21H24.5l-2.26,4.78L20,56.94H18.21Z"/></g></g></g></svg>