<svg id="Layer_1" data-name="Layer 1" xmlns="http://www.w3.org/2000/svg" xmlns:xlink="http://www.w3.org/1999/xlink" viewBox="0 0 306 792"><defs><style>.cls-1,.cls-6,.cls-7{fill:none;}.cls-2{fill:#f26524;}.cls-3{clip-path:url(#clip-path);}.cls-4{fill:#646464;}.cls-5{fill:#fff;}.cls-6{stroke:#286c9d;}.cls-6,.cls-7{stroke-miterlimit:10;}.cls-7{stroke:#231f20;}</style><clipPath id="clip-path"><rect class="cls-1" width="306" height="792"/></clipPath></defs><rect class="cls-2" x="35.41" y="75.82" width="234.09" height="27.04"/><rect class="cls-2" x="35.41" y="267.26" width="234.09" height="27.04"/><rect class="cls-2" x="35.41" y="728.96" width="234.09" height="27.04"/><g class="cls-3"><path class="cls-4" d="M243.24,64.35h3.08V51.5l5.75,12.85h2.13l5.73-12.85V64.35H263V45.58h-3.29L253.15,60.3l-6.59-14.72h-3.32ZM226.18,45.58V64.35h3.07V56.84h2.35l4.32,7.51h3.68L235,56.57a5.34,5.34,0,0,0,4.35-5.37c0-3.05-2.19-5.62-6.64-5.62Zm10,5.62c0,1.86-1.08,3.19-3.48,3.19h-3.41V48.1h3.41c2.4,0,3.48,1.21,3.48,3.1m-29,3.73c0-4.24,2.7-6.89,6.43-6.89S220,50.69,220,54.93s-2.7,6.94-6.42,6.94-6.43-2.7-6.43-6.94m16,0a9.59,9.59,0,1,0-9.58,9.61,9.36,9.36,0,0,0,9.58-9.61M191.1,64.35h3.08V56.14h6.21V53.63h-6.21V48.1h8V45.58H191.1ZM177,45.56v14l-9.27-14h-3.07V64.35h3.07v-14l9.27,14H180V45.56Zm-31.38,9.37c0-4.24,2.7-6.89,6.43-6.89s6.42,2.65,6.42,6.89-2.7,6.94-6.42,6.94-6.43-2.7-6.43-6.94m16,0A9.59,9.59,0,1,0,152,64.54a9.36,9.36,0,0,0,9.58-9.61m-25.27,9.42h3.08V45.58h-3.08ZM120.12,48.1h5V64.35h3.08V48.1h5V45.58h-13.1Zm-7.4,9.9h-6.13l3.08-8.72Zm2.22,6.35h3.24l-6.73-18.79h-3.56l-6.72,18.79h3.21l1.35-3.83h7.86ZM95.15,45.56v14l-9.26-14H82.81V64.35h3.08v-14l9.26,14h3.07V45.56ZM63.77,54.93c0-4.24,2.7-6.89,6.43-6.89s6.42,2.65,6.42,6.89-2.7,6.94-6.42,6.94-6.43-2.7-6.43-6.94m16,0a9.59,9.59,0,1,0-9.58,9.61,9.36,9.36,0,0,0,9.58-9.61M45.57,61.84V48.1h3.06c4.42,0,6.8,2.64,6.8,6.93s-2.38,6.81-6.8,6.81Zm3.06-16.26H42.5V64.35h6.13c6,0,10-3.54,10-9.32s-3.94-9.45-10-9.45"/><path class="cls-5" d="M218.34,94.57H220V89.69a3.22,3.22,0,0,0-3.39-3.52,3.16,3.16,0,0,0-2.46,1.08v-1h-1.71v8.27h1.71V90c0-1.52.82-2.3,2.08-2.3s2.07.78,2.07,2.3ZM204.1,90.43a2.46,2.46,0,0,1,2.44-2.78A2.5,2.5,0,0,1,209,90.43a2.55,2.55,0,0,1-2.53,2.79c-1.29,0-2.4-.92-2.4-2.79m6.69,0a4.22,4.22,0,1,0-8.43,0,4,4,0,0,0,4.14,4.27,4.14,4.14,0,0,0,4.29-4.27m-11-5.22a1.1,1.1,0,1,0-1.09-1.1,1.08,1.08,0,0,0,1.09,1.1M199,94.57h1.71V86.3H199Zm-5.31-2.3c0,1.68.92,2.3,2.39,2.3h1.35V93.14h-1c-.72,0-1-.25-1-.87V87.7h2V86.3h-2v-2h-1.73v2h-1v1.4h1Zm-4.24-1.84a2.57,2.57,0,0,1-2.51,2.79,2.61,2.61,0,0,1-2.5-2.82,2.54,2.54,0,0,1,2.5-2.75,2.57,2.57,0,0,1,2.51,2.78m-6.77,0a4,4,0,0,0,3.87,4.3,3.59,3.59,0,0,0,2.9-1.36v1.23h1.72V86.3H189.4v1.2a3.53,3.53,0,0,0-2.87-1.33,3.94,3.94,0,0,0-3.9,4.23m-3.3,4.17H181V89.69a3.39,3.39,0,0,0-6.29-1.89,3.18,3.18,0,0,0-3-1.63,3.11,3.11,0,0,0-2.44,1.08v-1h-1.71v8.27h1.71V90c0-1.52.82-2.3,2.08-2.3s2.07.78,2.07,2.3v4.62h1.7V90c0-1.52.82-2.3,2.08-2.3s2.07.78,2.07,2.3Zm-15.76-4.35c0-1.76.78-2.28,2-2.28H166V86.17a2.69,2.69,0,0,0-2.47,1.33V86.3h-1.71v8.27h1.71Zm-10.1.21a2.47,2.47,0,0,1,2.45-2.78,2.51,2.51,0,0,1,2.49,2.78,2.55,2.55,0,0,1-2.54,2.79c-1.29,0-2.4-.92-2.4-2.79m6.69,0a4.22,4.22,0,1,0-8.43,0,4,4,0,0,0,4.14,4.27,4.14,4.14,0,0,0,4.29-4.27m-12.64,4.14h1.72V87.7h1.53V86.3h-1.53v-.58c0-1,.36-1.31,1.41-1.31V83c-2.16,0-3.13.82-3.13,2.73v.58h-1v1.4h1Zm-4.08,0h1.69V89.69a3.21,3.21,0,0,0-3.39-3.52,3.17,3.17,0,0,0-2.46,1.08v-1h-1.71v8.27h1.71V90a2,2,0,0,1,2.09-2.3c1.24,0,2.07.78,2.07,2.3Zm-9.83,0h1.71V84.14h-1.71Zm-8-4.35c0-1.76.78-2.28,2-2.28h.44V86.17a2.71,2.71,0,0,0-2.48,1.33V86.3H124v8.27h1.71Zm-10.09.21A2.46,2.46,0,0,1,118,87.65a2.5,2.5,0,0,1,2.49,2.78A2.55,2.55,0,0,1,118,93.22c-1.29,0-2.4-.92-2.4-2.79m6.69,0a4.22,4.22,0,1,0-8.43,0A4,4,0,0,0,118,94.7a4.14,4.14,0,0,0,4.29-4.27m-11.75,4.14h1.7V89.69a3.22,3.22,0,0,0-3.39-3.52,3.16,3.16,0,0,0-2.46,1.08v-1h-1.71v8.27h1.71V90c0-1.52.82-2.3,2.08-2.3s2.07.78,2.07,2.3ZM96.26,90.43a2.47,2.47,0,0,1,2.45-2.78,2.51,2.51,0,0,1,2.49,2.78,2.55,2.55,0,0,1-2.54,2.79c-1.29,0-2.4-.92-2.4-2.79m6.69,0a4.22,4.22,0,1,0-8.43,0,4,4,0,0,0,4.14,4.27A4.14,4.14,0,0,0,103,90.43m-16.8,2.74V85.54h1.7c2.46,0,3.78,1.47,3.78,3.85a3.43,3.43,0,0,1-3.78,3.78Zm1.7-9H84.44V94.57h3.41c3.34,0,5.53-2,5.53-5.18s-2.19-5.25-5.53-5.25"/><path class="cls-5" d="M183.94,286h1.69v-4.88a3.21,3.21,0,0,0-3.39-3.52,3.17,3.17,0,0,0-2.46,1.08v-.95h-1.71V286h1.71v-4.62a2,2,0,0,1,2.09-2.3c1.24,0,2.07.78,2.07,2.3Zm-14.25-4.14a2.46,2.46,0,0,1,2.44-2.78,2.5,2.5,0,0,1,2.49,2.78,2.55,2.55,0,0,1-2.53,2.79c-1.29,0-2.4-.92-2.4-2.79m6.69,0a4.22,4.22,0,1,0-8.43,0,4,4,0,0,0,4.14,4.27,4.14,4.14,0,0,0,4.29-4.27m-11-5.22a1.1,1.1,0,1,0-1.09-1.1,1.08,1.08,0,0,0,1.09,1.1m-.87,9.36h1.71v-8.27h-1.71Zm-5.31-2.3c0,1.68.92,2.3,2.39,2.3H163v-1.43h-1.05c-.72,0-1-.25-1-.87v-4.57h2v-1.4h-2v-2.05h-1.73v2.05h-1v1.4h1ZM155,281.87a2.57,2.57,0,0,1-2.51,2.79,2.61,2.61,0,0,1-2.5-2.82,2.54,2.54,0,0,1,2.5-2.75,2.57,2.57,0,0,1,2.51,2.78m-6.77,0a4,4,0,0,0,3.87,4.3,3.59,3.59,0,0,0,2.9-1.36V286h1.72v-8.27H155v1.2a3.53,3.53,0,0,0-2.87-1.33,3.94,3.94,0,0,0-3.9,4.23m-3.3,4.17h1.7v-4.88a3.22,3.22,0,0,0-3.39-3.52,3.16,3.16,0,0,0-2.46,1.08v-.95h-1.71V286h1.71v-4.62c0-1.52.82-2.3,2.08-2.3s2.07.78,2.07,2.3Zm-14.25-4.14a2.47,2.47,0,0,1,2.45-2.78,2.51,2.51,0,0,1,2.49,2.78,2.55,2.55,0,0,1-2.54,2.79c-1.29,0-2.4-.92-2.4-2.79m6.69,0a4.22,4.22,0,1,0-8.43,0,4,4,0,0,0,4.14,4.27,4.14,4.14,0,0,0,4.29-4.27m-16.8,2.74V277h1.7c2.46,0,3.78,1.47,3.78,3.85a3.43,3.43,0,0,1-3.78,3.78Zm1.7-9h-3.41V286h3.41c3.34,0,5.53-2,5.53-5.18s-2.19-5.25-5.53-5.25"/><path class="cls-5" d="M254.86,746.72a1.09,1.09,0,1,0-1.08,1.1,1.08,1.08,0,0,0,1.08-1.1M253,744.56h1.42l.2-7.27h-1.82Zm-5.84.86c0,1.68.92,2.29,2.39,2.29h1.35v-1.42h-1c-.72,0-1-.26-1-.87v-4.58h2v-1.39h-2v-2.06h-1.73v2.06h-1v1.39h1Zm-4.32-2.06c0-1.75.78-2.28,2-2.28h.44v-1.77a2.69,2.69,0,0,0-2.48,1.34v-1.2h-1.71v8.26h1.71Zm-10.09.21a2.46,2.46,0,0,1,2.44-2.77,2.5,2.5,0,0,1,2.49,2.77,2.54,2.54,0,0,1-2.53,2.79c-1.29,0-2.4-.91-2.4-2.79m6.69,0a4.22,4.22,0,1,0-8.43,0,4,4,0,0,0,4.14,4.28,4.14,4.14,0,0,0,4.29-4.28m-11.31,0a2.6,2.6,0,0,1-2.52,2.82,2.79,2.79,0,0,1,0-5.56,2.54,2.54,0,0,1,2.52,2.74m-5-2.88v-1.21h-1.71v12.19h1.71v-5.13a3.73,3.73,0,0,0,2.88,1.34,4,4,0,0,0,3.89-4.31,3.92,3.92,0,0,0-3.89-4.23,3.61,3.61,0,0,0-2.88,1.35M218,743.54a2.6,2.6,0,0,1-2.52,2.82,2.79,2.79,0,0,1,0-5.56,2.54,2.54,0,0,1,2.52,2.74m-5-2.88v-1.21h-1.71v12.19H213v-5.13a3.73,3.73,0,0,0,2.88,1.34,4,4,0,0,0,3.89-4.31,3.92,3.92,0,0,0-3.89-4.23,3.61,3.61,0,0,0-2.88,1.35m-4-1.21h-1.71v4.6c0,1.52-.82,2.3-2.08,2.3s-2.07-.78-2.07-2.3v-4.6h-1.7v4.86a3.23,3.23,0,0,0,3.41,3.52,3.06,3.06,0,0,0,2.44-1.11v1H209Zm-9.33,5.95c-.09-3-4.75-2-4.75-3.72,0-.55.48-.93,1.39-.93a1.38,1.38,0,0,1,1.55,1.22h1.71c-.09-1.65-1.32-2.66-3.2-2.66s-3.18,1.07-3.18,2.39c0,3,4.8,2.1,4.8,3.72,0,.57-.52,1-1.51,1a1.51,1.51,0,0,1-1.65-1.23h-1.77c.07,1.5,1.47,2.67,3.45,2.67s3.16-1.05,3.16-2.45m-14.11-2c0-1.75.78-2.28,2-2.28H188v-1.77a2.68,2.68,0,0,0-2.47,1.34v-1.2h-1.71v8.26h1.71Zm-4-3.91h-1.71v4.6a2,2,0,0,1-2.09,2.3c-1.24,0-2.07-.78-2.07-2.3v-4.6H174v4.86a3.22,3.22,0,0,0,3.4,3.52,3.06,3.06,0,0,0,2.45-1.11v1h1.71Zm-15.87,4.12a2.46,2.46,0,0,1,2.44-2.77,2.5,2.5,0,0,1,2.49,2.77,2.54,2.54,0,0,1-2.53,2.79c-1.29,0-2.4-.91-2.4-2.79m6.69,0a4.22,4.22,0,1,0-8.43,0,4,4,0,0,0,4.14,4.28,4.14,4.14,0,0,0,4.29-4.28m-13.35,2.18-2.33-6.3h-1.9l3.25,8.13-1.68,4h1.77l5.07-12.15h-1.77Zm-11.21-2.39c0-1.75.78-2.28,2-2.28h.44v-1.77a2.69,2.69,0,0,0-2.48,1.34v-1.2h-1.71v8.26h1.71Zm-10.09.21a2.46,2.46,0,0,1,2.44-2.77,2.5,2.5,0,0,1,2.49,2.77,2.54,2.54,0,0,1-2.53,2.79c-1.29,0-2.4-.91-2.4-2.79m6.69,0a4.22,4.22,0,1,0-8.43,0,4,4,0,0,0,4.14,4.28,4.14,4.14,0,0,0,4.29-4.28m-12.65,4.14h1.73v-6.87h1.53v-1.39h-1.53v-.59c0-.94.36-1.3,1.41-1.3v-1.43c-2.16,0-3.14.83-3.14,2.73v.59h-1v1.39h1Zm-6.36-8.26h-1.71v4.6c0,1.52-.82,2.3-2.08,2.3s-2.07-.78-2.07-2.3v-4.6h-1.7v4.86a3.23,3.23,0,0,0,3.41,3.52,3.06,3.06,0,0,0,2.44-1.11v1h1.71Zm-15.87,4.12A2.46,2.46,0,0,1,112,740.8a2.5,2.5,0,0,1,2.49,2.77,2.54,2.54,0,0,1-2.54,2.79c-1.29,0-2.4-.91-2.4-2.79m6.69,0a4.22,4.22,0,1,0-8.43,0,4,4,0,0,0,4.14,4.28,4.14,4.14,0,0,0,4.29-4.28m-13.35,2.18-2.32-6.3H98.68l3.26,8.13-1.68,4H102l5.07-12.15h-1.77Zm-15.46,2h1.71v-3.55l3.06,3.55h2.31l-3.81-4.12,3.81-4.14H92.16l-3,3.61v-6.45H87.45Zm-3.87,0h1.7v-4.87a3.23,3.23,0,0,0-3.39-3.53,3.19,3.19,0,0,0-2.46,1.08v-.94H77.72v8.26h1.71v-4.62a2,2,0,0,1,2.08-2.29c1.25,0,2.07.78,2.07,2.29Zm-9.84-4.14a2.56,2.56,0,0,1-2.5,2.79,2.6,2.6,0,0,1-2.51-2.82,2.52,2.52,0,1,1,5,0m-6.76,0a4,4,0,0,0,3.87,4.31,3.53,3.53,0,0,0,2.89-1.37v1.23h1.73v-8.26H73.74v1.2a3.5,3.5,0,0,0-2.86-1.34,3.93,3.93,0,0,0-3.9,4.23m-9.17,4.17h1.71v-4.62a2.09,2.09,0,1,1,4.16,0v4.62h1.69v-4.87a3.19,3.19,0,0,0-3.28-3.53,3.28,3.28,0,0,0-2.57,1.1v-3.8H57.81Zm-9-9H51.6v9h1.71v-9h2.78v-1.39H48.81Z"/><path d="M87.2,122.23a1.45,1.45,0,0,1,1.24-.62,1.6,1.6,0,0,1,1.49.91v2.89a1.58,1.58,0,0,1-1.51.94,1.45,1.45,0,0,1-1.23-.62,2.84,2.84,0,0,1-.44-1.68,3.05,3.05,0,0,1,.45-1.82m-.85,4.14a2.16,2.16,0,0,0,1.8.9,2.23,2.23,0,0,0,1.78-.75v.54a1.7,1.7,0,0,1-.44,1.25,1.67,1.67,0,0,1-1.24.45,2.12,2.12,0,0,1-1.7-.86l-.56.65a2.24,2.24,0,0,0,1,.8,3.17,3.17,0,0,0,1.34.29,2.7,2.7,0,0,0,2-.7A2.58,2.58,0,0,0,91,127v-6.19H90l0,.7a2.21,2.21,0,0,0-1.81-.82,2.18,2.18,0,0,0-1.82.88,3.7,3.7,0,0,0-.69,2.36,3.91,3.91,0,0,0,.69,2.44M85,120.77a1.19,1.19,0,0,0-.48-.08,1.69,1.69,0,0,0-1.52.85v-.73H82v6.34h1.09v-4.5a1.41,1.41,0,0,1,1.44-.91,3.12,3.12,0,0,1,.54,0Zm-5.7,2.47a3.87,3.87,0,0,1-.62,2.28,2.17,2.17,0,0,1-3.39,0,3.84,3.84,0,0,1-.62-2.31v-.63a3.71,3.71,0,0,1,.63-2.25,2,2,0,0,1,1.68-.81,2,2,0,0,1,1.71.81,3.87,3.87,0,0,1,.61,2.33Zm1.11-.62a5.35,5.35,0,0,0-.42-2.19,3.15,3.15,0,0,0-1.2-1.43,3.32,3.32,0,0,0-1.81-.5,3.28,3.28,0,0,0-1.79.5A3.35,3.35,0,0,0,74,120.45a5.25,5.25,0,0,0-.43,2.17v.61a5.06,5.06,0,0,0,.45,2.13,3.2,3.2,0,0,0,3,1.91,3.3,3.3,0,0,0,1.81-.5A3.17,3.17,0,0,0,80,125.35a5.35,5.35,0,0,0,.42-2.19Zm-7.9-4h-.93l-3.56,9.26H69ZM66,122a2,2,0,0,1,.45,1.28v.08H63.26a2.36,2.36,0,0,1,.55-1.34,1.46,1.46,0,0,1,1.11-.48A1.32,1.32,0,0,1,66,122m1.45,4-.66-.51a2.58,2.58,0,0,1-.7.62,1.93,1.93,0,0,1-1,.23,1.7,1.7,0,0,1-1.33-.58,2.21,2.21,0,0,1-.55-1.51h4.29v-.45a3.56,3.56,0,0,0-.68-2.33,2.36,2.36,0,0,0-1.92-.82,2.53,2.53,0,0,0-1.41.42,2.86,2.86,0,0,0-1,1.16,3.85,3.85,0,0,0-.36,1.69v.19a3.15,3.15,0,0,0,.81,2.27,2.79,2.79,0,0,0,2.1.85A2.66,2.66,0,0,0,67.44,126M51.9,120.81v6.34H53v-4.63a1.45,1.45,0,0,1,1.46-.91A1.21,1.21,0,0,1,55.79,123v4.16h1.09v-4.21a1.5,1.5,0,0,1,.47-1,1.41,1.41,0,0,1,1-.36,1.34,1.34,0,0,1,1,.34,1.43,1.43,0,0,1,.31,1v4.18h1.08V122.9c0-1.47-.73-2.21-2.12-2.21a2.37,2.37,0,0,0-2,1,1.81,1.81,0,0,0-1.81-1,2.37,2.37,0,0,0-1.88.82l0-.7ZM46.62,126a1,1,0,0,1-.34-.8c0-.78.66-1.17,2-1.17h.85v1.3a1.68,1.68,0,0,1-.66.69,2,2,0,0,1-1,.26,1.28,1.28,0,0,1-.87-.28m3.81,1.11v-.09a3.56,3.56,0,0,1-.23-1.39v-2.92a2,2,0,0,0-.64-1.51,2.5,2.5,0,0,0-1.72-.55,3.13,3.13,0,0,0-1.27.26,2.23,2.23,0,0,0-.91.7,1.46,1.46,0,0,0-.34.92h1.09a.86.86,0,0,1,.39-.71,1.59,1.59,0,0,1,1-.3,1.39,1.39,0,0,1,1,.34,1.22,1.22,0,0,1,.34.91v.49H48.06a3.56,3.56,0,0,0-2.11.55,1.79,1.79,0,0,0-.76,1.54,1.74,1.74,0,0,0,.6,1.35,2.27,2.27,0,0,0,1.54.53,2.46,2.46,0,0,0,1.81-.79,2.49,2.49,0,0,0,.15.67Zm-6.88-8.53H42.43v6.6l-4.31-6.6H37v8.53h1.13v-6.58l4.3,6.58h1.13Z"/><path d="M64.78,158.68H63.69v9h1.09Zm-3.93,1.42a.76.76,0,0,0,1,0,.63.63,0,0,0,.16-.44.64.64,0,0,0-.16-.45.73.73,0,0,0-1,0,.69.69,0,0,0-.16.45.68.68,0,0,0,.16.44m1,1.24H60.78v6.34h1.08Zm-6.46,5.22a1,1,0,0,1-.34-.79c0-.78.66-1.17,2-1.17h.85v1.3a1.62,1.62,0,0,1-.66.69,2,2,0,0,1-1,.26,1.27,1.27,0,0,1-.87-.29m3.81,1.12v-.1A3.49,3.49,0,0,1,59,166.2v-2.92a2,2,0,0,0-.65-1.51,2.46,2.46,0,0,0-1.71-.55,3.07,3.07,0,0,0-1.27.26,2.26,2.26,0,0,0-.92.7,1.51,1.51,0,0,0-.33.92H55.2a.86.86,0,0,1,.39-.71,1.54,1.54,0,0,1,1-.3,1.37,1.37,0,0,1,1,.34,1.22,1.22,0,0,1,.34.91v.49h-1a3.59,3.59,0,0,0-2.12.55,1.8,1.8,0,0,0-.75,1.54,1.71,1.71,0,0,0,.6,1.34,2.2,2.2,0,0,0,1.54.53,2.42,2.42,0,0,0,1.8-.78,2.49,2.49,0,0,0,.15.67Zm-15.58-6.34v6.34h1.09v-4.63a1.45,1.45,0,0,1,1.46-.91,1.21,1.21,0,0,1,1.35,1.38v4.16h1.09v-4.21a1.4,1.4,0,0,1,1.47-1.33,1.36,1.36,0,0,1,1,.34,1.42,1.42,0,0,1,.31,1v4.19h1.08v-4.25c0-1.47-.73-2.21-2.12-2.21a2.42,2.42,0,0,0-1.2.28,2.54,2.54,0,0,0-.82.74,1.81,1.81,0,0,0-1.81-1,2.32,2.32,0,0,0-1.88.82l0-.7Zm-1.82,1.47H38.12v-2.74h4.23v-.92H37v8.53h5.42v-.92H38.12v-3h3.69Z"/><path d="M66,455.28a2,2,0,0,1,.45,1.28v.08H63.26a2.39,2.39,0,0,1,.55-1.34,1.49,1.49,0,0,1,1.11-.47,1.35,1.35,0,0,1,1.07.45m1.45,4-.66-.52a2.29,2.29,0,0,1-.7.62,1.84,1.84,0,0,1-1,.24,1.73,1.73,0,0,1-1.33-.58,2.24,2.24,0,0,1-.55-1.52h4.29v-.45a3.56,3.56,0,0,0-.68-2.33,2.39,2.39,0,0,0-1.92-.81,2.53,2.53,0,0,0-1.41.42,2.73,2.73,0,0,0-1,1.16,3.77,3.77,0,0,0-.36,1.68v.2a3.13,3.13,0,0,0,.81,2.26,2.76,2.76,0,0,0,2.1.85,2.67,2.67,0,0,0,2.39-1.22M51.9,454.05v6.34H53v-4.63a1.45,1.45,0,0,1,1.46-.9,1.21,1.21,0,0,1,1.35,1.38v4.15h1.09v-4.2a1.47,1.47,0,0,1,.47-1,1.41,1.41,0,0,1,1-.36,1.38,1.38,0,0,1,1,.33,1.47,1.47,0,0,1,.31,1v4.18h1.08v-4.24c0-1.48-.73-2.21-2.12-2.21a2.37,2.37,0,0,0-2,1,1.81,1.81,0,0,0-1.81-1,2.34,2.34,0,0,0-1.88.82l0-.71Zm-5.28,5.23a1,1,0,0,1-.34-.8c0-.77.66-1.16,2-1.16h.85v1.3a1.6,1.6,0,0,1-.66.68,1.9,1.9,0,0,1-1,.27,1.29,1.29,0,0,1-.87-.29m3.81,1.11v-.09a3.53,3.53,0,0,1-.23-1.39V456a2,2,0,0,0-.64-1.51,2.55,2.55,0,0,0-1.72-.54,3.13,3.13,0,0,0-1.27.25,2.41,2.41,0,0,0-.91.7,1.5,1.5,0,0,0-.34.92h1.09a.87.87,0,0,1,.39-.71,1.65,1.65,0,0,1,1-.29,1.35,1.35,0,0,1,1,.34,1.18,1.18,0,0,1,.34.9v.5H48.06a3.49,3.49,0,0,0-2.11.55,1.78,1.78,0,0,0-.76,1.54,1.71,1.71,0,0,0,.6,1.34,2.27,2.27,0,0,0,1.54.53,2.45,2.45,0,0,0,1.81-.78,2.3,2.3,0,0,0,.15.66Zm-6.88-8.53H42.43v6.61l-4.31-6.61H37v8.53h1.13v-6.57l4.3,6.57h1.13Z"/><path d="M102.2,496.89h1.55l-.4,2.08H101.8Zm.53,5.29h.84l.47-2.4h1.47V499h-1.32l.41-2.08H106v-.81h-1.2l.48-2.44h-.84l-.48,2.44h-1.55l.48-2.44H102l-.48,2.44H99.86v.81h1.51L101,499H99.41v.81h1.4l-.47,2.4h.84l.47-2.4h1.55Zm-11.67-4.93a1.44,1.44,0,0,1,1.24-.61,1.62,1.62,0,0,1,1.5.89v2.92a1.59,1.59,0,0,1-1.51.92,1.44,1.44,0,0,1-1.23-.61,2.77,2.77,0,0,1-.45-1.68,3.09,3.09,0,0,1,.45-1.83M89.53,499a3.72,3.72,0,0,0,.7,2.36,2.16,2.16,0,0,0,1.79.9,2.2,2.2,0,0,0,1.81-.79l0,.68h1v-9H93.8v3.3a2.2,2.2,0,0,0-1.77-.76,2.17,2.17,0,0,0-1.81.89,3.7,3.7,0,0,0-.69,2.34Zm-.62-3.23a1.19,1.19,0,0,0-.48-.08,1.68,1.68,0,0,0-1.51.85l0-.73H85.85v6.34h1.08v-4.5a1.43,1.43,0,0,1,1.45-.91,2.93,2.93,0,0,1,.53,0Zm-8.35,5.26a1,1,0,0,1-.34-.79c0-.78.66-1.17,2-1.17h.85v1.3a1.62,1.62,0,0,1-.66.69,2,2,0,0,1-1,.26,1.32,1.32,0,0,1-.87-.29m3.81,1.12v-.1a3.51,3.51,0,0,1-.22-1.39v-2.91a2,2,0,0,0-.65-1.51,2.47,2.47,0,0,0-1.72-.55,2.9,2.9,0,0,0-1.26.26,2.26,2.26,0,0,0-.92.7,1.5,1.5,0,0,0-.33.91h1.09a.88.88,0,0,1,.39-.71,1.6,1.6,0,0,1,1-.29,1.33,1.33,0,0,1,1,.34,1.18,1.18,0,0,1,.34.9v.5H82a3.52,3.52,0,0,0-2.12.55,1.79,1.79,0,0,0-.75,1.54,1.71,1.71,0,0,0,.6,1.34,2.2,2.2,0,0,0,1.54.53,2.42,2.42,0,0,0,1.8-.78,2.49,2.49,0,0,0,.15.67Zm-7.55-2.71a2.41,2.41,0,0,1-.66,1.48,2.21,2.21,0,0,1-1.44.42,1.85,1.85,0,0,1-1.62-.82,3.74,3.74,0,0,1-.58-2.21v-.83a3.67,3.67,0,0,1,.61-2.27,2,2,0,0,1,1.69-.79,1.93,1.93,0,0,1,1.37.46,2.46,2.46,0,0,1,.63,1.48H78a3.18,3.18,0,0,0-1-2.1,3.08,3.08,0,0,0-2.18-.76A3.37,3.37,0,0,0,73,494a3.1,3.1,0,0,0-1.2,1.39,4.9,4.9,0,0,0-.43,2.09v.82a4.35,4.35,0,0,0,.92,2.9,3,3,0,0,0,2.42,1.08,3.26,3.26,0,0,0,2.23-.73,3.13,3.13,0,0,0,1-2.09ZM65,494.3v1.54H63.85v.83H65v3.94a1.91,1.91,0,0,0,.37,1.24,1.34,1.34,0,0,0,1.1.44,3.44,3.44,0,0,0,.83-.11v-.88a2.41,2.41,0,0,1-.52.07.63.63,0,0,1-.53-.19.84.84,0,0,1-.16-.57v-3.94h1.18v-.83H66.09V494.3Zm-3.13.29a.73.73,0,0,0,1,0,.6.6,0,0,0,.16-.44.63.63,0,0,0-.16-.44.73.73,0,0,0-1,0,.63.63,0,0,0-.16.44.6.6,0,0,0,.16.44m1,1.25H61.8v6.34h1.08Zm-6.68,1.41a1.45,1.45,0,0,1,1.25-.61,1.6,1.6,0,0,1,1.49.89v2.92a1.59,1.59,0,0,1-1.51.92,1.44,1.44,0,0,1-1.23-.61,2.84,2.84,0,0,1-.44-1.68,3.17,3.17,0,0,1,.44-1.83M54.67,499a3.78,3.78,0,0,0,.7,2.36,2.16,2.16,0,0,0,1.79.9A2.19,2.19,0,0,0,59,501.5l.06.68h1v-9H58.94v3.3a2.36,2.36,0,0,0-3.58.13,3.7,3.7,0,0,0-.69,2.34Zm-2.52-2a2.05,2.05,0,0,1,.45,1.28v.09H49.42a2.36,2.36,0,0,1,.55-1.34,1.46,1.46,0,0,1,1.11-.48,1.35,1.35,0,0,1,1.07.45m1.45,4-.66-.52a2.29,2.29,0,0,1-.7.62,1.84,1.84,0,0,1-1,.24,1.7,1.7,0,0,1-1.33-.58,2.21,2.21,0,0,1-.55-1.51h4.29v-.46a3.58,3.58,0,0,0-.68-2.33,2.39,2.39,0,0,0-1.92-.81,2.53,2.53,0,0,0-1.41.42,2.87,2.87,0,0,0-1,1.16A3.77,3.77,0,0,0,48.3,499v.2a3.15,3.15,0,0,0,.81,2.27,2.79,2.79,0,0,0,2.1.84,2.67,2.67,0,0,0,2.39-1.22m-5.9-5.27a1.21,1.21,0,0,0-.49-.08,1.69,1.69,0,0,0-1.51.85v-.73H44.63v6.34h1.08v-4.5a1.43,1.43,0,0,1,1.45-.91,3.12,3.12,0,0,1,.54,0Zm-5.57,3.67a2.36,2.36,0,0,1-.66,1.48,2.17,2.17,0,0,1-1.44.42,1.86,1.86,0,0,1-1.62-.82,3.74,3.74,0,0,1-.58-2.21v-.83a3.67,3.67,0,0,1,.61-2.27,2,2,0,0,1,1.69-.79,1.91,1.91,0,0,1,1.37.46,2.4,2.4,0,0,1,.63,1.48h1.14a3.14,3.14,0,0,0-1-2.1,3.06,3.06,0,0,0-2.18-.76,3.36,3.36,0,0,0-1.8.48,3.12,3.12,0,0,0-1.21,1.39,4.9,4.9,0,0,0-.42,2.09v.82a4.34,4.34,0,0,0,.91,2.9A3,3,0,0,0,40,502.29a3.28,3.28,0,0,0,2.24-.73,3.17,3.17,0,0,0,1-2.09Z"/><path d="M52.83,541.7H51.61l3.16,8.53h1l3.17-8.53H57.7l-2.44,7Zm-7.63,0H44l3.16,8.53h1l3.16-8.53H50.06l-2.44,7Zm-3.07,5.82a2.3,2.3,0,0,1-.66,1.48,2.12,2.12,0,0,1-1.44.43,1.88,1.88,0,0,1-1.62-.82,3.77,3.77,0,0,1-.58-2.22v-.82a3.65,3.65,0,0,1,.61-2.27,2,2,0,0,1,1.69-.8,1.91,1.91,0,0,1,1.37.46,2.45,2.45,0,0,1,.63,1.48h1.14a3.18,3.18,0,0,0-1-2.1,3.06,3.06,0,0,0-2.18-.76,3.36,3.36,0,0,0-1.8.48,3.23,3.23,0,0,0-1.21,1.39,4.9,4.9,0,0,0-.42,2.09v.82a4.34,4.34,0,0,0,.91,2.9A3,3,0,0,0,40,550.35a3.29,3.29,0,0,0,2.24-.74,3.17,3.17,0,0,0,1-2.09Z"/><path d="M191.82,542.62h2.09a1.91,1.91,0,0,1,1.32.47,1.63,1.63,0,0,1,.48,1.22,1.55,1.55,0,0,1-.48,1.23,2,2,0,0,1-1.38.43h-2Zm2,4.27a3.3,3.3,0,0,0,2.23-.67,2.39,2.39,0,0,0,.77-1.91,2.43,2.43,0,0,0-.79-1.9,3.19,3.19,0,0,0-2.19-.71H190.7v8.53h1.12v-3.34Zm-9.93-5.19h-1.32l2.71,4.23-2.77,4.3h1.33L186,546.9l2.1,3.33h1.33l-2.76-4.3,2.7-4.23H188L186,545Zm-2.72,3.67h-3.7v-2.75h4.24v-.92h-5.36v8.53h5.42v-.92h-4.3v-3h3.7Z"/><path d="M68,206.46a2,2,0,0,1,.44,1.28v.08H65.31a2.29,2.29,0,0,1,.55-1.34A1.44,1.44,0,0,1,67,206a1.36,1.36,0,0,1,1.08.46m1.45,4-.67-.51a2.7,2.7,0,0,1-.69.62,2,2,0,0,1-1,.23,1.7,1.7,0,0,1-1.33-.58,2.26,2.26,0,0,1-.55-1.51h4.3v-.45a3.5,3.5,0,0,0-.69-2.33,2.35,2.35,0,0,0-1.92-.82,2.52,2.52,0,0,0-1.4.42,2.86,2.86,0,0,0-1,1.16,3.8,3.8,0,0,0-.36,1.68v.2a3.15,3.15,0,0,0,.81,2.27,2.79,2.79,0,0,0,2.1.85,2.67,2.67,0,0,0,2.39-1.23m-11.65-5.23v6.34h1.09v-4.52a1.94,1.94,0,0,1,.62-.74,1.52,1.52,0,0,1,.92-.28,1.24,1.24,0,0,1,1,.33,1.47,1.47,0,0,1,.32,1v4.2h1.08v-4.19c0-1.51-.69-2.27-2-2.27a2.33,2.33,0,0,0-1.9.92l0-.8Zm-5.55,1.41a1.64,1.64,0,0,1,2.61,0,2.7,2.7,0,0,1,.5,1.69,2.91,2.91,0,0,1-.49,1.81,1.55,1.55,0,0,1-1.31.65,1.57,1.57,0,0,1-1.31-.64,2.74,2.74,0,0,1-.49-1.69,3,3,0,0,1,.49-1.83m-1.58,1.78a3.45,3.45,0,0,0,.8,2.37,2.67,2.67,0,0,0,2.09.9,2.86,2.86,0,0,0,1.52-.41,2.76,2.76,0,0,0,1-1.15,3.71,3.71,0,0,0,.35-1.66v-.08a3.41,3.41,0,0,0-.8-2.38,2.66,2.66,0,0,0-2.09-.9,2.75,2.75,0,0,0-1.49.41,2.69,2.69,0,0,0-1,1.14,3.7,3.7,0,0,0-.37,1.68Zm-5.24-5.85H44.39v9h1.08v-4.52a2,2,0,0,1,.63-.74A1.52,1.52,0,0,1,47,206a1.27,1.27,0,0,1,1,.33,1.47,1.47,0,0,1,.31,1v4.2h1.09v-4.19c0-1.51-.69-2.27-2-2.27a2.32,2.32,0,0,0-1.88.89ZM38.11,204H40.2a1.91,1.91,0,0,1,1.32.47,1.61,1.61,0,0,1,.48,1.22,1.55,1.55,0,0,1-.48,1.23,2,2,0,0,1-1.38.43h-2Zm2,4.27a3.35,3.35,0,0,0,2.23-.67,2.4,2.4,0,0,0,.77-1.92,2.43,2.43,0,0,0-.79-1.89,3.19,3.19,0,0,0-2.19-.71H37v8.53h1.12v-3.34Z"/><path d="M78,249a1.73,1.73,0,0,1-1,.25,1.67,1.67,0,0,1-1.08-.32,1.11,1.11,0,0,1-.43-.86H74.41a1.84,1.84,0,0,0,.33,1,2.28,2.28,0,0,0,.92.75,3.19,3.19,0,0,0,1.35.27,2.85,2.85,0,0,0,1.76-.51,1.62,1.62,0,0,0,.68-1.37,1.5,1.5,0,0,0-.24-.86,1.88,1.88,0,0,0-.75-.61,6.08,6.08,0,0,0-1.31-.43A3.79,3.79,0,0,1,76,246a.66.66,0,0,1-.32-.59.83.83,0,0,1,.34-.68,1.48,1.48,0,0,1,.92-.25,1.41,1.41,0,0,1,1,.32,1,1,0,0,1,.37.76h1.09a1.76,1.76,0,0,0-.67-1.42,2.64,2.64,0,0,0-1.75-.56,2.57,2.57,0,0,0-1.68.54,1.65,1.65,0,0,0-.66,1.32,1.45,1.45,0,0,0,.23.81,1.89,1.89,0,0,0,.72.59,5.67,5.67,0,0,0,1.3.42,3.3,3.3,0,0,1,1.16.42.8.8,0,0,1,.33.68A.76.76,0,0,1,78,249m-6.19,0a1.73,1.73,0,0,1-1,.25,1.64,1.64,0,0,1-1.07-.32,1.12,1.12,0,0,1-.44-.86H68.23a1.84,1.84,0,0,0,.33,1,2.18,2.18,0,0,0,.91.75,3.22,3.22,0,0,0,1.35.27,2.9,2.9,0,0,0,1.77-.51,1.65,1.65,0,0,0,.68-1.37,1.5,1.5,0,0,0-.25-.86,1.91,1.91,0,0,0-.74-.61,6.39,6.39,0,0,0-1.32-.43,3.79,3.79,0,0,1-1.12-.38.65.65,0,0,1-.31-.59.82.82,0,0,1,.33-.68,1.49,1.49,0,0,1,.93-.25,1.38,1.38,0,0,1,.95.32,1,1,0,0,1,.38.76h1.09a1.79,1.79,0,0,0-.67-1.42,2.66,2.66,0,0,0-1.75-.56,2.58,2.58,0,0,0-1.69.54,1.65,1.65,0,0,0-.66,1.32,1.45,1.45,0,0,0,.23.81,2,2,0,0,0,.72.59,5.77,5.77,0,0,0,1.31.42,3.32,3.32,0,0,1,1.15.42.8.8,0,0,1,.33.68.74.74,0,0,1-.37.66m-6.1-4.09a2.08,2.08,0,0,1,.44,1.28v.08H63a2.32,2.32,0,0,1,.55-1.34,1.42,1.42,0,0,1,1.1-.47,1.38,1.38,0,0,1,1.08.45m1.44,4-.66-.51a2.43,2.43,0,0,1-.7.62,1.83,1.83,0,0,1-1,.23,1.72,1.72,0,0,1-1.33-.57,2.29,2.29,0,0,1-.55-1.52h4.3v-.45a3.5,3.5,0,0,0-.69-2.33,2.39,2.39,0,0,0-1.92-.82,2.5,2.5,0,0,0-1.4.42,2.78,2.78,0,0,0-1,1.16,3.85,3.85,0,0,0-.36,1.69v.2a3.13,3.13,0,0,0,.81,2.26,2.72,2.72,0,0,0,2.09.85,2.65,2.65,0,0,0,2.39-1.23m-5.9-5.26a1,1,0,0,0-.48-.09,1.69,1.69,0,0,0-1.51.85l0-.73H58.18V250h1.09v-4.5a1.42,1.42,0,0,1,1.44-.91,4.41,4.41,0,0,1,.54,0Zm-8.57,1.45a1.45,1.45,0,0,1,1.24-.62,1.6,1.6,0,0,1,1.5.9v2.91a1.59,1.59,0,0,1-1.51.93,1.44,1.44,0,0,1-1.23-.61,2.8,2.8,0,0,1-.44-1.69,3.08,3.08,0,0,1,.44-1.82m-1.53,1.78a3.74,3.74,0,0,0,.7,2.36,2.16,2.16,0,0,0,1.79.9,2.2,2.2,0,0,0,1.81-.8l.06.68h1v-9H55.42v3.31a2.35,2.35,0,0,0-3.58.12,3.73,3.73,0,0,0-.69,2.35Zm-5.24-1.78a1.46,1.46,0,0,1,1.25-.62,1.58,1.58,0,0,1,1.49.9v2.91a1.59,1.59,0,0,1-1.51.93,1.44,1.44,0,0,1-1.23-.61,2.88,2.88,0,0,1-.44-1.69,3.15,3.15,0,0,1,.44-1.82m-1.53,1.78a3.8,3.8,0,0,0,.7,2.36,2.16,2.16,0,0,0,1.79.9,2.23,2.23,0,0,0,1.82-.8l.05.68h1v-9H48.65v3.31a2.34,2.34,0,0,0-3.57.12,3.73,3.73,0,0,0-.7,2.35Zm-4.47-4,1.46,4h-2.9ZM42.52,250h1.15l-3.26-8.53h-1L36.16,250h1.16l.81-2.23H41.7Z"/><path d="M127.33,431a.67.67,0,0,0,.51.18.65.65,0,0,0,.5-.18.61.61,0,0,0,.18-.45.64.64,0,0,0-.18-.47.62.62,0,0,0-.5-.19.64.64,0,0,0-.51.19.67.67,0,0,0-.16.47.64.64,0,0,0,.16.45m0,5.17a.65.65,0,0,0,.5.18.69.69,0,0,0,.51-.18.64.64,0,0,0,.17-.45.62.62,0,0,0-.68-.66.65.65,0,0,0-.5.19.7.7,0,0,0-.17.47.64.64,0,0,0,.17.45m-3.67-7.76v1.54h-1.15v.84h1.15v3.93a1.94,1.94,0,0,0,.37,1.25,1.36,1.36,0,0,0,1.1.43,3,3,0,0,0,.83-.11v-.88a2.54,2.54,0,0,1-.52.08.64.64,0,0,1-.53-.2.83.83,0,0,1-.16-.57v-3.93h1.18v-.84h-1.18v-1.54Zm-7,1.54v6.34h1.08v-4.52a2,2,0,0,1,.62-.74,1.57,1.57,0,0,1,.93-.28,1.23,1.23,0,0,1,.95.33,1.47,1.47,0,0,1,.32,1v4.2h1.08v-4.19c0-1.51-.69-2.27-2-2.27a2.31,2.31,0,0,0-1.89.91l0-.79ZM114,436.25h1v-6.34h-1.08v4.61a1.64,1.64,0,0,1-1.66.93c-.78,0-1.17-.49-1.17-1.45v-4.09H110V434a2.58,2.58,0,0,0,.53,1.75,2,2,0,0,0,1.55.58,2.28,2.28,0,0,0,1.85-.74Zm-9.49-4.93a1.55,1.55,0,0,1,1.3-.64,1.58,1.58,0,0,1,1.31.65,2.7,2.7,0,0,1,.5,1.69,2.91,2.91,0,0,1-.49,1.81,1.65,1.65,0,0,1-2.62,0,2.67,2.67,0,0,1-.49-1.69,3,3,0,0,1,.49-1.83m-1.58,1.78a3.45,3.45,0,0,0,.8,2.37,2.65,2.65,0,0,0,2.09.89,2.74,2.74,0,0,0,1.51-.41,2.69,2.69,0,0,0,1-1.14,3.85,3.85,0,0,0,.35-1.66v-.08a3.44,3.44,0,0,0-.8-2.38,2.66,2.66,0,0,0-2.09-.9,2.75,2.75,0,0,0-1.49.41,2.64,2.64,0,0,0-1,1.14,3.7,3.7,0,0,0-.37,1.68Zm-10.24-3.19v6.34h1.09v-4.63a1.45,1.45,0,0,1,1.46-.91,1.21,1.21,0,0,1,1.35,1.38v4.16h1.09V432a1.46,1.46,0,0,1,.46-1,1.44,1.44,0,0,1,1-.36,1.37,1.37,0,0,1,1,.34,1.47,1.47,0,0,1,.31,1v4.19h1.08V432c0-1.47-.73-2.21-2.12-2.21a2.34,2.34,0,0,0-2,1,1.81,1.81,0,0,0-1.81-1,2.32,2.32,0,0,0-1.88.82l0-.7Zm-4.73-.8,1.46,4H86.5Zm2.61,7.14H91.7l-3.26-8.53h-1l-3.26,8.53h1.16l.81-2.23h3.57Zm-9.67-6.38a1.19,1.19,0,0,0-.48-.08,1.69,1.69,0,0,0-1.51.85l0-.73H77.82v6.34H78.9v-4.5a1.43,1.43,0,0,1,1.45-.91,2.93,2.93,0,0,1,.53,0ZM75,431.14a2.06,2.06,0,0,1,.44,1.28v.08H72.31a2.29,2.29,0,0,1,.55-1.34,1.43,1.43,0,0,1,1.1-.48,1.36,1.36,0,0,1,1.08.46m1.44,4-.66-.52a2.46,2.46,0,0,1-.7.63,1.93,1.93,0,0,1-1,.23,1.7,1.7,0,0,1-1.33-.58,2.26,2.26,0,0,1-.55-1.51h4.3v-.45a3.5,3.5,0,0,0-.69-2.33,2.36,2.36,0,0,0-1.92-.82,2.5,2.5,0,0,0-1.4.42,2.78,2.78,0,0,0-1,1.16,3.8,3.8,0,0,0-.36,1.68v.2a3.15,3.15,0,0,0,.81,2.27,2.75,2.75,0,0,0,2.09.84,2.64,2.64,0,0,0,2.39-1.22m-10.54-7.89H64.85v9h1.09v-4.52a1.94,1.94,0,0,1,.62-.74,1.52,1.52,0,0,1,.92-.28,1.24,1.24,0,0,1,1,.33,1.47,1.47,0,0,1,.32,1v4.2h1.08v-4.19c0-1.51-.69-2.27-2-2.27a2.3,2.3,0,0,0-1.87.89Zm-4.62,1.12v1.54H60.17v.84h1.15v3.93a1.88,1.88,0,0,0,.37,1.25,1.35,1.35,0,0,0,1.09.43,3.13,3.13,0,0,0,.84-.11v-.88a2.54,2.54,0,0,1-.52.08.67.67,0,0,1-.54-.2.88.88,0,0,1-.16-.57v-3.93h1.19v-.84H62.4v-1.54Zm-3,4a3.87,3.87,0,0,1-.62,2.28,2.17,2.17,0,0,1-3.39-.05,3.84,3.84,0,0,1-.62-2.31v-.63a3.78,3.78,0,0,1,.63-2.25,2,2,0,0,1,1.68-.81,2,2,0,0,1,1.71.81,3.87,3.87,0,0,1,.61,2.33Zm1.12-.62a5.35,5.35,0,0,0-.43-2.19,3.18,3.18,0,0,0-1.2-1.44A3.29,3.29,0,0,0,53,429.54a5.33,5.33,0,0,0-.43,2.18v.61a5.06,5.06,0,0,0,.45,2.13,3.17,3.17,0,0,0,3,1.9,3.29,3.29,0,0,0,1.81-.49A3.22,3.22,0,0,0,59,434.45a5.35,5.35,0,0,0,.43-2.19Z"/><path d="M250.31,686.76a.58.58,0,0,0,.47.18.62.62,0,0,0,.48-.18.6.6,0,0,0,.17-.44.64.64,0,0,0-.17-.45.62.62,0,0,0-.48-.18.58.58,0,0,0-.47.18.64.64,0,0,0-.17.45.6.6,0,0,0,.17.44m1-2.3a2,2,0,0,1,.42-1.36l.64-.64a2.94,2.94,0,0,0,.95-2,2.15,2.15,0,0,0-.62-1.63,2.35,2.35,0,0,0-1.72-.6,2.52,2.52,0,0,0-1.73.59,2,2,0,0,0-.68,1.53h1.08a1,1,0,0,1,.37-.85,1.41,1.41,0,0,1,1-.32,1.2,1.2,0,0,1,.93.35,1.33,1.33,0,0,1,.33,1,1.75,1.75,0,0,1-.5,1.19l-.76.79a2.92,2.92,0,0,0-.6.9,3.51,3.51,0,0,0-.16,1.1Zm-9-3.93v6.34h1.08v-4.52a1.92,1.92,0,0,1,.62-.73,1.58,1.58,0,0,1,.93-.29,1.27,1.27,0,0,1,1,.33,1.48,1.48,0,0,1,.31,1v4.19h1.09v-4.19c0-1.51-.69-2.27-2-2.27a2.31,2.31,0,0,0-1.9.92l0-.8Zm-5.55,1.41a1.66,1.66,0,0,1,2.61,0,2.72,2.72,0,0,1,.5,1.69,3,3,0,0,1-.49,1.82,1.67,1.67,0,0,1-2.62,0,2.7,2.7,0,0,1-.49-1.7,3,3,0,0,1,.49-1.83m-1.58,1.78a3.4,3.4,0,0,0,.8,2.37,2.66,2.66,0,0,0,2.09.9,2.82,2.82,0,0,0,1.51-.41,2.63,2.63,0,0,0,1-1.15,3.71,3.71,0,0,0,.36-1.66v-.07a3.47,3.47,0,0,0-.8-2.39,2.67,2.67,0,0,0-2.1-.9,2.71,2.71,0,0,0-2.51,1.56,3.76,3.76,0,0,0-.36,1.67Zm-2.46-4.43a.64.64,0,0,0,1.12-.44.65.65,0,0,0-.16-.45.73.73,0,0,0-1,0,.65.65,0,0,0-.16.45.61.61,0,0,0,.16.44m1,1.24h-1.08v6.34h1.08ZM229,679v1.53h-1.15v.84H229v3.93a1.87,1.87,0,0,0,.37,1.25,1.34,1.34,0,0,0,1.09.44,3.15,3.15,0,0,0,.84-.12V686a2.41,2.41,0,0,1-.52.07.67.67,0,0,1-.54-.19.92.92,0,0,1-.16-.57v-3.94h1.19v-.84h-1.19V679Zm-5.67,6.76a1,1,0,0,1-.34-.8c0-.78.66-1.16,2-1.16h.85v1.3a1.6,1.6,0,0,1-.66.68,1.9,1.9,0,0,1-1,.27,1.3,1.3,0,0,1-.87-.29m3.81,1.11v-.09a3.56,3.56,0,0,1-.23-1.39v-2.92a2,2,0,0,0-.64-1.51,2.54,2.54,0,0,0-1.72-.55,3.13,3.13,0,0,0-1.27.26,2.31,2.31,0,0,0-.91.7,1.54,1.54,0,0,0-.34.92h1.09a.86.86,0,0,1,.4-.71,1.6,1.6,0,0,1,1-.29,1.39,1.39,0,0,1,1,.33,1.22,1.22,0,0,1,.34.91v.5h-1.05a3.5,3.5,0,0,0-2.12.55,1.76,1.76,0,0,0-.76,1.53,1.71,1.71,0,0,0,.6,1.35,2.27,2.27,0,0,0,1.54.53,2.42,2.42,0,0,0,1.81-.79,2.39,2.39,0,0,0,.15.67Zm-11.68-6.34v6.34h1.09v-4.52a1.84,1.84,0,0,1,.62-.73,1.56,1.56,0,0,1,.93-.29,1.23,1.23,0,0,1,.95.33,1.48,1.48,0,0,1,.32,1v4.19h1.08v-4.19c0-1.51-.69-2.27-2-2.27a2.29,2.29,0,0,0-1.89.92l0-.8Zm-5.54,1.41a1.55,1.55,0,0,1,1.29-.63,1.58,1.58,0,0,1,1.32.64,2.71,2.71,0,0,1,.49,1.69,2.94,2.94,0,0,1-.49,1.82,1.55,1.55,0,0,1-1.31.64,1.59,1.59,0,0,1-1.31-.63,2.77,2.77,0,0,1-.49-1.7,3,3,0,0,1,.5-1.83m-1.59,1.78a3.45,3.45,0,0,0,.8,2.37,2.67,2.67,0,0,0,2.09.9,2.86,2.86,0,0,0,1.52-.41,2.7,2.7,0,0,0,1-1.15,3.71,3.71,0,0,0,.36-1.66v-.07a3.47,3.47,0,0,0-.8-2.39,2.69,2.69,0,0,0-2.1-.9,2.75,2.75,0,0,0-1.49.41,2.66,2.66,0,0,0-1,1.15,3.76,3.76,0,0,0-.37,1.67ZM203.13,682a1.45,1.45,0,0,1,1.24-.62,1.61,1.61,0,0,1,1.5.9v2.91a1.59,1.59,0,0,1-1.51.93,1.44,1.44,0,0,1-1.23-.61,2.8,2.8,0,0,1-.45-1.69,3.07,3.07,0,0,1,.45-1.82m-1.53,1.78a3.78,3.78,0,0,0,.69,2.36,2.19,2.19,0,0,0,1.8.9,2.21,2.21,0,0,0,1.81-.8l0,.68h1v-9h-1.08v3.31a2.22,2.22,0,0,0-1.77-.77,2.2,2.2,0,0,0-1.81.89,3.73,3.73,0,0,0-.69,2.35Zm-3.7-3.23a1,1,0,0,0-.48-.09,1.71,1.71,0,0,0-1.52.85v-.73h-1.06v6.34h1.09v-4.5a1.42,1.42,0,0,1,1.44-.91,4.56,4.56,0,0,1,.54,0Zm-5.75,6.37h1v-6.34H192.1v4.61a1.61,1.61,0,0,1-1.65.93q-1.17,0-1.17-1.44v-4.1h-1.09v4.13a2.58,2.58,0,0,0,.54,1.74,2,2,0,0,0,1.54.59,2.29,2.29,0,0,0,1.86-.75Zm-9.48-4.93a1.66,1.66,0,0,1,2.61,0,2.71,2.71,0,0,1,.49,1.69,3,3,0,0,1-.48,1.82,1.67,1.67,0,0,1-2.62,0,2.7,2.7,0,0,1-.49-1.7,3,3,0,0,1,.49-1.83m-1.58,1.78a3.4,3.4,0,0,0,.8,2.37,2.65,2.65,0,0,0,2.08.9,2.86,2.86,0,0,0,1.52-.41,2.63,2.63,0,0,0,1-1.15,3.71,3.71,0,0,0,.36-1.66v-.07a3.47,3.47,0,0,0-.8-2.39,2.68,2.68,0,0,0-2.1-.9,2.71,2.71,0,0,0-2.51,1.56,3.76,3.76,0,0,0-.36,1.67Zm-4.81-3.19h-1.19l2.26,6.27-.24.65a1.63,1.63,0,0,1-.5.81,1.44,1.44,0,0,1-.86.22l-.29,0v.88l.4.07.2,0c.86,0,1.49-.53,1.89-1.58l2.54-7.32h-1.16l-1.47,4.75Zm-4.46,0a1,1,0,0,0-.48-.09,1.71,1.71,0,0,0-1.52.85v-.73h-1.06v6.34h1.09v-4.5a1.42,1.42,0,0,1,1.44-.91,4.56,4.56,0,0,1,.54,0Zm-8.62,1.44a1.66,1.66,0,0,1,2.61,0,2.72,2.72,0,0,1,.5,1.69,2.94,2.94,0,0,1-.49,1.82,1.55,1.55,0,0,1-1.31.64,1.58,1.58,0,0,1-1.31-.63,2.7,2.7,0,0,1-.49-1.7,3,3,0,0,1,.49-1.83m-1.58,1.78a3.45,3.45,0,0,0,.8,2.37,2.66,2.66,0,0,0,2.09.9,2.82,2.82,0,0,0,1.51-.41,2.72,2.72,0,0,0,1-1.15,3.85,3.85,0,0,0,.35-1.66v-.07a3.42,3.42,0,0,0-.8-2.39,2.66,2.66,0,0,0-2.09-.9,2.75,2.75,0,0,0-1.49.41,2.66,2.66,0,0,0-1,1.15,3.63,3.63,0,0,0-.37,1.67Zm-2.26,3.15v-5.5h1.35v-.84h-1.35v-.67a1.24,1.24,0,0,1,.29-.88,1,1,0,0,1,.81-.31,3.7,3.7,0,0,1,.59.05l.06-.87a2.76,2.76,0,0,0-.75-.1,2,2,0,0,0-1.54.56,2.15,2.15,0,0,0-.54,1.57v.65h-1v.84h1v5.5Zm-7.27,0h1v-6.34H152v4.61a1.61,1.61,0,0,1-1.65.93q-1.17,0-1.17-1.44v-4.1h-1.09v4.13a2.58,2.58,0,0,0,.54,1.74,2,2,0,0,0,1.54.59,2.29,2.29,0,0,0,1.86-.75Zm-9.48-4.93a1.66,1.66,0,0,1,2.61,0,2.71,2.71,0,0,1,.49,1.69,3,3,0,0,1-.48,1.82,1.68,1.68,0,0,1-2.63,0,2.76,2.76,0,0,1-.48-1.7,3,3,0,0,1,.49-1.83M141,683.72a3.4,3.4,0,0,0,.8,2.37,2.64,2.64,0,0,0,2.08.9,2.86,2.86,0,0,0,1.52-.41,2.63,2.63,0,0,0,1-1.15,3.71,3.71,0,0,0,.36-1.66v-.07a3.47,3.47,0,0,0-.8-2.39,2.68,2.68,0,0,0-2.1-.9,2.71,2.71,0,0,0-2.51,1.56,3.76,3.76,0,0,0-.36,1.67Zm-4.82-3.19H135l2.26,6.27-.24.65a1.63,1.63,0,0,1-.5.81,1.46,1.46,0,0,1-.86.22l-.3,0v.88l.41.07.2,0c.86,0,1.49-.53,1.88-1.58l2.55-7.32h-1.16l-1.47,4.75ZM130,681.76a2.08,2.08,0,0,1,.44,1.28v.08h-3.17a2.32,2.32,0,0,1,.55-1.34,1.43,1.43,0,0,1,1.1-.47,1.38,1.38,0,0,1,1.08.45m1.45,4-.67-.51a2.53,2.53,0,0,1-.69.62,1.87,1.87,0,0,1-1,.23,1.72,1.72,0,0,1-1.33-.57,2.29,2.29,0,0,1-.55-1.52h4.3v-.45a3.5,3.5,0,0,0-.69-2.33,2.38,2.38,0,0,0-1.92-.82,2.52,2.52,0,0,0-1.4.42,2.86,2.86,0,0,0-1,1.16,3.85,3.85,0,0,0-.36,1.69v.2a3.13,3.13,0,0,0,.81,2.26,2.76,2.76,0,0,0,2.1.85,2.67,2.67,0,0,0,2.39-1.23m-6.33-4.46v-.77h-4.8v.9h3.44l-3.49,4.64v.8h5V686h-3.71Zm-7.29-2a.58.58,0,0,0,.47.18.6.6,0,0,0,.65-.62.66.66,0,0,0-.17-.45.62.62,0,0,0-.48-.18.58.58,0,0,0-.47.18.66.66,0,0,0-.17.45.62.62,0,0,0,.17.44m1,1.24h-1.09v6.34h1.09Zm-7.8,0v6.34h1.08v-4.52a1.92,1.92,0,0,1,.62-.73,1.58,1.58,0,0,1,.93-.29,1.27,1.27,0,0,1,1,.33,1.48,1.48,0,0,1,.31,1v4.19H116v-4.19c0-1.51-.68-2.27-2-2.27a2.31,2.31,0,0,0-1.9.92l0-.8ZM105.55,682a1.45,1.45,0,0,1,1.24-.62,1.61,1.61,0,0,1,1.49.91v2.9a1.58,1.58,0,0,1-1.5.93,1.44,1.44,0,0,1-1.23-.61,2.8,2.8,0,0,1-.44-1.69,3.15,3.15,0,0,1,.44-1.82m-.84,4.14a2.15,2.15,0,0,0,1.8.9,2.21,2.21,0,0,0,1.77-.75v.54a1.7,1.7,0,0,1-.44,1.26,1.68,1.68,0,0,1-1.23.44,2.12,2.12,0,0,1-1.71-.86l-.56.65a2.24,2.24,0,0,0,1,.8,3.22,3.22,0,0,0,1.34.3,2.69,2.69,0,0,0,2-.71,2.56,2.56,0,0,0,.73-1.94v-6.19h-1l0,.71a2.18,2.18,0,0,0-1.81-.83,2.22,2.22,0,0,0-1.82.88,3.76,3.76,0,0,0-.68,2.36,3.91,3.91,0,0,0,.69,2.44m-6-4.15a1.55,1.55,0,0,1,1.29-.63,1.58,1.58,0,0,1,1.32.64,2.71,2.71,0,0,1,.49,1.69,3,3,0,0,1-.48,1.82,1.68,1.68,0,0,1-2.63,0,2.77,2.77,0,0,1-.49-1.7,3,3,0,0,1,.5-1.83m-1.59,1.78a3.45,3.45,0,0,0,.8,2.37,2.67,2.67,0,0,0,2.09.9,2.86,2.86,0,0,0,1.52-.41,2.63,2.63,0,0,0,1-1.15,3.71,3.71,0,0,0,.36-1.66v-.07a3.47,3.47,0,0,0-.8-2.39,2.69,2.69,0,0,0-2.1-.9,2.78,2.78,0,0,0-1.49.41,2.66,2.66,0,0,0-1,1.15,3.76,3.76,0,0,0-.37,1.67Zm-4.74,1.79a2.72,2.72,0,0,1-.45-1.69v-.2a2.75,2.75,0,0,1,.46-1.72,1.5,1.5,0,0,1,1.28-.59,1.45,1.45,0,0,1,1,.39,1.48,1.48,0,0,1,.47,1h1a2.29,2.29,0,0,0-.75-1.66,2.56,2.56,0,0,0-1.77-.64,2.86,2.86,0,0,0-1.51.4,2.66,2.66,0,0,0-1,1.12,3.77,3.77,0,0,0-.34,1.65v.18a3.42,3.42,0,0,0,.76,2.36,2.61,2.61,0,0,0,2.06.87,2.78,2.78,0,0,0,1.23-.29,2.53,2.53,0,0,0,.92-.79,2,2,0,0,0,.37-1h-1a1.21,1.21,0,0,1-.48.88,1.54,1.54,0,0,1-1,.35,1.52,1.52,0,0,1-1.29-.59m-4-3.75a2.08,2.08,0,0,1,.44,1.28v.08H85.64a2.32,2.32,0,0,1,.55-1.34,1.42,1.42,0,0,1,1.1-.47,1.38,1.38,0,0,1,1.08.45m1.44,4-.66-.51a2.53,2.53,0,0,1-.69.62,1.87,1.87,0,0,1-1,.23,1.72,1.72,0,0,1-1.33-.57A2.29,2.29,0,0,1,85.6,684h4.3v-.45a3.5,3.5,0,0,0-.69-2.33,2.39,2.39,0,0,0-1.92-.82,2.52,2.52,0,0,0-1.4.42,2.78,2.78,0,0,0-1,1.16,3.85,3.85,0,0,0-.36,1.69v.2a3.13,3.13,0,0,0,.81,2.26,2.74,2.74,0,0,0,2.09.85,2.65,2.65,0,0,0,2.39-1.23m-5.9-5.26a1,1,0,0,0-.48-.09,1.69,1.69,0,0,0-1.51.85l0-.73H80.84v6.34h1.09v-4.5a1.42,1.42,0,0,1,1.44-.91,4.41,4.41,0,0,1,.54,0Zm-8.82,1.26a2.09,2.09,0,0,1,.45,1.28v.08H72.36a2.32,2.32,0,0,1,.55-1.34,1.43,1.43,0,0,1,1.1-.47,1.38,1.38,0,0,1,1.08.45m1.45,4-.67-.51a2.39,2.39,0,0,1-.69.62,1.86,1.86,0,0,1-1,.23,1.75,1.75,0,0,1-1.34-.57,2.29,2.29,0,0,1-.55-1.52h4.3v-.45a3.5,3.5,0,0,0-.69-2.33,2.37,2.37,0,0,0-1.92-.82,2.52,2.52,0,0,0-1.4.42,2.86,2.86,0,0,0-1,1.16,3.85,3.85,0,0,0-.36,1.69v.2a3.13,3.13,0,0,0,.81,2.26,2.76,2.76,0,0,0,2.1.85,2.66,2.66,0,0,0,2.39-1.23m-9.93-5.23h-.88l-1.47,4.75L63,680.53H61.93l1.84,6.34h.88l1.5-4.8,1.54,4.8h.88l1.84-6.34H69.33l-1.22,4.85Zm-12.27,0H53.16l2.26,6.27-.24.65a1.57,1.57,0,0,1-.51.81,1.42,1.42,0,0,1-.86.22l-.29,0v.88l.41.07.2,0c.86,0,1.49-.53,1.88-1.58l2.55-7.32H57.4l-1.48,4.75Zm-5.69,5.23a1,1,0,0,1-.34-.8c0-.78.67-1.16,2-1.16h.85v1.3a1.49,1.49,0,0,1-.66.68,1.84,1.84,0,0,1-1,.27,1.33,1.33,0,0,1-.88-.29m3.81,1.11v-.09a3.58,3.58,0,0,1-.22-1.39v-2.92a2,2,0,0,0-.65-1.51,2.51,2.51,0,0,0-1.71-.55,3.1,3.1,0,0,0-1.27.26,2.35,2.35,0,0,0-.92.7,1.53,1.53,0,0,0-.33.92h1.09a.87.87,0,0,1,.39-.71,1.62,1.62,0,0,1,1-.29,1.37,1.37,0,0,1,1,.33,1.22,1.22,0,0,1,.34.91v.5h-1a3.52,3.52,0,0,0-2.12.55,1.77,1.77,0,0,0-.75,1.53,1.71,1.71,0,0,0,.6,1.35,2.25,2.25,0,0,0,1.54.53,2.38,2.38,0,0,0,1.8-.79,2.39,2.39,0,0,0,.15.67ZM37.1,678.34v8.53h1.13v-3.32L38.12,680l2.79,6.89h.86l2.8-6.91-.1,3.59v3.32h1.12v-8.53H44.13l-2.78,7-2.79-7Z"/></g><line class="cls-6" x1="36" y1="185.98" x2="270" y2="185.98"/><line class="cls-6" x1="36" y1="478.7" x2="270" y2="478.7"/><line class="cls-6" x1="36" y1="523.49" x2="270" y2="523.49"/><line class="cls-6" x1="36" y1="666.4" x2="270" y2="666.4"/><line class="cls-6" x1="36" y1="567.23" x2="270" y2="567.23"/><line class="cls-6" x1="36" y1="229.33" x2="270" y2="229.33"/><line class="cls-6" x1="36" y1="337.04" x2="270" y2="337.04"/><line class="cls-6" x1="36" y1="379.88" x2="270" y2="379.88"/><line class="cls-6" x1="135.38" y1="435.75" x2="270" y2="435.75"/><line class="cls-6" x1="36" y1="145.7" x2="270" y2="145.7"/><g class="cls-3"><path d="M85.9,403.73a3.9,3.9,0,0,1-.41,2,1.45,1.45,0,0,1-2.4,0,4,4,0,0,1-.41-2v-1.74a3.79,3.79,0,0,1,.4-1.92,1.3,1.3,0,0,1,1.21-.63,1.31,1.31,0,0,1,1.22.63,4,4,0,0,1,.39,2ZM87,402a4.71,4.71,0,0,0-.66-2.72,2.36,2.36,0,0,0-2-.88,2.32,2.32,0,0,0-2,.91,4.88,4.88,0,0,0-.65,2.8v1.44a4.73,4.73,0,0,0,.68,2.71,2.34,2.34,0,0,0,2,.9,2.29,2.29,0,0,0,2-.92,4.91,4.91,0,0,0,.65-2.83Zm-7.82,1.7a4,4,0,0,1-.4,2,1.45,1.45,0,0,1-2.41,0,4,4,0,0,1-.4-2v-1.74a3.7,3.7,0,0,1,.39-1.92,1.31,1.31,0,0,1,1.21-.63,1.34,1.34,0,0,1,1.23.63,4.08,4.08,0,0,1,.38,2Zm1.09-1.7a4.78,4.78,0,0,0-.67-2.72,2.76,2.76,0,0,0-4.07,0,4.88,4.88,0,0,0-.65,2.8v1.44a4.73,4.73,0,0,0,.68,2.71,2.72,2.72,0,0,0,4.06,0,5,5,0,0,0,.65-2.83Zm-10.73,1,.29-.23a1.76,1.76,0,0,1,1.11-.31,1.57,1.57,0,0,1,1.24.52,2,2,0,0,1,.47,1.37,2.11,2.11,0,0,1-.43,1.42,1.45,1.45,0,0,1-1.19.52,1.6,1.6,0,0,1-1.11-.37,1.71,1.71,0,0,1-.52-1.11h-1a2.52,2.52,0,0,0,.82,1.74,2.66,2.66,0,0,0,1.84.62,2.61,2.61,0,0,0,2-.75,2.9,2.9,0,0,0,.71-2.08,3,3,0,0,0-.68-2.08,2.35,2.35,0,0,0-1.85-.78,2.82,2.82,0,0,0-1.43.37l.26-2.32h3.45v-1H69.09l-.43,4.25Zm-2.91,4.81a2.74,2.74,0,0,0,.29-1.19v-.85H65.84v1a2.82,2.82,0,0,1-.58,1.58l.62.43a2.83,2.83,0,0,0,.73-.95m-2-1.64H60.37l2.29-2.48a4.87,4.87,0,0,0,1.6-3,2.14,2.14,0,0,0-.69-1.66,2.73,2.73,0,0,0-1.88-.62,2.79,2.79,0,0,0-2,.73,2.48,2.48,0,0,0-.76,1.9H60a1.75,1.75,0,0,1,.45-1.28,1.67,1.67,0,0,1,1.26-.46,1.4,1.4,0,0,1,1.08.43,1.51,1.51,0,0,1,.4,1.09,2,2,0,0,1-.25,1A6.66,6.66,0,0,1,62,403l-3,3.28v.78h5.59Zm-8.46-.3a1.83,1.83,0,0,1-1.2.37,1.64,1.64,0,0,1-1.22-.44,1.76,1.76,0,0,1-.42-1.26H52.26a2.63,2.63,0,0,0,.62,1.84,2.54,2.54,0,0,0,1.71.78v1.12h.87v-1.12a2.66,2.66,0,0,0,1.66-.72,2.15,2.15,0,0,0,.6-1.59,2.34,2.34,0,0,0-.24-1.09,2.26,2.26,0,0,0-.74-.81,5.7,5.7,0,0,0-1.39-.64,3.65,3.65,0,0,1-1.29-.64,1.24,1.24,0,0,1-.39-1,1.35,1.35,0,0,1,.37-1,1.47,1.47,0,0,1,1.07-.36,1.3,1.3,0,0,1,1.06.48,2.07,2.07,0,0,1,.39,1.32h1.08a2.93,2.93,0,0,0-.55-1.89,2.24,2.24,0,0,0-1.53-.83v-1.29h-.87v1.29a2.34,2.34,0,0,0-1.54.73,2.25,2.25,0,0,0-.56,1.57,2.21,2.21,0,0,0,.57,1.56,4,4,0,0,0,1.82,1,3.56,3.56,0,0,1,1.28.67,1.34,1.34,0,0,1-.07,1.92"/><path d="M68.94,710.52a1.81,1.81,0,0,1-1,.25,1.7,1.7,0,0,1-1.07-.32,1.14,1.14,0,0,1-.44-.87H65.36a1.81,1.81,0,0,0,.33,1,2.21,2.21,0,0,0,.92.75,3.18,3.18,0,0,0,1.34.27,2.88,2.88,0,0,0,1.77-.51,1.63,1.63,0,0,0,.68-1.36,1.46,1.46,0,0,0-.25-.87,1.9,1.9,0,0,0-.74-.6,5.8,5.8,0,0,0-1.32-.44,3.91,3.91,0,0,1-1.12-.38.65.65,0,0,1-.31-.59.8.8,0,0,1,.33-.67,1.45,1.45,0,0,1,.93-.26,1.38,1.38,0,0,1,1,.32,1,1,0,0,1,.38.77h1.09a1.8,1.8,0,0,0-.67-1.43,2.66,2.66,0,0,0-1.75-.55,2.58,2.58,0,0,0-1.69.54,1.63,1.63,0,0,0-.66,1.31,1.34,1.34,0,0,0,.24.81,1.85,1.85,0,0,0,.71.59,5.77,5.77,0,0,0,1.31.42,3.23,3.23,0,0,1,1.15.42.8.8,0,0,1,.33.68.77.77,0,0,1-.37.67m-6.1-4.1a2.08,2.08,0,0,1,.44,1.28v.08H60.11a2.32,2.32,0,0,1,.55-1.34,1.47,1.47,0,0,1,1.1-.47,1.38,1.38,0,0,1,1.08.45m1.45,4-.67-.52a2.37,2.37,0,0,1-.69.62,1.87,1.87,0,0,1-1,.24,1.73,1.73,0,0,1-1.33-.58,2.29,2.29,0,0,1-.55-1.52h4.3v-.45a3.5,3.5,0,0,0-.69-2.33,2.39,2.39,0,0,0-1.92-.81,2.52,2.52,0,0,0-1.4.42,2.73,2.73,0,0,0-1,1.16,3.77,3.77,0,0,0-.36,1.68v.2a3.13,3.13,0,0,0,.81,2.26,2.75,2.75,0,0,0,2.09.85,2.69,2.69,0,0,0,2.4-1.22M53,703H51.71l2.94,5.35v3.18h1.12v-3.18L58.71,703H57.44l-2.23,4.29Z"/><path d="M264.61,710.52a1.81,1.81,0,0,1-1,.25,1.73,1.73,0,0,1-1.08-.32,1.13,1.13,0,0,1-.43-.87H261a1.81,1.81,0,0,0,.33,1,2.21,2.21,0,0,0,.92.75,3.19,3.19,0,0,0,1.35.27,2.85,2.85,0,0,0,1.76-.51,1.61,1.61,0,0,0,.68-1.36,1.53,1.53,0,0,0-.24-.87,1.86,1.86,0,0,0-.75-.6,5.54,5.54,0,0,0-1.31-.44,4,4,0,0,1-1.13-.38.67.67,0,0,1-.31-.59.81.81,0,0,1,.34-.67,1.67,1.67,0,0,1,1.88.06,1,1,0,0,1,.37.77H266a1.77,1.77,0,0,0-.67-1.43,2.64,2.64,0,0,0-1.75-.55,2.57,2.57,0,0,0-1.68.54,1.63,1.63,0,0,0-.66,1.31,1.41,1.41,0,0,0,.23.81,1.89,1.89,0,0,0,.72.59,5.67,5.67,0,0,0,1.3.42,3.3,3.3,0,0,1,1.16.42.83.83,0,0,1,0,1.35m-6,1h1v-6.34h-1.08v4.62a1.64,1.64,0,0,1-1.66.92q-1.17,0-1.17-1.44v-4.1h-1.08v4.13a2.53,2.53,0,0,0,.53,1.74,2,2,0,0,0,1.55.59,2.35,2.35,0,0,0,1.86-.74Zm-9.49-4.92a1.55,1.55,0,0,1,1.3-.64,1.57,1.57,0,0,1,1.31.64,2.75,2.75,0,0,1,.5,1.7,2.93,2.93,0,0,1-.49,1.81,1.55,1.55,0,0,1-1.31.65,1.58,1.58,0,0,1-1.31-.64,2.7,2.7,0,0,1-.49-1.7,2.9,2.9,0,0,1,.49-1.82m-1.58,1.77a3.42,3.42,0,0,0,.8,2.37,2.66,2.66,0,0,0,2.09.9,2.82,2.82,0,0,0,1.51-.41,2.69,2.69,0,0,0,1-1.14,3.9,3.9,0,0,0,.35-1.67v-.07a3.44,3.44,0,0,0-.8-2.39,2.68,2.68,0,0,0-2.09-.89,2.75,2.75,0,0,0-1.49.4,2.66,2.66,0,0,0-1,1.15,3.67,3.67,0,0,0-.37,1.68Zm-10.24-3.19v6.34h1.09V706.9a1.45,1.45,0,0,1,1.46-.9,1.21,1.21,0,0,1,1.35,1.38v4.15h1.09v-4.2a1.4,1.4,0,0,1,1.47-1.33,1.4,1.4,0,0,1,1,.33,1.47,1.47,0,0,1,.31,1v4.18h1.08v-4.24c0-1.48-.73-2.21-2.12-2.21a2.34,2.34,0,0,0-2,1,1.81,1.81,0,0,0-1.81-1,2.32,2.32,0,0,0-1.88.82l0-.71Zm-5.18,0h-1.18l2.26,6.27-.24.65a1.63,1.63,0,0,1-.5.81,1.46,1.46,0,0,1-.86.23l-.3,0V714l.41.08h.2c.86,0,1.49-.52,1.88-1.58l2.55-7.32h-1.16L233.71,710Zm-7.11,0v6.34h1.09V707a1.79,1.79,0,0,1,.62-.74,1.52,1.52,0,0,1,.92-.28,1.28,1.28,0,0,1,1,.32,1.43,1.43,0,0,1,.31,1v4.19H230v-4.19c0-1.51-.69-2.26-2-2.26a2.32,2.32,0,0,0-1.9.91l0-.8Zm-5.55,1.42a1.55,1.55,0,0,1,1.3-.64,1.57,1.57,0,0,1,1.31.64,2.75,2.75,0,0,1,.5,1.7,2.93,2.93,0,0,1-.49,1.81,1.55,1.55,0,0,1-1.31.65,1.58,1.58,0,0,1-1.31-.64,2.7,2.7,0,0,1-.49-1.7,2.9,2.9,0,0,1,.49-1.82m-1.58,1.77a3.42,3.42,0,0,0,.8,2.37,2.66,2.66,0,0,0,2.09.9,2.82,2.82,0,0,0,1.51-.41,2.69,2.69,0,0,0,1-1.14,3.9,3.9,0,0,0,.35-1.67v-.07a3.44,3.44,0,0,0-.8-2.39,2.68,2.68,0,0,0-2.09-.89,2.75,2.75,0,0,0-1.49.4,2.66,2.66,0,0,0-1,1.15,3.67,3.67,0,0,0-.37,1.68Zm-6.33-3.19v6.34h1.08V707a2,2,0,0,1,.62-.74,1.57,1.57,0,0,1,.93-.28,1.31,1.31,0,0,1,1,.32,1.53,1.53,0,0,1,.31,1v4.19h1.08v-4.19c0-1.51-.68-2.26-2-2.26a2.29,2.29,0,0,0-1.9.91l0-.8Zm-5.29,5.23a1,1,0,0,1-.34-.8c0-.77.67-1.16,2-1.16h.85v1.3a1.49,1.49,0,0,1-.66.68,1.87,1.87,0,0,1-1,.27,1.32,1.32,0,0,1-.87-.29m3.81,1.11v-.09a3.55,3.55,0,0,1-.22-1.39v-2.92a2,2,0,0,0-.65-1.51,2.51,2.51,0,0,0-1.71-.54,3.1,3.1,0,0,0-1.27.25,2.45,2.45,0,0,0-.92.7,1.55,1.55,0,0,0-.33.92h1.09a.87.87,0,0,1,.39-.71,1.6,1.6,0,0,1,1-.29,1.33,1.33,0,0,1,1,.34,1.18,1.18,0,0,1,.34.9v.5h-1a3.52,3.52,0,0,0-2.12.55,1.79,1.79,0,0,0-.75,1.54,1.71,1.71,0,0,0,.6,1.34,2.25,2.25,0,0,0,1.54.53,2.41,2.41,0,0,0,1.8-.78,2.3,2.3,0,0,0,.15.66Zm-10.8-5.11a2.08,2.08,0,0,1,.44,1.28v.08h-3.18a2.39,2.39,0,0,1,.56-1.34,1.45,1.45,0,0,1,1.1-.47,1.38,1.38,0,0,1,1.08.45m1.44,4-.66-.52a2.29,2.29,0,0,1-.7.62,1.84,1.84,0,0,1-1,.24,1.73,1.73,0,0,1-1.33-.58,2.29,2.29,0,0,1-.55-1.52h4.29v-.45a3.5,3.5,0,0,0-.68-2.33,2.39,2.39,0,0,0-1.92-.81,2.56,2.56,0,0,0-1.41.42,2.71,2.71,0,0,0-1,1.16,3.77,3.77,0,0,0-.36,1.68v.2a3.17,3.17,0,0,0,.8,2.26,2.76,2.76,0,0,0,2.1.85,2.67,2.67,0,0,0,2.39-1.22m-7.9-.3a1.42,1.42,0,0,1-1.21.6,1.63,1.63,0,0,1-1.56-1V707a1.6,1.6,0,0,1,1.54-1,1.41,1.41,0,0,1,1.23.6,2.88,2.88,0,0,1,.43,1.71,3.11,3.11,0,0,1-.43,1.82m1.52-1.79a3.88,3.88,0,0,0-.66-2.39,2.16,2.16,0,0,0-1.82-.87,2.2,2.2,0,0,0-1.81.81v-3.36H189v9h1l.06-.73a2.18,2.18,0,0,0,1.85.85,2.15,2.15,0,0,0,1.8-.88,3.82,3.82,0,0,0,.67-2.34Zm-13.89-1.73a1.55,1.55,0,0,1,1.29-.64,1.58,1.58,0,0,1,1.32.64,2.74,2.74,0,0,1,.49,1.7,3,3,0,0,1-.48,1.81,1.65,1.65,0,0,1-2.62,0,2.7,2.7,0,0,1-.49-1.7,2.9,2.9,0,0,1,.49-1.82m-1.58,1.77a3.37,3.37,0,0,0,.8,2.37,2.66,2.66,0,0,0,2.09.9,2.82,2.82,0,0,0,1.51-.41,2.61,2.61,0,0,0,1-1.14,3.76,3.76,0,0,0,.36-1.67v-.07a3.49,3.49,0,0,0-.8-2.39,2.69,2.69,0,0,0-2.1-.89,2.68,2.68,0,0,0-2.51,1.55,3.8,3.8,0,0,0-.36,1.68Zm-3.13-4.72v1.53h-1.16V706h1.16V710a1.87,1.87,0,0,0,.37,1.25,1.34,1.34,0,0,0,1.09.44,3.15,3.15,0,0,0,.84-.12v-.87a2.48,2.48,0,0,1-.52.07.67.67,0,0,1-.54-.19.86.86,0,0,1-.16-.57V706H178v-.84h-1.19v-1.53Zm-6.14,2.76a2.08,2.08,0,0,1,.44,1.28v.08h-3.17a2.32,2.32,0,0,1,.55-1.34,1.45,1.45,0,0,1,1.1-.47,1.38,1.38,0,0,1,1.08.45m1.44,4-.66-.52a2.37,2.37,0,0,1-.69.62,1.87,1.87,0,0,1-1,.24,1.73,1.73,0,0,1-1.33-.58,2.29,2.29,0,0,1-.55-1.52h4.3v-.45a3.5,3.5,0,0,0-.69-2.33,2.39,2.39,0,0,0-1.92-.81,2.52,2.52,0,0,0-1.4.42,2.67,2.67,0,0,0-1,1.16,3.77,3.77,0,0,0-.36,1.68v.2a3.13,3.13,0,0,0,.81,2.26,2.74,2.74,0,0,0,2.09.85,2.66,2.66,0,0,0,2.39-1.22m-7,1.1h1.27l-2.76-3.69,2.47-2.65h-1.32l-2,2.09-.58.7v-5.45h-1.09v9h1.09v-2.22l.68-.71ZM157.3,704a.65.65,0,0,0,1.13-.44.64.64,0,0,0-.17-.44.73.73,0,0,0-1,0,.68.68,0,0,0-.16.44.66.66,0,0,0,.16.44m1,1.24h-1.08v6.34h1.08Zm-2.91-2.66h-1.08v9h1.08Zm-9.65,4.08A1.44,1.44,0,0,1,147,706a1.61,1.61,0,0,1,1.5.89v2.92a1.59,1.59,0,0,1-1.51.92,1.44,1.44,0,0,1-1.23-.61,2.78,2.78,0,0,1-.44-1.69,3.08,3.08,0,0,1,.44-1.82m-1.53,1.78a3.72,3.72,0,0,0,.7,2.36,2.33,2.33,0,0,0,3.6.1l.06.68h1v-9h-1.08v3.31a2.37,2.37,0,0,0-3.58.12,3.75,3.75,0,0,0-.69,2.35Zm-1-3.93a2.59,2.59,0,0,0,.29-1.16v-.77h-1.07v.85a2.8,2.8,0,0,1-.56,1.6l.61.42a2.58,2.58,0,0,0,.73-.94M140.55,703h-1.13v8.53h1.13Zm-6,9.28a2.7,2.7,0,0,0,.29-1.18v-.85h-1.06v1a2.85,2.85,0,0,1-.58,1.58l.62.42a2.74,2.74,0,0,0,.73-1m-6.24-5.67a1.53,1.53,0,0,1,1.29-.64,1.58,1.58,0,0,1,1.32.64,2.74,2.74,0,0,1,.49,1.7,3,3,0,0,1-.48,1.81,1.66,1.66,0,0,1-2.63,0,2.77,2.77,0,0,1-.49-1.7,2.9,2.9,0,0,1,.5-1.82m-1.59,1.77a3.42,3.42,0,0,0,.8,2.37,2.67,2.67,0,0,0,2.09.9,2.86,2.86,0,0,0,1.52-.41,2.61,2.61,0,0,0,1-1.14,3.76,3.76,0,0,0,.36-1.67v-.07a3.49,3.49,0,0,0-.8-2.39,2.72,2.72,0,0,0-2.1-.89,2.77,2.77,0,0,0-1.49.4,2.66,2.66,0,0,0-1,1.15,3.81,3.81,0,0,0-.37,1.68ZM125.17,703h-1.12v6.61l-4.3-6.61h-1.13v8.53h1.13V705l4.29,6.57h1.13Z"/></g><rect class="cls-7" x="36.5" y="397.24" width="10.68" height="10.68"/><rect class="cls-7" x="36.5" y="426.41" width="10.68" height="10.68"/><g class="cls-3"><path d="M173.6,403.73a3.91,3.91,0,0,1-.4,2,1.45,1.45,0,0,1-2.41,0,4,4,0,0,1-.4-2v-1.74a3.7,3.7,0,0,1,.39-1.92,1.31,1.31,0,0,1,1.21-.63,1.34,1.34,0,0,1,1.23.63,4.08,4.08,0,0,1,.38,2Zm1.09-1.7a4.78,4.78,0,0,0-.67-2.72,2.76,2.76,0,0,0-4.07,0,4.88,4.88,0,0,0-.65,2.8v1.44a4.73,4.73,0,0,0,.68,2.71,2.72,2.72,0,0,0,4.06,0,5,5,0,0,0,.65-2.83Zm-7.83,1.7a3.91,3.91,0,0,1-.4,2,1.45,1.45,0,0,1-2.41,0,4,4,0,0,1-.4-2v-1.74A3.91,3.91,0,0,1,164,400a1.31,1.31,0,0,1,1.21-.63,1.34,1.34,0,0,1,1.23.63,4,4,0,0,1,.38,2ZM168,402a4.7,4.7,0,0,0-.67-2.72,2.76,2.76,0,0,0-4.07,0,4.88,4.88,0,0,0-.65,2.8v1.44a4.81,4.81,0,0,0,.68,2.71,2.72,2.72,0,0,0,4.06,0,5,5,0,0,0,.65-2.83Zm-7.82,1.7a4,4,0,0,1-.41,2,1.45,1.45,0,0,1-2.41,0,4,4,0,0,1-.4-2v-1.74a3.91,3.91,0,0,1,.39-1.92,1.32,1.32,0,0,1,1.21-.63,1.34,1.34,0,0,1,1.23.63,4,4,0,0,1,.39,2Zm1.08-1.7a4.63,4.63,0,0,0-.67-2.72,2.34,2.34,0,0,0-2-.88,2.31,2.31,0,0,0-2,.91,4.8,4.8,0,0,0-.65,2.8v1.44a4.74,4.74,0,0,0,.67,2.71,2.35,2.35,0,0,0,2,.9,2.29,2.29,0,0,0,2-.92,5,5,0,0,0,.65-2.83Zm-6.9,5.8a2.74,2.74,0,0,0,.29-1.19v-.85h-1.06v1a2.88,2.88,0,0,1-.57,1.58l.61.43a2.83,2.83,0,0,0,.73-.95M148.13,403l.29-.23a1.76,1.76,0,0,1,1.11-.31,1.57,1.57,0,0,1,1.24.52,2,2,0,0,1,.47,1.37,2.17,2.17,0,0,1-.43,1.42,1.46,1.46,0,0,1-1.19.52,1.6,1.6,0,0,1-1.11-.37,1.71,1.71,0,0,1-.52-1.11h-1a2.56,2.56,0,0,0,.81,1.74,2.71,2.71,0,0,0,1.85.62,2.62,2.62,0,0,0,2-.75,3,3,0,0,0,.71-2.08,3,3,0,0,0-.68-2.08,2.36,2.36,0,0,0-1.86-.78,2.81,2.81,0,0,0-1.42.37l.26-2.32h3.45v-1H147.7l-.44,4.25Zm-4.23,2.87a1.88,1.88,0,0,1-1.21.37,1.6,1.6,0,0,1-1.21-.44,1.72,1.72,0,0,1-.43-1.26H140a2.63,2.63,0,0,0,.62,1.84,2.54,2.54,0,0,0,1.71.78v1.12h.87v-1.12a2.66,2.66,0,0,0,1.66-.72,2.15,2.15,0,0,0,.6-1.59,2.34,2.34,0,0,0-.24-1.09,2.26,2.26,0,0,0-.74-.81,5.7,5.7,0,0,0-1.39-.64,3.59,3.59,0,0,1-1.28-.64,1.24,1.24,0,0,1-.39-1,1.31,1.31,0,0,1,.37-1,1.45,1.45,0,0,1,1.06-.36,1.29,1.29,0,0,1,1.06.48,2.07,2.07,0,0,1,.39,1.32h1.08a2.93,2.93,0,0,0-.55-1.89,2.24,2.24,0,0,0-1.53-.83v-1.29h-.87v1.29a2.34,2.34,0,0,0-1.54.73,2.25,2.25,0,0,0-.56,1.57,2.21,2.21,0,0,0,.57,1.56,4,4,0,0,0,1.82,1A3.48,3.48,0,0,1,144,404a1.23,1.23,0,0,1,.37.91,1.25,1.25,0,0,1-.43,1"/></g><rect class="cls-7" x="124.2" y="397.24" width="10.68" height="10.68"/><g class="cls-3"><path d="M268,403.73a3.9,3.9,0,0,1-.41,2,1.45,1.45,0,0,1-2.4,0,4,4,0,0,1-.4-2v-1.74a3.7,3.7,0,0,1,.39-1.92,1.31,1.31,0,0,1,1.21-.63,1.34,1.34,0,0,1,1.23.63,4.08,4.08,0,0,1,.38,2Zm1.09-1.7a4.78,4.78,0,0,0-.67-2.72,2.36,2.36,0,0,0-2-.88,2.33,2.33,0,0,0-2,.91,4.88,4.88,0,0,0-.65,2.8v1.44a4.73,4.73,0,0,0,.68,2.71,2.72,2.72,0,0,0,4.06,0,5,5,0,0,0,.65-2.83Zm-7.83,1.7a3.91,3.91,0,0,1-.4,2,1.45,1.45,0,0,1-2.41,0,4,4,0,0,1-.4-2v-1.74a3.8,3.8,0,0,1,.39-1.92,1.31,1.31,0,0,1,1.21-.63,1.34,1.34,0,0,1,1.23.63,4.08,4.08,0,0,1,.38,2Zm1.09-1.7a4.7,4.7,0,0,0-.67-2.72,2.76,2.76,0,0,0-4.07,0,4.88,4.88,0,0,0-.65,2.8v1.44a4.73,4.73,0,0,0,.68,2.71,2.72,2.72,0,0,0,4.06,0,5,5,0,0,0,.65-2.83Zm-7.82,1.7a4,4,0,0,1-.41,2,1.45,1.45,0,0,1-2.41,0,4,4,0,0,1-.4-2v-1.74a3.91,3.91,0,0,1,.39-1.92,1.31,1.31,0,0,1,1.21-.63,1.34,1.34,0,0,1,1.23.63,4,4,0,0,1,.39,2Zm1.08-1.7a4.7,4.7,0,0,0-.67-2.72,2.76,2.76,0,0,0-4.07,0,4.88,4.88,0,0,0-.65,2.8v1.44a4.81,4.81,0,0,0,.68,2.71,2.35,2.35,0,0,0,2,.9,2.29,2.29,0,0,0,2-.92,5,5,0,0,0,.65-2.83Zm-6.9,5.8a2.74,2.74,0,0,0,.29-1.19v-.85H248v1a2.88,2.88,0,0,1-.57,1.58l.61.43a2.83,2.83,0,0,0,.73-.95m-3.28-4.1a3.9,3.9,0,0,1-.41,2,1.45,1.45,0,0,1-2.4,0,4,4,0,0,1-.41-2v-1.74a3.79,3.79,0,0,1,.4-1.92,1.49,1.49,0,0,1,2.43,0,4,4,0,0,1,.39,2Zm1.09-1.7a4.78,4.78,0,0,0-.67-2.72,2.36,2.36,0,0,0-2-.88,2.32,2.32,0,0,0-2,.91,4.88,4.88,0,0,0-.65,2.8v1.44a4.73,4.73,0,0,0,.68,2.71,2.72,2.72,0,0,0,4.06,0,5,5,0,0,0,.65-2.83ZM238,398.5h-.17l-3.11,1.17v1l2.19-.81v7.23H238Zm-6.43,7.39a1.88,1.88,0,0,1-1.21.37,1.62,1.62,0,0,1-1.21-.44,1.72,1.72,0,0,1-.43-1.26h-1.09a2.63,2.63,0,0,0,.62,1.84,2.57,2.57,0,0,0,1.71.78v1.12h.87v-1.12a2.71,2.71,0,0,0,1.67-.72,2.18,2.18,0,0,0,.59-1.59,2.34,2.34,0,0,0-.24-1.09,2.26,2.26,0,0,0-.74-.81,5.52,5.52,0,0,0-1.39-.64,3.59,3.59,0,0,1-1.28-.64,1.24,1.24,0,0,1-.39-1,1.31,1.31,0,0,1,.37-1,1.45,1.45,0,0,1,1.06-.36,1.29,1.29,0,0,1,1.06.48,2.08,2.08,0,0,1,.4,1.32H233a3,3,0,0,0-.54-1.89,2.29,2.29,0,0,0-1.54-.83v-1.29h-.87v1.29a2.36,2.36,0,0,0-1.54.73,2.25,2.25,0,0,0-.56,1.57,2.21,2.21,0,0,0,.57,1.56,4.09,4.09,0,0,0,1.82,1,3.48,3.48,0,0,1,1.28.67,1.24,1.24,0,0,1,.38.91,1.26,1.26,0,0,1-.44,1"/></g><rect class="cls-7" x="211.9" y="397.24" width="10.68" height="10.68"/><rect class="cls-7" x="36.5" y="701.69" width="10.68" height="10.68"/><rect class="cls-7" x="102.51" y="701.69" width="10.68" height="10.68"/><g class="cls-3"><path d="M74.05,311.55H73v9h1.09V316a1.87,1.87,0,0,1,.62-.74,1.52,1.52,0,0,1,.92-.28,1.24,1.24,0,0,1,1,.33,1.45,1.45,0,0,1,.32,1v4.2H78v-4.19c0-1.52-.69-2.27-2-2.27a2.29,2.29,0,0,0-1.87.88Zm-4,8a2,2,0,0,1-2.07-.07,1.12,1.12,0,0,1-.43-.87H66.51a1.81,1.81,0,0,0,.33,1.05,2.21,2.21,0,0,0,.92.75,3.19,3.19,0,0,0,1.35.27,2.85,2.85,0,0,0,1.76-.51,1.63,1.63,0,0,0,.68-1.36,1.53,1.53,0,0,0-.24-.87,2,2,0,0,0-.75-.6,5.54,5.54,0,0,0-1.31-.44,3.6,3.6,0,0,1-1.13-.38.67.67,0,0,1-.31-.59.79.79,0,0,1,.34-.67,1.48,1.48,0,0,1,.92-.26,1.42,1.42,0,0,1,1,.32,1,1,0,0,1,.38.77h1.09a1.75,1.75,0,0,0-.67-1.42,2.61,2.61,0,0,0-1.75-.56,2.57,2.57,0,0,0-1.68.54,1.65,1.65,0,0,0-.66,1.32,1.4,1.4,0,0,0,.23.8,1.74,1.74,0,0,0,.72.59,5.22,5.22,0,0,0,1.3.42,3.3,3.3,0,0,1,1.16.42.83.83,0,0,1,0,1.35m-8.61-.1a1,1,0,0,1-.34-.79c0-.78.66-1.17,2-1.17H64v1.3a1.56,1.56,0,0,1-.66.69,2,2,0,0,1-1,.26,1.32,1.32,0,0,1-.87-.29m3.81,1.12v-.1a3.51,3.51,0,0,1-.22-1.39v-2.91a2,2,0,0,0-.65-1.51,2.46,2.46,0,0,0-1.71-.55,2.92,2.92,0,0,0-1.27.26,2.26,2.26,0,0,0-.92.7,1.5,1.5,0,0,0-.33.91h1.09a.88.88,0,0,1,.39-.71,1.6,1.6,0,0,1,1-.29,1.33,1.33,0,0,1,1,.34,1.18,1.18,0,0,1,.34.9v.5H62.94a3.52,3.52,0,0,0-2.12.55,1.79,1.79,0,0,0-.75,1.54,1.71,1.71,0,0,0,.6,1.34,2.2,2.2,0,0,0,1.54.53,2.42,2.42,0,0,0,1.8-.78,2.49,2.49,0,0,0,.15.67Zm-7.55-2.71a2.41,2.41,0,0,1-.66,1.48,2.21,2.21,0,0,1-1.44.42,1.85,1.85,0,0,1-1.62-.82,3.74,3.74,0,0,1-.58-2.21v-.83a3.67,3.67,0,0,1,.61-2.27,2,2,0,0,1,1.69-.79,1.93,1.93,0,0,1,1.37.46,2.46,2.46,0,0,1,.63,1.48h1.13a3.13,3.13,0,0,0-1-2.1,3.08,3.08,0,0,0-2.18-.76,3.37,3.37,0,0,0-1.81.48,3.1,3.1,0,0,0-1.2,1.39,4.9,4.9,0,0,0-.42,2.09v.82a4.34,4.34,0,0,0,.91,2.9,3,3,0,0,0,2.42,1.08,3.26,3.26,0,0,0,2.23-.73,3.13,3.13,0,0,0,1-2.09Z"/></g><rect class="cls-7" x="36.5" y="310.7" width="10.68" height="10.68"/><g class="cls-3"><path d="M122.53,354.21v1.54h-1.15v.84h1.15v3.93a1.94,1.94,0,0,0,.37,1.25,1.37,1.37,0,0,0,1.1.44,3,3,0,0,0,.83-.12v-.87a3.32,3.32,0,0,1-.51.07.68.68,0,0,1-.54-.19.87.87,0,0,1-.16-.58v-3.93h1.18v-.84h-1.18v-1.54Zm-2.93,7.88v-5.5H121v-.84H119.6v-.67a1.23,1.23,0,0,1,.29-.89,1.06,1.06,0,0,1,.81-.3,2.82,2.82,0,0,1,.59.05l0-.88a3.06,3.06,0,0,0-.74-.09,2.06,2.06,0,0,0-1.54.55,2.18,2.18,0,0,0-.55,1.58v.65h-1v.84h1v5.5Zm-4.36-7.58a.61.61,0,0,0,.47.17.65.65,0,0,0,.48-.17.64.64,0,0,0,.17-.44.64.64,0,0,0-.17-.45.62.62,0,0,0-.48-.18.58.58,0,0,0-.47.18.64.64,0,0,0-.17.45.64.64,0,0,0,.17.44m1,1.24h-1.09v6.34h1.09Zm-2.89,2.09h-3.09v.92h2v1.91a1.72,1.72,0,0,1-.78.48,4.1,4.1,0,0,1-1.11.14,2.13,2.13,0,0,1-1.77-.85,3.64,3.64,0,0,1-.66-2.29v-.69a3.86,3.86,0,0,1,.59-2.31,2,2,0,0,1,1.71-.79,1.86,1.86,0,0,1,2,1.7h1.12a3,3,0,0,0-1-1.94,3.28,3.28,0,0,0-2.15-.68,3.12,3.12,0,0,0-2.53,1.06,4.49,4.49,0,0,0-.9,3v.74a5,5,0,0,0,.45,2.1,3.38,3.38,0,0,0,1.25,1.39,3.58,3.58,0,0,0,1.86.49,5,5,0,0,0,1.8-.31,2.65,2.65,0,0,0,1.21-.93ZM101.14,357a2,2,0,0,1,.45,1.28v.08H98.41A2.29,2.29,0,0,1,99,357a1.46,1.46,0,0,1,1.1-.48,1.33,1.33,0,0,1,1.08.46m1.45,4-.66-.51a2.74,2.74,0,0,1-.7.62,2,2,0,0,1-1,.23,1.72,1.72,0,0,1-1.34-.58,2.21,2.21,0,0,1-.54-1.51h4.29v-.45a3.5,3.5,0,0,0-.69-2.33,2.34,2.34,0,0,0-1.92-.82,2.52,2.52,0,0,0-1.4.42,2.86,2.86,0,0,0-1,1.16,3.85,3.85,0,0,0-.36,1.69v.19a3.15,3.15,0,0,0,.81,2.27,2.79,2.79,0,0,0,2.1.85,2.66,2.66,0,0,0,2.39-1.23M87,355.75v6.34h1.09v-4.63a1.45,1.45,0,0,1,1.46-.91,1.21,1.21,0,0,1,1.35,1.38v4.16H92v-4.21a1.49,1.49,0,0,1,.46-1,1.44,1.44,0,0,1,1-.36,1.37,1.37,0,0,1,1.05.34,1.48,1.48,0,0,1,.31,1v4.18h1.08v-4.25c0-1.47-.73-2.21-2.12-2.21a2.53,2.53,0,0,0-1.2.28,2.44,2.44,0,0,0-.82.74,1.81,1.81,0,0,0-1.81-1,2.35,2.35,0,0,0-1.88.82l0-.7Zm-2.74-1.24a.76.76,0,0,0,1,0,.64.64,0,0,0,.17-.44.64.64,0,0,0-.17-.45.73.73,0,0,0-1,0,.69.69,0,0,0-.16.45.68.68,0,0,0,.16.44m1,1.24H84.23v6.34h1.09ZM83,353.56h-6.6v.92h2.74v7.61H80.3v-7.61H83ZM75.92,358H73.06v.89h2.86Zm-5-1a2,2,0,0,1,.45,1.28v.08H68.15A2.36,2.36,0,0,1,68.7,357a1.46,1.46,0,0,1,1.11-.48,1.32,1.32,0,0,1,1.07.46m1.45,4-.66-.51a2.58,2.58,0,0,1-.7.62,1.93,1.93,0,0,1-1,.23,1.7,1.7,0,0,1-1.33-.58,2.21,2.21,0,0,1-.55-1.51h4.29v-.45a3.56,3.56,0,0,0-.68-2.33,2.36,2.36,0,0,0-1.92-.82,2.53,2.53,0,0,0-1.41.42,2.86,2.86,0,0,0-1,1.16A3.85,3.85,0,0,0,67,358.9v.19a3.15,3.15,0,0,0,.81,2.27,2.79,2.79,0,0,0,2.1.85A2.66,2.66,0,0,0,72.33,361m-11.64-5.23v6.34h1.08v-4.52a2,2,0,0,1,.62-.74,1.65,1.65,0,0,1,.93-.28,1.27,1.27,0,0,1,1,.33,1.47,1.47,0,0,1,.31,1v4.2h1.08V357.9c0-1.51-.68-2.27-2-2.27a2.31,2.31,0,0,0-1.9.92l0-.8Zm-2.64,2.43a3.87,3.87,0,0,1-.61,2.28,2.17,2.17,0,0,1-3.39,0,3.77,3.77,0,0,1-.62-2.31v-.63a3.71,3.71,0,0,1,.63-2.25,2.17,2.17,0,0,1,3.38,0,3.8,3.8,0,0,1,.61,2.33Zm1.12-.62a5.35,5.35,0,0,0-.42-2.19,3.11,3.11,0,0,0-1.21-1.43,3.27,3.27,0,0,0-4.8,1.45,5.09,5.09,0,0,0-.43,2.17v.61a5.06,5.06,0,0,0,.44,2.13,3.2,3.2,0,0,0,3,1.91,3.24,3.24,0,0,0,1.8-.5,3.12,3.12,0,0,0,1.2-1.42,5.35,5.35,0,0,0,.42-2.19Z"/></g><rect class="cls-7" x="36.5" y="352.25" width="10.68" height="10.68"/><g class="cls-3"><path d="M159.7,320.55H161l-2.75-3.7,2.46-2.64h-1.32l-2,2.08-.58.7v-5.44h-1.08v9h1.08v-2.23l.68-.71Zm-9-1.36a2.76,2.76,0,0,1-.45-1.69v-.21a2.75,2.75,0,0,1,.46-1.72A1.52,1.52,0,0,1,152,315a1.45,1.45,0,0,1,1,.39,1.57,1.57,0,0,1,.47,1h1a2.27,2.27,0,0,0-.75-1.66,2.52,2.52,0,0,0-1.77-.64,2.77,2.77,0,0,0-1.51.4,2.53,2.53,0,0,0-1,1.12,3.76,3.76,0,0,0-.34,1.64v.18a3.46,3.46,0,0,0,.76,2.37,2.63,2.63,0,0,0,2.06.86,2.58,2.58,0,0,0,1.22-.29,2.49,2.49,0,0,0,.93-.79,1.93,1.93,0,0,0,.37-1h-1a1.32,1.32,0,0,1-.48.88,1.6,1.6,0,0,1-1,.35,1.53,1.53,0,0,1-1.29-.59m-4-3.76a2.11,2.11,0,0,1,.44,1.28v.09h-3.18a2.36,2.36,0,0,1,.56-1.34,1.43,1.43,0,0,1,1.1-.48,1.38,1.38,0,0,1,1.08.45m1.44,4-.66-.52a2.29,2.29,0,0,1-.7.62,1.84,1.84,0,0,1-1,.24,1.7,1.7,0,0,1-1.33-.58,2.26,2.26,0,0,1-.55-1.51h4.29v-.46a3.52,3.52,0,0,0-.68-2.33,2.39,2.39,0,0,0-1.92-.81,2.56,2.56,0,0,0-1.41.42,2.77,2.77,0,0,0-1,1.16,3.77,3.77,0,0,0-.36,1.68v.2a3.19,3.19,0,0,0,.8,2.27,2.79,2.79,0,0,0,2.1.84,2.67,2.67,0,0,0,2.39-1.22m-10.54-7.89h-1.09v9h1.09V316a1.79,1.79,0,0,1,.62-.74,1.52,1.52,0,0,1,.92-.28,1.24,1.24,0,0,1,1,.33,1.4,1.4,0,0,1,.31,1v4.2h1.09v-4.19c0-1.52-.69-2.27-2-2.27a2.29,2.29,0,0,0-1.87.88ZM134,317.84a2.41,2.41,0,0,1-.67,1.48,2.17,2.17,0,0,1-1.44.42,1.87,1.87,0,0,1-1.62-.82,3.74,3.74,0,0,1-.58-2.21v-.83a3.67,3.67,0,0,1,.61-2.27,2,2,0,0,1,1.69-.79,1.91,1.91,0,0,1,1.37.46,2.4,2.4,0,0,1,.64,1.48h1.13a3.14,3.14,0,0,0-1-2.1,3.06,3.06,0,0,0-2.18-.76,3.36,3.36,0,0,0-1.8.48,3.18,3.18,0,0,0-1.21,1.39,4.9,4.9,0,0,0-.42,2.09v.82a4.34,4.34,0,0,0,.91,2.9,3,3,0,0,0,2.42,1.08,3.28,3.28,0,0,0,2.24-.73,3.17,3.17,0,0,0,1-2.09Z"/></g><rect class="cls-7" x="112.72" y="310.7" width="10.68" height="10.68"/><g class="cls-3"><path d="M265.63,355.75h-1.18l2.26,6.27-.24.64a1.62,1.62,0,0,1-.5.82,1.46,1.46,0,0,1-.86.22l-.3,0v.88l.41.07.2,0c.86,0,1.49-.53,1.88-1.58l2.55-7.32h-1.16l-1.47,4.75Zm-2.22-2.66h-1.09v9h1.09Zm-6.7,0h-1.09v9h1.09v-4.52a1.86,1.86,0,0,1,.62-.74,1.59,1.59,0,0,1,.92-.28,1.25,1.25,0,0,1,1,.33,1.42,1.42,0,0,1,.31,1v4.2h1.09V357.9c0-1.51-.69-2.27-2-2.27a2.3,2.3,0,0,0-1.87.89Zm-4.62,1.12v1.54h-1.16v.84h1.16v3.93a1.88,1.88,0,0,0,.37,1.25,1.34,1.34,0,0,0,1.09.44,3,3,0,0,0,.83-.12v-.87a3.17,3.17,0,0,1-.51.07.7.7,0,0,1-.54-.19.87.87,0,0,1-.16-.58v-3.93h1.19v-.84h-1.19v-1.54Zm-7,1.54v6.34h1.08v-4.52a2,2,0,0,1,.63-.74,1.59,1.59,0,0,1,.92-.28,1.27,1.27,0,0,1,1,.33,1.47,1.47,0,0,1,.31,1v4.2h1.09V357.9c0-1.51-.69-2.27-2-2.27a2.31,2.31,0,0,0-1.9.92l0-.8Zm-5.55,1.41a1.64,1.64,0,0,1,2.61,0,2.7,2.7,0,0,1,.5,1.69,3,3,0,0,1-.49,1.81,1.53,1.53,0,0,1-1.31.65,1.55,1.55,0,0,1-1.31-.64A2.67,2.67,0,0,1,239,359a3,3,0,0,1,.49-1.83M238,358.94a3.45,3.45,0,0,0,.8,2.37,2.66,2.66,0,0,0,2.09.9,2.82,2.82,0,0,0,1.51-.41,2.78,2.78,0,0,0,1-1.15,3.85,3.85,0,0,0,.35-1.66v-.08a3.46,3.46,0,0,0-.8-2.38,2.66,2.66,0,0,0-2.09-.9,2.81,2.81,0,0,0-1.5.41,2.74,2.74,0,0,0-1,1.14,3.7,3.7,0,0,0-.37,1.68Zm-10-5.38v8.53h1.12v-3.32l-.11-3.57,2.8,6.89h.86l2.8-6.91-.11,3.59v3.32h1.13v-8.53H235l-2.79,7-2.79-7Zm-8.32,3.61a1.45,1.45,0,0,1,1.24-.62,1.6,1.6,0,0,1,1.49.91v2.89a1.58,1.58,0,0,1-1.51.94,1.45,1.45,0,0,1-1.23-.62,2.84,2.84,0,0,1-.44-1.68,3.05,3.05,0,0,1,.45-1.82m-.85,4.14a2.16,2.16,0,0,0,1.8.9,2.23,2.23,0,0,0,1.78-.75V362a1.7,1.7,0,0,1-.44,1.25,1.67,1.67,0,0,1-1.24.45,2.12,2.12,0,0,1-1.7-.86l-.56.65a2.24,2.24,0,0,0,1,.8,3.17,3.17,0,0,0,1.34.29,2.7,2.7,0,0,0,2-.7,2.58,2.58,0,0,0,.73-1.94v-6.19h-1l-.05.7a2.36,2.36,0,0,0-3.63.06,3.7,3.7,0,0,0-.69,2.36,3.91,3.91,0,0,0,.69,2.44m-7-5.56v6.34h1.09v-4.52a1.86,1.86,0,0,1,.62-.74,1.59,1.59,0,0,1,.92-.28,1.24,1.24,0,0,1,1,.33,1.42,1.42,0,0,1,.31,1v4.2h1.09V357.9c0-1.51-.69-2.27-2-2.27a2.33,2.33,0,0,0-1.9.92l0-.8ZM209,354.51a.61.61,0,0,0,.47.17.65.65,0,0,0,.48-.17.64.64,0,0,0,.17-.44.64.64,0,0,0-.17-.45.62.62,0,0,0-.48-.18.58.58,0,0,0-.47.18.64.64,0,0,0-.16.45.63.63,0,0,0,.16.44m1,1.24h-1.09v6.34H210Zm-2.18,0a1.19,1.19,0,0,0-.48-.08,1.69,1.69,0,0,0-1.51.85l0-.73h-1v6.34h1.08v-4.5a1.43,1.43,0,0,1,1.45-.91,2.93,2.93,0,0,1,.53,0Zm-5.74,6.38h1v-6.34H202v4.61a1.63,1.63,0,0,1-1.65.93c-.79,0-1.18-.48-1.18-1.45v-4.09H198.1v4.12a2.53,2.53,0,0,0,.54,1.75,2,2,0,0,0,1.54.59,2.29,2.29,0,0,0,1.86-.75Zm-9-1.36a2.76,2.76,0,0,1-.46-1.69v-.2a2.8,2.8,0,0,1,.46-1.72,1.51,1.51,0,0,1,1.28-.6,1.42,1.42,0,0,1,1,.4,1.48,1.48,0,0,1,.47,1h1a2.29,2.29,0,0,0-.75-1.66,2.52,2.52,0,0,0-1.77-.64,2.71,2.71,0,0,0-1.5.4,2.61,2.61,0,0,0-1,1.12,3.77,3.77,0,0,0-.34,1.65V359a3.42,3.42,0,0,0,.77,2.36,2.6,2.6,0,0,0,2.06.87,2.65,2.65,0,0,0,1.22-.3,2.42,2.42,0,0,0,.92-.78,1.91,1.91,0,0,0,.37-1h-1a1.24,1.24,0,0,1-.48.88,1.59,1.59,0,0,1-1,.35,1.53,1.53,0,0,1-1.29-.59m-6.29,0a2.76,2.76,0,0,1-.45-1.69v-.2a2.8,2.8,0,0,1,.46-1.72,1.51,1.51,0,0,1,1.28-.6,1.42,1.42,0,0,1,1,.4,1.48,1.48,0,0,1,.47,1h1a2.29,2.29,0,0,0-.75-1.66,2.52,2.52,0,0,0-1.77-.64,2.71,2.71,0,0,0-1.5.4,2.61,2.61,0,0,0-1,1.12,3.77,3.77,0,0,0-.34,1.65V359a3.42,3.42,0,0,0,.76,2.36,2.61,2.61,0,0,0,2.06.87,2.66,2.66,0,0,0,1.23-.3,2.42,2.42,0,0,0,.92-.78,2,2,0,0,0,.37-1h-1a1.24,1.24,0,0,1-.48.88,1.6,1.6,0,0,1-1,.35,1.56,1.56,0,0,1-1.29-.59m-6.8-3.57a1.64,1.64,0,0,1,2.61,0,2.7,2.7,0,0,1,.5,1.69,2.91,2.91,0,0,1-.49,1.81,1.53,1.53,0,0,1-1.31.65,1.56,1.56,0,0,1-1.31-.64,2.67,2.67,0,0,1-.49-1.69,3,3,0,0,1,.49-1.83m-1.58,1.78a3.45,3.45,0,0,0,.8,2.37,2.66,2.66,0,0,0,2.09.9,2.82,2.82,0,0,0,1.51-.41,2.78,2.78,0,0,0,1-1.15,3.85,3.85,0,0,0,.35-1.66v-.08a3.46,3.46,0,0,0-.8-2.38,2.66,2.66,0,0,0-2.09-.9,2.75,2.75,0,0,0-1.49.41,2.69,2.69,0,0,0-1,1.14,3.7,3.7,0,0,0-.37,1.68Zm-2.5-2a2,2,0,0,1,.45,1.28v.08H173.2a2.36,2.36,0,0,1,.55-1.34,1.46,1.46,0,0,1,1.11-.48,1.32,1.32,0,0,1,1.07.46m1.45,4-.66-.51a2.58,2.58,0,0,1-.7.62,1.93,1.93,0,0,1-1,.23,1.7,1.7,0,0,1-1.33-.58,2.21,2.21,0,0,1-.55-1.51h4.29v-.45a3.56,3.56,0,0,0-.68-2.33,2.36,2.36,0,0,0-1.92-.82,2.53,2.53,0,0,0-1.41.42,2.86,2.86,0,0,0-1,1.16,3.82,3.82,0,0,0-.36,1.69v.19a3.15,3.15,0,0,0,.81,2.27,2.79,2.79,0,0,0,2.1.85,2.66,2.66,0,0,0,2.39-1.23m-11.11-6.5H168a1.93,1.93,0,0,1,1.36.43,1.51,1.51,0,0,1,.47,1.21,1.45,1.45,0,0,1-.49,1.16,2,2,0,0,1-1.34.44h-1.72Zm3.85,7.61h1.21V362l-2-3.62a2.5,2.5,0,0,0,1.2-.89,2.27,2.27,0,0,0,.43-1.39,2.39,2.39,0,0,0-.77-1.91,3.4,3.4,0,0,0-2.22-.65h-2.82v8.53h1.13v-3.45h2Z"/></g><rect class="cls-7" x="149.03" y="352.25" width="10.68" height="10.68"/><g class="cls-3"><path d="M265.12,315.62a1.44,1.44,0,0,1,1.24-.61,1.62,1.62,0,0,1,1.5.89v2.92a1.59,1.59,0,0,1-1.51.92,1.44,1.44,0,0,1-1.23-.61,2.77,2.77,0,0,1-.45-1.68,3.09,3.09,0,0,1,.45-1.83m-1.53,1.78a3.78,3.78,0,0,0,.69,2.36,2.35,2.35,0,0,0,3.61.11l.05.68h1v-9h-1.08v3.3a2.22,2.22,0,0,0-1.77-.76,2.17,2.17,0,0,0-1.81.89,3.7,3.7,0,0,0-.69,2.34Zm-.62-3.23a1.19,1.19,0,0,0-.48-.08,1.68,1.68,0,0,0-1.51.85l0-.73H259.9v6.34H261v-4.5a1.42,1.42,0,0,1,1.45-.91,3,3,0,0,1,.53,0Zm-8.35,5.26a1,1,0,0,1-.34-.79c0-.78.66-1.17,2-1.17h.85v1.3a1.68,1.68,0,0,1-.66.69,2,2,0,0,1-1,.26,1.32,1.32,0,0,1-.87-.29m3.81,1.12v-.1a3.51,3.51,0,0,1-.22-1.39v-2.91a2,2,0,0,0-.65-1.51,2.49,2.49,0,0,0-1.72-.55,2.9,2.9,0,0,0-1.26.26,2.26,2.26,0,0,0-.92.7,1.51,1.51,0,0,0-.34.91h1.09a.89.89,0,0,1,.4-.71,1.6,1.6,0,0,1,1-.29,1.35,1.35,0,0,1,1,.34,1.18,1.18,0,0,1,.34.9v.5h-1.05a3.52,3.52,0,0,0-2.12.55,1.79,1.79,0,0,0-.75,1.54,1.71,1.71,0,0,0,.6,1.34,2.19,2.19,0,0,0,1.53.53,2.45,2.45,0,0,0,1.81-.78,2.49,2.49,0,0,0,.15.67Zm-7.55-2.71a2.41,2.41,0,0,1-.66,1.48,2.21,2.21,0,0,1-1.44.42,1.88,1.88,0,0,1-1.63-.82,3.81,3.81,0,0,1-.58-2.21v-.83a3.67,3.67,0,0,1,.62-2.27,2,2,0,0,1,1.69-.79,1.93,1.93,0,0,1,1.37.46,2.46,2.46,0,0,1,.63,1.48H252a3.18,3.18,0,0,0-.95-2.1,3.08,3.08,0,0,0-2.18-.76,3.37,3.37,0,0,0-1.81.48,3.1,3.1,0,0,0-1.2,1.39,4.9,4.9,0,0,0-.43,2.09v.82a4.4,4.4,0,0,0,.91,2.9,3,3,0,0,0,2.43,1.08,3.26,3.26,0,0,0,2.23-.73,3.13,3.13,0,0,0,1-2.09Zm-11.82-5.17v1.54h-1.15V315h1.15V319a1.91,1.91,0,0,0,.37,1.24,1.34,1.34,0,0,0,1.1.44,3.51,3.51,0,0,0,.83-.11v-.88a2.41,2.41,0,0,1-.52.07.67.67,0,0,1-.54-.19.9.9,0,0,1-.15-.57V315h1.18v-.83h-1.18v-1.54Zm-3.13.29a.73.73,0,0,0,1,0,.6.6,0,0,0,.16-.44.63.63,0,0,0-.16-.44.73.73,0,0,0-1,0,.63.63,0,0,0-.16.44.6.6,0,0,0,.16.44m1,1.25h-1.08v6.34h1.08Zm-6.68,1.41a1.44,1.44,0,0,1,1.24-.61,1.61,1.61,0,0,1,1.5.89v2.92a1.59,1.59,0,0,1-1.51.92,1.44,1.44,0,0,1-1.23-.61,2.77,2.77,0,0,1-.44-1.68,3.09,3.09,0,0,1,.44-1.83m-1.53,1.78a3.72,3.72,0,0,0,.7,2.36,2.16,2.16,0,0,0,1.79.9,2.19,2.19,0,0,0,1.81-.79l.06.68h1v-9H233v3.3a2.2,2.2,0,0,0-1.77-.76,2.17,2.17,0,0,0-1.81.89,3.7,3.7,0,0,0-.69,2.34Zm-2.52-2a2.05,2.05,0,0,1,.45,1.28v.09h-3.18a2.36,2.36,0,0,1,.55-1.34,1.46,1.46,0,0,1,1.1-.48,1.35,1.35,0,0,1,1.08.45m1.45,4-.66-.52a2.29,2.29,0,0,1-.7.62,1.84,1.84,0,0,1-1,.24,1.69,1.69,0,0,1-1.33-.58,2.21,2.21,0,0,1-.55-1.51h4.29v-.46a3.58,3.58,0,0,0-.68-2.33,2.39,2.39,0,0,0-1.93-.81,2.52,2.52,0,0,0-1.4.42,2.79,2.79,0,0,0-1,1.16,3.77,3.77,0,0,0-.36,1.68v.2a3.15,3.15,0,0,0,.81,2.27,2.79,2.79,0,0,0,2.1.84,2.67,2.67,0,0,0,2.39-1.22m-5.91-5.27a1.19,1.19,0,0,0-.48-.08,1.69,1.69,0,0,0-1.51.85l0-.73h-1.05v6.34h1.08v-4.5a1.43,1.43,0,0,1,1.45-.91,2.93,2.93,0,0,1,.53,0Zm-5.56,3.67a2.41,2.41,0,0,1-.66,1.48,2.21,2.21,0,0,1-1.44.42,1.85,1.85,0,0,1-1.62-.82,3.74,3.74,0,0,1-.58-2.21v-.83a3.67,3.67,0,0,1,.61-2.27,2,2,0,0,1,1.69-.79,1.91,1.91,0,0,1,1.37.46,2.4,2.4,0,0,1,.63,1.48h1.13a3.13,3.13,0,0,0-.95-2.1,3.06,3.06,0,0,0-2.18-.76,3.4,3.4,0,0,0-1.81.48,3.16,3.16,0,0,0-1.2,1.39,4.9,4.9,0,0,0-.42,2.09v.82a4.34,4.34,0,0,0,.91,2.9,3,3,0,0,0,2.42,1.08,3.3,3.3,0,0,0,2.24-.73,3.12,3.12,0,0,0,1-2.09Z"/></g><rect class="cls-7" x="194.94" y="310.7" width="10.68" height="10.68"/><g class="cls-3"><path d="M146.07,647.32a2.59,2.59,0,0,1,0,2.83,1.37,1.37,0,0,1-1.15.54,1.43,1.43,0,0,1-1.18-.65,2.76,2.76,0,0,1-.48-1.7V648a1.78,1.78,0,0,1,.65-.84,1.72,1.72,0,0,1,1-.34,1.36,1.36,0,0,1,1.13.55m.1-4.39a3.69,3.69,0,0,0-3,1.27,5.61,5.61,0,0,0-1,3.6v.42a3.69,3.69,0,0,0,.77,2.42,2.41,2.41,0,0,0,2,.94,2.47,2.47,0,0,0,1.93-.79,3,3,0,0,0,.72-2.11,3,3,0,0,0-.67-2,2.2,2.2,0,0,0-1.78-.79,2.33,2.33,0,0,0-1.84.77,3.13,3.13,0,0,1,.87-2,2.84,2.84,0,0,1,2-.75h.2v-.92ZM141,650.58h-4.28L139,648.1a4.89,4.89,0,0,0,1.61-3,2.14,2.14,0,0,0-.69-1.66,2.73,2.73,0,0,0-1.88-.62,2.81,2.81,0,0,0-2,.72,2.52,2.52,0,0,0-.76,1.91h1.08a1.75,1.75,0,0,1,.45-1.28,1.67,1.67,0,0,1,1.26-.46,1.37,1.37,0,0,1,1.07.43,1.52,1.52,0,0,1,.41,1.09,2,2,0,0,1-.25,1,7.36,7.36,0,0,1-.91,1.21l-2.95,3.28v.78H141Zm-6.74,0h-4.28l2.29-2.48a4.87,4.87,0,0,0,1.6-3,2.14,2.14,0,0,0-.69-1.66,2.73,2.73,0,0,0-1.88-.62,2.81,2.81,0,0,0-2,.72,2.52,2.52,0,0,0-.76,1.91h1.08a1.75,1.75,0,0,1,.45-1.28,1.67,1.67,0,0,1,1.26-.46,1.4,1.4,0,0,1,1.08.43,1.51,1.51,0,0,1,.4,1.09,2,2,0,0,1-.25,1,7.18,7.18,0,0,1-.9,1.21l-3,3.28v.78h5.59Zm-11-3.17.29-.23a1.76,1.76,0,0,1,1.11-.31,1.57,1.57,0,0,1,1.24.52,2,2,0,0,1,.47,1.37,2.17,2.17,0,0,1-.43,1.42,1.46,1.46,0,0,1-1.19.52,1.65,1.65,0,0,1-1.11-.37,1.72,1.72,0,0,1-.53-1.11h-1a2.51,2.51,0,0,0,.81,1.74,2.74,2.74,0,0,0,1.85.62,2.59,2.59,0,0,0,2-.76,2.9,2.9,0,0,0,.71-2.07,3,3,0,0,0-.69-2.09,2.35,2.35,0,0,0-1.85-.77,2.81,2.81,0,0,0-1.42.37l.26-2.32h3.45v-1h-4.37l-.44,4.25Zm-4.75-2.76.13-.23v4.18H116Zm1.22-1.71h-1.15l-3.82,5.91v.64h3.88v2h1.09v-2h1.19v-.89h-1.19Zm-9.26,0h-1.13v3.66H105v-3.66h-1.13v8.53H105v-4h4.3v4h1.13Zm-9.36,4.62a3.81,3.81,0,0,1-.62,2.27,2.16,2.16,0,0,1-3.39,0,3.84,3.84,0,0,1-.62-2.31v-.63a3.71,3.71,0,0,1,.63-2.25,2,2,0,0,1,1.68-.82,2,2,0,0,1,1.71.82,3.85,3.85,0,0,1,.61,2.33Zm1.12-.62a5.35,5.35,0,0,0-.43-2.19,3.18,3.18,0,0,0-1.2-1.44,3.52,3.52,0,0,0-3.6,0,3.26,3.26,0,0,0-1.21,1.44,5.33,5.33,0,0,0-.43,2.18v.61a5.06,5.06,0,0,0,.45,2.13,3.17,3.17,0,0,0,3,1.9,3.29,3.29,0,0,0,1.81-.49,3.19,3.19,0,0,0,1.19-1.43,5.26,5.26,0,0,0,.43-2.18Zm-11.37,5.28a2.74,2.74,0,0,0,.29-1.19v-.85H90.09v1a2.91,2.91,0,0,1-.57,1.58l.61.43a2.83,2.83,0,0,0,.73-.95m-3.44-8.34a.73.73,0,0,0,1,0,.59.59,0,0,0,.16-.43.64.64,0,0,0-.16-.45.73.73,0,0,0-1,0,.64.64,0,0,0-.16.45.59.59,0,0,0,.16.43m1,1.25H87.35v6.34h1.08Zm-4.71-1.54v1.54H82.57V646h1.15v3.94a1.84,1.84,0,0,0,.37,1.24,1.34,1.34,0,0,0,1.1.44,3.51,3.51,0,0,0,.83-.11v-.88a2.41,2.41,0,0,1-.52.07.67.67,0,0,1-.54-.19.88.88,0,0,1-.15-.57V646H86v-.83H84.81v-1.54Zm-5.67,6.76a1,1,0,0,1-.34-.79c0-.78.66-1.17,2-1.17h.85v1.3a1.68,1.68,0,0,1-.66.69,2,2,0,0,1-1,.26,1.32,1.32,0,0,1-.87-.29m3.81,1.12v-.1a3.51,3.51,0,0,1-.22-1.39v-2.91a2,2,0,0,0-.65-1.51,2.49,2.49,0,0,0-1.72-.55,3.05,3.05,0,0,0-1.26.26,2.26,2.26,0,0,0-.92.7,1.51,1.51,0,0,0-.34.91h1.09a.86.86,0,0,1,.4-.7,1.54,1.54,0,0,1,1-.3,1.33,1.33,0,0,1,1,.34,1.2,1.2,0,0,1,.34.9v.5h-1a3.59,3.59,0,0,0-2.12.55,1.8,1.8,0,0,0-.75,1.54,1.71,1.71,0,0,0,.6,1.34,2.19,2.19,0,0,0,1.53.53,2.43,2.43,0,0,0,1.81-.78,2.49,2.49,0,0,0,.15.67Zm-11.67-6.34v6.34h1.08V647a2,2,0,0,1,.62-.74,1.57,1.57,0,0,1,.93-.28,1.27,1.27,0,0,1,1,.33,1.5,1.5,0,0,1,.31,1v4.2h1.08v-4.19c0-1.51-.68-2.27-2-2.27a2.29,2.29,0,0,0-1.9.91l0-.79Zm-6.62,0v6.34h1.08V647a1.87,1.87,0,0,1,.62-.74,1.55,1.55,0,0,1,.93-.28,1.23,1.23,0,0,1,1,.33,1.45,1.45,0,0,1,.32,1v4.2h1.08v-4.19c0-1.51-.69-2.27-2-2.27a2.29,2.29,0,0,0-1.89.91l0-.79Zm-2.75-1.25a.73.73,0,0,0,1,0,.59.59,0,0,0,.16-.43.64.64,0,0,0-.16-.45.73.73,0,0,0-1,0,.64.64,0,0,0-.16.45.59.59,0,0,0,.16.43m1,1.25H60.75v6.34h1.08Zm-6.2,5a2.7,2.7,0,0,1-.46-1.69v-.21a2.82,2.82,0,0,1,.46-1.72,1.53,1.53,0,0,1,1.28-.59,1.42,1.42,0,0,1,1,.4,1.48,1.48,0,0,1,.47,1h1a2.27,2.27,0,0,0-.75-1.66,2.52,2.52,0,0,0-1.77-.64,2.71,2.71,0,0,0-1.5.4,2.55,2.55,0,0,0-1,1.12,3.76,3.76,0,0,0-.34,1.64v.19a3.44,3.44,0,0,0,.77,2.36,2.57,2.57,0,0,0,2,.86,2.65,2.65,0,0,0,1.23-.29,2.51,2.51,0,0,0,.92-.78,2,2,0,0,0,.37-1h-1a1.24,1.24,0,0,1-.48.88,1.6,1.6,0,0,1-1,.35,1.53,1.53,0,0,1-1.28-.59m-7.88-5v6.34h1.08V647a1.89,1.89,0,0,1,.63-.74,1.52,1.52,0,0,1,.92-.28,1.25,1.25,0,0,1,1,.33,1.45,1.45,0,0,1,.31,1v4.2h1.09v-4.19c0-1.51-.69-2.27-2-2.27a2.32,2.32,0,0,0-1.9.91l0-.79ZM45,643.88a.58.58,0,0,0,.47.18.62.62,0,0,0,.48-.18.6.6,0,0,0,.17-.43A.64.64,0,0,0,46,643a.62.62,0,0,0-.48-.18A.58.58,0,0,0,45,643a.64.64,0,0,0-.17.45.6.6,0,0,0,.17.43m1,1.25H44.93v6.34H46Zm-3.68,3.63a2.38,2.38,0,0,1-.66,1.48,2.21,2.21,0,0,1-1.44.42,1.85,1.85,0,0,1-1.62-.82,3.71,3.71,0,0,1-.58-2.21v-.82a3.63,3.63,0,0,1,.61-2.27,2,2,0,0,1,1.69-.8,1.93,1.93,0,0,1,1.37.46,2.49,2.49,0,0,1,.63,1.48h1.13a3.13,3.13,0,0,0-.95-2.1,3.08,3.08,0,0,0-2.18-.76,3.37,3.37,0,0,0-1.81.48,3.15,3.15,0,0,0-1.2,1.39,4.9,4.9,0,0,0-.42,2.09v.82a4.34,4.34,0,0,0,.91,2.9,3,3,0,0,0,2.42,1.08,3.26,3.26,0,0,0,2.23-.73,3.13,3.13,0,0,0,1-2.09Z"/><path d="M129.54,629.09a1.19,1.19,0,0,0-.48-.08,1.69,1.69,0,0,0-1.52.85v-.73h-1.06v6.34h1.09V631a1.41,1.41,0,0,1,1.44-.91,3.12,3.12,0,0,1,.54,0Zm-8.33-1.23a2.43,2.43,0,0,1,1.94.81,3.44,3.44,0,0,1,.68,2.26v.5a3.36,3.36,0,0,1-.72,2.31,2.59,2.59,0,0,1-2,.81H119.9v-6.69Zm-.08,7.61a4.22,4.22,0,0,0,2-.5,3.27,3.27,0,0,0,1.33-1.4,4.56,4.56,0,0,0,.46-2.11v-.55a4.49,4.49,0,0,0-.47-2.08,3.31,3.31,0,0,0-1.32-1.4,3.87,3.87,0,0,0-2-.49h-2.41v8.53Zm-8.28-5.12a2.12,2.12,0,0,1,.44,1.29v.08h-3.17a2.29,2.29,0,0,1,.55-1.34,1.44,1.44,0,0,1,1.1-.48,1.38,1.38,0,0,1,1.08.45m1.45,4-.67-.52a2.57,2.57,0,0,1-.69.63,2,2,0,0,1-1,.23,1.7,1.7,0,0,1-1.33-.58,2.26,2.26,0,0,1-.55-1.51h4.3v-.45a3.55,3.55,0,0,0-.69-2.34,2.37,2.37,0,0,0-1.92-.81,2.52,2.52,0,0,0-1.4.42,2.86,2.86,0,0,0-1,1.16,3.8,3.8,0,0,0-.36,1.68v.2a3.15,3.15,0,0,0,.81,2.27,2.78,2.78,0,0,0,2.09.84,2.67,2.67,0,0,0,2.4-1.22m-10.53-3.81a1.45,1.45,0,0,1,1.24-.62,1.6,1.6,0,0,1,1.5.9v2.91a1.58,1.58,0,0,1-1.51.92,1.45,1.45,0,0,1-1.23-.6,2.88,2.88,0,0,1-.44-1.69,3.13,3.13,0,0,1,.44-1.82m-1.53,1.78a3.69,3.69,0,0,0,.7,2.35,2.16,2.16,0,0,0,1.79.9,2.19,2.19,0,0,0,1.81-.79l.06.68h1v-9h-1.08v3.3a2.36,2.36,0,0,0-3.58.13,3.7,3.7,0,0,0-.69,2.34Zm-2.48-4.44a.76.76,0,0,0,1,0,.63.63,0,0,0,.16-.44.64.64,0,0,0-.16-.45.73.73,0,0,0-1,0,.64.64,0,0,0-.16.45.63.63,0,0,0,.16.44m1,1.24H99.69v6.34h1.08Zm-4,5.32a2,2,0,0,1-2.07-.07,1.11,1.11,0,0,1-.43-.86H93.14a1.81,1.81,0,0,0,.33,1,2.14,2.14,0,0,0,.92.75,3.19,3.19,0,0,0,1.35.27,2.85,2.85,0,0,0,1.76-.51,1.59,1.59,0,0,0,.68-1.36,1.48,1.48,0,0,0-.24-.86,1.88,1.88,0,0,0-.75-.61,5.57,5.57,0,0,0-1.31-.43,3.94,3.94,0,0,1-1.13-.39.67.67,0,0,1-.31-.59.82.82,0,0,1,.34-.67,1.48,1.48,0,0,1,.92-.26,1.46,1.46,0,0,1,1,.32A1,1,0,0,1,97,631h1.09a1.75,1.75,0,0,0-.67-1.42A2.64,2.64,0,0,0,95.7,629a2.57,2.57,0,0,0-1.68.54,1.65,1.65,0,0,0-.66,1.32,1.45,1.45,0,0,0,.23.81,1.88,1.88,0,0,0,.72.58,4.83,4.83,0,0,0,1.3.42,3.3,3.3,0,0,1,1.16.42.81.81,0,0,1,.33.69.79.79,0,0,1-.37.66m-4.32-5.36a1.19,1.19,0,0,0-.48-.08,1.68,1.68,0,0,0-1.51.85l0-.73H89.35v6.34h1.08V631a1.43,1.43,0,0,1,1.45-.91,2.93,2.93,0,0,1,.53,0Zm-5.85,1.26a2.06,2.06,0,0,1,.45,1.29v.08H83.83a2.36,2.36,0,0,1,.55-1.34,1.46,1.46,0,0,1,1.11-.48,1.35,1.35,0,0,1,1.07.45m1.45,4-.66-.52a2.46,2.46,0,0,1-.7.63,1.93,1.93,0,0,1-1,.23,1.69,1.69,0,0,1-1.33-.58,2.21,2.21,0,0,1-.55-1.51h4.29v-.45a3.61,3.61,0,0,0-.68-2.34,2.39,2.39,0,0,0-1.92-.81,2.53,2.53,0,0,0-1.41.42,2.86,2.86,0,0,0-1,1.16,3.8,3.8,0,0,0-.36,1.68v.2a3.15,3.15,0,0,0,.81,2.27,2.79,2.79,0,0,0,2.1.84A2.65,2.65,0,0,0,88,634.36m-10.28-5.23h-1.1l2.29,6.34h.83L82,629.13H80.91L79.34,634Zm-3.22-1.24a.62.62,0,0,0,.48.17.65.65,0,0,0,.48-.17.68.68,0,0,0,.16-.44.69.69,0,0,0-.16-.45.62.62,0,0,0-.48-.18.59.59,0,0,0-.48.18.64.64,0,0,0-.16.45.63.63,0,0,0,.16.44m1,1.24H74.43v6.34h1.09Zm-7.27-1.27H70a2,2,0,0,1,1.36.42,1.55,1.55,0,0,1,.47,1.22,1.47,1.47,0,0,1-.49,1.16,2,2,0,0,1-1.33.44H68.25Zm3.85,7.61h1.21v-.07l-2-3.62a2.52,2.52,0,0,0,1.19-.89,2.27,2.27,0,0,0,.43-1.39,2.36,2.36,0,0,0-.77-1.91,3.34,3.34,0,0,0-2.22-.65H67.12v8.53h1.13V632h2Zm-13.39-3.91h.81a2,2,0,0,1,1.32.41,1.41,1.41,0,0,1,.46,1.14,1.57,1.57,0,0,1-.42,1.18,1.66,1.66,0,0,1-1.2.41,1.74,1.74,0,0,1-1.18-.4,1.41,1.41,0,0,1-.44-1.08H57a2.12,2.12,0,0,0,.76,1.71,2.84,2.84,0,0,0,2,.65,2.8,2.8,0,0,0,2-.67,2.33,2.33,0,0,0,.75-1.82,2.07,2.07,0,0,0-.38-1.26,2.09,2.09,0,0,0-1.09-.74,2.17,2.17,0,0,0,1-.78,1.89,1.89,0,0,0,.36-1.08,2.32,2.32,0,0,0-.68-1.77,3.05,3.05,0,0,0-3.78,0,2.19,2.19,0,0,0-.74,1.68h1.08a1.4,1.4,0,0,1,.42-1.06,1.55,1.55,0,0,1,1.12-.4,1.33,1.33,0,0,1,1.5,1.5,1.37,1.37,0,0,1-.44,1.06,1.76,1.76,0,0,1-1.21.4h-.81Zm-5-2.91.13-.23v4.18H51.23ZM55,626.94H53.82L50,632.85v.64h3.89v2H55v-2h1.18v-.89H55ZM45,631.15a2.34,2.34,0,0,1-.42-1.44,2.25,2.25,0,0,1,.43-1.44,1.41,1.41,0,0,1,2.32.12,3,3,0,0,1,.47,1.73v.44a2,2,0,0,1-.68.82,1.61,1.61,0,0,1-1,.34,1.32,1.32,0,0,1-1.12-.57m2,2.7a2.94,2.94,0,0,1-2.06.7h-.23v.92h.21a3.77,3.77,0,0,0,3-1.17,5.52,5.52,0,0,0,1-3.64v-.31a4.1,4.1,0,0,0-.73-2.58,2.37,2.37,0,0,0-2-.95,2.64,2.64,0,0,0-1.39.36,2.31,2.31,0,0,0-.92,1.05,3.73,3.73,0,0,0,0,3,2.32,2.32,0,0,0,.85,1,2.42,2.42,0,0,0,2.32.12,2.83,2.83,0,0,0,.81-.65,3,3,0,0,1-.79,2.13m-4.51.73H38.22l2.29-2.48a4.87,4.87,0,0,0,1.6-3,2.14,2.14,0,0,0-.69-1.66,2.73,2.73,0,0,0-1.88-.62,2.79,2.79,0,0,0-2,.73,2.51,2.51,0,0,0-.76,1.9h1.09a1.79,1.79,0,0,1,.44-1.28,1.67,1.67,0,0,1,1.26-.46,1.4,1.4,0,0,1,1.08.43,1.51,1.51,0,0,1,.4,1.09,2.11,2.11,0,0,1-.24,1,7.36,7.36,0,0,1-.91,1.21l-2.95,3.28v.78h5.59Z"/><path d="M166.56,611.89a.76.76,0,0,0,1,0,.64.64,0,0,0,.17-.44.64.64,0,0,0-.17-.45.73.73,0,0,0-1,0,.69.69,0,0,0-.16.45.68.68,0,0,0,.16.44m1,1.24h-1.08v6.34h1.08Zm-4.71-1.54v1.54h-1.15V614h1.15v3.93a1.94,1.94,0,0,0,.37,1.25,1.36,1.36,0,0,0,1.1.43,3,3,0,0,0,.83-.11v-.88a2.41,2.41,0,0,1-.51.07.64.64,0,0,1-.54-.19.83.83,0,0,1-.16-.57V614h1.18v-.84H164v-1.54Zm-5.67,6.76a1,1,0,0,1-.34-.79c0-.78.67-1.17,2-1.17h.85v1.3a1.56,1.56,0,0,1-.66.69,2,2,0,0,1-1,.26,1.27,1.27,0,0,1-.87-.29m3.81,1.12v-.1a3.51,3.51,0,0,1-.22-1.39v-2.91a2,2,0,0,0-.65-1.51,2.46,2.46,0,0,0-1.71-.55,3.1,3.1,0,0,0-1.27.26,2.26,2.26,0,0,0-.92.7,1.51,1.51,0,0,0-.33.92H157a.86.86,0,0,1,.39-.71,1.56,1.56,0,0,1,1-.3,1.37,1.37,0,0,1,1,.34,1.21,1.21,0,0,1,.34.91v.49h-1.05a3.59,3.59,0,0,0-2.12.55,1.8,1.8,0,0,0-.75,1.54,1.71,1.71,0,0,0,.6,1.34,2.2,2.2,0,0,0,1.54.53,2.41,2.41,0,0,0,1.8-.78,2.49,2.49,0,0,0,.15.67Zm-11.67-6.34v6.34h1.08V615a2,2,0,0,1,.62-.74,1.57,1.57,0,0,1,.93-.28,1.27,1.27,0,0,1,1,.33,1.47,1.47,0,0,1,.31,1v4.2h1.08v-4.19c0-1.51-.68-2.27-2-2.27a2.3,2.3,0,0,0-1.9.91l0-.79Zm-6.62,0v6.34h1.08V615a2,2,0,0,1,.62-.74,1.57,1.57,0,0,1,.93-.28,1.27,1.27,0,0,1,1,.33,1.47,1.47,0,0,1,.31,1v4.2h1.08v-4.19c0-1.51-.68-2.27-2-2.27a2.3,2.3,0,0,0-1.9.91l0-.79ZM140,611.89a.76.76,0,0,0,1,0,.63.63,0,0,0,.16-.44.64.64,0,0,0-.16-.45.73.73,0,0,0-1,0,.64.64,0,0,0-.16.45.63.63,0,0,0,.16.44m1,1.24h-1.08v6.34H141Zm-6.2,5a2.76,2.76,0,0,1-.45-1.69v-.2a2.8,2.8,0,0,1,.45-1.72,1.51,1.51,0,0,1,1.28-.6,1.44,1.44,0,0,1,1,.4,1.52,1.52,0,0,1,.46,1h1a2.28,2.28,0,0,0-.76-1.66,2.52,2.52,0,0,0-1.77-.64,2.71,2.71,0,0,0-1.5.4,2.55,2.55,0,0,0-1,1.12,3.91,3.91,0,0,0-.34,1.64v.19a3.44,3.44,0,0,0,.77,2.36,2.83,2.83,0,0,0,3.28.57,2.51,2.51,0,0,0,.92-.78,2,2,0,0,0,.38-1h-1a1.24,1.24,0,0,1-.48.88,1.59,1.59,0,0,1-1,.35,1.53,1.53,0,0,1-1.29-.59m-7.88-5v6.34H128V615a1.94,1.94,0,0,1,.62-.74,1.52,1.52,0,0,1,.92-.28,1.24,1.24,0,0,1,1,.33,1.47,1.47,0,0,1,.32,1v4.2h1.08v-4.19c0-1.51-.69-2.27-2-2.27a2.32,2.32,0,0,0-1.9.91l0-.79Zm-2.74-1.24a.64.64,0,0,0,.48.17.65.65,0,0,0,.48-.17.63.63,0,0,0,.16-.44.64.64,0,0,0-.16-.45.62.62,0,0,0-.48-.18.6.6,0,0,0-.48.18.64.64,0,0,0-.16.45.63.63,0,0,0,.16.44m1,1.24h-1.09v6.34h1.09Zm-3.68,3.63a2.33,2.33,0,0,1-.66,1.48,2.17,2.17,0,0,1-1.44.42,1.87,1.87,0,0,1-1.62-.82,3.71,3.71,0,0,1-.58-2.21v-.82a3.63,3.63,0,0,1,.61-2.27,2,2,0,0,1,1.69-.8,1.91,1.91,0,0,1,1.37.46,2.37,2.37,0,0,1,.63,1.48h1.14a3.14,3.14,0,0,0-1-2.1,3.06,3.06,0,0,0-2.18-.76,3.36,3.36,0,0,0-1.8.48,3.23,3.23,0,0,0-1.21,1.39,4.9,4.9,0,0,0-.42,2.09v.82a4.34,4.34,0,0,0,.91,2.9,3,3,0,0,0,2.42,1.08,3.28,3.28,0,0,0,2.24-.73,3.17,3.17,0,0,0,1-2.09Zm-13.78-2.21a1.44,1.44,0,0,1,1.24-.62,1.58,1.58,0,0,1,1.49.9v2.91a1.56,1.56,0,0,1-1.5.92,1.43,1.43,0,0,1-1.23-.6,2.8,2.8,0,0,1-.45-1.69,3.05,3.05,0,0,1,.45-1.82m-1.53,1.78a3.75,3.75,0,0,0,.69,2.35,2.18,2.18,0,0,0,1.8.9,2.2,2.2,0,0,0,1.81-.79l0,.68h1v-9h-1.09v3.3a2.35,2.35,0,0,0-3.57.13,3.7,3.7,0,0,0-.69,2.34Zm-.62-3.24a1.19,1.19,0,0,0-.48-.08,1.66,1.66,0,0,0-1.51.85l0-.73h-1.06v6.34h1.09V615a1.41,1.41,0,0,1,1.44-.91,3,3,0,0,1,.54,0Zm-8.35,5.26a1,1,0,0,1-.34-.79c0-.78.66-1.17,2-1.17h.85v1.3a1.68,1.68,0,0,1-.66.69,2,2,0,0,1-1,.26,1.25,1.25,0,0,1-.87-.29m3.81,1.12v-.1a3.49,3.49,0,0,1-.23-1.39v-2.91a2,2,0,0,0-.64-1.51,2.49,2.49,0,0,0-1.72-.55,3.13,3.13,0,0,0-1.27.26,2.23,2.23,0,0,0-.91.7,1.52,1.52,0,0,0-.34.92H97a.84.84,0,0,1,.4-.71,1.54,1.54,0,0,1,1-.3,1.39,1.39,0,0,1,1,.34,1.21,1.21,0,0,1,.34.91v.49h-1a3.57,3.57,0,0,0-2.12.55,1.79,1.79,0,0,0-.76,1.54,1.71,1.71,0,0,0,.6,1.34,2.22,2.22,0,0,0,1.54.53,2.45,2.45,0,0,0,1.81-.78,2.49,2.49,0,0,0,.15.67Zm-10-6.34h-.88l-1.47,4.74-1.25-4.74H86.37l1.84,6.34h.88l1.5-4.81,1.54,4.81H93l1.84-6.34H93.77L92.55,618Zm-5.21,0a1.19,1.19,0,0,0-.48-.08,1.69,1.69,0,0,0-1.51.85l0-.73h-1v6.34h1.08V615a1.43,1.43,0,0,1,1.45-.91,2.93,2.93,0,0,1,.53,0Zm-8.61,1.45a1.55,1.55,0,0,1,1.29-.64,1.58,1.58,0,0,1,1.32.65,2.69,2.69,0,0,1,.49,1.69,3,3,0,0,1-.48,1.81,1.57,1.57,0,0,1-1.31.65,1.55,1.55,0,0,1-1.31-.64,2.67,2.67,0,0,1-.49-1.69,2.93,2.93,0,0,1,.49-1.83m-1.58,1.77a3.41,3.41,0,0,0,.8,2.38,2.65,2.65,0,0,0,2.09.89,2.74,2.74,0,0,0,1.51-.41,2.61,2.61,0,0,0,1-1.14,3.74,3.74,0,0,0,.36-1.66v-.08a3.44,3.44,0,0,0-.8-2.38,2.67,2.67,0,0,0-2.1-.9,2.89,2.89,0,0,0-1.49.4,2.86,2.86,0,0,0-1,1.15,3.83,3.83,0,0,0-.36,1.68Zm-1.35-1.53H70.72v-2.92h4.16v-.92H69.59v8.53h1.13V615.7H74.3Zm-11.38-3.19v1.54H61.77V614h1.15v3.93a1.88,1.88,0,0,0,.37,1.25,1.36,1.36,0,0,0,1.1.43,3.11,3.11,0,0,0,.83-.11v-.88a2.41,2.41,0,0,1-.52.07.67.67,0,0,1-.54-.19.88.88,0,0,1-.16-.57V614h1.19v-.84H64v-1.54Zm-3.13.3a.76.76,0,0,0,1,0,.63.63,0,0,0,.16-.44.64.64,0,0,0-.16-.45.73.73,0,0,0-1,0,.64.64,0,0,0-.16.45.63.63,0,0,0,.16.44m1,1.24H59.72v6.34H60.8Zm-9.33,0H50.28l2.26,6.27-.24.64a1.62,1.62,0,0,1-.5.82,1.52,1.52,0,0,1-.86.22l-.29,0v.87l.4.08.2,0c.86,0,1.49-.53,1.89-1.58l2.54-7.32H54.52l-1.47,4.75Zm-5.69,5.22a1,1,0,0,1-.34-.79c0-.78.66-1.17,2-1.17h.85v1.3a1.68,1.68,0,0,1-.66.69,2,2,0,0,1-1,.26,1.24,1.24,0,0,1-.87-.29m3.8,1.12v-.1a3.7,3.7,0,0,1-.22-1.39v-2.91a2,2,0,0,0-.64-1.51A2.5,2.5,0,0,0,47,613a3.13,3.13,0,0,0-1.27.26,2.23,2.23,0,0,0-.91.7,1.46,1.46,0,0,0-.34.92h1.09a.86.86,0,0,1,.39-.71,1.59,1.59,0,0,1,1-.3,1.39,1.39,0,0,1,1,.34,1.25,1.25,0,0,1,.34.91v.49H47.22a3.61,3.61,0,0,0-2.12.55,1.8,1.8,0,0,0-.75,1.54,1.71,1.71,0,0,0,.6,1.34,2.22,2.22,0,0,0,1.54.53,2.45,2.45,0,0,0,1.81-.78,2.15,2.15,0,0,0,.15.67Zm-11.26-7.61h2.09a1.91,1.91,0,0,1,1.32.47,1.61,1.61,0,0,1,.48,1.22,1.55,1.55,0,0,1-.48,1.23,2,2,0,0,1-1.39.43h-2Zm2,4.27a3.35,3.35,0,0,0,2.23-.67,2.72,2.72,0,0,0,0-3.81,3.15,3.15,0,0,0-2.2-.71H37.2v8.53h1.12v-3.34Z"/><path d="M203.42,586.42a.65.65,0,0,0,.5.18.67.67,0,0,0,.51-.18.64.64,0,0,0,.17-.45.7.7,0,0,0-.17-.47.67.67,0,0,0-.51-.18.65.65,0,0,0-.5.18.7.7,0,0,0-.17.47.64.64,0,0,0,.17.45m0,5.18a.64.64,0,0,0,.5.18.65.65,0,0,0,.5-.18.61.61,0,0,0,.18-.45.64.64,0,0,0-.18-.47.62.62,0,0,0-.5-.19.61.61,0,0,0-.5.19.63.63,0,0,0-.17.47.6.6,0,0,0,.17.45m-5.68-4.81a1.53,1.53,0,0,1,1.29-.64,1.56,1.56,0,0,1,1.32.65,2.69,2.69,0,0,1,.49,1.69,2.93,2.93,0,0,1-.49,1.81A1.55,1.55,0,0,1,199,591a1.6,1.6,0,0,1-1.31-.64,2.77,2.77,0,0,1-.49-1.7,2.9,2.9,0,0,1,.5-1.82m-1.59,1.77a3.46,3.46,0,0,0,.8,2.38,2.7,2.7,0,0,0,2.09.89,2.86,2.86,0,0,0,1.52-.41,2.67,2.67,0,0,0,1-1.14,3.76,3.76,0,0,0,.35-1.67v-.07a3.48,3.48,0,0,0-.79-2.39,2.72,2.72,0,0,0-2.1-.89,2.75,2.75,0,0,0-1.49.4,2.66,2.66,0,0,0-1,1.15,3.81,3.81,0,0,0-.37,1.68ZM193,583.84v1.53h-1.15v.84H193v3.93a1.92,1.92,0,0,0,.37,1.25,1.34,1.34,0,0,0,1.1.44,3.44,3.44,0,0,0,.83-.11v-.88a2.41,2.41,0,0,1-.51.07.64.64,0,0,1-.54-.19.86.86,0,0,1-.16-.57v-3.94h1.18v-.84h-1.18v-1.53Zm-6.14,2.76a2,2,0,0,1,.45,1.28V588h-3.18a2.32,2.32,0,0,1,.55-1.33,1.46,1.46,0,0,1,1.11-.48,1.35,1.35,0,0,1,1.07.45m1.45,4-.66-.52a2.29,2.29,0,0,1-.7.62,1.84,1.84,0,0,1-1,.24,1.73,1.73,0,0,1-1.33-.58,2.24,2.24,0,0,1-.55-1.52h4.29v-.45a3.56,3.56,0,0,0-.68-2.33,2.39,2.39,0,0,0-1.92-.81,2.53,2.53,0,0,0-1.41.42,2.79,2.79,0,0,0-1,1.16,3.77,3.77,0,0,0-.36,1.68v.2a3.11,3.11,0,0,0,.81,2.26,2.76,2.76,0,0,0,2.1.85,2.67,2.67,0,0,0,2.39-1.22m-6.75-7.9h-1.09v9h1.09Zm-4.07,7.6a1.39,1.39,0,0,1-1.21.6,1.63,1.63,0,0,1-1.55-1v-2.75a1.59,1.59,0,0,1,1.54-1,1.41,1.41,0,0,1,1.23.6,2.88,2.88,0,0,1,.43,1.71,3.11,3.11,0,0,1-.44,1.82m1.52-1.79a3.88,3.88,0,0,0-.66-2.39,2.14,2.14,0,0,0-1.81-.87,2.2,2.2,0,0,0-1.81.81v-3.36h-1.08v9h1l.05-.73a2.21,2.21,0,0,0,1.86.85,2.12,2.12,0,0,0,1.79-.88,3.76,3.76,0,0,0,.67-2.34Zm-10.65,2.08a1,1,0,0,1-.34-.8c0-.77.66-1.16,2-1.16h.85v1.3a1.54,1.54,0,0,1-.66.68,1.87,1.87,0,0,1-1,.27,1.32,1.32,0,0,1-.87-.29m3.81,1.11v-.09a3.55,3.55,0,0,1-.22-1.39v-2.92a2,2,0,0,0-.65-1.5,2.49,2.49,0,0,0-1.72-.55,2.9,2.9,0,0,0-1.26.26,2.26,2.26,0,0,0-.92.7,1.5,1.5,0,0,0-.33.91h1.08a.88.88,0,0,1,.4-.71,1.6,1.6,0,0,1,1-.29,1.33,1.33,0,0,1,1,.34,1.18,1.18,0,0,1,.34.9v.5h-1a3.52,3.52,0,0,0-2.12.55A1.79,1.79,0,0,0,167,590a1.71,1.71,0,0,0,.6,1.34,2.24,2.24,0,0,0,1.53.53,2.43,2.43,0,0,0,1.81-.78,2.3,2.3,0,0,0,.15.66ZM162,585.37h-1.18l2.26,6.27-.24.65a1.57,1.57,0,0,1-.51.81,1.42,1.42,0,0,1-.86.23l-.29,0v.88l.4.08h.21c.86,0,1.49-.52,1.88-1.58l2.55-7.32H165.1l-1.48,4.76Zm-5.69,5.23a1,1,0,0,1-.34-.8c0-.77.66-1.16,2-1.16h.85v1.3a1.49,1.49,0,0,1-.66.68,1.87,1.87,0,0,1-1,.27,1.32,1.32,0,0,1-.87-.29m3.81,1.11v-.09a3.55,3.55,0,0,1-.22-1.39v-2.92a2,2,0,0,0-.65-1.5,2.46,2.46,0,0,0-1.71-.55,2.92,2.92,0,0,0-1.27.26,2.26,2.26,0,0,0-.92.7,1.5,1.5,0,0,0-.33.91h1.09a.87.87,0,0,1,.39-.71,1.6,1.6,0,0,1,1-.29,1.33,1.33,0,0,1,1,.34,1.18,1.18,0,0,1,.34.9v.5h-1a3.52,3.52,0,0,0-2.12.55,1.79,1.79,0,0,0-.75,1.54,1.71,1.71,0,0,0,.6,1.34,2.25,2.25,0,0,0,1.54.53,2.42,2.42,0,0,0,1.8-.78,2.3,2.3,0,0,0,.15.66Zm-8-1.38A1.48,1.48,0,0,1,151,591a1.59,1.59,0,0,1-1.49-.87v-3a1.6,1.6,0,0,1,1.48-.87,1.45,1.45,0,0,1,1.25.62,2.76,2.76,0,0,1,.46,1.69,3.12,3.12,0,0,1-.46,1.84m1.54-1.81a3.85,3.85,0,0,0-.66-2.4,2.16,2.16,0,0,0-1.81-.86,2.22,2.22,0,0,0-1.84.82l0-.71h-1v8.78h1.08v-3a2.32,2.32,0,0,0,1.82.73,2.12,2.12,0,0,0,1.79-.88,3.82,3.82,0,0,0,.66-2.34Zm-11.19,2.18a1.81,1.81,0,0,1-1,.25,1.73,1.73,0,0,1-1.08-.32,1.13,1.13,0,0,1-.43-.87H139a1.76,1.76,0,0,0,.34,1,2.18,2.18,0,0,0,.91.75,3.19,3.19,0,0,0,1.35.27,2.85,2.85,0,0,0,1.76-.51A1.61,1.61,0,0,0,144,590a1.53,1.53,0,0,0-.24-.87,1.86,1.86,0,0,0-.75-.6,5.54,5.54,0,0,0-1.31-.44,3.79,3.79,0,0,1-1.12-.38.66.66,0,0,1-.32-.59.81.81,0,0,1,.34-.67,1.42,1.42,0,0,1,.92-.26,1.46,1.46,0,0,1,1,.32,1,1,0,0,1,.37.77h1.09a1.78,1.78,0,0,0-.67-1.43,2.64,2.64,0,0,0-1.75-.55,2.57,2.57,0,0,0-1.68.54,1.64,1.64,0,0,0-.66,1.31,1.41,1.41,0,0,0,.23.81,1.81,1.81,0,0,0,.72.59,5.84,5.84,0,0,0,1.3.42,3.3,3.3,0,0,1,1.16.42.8.8,0,0,1,.33.68.77.77,0,0,1-.37.67m-5.43,1h1.28L135.63,588l2.47-2.65h-1.32l-2,2.09-.58.7v-5.45h-1.09v9h1.09v-2.22l.68-.71Zm-9-1.36a2.71,2.71,0,0,1-.45-1.68v-.21a2.82,2.82,0,0,1,.45-1.72,1.53,1.53,0,0,1,1.28-.59,1.48,1.48,0,0,1,1,.39,1.49,1.49,0,0,1,.46,1h1a2.26,2.26,0,0,0-.76-1.65,2.52,2.52,0,0,0-1.77-.64,2.71,2.71,0,0,0-1.5.4,2.53,2.53,0,0,0-1,1.11,4,4,0,0,0-.34,1.65v.18a3.47,3.47,0,0,0,.77,2.37,2.62,2.62,0,0,0,2.06.86,2.74,2.74,0,0,0,1.22-.29,2.53,2.53,0,0,0,.92-.79,1.94,1.94,0,0,0,.38-1h-1a1.24,1.24,0,0,1-.48.88,1.59,1.59,0,0,1-1,.35,1.52,1.52,0,0,1-1.29-.6m-4-3.75a2,2,0,0,1,.45,1.28V588h-3.18a2.26,2.26,0,0,1,.55-1.33,1.46,1.46,0,0,1,1.1-.48,1.35,1.35,0,0,1,1.08.45m1.45,4-.66-.52a2.41,2.41,0,0,1-.7.62,1.86,1.86,0,0,1-1,.24,1.75,1.75,0,0,1-1.34-.58,2.23,2.23,0,0,1-.54-1.52h4.29v-.45a3.56,3.56,0,0,0-.68-2.33,2.39,2.39,0,0,0-1.93-.81,2.52,2.52,0,0,0-1.4.42,2.79,2.79,0,0,0-1,1.16,3.77,3.77,0,0,0-.36,1.68v.2A3.11,3.11,0,0,0,121,591a2.76,2.76,0,0,0,2.1.85,2.67,2.67,0,0,0,2.39-1.22M115,582.71h-1.08v9H115V587.2a2,2,0,0,1,.62-.74,1.57,1.57,0,0,1,.93-.28,1.27,1.27,0,0,1,1,.33,1.43,1.43,0,0,1,.31,1v4.19h1.08v-4.19c0-1.51-.68-2.26-2-2.26a2.31,2.31,0,0,0-1.88.88Zm-6.11,7.64a2.71,2.71,0,0,1-.45-1.68v-.21a2.82,2.82,0,0,1,.45-1.72,1.54,1.54,0,0,1,1.28-.59,1.48,1.48,0,0,1,1,.39,1.49,1.49,0,0,1,.46,1h1a2.25,2.25,0,0,0-.75-1.65,2.54,2.54,0,0,0-1.78-.64,2.73,2.73,0,0,0-1.5.4,2.51,2.51,0,0,0-1,1.11,3.8,3.8,0,0,0-.34,1.65v.18a3.46,3.46,0,0,0,.76,2.37,2.63,2.63,0,0,0,2.06.86,2.71,2.71,0,0,0,1.22-.29,2.45,2.45,0,0,0,.92-.79,1.94,1.94,0,0,0,.38-1h-1a1.24,1.24,0,0,1-.48.88,1.57,1.57,0,0,1-1,.35,1.52,1.52,0,0,1-1.29-.6m-7-3.75a2,2,0,0,1,.45,1.28V588H99.12a2.32,2.32,0,0,1,.55-1.33,1.46,1.46,0,0,1,1.1-.48,1.35,1.35,0,0,1,1.08.45m1.45,4-.66-.52a2.29,2.29,0,0,1-.7.62,1.86,1.86,0,0,1-1,.24,1.75,1.75,0,0,1-1.34-.58,2.28,2.28,0,0,1-.54-1.52h4.29v-.45a3.56,3.56,0,0,0-.68-2.33,2.39,2.39,0,0,0-1.93-.81,2.52,2.52,0,0,0-1.4.42,2.79,2.79,0,0,0-1,1.16,3.77,3.77,0,0,0-.36,1.68v.2a3.11,3.11,0,0,0,.81,2.26,2.76,2.76,0,0,0,2.1.85,2.67,2.67,0,0,0,2.39-1.22m-7,1.1h1.27L94.81,588l2.47-2.65H96l-2,2.09-.58.7v-5.45H92.32v9H93.4v-2.22l.68-.71ZM87,590.6a1,1,0,0,1-.34-.8c0-.77.66-1.16,2-1.16h.85v1.3a1.6,1.6,0,0,1-.66.68,1.9,1.9,0,0,1-1,.27,1.3,1.3,0,0,1-.87-.29m3.81,1.11v-.09a3.53,3.53,0,0,1-.23-1.39v-2.92a1.94,1.94,0,0,0-.64-1.5,2.49,2.49,0,0,0-1.72-.55,3,3,0,0,0-1.27.26,2.23,2.23,0,0,0-.91.7,1.51,1.51,0,0,0-.34.91h1.09a.86.86,0,0,1,.4-.71,1.6,1.6,0,0,1,1-.29,1.35,1.35,0,0,1,1,.34,1.18,1.18,0,0,1,.34.9v.5h-1a3.52,3.52,0,0,0-2.12.55A1.8,1.8,0,0,0,85.6,590a1.68,1.68,0,0,0,.61,1.34,2.24,2.24,0,0,0,1.53.53,2.45,2.45,0,0,0,1.81-.78,2.3,2.3,0,0,0,.15.66Zm-15.58-6.34v6.34h1.09v-4.62a1.44,1.44,0,0,1,1.46-.91,1.21,1.21,0,0,1,1.35,1.38v4.15h1.09v-4.2a1.46,1.46,0,0,1,.46-1,1.44,1.44,0,0,1,1-.36,1.41,1.41,0,0,1,1.05.33,1.52,1.52,0,0,1,.31,1v4.18h1.08v-4.24c0-1.48-.73-2.21-2.12-2.21a2.42,2.42,0,0,0-1.2.28,2.34,2.34,0,0,0-.82.74,1.81,1.81,0,0,0-1.81-1,2.32,2.32,0,0,0-1.88.82l0-.71Zm-5.75,1.23a2,2,0,0,1,.45,1.28V588H66.78a2.26,2.26,0,0,1,.56-1.33,1.43,1.43,0,0,1,1.1-.48,1.35,1.35,0,0,1,1.07.45m1.45,4-.66-.52a2.29,2.29,0,0,1-.7.62,1.84,1.84,0,0,1-1,.24,1.73,1.73,0,0,1-1.33-.58,2.24,2.24,0,0,1-.55-1.52H71v-.45a3.5,3.5,0,0,0-.68-2.33,2.39,2.39,0,0,0-1.92-.81,2.53,2.53,0,0,0-1.41.42,2.77,2.77,0,0,0-1,1.16,3.77,3.77,0,0,0-.36,1.68v.2a3.11,3.11,0,0,0,.8,2.26,2.76,2.76,0,0,0,2.1.85A2.67,2.67,0,0,0,71,590.61m-7.89.09a1.78,1.78,0,0,1-1,.25,1.71,1.71,0,0,1-1.08-.32,1.14,1.14,0,0,1-.44-.87H59.49a1.81,1.81,0,0,0,.33,1,2.21,2.21,0,0,0,.92.75,3.19,3.19,0,0,0,1.35.27,2.85,2.85,0,0,0,1.76-.51,1.63,1.63,0,0,0,.68-1.36,1.53,1.53,0,0,0-.24-.87,2,2,0,0,0-.75-.6,5.8,5.8,0,0,0-1.32-.44,3.91,3.91,0,0,1-1.12-.38.65.65,0,0,1-.31-.59.8.8,0,0,1,.33-.67,1.47,1.47,0,0,1,.93-.26,1.44,1.44,0,0,1,1,.32,1,1,0,0,1,.38.77h1.09a1.78,1.78,0,0,0-.67-1.43,2.66,2.66,0,0,0-1.75-.55,2.55,2.55,0,0,0-1.68.54,1.64,1.64,0,0,0-.66,1.31,1.34,1.34,0,0,0,.23.81,1.77,1.77,0,0,0,.71.59,5.77,5.77,0,0,0,1.31.42,3.23,3.23,0,0,1,1.15.42.8.8,0,0,1,.33.68.77.77,0,0,1-.37.67m-8.6-.1a1,1,0,0,1-.34-.8c0-.77.66-1.16,2-1.16H57v1.3a1.6,1.6,0,0,1-.66.68,1.9,1.9,0,0,1-1,.27,1.3,1.3,0,0,1-.87-.29m3.81,1.11v-.09a3.53,3.53,0,0,1-.23-1.39v-2.92a1.94,1.94,0,0,0-.64-1.5,2.49,2.49,0,0,0-1.72-.55,3,3,0,0,0-1.27.26,2.23,2.23,0,0,0-.91.7,1.51,1.51,0,0,0-.34.91h1.09a.86.86,0,0,1,.4-.71,1.6,1.6,0,0,1,1-.29,1.35,1.35,0,0,1,1,.34,1.18,1.18,0,0,1,.34.9v.5h-1a3.5,3.5,0,0,0-2.12.55A1.78,1.78,0,0,0,53,590a1.71,1.71,0,0,0,.6,1.34,2.27,2.27,0,0,0,1.54.53,2.45,2.45,0,0,0,1.81-.78,2.3,2.3,0,0,0,.15.66Zm-7.84-5.11a2,2,0,0,1,.45,1.28V588H47.71a2.32,2.32,0,0,1,.55-1.33,1.46,1.46,0,0,1,1.1-.48,1.35,1.35,0,0,1,1.08.45m1.45,4-.66-.52a2.29,2.29,0,0,1-.7.62,1.86,1.86,0,0,1-1,.24,1.75,1.75,0,0,1-1.34-.58,2.28,2.28,0,0,1-.54-1.52H52v-.45a3.56,3.56,0,0,0-.68-2.33,2.39,2.39,0,0,0-1.93-.81,2.52,2.52,0,0,0-1.4.42,2.79,2.79,0,0,0-1,1.16,3.77,3.77,0,0,0-.36,1.68v.2A3.11,3.11,0,0,0,47.4,591a2.76,2.76,0,0,0,2.1.85,2.67,2.67,0,0,0,2.39-1.22m-6.76-7.9H44.05v9h1.08Zm-7.45,1.39h2.09a1.89,1.89,0,0,1,1.32.48,1.6,1.6,0,0,1,.48,1.22,1.55,1.55,0,0,1-.48,1.23,2.08,2.08,0,0,1-1.39.42h-2Zm2,4.27a3.26,3.26,0,0,0,2.22-.67,2.37,2.37,0,0,0,.78-1.91,2.41,2.41,0,0,0-.79-1.89,3.15,3.15,0,0,0-2.2-.72H36.56v8.53h1.12v-3.34Z"/></g></svg>