<svg xmlns="http://www.w3.org/2000/svg" viewBox="0 0 128 128"><defs><style>.cls-1{fill:#1d6fed;}.cls-2{fill:#fff;fill-rule:evenodd;}</style></defs><title>beh-large</title><g id="Layer_2" data-name="Layer 2"><g id="Circle_Color" data-name="Circle Color"><g id="Behance"><circle id="back" class="cls-1" cx="64" cy="64" r="64"/><path id="Behance-2" data-name="Behance" class="cls-2" d="M48.57,66.47H37.1v12.1H48.39c3.88,0,7-1.23,7-5.81S52.76,66.47,48.57,66.47ZM47.1,48.85h-10v10.3H47.85c3.41,0,6-1.53,6-5.24C53.81,49.7,50.59,48.85,47.1,48.85ZM65.4,72.94c0,9-7.67,12.77-15.68,12.77H28.16V41.42H49.09c8.45,0,14.21,3,14.21,11.2,0,4.3-2.2,7.31-6,9.18C62.66,63.34,65.4,67.46,65.4,72.94ZM75.94,44.4H93.77v5.93H75.94Zm8,15.17c-5.6,0-7.23,3.14-7.35,5.57H91C90.15,60.72,88.23,59.57,83.92,59.57ZM76.57,70.9c.24,5.54,3,9.09,7.89,9.09,3.56,0,6.81-2.89,7.38-4.88h7.77c-2.47,7.53-8.16,11.47-15.45,11.47-10.14,0-16.53-6.89-16.53-16.77C67.63,60.26,74.4,53,84.16,53c11,0,16.26,8.1,15.63,17.92Z"/></g></g></g></svg>