<svg xmlns="http://www.w3.org/2000/svg" viewBox="0 0 72.22 73.1"><defs><style>.cls-4{fill:#54575a}.cls-6{fill:#79242f}</style></defs><g id="Layer_2" data-name="Layer 2"><g id="color"><g id="smartsearch-color"><circle cx="36" cy="36" r="36" fill="#cbcdce"/><path d="M67.16 30.2l-9.54-10.37-8.08 10.37h5.63a21.2 21.2 0 11-6.88-10.58L52.91 15A27.57 27.57 0 1062 30.2z" fill="#fff"/><path d="M47.68 24.73a11.68 11.68 0 10-21 7 18 18 0 013.72 10.75v.78h11.24v-.4a19.12 19.12 0 013.8-11.25 11.57 11.57 0 002.24-6.88z" fill="#d48a94"/><path class="cls-4" d="M40.83 46.47h-9.66l-.81-3.22h11.28l-.81 3.22z"/><path fill="#76777b" d="M40.43 48.95h-8.86l-.4-2.48h9.66l-.4 2.48z"/><path class="cls-4" d="M39.32 51.25h-6.64l-.3-2.3h7.24l-.3 2.3z"/><path class="cls-6" d="M42.13 27.73a2.33 2.33 0 00-2.83 1 6.72 6.72 0 00-.87 2 22 22 0 01-5 0 6.72 6.72 0 00-.87-2 2.33 2.33 0 00-2.83-1 1.72 1.72 0 00-1 1.93c.15.74.85 1.84 3.52 2.37a62.41 62.41 0 011 11.22h1.53a65.4 65.4 0 00-.89-11c.6.05 1.29.08 2 .08H36c.75 0 1.44 0 2-.08a65.4 65.4 0 00-.89 11h1.53a62.41 62.41 0 011-11.22c2.67-.53 3.37-1.63 3.52-2.37a1.72 1.72 0 00-1.03-1.93zm-11.9 1.62c0-.12.1-.19.15-.22a.58.58 0 01.19 0 1 1 0 01.78.51 3.59 3.59 0 01.38.71c-1.07-.35-1.46-.78-1.5-1zm9.94 1a3.59 3.59 0 01.38-.71 1 1 0 01.78-.51.58.58 0 01.19 0s.18.1.15.22-.43.65-1.5.97zM36 15.88a17 17 0 00-4.94 3.52 9 9 0 00-1.62 2.4 21.8 21.8 0 00-1.09 2.93 6.83 6.83 0 011.57-6.36 7.75 7.75 0 012.81-1.95 7 7 0 013.27-.54z"/><path d="M65.25 69.07h-1.37v-.49h3.35v.49h-1.39v4h-.59zM71.54 71.11c0-.63-.07-1.39-.07-2-.15.53-.34 1.09-.57 1.72l-.8 2.19h-.44l-.73-2.15c-.21-.64-.39-1.22-.52-1.76 0 .56 0 1.32-.08 2l-.12 1.94h-.56l.31-4.52h.75l.77 2.18c.19.56.34 1.06.46 1.52.11-.45.27-1 .47-1.52l.81-2.18h.74l.28 4.52h-.57z"/></g></g></g></svg>