<svg version="1.1" id="Layer_1" xmlns="http://www.w3.org/2000/svg" x="0" y="0" viewBox="0 0 50.8 50.8" xml:space="preserve"><style>.st0{fill:#aa192d}</style><g id="Layer_2_1_"><g id="small"><g id="smartsearch-small"><path class="st0" d="M25.4 0C11.4 0 0 11.4 0 25.4s11.4 25.4 25.4 25.4 25.4-11.4 25.4-25.4S39.4 0 25.4 0zm0 49.7C11.9 49.7 1 38.8 1 25.4S11.9 1 25.4 1s24.4 10.9 24.4 24.4c0 13.4-10.9 24.3-24.4 24.3z"/><path class="st0" d="M21.1 34.8l.5 2 .4 1.9h.6l.2 1.8H28l.2-1.8h.6l.3-1.9.5-2h.5V34c0-2.9 1-5.8 2.7-8.1 3-4.1 2-9.9-2.1-12.8s-9.9-2-12.8 2.1c-1.2 1.7-1.8 3.8-1.7 6 .1 1.8.7 3.5 1.8 4.9 1.7 2.2 2.7 4.9 2.7 7.7v1.1h.4zm-2.3-9.4c-2.7-3.6-2-8.8 1.7-11.5s8.8-2 11.5 1.7c2.2 2.9 2.2 6.8.1 9.8-1.8 2.5-2.9 5.4-2.9 8.5H28c-.5-3-.6-6.1-.4-9.1 1.9-.4 2.3-1.3 2.4-1.7.1-.6-.3-1.2-.8-1.4-.6-.2-1.4 0-2 1.1-.2.3-.3.7-.4 1.1-.4 0-.9.1-1.3.1v1h1.1c-.2 3 0 6 .4 8.9h-3c.4-2.9.6-5.9.4-8.8h1.1v-1c-.4 0-.8 0-1.3-.1-.1-.4-.2-.7-.4-1.1-.6-1.1-1.4-1.3-2-1.1-.6.2-.9.8-.8 1.4.1.4.5 1.3 2.4 1.7.2 3 .1 6-.4 9h-1.2v-.1c-.1-3.1-1.1-6-3-8.4zm9-1.7c0-.1.1-.3.2-.4.2-.5.5-.6.7-.6h.1c.1 0 .2.1.2.2-.1.2-.5.6-1.2.8zm-4.7 0c-.8-.2-1.1-.5-1.1-.8 0-.1.1-.2.2-.2h.1c.2 0 .5.2.7.6 0 .1 0 .2.1.4z"/><path class="st0" d="M24.1 16c.3.1.5-.1.6-.4.1-.3-.1-.5-.4-.6-1.1-.2-2.3 0-3.2.6-1.3 1-2.1 2.6-2.2 4.2 0 .3.2.5.4.6h.1c.2 0 .4-.2.5-.4 0-1.4.7-2.7 1.7-3.5.7-.5 1.6-.7 2.5-.5z"/><path class="st0" d="M41.9 15.6L39 22l3.3-.8c2.5 9.2-2.9 18.6-12.1 21.1s-18.7-3-21.1-12.1S12 11.6 21.2 9.1c5.8-1.6 12 0 16.3 4.1.2.1.4.2.6.2.5.1 1-.3 1.1-.9.1-.5-.2-.9-.6-1.1-8-7-20.2-6.3-27.2 1.6S5 33.2 12.9 40.2s20.1 6.4 27.2-1.5c3.2-3.6 4.9-8.2 4.9-13 0-1.7-.2-3.4-.7-5.1l3.6-.9-6-4.1z"/></g></g></g></svg>