<svg xmlns="http://www.w3.org/2000/svg" viewBox="0 0 73.16 73.16"><defs><style>.cls-1,.cls-2{fill:#fff}.cls-1{opacity:.5}</style></defs><g id="Layer_2" data-name="Layer 2"><g id="one"><g id="connxsmart-one"><ellipse class="cls-1" cx="36.2" cy="35.96" rx="36.2" ry="35.96"/><path class="cls-1" d="M56 37.74A10.66 10.66 0 0042.74 31l-7 2.36-7 2.55a5.47 5.47 0 01-3.46-10.18l20.35-7.29-1.74-5.13-20.33 7.52a10.56 10.56 0 00-6.46 13.33 10.68 10.68 0 0013.28 6.71l7-2.37 7-2.54a5.46 5.46 0 013.46 10.17l-20.31 7.31 1.75 5.13 20.28-7.48A10.56 10.56 0 0056 37.74z"/><ellipse class="cls-2" cx="62.52" cy="35.92" rx="3.12" ry="3.1"/><ellipse class="cls-2" cx="10.85" cy="36.96" rx="3.12" ry="3.1"/><path class="cls-2" d="M27.53 53.44l1.75 5.13 4.59-1.69-1.75-5.08-4.59 1.64zM45.59 18.47l-1.75-5.13-4.79 1.77 1.85 5.04 4.69-1.68zM69.53 65.88a3.63 3.63 0 012.56 6.21 3.47 3.47 0 01-2.56 1.07 3.64 3.64 0 01-3.66-3.64A3.5 3.5 0 0166.94 67a3.56 3.56 0 012.59-1.12zm0 .38a3 3 0 00-2.26.95 3.31 3.31 0 000 4.62 3.14 3.14 0 004.52 0 3.33 3.33 0 000-4.62 3 3 0 00-2.27-.95zm-1.63 5.26v-4.07h2c.83 0 1.24.4 1.24 1.19 0 .58-.18.93-.56 1.06a.73.73 0 01.51.78v1h-.54v-.94c0-.43-.2-.65-.6-.65h-1.53v1.59zm.53-2.07h1.32c.58 0 .87-.23.87-.7a1.1 1.1 0 00-.13-.67.79.79 0 00-.58-.15h-1.49z"/></g></g></g></svg>