<svg version="1.1" id="Layer_1" xmlns="http://www.w3.org/2000/svg" x="0" y="0" viewBox="0 0 50.8 50.8" xml:space="preserve"><style>.st0{fill:#aa192d}</style><g id="Layer_2_1_"><g id="small"><g id="smartscrub-small"><path class="st0" d="M37.8 28.9c-.1-4.3-2.8-8.1-6.9-9.5v-.1c.4-1.7-.6-3.3-2.3-3.7L30 9.5l-1.4-.3.5-2.1-3.9-.9-.5 2.1-1.4-.3-3.2 13.7v.1l-.4 5 1.3.3-.6 2.6 2.5.6.6-2.6 1.4.3 1.8-4.7c0-.1.1-.2.1-.3l.3-1.2c.9.2 1.9-.1 2.6-.6 3.6 1.6 5.1 5.9 3.5 9.5-1.1 2.4-3.5 4-6.1 4.1-.8-.9-2.2-1.1-3.1-.3-.2.2-.4.4-.6.7h-6.9v2.3h6.6v3.4h-7.2c-1.2 0-2.3.8-2.7 1.9h23.1c-.4-1.1-1.5-1.9-2.7-1.9h-6.1v-1.5c5.8-.3 10.3-4.9 10.3-10.5z"/><path class="st0" d="M25.4 0C11.4 0 0 11.4 0 25.4s11.4 25.4 25.4 25.4 25.4-11.4 25.4-25.4S39.4 0 25.4 0zm0 49.7C11.9 49.7 1 38.8 1 25.4 1 11.9 11.9 1 25.4 1c13.5 0 24.4 10.9 24.4 24.4-.1 13.4-11 24.3-24.4 24.3z"/></g></g></g></svg>