<svg xmlns="http://www.w3.org/2000/svg" viewBox="0 0 50.8 50.8"><defs><style>.cls-1{fill:#fff}</style></defs><g id="Layer_2" data-name="Layer 2"><g id="small"><g id="scorecard-small"><path class="cls-1" d="M38.11 14.82h-3.57V13h-4.08a5.77 5.77 0 00-10.75 0h-4.07v1.82h-3.53a5.61 5.61 0 00-5.59 5.59v11.32a5.61 5.61 0 005.59 5.59h26a5.6 5.6 0 005.59-5.59V20.41a5.61 5.61 0 00-5.59-5.59zm-13-3.43a2.1 2.1 0 012.1 2.1H23a2.1 2.1 0 012.1-2.1zM42.7 31.73a4.61 4.61 0 01-4.59 4.59h-26a4.61 4.61 0 01-4.59-4.59V20.41a4.61 4.61 0 014.59-4.59h3.53v1.38h18.9v-1.38h3.57a4.61 4.61 0 014.59 4.59z"/><path class="cls-1" d="M26.4 20.24h13.13v1.23H26.4zM26.4 23.67h9.45v1.23H26.4zM29.45 27.09l-1.4 1.42-1.4-1.42-.71.72 1.4 1.42-1.4 1.41.71.72 1.4-1.42 1.4 1.42.71-.72-1.4-1.41 1.4-1.42-.71-.72z"/><path class="cls-1" d="M25.4 0a25.4 25.4 0 1025.4 25.4A25.4 25.4 0 0025.4 0zm0 49.72A24.36 24.36 0 1149.76 25.4 24.36 24.36 0 0125.4 49.72z"/><path class="cls-1" d="M17.85 21.19a1.91 1.91 0 00-2.61-.7 2 2 0 00-.7.7l-4.24 7.34a1.91 1.91 0 001.7 2.86h8.47a1.9 1.9 0 001.88-1.92 1.85 1.85 0 00-.26-.94zM17 30.34h-1.37V29H17zm-.06-2.42H15.7l-.17-4.24h1.55z"/></g></g></g></svg>