<svg version="1.1" id="Layer_1" xmlns="http://www.w3.org/2000/svg" x="0" y="0" viewBox="0 0 50.8 50.8" xml:space="preserve"><style>.st0{fill:#aa192d}</style><g id="Layer_2_1_"><g id="small"><g id="portal-small"><path class="st0" d="M36.1 22.4V19l-3.8 3.9V8.7h-20V38l15.8 8.3v-7.4h4.2v-11l3.8 3.9v-3.3h7.5v-6l-7.5-.1zM17 17.6l2.1 1.3.3 1.5.1.8.1.4.1.9.1-.1.2-.3.2-.3.4-.6 1-1.5 1.9.8-2.5 2.6 1.3 4.9-2-1.1-.3-1.7-.2-.8-.1-.4-.1-.5-.2.2-.2.3-.2.4-.5.6-.8 1.1-1.7-.7 2.3-2.9-1.3-4.9zm14.2 20.2H28V17.6l-15.2-8h18.4v14.3l-1.4 1.4 1.4 1.4v11.1z"/><path class="st0" d="M25.4 0C11.4 0 0 11.4 0 25.4s11.4 25.4 25.4 25.4 25.4-11.4 25.4-25.4S39.4 0 25.4 0zm0 49.7C11.9 49.7 1 38.8 1 25.4 1 11.9 11.9 1 25.4 1c13.5 0 24.4 10.9 24.4 24.4-.1 13.4-11 24.3-24.4 24.3z"/></g></g></g></svg>