<svg xmlns="http://www.w3.org/2000/svg" viewBox="0 0 72.89 73.22"><defs><style>.cls-3{fill:#76777b}.cls-4{fill:#fff}</style></defs><g id="Layer_2" data-name="Layer 2"><g id="color"><g id="connxsmart-color"><circle cx="36" cy="36" r="36" fill="#cbcdce"/><path d="M55.7 37.79a10.6 10.6 0 00-13.2-6.72l-7 2.37L28.55 36a5.48 5.48 0 01-3.45-10.21l20.24-7.3-1.74-5.13-20.17 7.49a10.59 10.59 0 006.78 20.06l7-2.37L44.17 36a5.48 5.48 0 013.45 10.19L27.38 53.5l1.74 5.14 20.17-7.49a10.58 10.58 0 006.41-13.36z" fill="#aa192d"/><circle class="cls-3" cx="62.17" cy="35.96" r="3.1"/><circle class="cls-3" cx="10.79" cy="37.01" r="3.1"/><path class="cls-4" d="M27.38 53.51l1.74 5.13 4.56-1.69-1.74-5.09-4.56 1.65zM45.34 18.5l-1.74-5.14-4.77 1.77 1.85 5.05 4.66-1.68z"/><path d="M69.26 65.93a3.65 3.65 0 013.63 3.64 3.53 3.53 0 01-1.07 2.58 3.64 3.64 0 11-2.56-6.22zm0 .38a3.08 3.08 0 00-2.26 1 3.21 3.21 0 00-.94 2.31 3.18 3.18 0 00.94 2.26 3.14 3.14 0 004.52 0 3.17 3.17 0 00.93-2.31 3.2 3.2 0 00-.93-2.31 3.05 3.05 0 00-2.27-.95zm-1.63 5.26V67.5h2c.83 0 1.25.4 1.25 1.19 0 .58-.19.93-.56 1.06a.75.75 0 01.5.78v1h-.53v-.93c0-.44-.2-.65-.6-.65h-1.54v1.58zm.53-2.07h1.32c.58 0 .87-.23.87-.7a1.14 1.14 0 00-.13-.67.76.76 0 00-.57-.15h-1.5z"/></g></g></g></svg>