<svg xmlns="http://www.w3.org/2000/svg" viewBox="0 0 72.99 73.09"><defs><style>.cls-1,.cls-2{fill:#fff}.cls-1{opacity:.5}</style></defs><g id="Layer_2" data-name="Layer 2"><g id="one"><g id="portal-one"><circle class="cls-1" cx="36.2" cy="36.2" r="36.2"/><path class="cls-1" transform="rotate(180 31.255 33.775)" d="M17.07 12.58h28.38v42.39H17.07z"/><path class="cls-2" d="M51.76 26.86l-9.11 9.23 9.11 9.24v-4.82h10.86v-8.74H51.76v-4.91zM66 69h-1.41v-.5H68v.5h-1.43v4H66zM72.3 71.09c0-.64-.07-1.4-.06-2-.16.54-.35 1.1-.58 1.73l-.8 2.21h-.45l-.73-2.17c-.22-.64-.4-1.23-.53-1.77 0 .57-.05 1.33-.09 2l-.12 2h-.56l.32-4.55h.74l.78 2.2c.19.56.34 1.06.46 1.53.11-.46.28-1 .48-1.53l.81-2.2h.75l.28 4.55h-.57zM17.07 13.39V55l23 12V25.42zM31.16 38.3l-1.46-.86-1.61-4.06L26.54 36l-1.12-.51 2.21-3.27-1.93-5.71 1.24.66 1.41 3.9 1.83-2.71 1.12.52-2.49 3.4zm4.53 6.12a1.54 1.54 0 111.54-1.54 1.54 1.54 0 01-1.54 1.54z"/></g></g></g></svg>