<svg xmlns="http://www.w3.org/2000/svg" viewBox="0 0 72.84 73.16"><defs><style>.cls-2{fill:#fff}</style></defs><g id="Layer_2" data-name="Layer 2"><g id="one"><g id="smartscrub-one"><circle cx="36.09" cy="36.09" r="36.09" opacity=".5" fill="#fff"/><path class="cls-2" d="M69.19 65.85a3.65 3.65 0 11-2.59 1.07 3.53 3.53 0 012.59-1.07zm0 .38a3.07 3.07 0 00-2.27 1 3.33 3.33 0 000 4.64 3.15 3.15 0 004.53 0 3.33 3.33 0 000-4.64 3.05 3.05 0 00-2.26-1zm-1.64 5.28v-4.09h2c.83 0 1.25.4 1.25 1.2 0 .58-.19.93-.56 1.06a.75.75 0 01.5.79v1h-.54v-.94c0-.44-.2-.65-.6-.65h-1.52v1.59zm.53-2.08h1.33c.58 0 .87-.23.87-.7a1.1 1.1 0 00-.13-.67.79.79 0 00-.58-.15h-1.49z"/><g opacity=".5"><path class="cls-2" transform="rotate(-76.98 31.316 40.995)" d="M29.09 39.14h4.45v3.7h-4.45z"/><path class="cls-2" d="M23.37 50.12h10.95v3.28H23.37zM48.26 57.56H22.55a4.09 4.09 0 00-3.86 2.74h33.44a4.11 4.11 0 00-3.87-2.74zM39.18 28.84a10.39 10.39 0 01-1 20.73l1.1 6.57a14.77 14.77 0 001.45-29.47l1.08 1.63-1 .66-1.3-2-.63.42-1.35.88-.66-1 2-1.3-1.3-2 1-.66 1.3 2 .22-.14L42.85 13l-9.6-2.21-4.92 21.29 9.59 2.22z"/></g><path class="cls-2" d="M38.23 32.95l-9.59-2.22-.62 7.22 7.6 1.75 2.61-6.75zM36.23 48.37A3.24 3.24 0 0033 51.61v8.69h6.48v-8.64a3.24 3.24 0 00-3.25-3.29zm0 4.49a.83.83 0 010-1.65.83.83 0 010 1.65z"/><path class="cls-2" transform="rotate(-76.98 38.398 10.364)" d="M36.86 7.49h3.07v5.75h-3.07z"/><path class="cls-2" d="M40.64 21.82a4.57 4.57 0 103.46 5.47 4.57 4.57 0 00-3.46-5.47zm1.13 6.48l-1 .66-1.3-2-2 1.3-.66-1 2-1.3-1.3-2 1-.66 1.3 2 2-1.3.66 1-2 1.3z"/></g></g></g></svg>