<svg version="1.1" id="Layer_1" xmlns="http://www.w3.org/2000/svg" x="0" y="0" viewBox="0 0 72.7 72.7" xml:space="preserve"><style>.st0{opacity:.3;enable-background:new}.st2{opacity:.5}</style><g id="smartsearch-one"><circle class="st0" cx="36" cy="36" r="36"/><path opacity=".77" d="M30.3 43.2l.8 3.2.4 2.5h.8l.4 2.3h6.6l.3-2.3h.8l.4-2.5.8-3.2z"/><path d="M65.7 68.7h-1.4v-.5h3.3v.5h-1.4v4h-.6v-4zM72 70.7c0-.6-.1-1.4-.1-2-.2.5-.3 1.1-.6 1.7l-.8 2.2h-.4l-.7-2.2c-.2-.6-.4-1.2-.5-1.8 0 .6 0 1.3-.1 2l-.1 1.9h-.6l.3-4.5h.8l.8 2.2c.2.6.3 1 .4 1.5.1-.4.3-1 .5-1.5l.8-2.2h.8l.3 4.5h-.6l-.2-1.8z"/><path class="st2" d="M35.2 13.1c-6.1.4-10.8 5.4-10.9 11.5 0 2.6.8 5.1 2.3 7.1 2.4 3.1 3.7 6.9 3.7 10.7v.8h2.9c0-3.8-.3-7.5-1-11.2-2.7-.5-3.4-1.6-3.5-2.4-.2-.8.2-1.6 1-1.9 1.1-.4 2.3 0 2.8 1 .4.6.7 1.3.9 2 1.7.2 3.3.2 5 0 .2-.7.5-1.4.9-2 .6-1 1.8-1.4 2.8-1 .8.3 1.2 1.1 1 1.9-.2.7-.8 1.8-3.5 2.4-.7 3.7-1 7.5-1 11.2h3v-.4c0-4.1 1.4-8 3.8-11.2 3.8-5.2 2.6-12.5-2.6-16.3-2.2-1.6-4.9-2.4-7.6-2.2zM31 19.4c-.7.7-1.2 1.5-1.6 2.4-.4.9-.8 1.9-1.1 2.9-.3-1.1-.3-2.2 0-3.3.3-1.1.8-2.2 1.6-3 .8-.8 1.7-1.5 2.8-1.9 1-.5 2.2-.7 3.3-.6-1.9.8-3.6 2-5 3.5z"/><path class="st2" d="M38 32.2c-.6.1-1.3.1-2 .1h-.1c-.8 0-1.4 0-2-.1.6 3.6.9 7.3.9 11h2.4c-.1-3.7.2-7.3.8-11zM41.5 29.1h-.2c-.3 0-.6.2-.8.5-.1.2-.3.5-.4.7 1.1-.3 1.5-.8 1.5-1s-.1-.2-.1-.2zM30.5 29.1h-.2s-.2.1-.1.2.4.6 1.5 1c-.1-.3-.2-.5-.4-.7-.1-.3-.4-.5-.8-.5z"/><path class="st0" d="M67.1 30.2l-9.5-10.4-8.1 10.4h5.6c3.2 11.3-3.4 23-14.7 26.1s-23-3.4-26.1-14.7c-3.1-11.2 3.3-22.8 14.4-26.1 1.8-1.4 4-2.4 6.5-2.5 2.7-.2 5.4.6 7.5 2.2.8.6 1.6 1.3 2.2 2.1 1.2.6 2.3 1.4 3.3 2.2l4.6-4.6C41.2 5 23.8 6.4 13.9 18 4 29.6 5.4 47 17 56.9c11.6 9.9 29 8.5 38.9-3.1 5.6-6.5 7.8-15.3 6-23.7l5.2.1z"/></g></svg>