<svg version="1.1" id="Layer_1" xmlns="http://www.w3.org/2000/svg" x="0" y="0" viewBox="0 0 50.8 50.8" xml:space="preserve"><style>.st0{fill:#aa192d}</style><g id="Layer_2_1_"><g id="small"><g id="connxsmart-small"><g id="Layer_2-2"><g id="Layer_1-2"><path class="st0" d="M29.9 22L25 23.6l-4.8 1.8c-2.1.2-4-1.2-4.2-3.3-.2-1.5.5-2.9 1.8-3.7l14-5-1.2-3.6-3.2 1.2-10.6 3.9c-3.8 1.3-5.9 5.4-4.6 9.3s5.4 5.9 9.3 4.6l4.8-1.6 4.8-1.8c2.1-.2 3.9 1.3 4.2 3.4.2 1.5-.5 2.9-1.8 3.6l-14 5 .9 2.7.3.9 3.2-1.2 10.8-4c3.7-1.7 5.2-6.1 3.5-9.8-1.7-3-5-4.7-8.3-4zM45.3 24.2c-.6-1-1.9-1.3-2.9-.7-1 .6-1.3 1.9-.7 2.9.6 1 1.9 1.3 2.9.7 1-.5 1.3-1.8.7-2.9 0 .1 0 .1 0 0zM6.8 24.3c-1.2 0-2.2 1-2.2 2.3s1 2.2 2.3 2.2c1.2 0 2.2-1 2.2-2.3 0-1.2-1-2.2-2.3-2.2z"/><path class="st0" d="M25.4 50.8C11.4 50.8 0 39.4 0 25.4S11.4 0 25.4 0s25.4 11.4 25.4 25.4-11.4 25.4-25.4 25.4zm0-49.8C11.9 1 1 11.9 1 25.4c0 13.5 10.9 24.4 24.4 24.4 13.4 0 24.3-10.9 24.4-24.3C49.8 11.9 38.9 1 25.4 1z"/></g></g></g></g></g></svg>