<svg xmlns="http://www.w3.org/2000/svg" viewBox="0 0 73.2 73.7"><path d="M37.6 8.9zM37.5 9.5zM26.3 20.9zM66.2 69.6h-1.4v-.5h3.4v.5h-1.4v4.1h-.6v-4.1zM72.5 71.7c0-.6-.1-1.4-.1-2-.2.5-.3 1.1-.6 1.7l-.8 2.2h-.4l-.7-2.2c-.2-.6-.4-1.2-.5-1.8 0 .6 0 1.3-.1 2l-.1 2h-.6l.3-4.6h.8l.8 2.2c.2.6.3 1.1.5 1.5.1-.5.3-1 .5-1.5l.8-2.2h.8l.3 4.6h-.6l-.3-1.9z"/><ellipse cx="36.2" cy="36.5" rx="36.2" ry="36.5" opacity=".3"/><g opacity=".33"><path d="M3.2 30.9c.9 1.3 1.1 3.8 1.5 5.4.1.6.4 1.2.8 1.7.8.8 2 .6 2.9 1 1.1.6 2 1.5 2.7 2.4.4.6 1 1 1.7 1.2h.4c.5-.1.9-.3 1.3-.6-.2-.3-.6-.2-.9-.2-1 0-1.7-.8-1.7-1.7V40c0-.4.2-.9-.1-1.2s-1.1 0-1.5-.3c-.2-.2-.3-.5-.7-.7s.9-.7-.8-1c-.7-.2-1.4 0-1.8-.6-.3-.7-.3-1.4-.2-2.1.1-.5.3-1.1.6-1.5.3-.5.8-.7 1.4-.8.4 0 .8.2 1.1 0 .5-.3.8-1 1.6-.5.3.2.6.6.7.9.1.4.3.7.5 1.1l.3.3c.8-1.1-.4-2.3.8-3.5.9-.7 1.6-1.7 2-2.8.3-.7.8-1.3 1.4-1.7.9-.5 1.2-1.6 2.2-2 .7 0 1.3-.4 1.6-1 .1-.1-1-1.7-1.3-1.2.4-.7 2.1-.9 2.7-1 .8-.2 2-.3 2.6-.9s.3-.5-.1-1c-.2-.3-.2-.5-.4-.7s-.5-.1-.7-.3-.1-1.1-.3-1.6c-.8-1.8-.7 0-1.8 0-.8 0-.4-.4-.5-.8-.1-.7-.6-1.2-1.3-1.4-.4-.1-.8-.1-1.2.1-.2.2-.3.3-.4.6-.2.4-.4.8-.6 1.1-.1.1-.1.3-.1.4.1.2.1.4.3.6.5.9-1.4 1.1-1.6 1.7-.2.4.3 1.2-.3 1.4-.9.3-.5-.7-.6-1.1-.2-1.4-1.9-1.2-2.4-2.4s1.9-2.7 2.7-3.3c.6-.4 1.2-.8 1.9-1 .6-.2 1.5-.2 1.9-.8.2-.4 0-1-.5-.8-.2.1-.3.2-.5.4-.1.1-.3.2-.5.2-.3 0-.1-2.1-.1-2.1-.9.2-1.1.8-1.6 1.4-.6.6-1.4.9-2.2.7h-.3c-.3.1-.9.7-1.1.1v-.6c.1-.2 0-.4-.1-.5-.4-.4-.4 0-.8-.3C10 11.1 8.4 13 7 15.1c-1.4 1.9-2.7 4-3.7 6.2-.4.9.2 1.3-.2 2.2-.4 1.1-.7 2.3-.8 3.5M32.9 51.3c-.2-.8-1.3-1-2-1.3-1.3-.6-2.8-1-4.1-1.5-.1 0-.2-.1-.4-.1-.1 0-1.4 1-1.1.2.1-.2.2-.3.3-.4.2-.4.1-.8-.2-1.1C24.5 45.6 23 46 22 45c-.3-.3-1.3-.8-1.4-1.1 0-.1-.1-.2-.1-.4-.1-.3-.4-.5-.7-.5-.8 0-1.4.4-2.2 0s-1.5-.4-1.7.4c-.1-.1-.2-.2-.1-.3 0-.2.1-.3.1-.5s-.1-.3-.2-.4c-.5.5-1 .9-1.4 1.5-1.3 1.2.6 2.3-.3 3.4-.3.3-.6.6-.7 1 0 .8.1 1.7.4 2.5.3 1 1.2 1.4 1.8 2.2s.8 1.7 1.5 2.2l1.2.6c1.2.6 1.3 1.8 1.8 2.9.5 1.2.9 2.4 1.2 3.7.6 1.8 1.5 3.4 2.7 4.8.3.4.6.7.9 1 .5.6 1.1 1 1.8 1.4.5.2 1.4.5 1.6-.1-.1-.1-.3-.2-.5-.2-.5-.1-.9-.3-1.3-.6-.4-.4-.4-1.1-.9-1.6-.2-.1-.3-.3-.3-.5-.1-.5.5-1.1-.2-1.3.3-.3.5-.8.9-.9.7-.1.9-.6.2-1-.9-.6.4-.5.7-.6.8-.5 1.4-1.4 1.4-2.4v-1c.2-.8 1.3-.9 2-1.1.2 0 .4-.1.5-.3.6-.6.5-2 .6-2.9.1-1.2 1.4-1.8 1.6-2.9.1-.3.1-.5 0-.7zM36.6 5.4c-.4-.5-.7-1-1-1.6-.1-.1-1.8-1.5-1.7-1.5-2-.2-3.2 1-5 1.9-.2.1-.3.2-.4.3-.1.2-.1.4.1.5.1 0 .2 0 .2.1.4.1.7.5.7.9s-.1.8-.3 1.1c-.3.4-.5.9-.6 1.3.3.1 1 0 1.1-.4-.1.5-.4 1-.9 1.3-.4.3-.7.9-.7 1.4 0 .2.1.3.2.5l.5.9c.3.6.8 1.3 1.5 1.3h.7c.3.1.5.5.9.6.3 0 .5-.2.6-.4.3-.7.6-1.4.7-2.1.5-1.9 2.2-2.1 3.3-3.5l.1-.1c.4-.5.5-1.1.3-1.7M56.5 22.1c.1.1.2.1.2.2l.9 1.3c.1.3.4.5.6.6.6.2 1.3-.4 2-.1s.7 1.3.6 2.1c0 .2-.1.4-.3.6-.1.1-.3.1-.5.1-1.2 0-2.4-.2-3.5-.8-.4-.2-.9-.3-1 .1v.3c-.1.2-.4.2-.6.1l-2.8-.9c-.3-.1-.7-.3-.8-.6s.2-.7 0-1c-.1-.1-.3-.2-.5-.2-1.1-.2-2.2-.1-3.3.2-.7.3-1.5.5-2.3.5h-.6c-.2.1-.4.2-.6.4-.8.7-.9 1.7-1.5 2.5-.3.4-.6.7-1 1.1-.6.6-1.1 1.3-1.4 2-.2.4-.3.9-.3 1.3 0 .3.2.7.2 1-.1.8-.2 1.5-.5 2.2 0 .8.2 1.7.8 2.3 1.9 2.3 4.7 3.4 7.5 2.3.5-.3 1.2-.3 1.7 0 .3.2.5.4.8.5.2.1.5.1.8.2.4.1.7.6.7 1 0 1.3-.4 1.9.3 3.2.5.9 1.1 1.8.8 2.9s-1.3 1.8-1.3 3.2c0 1 .1 1.9.3 2.8.1 1.1.2 2.3.1 3.4-.2 2.4 2.9.7 3.9 0 .9-.8 1.8-1.6 2.5-2.6.3-.4.6-.9.9-1.4.2-.5.4-1 .7-1.5.5-.7 1.3-1 1.8-1.6.8-.9.6-2 .6-3.1-.1-1.7.5-2.4 1.6-3.6.9-.9 1.6-2 2.1-3.2.2-.3 1-3.3.7-3.4s-.7.3-1 .5c-1.1.7-1.8-1.8-2.2-2.5l-2.3-4.4c-.3-.4-.4-.9-.3-1.3 0 .1 2.4 1.5 2.6 1.7.6.7 1.1 1.4 1.5 2.2.3.7-.1 1.8.8 1.8 1.4-.2 2.5-1.3 2.7-2.7 0-.5-.1-1.1-.5-1.5-.1-.2-.4.7-.7.7-.7 0-.5-.8-1.1-1.5-.3-.4-.9-1-.8-1.5.3.1.4.4.7.6.4.3.9.6 1.4.8 1.3.9 2.5.9 3.1 2.5.5 1.3.4 3.7 1.3 4.6v-.3c.3-2.5-.3-5.5-.8-7.8-.5-2.5-1.3-5-2.4-7.3-2.5-5.9-6.6-10.8-11.8-14.5-.5-.4-1-.7-1.5-1-.2-.1-.5-.3-.7-.3-.6 0 1.7 2 1.8 2.2-.1-.1-.2-.1-.3-.1-.9-.3-2.9-1.4-3.7.4-1.5-.8-3.8-1.4-4.6-.3-.6.9-.4 2.1-1.1 2.9-.2.1-.4.3-.5.5-.1.2-.1.4-.1.6 0 .4.1.8.3 1.1.2.3.7.4 1 .2.1-.1.2-.2.3-.2.3-.2.7.1 1 .4l.5.6c.1.1.1.2.2.3 0 .1-.1.3-.2.3l-3.3 3.1c-.2.2.3 1 .2.6.2.8-.7.5-.4 1.2.1.6-.2 1.1-.8 1.3-.6.2-1.9-.6-2 .3-.2 1 .2.5 1 1.2.9.7 2.2.5 2.9-.4.5-.6.3.4.8-.2.5-.5 1.1-.9 1.8-1 .4-.1.8-.1 1.1 0 .3.1.7.3.9.6.4.3.8.6 1.1.9.6.6.6.9.8.9"/></g><path d="M65.4 29.7c0-.2-.1-.4-.3-.5-.1-.1-.3 0-.5.4l-.8 1.1c-.4.5-.8 1.2-1.4 1.9s-1.2 1.5-1.8 2.3l-2.1 2.5c-.7.8-1.4 1.7-2.1 2.5s-1.3 1.5-1.9 2.2c.8-2 1.5-3.9 2.2-5.8.7-1.9 1.2-3.5 1.7-5s.9-2.7 1.1-3.7.4-1.6.4-1.8c0-.5-.2-1-.6-1.3-.4-.5-.9-.9-1.4-1.2-.5-.3-1-.5-1.5-.5-.3-.1-.7.2-.7.5v.2c-.1.6-.2 1.1-.4 1.6-.2.8-.5 1.8-.9 2.9-.6 1.5-1.4 2.8-2.2 4.2-.9 1.4-1.9 2.8-3 4.2-.9 1.2-2 2.3-3.1 3.2-.7.7-1.6 1.2-2.5 1.3-.2 0-.2-.3-.1-1s.5-1.5.8-2.5.8-2.1 1.3-3.3l1.5-3.4c.5-1.1.9-2.1 1.2-2.9.2-.5.4-1.1.5-1.7 0-.5-.2-1-.6-1.3-.4-.5-.9-.9-1.4-1.2-.5-.3-1-.5-1.5-.5-.3-.1-.7.1-.7.5v.2c-.1.7-.3 1.4-.5 2-.3.8-.6 1.7-1 2.6-.2.4-.4.9-.6 1.4l-1.3 1.9c-.6.8-1.1 1.7-1.7 2.5s-1.2 1.7-1.8 2.6-1.2 1.6-1.8 2.3c-.5.6-1 1.1-1.5 1.6-.3.3-.7.5-1.1.6-.3 0-.4-.3-.2-.9s.5-1.4.8-2.3.7-1.9 1.1-2.9.8-2 1.1-3 .7-1.9 1-2.8.6-1.6.8-2.2c.1-.4.3-.8.3-1.3 0-.4-.1-.7-.3-1-.3-.4-.6-.7-.9-1-.4-.3-.8-.5-1.2-.8-.4 0-.8-.1-1.1-.1H34.4c-.2 0-.3.1-.4.3-.4.4-.8.8-1.2 1.3-.5.6-1 1.2-1.6 2s-1.2 1.6-1.8 2.5-1.2 1.7-1.8 2.5-1.1 1.6-1.6 2.3l-1.2 1.8c.3-.9.7-1.8 1.1-2.8s.7-2 1.1-2.8.6-1.7.8-2.4c.2-.5.3-1 .4-1.5 0-.5-.2-1-.6-1.3-.4-.5-.9-.9-1.5-1.2-.5-.3-1-.5-1.5-.5-.3-.1-.7.1-.7.5v.2c-.3.4-.7.9-1.1 1.4l-1.4 1.9c-.5.7-1 1.5-1.5 2.2l-1.5 2.3c-.5.7-1 1.4-1.4 2.1l-1.1 1.7 1.1-3c.4-1 .7-1.9 1-2.8s.6-1.6.8-2.2c.2-.4.3-.9.4-1.3 0-.5-.3-.9-.6-1.2-.4-.5-.9-.9-1.5-1.2-.5-.3-1-.5-1.5-.5-.3-.1-.7.1-.7.5v.2c-.1.7-.2 1.4-.5 2.1-.3.9-.6 1.8-1.1 2.8s-.9 2-1.4 3.1c-.5 1-1 2-1.4 3s-.8 1.9-1.1 2.7c-.2.6-.4 1.3-.5 1.9-.1.7.1 1.3.5 1.9.7 1 1.8 1.6 2.9 1.9.5.1.8.1 1-.1.1-.1.2-.2.2-.4v-.5c.4-.7.9-1.7 1.7-2.8s1.5-2.3 2.3-3.6 1.6-2.5 2.4-3.7 1.5-2.3 2.1-3.1c-.3.8-.6 1.5-1 2.3s-.6 1.5-.9 2.2-.5 1.3-.7 2c-.2.5-.3 1-.3 1.5-.1.7.1 1.3.4 1.9.4.5.8.9 1.3 1.2.4.3.9.5 1.5.6.3.1.6.1 1 0 .1-.1.2-.2.2-.3v-.4c.3-.4.7-1 1.2-1.8s1.2-1.6 2-2.6l2.4-3 2.7-3.4c-.4 1-.9 2-1.3 3.1s-.9 2-1.2 3-.7 1.8-1 2.6c-.2.6-.4 1.2-.4 1.8-.1.6.1 1.2.5 1.8.3.5.8.9 1.3 1.2.5.3 1 .5 1.5.7.3.1.7.2 1.1.1.7-.2 1.4-.5 2-1 .8-.6 1.5-1.3 2.2-2 .7-.8 1.5-1.7 2.2-2.6l.7-1c-.2.6-.4 1.1-.4 1.7-.1.7.1 1.3.3 1.9.3.5.7 1 1.1 1.4.4.4.9.7 1.4.9.4.2.8.3 1.2.3.9 0 1.7-.3 2.4-.7.9-.5 1.7-1.2 2.4-1.9.8-.8 1.5-1.6 2.2-2.4.7-.9 1.3-1.7 1.8-2.5-.8 2.1-1.7 4.3-2.6 6.6s-1.8 4.4-2.8 6.4l-3.5 2.6c-1.1.8-2.1 1.6-2.9 2.3-.7.6-1.4 1.3-2 2-.4.5-.7 1.1-.8 1.7 0 .4 0 .9.1 1.3.1.5.3 1 .6 1.4.3.4.7.8 1.2 1.1.6.3 1.3.4 2 .4 1.1-.1 2.2-.5 3-1.3 1.2-1 2.2-2.2 3.1-3.5 1.1-1.6 2.1-3.3 3-5 1-1.9 1.9-3.9 2.8-5.9 0 0 .1-.1.2-.1s.1-.1.2-.1c.7-.6 1.4-1.3 2-2 .8-.9 1.6-1.8 2.5-2.8s1.7-2.1 2.6-3.1 1.7-2.1 2.4-3 1.3-1.7 1.8-2.3l.9-1.2c.1-.2.1-.4.1-.6-.2-.4-.2-.7-.3-1z"/></svg>