<svg xmlns="http://www.w3.org/2000/svg" viewBox="0 0 72.77 73.16"><defs><style>.cls-1,.cls-2{fill:#fff}.cls-1{opacity:.5}</style></defs><g id="Layer_2" data-name="Layer 2"><g id="one"><g id="suppliers-one"><circle class="cls-1" cx="36.2" cy="36.2" r="36.2"/><circle class="cls-2" cx="36.63" cy="34.23" r="3.16"/><path class="cls-1" d="M63.65 34.76A6.4 6.4 0 0052 32.81a6.48 6.48 0 00-.92 2.63h-3.74a10.79 10.79 0 00-4.71-8l1.86-3.07a6.51 6.51 0 002.81.63 6.31 6.31 0 002.93-.72A6.4 6.4 0 0053 15.64a6.4 6.4 0 00-8.63-2.76 6.41 6.41 0 00-2.75 8.63 6.23 6.23 0 001.6 2l-1.9 3.13a10.77 10.77 0 00-10.25.5l-2.17-3.37.25-.24a6.41 6.41 0 10-4.59 1.93h.09a6.25 6.25 0 003-.79L29.79 28a10.44 10.44 0 00-2.29 2.6 10.67 10.67 0 00-1.59 4.83h-4.25a6.37 6.37 0 00-7.77-5.32 6.4 6.4 0 106.87 9.63A6.27 6.27 0 0021.7 37h4.2a10.74 10.74 0 004.31 8l-2.41 4a6.4 6.4 0 10-3.59 11.94h.42a6.41 6.41 0 004.8-10.64 4.89 4.89 0 00-.39-.4l2.48-4.08a10.53 10.53 0 009.81.21l3 4.71a5.79 5.79 0 00-.64.57 6.4 6.4 0 004.61 10.8h.09a6.41 6.41 0 004.39-11 6.4 6.4 0 00-7.11-1.25l-3-4.67a10.75 10.75 0 004.7-8.19h3.69a6.4 6.4 0 003 4.66 6.32 6.32 0 003.38 1 6.39 6.39 0 006.25-7.85zm-19.2 6.43a9.22 9.22 0 11-7.81-14.1 9.12 9.12 0 014.87 1.4 9.23 9.23 0 012.94 12.7z"/><path class="cls-2" d="M69.11 65.82a3.69 3.69 0 013.66 3.67 3.53 3.53 0 01-1.08 2.59 3.49 3.49 0 01-2.58 1.08 3.55 3.55 0 01-2.6-1.08 3.67 3.67 0 010-5.18 3.55 3.55 0 012.6-1.08zm0 .38a3.08 3.08 0 00-2.28 1 3.32 3.32 0 000 4.65 3.15 3.15 0 004.55 0 3.35 3.35 0 000-4.65 3.06 3.06 0 00-2.27-1zm-1.65 5.3v-4.1h2c.83 0 1.25.4 1.25 1.2 0 .59-.19.94-.56 1.07a.73.73 0 01.5.79v1h-.53v-.94c0-.44-.2-.66-.61-.66H68v1.6zm.54-2.08h1.33c.58 0 .87-.24.87-.71a1.12 1.12 0 00-.13-.67.79.79 0 00-.58-.15H68zM38.4 38.52h-3.54a3.07 3.07 0 00-3.07 3.07v2.57a9.24 9.24 0 009.67 0v-2.57a3.07 3.07 0 00-3.06-3.07z"/></g></g></g></svg>