<svg xmlns="http://www.w3.org/2000/svg" viewBox="0 0 73.16 73.09"><defs><style>.cls-3{fill:#fff}</style></defs><g id="Layer_2" data-name="Layer 2"><g id="one"><g id="scorecard-one"><circle cx="36.2" cy="36.2" r="36.2" opacity=".5" fill="#fff"/><rect x="9.4" y="21.54" width="52.7" height="31.28" rx="5.09" opacity=".33" fill="#fff"/><path class="cls-3" d="M24.7 29.94a2.66 2.66 0 00-4.59 0l-5.89 10.18a2.66 2.66 0 002.3 4h11.77a2.65 2.65 0 002.29-4zm-1.53 11.84h-1.46v-1.56h1.46zm-.06-2.9h-1.4l-.1-5.77h1.63zM49.5 18.11h-5.93a8.4 8.4 0 00-15.64 0H22v6.1h27.5zm-16.8.76a3.06 3.06 0 016.11 0zM37.66 28.7h19.1v1.54h-19.1zM37.66 33.01h13.75v1.54H37.66zM40.55 38.08l-1.42 1.44-1.42-1.44-.72.73 1.42 1.43-1.42 1.44.72.72 1.42-1.43 1.42 1.43.72-.72-1.43-1.44 1.43-1.43-.72-.73zM42.94 42.55h13.21v1.03H42.94zM50.11 39.3a1.18 1.18 0 01-.57.17h-.49v-.5a.76.76 0 00-.44-.75c-.16-.06-.58-.24-1.71.71-.19-.82-.62-1.5-1.41-1.5-1.27 0-2.3 1.95-2.49 2.34a.51.51 0 00.23.68.5.5 0 00.68-.22c.37-.75 1.12-1.78 1.58-1.78s.51.91.51 1.55a.51.51 0 00.31.47.49.49 0 00.55-.11 8.5 8.5 0 011.18-1c0 1 .36 1.15 1.51 1.15a2.18 2.18 0 001-.28c.38-.2.68-.35 1.81.22a.46.46 0 00.22.06.52.52 0 00.46-.29.51.51 0 00-.23-.68c-1.45-.75-2.08-.54-2.7-.24zM66.14 69h-1.38v-.5h3.37v.5h-1.39v4h-.6zM72.47 71.09c0-.64-.08-1.4-.07-2-.16.54-.34 1.1-.57 1.73L71 73.06h-.44l-.74-2.17c-.21-.64-.4-1.23-.52-1.77 0 .57 0 1.33-.09 2l-.12 2h-.56l.32-4.55h.75l.78 2.2c.18.56.34 1.06.45 1.53.12-.46.28-1 .48-1.53l.81-2.2h.75l.29 4.55h-.58z"/></g></g></g></svg>