<svg xmlns="http://www.w3.org/2000/svg" viewBox="0 0 72.7 72.71"><defs><style>.cls-1,.cls-2{fill:#fff}.cls-1{opacity:.5}</style></defs><g id="Layer_2" data-name="Layer 2"><g id="one"><g id="smartsearch-one"><circle class="cls-1" cx="35.98" cy="35.98" r="35.98"/><path class="cls-1" d="M67.11 30.18l-9.52-10.36-8.08 10.36h5.62a21.19 21.19 0 11-6.87-10.57L52.87 15a27.57 27.57 0 109.06 15.19z"/><path class="cls-1" d="M30.34 43.22l.81 3.22.4 2.47h.8l.31 2.31h6.64l.3-2.31h.8l.4-2.47.81-3.22H30.34z"/><path class="cls-2" d="M65.73 68.68h-1.38v-.5h3.35v.5h-1.38v4h-.59zM72 70.72c0-.63-.08-1.39-.07-2-.15.53-.34 1.09-.57 1.72l-.8 2.19h-.44l-.73-2.15c-.22-.64-.4-1.23-.53-1.76 0 .56 0 1.32-.09 2l-.12 1.94h-.55l.31-4.53h.75l.77 2.19c.18.56.34 1 .45 1.52.12-.45.28-1 .48-1.52l.8-2.19h.75l.28 4.53h-.57zM35.23 13.07a11.73 11.73 0 00-10.92 11.48 11.6 11.6 0 002.32 7.15 18 18 0 013.71 10.74v.78h2.86a62.3 62.3 0 00-1-11.21c-2.67-.53-3.37-1.63-3.52-2.36a1.73 1.73 0 011-1.94 2.34 2.34 0 012.83 1 6.72 6.72 0 01.86 1.95 22.12 22.12 0 005 0 6.72 6.72 0 01.87-1.95 2.34 2.34 0 012.83-1 1.73 1.73 0 011 1.94c-.15.73-.85 1.83-3.52 2.36a62.2 62.2 0 00-1 11.21h3v-.4a19.16 19.16 0 013.8-11.24 11.67 11.67 0 00-10.12-18.51zM31 19.38a9.27 9.27 0 00-1.62 2.41 20.83 20.83 0 00-1.09 2.93 6.48 6.48 0 010-3.33 6.56 6.56 0 011.61-3 7.84 7.84 0 012.81-1.94 7 7 0 013.29-.58 17.14 17.14 0 00-5 3.51z"/><path class="cls-2" d="M38 32.23q-.92.09-2 .09h-.1q-1.14 0-2-.09a65.4 65.4 0 01.89 11h2.39a65.75 65.75 0 01.82-11zM41.49 29.11a.54.54 0 00-.19 0 1 1 0 00-.78.51 4.2 4.2 0 00-.38.71c1.07-.33 1.46-.75 1.5-1s-.1-.19-.15-.22zM30.55 29.08a.58.58 0 00-.19 0c-.05 0-.18.1-.15.22s.43.64 1.5 1a3.59 3.59 0 00-.38-.71 1 1 0 00-.78-.51z"/></g></g></g></svg>