<svg xmlns="http://www.w3.org/2000/svg" viewBox="0 0 73.22 73.04"><defs><style>.cls-2{fill:#fff}</style></defs><g id="Layer_2" data-name="Layer 2"><g id="one"><g id="detexion-one"><circle cx="36.2" cy="36.2" r="36.2" opacity=".5" fill="#fff"/><path class="cls-2" d="M52.69 22.78a.75.75 0 01-.69-.46C46.58 9.81 30.66 14 30.5 14.07a.76.76 0 11-.4-1.46c.17 0 17.35-4.59 23.28 9.12a.75.75 0 01-.39 1 .8.8 0 01-.3.05zM19.54 22.78a.8.8 0 01-.3-.06.76.76 0 01-.39-1c.1-.22 2.47-5.54 7.28-7.35a.75.75 0 11.53 1.41c-4.21 1.58-6.41 6.5-6.43 6.55a.75.75 0 01-.69.45z"/><path class="cls-2" d="M26.14 22.66a.74.74 0 01-.53-.22.75.75 0 010-1.06c.1-.1 10.09-9.85 21.78-.54a.75.75 0 01.12 1.06.76.76 0 01-1.06.12c-10.62-8.46-19.4.06-19.77.42a.75.75 0 01-.54.22zM20.23 36.89a.75.75 0 01-.72-.55 11.81 11.81 0 014-11.49.75.75 0 111 1.12A10.34 10.34 0 0021 36a.75.75 0 01-.53.92.68.68 0 01-.24-.03zM52.54 43.64h-.1a.74.74 0 01-.64-.84c2-14.41-3.55-17.94-3.6-18a.74.74 0 01-.26-1 .76.76 0 011-.27c.26.16 6.44 3.95 4.33 19.48a.75.75 0 01-.73.63z"/><path class="cls-2" d="M32.32 25.31a.75.75 0 01-.49-1.31 7.52 7.52 0 019.5-.32.76.76 0 01.13 1.06.75.75 0 01-1.06.13c-3.75-2.87-7.4.13-7.59.26a.76.76 0 01-.49.18zM19.9 42.34a.76.76 0 01-.08-1.51c5.26-.54 5.65-4.18 5.65-4.21.18-8.83 2.21-9.85 3.08-9.88a.76.76 0 01.16 1.5c-.16.09-1.58 1.13-1.73 8.46 0 .1-.52 5-7 5.63zm8.7-14.09zm0 0zm0 0zM39 44.8a.75.75 0 01-.37-1.41c4.14-2.4 3.16-10 3-11a5.47 5.47 0 00-3.7-3C35.39 29 33.11 31 33.08 31A.75.75 0 0132 31a.76.76 0 010-1.07c.12-.1 2.86-2.55 6-2 1.93.3 3.55 1.59 4.84 3.84a1 1 0 01.09.24c.07.4 1.64 9.65-3.71 12.75a.75.75 0 01-.22.04z"/><path class="cls-2" d="M19.76 46.73h-.05a.76.76 0 010-1.51c.06 0 5.94 0 9.28-3.57 1.77-1.9 2.53-4.51 2.27-7.75a.76.76 0 011.51-.13c.29 3.69-.61 6.69-2.69 8.91-3.65 3.94-9.69 4.05-10.32 4.05zM52.93 50a5.8 5.8 0 01-4.31-2.15C45 43.58 46 34.41 46.14 33.47c-.19-4.31-2.23-5.23-2.25-5.23a.76.76 0 11.55-1.41c.12.05 3 1.24 3.21 6.64a.57.57 0 010 .13c0 .09-1.14 9.38 2.1 13.26a4.28 4.28 0 003.25 1.6.76.76 0 010 1.51zM19.89 52.25a.75.75 0 01-.73-.55.76.76 0 01.52-.93c.11 0 10.88-3.06 13.72-7.83a.75.75 0 011-.27.77.77 0 01.27 1C31.54 49 20.55 52.1 20.09 52.23zM22.91 56.82a.75.75 0 01-.75-.65.77.77 0 01.65-.85 23 23 0 0013.64-8.6.76.76 0 011.2.92A24.16 24.16 0 0123 56.82zM51.19 55.76c-5.42 0-8.95-7.17-9.1-7.47a.76.76 0 01.36-1 .74.74 0 011 .35c0 .06 3.27 6.62 7.74 6.62a.76.76 0 110 1.51zM28.51 60.79a.75.75 0 01-.66-.39.74.74 0 01.29-1c.07-.05 7.27-4.12 9.47-5.67a2.46 2.46 0 011.71-.77c2-.11 4.55 1.57 7.62 5a.76.76 0 01-.07 1.04.75.75 0 01-1.06 0c-3.6-4.07-5.55-4.59-6.4-4.54a1 1 0 00-.66.25.81.81 0 01-.18.19c-2.17 1.56-9.39 5.64-9.69 5.81a.74.74 0 01-.37.08z"/><path class="cls-2" d="M41.34 60.81a.77.77 0 01-.53-.22 3.56 3.56 0 00-2.71-1.3 3.31 3.31 0 00-2.16 1.22.76.76 0 01-1.06.14.75.75 0 01-.15-1A4.86 4.86 0 0138 57.78a5 5 0 013.89 1.74.75.75 0 010 1.07.77.77 0 01-.55.22zM38.34 39.79a.76.76 0 01-.76-.76c0-1.85-2.31-4.58-3.21-5.47a.76.76 0 011.07-1.07c.37.38 3.65 3.74 3.65 6.54a.76.76 0 01-.75.76z"/><path class="cls-2" d="M34.05 39.79a.78.78 0 01-.51-.2.75.75 0 010-1.06c3.46-3.86 4.11-6.2 4.12-6.23a.75.75 0 01.92-.53.76.76 0 01.54.92c0 .11-.75 2.72-4.46 6.85a.78.78 0 01-.61.25zM66.18 69h-1.39v-.5h3.38v.5h-1.39v4h-.6zM72.53 71c0-.63-.07-1.4-.07-2-.15.54-.34 1.11-.57 1.74L71.06 73h-.45l-.74-2.17c-.21-.65-.4-1.24-.52-1.78 0 .57 0 1.34-.09 2l-.12 2h-.56l.32-4.57h.75l.78 2.21a16 16 0 01.46 1.54c.12-.46.28-1 .48-1.54l.81-2.21h.76l.28 4.52h-.57z"/></g></g></g></svg>