<svg xmlns="http://www.w3.org/2000/svg" viewBox="0 0 50.8 50.8"><defs><style>.cls-1{fill:#fff}</style></defs><g id="Layer_2" data-name="Layer 2"><g id="small"><g id="suppliers-small"><path class="cls-1" d="M25.4 0a25.4 25.4 0 1025.4 25.4A25.4 25.4 0 0025.4 0zm0 49.72A24.36 24.36 0 1149.76 25.4 24.36 24.36 0 0125.4 49.72z"/><path class="cls-1" d="M25.69 21.87A2.17 2.17 0 1027.86 24a2.17 2.17 0 00-2.17-2.13z"/><path class="cls-1" d="M44.26 24.41a4.31 4.31 0 00-1.95-2.74 4.41 4.41 0 00-6.07 1.4 4.46 4.46 0 00-.63 1.8h-2.56a7.39 7.39 0 00-3.23-5.53l1.28-2.11a4.44 4.44 0 001.93.45 4.35 4.35 0 002-.49 4.4 4.4 0 10-5.93-1.89 4.15 4.15 0 001.1 1.36l-1.3 2.15a7.37 7.37 0 00-7 .35l-1.48-2.31a1.29 1.29 0 00.17-.16 4.41 4.41 0 00-3.21-7.48 4.41 4.41 0 000 8.79h.06a4.36 4.36 0 002.06-.54l1.5 2.31a7.28 7.28 0 00-2.66 5.1h-2.93a4.52 4.52 0 100 1.06h2.89a7.37 7.37 0 003 5.47l-1.65 2.73a4.4 4.4 0 10-2.47 8.21h.29A4.41 4.41 0 0020.75 35a3.44 3.44 0 00-.27-.27l1.7-2.73a7.39 7.39 0 003.5.91 7.59 7.59 0 003.24-.76L31 35.34a5.34 5.34 0 00-.44.39 4.4 4.4 0 003.15 7.48h.06a4.41 4.41 0 003-7.56 4.31 4.31 0 00-3.13-1.25 4.42 4.42 0 00-1.75.39l-2.07-3.21a7.35 7.35 0 003.23-5.65h2.54a4.4 4.4 0 008.1 1.8 4.35 4.35 0 00.57-3.32zm-13.19 4.45v-.1a6.12 6.12 0 01-2.07 2V29.1a2.12 2.12 0 00-2.09-2.1h-2.44a2.11 2.11 0 00-2.1 2.11v1.77a6.34 6.34 0 118.74-2z"/></g></g></g></svg>