<svg xmlns="http://www.w3.org/2000/svg" viewBox="0 0 50.8 50.8"><defs><style>.cls-1{fill:#fff}</style></defs><g id="Layer_2" data-name="Layer 2"><g id="small"><g id="portal-small"><path class="cls-1" d="M36.09 22.35V19l-3.84 3.89V8.66h-20v29.26l15.84 8.28v-7.4h4.16v-11l3.84 3.9v-3.34h7.46v-6zM17 17.59l2.12 1.29.3 1.5.14.76.07.37.11.85.13-.15.21-.32.22-.31.44-.63 1-1.5 1.89.76L21 23.13 22.31 28l-2-1.14-.31-1.67-.16-.82-.11-.37-.1-.55-.17.21-.24.35-.24.35-.48.64-.77 1.08-1.73-.69 2.31-2.85zM31.25 37.8h-3.16V17.62l-15.23-8h18.39v14.26l-1.42 1.44 1.42 1.44z"/><path class="cls-1" d="M25.4 0a25.4 25.4 0 1025.4 25.4A25.4 25.4 0 0025.4 0zm0 49.72A24.36 24.36 0 1149.76 25.4 24.36 24.36 0 0125.4 49.72z"/></g></g></g></svg>