<svg xmlns="http://www.w3.org/2000/svg" viewBox="0 0 72.83 72.81"><defs><style>.cls-2{fill:#76777b}.cls-3{fill:#54575a}</style></defs><g id="Layer_2" data-name="Layer 2"><g id="color"><g id="database-color"><circle cx="36" cy="36" r="36" fill="#cbcdce"/><path class="cls-2" d="M52.65 47.66l-7.19-7.25a12.7 12.7 0 10-10.65 5.82A12.62 12.62 0 0042 44l7.15 7.21a2.47 2.47 0 003.53 0 2.54 2.54 0 00-.03-3.55z"/><path class="cls-3" d="M35 42.8a9.16 9.16 0 119.09-9.15A9.13 9.13 0 0135 42.8zM35 26a7.63 7.63 0 107.56 7.63A7.6 7.6 0 0035 26z"/><path d="M35 26a7.63 7.63 0 107.56 7.63A7.6 7.6 0 0035 26z" fill="#fbfbfb"/><path class="cls-3" d="M8.04 24.18h9.78v1.53H8.04z"/><path class="cls-2" d="M5.86 31.02h11.11v1.53H5.86zM12.93 41.27h4.04v1.53h-4.04z"/><path class="cls-3" d="M10.13 36.74h6.84v1.53h-6.84zM10.13 47.26h15.38v1.53H10.13zM16.97 52.22h22.22v1.53H16.97z"/><path class="cls-2" d="M52.86 32.73h11.96v1.53H52.86z"/><path class="cls-3" d="M52.86 40.42h6.84v1.53h-6.84zM51.15 25.04h11.11v1.53H51.15zM26.94 10.73h15.38v1.53H26.94zM11.41 16.96h18.37v1.2H11.41zM42.6 16.49h11.11v1.53H42.6z"/><path fill="#aa192d" d="M38.1 31.44l-1.09-1.08-2.2 2.2-2.2-2.2-1.09 1.08 2.21 2.21-2.21 2.2 1.09 1.08 2.2-2.2 2.2 2.2 1.09-1.08-2.21-2.2 2.21-2.21z"/><path d="M65.91 68.81h-1.36v-.49h3.32v.49H66.5v4h-.59zM72.16 70.84c0-.63-.08-1.38-.07-1.94-.15.53-.34 1.09-.57 1.7l-.79 2.18h-.44l-.73-2.13c-.21-.64-.39-1.22-.52-1.75 0 .56-.05 1.31-.09 2l-.12 1.93h-.55l.31-4.49h.74l.77 2.17c.19.55.34 1.05.45 1.51.12-.45.28-.94.48-1.51l.8-2.17h.73l.28 4.49h-.56z"/></g></g></g></svg>