<svg xmlns="http://www.w3.org/2000/svg" viewBox="0 0 73.16 73.16"><defs><style>.cls-1,.cls-4{fill:#fff}.cls-1{opacity:.5}</style></defs><g id="Layer_2" data-name="Layer 2"><g id="one"><g id="eir-one"><circle class="cls-1" cx="36.2" cy="36.2" r="36.2"/><path class="cls-1" d="M42.28 17.36a11.85 11.85 0 00-6.83 7.42 12 12 0 00-8.4-6.57c-6.73-1.27-9.8-1.59-9.8-1.59s9.36 17.77 17.88 9.86C45.43 34.17 51.61 14 51.61 14s-2.96.86-9.33 3.36z"/><path d="M37.47 47.44a73.36 73.36 0 0010.63-.35c4.58-.64 9.16-2.21 9.69-1.68 1.05 1 .42 2.81.42 2.81s-8.66 6.47-17.9 3.39-2.84-4.17-2.84-4.17z" opacity=".33" fill="#fff"/><path opacity=".35" fill="#fff" d="M17.71 48.02L7.45 49.05 5.39 38.26l2.06-6.44 10.26.82v15.38z"/><path class="cls-4" d="M14.63 44.25a2.69 2.69 0 01-1.26-.38 8.23 8.23 0 001.06-1.66.52.52 0 00-1-.38 7.08 7.08 0 01-1 1.47 9.1 9.1 0 01-1.57-1.59.52.52 0 00-.72-.1.51.51 0 00-.1.72 10.6 10.6 0 001.72 1.75c-.28.31-.61.64-1 1a.52.52 0 00.35.89.52.52 0 00.35-.14c.44-.41.81-.8 1.13-1.15a3.94 3.94 0 001.94.6.51.51 0 100-1zM34.54 34.55s.87-4.63-.6-8a19 19 0 00-9.94-5.8s5.71-.42 11.23 5.49c0 0 2-4.12 10.08-7 0 0-9.32 5-9.45 9a21.41 21.41 0 00.5 6.17zM66.14 69.11h-1.38v-.5h3.37v.5h-1.4v4h-.59zM72.47 71.16c0-.64-.08-1.4-.07-2-.16.54-.34 1.1-.57 1.73L71 73.13h-.44L69.82 71c-.21-.64-.4-1.23-.53-1.77 0 .57 0 1.33-.09 2l-.12 2h-.56l.32-4.55h.75l.77 2.2c.19.56.35 1.06.46 1.53.12-.46.28-1 .48-1.53l.81-2.2h.75l.29 4.55h-.58zM61.59 48c-2.75-1.53-5.89 2.66-11.12 2.66s-9.41-2.09-14.09-3.71c-2.81-1-3.92-2.13-4.36-2.86a.43.43 0 01.41-.65l11.57.83a1.77 1.77 0 00.59-.15c.48-.26 1.56-1 1.52-1.8s.2-1.09-2.8-2.63S30 37 29.81 36.92l-12.07-.77v10.34c4.61 1.11 5.62 4.59 11 6.76 6.07 2.44 14.39 3.66 18.38 3.14a21.82 21.82 0 0011.58-4.73c4.04-3.16 4.24-2.94 2.89-3.66z"/><path class="cls-1" d="M40.31 51.61c-9.24-3.09-2.84-4.17-2.84-4.17a73.36 73.36 0 0010.63-.35c.77-.1 1.54-.24 2.3-.39-4.79-21.58-27-8.2-27-8.2s1.48 8.29 7.75 11.5a18.43 18.43 0 009.23 1.62z"/></g></g></g></svg>