<svg xmlns="http://www.w3.org/2000/svg" viewBox="0 0 72.41 72.95"><defs><style>.cls-3{fill:#aa192d}</style></defs><g id="Layer_2" data-name="Layer 2"><g id="color"><g id="suppliers-color"><circle cx="36" cy="36" r="36" fill="#cbcdce"/><circle cx="36.42" cy="36.11" r="9.94" fill="#cfd2d3"/><circle class="cls-3" cx="36.42" cy="34.04" r="3.14"/><path d="M63.3 34.57a6.36 6.36 0 00-12.52.67h-3.71a10.68 10.68 0 00-4.68-8l1.86-3.06a6.43 6.43 0 002.79.66 6.38 6.38 0 10-5.67-3.45 6.28 6.28 0 001.59 2l-1.89 3.11a10.7 10.7 0 00-10.19.5l-2.14-3.34.26-.26a6.37 6.37 0 10-4.56 1.92h.08a6.31 6.31 0 003-.78l2.13 3.31a10.61 10.61 0 00-3.86 7.39h-4.25a6.37 6.37 0 100 1.53h4.18A10.66 10.66 0 0030 44.69l-2.39 4a6.36 6.36 0 00-7.95 9.72 6.3 6.3 0 004.38 2.15h.41A6.37 6.37 0 0029.27 50l-.39-.4 2.46-4a10.51 10.51 0 009.76.21l3 4.68a5.6 5.6 0 00-.63.56A6.37 6.37 0 0048 61.77h.09a6.36 6.36 0 004.36-10.93A6.24 6.24 0 0048 49a6.4 6.4 0 00-2.53.56l-3-4.64a10.6 10.6 0 004.67-8.18h3.68a6.37 6.37 0 1012.52-2.2zM44.2 41a9.17 9.17 0 11-2.92-12.64A9.19 9.19 0 0144.2 41z" fill="#76777b"/><path d="M68.76 65.62a3.67 3.67 0 11-2.6 1.07 3.55 3.55 0 012.6-1.07zm0 .38a3.08 3.08 0 00-2.28 1 3.35 3.35 0 000 4.65 3.18 3.18 0 004.55 0A3.35 3.35 0 0071 67a3 3 0 00-2.25-1zm-1.64 5.3v-4.1h2q1.26 0 1.26 1.2c0 .58-.19.93-.57 1.06a.75.75 0 01.51.79v1h-.54v-1c0-.43-.2-.65-.6-.65h-1.54v1.6zm.53-2.09H69c.59 0 .88-.23.88-.7a1.24 1.24 0 00-.13-.68.81.81 0 00-.58-.15h-1.5z"/><path class="cls-3" d="M31.61 41.36v2.55a9.16 9.16 0 009.62 0v-2.55a3 3 0 00-3-3h-3.57a3 3 0 00-3.05 3z"/></g></g></g></svg>