<svg version="1.1" id="Layer_1" xmlns="http://www.w3.org/2000/svg" x="0" y="0" viewBox="0 0 50.8 50.8" xml:space="preserve"><style>.st0{fill:#aa192d}</style><g id="Layer_2_1_"><g id="small"><g id="tier1-small"><path class="st0" d="M34.5 24.3c-1.1-.9-3.3-1.5-6.6-1.7h-1v-6.4h.7c2.4 0 3.6 1 3.6 2.8v.5h4.2v-.6c0-2.5-.6-4.2-1.8-5.1s-3.4-1.4-6.6-1.4V9.9h-3v2.5c-3.4 0-5.8.5-7 1.4-1.2 1-1.9 2.7-1.9 5.4s.6 4.5 1.9 5.5 3.6 1.5 7 1.5v6.9h-.6c-1.8 0-2.9-.2-3.4-.7s-.8-1.5-.8-3v-.5h-4.3v.9c0 2.6.6 4.4 1.9 5.4s3.4 1.6 6.5 1.6h.7v2.8h3v-2.8h.9c3.1 0 5.2-.5 6.5-1.6s1.9-3 1.9-5.7c-.1-2.6-.7-4.3-1.8-5.2zM24 22.4h-.6c-2.6 0-3.9-1.1-3.9-3.2s1.3-3.1 3.9-3h.6v6.2zm7.8 7.1c0 2.4-1.4 3.6-4.2 3.6H27v-6.8c2 0 3.3.2 3.9.6.7.7 1.1 1.7.9 2.6z"/><path class="st0" d="M25.4 0C11.4 0 0 11.4 0 25.4s11.4 25.4 25.4 25.4 25.4-11.4 25.4-25.4S39.4 0 25.4 0zm16.3 14.3l4-2.4c2.1 3.1 3.4 6.7 3.8 10.4h-4.8c-.3-2.8-1.4-5.6-3-8zM44 25.2c0 10.1-8.2 18.4-18.4 18.3-10.1 0-18.4-8.2-18.3-18.4S15.5 6.8 25.7 6.8h.2c10 .2 18 8.3 18.1 18.4zM25.4 49.7C11.9 49.7 1 38.8 1 25.4S11.9 1 25.4 1c4.8 0 9.5 1.4 13.5 4.1L36 8.8c-9.1-5.8-21.3-3.2-27.1 6-2 3.1-3 6.7-3.1 10.3.2 10.9 9 19.6 19.9 19.4 9.8-.1 18.1-7.5 19.2-17.3h4.8c-1 12.7-11.6 22.5-24.3 22.5z"/></g></g></g></svg>