<svg xmlns="http://www.w3.org/2000/svg" viewBox="0 0 50.8 50.8"><defs><style>.cls-1{fill:#fff}</style></defs><g id="Layer_2" data-name="Layer 2"><g id="small"><g id="tiertracker-small"><path class="cls-1" d="M25.4 0a25.4 25.4 0 1025.4 25.4A25.4 25.4 0 0025.4 0zm0 49.72A24.36 24.36 0 1149.76 25.4 24.36 24.36 0 0125.4 49.72z"/><path class="cls-1" d="M43.69 32.21l-5.25-5.3a9.4 9.4 0 00-5.18-14.09V6.73h-4.5v5.91A9.16 9.16 0 0024.25 15v-3.77h-4.5V38.1h4.5v-9.53A9.23 9.23 0 0028.76 31v7.1h4.5v-7.32a9.19 9.19 0 002.63-1.24l5.22 5.27a1.81 1.81 0 002.56 0 1.85 1.85 0 00.02-2.6zM36.6 24a6.1 6.1 0 01-3.34 3.64v-.05a6.73 6.73 0 01-2.54.51 6.4 6.4 0 01-1.84-.27A6.09 6.09 0 1136.6 24zM10.77 16.93h4.5V38.1h-4.5z"/><path class="cls-1" d="M33.32 21.55a4.94 4.94 0 00-1.74-.25v-1.86c1 0 1.23.12 1.23.83a1 1 0 000 .14H34a1.08 1.08 0 000-.22 1.68 1.68 0 00-.56-1.49c-.41-.27-.72-.32-1.9-.37v-.72h-.83v.72c-2 0-2.57.46-2.57 2.07 0 1 .24 1.46.84 1.72a5 5 0 001.73.24v2c-1.25 0-1.4-.13-1.39-1.22H28.1v.28a1.71 1.71 0 00.9 1.78 3.66 3.66 0 001.77.24v.84h.83v-.84a4.26 4.26 0 001.67-.2c.68-.27 1-.86 1-1.93s-.27-1.51-.95-1.76zm-2.57-.29h-.33a1.33 1.33 0 01-.7-.14c-.19-.1-.28-.37-.28-.77s.09-.65.28-.76.28-.13 1-.14zm.83 3.11v-2c1.2 0 1.39.16 1.39 1s-.28 1-1.39 1z"/></g></g></g></svg>