<svg xmlns="http://www.w3.org/2000/svg" viewBox="0 0 252 144"><defs><style>.cls-2{fill:#231f20}.cls-3{fill:#ac1e2e}.cls-5{fill:#a9272f}</style></defs><g id="Layer_2" data-name="Layer 2"><g id="back"><path fill="#fff" d="M0 0h252v144H0z"/><path class="cls-2" d="M60.6 122.31a1.63 1.63 0 00-.6-.31 2.14 2.14 0 00-.79-.14 4.16 4.16 0 00-.82.1l.26-1.5h1.8a.45.45 0 00.32-.1.37.37 0 00.1-.25v-.31h-2.7l-.46 2.68.45.13a2.81 2.81 0 01.48-.12 3.4 3.4 0 01.45 0 1.55 1.55 0 01.55.08 1 1 0 01.39.24.88.88 0 01.24.36 1.53 1.53 0 01.08.49 1.38 1.38 0 01-.1.55 1.24 1.24 0 01-.26.43 1 1 0 01-.41.27 1.33 1.33 0 01-.54.1 1.51 1.51 0 01-.46-.06 1.84 1.84 0 01-.34-.14l-.25-.14a.32.32 0 00-.18-.06.2.2 0 00-.18.1l-.22.31a2 2 0 00.3.23 3.2 3.2 0 00.37.19 2.83 2.83 0 00.44.13 2.44 2.44 0 00.48.05 2.16 2.16 0 00.81-.14 2 2 0 00.66-.4 1.76 1.76 0 00.43-.63 2 2 0 00.16-.82 1.92 1.92 0 00-.12-.69 1.55 1.55 0 00-.34-.63zM64.54 119.73H64l-1.71 1.48.23.31h.06a.11.11 0 00.08 0 .14.14 0 00.09 0 .27.27 0 00.11 0l1-.88v4.26H62.6v.55h3.07v-.55h-1.13zM69.88 122.31a1.63 1.63 0 00-.58-.36 2.14 2.14 0 00-.79-.14 4.16 4.16 0 00-.82.1l.26-1.5h1.8a.45.45 0 00.32-.1.37.37 0 00.1-.25v-.31h-2.72l-.45 2.68.45.13a2.81 2.81 0 01.48-.12 3.4 3.4 0 01.45 0 1.55 1.55 0 01.55.08 1 1 0 01.39.24.88.88 0 01.24.36 1.53 1.53 0 01.08.49 1.58 1.58 0 01-.1.55 1.24 1.24 0 01-.26.43 1.13 1.13 0 01-.41.27 1.33 1.33 0 01-.54.1 1.51 1.51 0 01-.46-.06 1.84 1.84 0 01-.34-.14l-.25-.14a.32.32 0 00-.18-.06.2.2 0 00-.18.1l-.22.31a2 2 0 00.3.23 3.2 3.2 0 00.37.19 2.83 2.83 0 00.44.13 2.44 2.44 0 00.48.05 2.16 2.16 0 00.81-.14 2 2 0 00.66-.4 1.76 1.76 0 00.43-.63 2 2 0 00.16-.82 1.92 1.92 0 00-.12-.69 1.55 1.55 0 00-.35-.58zM74.52 122.31a1.63 1.63 0 00-.58-.36 2.14 2.14 0 00-.79-.14 4.16 4.16 0 00-.82.1l.26-1.5h1.8a.45.45 0 00.32-.1.37.37 0 00.1-.25v-.31h-2.72l-.46 2.68.45.13a2.81 2.81 0 01.48-.12 3.4 3.4 0 01.45 0 1.55 1.55 0 01.55.08 1 1 0 01.39.24 1 1 0 01.24.36 1.53 1.53 0 01.08.49 1.58 1.58 0 01-.1.55 1.24 1.24 0 01-.26.43 1.13 1.13 0 01-.41.27 1.33 1.33 0 01-.54.1 1.51 1.51 0 01-.46-.06 1.84 1.84 0 01-.34-.14l-.25-.14a.32.32 0 00-.18-.06.2.2 0 00-.18.1l-.22.31a2 2 0 00.3.23 3.2 3.2 0 00.37.19 2.83 2.83 0 00.44.13 2.44 2.44 0 00.48.05 2.16 2.16 0 00.81-.14 2 2 0 00.66-.4 1.76 1.76 0 00.43-.63 2 2 0 00.16-.82 1.92 1.92 0 00-.12-.69 1.55 1.55 0 00-.34-.58zM78.3 125.48h.77v-2.47h2.36v-.63h-2.36v-2h2.76v-.63H78.3v5.73zM83.39 119.79a.71.71 0 00-.17-.11.5.5 0 00-.39 0 .91.91 0 00-.16.11.48.48 0 00-.1.17.41.41 0 000 .19.45.45 0 000 .2.54.54 0 00.1.16.91.91 0 00.16.11.5.5 0 00.39 0 .71.71 0 00.17-.11.91.91 0 00.11-.16.45.45 0 000-.2.41.41 0 000-.19.71.71 0 00-.11-.17zM82.68 121.43h.71v4.05h-.71zM87.59 121.78a1.22 1.22 0 00-.43-.31 1.5 1.5 0 00-.58-.11 1.77 1.77 0 00-.41 0 1.48 1.48 0 00-.35.13 2.11 2.11 0 00-.31.21 3.45 3.45 0 00-.28.26l-.06-.44c0-.1-.08-.14-.19-.14h-.42v4h.71v-3a2.14 2.14 0 01.51-.41 1.2 1.2 0 01.59-.15.79.79 0 01.64.25 1.1 1.1 0 01.21.72v2.58h.71v-2.47a2.08 2.08 0 00-.09-.63 1.34 1.34 0 00-.25-.49zM91.55 121.78a1.14 1.14 0 00-.44-.31 1.48 1.48 0 00-.61-.12 2.39 2.39 0 00-.86.16 2.25 2.25 0 00-.72.49l.13.23.08.09a.28.28 0 00.13 0 .27.27 0 00.18-.07l.23-.15a1.51 1.51 0 01.33-.1 1.1 1.1 0 01.44-.07.72.72 0 01.59.24 1.07 1.07 0 01.21.72v.31a5.41 5.41 0 00-1.17.13 2.72 2.72 0 00-.77.28 1.18 1.18 0 00-.43.39.9.9 0 00-.13.47 1.13 1.13 0 00.09.47 1 1 0 00.24.34 1 1 0 00.36.2 1.63 1.63 0 00.45.06 1.87 1.87 0 00.42 0 1.9 1.9 0 00.36-.12 2.07 2.07 0 00.32-.19l.31-.26.08.38a.19.19 0 00.09.13.24.24 0 00.16 0h.31v-2.59a2.08 2.08 0 00-.09-.63 1.25 1.25 0 00-.29-.48zm-.33 2.71a1.34 1.34 0 01-.25.23 1.06 1.06 0 01-.26.17 1 1 0 01-.3.11 1.22 1.22 0 01-.34 0 1.09 1.09 0 01-.26 0 .53.53 0 01-.21-.11.58.58 0 01-.15-.19.78.78 0 010-.28.47.47 0 01.1-.3.77.77 0 01.32-.24 2.55 2.55 0 01.56-.16 6 6 0 01.84-.08zM96 121.78a1.22 1.22 0 00-.43-.31 1.5 1.5 0 00-.58-.11 1.77 1.77 0 00-.41 0 1.48 1.48 0 00-.35.13 2.11 2.11 0 00-.31.21 3.45 3.45 0 00-.28.26l-.06-.44c0-.1-.08-.14-.19-.14H93v4h.71v-3a2.14 2.14 0 01.51-.41 1.2 1.2 0 01.59-.15.79.79 0 01.64.25 1.1 1.1 0 01.21.72v2.58h.71v-2.47a2.08 2.08 0 00-.09-.63 1.34 1.34 0 00-.28-.49zM100.18 124.58a.2.2 0 00-.14.06l-.19.14a1 1 0 01-.28.14 1.25 1.25 0 01-.42.06 1.15 1.15 0 01-.5-.1 1.17 1.17 0 01-.37-.3 1.34 1.34 0 01-.23-.48 2.13 2.13 0 01-.09-.65 2.49 2.49 0 01.08-.64 1.34 1.34 0 01.23-.48 1 1 0 01.38-.31 1.29 1.29 0 01.53-.1 1.06 1.06 0 01.38 0 1.27 1.27 0 01.26.11l.18.11a.27.27 0 00.13 0 .12.12 0 00.09 0l.06-.06.19-.26a1.74 1.74 0 00-.58-.39 2 2 0 00-.75-.14 1.94 1.94 0 00-.82.16 1.7 1.7 0 00-.59.43 1.94 1.94 0 00-.37.66 2.84 2.84 0 00-.13.84 2.62 2.62 0 00.14.88 1.94 1.94 0 00.38.66 1.41 1.41 0 00.56.4 1.67 1.67 0 00.71.14 3.11 3.11 0 00.43 0 1.93 1.93 0 00.41-.12 1.78 1.78 0 00.36-.19 1.58 1.58 0 00.3-.28l-.2-.26a.15.15 0 00-.14-.03zM101.32 121.43h.71v4.05h-.71zM102 119.79a.91.91 0 00-.16-.11.71.71 0 00-.2 0 .65.65 0 00-.2 0 .83.83 0 00-.15.11.5.5 0 00-.11.17.41.41 0 000 .19.45.45 0 000 .2.57.57 0 00.11.16.83.83 0 00.15.11.65.65 0 00.2 0 .71.71 0 00.2 0 .91.91 0 00.16-.11.57.57 0 00.11-.16.45.45 0 000-.2.41.41 0 000-.19.5.5 0 00-.11-.17zM105.73 121.78a1.1 1.1 0 00-.45-.31 1.4 1.4 0 00-.6-.12 2.39 2.39 0 00-.86.16 2.25 2.25 0 00-.72.49l.12.23.09.09a.28.28 0 00.13 0 .27.27 0 00.18-.07l.23-.15a1.68 1.68 0 01.3-.14 1.18 1.18 0 01.45-.07.72.72 0 01.59.24 1.07 1.07 0 01.21.72v.31a5.41 5.41 0 00-1.17.13 2.72 2.72 0 00-.77.28 1.18 1.18 0 00-.43.39.9.9 0 00-.13.47 1.13 1.13 0 00.09.47 1 1 0 00.24.34 1 1 0 00.36.2 1.63 1.63 0 00.45.06 1.87 1.87 0 00.42 0 2.17 2.17 0 00.36-.12 2.07 2.07 0 00.32-.19l.31-.26.08.38a.19.19 0 00.09.13.24.24 0 00.16 0h.31v-2.59a2.08 2.08 0 00-.09-.63 1.25 1.25 0 00-.27-.44zm-.33 2.71a1.74 1.74 0 01-.25.23 1.06 1.06 0 01-.26.17 1 1 0 01-.3.11 1.22 1.22 0 01-.34 0 1.09 1.09 0 01-.26 0 .53.53 0 01-.21-.11.47.47 0 01-.15-.19.78.78 0 010-.28.47.47 0 01.1-.3.8.8 0 01.31-.24 2.84 2.84 0 01.57-.16 6 6 0 01.84-.08zM107.2 119.59h.71v5.89h-.71zM118 119.75a.25.25 0 00-.17 0 .22.22 0 00-.09.13l-1.19 4a1.55 1.55 0 000 .23c0 .08 0 .16-.05.25a1.84 1.84 0 000-.25c0-.08 0-.16-.07-.23l-1.34-4a.32.32 0 00-.1-.13.23.23 0 00-.17 0h-.22a.25.25 0 00-.17 0 .31.31 0 00-.1.13l-1.34 4a1.55 1.55 0 00-.07.23l-.06.27a2 2 0 000-.26 1.69 1.69 0 000-.24l-1.19-4a.2.2 0 00-.09-.13.23.23 0 00-.17 0h-.64l1.78 5.73h.7l1.46-4.37v-.14-.15.15a.74.74 0 000 .14l1.45 4.37h.69l1.79-5.73zM121.38 121.78a1.14 1.14 0 00-.44-.31 1.48 1.48 0 00-.61-.12 2.39 2.39 0 00-.86.16 2.25 2.25 0 00-.72.49l.13.23.08.09a.28.28 0 00.13 0 .27.27 0 00.18-.07l.23-.15a1.8 1.8 0 01.31-.14 1.13 1.13 0 01.44-.07.72.72 0 01.59.24 1.07 1.07 0 01.21.72v.31a5.41 5.41 0 00-1.17.13 2.84 2.84 0 00-.77.28 1.18 1.18 0 00-.43.39.9.9 0 00-.13.47 1.13 1.13 0 00.09.47 1 1 0 00.24.34 1.27 1.27 0 00.36.2 1.63 1.63 0 00.45.06 1.87 1.87 0 00.42 0 1.9 1.9 0 00.36-.12 2.07 2.07 0 00.32-.19l.31-.26.08.38a.19.19 0 00.09.13.25.25 0 00.16 0h.31v-2.59a2.08 2.08 0 00-.09-.63 1.25 1.25 0 00-.27-.44zm-.33 2.71a1.34 1.34 0 01-.25.23 1.06 1.06 0 01-.26.17 1 1 0 01-.3.11 1.18 1.18 0 01-.34 0 1.09 1.09 0 01-.26 0 .53.53 0 01-.21-.11.58.58 0 01-.15-.19.78.78 0 010-.28.54.54 0 01.1-.3.84.84 0 01.32-.24 2.55 2.55 0 01.56-.16 6 6 0 01.84-.08zM125.54 121.47a.25.25 0 00-.08.1l-1 2.55q-.06.16-.12.36a2.89 2.89 0 00-.11-.35l-1.08-2.56a.35.35 0 00-.08-.1.2.2 0 00-.14 0h-.62l1.67 3.81-.74 1.61h.53a.26.26 0 00.17 0 .48.48 0 00.09-.13l2.26-5.24h-.57a.2.2 0 00-.18-.05zM127.27 124.7a.44.44 0 00-.15-.12.49.49 0 00-.56.09.44.44 0 00-.13.32.52.52 0 00.13.35.46.46 0 00.34.14.73.73 0 01-.08.25 1.51 1.51 0 01-.11.22l-.13.17-.1.12v.06a.21.21 0 000 .06l.12.11a2 2 0 00.32-.33 2.13 2.13 0 00.39-.75 1.73 1.73 0 00.05-.38.78.78 0 000-.22.4.4 0 00-.09-.09zM135.83 119.77s-.07 0-.11.11l-1.94 3.52-.1.2a2 2 0 01-.08.22 1.33 1.33 0 00-.09-.21l-.09-.2-2-3.53a.19.19 0 00-.11-.11.34.34 0 00-.16 0h-.57v5.73h.68v-4.21-.4l2 3.6a.31.31 0 00.28.18h.12a.3.3 0 00.28-.18l2-3.58v4.59h.68v-5.73H136a.37.37 0 00-.17 0zM140.27 121.78a1.14 1.14 0 00-.44-.31 1.48 1.48 0 00-.61-.12 2.39 2.39 0 00-.86.16 2.25 2.25 0 00-.72.49l.12.23.09.09a.28.28 0 00.13 0 .27.27 0 00.18-.07l.23-.15a1.68 1.68 0 01.3-.14 1.18 1.18 0 01.45-.07.72.72 0 01.59.24 1.07 1.07 0 01.21.72v.31a5.41 5.41 0 00-1.17.13 2.72 2.72 0 00-.77.28 1.18 1.18 0 00-.43.39.9.9 0 00-.13.47 1.13 1.13 0 00.09.47 1 1 0 00.24.34 1 1 0 00.36.2 1.63 1.63 0 00.45.06 1.87 1.87 0 00.42 0 2.17 2.17 0 00.36-.12 2.07 2.07 0 00.32-.19l.31-.26.08.38a.19.19 0 00.09.13.24.24 0 00.16 0h.31v-2.59a2.08 2.08 0 00-.09-.63 1.25 1.25 0 00-.27-.44zm-.33 2.71a1.74 1.74 0 01-.25.23 1.06 1.06 0 01-.26.17 1 1 0 01-.3.11 1.22 1.22 0 01-.34 0 1 1 0 01-.26 0 .51.51 0 01-.22-.11.72.72 0 01-.14-.19.78.78 0 010-.28.47.47 0 01.1-.3.8.8 0 01.31-.24 2.84 2.84 0 01.57-.16 6 6 0 01.84-.08zM144 123.53a1.27 1.27 0 00-.34-.2 2.62 2.62 0 00-.39-.15l-.38-.12a2.18 2.18 0 01-.34-.14.76.76 0 01-.24-.18.37.37 0 01-.09-.26.46.46 0 01.06-.23.52.52 0 01.15-.18.66.66 0 01.25-.13 1.07 1.07 0 01.32 0 1.25 1.25 0 01.36 0 1.39 1.39 0 01.27.1l.18.1a.27.27 0 00.14 0 .16.16 0 00.15-.09l.16-.26a1.82 1.82 0 00-.55-.34 1.85 1.85 0 00-.72-.13 1.66 1.66 0 00-.61.1 1.38 1.38 0 00-.46.26 1 1 0 00-.37.82 1 1 0 00.09.44 1 1 0 00.24.31 1.38 1.38 0 00.33.2c.13.06.26.1.39.15l.39.12a1.51 1.51 0 01.34.14.76.76 0 01.24.18.45.45 0 01.09.28.75.75 0 010 .26.65.65 0 01-.16.21.81.81 0 01-.26.15 1.25 1.25 0 01-.36 0 1.22 1.22 0 01-.41-.06 1.47 1.47 0 01-.28-.12l-.19-.12a.26.26 0 00-.15-.06.21.21 0 00-.12 0 .19.19 0 00-.07.08l-.17.27a2.08 2.08 0 00.58.35 2.21 2.21 0 001.43 0 1.4 1.4 0 00.48-.27 1.14 1.14 0 00.29-.41 1.3 1.3 0 00.1-.52.93.93 0 00-.09-.42.82.82 0 00-.28-.13zM148.3 121.93a1.75 1.75 0 00-.61-.42 2.24 2.24 0 00-1.61 0 1.75 1.75 0 00-.61.42 1.79 1.79 0 00-.38.66 2.71 2.71 0 000 1.72 1.79 1.79 0 00.38.66 1.75 1.75 0 00.61.42 2.38 2.38 0 001.61 0 1.75 1.75 0 00.61-.42 1.94 1.94 0 00.38-.66 2.71 2.71 0 000-1.72 1.94 1.94 0 00-.38-.66zm-.52 2.65a1 1 0 01-.89.4 1.08 1.08 0 01-.91-.4 1.87 1.87 0 01-.3-1.13 2.49 2.49 0 01.08-.64 1.33 1.33 0 01.22-.48.93.93 0 01.38-.3 1.25 1.25 0 01.53-.11 1 1 0 01.89.41 1.82 1.82 0 01.3 1.12 1.87 1.87 0 01-.3 1.13zM152.75 121.78a1.22 1.22 0 00-.43-.31 1.5 1.5 0 00-.58-.11 1.77 1.77 0 00-.41 0 1.48 1.48 0 00-.35.13 2.11 2.11 0 00-.31.21 3.45 3.45 0 00-.28.26l-.06-.44c0-.1-.08-.14-.19-.14h-.42v4h.71v-3a2.14 2.14 0 01.51-.41 1.2 1.2 0 01.59-.15.79.79 0 01.64.25 1.1 1.1 0 01.21.72v2.58h.71v-2.47a2.08 2.08 0 00-.09-.63 1.34 1.34 0 00-.25-.49zM154.89 124.7a.61.61 0 00-.16-.12.46.46 0 00-.21 0 .48.48 0 00-.35.14.44.44 0 00-.13.32.52.52 0 00.13.35.46.46 0 00.34.14 1 1 0 01-.07.25l-.12.22-.13.17-.1.12v.12l.12.11a2.5 2.5 0 00.32-.33 2.06 2.06 0 00.23-.37 1.66 1.66 0 00.15-.38 1.28 1.28 0 000-.38.78.78 0 000-.22.51.51 0 00-.02-.14zM162.73 120.5a2.54 2.54 0 00-.9-.6 3.12 3.12 0 00-2.3 0 2.41 2.41 0 00-.89.6 2.76 2.76 0 00-.58.93 3.21 3.21 0 00-.2 1.18 3.27 3.27 0 00.2 1.19 2.82 2.82 0 00.58.92 2.41 2.41 0 00.89.6 3.12 3.12 0 002.3 0 2.54 2.54 0 00.9-.6 2.64 2.64 0 00.57-.92 3.27 3.27 0 00.21-1.19 3.22 3.22 0 00-.21-1.18 2.59 2.59 0 00-.57-.93zm-.16 3.06a2.07 2.07 0 01-.41.71 1.79 1.79 0 01-.64.44 2.28 2.28 0 01-1.68 0 1.79 1.79 0 01-.64-.44 2.07 2.07 0 01-.41-.71 3.26 3.26 0 010-1.89 2 2 0 01.41-.71 1.69 1.69 0 01.64-.45 2.29 2.29 0 011.68 0 1.69 1.69 0 01.64.45 2 2 0 01.41.71 3.26 3.26 0 010 1.89zM168.48 122.3h-3.09v-2.55h-.77v5.73h.77v-2.61h3.09v2.61h.78v-5.73h-.78v2.55zM175.58 119.75h-.66l-2.79 3.7.07.36a.21.21 0 00.08.11.22.22 0 00.14 0H175v1.51h.62V124h.72a.12.12 0 00.11 0 .15.15 0 000-.11v-.41h-.87zm-.61 1.07a1.85 1.85 0 000 .23v2.36h-2.07l2.09-2.84a2.11 2.11 0 00.01.25zM180.32 122.31a1.63 1.63 0 00-.58-.36 2.14 2.14 0 00-.79-.14 4.25 4.25 0 00-.82.1l.26-1.5h1.8a.45.45 0 00.32-.1.33.33 0 00.1-.25v-.31h-2.72l-.46 2.68.45.13a2.81 2.81 0 01.48-.12 3.4 3.4 0 01.45 0 1.55 1.55 0 01.55.08 1 1 0 01.39.24.88.88 0 01.24.36 1.53 1.53 0 01.08.49 1.59 1.59 0 01-.09.55 1.26 1.26 0 01-.27.43 1 1 0 01-.41.27 1.33 1.33 0 01-.54.1 1.56 1.56 0 01-.46-.06 2.18 2.18 0 01-.34-.14l-.24-.14a.38.38 0 00-.18-.06.22.22 0 00-.19.1l-.22.31c.09.08.19.15.3.23a3.36 3.36 0 00.38.19 2.7 2.7 0 00.43.13 2.52 2.52 0 00.48.05 2.21 2.21 0 00.82-.14 2 2 0 00.65-.4 1.79 1.79 0 00.44-.63 2.27 2.27 0 000-1.51 1.57 1.57 0 00-.31-.58zM185.12 120.4a1.64 1.64 0 00-.67-.54 1.94 1.94 0 00-1.63 0 1.68 1.68 0 00-.66.54 2.66 2.66 0 00-.44.91 5.4 5.4 0 000 2.61 2.76 2.76 0 00.44.91 1.9 1.9 0 002.29.53 1.79 1.79 0 00.67-.53 3 3 0 00.44-.91 5.4 5.4 0 000-2.61 2.86 2.86 0 00-.44-.91zm-.25 3.31a2 2 0 01-.3.72 1.06 1.06 0 01-.43.39 1.12 1.12 0 01-1 0 1.06 1.06 0 01-.43-.39 2.2 2.2 0 01-.29-.72 4.29 4.29 0 01-.11-1.1 4.39 4.39 0 01.11-1.1 2.2 2.2 0 01.29-.72 1.06 1.06 0 01.43-.39 1.21 1.21 0 011 0 1.06 1.06 0 01.43.39 2 2 0 01.3.72 4.91 4.91 0 01.11 1.1 4.79 4.79 0 01-.11 1.1zM189.5 119.75h-.66l-2.79 3.7.07.36a.21.21 0 00.08.11.22.22 0 00.14 0h2.54v1.51h.62V124h.83a.15.15 0 000-.11v-.41h-.87zm-.61 1.07a1.85 1.85 0 000 .23v2.36h-2.06l2.09-2.84a2.11 2.11 0 00-.03.25zM194.84 121.31a2.86 2.86 0 00-.44-.91 1.64 1.64 0 00-.67-.54 1.94 1.94 0 00-1.63 0 1.68 1.68 0 00-.66.54 2.66 2.66 0 00-.44.91 5.4 5.4 0 000 2.61 2.76 2.76 0 00.44.91 1.9 1.9 0 002.29.53 1.79 1.79 0 00.67-.53 3 3 0 00.44-.91 5.4 5.4 0 000-2.61zm-.69 2.4a2 2 0 01-.3.72 1.06 1.06 0 01-.43.39 1.12 1.12 0 01-1 0 1.13 1.13 0 01-.43-.39 2.2 2.2 0 01-.29-.72 4.29 4.29 0 01-.11-1.1 4.39 4.39 0 01.11-1.1 2.2 2.2 0 01.29-.72 1.13 1.13 0 01.43-.39 1.21 1.21 0 011 0 1.06 1.06 0 01.43.39 2 2 0 01.3.72 4.91 4.91 0 01.11 1.1 4.79 4.79 0 01-.11 1.1z"/><path class="cls-3" d="M41 109.27a5.67 5.67 0 01-1.63-.22c-.17-.09-.25-.37-.25-.83a.84.84 0 01.3-.77 3 3 0 011.3-.18 2.15 2.15 0 011.06.16c.15.1.24.36.27.77v.15h1.36v-.28a1.74 1.74 0 00-.57-1.53 4.38 4.38 0 00-2.23-.39 4.27 4.27 0 00-2.33.43 2 2 0 00-.58 1.71 2.08 2.08 0 00.48 1.64 4.62 4.62 0 002.22.48h.77a1.44 1.44 0 01.85.21 1 1 0 01.19.71c0 .48-.08.78-.25.91a2.19 2.19 0 01-1.2.2 3.49 3.49 0 01-1.46-.17c-.18-.11-.27-.43-.27-.94v-.15h-1.31v.27a2 2 0 00.56 1.69 4.26 4.26 0 002.3.42 4.64 4.64 0 002.49-.43c.37-.28.56-.91.56-1.88a1.94 1.94 0 00-.48-1.57 4.3 4.3 0 00-2.15-.41zM47.9 111.22c0 .94-.39 1.41-1.18 1.41a1 1 0 01-.76-.2 1.44 1.44 0 01-.18-.87v-3.15h-1.23v3.45a1.55 1.55 0 001.74 1.75 1.57 1.57 0 001.66-1l-.07.88h1.23v-5.14H47.9zM53.26 108.35a1.69 1.69 0 00-1.65.83l.05-.76h-1.28v7.34h1.28v-3a1.55 1.55 0 001.58.81 1.82 1.82 0 001.55-.57 3.77 3.77 0 00.42-2.11 3.54 3.54 0 00-.42-2 1.84 1.84 0 00-1.53-.54zm.51 4c-.14.21-.45.31-.93.31a1.1 1.1 0 01-.94-.32 2.48 2.48 0 01-.24-1.33 2.74 2.74 0 01.22-1.34 1.06 1.06 0 01.92-.32c.5 0 .82.1 1 .31a4.41 4.41 0 010 2.69zM59.15 108.35a1.69 1.69 0 00-1.66.83v-.76h-1.23v7.34h1.28v-3a1.56 1.56 0 001.58.81 1.81 1.81 0 001.55-.57 3.77 3.77 0 00.42-2.11 3.54 3.54 0 00-.42-2 1.83 1.83 0 00-1.52-.54zm.5 4c-.14.21-.45.31-.93.31a1.1 1.1 0 01-.94-.32 2.5 2.5 0 01-.23-1.33 2.78 2.78 0 01.21-1.34 1.06 1.06 0 01.92-.32c.5 0 .82.1 1 .31a4.22 4.22 0 010 2.69zM62.14 106.21h1.23v7.33h-1.23zM64.58 106.21h1.23v1.03h-1.23zM64.58 108.41h1.23v5.13h-1.23zM69.25 108.35a2.71 2.71 0 00-1.93.51 3 3 0 00-.49 2 3.45 3.45 0 00.47 2.2 2.72 2.72 0 002 .53c1.51 0 2.26-.51 2.26-1.51v-.2h-1.24c0 .33-.06.54-.2.64a1.69 1.69 0 01-.88.15 1.29 1.29 0 01-.93-.25 1.53 1.53 0 01-.24-1v-.23h3.48v-.38a3 3 0 00-.47-2 2.49 2.49 0 00-1.83-.46zm-1.16 2.1a1.46 1.46 0 01.21-1 1.27 1.27 0 01.9-.22 1.56 1.56 0 01.92.18 1.07 1.07 0 01.21.79v.21zM75.18 108.33a1.46 1.46 0 00-1.38.81l.08-.72h-1.26v5.14h1.23v-3c0-.81.3-1.22.91-1.22.43 0 .64.28.64.82v.28h1.16V110c-.02-1.1-.47-1.67-1.38-1.67zM85 109.62c-.1.25-.22.58-.35 1l-.16.5-.15.51-.17-.51-.16-.51c-.15-.44-.27-.77-.36-1l-1.31-3.4H80v7.34h1.4v-4-2.14l.16.51.17.51c.15.45.26.79.35 1l1.63 4.11h1.27l1.61-4.14c.08-.22.2-.56.35-1l.16-.51.17-.51v6.17h1.39v-7.34h-2.4zM92 108.35a3.27 3.27 0 00-1.7.31 1.48 1.48 0 00-.43 1.24h1.26c0-.48.31-.72.94-.72a1.33 1.33 0 01.86.2 1.08 1.08 0 01.21.79v.83c-.19-.39-.7-.59-1.55-.59-1.27 0-1.91.53-1.91 1.6s.62 1.59 1.87 1.59c.85 0 1.4-.26 1.64-.77l-.06.71h1.23v-3.36a1.77 1.77 0 00-.49-1.46 3.29 3.29 0 00-1.87-.37zm0 4.43a1.7 1.7 0 01-.91-.16.78.78 0 01-.21-.65c0-.48.35-.72 1-.72s1.2.26 1.2.77-.32.76-1.08.76zM98.38 108.35a1.53 1.53 0 00-1.61.93l.05-.87h-1.25v5.14h1.23v-3c0-.78.42-1.17 1.24-1.17.55 0 .85.19.91.57v3.65h1.23v-3.5c.02-1.18-.58-1.75-1.8-1.75zM103.56 108.35a3.22 3.22 0 00-1.7.31 1.45 1.45 0 00-.43 1.24h1.25c0-.48.32-.72.94-.72a1.31 1.31 0 01.86.2 1.08 1.08 0 01.21.79v.83c-.18-.39-.7-.59-1.55-.59-1.27 0-1.9.53-1.9 1.6s.62 1.59 1.86 1.59c.86 0 1.4-.26 1.64-.77l-.06.71h1.23v-3.36a1.77 1.77 0 00-.49-1.46 3.26 3.26 0 00-1.86-.37zm0 4.43a1.63 1.63 0 01-.9-.16.77.77 0 01-.22-.65q0-.72 1.05-.72c.79 0 1.19.26 1.19.77s-.35.76-1.1.76zM110.57 109.26a1.56 1.56 0 00-1.6-.91 1.85 1.85 0 00-1.55.56 3.36 3.36 0 00-.43 2 3.67 3.67 0 00.43 2.11 1.9 1.9 0 001.59.56 1.44 1.44 0 001.5-.82v1.16c0 .63-.38.94-1.14.94a1.52 1.52 0 01-.84-.14c-.13-.09-.19-.31-.19-.64h-1.19a1.76 1.76 0 00.44 1.4 3 3 0 001.77.35 2.82 2.82 0 001.87-.46 2.31 2.31 0 00.51-1.73v-5.23h-1.23zm-.3 3c-.14.2-.45.31-.94.31s-.79-.1-.92-.3a2.92 2.92 0 01-.2-1.39 2.61 2.61 0 01.2-1.31c.13-.19.43-.28.91-.28s.81.09 1 .29a2.47 2.47 0 01.22 1.31 2.69 2.69 0 01-.27 1.41zM115.18 108.35a2.72 2.72 0 00-1.93.51 3 3 0 00-.49 2 3.52 3.52 0 00.47 2.2 2.77 2.77 0 002 .53c1.5 0 2.25-.51 2.25-1.51v-.2h-1.23c0 .33-.07.54-.21.64a1.67 1.67 0 01-.88.15 1.33 1.33 0 01-.93-.25 1.54 1.54 0 01-.23-1v-.23h3.47v-.38a3 3 0 00-.46-2 2.53 2.53 0 00-1.83-.46zm-1.15 2.1a1.54 1.54 0 01.2-1 1.27 1.27 0 01.9-.22 1.56 1.56 0 01.92.18 1.07 1.07 0 01.21.79v.21zM124.46 108.35a1.51 1.51 0 00-1.58 1c-.11-.63-.62-1-1.55-1a1.54 1.54 0 00-1.57.86v-.79h-1.23v5.14h1.23v-3c0-.83.38-1.24 1.13-1.24.37 0 .61.06.72.2a1.42 1.42 0 01.17.84v3.18H123v-3c0-.81.37-1.21 1.12-1.21.6 0 .9.36.9 1.09v3.13h1.23v-3.4a1.59 1.59 0 00-1.79-1.8zM129.74 108.35a2.71 2.71 0 00-1.93.51 3 3 0 00-.49 2 3.45 3.45 0 00.47 2.2 2.72 2.72 0 002 .53c1.51 0 2.26-.51 2.26-1.51v-.2h-1.24a.79.79 0 01-.2.64 1.69 1.69 0 01-.88.15 1.29 1.29 0 01-.93-.25 1.53 1.53 0 01-.24-1v-.23h3.48v-.38a3 3 0 00-.47-2 2.5 2.5 0 00-1.83-.46zm-1.16 2.1a1.46 1.46 0 01.21-1 1.26 1.26 0 01.89-.22 1.6 1.6 0 01.93.18 1.07 1.07 0 01.21.79v.21zM135.88 108.35a1.53 1.53 0 00-1.61.93v-.87h-1.22v5.14h1.23v-3c0-.78.42-1.17 1.24-1.17.55 0 .85.19.91.57v3.65h1.23v-3.5c.04-1.18-.56-1.75-1.78-1.75zM141.38 111.77c0 .58-.2.87-.59.87s-.55-.24-.55-.72v-2.57h2v-.94h-2v-1.15H139v1.15h-.66v.94h.66v2.75c0 1 .55 1.51 1.65 1.51s1.68-.39 1.75-1.17v-.87h-1.05zM150.87 109.62c-.1.25-.22.58-.35 1l-.16.5-.15.51h-.05l-.17-.51-.16-.51c-.15-.44-.26-.77-.35-1l-1.32-3.4h-2.26v7.34h1.39v-4-2.14h.05l.16.51.17.51c.15.45.26.79.35 1l1.63 4.11h1.27l1.61-4.14c.08-.22.2-.56.35-1l.16-.51.17-.51v6.17h1.39v-7.34h-2.31zM157.88 108.35a3.29 3.29 0 00-1.71.31 1.48 1.48 0 00-.43 1.24H157c0-.48.31-.72.94-.72a1.33 1.33 0 01.86.2 1.08 1.08 0 01.21.79v.83c-.19-.39-.7-.59-1.55-.59-1.27 0-1.91.53-1.91 1.6s.62 1.59 1.87 1.59c.85 0 1.4-.26 1.64-.77l-.06.71h1.23v-3.36a1.77 1.77 0 00-.49-1.46 3.28 3.28 0 00-1.86-.37zm0 4.43a1.7 1.7 0 01-.91-.16.78.78 0 01-.21-.65c0-.48.35-.72 1-.72s1.2.26 1.2.77-.31.76-1.06.76zM164.8 109.14c-.21-.53-.73-.8-1.57-.8a1.83 1.83 0 00-1.51.54 3.18 3.18 0 00-.42 1.91 4.28 4.28 0 00.4 2.26 1.88 1.88 0 001.61.55 1.51 1.51 0 001.57-.9v.83H166v-7.34h-1.2zm-.21 3.18c-.14.21-.45.32-1 .32s-.77-.11-.91-.32a3.18 3.18 0 01-.2-1.44 2.46 2.46 0 01.2-1.26c.14-.2.43-.29.89-.29s.8.09.95.29a2.26 2.26 0 01.23 1.24 3.15 3.15 0 01-.16 1.46zM169.48 108.35a2.71 2.71 0 00-1.93.51 3 3 0 00-.5 2 3.44 3.44 0 00.48 2.2 2.72 2.72 0 002 .53c1.5 0 2.26-.51 2.26-1.51v-.2h-1.24a.79.79 0 01-.2.64 1.69 1.69 0 01-.88.15 1.34 1.34 0 01-.94-.25 1.6 1.6 0 01-.23-1v-.23h3.48v-.38a3 3 0 00-.47-2 2.5 2.5 0 00-1.83-.46zm-1.16 2.1a1.46 1.46 0 01.21-1 1.24 1.24 0 01.89-.22 1.54 1.54 0 01.92.18 1 1 0 01.22.79v.21zM178.62 109.27a5.6 5.6 0 01-1.63-.22c-.17-.09-.25-.37-.25-.83a.84.84 0 01.3-.77 3 3 0 011.29-.18 2.17 2.17 0 011.07.16c.15.1.24.36.27.77v.15H181v-.28a1.74 1.74 0 00-.57-1.53 4.38 4.38 0 00-2.23-.39 4.25 4.25 0 00-2.33.43 2 2 0 00-.58 1.71 2.08 2.08 0 00.48 1.64 4.62 4.62 0 002.22.48h.77a1.47 1.47 0 01.85.21 1 1 0 01.19.71c0 .48-.08.78-.25.91a2.22 2.22 0 01-1.2.2 3.46 3.46 0 01-1.46-.17c-.18-.11-.27-.43-.27-.94v-.15h-1.32v.27a2 2 0 00.56 1.69 4.24 4.24 0 002.3.42 4.58 4.58 0 002.48-.43c.38-.28.57-.91.57-1.88a1.94 1.94 0 00-.48-1.57 4.3 4.3 0 00-2.11-.41zM182.15 106.21h1.23v1.03h-1.23zM182.15 108.41h1.23v5.13h-1.23zM190.53 108.35a1.51 1.51 0 00-1.58 1c-.11-.63-.62-1-1.55-1a1.53 1.53 0 00-1.57.86v-.79h-1.23v5.14h1.23v-3c0-.83.37-1.24 1.13-1.24a.92.92 0 01.72.2 1.42 1.42 0 01.17.84v3.18h1.23v-3c0-.81.37-1.21 1.12-1.21.6 0 .89.36.89 1.09v3.13h1.24v-3.4a1.59 1.59 0 00-1.8-1.8zM196.46 108.35a1.7 1.7 0 00-1.66.83v-.76h-1.25v7.34h1.29v-3a1.54 1.54 0 001.58.81A1.82 1.82 0 00198 113a3.77 3.77 0 00.42-2.11 3.54 3.54 0 00-.42-2 1.84 1.84 0 00-1.54-.54zm.51 4c-.15.21-.46.31-.94.31a1.13 1.13 0 01-.94-.32 4.07 4.07 0 010-2.67 1 1 0 01.91-.32c.51 0 .83.1 1 .31a2.6 2.6 0 01.22 1.35 2.75 2.75 0 01-.22 1.31zM199.45 106.21h1.23v7.33h-1.23zM204.13 108.35a2.71 2.71 0 00-1.93.51 3 3 0 00-.5 2 3.44 3.44 0 00.48 2.2 2.72 2.72 0 002 .53c1.5 0 2.26-.51 2.26-1.51v-.2h-1.24a.79.79 0 01-.2.64 1.71 1.71 0 01-.89.15 1.33 1.33 0 01-.93-.25 1.6 1.6 0 01-.23-1v-.23h3.48v-.38a3 3 0 00-.47-2 2.5 2.5 0 00-1.83-.46zm-1.16 2.1a1.46 1.46 0 01.21-1 1.24 1.24 0 01.89-.22 1.56 1.56 0 01.92.18 1 1 0 01.22.79v.21zM213.59 107.24a3.73 3.73 0 10-2.63 6.38 3.54 3.54 0 002.63-1.1 3.72 3.72 0 000-5.28zm-.4 4.92a3.1 3.1 0 01-4.47 0 3.26 3.26 0 010-4.56 3.13 3.13 0 014.47 0 3.26 3.26 0 010 4.56z"/><path class="cls-3" d="M212.73 109.05c0-.87-.48-1.3-1.42-1.3h-2.13v4.19h.88v-1.37h1.12c.41 0 .62.2.62.59v.78h.88V111a.75.75 0 00-.6-.83c.43-.11.65-.49.65-1.12zm-1.55.77h-1.12v-1.32h1.18a.57.57 0 01.64.65c0 .45-.23.67-.7.67z"/><ellipse cx="150.74" cy="56.53" rx="25.76" ry="25.62" fill="#cbcdce"/><path d="M135.71 76.84h6.62l7.95-13.78-3.53-5.44-11.04 19.22zM165.76 36.21h-6.71l-7.66 13.86 3.57 5.38 10.8-19.24zM142.33 36.21h-6.62l11.03 19.24 3.6-5.36-8.01-13.88zM151.49 63.03l7.65 13.81h6.62l-10.82-19.22-3.45 5.41z"/><path class="cls-5" d="M147.21 56.57l3.66 5.64 3.65-5.64-3.65-5.54-3.66 5.54zM54 65.4H43.74A2.78 2.78 0 0141 62.63V50.44a2.78 2.78 0 012.78-2.77H54a2.8 2.8 0 012.77 2.45h3.67v-.72a5.23 5.23 0 00-5.22-5.2h-12.7a5.23 5.23 0 00-5.22 5.2v14.25a5.23 5.23 0 005.22 5.2h12.72a5.23 5.23 0 005.22-5.2v-.45h-3.72A2.8 2.8 0 0154 65.4zM80.1 44.2H67.39a5.23 5.23 0 00-5.23 5.2v14.25a5.23 5.23 0 005.23 5.2H80.1a5.23 5.23 0 005.23-5.2V49.4a5.23 5.23 0 00-5.23-5.2zm1.57 18.43a2.79 2.79 0 01-2.79 2.77H68.6a2.78 2.78 0 01-2.78-2.77V50.44a2.78 2.78 0 012.78-2.77h10.28a2.79 2.79 0 012.79 2.77zM107.24 44.2v19.22L90.9 44.2h-3.25v24.65h3.25V49.99l16.34 18.83v.03h3.25V44.2h-3.25zM132.65 44.2v19.22L116.31 44.2h-3.24v24.65h3.24V49.99l16.34 18.83v.03h3.25V44.2h-3.25zM184.37 44.19V62.7a2.79 2.79 0 01-2.78 2.78h-10.34a2.8 2.8 0 01-2.79-2.78V44.19h-3.54v19.25a5.46 5.46 0 005.46 5.42h12.31a5.46 5.46 0 005.46-5.42V44.19zM213 44.19v3.44h-16.26c-1.45 0-3.31.69-3.31 2.25V52c0 .75.35 2.2 2.73 2.2h10.92c3.07 0 5.92 1.5 5.92 5.14v4.1c0 2 .17 5.46-5.29 5.46h-17.65v-3.42h16.38c2.38 0 3.07-.35 3.07-2.37v-3.64c0-1.45-1.1-1.79-2.9-1.79h-10.28c-2.67 0-6.27-1.16-6.27-4.68v-3.87c0-1.5.7-4.94 5.4-4.94z"/><path class="cls-2" d="M176.51 36.21a2.81 2.81 0 012 4.81 2.69 2.69 0 01-2 .83 2.82 2.82 0 01-2.84-2.85 2.67 2.67 0 01.83-2 2.74 2.74 0 012.01-.79zm0 .29a2.4 2.4 0 00-1.76.74 2.56 2.56 0 000 3.58 2.45 2.45 0 003.51 0 2.57 2.57 0 000-3.58 2.4 2.4 0 00-1.76-.74zm-1.27 4.08v-3.15h1.56c.65 0 1 .3 1 .92 0 .45-.14.72-.43.82a.57.57 0 01.39.6v.81h-.42v-.72c0-.34-.15-.51-.46-.51h-1.19v1.23zm.42-1.6h1c.45 0 .68-.18.68-.55a.9.9 0 00-.1-.51.61.61 0 00-.45-.12h-1.15z"/></g></g></svg>