<svg version="1.1" id="Layer_1" xmlns="http://www.w3.org/2000/svg" x="0" y="0" viewBox="0 0 49.8 49.8" xml:space="preserve"><style>.st0{fill:#aa192d}</style><g id="Layer_2_1_"><g id="small"><g id="myconnxion-small"><path class="st0" d="M24.9 0C11.1 0 0 11.1 0 24.9s11.1 24.9 24.9 24.9 24.9-11.1 24.9-24.9S38.6 0 24.9 0zm0 48.7C11.7 48.7 1 38 1 24.9 1 11.7 11.7 1 24.9 1s23.9 10.7 23.9 23.9C48.7 38 38 48.7 24.9 48.7z"/><path class="st0" d="M44.5 20.4c0-.1-.1-.2-.2-.3-.1 0-.2 0-.3.2s-.3.4-.5.8h.1c-.3.4-.6.8-1 1.3s-.8 1-1.2 1.6L40 25.7c-.5.6-.9 1.1-1.4 1.6-.5.5-.9 1-1.3 1.4l1.5-3.9c.5-1.3.8-2.4 1.2-3.4s.6-1.8.8-2.5l.3-1.2c0-.3-.2-.6-.4-.9-.3-.3-.6-.6-1-.8-.3-.2-.6-.3-1-.3-.2 0-.5.1-.5.3v.1c0 .4-.1.7-.2 1.1-.1.5-.3 1.2-.6 2-.4 1-.9 1.9-1.5 2.8-.6 1-1.3 1.9-2.1 2.8-.6.8-1.3 1.5-2.1 2.2-.4.5-1 .8-1.7.9-.1 0-.1-.2 0-.7s.3-1 .6-1.7.5-1.4.9-2.2.7-1.6 1-2.3c.3-.7.6-1.4.8-1.9l.3-1.2c0-.3-.2-.6-.4-.9-.3-.3-.6-.6-1-.8-.3-.2-.7-.3-1-.3-.2 0-.5.1-.5.3v.1c0 .5-.2.9-.3 1.4-.2.5-.4 1.1-.7 1.8l-.4 1c-.3.4-.5.8-.9 1.3l-1.2 1.7c-.4.6-.8 1.1-1.2 1.7s-.8 1.1-1.2 1.5c-.3.4-.6.7-1 1.1-.2.2-.5.4-.8.4-.2 0-.3-.2-.2-.6s.3-1 .6-1.5l.7-1.9c.2-.7.5-1.3.8-2s.5-1.3.7-1.9.4-1.1.5-1.5c.1-.3.2-.6.2-.9 0-.2-.1-.5-.2-.7-.2-.2-.4-.5-.6-.6-.3-.2-.5-.4-.8-.5-.3-.1-.6-.1-.9-.1h-.1c-.1 0-.2.1-.3.2-.3.3-.6.6-.8.9-.3.4-.7.8-1.1 1.3s-.8 1-1.2 1.6l-1.2 1.6-1.1 1.6c-.3.5-.6.9-.8 1.2.2-.6.5-1.2.7-1.9l.7-1.9c.2-.6.4-1.1.6-1.6.1-.3.2-.7.2-1 0-.3-.2-.6-.4-.9-.3-.3-.6-.6-1-.8-.3-.2-.7-.3-1-.4-.2 0-.5.1-.5.3v.1l-.7 1c-.3.4-.6.8-1 1.3l-1 1.5-1 1.5c-.3.5-.6 1-.9 1.4l-.7 1.1c.2-.7.5-1.3.8-2s.5-1.3.7-1.9.4-1.1.5-1.5c.1-.3.2-.6.2-.9 0-.3-.1-.6-.4-.8-.3-.3-.6-.6-1-.8-.3-.2-.6-.3-1-.4-.2 0-.4.1-.5.3v.1c-.1.5-.2.9-.4 1.4-.2.6-.4 1.2-.7 1.9l-.9 2.1-.9 2.1c-.3.7-.5 1.3-.7 1.8-.2.4-.3.8-.4 1.3 0 .4.1.9.3 1.2.2.3.6.6.9.8.3.2.6.3 1 .4.2.1.5 0 .7 0 .1-.1.1-.2.1-.3v-.3c.3-.5.6-1.1 1.1-1.9s1-1.5 1.6-2.4 1.1-1.6 1.7-2.5l1.4-2.1-.6 1.5-.6 1.5c-.2.5-.3.9-.5 1.3-.1.3-.2.7-.2 1-.1.4 0 .9.3 1.2.2.3.5.6.9.9.3.2.6.3 1 .4.2.1.4.1.6 0 .1-.1.1-.1.1-.2v-.2c.2-.3.5-.7.8-1.2s.8-1.1 1.3-1.7l1.6-2c.6-.7 1.2-1.5 1.8-2.2l-.9 2.1c-.3.7-.6 1.4-.8 2s-.5 1.2-.6 1.7l-.3 1.2c0 .4.1.8.3 1.2.2.3.5.6.9.8.3.2.6.4 1 .5.2.1.5.1.7 0 .5-.1 1-.3 1.4-.7.5-.4 1-.9 1.4-1.4.5-.6 1.1-1.1 1.5-1.8l.4-.6c-.1.3-.2.7-.3 1 0 .5.1.9.3 1.3.2.4.4.7.7 1l.9.6c.3.1.5.2.8.2.6 0 1.1-.2 1.6-.5.6-.4 1.1-.8 1.6-1.2.5-.5 1-1.1 1.5-1.6.5-.6.9-1.1 1.2-1.6-.5 1.4-1.1 2.9-1.7 4.4s-1.2 2.9-1.9 4.3l-2.4 1.8c-.7.5-1.4 1.1-2 1.5-.5.4-1 .9-1.4 1.4-.3.3-.5.7-.5 1.2v.9c.1.3.2.6.4.9.2.3.5.5.8.7.4.2.9.3 1.4.3.7 0 1.5-.4 2-.9.8-.7 1.5-1.5 2.1-2.3.7-1.1 1.4-2.2 2-3.4.7-1.3 1.3-2.6 1.9-4l.1-.1s.1 0 .1-.1c.5-.4.9-.8 1.4-1.3.5-.6 1.1-1.2 1.7-1.9l1.8-2.1c.6-.7 1.1-1.4 1.6-2s.9-1.1 1.2-1.6.5-.7.6-.8c0-.1.1-.3.1-.4.1 0 .1-.1.1-.3zm-15.8 18c-.6.8-1.1 1.2-1.6 1.2-.1 0-.1 0-.2-.1-.1 0-.1-.2-.1-.5 0-.4.4-.9 1.1-1.5s1.6-1.3 2.7-2.1c-.5 1-1.2 2-1.9 3z"/></g></g></g></svg>