<svg xmlns="http://www.w3.org/2000/svg" viewBox="0 0 50.8 50.8"><defs><style>.cls-1{fill:#fff}</style></defs><g id="Layer_2" data-name="Layer 2"><g id="small"><g id="connxsmart-small"><g id="Layer_2-2" data-name="Layer 2"><g id="Layer_1-2" data-name="Layer 1-2"><path class="cls-1" d="M29.89 22l-4.84 1.64-4.8 1.76a3.78 3.78 0 01-2.38-7l14-5-1.2-3.55L27.35 11l-10.64 3.93A7.32 7.32 0 1021.4 28.8l4.84-1.64L31 25.4a3.79 3.79 0 012.38 7l-14 5 .9 2.66.3.9 3.16-1.18 10.78-4A7.32 7.32 0 0029.89 22zM45.31 24.25a2.14 2.14 0 10-.7 2.95 2.14 2.14 0 00.7-2.95zM6.85 24.27a2.22 2.22 0 10.07 0z"/><path class="cls-1" d="M25.4 50.8a25.4 25.4 0 1125.4-25.4 25.4 25.4 0 01-25.4 25.4zm0-49.8a24.36 24.36 0 1024.36 24.4A24.36 24.36 0 0025.4 1z"/></g></g></g></g></g></svg>