<svg xmlns="http://www.w3.org/2000/svg" viewBox="0 0 71.29 71.49"><defs><style>.cls-1{fill:#333}.cls-3{fill:#a7a7a9}</style></defs><g id="Layer_2" data-name="Layer 2"><g id="color"><g id="myconnxion-color"><path class="cls-1" d="M36.59 8.62z"/><circle cx="35.27" cy="35.27" r="35.27" fill="#cbcdce"/><path class="cls-1" d="M36.56 9.16v.05zM25.65 20.19l-.08-.05z"/><path class="cls-3" d="M3.12 29.88c.84 1.25 1.06 3.68 1.47 5.19a3.54 3.54 0 00.73 1.61c.79.83 1.94.57 2.86 1a9.54 9.54 0 012.67 2.36 2.85 2.85 0 001.62 1.2 2 2 0 00.35 0 3.31 3.31 0 001.23-.55c-.17-.29-.59-.21-.93-.2a1.68 1.68 0 01-1.67-1.74c0-.4.18-.88-.12-1.16s-1 0-1.42-.32c-.24-.2-.3-.5-.67-.68s.85-.66-.72-1c-.66-.14-1.39 0-1.71-.6a3.07 3.07 0 01-.15-2 3.78 3.78 0 01.54-1.47 1.58 1.58 0 011.33-.72c.35 0 .74.19 1.05 0 .53-.29.81-1 1.54-.49a1.84 1.84 0 01.67.9 7.46 7.46 0 00.46 1 .69.69 0 00.32.31c.77-1-.42-2.27.83-3.36a6.14 6.14 0 001.95-2.68 3.64 3.64 0 011.4-1.65c.84-.54 1.22-1.54 2.13-1.91a1.86 1.86 0 001.59-.94c.07-.11-1-1.62-1.26-1.21.39-.64 2-.81 2.65-1a5.9 5.9 0 002.59-.9c.52-.53.26-.44-.06-1a2.71 2.71 0 00-.38-.64c-.18-.17-.5-.06-.66-.3s-.14-1.1-.34-1.53c-.81-1.73-.65 0-1.73 0-.78 0-.36-.37-.47-.8a1.57 1.57 0 00-1.24-1.32 1.25 1.25 0 00-1.13.14 1.76 1.76 0 00-.41.53c-.2.36-.38.73-.55 1.1a.81.81 0 00-.09.37 1.57 1.57 0 00.27.59c.45.89-1.33 1-1.6 1.61-.18.41.26 1.16-.32 1.36-.87.31-.5-.72-.54-1-.15-1.34-1.87-1.2-2.3-2.32s1.8-2.58 2.58-3.22a5.91 5.91 0 011.84-1c.58-.19 1.46-.23 1.83-.81.23-.36 0-1-.51-.77a2.48 2.48 0 00-.44.36.57.57 0 01-.51.19c-.35-.09-.2-2.05-.13-2.07-.83.21-1.07.72-1.61 1.31a2.19 2.19 0 01-2.18.66.54.54 0 00-.28 0c-.26.13-.84.67-1 .14a1.1 1.1 0 010-.54.62.62 0 00-.09-.53c-.35-.37-.34 0-.78-.32a29.09 29.09 0 00-4.83 5.38 32 32 0 00-3.54 6c-.35.87.17 1.24-.18 2.11a11 11 0 00-.78 3.4M32.08 49.6c-.21-.74-1.3-1-1.92-1.28-1.25-.61-2.68-1-4-1.47a1.4 1.4 0 00-.35-.1c-.09 0-1.4.91-1.11.15.06-.16.22-.27.31-.41a1 1 0 00-.19-1.11c-.93-1.26-2.42-.84-3.38-1.79-.29-.28-1.28-.77-1.4-1 0-.11 0-.24-.06-.35a.7.7 0 00-.71-.46c-.77 0-1.37.37-2.13 0s-1.41-.4-1.68.42c-.12 0-.13-.15-.13-.28s.07-.3.08-.45a.38.38 0 00-.2-.39 15.57 15.57 0 00-1.4 1.41c-1.24 1.16.62 2.21-.31 3.25a2.43 2.43 0 00-.71 1A7.4 7.4 0 0013.2 49c.27.94 1.16 1.37 1.75 2.08s.78 1.6 1.49 2.1a9.5 9.5 0 001.21.55c1.17.61 1.27 1.71 1.71 2.79a22.4 22.4 0 011.21 3.6 14.83 14.83 0 002.62 4.66 6.68 6.68 0 00.88 1 6.63 6.63 0 001.73 1.32c.47.22 1.33.47 1.6-.11a.71.71 0 00-.49-.23 2.67 2.67 0 01-1.24-.63c-.43-.42-.41-1.08-.83-1.54a1 1 0 01-.32-.48c-.07-.46.5-1-.2-1.23.26-.27.46-.8.86-.87.72-.12.86-.54.21-.95-.9-.58.35-.48.68-.62a3 3 0 001.4-2.33 5.93 5.93 0 01.05-.94c.19-.81 1.27-.89 1.92-1.1a1.3 1.3 0 00.51-.26c.63-.62.52-2 .6-2.77.13-1.18 1.35-1.69 1.56-2.82a1.62 1.62 0 00-.03-.62zM35.68 5.21a12 12 0 01-1-1.55c-.09-.12-1.76-1.41-1.67-1.4-2-.24-3.16 1-4.83 1.85a1 1 0 00-.39.31.33.33 0 00.08.45.55.55 0 00.22.06.91.91 0 01.66.87 1.94 1.94 0 01-.33 1.1 3 3 0 00-.57 1.3c.32.12 1 0 1-.42A2.39 2.39 0 0128 9.06a1.63 1.63 0 00-.65 1.36 1.68 1.68 0 00.2.48l.48.9c.33.6.78 1.28 1.46 1.29a2.5 2.5 0 01.67 0c.32.11.5.51.84.55a.72.72 0 00.6-.4 6.12 6.12 0 00.64-2c.45-1.83 2.15-2.05 3.23-3.39l.08-.1a1.82 1.82 0 00.33-1.6M55 21.43a.57.57 0 01.21.2l.9 1.24a1.41 1.41 0 00.59.57c.61.25 1.3-.34 1.92-.14s.73 1.26.58 2a.86.86 0 01-.26.55.78.78 0 01-.48.12 7 7 0 01-3.37-.73c-.34-.17-.91-.28-1 .1v.29c0 .09-.38.18-.58.11l-2.77-.86c-.33-.1-.71-.26-.78-.6s.2-.7 0-1a.64.64 0 00-.45-.19 7.73 7.73 0 00-3.21.21 6.53 6.53 0 01-2.28.49 2 2 0 00-.59 0 1.27 1.27 0 00-.55.34c-.75.7-.9 1.62-1.45 2.44a7.8 7.8 0 01-1 1 7.23 7.23 0 00-1.39 1.95 2.5 2.5 0 00-.32 1.27c0 .33.15.66.18 1a12.16 12.16 0 01-.41 2.1 3.06 3.06 0 00.8 2.21c1.83 2.2 4.54 3.31 7.26 2.2a1.76 1.76 0 011.64 0 4.45 4.45 0 00.82.51c.26.08.53.08.78.15a.91.91 0 01.65 1c0 1.31-.38 1.81.28 3.09.46.88 1.11 1.76.82 2.8s-1.25 1.74-1.3 3.07a15.93 15.93 0 00.28 2.75 17 17 0 01.17 3.33c-.15 2.37 2.84.71 3.84 0a12.36 12.36 0 002.41-2.54 7.27 7.27 0 00.86-1.34 8.48 8.48 0 01.69-1.46c.46-.63 1.23-1 1.75-1.55.79-.88.62-1.9.58-3-.06-1.63.45-2.34 1.53-3.52a12.26 12.26 0 002.08-3.06c.16-.32 1-3.24.72-3.27s-.66.28-1 .47c-1.1.68-1.81-1.76-2.17-2.44q-1.08-2.15-2.2-4.29a1.6 1.6 0 01-.25-1.27c0 .1 2.37 1.4 2.51 1.64a14.35 14.35 0 011.47 2.12c.27.65-.13 1.75.82 1.73a3.13 3.13 0 002.59-2.61 2.11 2.11 0 00-.47-1.43c-.14-.15-.43.69-.65.68-.65 0-.49-.75-1.1-1.46-.31-.36-.85-1-.77-1.42.3.14.44.41.69.62a12.06 12.06 0 001.34.79c1.31.9 2.39.84 3 2.47.48 1.22.37 3.55 1.32 4.45V35c.34-2.37-.31-5.27-.82-7.58a34.33 34.33 0 00-2.41-7.12A35.57 35.57 0 0055.51 6.39c-.48-.34-1-.7-1.47-1a2.43 2.43 0 00-.73-.3c-.62 0 1.68 1.9 1.74 2.09a.37.37 0 00-.32-.1c-.88-.34-2.86-1.33-3.6.35-1.49-.76-3.74-1.32-4.49-.24-.58.83-.39 2.07-1.1 2.8a2.41 2.41 0 00-.5.51 1.16 1.16 0 00-.11.58 1.75 1.75 0 00.28 1.08.78.78 0 001 .23 1.7 1.7 0 01.3-.23c.33-.17.7.14.94.43l.52.62a.48.48 0 01.15.31.5.5 0 01-.21.34l-3.24 3c-.2.18.32 1 .22.62.19.73-.65.45-.38 1.15a1 1 0 01-.78 1.21c-.57.16-1.85-.54-2 .28-.19 1 .18.51 1 1.2A2.08 2.08 0 0045.5 21c.51-.57.32.38.82-.19a3.4 3.4 0 011.76-1 2.09 2.09 0 011.08 0 2.62 2.62 0 01.91.54 10.4 10.4 0 011.08.91c.57.54.59.83.76.87"/><path d="M63.75 28.77a.77.77 0 00-.29-.46c-.13-.08-.3 0-.5.35s-.42.56-.8 1.08-.83 1.12-1.37 1.82S59.65 33 59 33.82l-2 2.45c-.68.83-1.36 1.63-2 2.4s-1.29 1.47-1.85 2.09c.77-1.94 1.48-3.8 2.14-5.61s1.22-3.42 1.68-4.85.83-2.62 1.11-3.56.41-1.5.44-1.68a1.83 1.83 0 00-.58-1.28 5.82 5.82 0 00-1.41-1.16 3.55 3.55 0 00-1.49-.5.62.62 0 00-.73.66 12.2 12.2 0 01-.35 1.6c-.21.76-.49 1.71-.85 2.85a26.44 26.44 0 01-2.19 4 43.43 43.43 0 01-3 4 26.91 26.91 0 01-3 3.13 4.17 4.17 0 01-2.4 1.25c-.2 0-.22-.31-.05-.94a22 22 0 01.81-2.42q.56-1.47 1.29-3.21l1.41-3.32c.45-1.06.84-2 1.16-2.81a7.85 7.85 0 00.53-1.6 1.8 1.8 0 00-.67-1.2A6.36 6.36 0 0045.63 23a3.22 3.22 0 00-1.46-.5.62.62 0 00-.74.66 9.06 9.06 0 01-.43 1.92q-.41 1.19-1 2.55c-.18.43-.39.88-.58 1.32-.37.55-.77 1.15-1.24 1.83l-1.68 2.46c-.58.84-1.16 1.67-1.76 2.49s-1.16 1.55-1.7 2.19a17.37 17.37 0 01-1.47 1.54 1.85 1.85 0 01-1.08.6c-.31 0-.39-.28-.23-.85s.44-1.36.74-2.21.68-1.8 1-2.77.73-1.93 1.11-2.9.7-1.86 1-2.7.54-1.55.74-2.15a6.91 6.91 0 00.32-1.23 1.43 1.43 0 00-.32-1 4.7 4.7 0 00-.91-.93 6.66 6.66 0 00-1.16-.73 2.49 2.49 0 00-1.09-.31h-.07a.22.22 0 00-.16 0 .44.44 0 00-.38.27A14 14 0 0032 23.84c-.48.56-1 1.2-1.57 1.94s-1.15 1.51-1.74 2.33l-1.74 2.44c-.57.8-1.09 1.55-1.58 2.26l-1.2 1.76c.33-.85.69-1.76 1.06-2.72l1.05-2.75c.32-.86.59-1.63.81-2.3a7 7 0 00.36-1.43 1.73 1.73 0 00-.59-1.26A6.71 6.71 0 0025.41 23a3.22 3.22 0 00-1.47-.5.61.61 0 00-.73.66c-.28.36-.64.82-1.06 1.39s-.89 1.19-1.38 1.87-1 1.41-1.5 2.17l-1.51 2.22c-.49.72-.94 1.4-1.35 2s-.77 1.17-1.05 1.61c.36-1 .73-1.92 1.1-2.88s.72-1.87 1-2.71.56-1.56.77-2.17a7.23 7.23 0 00.35-1.25 1.82 1.82 0 00-.6-1.28A6.7 6.7 0 0016.6 23a3.18 3.18 0 00-1.47-.5.61.61 0 00-.73.66 9.79 9.79 0 01-.51 2c-.28.82-.63 1.72-1 2.68s-.85 2-1.32 3-.9 2-1.31 3-.76 1.82-1 2.61a7 7 0 00-.47 1.87 2.57 2.57 0 00.5 1.8 4.92 4.92 0 001.36 1.22 4.75 4.75 0 001.51.61c.48.11.81.08 1-.07a.55.55 0 00.2-.37v-.48c.38-.7.92-1.59 1.62-2.69s1.45-2.25 2.26-3.46 1.62-2.4 2.42-3.58 1.49-2.18 2.09-3l-.93 2.24c-.31.75-.6 1.46-.87 2.15s-.5 1.31-.68 1.89a6.84 6.84 0 00-.31 1.49 2.6 2.6 0 00.41 1.8 4.32 4.32 0 001.24 1.21 4.14 4.14 0 001.41.62c.46.11.77.09.92 0a.5.5 0 00.18-.32v-.37c.26-.41.66-1 1.22-1.72s1.19-1.56 1.93-2.48l2.38-3c.85-1.06 1.72-2.14 2.63-3.25-.42 1-.84 2-1.28 3s-.84 2-1.22 2.88-.69 1.72-.95 2.47a7.67 7.67 0 00-.42 1.78 2.55 2.55 0 00.44 1.7A4.56 4.56 0 0029 41.61a5.06 5.06 0 001.45.66 2 2 0 001.05.07 4.62 4.62 0 001.95-1 17.49 17.49 0 002.14-2c.72-.77 1.44-1.62 2.15-2.55.24-.32.48-.63.71-1a6.05 6.05 0 00-.45 1.8 3.33 3.33 0 00.35 1.85 4.88 4.88 0 001.06 1.38 5.62 5.62 0 001.33.87 3.09 3.09 0 001.16.3 4.54 4.54 0 002.36-.71 13.08 13.08 0 002.32-1.8 21.76 21.76 0 002.11-2.36c.66-.85 1.24-1.65 1.76-2.39-.77 2.06-1.61 4.18-2.5 6.36s-1.79 4.23-2.72 6.16c-1.21.9-2.36 1.76-3.44 2.55s-2 1.55-2.86 2.25a14.83 14.83 0 00-2 2 2.92 2.92 0 00-.8 1.64 3.82 3.82 0 00.06 1.24 3.52 3.52 0 00.56 1.31 3.3 3.3 0 001.18 1 4.21 4.21 0 002 .4 4.67 4.67 0 003-1.27 17.84 17.84 0 003-3.4 40.49 40.49 0 002.94-4.89c1-1.85 1.87-3.76 2.75-5.75a.48.48 0 01.15-.11.83.83 0 00.16-.12 19.48 19.48 0 002-1.91c.77-.84 1.58-1.75 2.42-2.73s1.68-2 2.53-3 1.62-2 2.32-2.9l1.74-2.26c.46-.62.75-1 .85-1.16a1.6 1.6 0 00.09-.56 2.34 2.34 0 00-.13-.81zm-23 26q-1.34 1.68-2.34 1.68a.45.45 0 01-.25-.11c-.09-.08-.12-.31-.09-.7 0-.59.59-1.33 1.62-2.2s2.32-1.9 3.87-3.06a30.38 30.38 0 01-2.78 4.43z" fill="#231f20"/><path d="M64.41 67.54h-1.36v-.49h3.31v.49H65v3.95h-.58zM70.62 69.54c0-.62-.08-1.36-.07-1.91-.15.52-.34 1.07-.56 1.68l-.79 2.15h-.44L68 69.35c-.21-.63-.39-1.2-.52-1.72 0 .55 0 1.29-.09 2l-.11 1.9h-.55l.31-4.44h.73l.76 2.15a15.08 15.08 0 01.47 1.45c.12-.45.28-.93.47-1.49l.8-2.15H71l.28 4.44h-.56z"/></g></g></g></svg>