<svg xmlns="http://www.w3.org/2000/svg" viewBox="0 0 72.84 72.94"><defs><style>.cls-3{fill:#aa192d}</style></defs><g id="Layer_2" data-name="Layer 2"><g id="color"><g id="tiertracker-color"><circle cx="36" cy="36" r="36" fill="#cbcdce"/><path fill="#d48a94" d="M39.74 8.43h7.66v45.96h-7.66z"/><path class="cls-3" d="M26.98 16.08h7.66v38.3h-7.66z"/><path d="M61.31 45l-7.81-8a12.69 12.69 0 10-10.66 5.85 12.6 12.6 0 007.16-2.2l7.75 7.86c.63.64 1.93.36 2.91-.63s1.28-2.29.65-2.88z" fill="#76777b"/><path d="M43.07 39.46a9.16 9.16 0 119.09-9.15 9.13 9.13 0 01-9.09 9.15zm0-16.78a7.63 7.63 0 107.56 7.63 7.6 7.6 0 00-7.56-7.63z" fill="#54575a"/><path d="M43.07 22.68a7.63 7.63 0 107.56 7.63 7.6 7.6 0 00-7.56-7.63z" fill="#fbfbfb"/><path fill="#79242f" d="M14.21 23.74h7.66v30.64h-7.66z"/><path class="cls-3" d="M43.57 26.76v2.83a4.45 4.45 0 012.45.46 2.07 2.07 0 01.62 1.78 2.23 2.23 0 01-.59 1.81 3.61 3.61 0 01-2.21.49h-.27v.93h-.69v-.93h-1.35q-1.74-.13-1.74-2.52h.9v.15c0 .73.1 1.19.31 1.37a2.87 2.87 0 001.59.27h.29v-3a4.65 4.65 0 01-2.43-.4 2.14 2.14 0 01-.58-1.79 2 2 0 01.61-1.75 4.38 4.38 0 012.4-.44v-.76h.69V26h.35a3.42 3.42 0 012 .42 2 2 0 01.52 1.6v.26h-.88v-.2a1.41 1.41 0 00-.29-1.08 2.55 2.55 0 00-1.35-.22zm-.69 0h-.28a3 3 0 00-1.5.25 1.27 1.27 0 00-.35 1.06c0 .65.12 1.06.36 1.25a2.73 2.73 0 001.55.29h.22zm.69 6.65h.33c1.24.1 1.86-.44 1.86-1.61 0-.6-.12-1-.37-1.17a3.07 3.07 0 00-1.59-.27h-.23z"/><path d="M65.82 68.89h-1.38v-.5h3.37v.5h-1.4v4h-.59zM72.15 70.94c0-.63-.08-1.39-.07-2-.16.53-.34 1.1-.57 1.73l-.81 2.2h-.44l-.74-2.16c-.21-.64-.4-1.23-.52-1.77 0 .57 0 1.33-.09 2l-.12 2h-.56l.32-4.55h.75l.77 2.2c.19.56.35 1.06.46 1.53.12-.45.28-1 .48-1.53l.81-2.2h.75l.29 4.55h-.58z"/></g></g></g></svg>