<svg version="1.1" id="Layer_1" xmlns="http://www.w3.org/2000/svg" x="0" y="0" viewBox="0 0 50.8 50.8" xml:space="preserve"><style>.st0{fill:#aa192d}</style><g id="Layer_2_1_"><g id="small"><g id="tiertracker-small"><path class="st0" d="M25.4 0C11.4 0 0 11.4 0 25.4s11.4 25.4 25.4 25.4 25.4-11.4 25.4-25.4S39.4 0 25.4 0zm0 49.7C11.9 49.7 1 38.8 1 25.4 1 11.9 11.9 1 25.4 1c13.5 0 24.4 10.9 24.4 24.4-.1 13.4-11 24.3-24.4 24.3z"/><path class="st0" d="M43.7 32.2l-5.2-5.3c2.8-4.4 1.6-10.2-2.8-13-.7-.5-1.5-.8-2.4-1.1V6.7h-4.5v5.9c-1.7.3-3.3 1.2-4.5 2.4v-3.8h-4.5v26.9h4.5v-9.5c1.2 1.2 2.8 2.1 4.5 2.4v7.1h4.5v-7.3c.9-.3 1.8-.7 2.6-1.2l5.2 5.3c.7.7 1.9.7 2.6 0 .7-.8.7-2 0-2.7zM36.6 24c-.6 1.6-1.8 3-3.3 3.6-.8.3-1.7.5-2.5.5-.6 0-1.2-.1-1.8-.3-3.2-1.1-4.9-4.5-3.8-7.7s4.5-4.9 7.7-3.8c3.1 1.1 4.8 4.5 3.7 7.7zM10.8 16.9h4.5v21.2h-4.5z"/><path class="st0" d="M33.3 21.5c-.6-.2-1.1-.3-1.7-.2v-1.9c1 0 1.2.1 1.2.8v.1H34v-.2c.1-.6-.1-1.1-.6-1.5-.4-.3-.7-.3-1.9-.4v-.7h-.8v.7c-2 0-2.6.5-2.6 2.1 0 1 .2 1.5.8 1.7.6.2 1.1.3 1.7.2v2c-1.2 0-1.4-.1-1.4-1.2H28v.3c-.1.7.2 1.4.9 1.8.6.2 1.2.3 1.8.2v.8h.8v-.8c.6 0 1.1 0 1.7-.2.7-.3 1-.9 1-1.9s-.2-1.4-.9-1.7zm-2.5-.2h-.3c-.2 0-.5 0-.7-.1-.2-.1-.3-.4-.3-.8s.1-.6.3-.8.3-.1 1-.1v1.8zm.8 3.1v-2c1.2 0 1.4.2 1.4 1s-.3 1-1.4 1z"/></g></g></g></svg>