<svg xmlns="http://www.w3.org/2000/svg" viewBox="0 0 252.17 144"><defs><linearGradient id="linear-gradient" x1="-7.5" y1="-1571.3" x2="244.68" y2="-1571.3" gradientTransform="translate(7.5 1643.3)" gradientUnits="userSpaceOnUse"><stop offset="0" stop-color="#ab1e2e"/><stop offset="1" stop-color="#79242f"/></linearGradient><style>.cls-2{fill:#fff}</style></defs><g id="Layer_2" data-name="Layer 2"><g id="front"><path transform="rotate(180 126.085 72)" fill="url(#linear-gradient)" d="M0 0h252.17v144H0z"/><path class="cls-2" d="M50.27 47H45.1l-4.58-8.78c-.29-.6-.6-1.25-1.56-3.46l-.53-1.13h-.09v1c.07 1.54.07 1.66.07 3.15V47h-3V31h5.13l4.18 8.11c.6 1.2.79 1.61 1.87 3.92l.63 1.32h.09v-1c-.07-1.48-.07-1.6-.07-3.09V31h3.05zM52.81 39a3.48 3.48 0 01.48-2.21c.6-.86 1.77-1.17 4.27-1.17 3.94 0 5.09.91 5.09 4V47h-2.71l.12-1.53H60c-.6 1.29-1.41 1.68-3.55 1.68-3 0-4.08-.92-4.08-3.49s1.13-3.5 4.13-3.5c2.18 0 3 .29 3.41 1.3v-1.84c0-1.77-.46-2.21-2.28-2.21s-2.07.27-2.12 1.61zm2.3 4.49c0 1.39.43 1.7 2.35 1.7s2.5-.38 2.5-1.63-.55-1.56-2.5-1.56-2.35.26-2.35 1.51zM68 35.78l-.08 1.73c.58-1.32 1.59-1.87 3.41-1.87 2 0 3.17.72 3.38 2.09h.05c.55-1.47 1.63-2.09 3.55-2.09 1.61 0 2.79.48 3.34 1.37a4.84 4.84 0 01.51 2.56V47h-2.69v-6.85a4.25 4.25 0 00-.24-1.61c-.21-.45-.77-.69-1.65-.69a2.42 2.42 0 00-2.28 1 3.75 3.75 0 00-.24 1.63V47h-2.72v-6.95a4.11 4.11 0 00-.19-1.53c-.21-.43-.81-.67-1.68-.67-1.77 0-2.49.74-2.49 2.64V47h-2.72V35.78zM94.71 43.42c0 2.85-1.13 3.72-4.82 3.72-4.49 0-5.5-1.06-5.5-5.81 0-2.45.27-3.65 1-4.47s2-1.22 4.29-1.22c2.93 0 4.18.65 4.75 2.42a12 12 0 01.29 3.82h-7.59v.43c0 2.28.48 2.81 2.54 2.81s2.33-.27 2.33-1.7zm-2.66-3.65c0-1.78-.41-2.12-2.43-2.12-1.46 0-2 .2-2.28.89a4.79 4.79 0 00-.19 1.66h4.9zM39.57 68.59h-1.83V58.24h-3.68v-1.66h9.24v1.68h-3.73zM46.23 58.15h-1.65v-1.57h1.65zm0 10.44h-1.65v-8.41h1.65zM53.29 61.48h-3.22v4.64c0 1 .19 1.26 1 1.26s1.12-.28 1.12-1.51a3 3 0 000-.39h1.44v.57c0 2-.68 2.65-2.65 2.65-1.36 0-2.07-.31-2.39-1.06a3 3 0 01-.18-1.35v-4.81h-1.14v-1.3h1.14v-1.94h1.66v1.94h3.22zM56.37 68.59h-1.66v-12h1.66zM65.73 66v.33c0 1.76-1 2.41-3.62 2.41-3.23 0-4-.81-4-4.36s.78-4.27 3.91-4.27c2.11 0 3 .45 3.42 1.71a8.69 8.69 0 01.24 2.9h-5.82v.26c0 2 .37 2.46 2.16 2.46s2-.2 2-1.44zm-1.66-2.39a3.85 3.85 0 00-.16-1.52c-.2-.54-.67-.72-1.87-.72-1.84 0-2.15.33-2.16 2.24zM38.46 93.1a3.85 3.85 0 011.19.16 2.14 2.14 0 01.83.45 1.74 1.74 0 01.49.7 2.38 2.38 0 01.16.91 2.32 2.32 0 01-.17.92 2.11 2.11 0 01-.51.71 2.45 2.45 0 01-.84.47 3.62 3.62 0 01-1.15.17h-1.15v2.68h-1V93.1zm0 3.72a2.4 2.4 0 00.74-.11 1.61 1.61 0 00.53-.31 1.18 1.18 0 00.33-.47 1.74 1.74 0 00.11-.61 1.38 1.38 0 00-.42-1.07 1.86 1.86 0 00-1.29-.38h-1.15v2.95zM43 95.88a2.66 2.66 0 01.72-.55 1.91 1.91 0 01.91-.21 1.83 1.83 0 01.73.14 1.38 1.38 0 01.53.39 1.69 1.69 0 01.32.61 2.37 2.37 0 01.11.78v3.23h-.89V97a1.39 1.39 0 00-.26-.89 1 1 0 00-.8-.32 1.48 1.48 0 00-.74.19 2.36 2.36 0 00-.63.52v3.73h-.9V92.9h.9zM49.83 95.12a2.48 2.48 0 011 .19 2 2 0 01.76.52 2.31 2.31 0 01.48.82 3.52 3.52 0 010 2.16 2.31 2.31 0 01-.48.82 2 2 0 01-.76.52 2.66 2.66 0 01-1 .19 2.71 2.71 0 01-1-.19 2 2 0 01-.76-.52 2.31 2.31 0 01-.48-.82 3.52 3.52 0 010-2.16 2.31 2.31 0 01.48-.82 2 2 0 01.76-.52 2.53 2.53 0 011-.19zm0 4.52a1.32 1.32 0 001.12-.5 2.85 2.85 0 000-2.81 1.3 1.3 0 00-1.12-.51 1.5 1.5 0 00-.66.13 1.17 1.17 0 00-.47.38 1.52 1.52 0 00-.28.6 2.9 2.9 0 00-.1.81 2.31 2.31 0 00.38 1.4 1.31 1.31 0 001.13.5zM54.2 95.94a2.79 2.79 0 01.35-.34 3.42 3.42 0 01.4-.26 1.91 1.91 0 01.44-.16 2 2 0 01.5-.06 1.83 1.83 0 01.73.14 1.38 1.38 0 01.53.39 1.69 1.69 0 01.32.61 2.37 2.37 0 01.11.78v3.23h-.89V97a1.39 1.39 0 00-.26-.89 1 1 0 00-.8-.32 1.48 1.48 0 00-.74.19 2.36 2.36 0 00-.63.52v3.73h-.9V95.2h.54a.21.21 0 01.23.19zM63.05 99.56a1.83 1.83 0 01-.39.34 2.82 2.82 0 01-.49.25 3.53 3.53 0 01-1.1.19 2.58 2.58 0 01-1-.18 2.1 2.1 0 01-.76-.52 2.33 2.33 0 01-.51-.85 3.45 3.45 0 01-.18-1.16 2.94 2.94 0 01.17-1 2.27 2.27 0 01.46-.8 2.37 2.37 0 01.75-.53 2.4 2.4 0 011-.19 2.32 2.32 0 01.84.15 2.05 2.05 0 01.67.44 2 2 0 01.44.71 2.7 2.7 0 01.16 1 .61.61 0 010 .28.21.21 0 01-.17.07h-3.41a2.87 2.87 0 00.14.83 1.52 1.52 0 00.32.59 1.36 1.36 0 00.5.36 1.71 1.71 0 00.65.12 1.93 1.93 0 00.58-.08 2.81 2.81 0 00.42-.17 3.22 3.22 0 00.29-.17.4.4 0 01.2-.07.18.18 0 01.17.08zm-.72-2.38a2.07 2.07 0 00-.08-.57 1.28 1.28 0 00-.26-.44 1.09 1.09 0 00-.41-.29 1.54 1.54 0 00-1.55.27 1.74 1.74 0 00-.47 1zM72.8 93.1v7.17h-.49a.53.53 0 01-.19 0 .64.64 0 01-.15-.14l-4.15-5.4a2.11 2.11 0 010 .25v5.33H67V93.1h.69a.18.18 0 01.07.05l.08.09L72 98.66v-.25a1.85 1.85 0 010-.23V93.1zM78.49 95.2v5.07H78a.24.24 0 01-.24-.19l-.07-.54a2.75 2.75 0 01-.74.58 1.9 1.9 0 01-.94.23 1.86 1.86 0 01-.73-.14 1.38 1.38 0 01-.53-.39 1.58 1.58 0 01-.32-.6 2.48 2.48 0 01-.11-.79V95.2h.89v3.23a1.39 1.39 0 00.26.89 1 1 0 00.8.32 1.57 1.57 0 00.74-.19 2.36 2.36 0 00.63-.52V95.2zM79.9 100.27V95.2h.54a.21.21 0 01.23.19l.07.52a2.81 2.81 0 01.63-.57 1.45 1.45 0 01.81-.22 1.22 1.22 0 01.83.29 1.55 1.55 0 01.45.77 1.62 1.62 0 01.29-.48 1.7 1.7 0 01.38-.33 1.66 1.66 0 01.46-.19 2.05 2.05 0 01.49-.06 1.81 1.81 0 01.72.13 1.5 1.5 0 01.53.37 1.73 1.73 0 01.33.6 2.58 2.58 0 01.11.82v3.23h-.89V97a1.36 1.36 0 00-.26-.9.91.91 0 00-.75-.31 1.16 1.16 0 00-.42.08 1 1 0 00-.35.23.93.93 0 00-.23.37 1.47 1.47 0 00-.09.53v3.23h-.9V97a1.43 1.43 0 00-.24-.91.87.87 0 00-.72-.3 1.11 1.11 0 00-.61.18 2.28 2.28 0 00-.51.48v3.78zM89 95.93a2.71 2.71 0 01.73-.59 1.82 1.82 0 01.92-.22 1.92 1.92 0 01.81.17 1.67 1.67 0 01.6.49 2.34 2.34 0 01.39.79 4 4 0 01.13 1 3.94 3.94 0 01-.15 1.12 2.67 2.67 0 01-.43.86 2 2 0 01-.69.56 2.06 2.06 0 01-.91.2 1.77 1.77 0 01-.84-.19 1.88 1.88 0 01-.6-.53v.46a.21.21 0 01-.23.19h-.57V92.9H89zm0 3.12a1.51 1.51 0 00.54.46 1.53 1.53 0 00.64.14 1.28 1.28 0 001.1-.51 2.51 2.51 0 00.38-1.5 2.21 2.21 0 00-.34-1.37 1.13 1.13 0 00-1-.44 1.46 1.46 0 00-.76.2 2.28 2.28 0 00-.6.57zM97.84 99.56a1.67 1.67 0 01-.4.34 2.51 2.51 0 01-.49.25 3.05 3.05 0 01-.54.14 3.53 3.53 0 01-.56 0 2.49 2.49 0 01-1-.18 2.14 2.14 0 01-.77-.52 2.45 2.45 0 01-.5-.85 3.45 3.45 0 01-.18-1.16 2.94 2.94 0 01.16-1 2.45 2.45 0 01.47-.8 2.22 2.22 0 01.74-.53 2.46 2.46 0 011-.19 2.34 2.34 0 01.85.15 2.16 2.16 0 01.67.44 2.31 2.31 0 01.44.71 2.7 2.7 0 01.16 1 .58.58 0 010 .28.2.2 0 01-.17.07h-3.4a2.89 2.89 0 00.13.83 1.68 1.68 0 00.33.59 1.36 1.36 0 00.5.36 1.67 1.67 0 00.65.12 2 2 0 00.58-.08 2.31 2.31 0 00.41-.17l.3-.17a.35.35 0 01.2-.07.19.19 0 01.17.08zm-.72-2.38a1.75 1.75 0 00-.09-.57 1.26 1.26 0 00-.25-.44 1.18 1.18 0 00-.41-.29 1.35 1.35 0 00-.55-.1 1.37 1.37 0 00-1 .37 1.73 1.73 0 00-.46 1zM99.85 96.22a2.37 2.37 0 01.59-.82 1.33 1.33 0 01.86-.29 1.06 1.06 0 01.31 0 .85.85 0 01.26.11l-.07.66a.15.15 0 01-.15.13h-.2a1.42 1.42 0 00-.31 0 1.09 1.09 0 00-.42.07.9.9 0 00-.34.2 1.28 1.28 0 00-.26.34 3.45 3.45 0 00-.22.47v3.2H99V95.2h.51a.27.27 0 01.2.06.28.28 0 01.07.19zM40.77 111.48v.79h-4.42v-7.17h4.41v.79h-3.44v2.38h2.79v.73h-2.79v2.45zM41.77 112.27v-5.07h.54a.21.21 0 01.23.19l.07.52a2.43 2.43 0 01.63-.57 1.45 1.45 0 01.81-.22 1.22 1.22 0 01.83.29 1.55 1.55 0 01.45.77 1.62 1.62 0 01.29-.48 1.7 1.7 0 01.38-.33 1.66 1.66 0 01.46-.19 2.05 2.05 0 01.49-.06 1.81 1.81 0 01.72.13 1.5 1.5 0 01.53.37 1.73 1.73 0 01.33.6 2.58 2.58 0 01.11.82v3.23h-.89V109a1.36 1.36 0 00-.26-.9.93.93 0 00-.75-.31 1.16 1.16 0 00-.42.08 1 1 0 00-.35.23.93.93 0 00-.23.37 1.47 1.47 0 00-.09.53v3.23h-.9V109a1.43 1.43 0 00-.24-.91.87.87 0 00-.72-.3 1.11 1.11 0 00-.61.18 2.28 2.28 0 00-.51.48v3.78zM49.87 107.92a2.87 2.87 0 01.9-.61 2.92 2.92 0 011.08-.2 2 2 0 01.75.14 1.49 1.49 0 01.56.39 1.72 1.72 0 01.34.61 2.37 2.37 0 01.11.78v3.24h-.39a.34.34 0 01-.2 0c-.05 0-.08-.08-.11-.16l-.1-.48a5 5 0 01-.39.32 1.85 1.85 0 01-.4.24 1.7 1.7 0 01-.45.15 2.15 2.15 0 01-.53.06 1.67 1.67 0 01-.55-.09A1.08 1.08 0 0150 112a1.21 1.21 0 01-.31-.42 1.57 1.57 0 01-.11-.6 1.13 1.13 0 01.16-.58 1.45 1.45 0 01.54-.49 3.53 3.53 0 011-.35 7.3 7.3 0 011.46-.16v-.4a1.36 1.36 0 00-.25-.9.93.93 0 00-.75-.3 1.73 1.73 0 00-.55.08 1.92 1.92 0 00-.38.19l-.28.18a.4.4 0 01-.24.09.25.25 0 01-.15-.05.43.43 0 01-.11-.12zm2.87 2.08a7.07 7.07 0 00-1 .09 2.62 2.62 0 00-.71.21 1 1 0 00-.39.29.58.58 0 00-.13.38 1 1 0 00.07.35.58.58 0 00.18.23.72.72 0 00.26.14 1.15 1.15 0 00.33 0 1.45 1.45 0 00.43 0 1.63 1.63 0 00.37-.13 3.15 3.15 0 00.33-.22 3.84 3.84 0 00.3-.28zM56.1 105.61a.6.6 0 01-.05.24.78.78 0 01-.14.2.6.6 0 01-.21.14.7.7 0 01-.25 0 .69.69 0 01-.24 0 .66.66 0 01-.2-.14.58.58 0 01-.13-.2.47.47 0 01-.05-.24.53.53 0 01.05-.25.86.86 0 01.13-.2.66.66 0 01.2-.14.69.69 0 01.24 0 .7.7 0 01.25 0 .6.6 0 01.21.14 1.43 1.43 0 01.14.2.7.7 0 01.05.25zm-.19 1.59v5.07H55v-5.07zM58.29 104.9v7.37h-.89v-7.37z"/></g></g></svg>