<svg xmlns="http://www.w3.org/2000/svg" viewBox="0 0 50.8 50.8"><defs><style>.cls-1{fill:#fff}</style></defs><g id="Layer_2" data-name="Layer 2"><g id="small"><g id="database-small"><path class="cls-1" d="M5.02 18.35h6.76v1.06H5.02zM33.61 29.64a11.13 11.13 0 10-9.33 5.11 11 11 0 006.27-2l6.27 6.32a2.18 2.18 0 003.08 0 2.36 2.36 0 000-3.07zm-9.12 1.45a7.36 7.36 0 117.3-7.42v.07a7.32 7.32 0 01-7.3 7.35zM3.68 25.4h7.68v1.06H3.68zM7.52 31.74h6.47v1.06H7.52zM14.63 37.45h5.53v1.06h-5.53zM38.61 23.14h6.7v1.06h-6.7zM38.88 28.3h3.35v1.06h-3.35zM38.61 17.82h4.93v1.06h-4.93zM19.14 7.93h10.63v1.06H19.14zM8.41 12.24h7.08v.83H8.41zM32.99 11.92h4.65v1.06h-4.65z"/><path class="cls-1" d="M26.27 21.5l-1.82 1.81-1.82-1.82-.89.89 1.82 1.82-1.81 1.81.89.89 1.81-1.81 1.81 1.81.89-.89-1.81-1.81 1.82-1.81-.89-.89z"/><path class="cls-1" d="M25.4 0a25.4 25.4 0 1025.4 25.4A25.4 25.4 0 0025.4 0zm0 49.72A24.36 24.36 0 1149.76 25.4 24.36 24.36 0 0125.4 49.72z"/></g></g></g></svg>