<svg version="1.1" id="Layer_1" xmlns="http://www.w3.org/2000/svg" x="0" y="0" viewBox="0 0 73.2 73.2" xml:space="preserve"><style>.st2{opacity:.5}</style><g id="connxsmart-one"><ellipse cx="36.2" cy="36" rx="36.2" ry="36" opacity=".3"/><path d="M56 37.7c-1.9-5.5-7.7-8.5-13.3-6.7l-7 2.4-7 2.5c-3 .4-5.8-1.7-6.2-4.6-.3-2.2.8-4.4 2.7-5.5l20.4-7.3-1.7-5.1-20.3 7.5c-5.4 1.9-8.3 7.9-6.5 13.3 1.9 5.5 7.8 8.4 13.3 6.7l7-2.4 7-2.5c3-.4 5.8 1.6 6.2 4.6.3 2.2-.8 4.5-2.7 5.6l-20.3 7.3 1.8 5.1 20.3-7.5c5.3-2 8.2-7.9 6.3-13.4z" opacity=".33"/><circle cx="62.5" cy="35.9" r="3.1"/><circle cx="10.9" cy="37" r="3.1"/><path class="st2" d="M27.5 53.4l1.8 5.2 4.6-1.7-1.8-5.1zM45.6 18.5l-1.8-5.2-4.8 1.8 1.9 5z"/><path d="M69.5 65.9c2 0 3.6 1.6 3.6 3.6 0 1-.4 1.9-1.1 2.6-.7.7-1.6 1.1-2.6 1.1-2 0-3.6-1.6-3.7-3.6 0-1 .4-1.9 1.1-2.5.8-.8 1.7-1.2 2.7-1.2zm0 .4c-.9 0-1.7.3-2.3.9-1.3 1.3-1.3 3.3 0 4.6 1.2 1.2 3.2 1.3 4.4.1l.1-.1c1.2-1.3 1.2-3.3 0-4.6-.5-.6-1.3-1-2.2-.9zm-1.6 5.2v-4.1h2c.8 0 1.2.4 1.2 1.2 0 .6-.2.9-.6 1.1.3.1.5.4.5.8v1h-.5v-.9c0-.4-.2-.7-.6-.7h-1.5v1.6h-.5zm.5-2.1h1.3c.6 0 .9-.2.9-.7 0-.2 0-.5-.1-.7-.2-.1-.4-.2-.6-.2h-1.5v1.6z"/></g></svg>