<svg xmlns="http://www.w3.org/2000/svg" viewBox="0 0 73.2 73.2"><circle cx="36.2" cy="36.2" r="36.2" opacity=".3"/><path d="M36.2 9.1c-14.7.2-26.5 12.3-26.4 27s12.2 26.6 27 26.4c14.6-.2 26.4-12.1 26.4-26.7-.1-14.8-12.1-26.7-27-26.7z" opacity=".33"/><path d="M38.5 22.8v9.3h1.4c4.7.3 7.9 1.1 9.5 2.4 1.7 1.4 2.5 3.9 2.5 7.5 0 3.9-.9 6.7-2.7 8.3s-4.9 2.4-9.4 2.4h-1.3v4.2h-4.3v-4.2H33c-4.5 0-7.6-.8-9.4-2.3s-2.7-4.1-2.7-7.9v-1.3h6.3v.8c0 2.3.4 3.8 1.1 4.4s2.4 1 4.9 1h.9V37.3c-5 0-8.4-.7-10.2-2.1s-2.7-4.1-2.7-8c0-3.8.9-6.4 2.8-7.8s5.2-2.1 10.2-2.1v-3.7h4.3v3.6c4.8 0 8 .7 9.7 2s2.6 3.8 2.6 7.5v.9h-6.1v-.7c0-2.7-1.7-4.1-5.2-4.1h-1zm-4.3 0h-.9c-3.7 0-5.6 1.5-5.6 4.4 0 3.1 1.9 4.6 5.6 4.6h.9v-9zm4.3 24.6h.9c4.1 0 6.1-1.7 6.1-5.2 0-1.9-.5-3.1-1.4-3.7s-2.8-.9-5.7-.9l.1 9.8z"/><path d="M72.4 35.8c0-1.4-.1-2.7-.2-4.1h-7.7C62 16.2 47.4 5.5 31.9 7.9c-13.8 2.1-24 14-24.2 27.9.2 15.8 13.1 28.4 28.9 28.2 14.3-.2 26.3-11 28-25.2h7.7c0-.9.1-2 .1-3zM36.2 62.6c-14.8-.2-26.6-12.2-26.4-27C10 20.8 22.1 9 36.8 9.1c14.6.2 26.4 12.1 26.4 26.7-.1 14.9-12.1 26.8-27 26.8zM66.1 69.1h-1.4v-.5h3.4v.5h-1.4v4h-.6v-4zM72.5 71.2c0-.6-.1-1.4-.1-2-.2.5-.3 1.1-.6 1.7l-.8 2.2h-.4l-.8-2.1c-.2-.6-.4-1.2-.5-1.8 0 .6 0 1.3-.1 2l-.1 2h-.6l.3-4.6h.8l.8 2.2c.2.6.3 1.1.5 1.5.1-.5.3-1 .5-1.5l.8-2.2h.8l.3 4.6h-.6l-.2-2z"/><path d="M59.9 20.1l6.6-3.9c-2.7-4-6.1-7.5-10.1-10.1l-4.8 6c3.3 2.1 6.1 4.8 8.3 8z" opacity=".5"/></svg>