<svg xmlns="http://www.w3.org/2000/svg" viewBox="0 0 73.18 72.59"><defs><style>.cls-3{fill:#a7a7a9}</style></defs><g id="Layer_2" data-name="Layer 2"><g id="color"><g id="eir-color"><circle cx="36" cy="36" r="36" fill="#cbcdce"/><path d="M42 17.26a11.8 11.8 0 00-6.79 7.38 12 12 0 00-8.31-6.54c-6.69-1.25-9.75-1.57-9.75-1.57s9.32 17.67 17.78 9.8C45.18 34 51.32 13.89 51.32 13.89s-2.94.89-9.32 3.37z" fill="#d48a94"/><path class="cls-3" d="M17.62 47.76L7.4 48.78 5.36 38.04l2.04-6.4 10.22.81v15.31z"/><path d="M14.55 44a2.69 2.69 0 01-1.26-.38A8.16 8.16 0 0014.35 42a.51.51 0 00-.29-.66.5.5 0 00-.66.27 7.08 7.08 0 01-1 1.47 9.74 9.74 0 01-1.56-1.58.51.51 0 00-.82.61 10.5 10.5 0 001.71 1.74c-.28.31-.59.64-1 1a.5.5 0 000 .72.49.49 0 00.37.16.49.49 0 00.35-.14c.44-.41.8-.79 1.12-1.14a3.9 3.9 0 001.93.6.51.51 0 100-1z" fill="#54575a"/><path d="M34.35 34.36s.86-4.61-.6-8a18.84 18.84 0 00-9.88-5.74s5.68-.42 11.17 5.45c0 0 2-4.09 10-6.94 0 0-9.26 5-9.39 8.92a21.21 21.21 0 00.5 6.14z" fill="#79242f"/><path d="M66.17 68.54h-1.39V68h3.37v.5h-1.39v4h-.59zM72.5 70.59c0-.63-.08-1.39-.07-2-.16.53-.35 1.1-.58 1.73l-.8 2.2h-.45l-.73-2.16c-.22-.64-.4-1.23-.53-1.77 0 .57 0 1.33-.09 2l-.12 2h-.56l.29-4.59h.75l.77 2.2c.19.56.35 1.06.46 1.53.12-.46.28-1 .48-1.53l.81-2.2h.75l.28 4.55h-.57z"/><path class="cls-3" d="M37.59 47.18c4.1 1.5 7.93 3.18 12.6 3.18 3.24 0 5.68-1.62 7.71-2.47a2.84 2.84 0 00-.43-2.73c-.53-.53-5.09 1-9.64 1.67a67.27 67.27 0 01-10.24.35z"/><path d="M47.83 46.83q1.16-.16 2.28-.39c-3.57-16.07-16.87-12.64-23.32-9.9l2.84.18c.22 0 10.45 1.23 13.41 2.75s2.75 1.81 2.79 2.62-1 1.53-1.52 1.79a2 2 0 01-.59.15l-11.48-.85a.43.43 0 00-.41.65c.44.72 1.55 1.87 4.34 2.84.48.16 1 .33 1.42.51a67.09 67.09 0 0010.24-.35z" fill="#76777b"/><path d="M61.24 47.71c-2.73-1.51-5.85 2.65-11.05 2.65s-9.36-2.08-14-3.69c-2.79-1-3.9-2.12-4.34-2.84a.43.43 0 01.41-.65l11.47.82a2 2 0 00.59-.15c.48-.26 1.56-1 1.52-1.79S46 41 43.05 39.47s-13.19-2.73-13.41-2.75l-12-.77v10.29c4.57 1.11 5.59 4.56 11 6.72 6 2.42 14.31 3.64 18.28 3.12a21.69 21.69 0 0011.49-4.71c3.98-3.14 4.18-2.92 2.83-3.66z" fill="#fff"/></g></g></g></svg>