<svg xmlns="http://www.w3.org/2000/svg" viewBox="0 0 50.8 50.8"><defs><style>.cls-1{fill:#fff}</style></defs><g id="Layer_2" data-name="Layer 2"><g id="small"><g id="eir-small"><path class="cls-1" d="M25.4 0a25.4 25.4 0 1025.4 25.4A25.4 25.4 0 0025.4 0zm0 49.72A24.36 24.36 0 1149.76 25.4 24.36 24.36 0 0125.4 49.72z"/><path class="cls-1" d="M43.06 33.09a2.57 2.57 0 00-1.92-.18 2.42 2.42 0 00-.53-1.54c-.38-.38-1.07-.24-3.21.25-.71.16-1.52.35-2.37.51-1.66-6.56-5.76-8.13-9.68-7.94a23.78 23.78 0 01-.18-4.3 2.34 2.34 0 01.18-.75c6.67 4 10.65-9 10.65-9s-2 .61-6.43 2.33a8.18 8.18 0 00-4.69 5.1A8.24 8.24 0 0019.11 13c-4.63-.87-6.74-1.09-6.74-1.09s6 11.26 11.6 7.32a15.91 15.91 0 01.4 5.05 18.75 18.75 0 00-4.25 1.06l-7.43-.42V23l-7-.57-1.47 4.38 1.42 7.42 7.05-.71v-.14a12.66 12.66 0 013.08 1.74 21.3 21.3 0 004.33 2.46 34.47 34.47 0 0011.4 2.27 12.56 12.56 0 001.5-.08 15.59 15.59 0 008.14-3.32l1.21-.93c1.19-.91 1.51-1.22 1.48-1.62s-.36-.58-.77-.81zm-9.45.29c1.45-.2 2.86-.53 4-.79a17.06 17.06 0 012.39-.44 1.59 1.59 0 01.15 1.13l-.81.38a9.45 9.45 0 01-4.12 1.2 20.72 20.72 0 01-6-1.21 41.54 41.54 0 004.39-.27zm8.17 1.26l-1.23 1a14.52 14.52 0 01-7.7 3.15c-2.58.34-8.17-.44-12.38-2.13a20.64 20.64 0 01-4.14-2.35 13.36 13.36 0 00-3.64-2v-6.39l8.24.47c.09 0 7.09.85 9.09 1.85 1.65.84 1.65 1 1.65 1.26v.16c0 .19-.35.53-.78.76h-.14l-7.94-.58a.8.8 0 00-.74.39.76.76 0 000 .82 5.86 5.86 0 003.27 2.17l.91.33h.08l1 .37a21.55 21.55 0 007.9 1.79 10.3 10.3 0 004.56-1.3c1.33-.64 2.12-1 2.89-.56-.2.26-.54.51-.9.79z"/></g></g></g></svg>