<svg version="1.1" id="Layer_1" xmlns="http://www.w3.org/2000/svg" x="0" y="0" viewBox="0 0 50.8 50.8" xml:space="preserve"><style>.st0{fill:#aa192d}</style><g id="Layer_2_1_"><g id="small"><g id="eir-small"><path class="st0" d="M25.4 0C11.4 0 0 11.4 0 25.4s11.4 25.4 25.4 25.4 25.4-11.4 25.4-25.4S39.4 0 25.4 0zm0 49.7C11.9 49.7 1 38.8 1 25.4 1 11.9 11.9 1 25.4 1c13.5 0 24.4 10.9 24.4 24.4-.1 13.4-11 24.3-24.4 24.3z"/><path class="st0" d="M43.1 33.1c-.6-.3-1.3-.4-1.9-.2 0-.6-.2-1.1-.5-1.5-.4-.4-1.1-.2-3.2.2-.7.2-1.5.4-2.4.5-1.7-6.6-5.8-8.1-9.7-7.9-.2-1.4-.3-2.9-.2-4.3 0-.3.1-.5.2-.8 6.7 4 10.7-9 10.7-9s-2 .6-6.4 2.3c-2.2.9-4 2.8-4.7 5.1-1.1-2.3-3.2-4-5.8-4.6-4.6-.9-6.7-1.1-6.7-1.1s6 11.3 11.6 7.3c.4 1.7.5 3.4.4 5-1.5.2-2.9.5-4.2 1.1l-7.4-.4V23l-7-.6-1.5 4.4 1.4 7.4 7.1-.7v-.1c1.1.4 2.1 1 3.1 1.7 1.3 1 2.8 1.8 4.3 2.5 3.6 1.4 7.5 2.2 11.4 2.3.5 0 1 0 1.5-.1 3-.3 5.8-1.5 8.1-3.3l1.2-.9c1.2-.9 1.5-1.2 1.5-1.6s-.5-.7-.9-.9zm-9.5.3c1.5-.2 2.9-.5 4-.8.8-.2 1.6-.4 2.4-.4.2.3.2.7.2 1.1l-.8.4c-1.3.7-2.7 1.1-4.1 1.2-2-.1-4.1-.5-6-1.2 1.4-.1 2.9-.2 4.3-.3zm8.2 1.2l-1.2 1c-2.2 1.8-4.9 2.9-7.7 3.2-2.6.3-8.2-.4-12.4-2.1-1.5-.6-2.9-1.4-4.1-2.3-1.1-.9-2.3-1.5-3.6-2V26l8.2.5c.1 0 7.1.9 9.1 1.9 1.6.8 1.6 1 1.6 1.3v.2c0 .2-.4.5-.8.8h-.1l-7.9-.6c-.3 0-.6.1-.7.4-.2.2-.2.6 0 .8.8 1.1 2 1.8 3.3 2.2l.9.3h.1l1 .4c2.5 1.1 5.2 1.7 7.9 1.8 1.6-.1 3.2-.5 4.6-1.3 1.3-.6 2.1-1 2.9-.6-.4 0-.8.3-1.1.5z"/></g></g></g></svg>