<svg version="1.1" id="Layer_1" xmlns="http://www.w3.org/2000/svg" x="0" y="0" viewBox="0 0 50.8 50.8" xml:space="preserve"><style>.st0{fill:#aa192d}</style><g id="Layer_2_1_"><g id="small"><g id="scorecard-small"><path class="st0" d="M38.1 14.8h-3.6V13h-4.1C29.3 10 26 8.6 23 9.7c-1.5.6-2.7 1.8-3.3 3.3h-4.1v1.8h-3.5c-3.1 0-5.6 2.5-5.6 5.6v11.3c0 3.1 2.5 5.6 5.6 5.6h26c3.1 0 5.6-2.5 5.6-5.6V20.4c0-3.1-2.5-5.6-5.6-5.6zm-13-3.4c1.2 0 2.1.9 2.1 2.1H23c0-1.2.9-2.1 2.1-2.1zm17.6 20.3c0 2.5-2.1 4.6-4.6 4.6h-26c-2.5 0-4.6-2.1-4.6-4.6V20.4c0-2.5 2.1-4.6 4.6-4.6h3.5v1.4h18.9v-1.4h3.6c2.5 0 4.6 2.1 4.6 4.6v11.3z"/><path class="st0" d="M26.4 20.2h13.1v1.2H26.4zM26.4 23.7h9.4v1.2h-9.4zM29.5 27.1L28 28.5l-1.4-1.4-.7.7 1.4 1.4-1.4 1.4.7.8 1.4-1.5 1.5 1.5.7-.8-1.4-1.4 1.4-1.4z"/><path class="st0" d="M25.4 0C11.4 0 0 11.4 0 25.4s11.4 25.4 25.4 25.4 25.4-11.4 25.4-25.4S39.4 0 25.4 0zm0 49.7C11.9 49.7 1 38.8 1 25.4 1 11.9 11.9 1 25.4 1c13.5 0 24.4 10.9 24.4 24.4-.1 13.4-11 24.3-24.4 24.3z"/><path class="st0" d="M17.9 21.2c-.5-.9-1.7-1.2-2.6-.7-.3.2-.5.4-.7.7l-4.2 7.3c-.5.9-.2 2.1.7 2.6.3.2.6.3 1 .3h8.5c1 0 1.9-.9 1.9-1.9 0-.3-.1-.7-.3-.9l-4.3-7.4zm-.9 9.1h-1.4V29H17v1.3zm-.1-2.4h-1.2l-.2-4.2h1.6l-.2 4.2z"/></g></g></g></svg>