<svg xmlns="http://www.w3.org/2000/svg" viewBox="0 0 72.8 73.2"><circle cx="36.1" cy="36.1" r="36.1" opacity=".3"/><path d="M69.2 65.8c2 0 3.6 1.6 3.6 3.7 0 2-1.6 3.6-3.7 3.6-2 0-3.6-1.6-3.6-3.7 0-1 .4-1.9 1.1-2.6.7-.6 1.6-1 2.6-1zm0 .4c-.9 0-1.7.4-2.3 1-1.3 1.3-1.3 3.3 0 4.6 1.2 1.3 3.2 1.3 4.5.1l.1-.1c1.3-1.3 1.3-3.3 0-4.6-.6-.6-1.4-1-2.3-1zm-1.6 5.3v-4.1h2c.8 0 1.2.4 1.2 1.2 0 .6-.2.9-.6 1.1.3.1.5.4.5.8v1h-.5v-.9c0-.4-.2-.7-.6-.7h-1.5v1.6h-.5zm.5-2.1h1.3c.6 0 .9-.2.9-.7 0-.2 0-.5-.1-.7-.2-.1-.4-.2-.6-.2h-1.5v1.6z"/><g opacity=".33"><path d="M28.968 42.722l1.013-4.384 3.605.834-1.014 4.384zM23.4 50.1h10.9v3.3H23.4zM48.3 57.6H22.5c-1.7 0-3.3 1.1-3.9 2.7H52c-.4-1.6-2-2.7-3.7-2.7z"/><path d="M39.2 28.8c5.7.6 9.9 5.6 9.3 11.4-.5 5.3-5 9.4-10.3 9.4l1.1 6.6c8.2 0 14.8-6.6 14.8-14.8 0-7.6-5.8-14-13.3-14.7l1.1 1.6-1 .7-1.3-2-.6.4-1.3.9-.7-1 2-1.3-1.3-2 1-.7 1.3 2 .2-.1L42.8 13l-9.6-2.2-4.9 21.3 9.6 2.2 1.3-5.5z"/></g><path d="M38.2 33l-9.6-2.3L28 38l7.6 1.7zM36.2 48.4c-1.8 0-3.2 1.5-3.2 3.2v8.7h6.5v-8.6c0-1.8-1.4-3.3-3.3-3.3.1 0 .1 0 0 0zm0 4.5c-.5-.1-.8-.5-.7-.9 0-.4.3-.7.7-.7.5.1.8.5.7.9 0 .3-.3.6-.7.7zM35.268 11.181l.698-3.02 5.651 1.306-.698 3.02zM40.6 21.8c-2.5-.6-4.9 1-5.5 3.5-.6 2.5 1 4.9 3.5 5.5 2.5.5 4.9-1 5.5-3.4.6-2.6-1-5-3.5-5.6zm1.2 6.5l-1 .7-1.3-2-2 1.3-.7-1 2-1.3-1.3-2 1-.7 1.3 2 2-1.3.7 1-2 1.3 1.3 2z"/></svg>