<svg version="1.1" id="Layer_1" xmlns="http://www.w3.org/2000/svg" x="0" y="0" viewBox="0 0 73 73.1" xml:space="preserve"><style>.st1,.st2{opacity:.5}.st2{enable-background:new}</style><circle cx="36.2" cy="36.2" r="36.2" opacity=".3"/><path d="M51.8 26.9l-9.1 9.2 9.1 9.2v-4.8h10.8v-8.7H51.8zM66 69h-1.4v-.5H68v.5h-1.4v4H66v-4zM72.3 71.1c0-.6-.1-1.4-.1-2-.2.5-.3 1.1-.6 1.7l-.7 2.2h-.4l-.7-2.2c-.2-.6-.4-1.2-.5-1.8 0 .6-.1 1.3-.1 2l-.1 2h-.6l.3-4.6h.7l.8 2.2c.2.6.3 1.1.5 1.5.1-.5.3-1 .5-1.5l.8-2.2h.8l.3 4.5h-.6l-.3-1.8z"/><path class="st1" d="M17.1 13.4V55l23 12V25.4l-23-12zm14.1 24.9l-1.5-.9-1.6-4.1-1.6 2.7-1.1-.5 2.2-3.3-1.9-5.7 1.2.7 1.4 3.9 1.8-2.7 1.1.5-2.5 3.4 2.5 6zm4.5 6.1c-.9 0-1.5-.7-1.5-1.5 0-.9.7-1.5 1.5-1.5.9 0 1.5.7 1.5 1.5s-.7 1.5-1.5 1.5z"/><g class="st1"><circle class="st2" cx="35.7" cy="42.9" r="1.5"/><path class="st2" d="M26.5 36l1.6-2.7 1.6 4.1 1.5.9-2.5-6 2.5-3.4-1.1-.5-1.8 2.7-1.4-3.9-1.2-.7 1.9 5.7-2.2 3.3z"/><path class="st2" d="M17.1 12.6v.8l23 12V55h5.4V12.6z"/></g></svg>