<svg xmlns="http://www.w3.org/2000/svg" viewBox="0 0 72.58 72.89"><g data-name="Layer 2"><circle cx="36" cy="36" r="36" fill="#cbcdce"/><path fill="#fff" d="M45.2 54.67H16.98V12.51H45.2z"/><path fill="#aa192d" d="M51.47 26.71l-9.06 9.18 9.06 9.18v-4.78h10.8v-8.7h-10.8v-4.88z"/><path d="M17 13.31v41.36l22.92 12V25.28zm14 24.77l-1.45-.85-1.61-4-1.54 2.53-1.12-.52 2.2-3.24-1.92-5.63 1.23.66 1.4 3.88L30 28.2l1.12.52-2.47 3.38z" fill="#a7a7a9"/><circle cx="35.49" cy="42.64" r="1.53" fill="#54575a"/><path d="M65.56 68.84h-1.38v-.5h3.37v.5h-1.39v4h-.6zM71.89 70.89c0-.64-.07-1.4-.07-2-.15.54-.34 1.1-.57 1.73l-.8 2.21H70l-.74-2.17c-.21-.64-.39-1.23-.52-1.77 0 .57 0 1.33-.08 2l-.13 2h-.56l.32-4.55H69l.78 2.2c.19.56.34 1.06.46 1.53a13.67 13.67 0 01.48-1.53l.81-2.2h.75l.28 4.55H72z"/></g></svg>