<svg xmlns="http://www.w3.org/2000/svg" viewBox="0 0 50.8 50.8"><defs><style>.cls-1{fill:#fff}</style></defs><g id="Layer_2" data-name="Layer 2"><g id="small"><g id="smartsearch-small"><path class="cls-1" d="M25.4 0a25.4 25.4 0 1025.4 25.4A25.4 25.4 0 0025.4 0zm0 49.72a24.36 24.36 0 1124.36-24.36A24.36 24.36 0 0125.4 49.72z"/><path class="cls-1" d="M21.14 34.81l.5 2 .36 1.93h.63l.23 1.79H28l.23-1.79h.63l.31-1.92.49-2h.47V34a13.77 13.77 0 012.74-8.1 9.2 9.2 0 10-16.65-4.79A9.15 9.15 0 0018 26a12.84 12.84 0 012.68 7.72v1.09zm-2.31-9.4a8.22 8.22 0 1113.23-.08 14.75 14.75 0 00-2.94 8.5h-1.2a39.49 39.49 0 01-.4-9.09c1.91-.38 2.3-1.27 2.37-1.71a1.23 1.23 0 00-.84-1.36c-.57-.19-1.43 0-2 1.12a4.45 4.45 0 00-.37 1.06c-.42 0-.85.07-1.27.07v1h1.09a42.17 42.17 0 00.42 8.91h-3a42.76 42.76 0 00.4-8.83h1.08v-1a7.61 7.61 0 01-1.26-.07 4.45 4.45 0 00-.37-1.06c-.58-1.12-1.44-1.31-2-1.12a1.23 1.23 0 00-.84 1.36c.07.44.46 1.33 2.37 1.71a40.47 40.47 0 01-.41 9h-1.18v-.09a13.86 13.86 0 00-2.88-8.32zm8.94-1.73a1.92 1.92 0 01.17-.39c.23-.46.51-.65.71-.65h.09a.23.23 0 01.16.25c-.04.26-.38.57-1.13.79zm-4.71 0c-.75-.22-1.13-.53-1.13-.77a.22.22 0 01.16-.25h.09c.2 0 .48.19.71.63.11.12.11.24.17.37z"/><path class="cls-1" d="M24.07 16a.51.51 0 00.61-.39.51.51 0 00-.36-.61 4.31 4.31 0 00-3.24.62 5.69 5.69 0 00-2.19 4.22.51.51 0 00.43.56h.07a.5.5 0 00.49-.4 4.77 4.77 0 011.74-3.52 3.41 3.41 0 012.45-.48z"/><path class="cls-1" d="M41.86 15.63L39 22l3.26-.81a17.2 17.2 0 11-4.78-8 1 1 0 00.61.22 1 1 0 00.47-1.93A19.27 19.27 0 1045 25.72a18.91 18.91 0 00-.7-5.07l3.56-.89z"/></g></g></g></svg>