<svg version="1.1" id="Layer_1" xmlns="http://www.w3.org/2000/svg" x="0" y="0" viewBox="0 0 50.8 50.8" xml:space="preserve"><style>.st0{fill:#aa192d}</style><g id="Layer_2_1_"><g id="small"><g id="suppliers-small"><path class="st0" d="M25.4 0C11.4 0 0 11.4 0 25.4s11.4 25.4 25.4 25.4 25.4-11.4 25.4-25.4S39.4 0 25.4 0zm0 49.7C11.9 49.7 1 38.8 1 25.4 1 11.9 11.9 1 25.4 1c13.5 0 24.4 10.9 24.4 24.4-.1 13.4-11 24.3-24.4 24.3z"/><path class="st0" d="M25.7 21.9c-1.2 0-2.2 1-2.2 2.2 0 1.2 1 2.2 2.2 2.2 1.2 0 2.2-1 2.2-2.2-.1-1.3-1-2.2-2.2-2.2z"/><path class="st0" d="M44.3 24.4c-.3-1.1-1-2.1-2-2.7-2.1-1.3-4.8-.7-6.1 1.4-.3.5-.6 1.2-.6 1.8H33c-.2-2.2-1.4-4.3-3.2-5.5l1.3-2.1c.6.3 1.3.4 1.9.5.7 0 1.4-.2 2-.5 2.2-1.1 3-3.8 1.9-5.9-1.1-2.2-3.8-3-5.9-1.9-2.2 1.1-3 3.8-1.9 5.9.3.5.6 1 1.1 1.4l-1.3 2.1c-2.2-1.1-4.9-.9-7 .4L20.4 17c.1 0 .1-.1.2-.2 1.7-1.7 1.7-4.5-.1-6.2-.8-.8-2-1.3-3.1-1.2-2.4.2-4.2 2.3-4 4.8.2 2.1 1.9 3.9 4 4h.1c.7 0 1.4-.2 2.1-.5l1.5 2.3c-1.5 1.3-2.5 3.1-2.7 5.1h-2.9c-.3-2.5-2.5-4.3-5-4-2.5.3-4.3 2.5-4 5s2.5 4.3 5 4c2.1-.2 3.7-1.9 4-4h2.9c.1 2.2 1.2 4.2 3 5.5l-1.6 2.7c-2.1-1.2-4.8-.5-6 1.6s-.5 4.8 1.6 6c.6.3 1.2.5 1.9.6h.3c2.4 0 4.4-2 4.4-4.4 0-1.1-.4-2.1-1.1-2.9l-.3-.3 1.7-2.7c1.1.6 2.3.9 3.5.9 1.1 0 2.2-.3 3.2-.8l2.1 3.2c-.2.1-.3.3-.4.4-1.7 1.7-1.7 4.5.1 6.2.8.8 1.9 1.3 3.1 1.3h.1c2.4 0 4.4-2.1 4.3-4.5 0-1.2-.5-2.3-1.3-3.1-.8-.8-2-1.3-3.1-1.2-.6 0-1.2.1-1.8.4L30 31.8c1.9-1.3 3.1-3.4 3.2-5.6h2.5c.3 2.4 2.5 4.1 4.9 3.8 1.3-.2 2.5-.9 3.2-2 .5-1.3.7-2.5.5-3.6zm-13.2 4.5v-.1c-.5.8-1.2 1.5-2.1 2v-1.7c0-1.2-.9-2.1-2.1-2.1h-2.4c-1.2 0-2.1.9-2.1 2.1v1.8c-3-1.9-3.9-5.8-2-8.7 1.9-3 5.8-3.9 8.7-2 3 1.8 3.9 5.7 2 8.7z"/></g></g></g></svg>