<svg xmlns="http://www.w3.org/2000/svg" viewBox="0 0 50.8 50.8"><defs><style>.cls-1{fill:#fff}</style></defs><g id="Layer_2" data-name="Layer 2"><g id="small"><g id="tier1-small"><path class="cls-1" d="M34.49 24.28q-1.7-1.41-6.56-1.68h-1v-6.42h.68c2.39 0 3.59.95 3.58 2.84v.46h4.21v-.58c0-2.51-.6-4.22-1.8-5.15s-3.37-1.38-6.6-1.38V9.89h-3v2.48q-5.13 0-7 1.45c-1.25 1-1.88 2.75-1.89 5.36s.63 4.5 1.88 5.51 3.59 1.5 7 1.48v6.91h-.65c-1.75 0-2.89-.22-3.39-.68s-.77-1.47-.77-3v-.5h-4.31v.87q0 3.86 1.88 5.42t6.47 1.56h.83v2.85H27v-2.83h.89c3.09 0 5.24-.54 6.48-1.63s1.86-3 1.86-5.67q-.03-3.78-1.74-5.19zM24 22.42h-.65c-2.57 0-3.86-1.06-3.85-3.18s1.3-3.12 3.87-3H24zm7.82 7.1q0 3.56-4.23 3.56H27v-6.75c2 0 3.26.2 3.89.62a2.9 2.9 0 01.93 2.57z"/><path class="cls-1" d="M25.4 0a25.4 25.4 0 1025.4 25.4A25.4 25.4 0 0025.4 0zm16.31 14.34l4-2.4a24.22 24.22 0 013.84 10.4H44.8a19.26 19.26 0 00-3.09-8zM44 25.16A18.36 18.36 0 1125.86 6.79 18.47 18.47 0 0144 25.16zM25.4 49.72A24.36 24.36 0 1138.88 5.08L36 8.83A19.63 19.63 0 005.81 25.16a19.62 19.62 0 0039.1 2.07h4.77A24.35 24.35 0 0125.4 49.72z"/></g></g></g></svg>