<svg version="1.1" id="Layer_1" xmlns="http://www.w3.org/2000/svg" x="0" y="0" viewBox="0 0 50.8 50.8" xml:space="preserve"><style>.st0{fill:#aa192d}</style><g id="Layer_2_1_"><g id="small"><g id="database-small"><path class="st0" d="M5 18.4h6.8v1.1H5zM33.6 29.6c3.3-5.2 1.8-12.1-3.3-15.4s-12.1-1.8-15.4 3.3-1.8 12.2 3.3 15.5c1.8 1.2 3.9 1.8 6.1 1.8 2.2 0 4.4-.7 6.3-2l6.3 6.3c.9.8 2.2.8 3.1 0 .8-.9.8-2.2 0-3.1l-6.4-6.4zm-9.1 1.5c-4.1 0-7.4-3.2-7.4-7.3s3.2-7.4 7.3-7.4 7.4 3.2 7.4 7.3v.1c0 4-3.3 7.3-7.3 7.3zM3.7 25.4h7.7v1.1H3.7zM7.5 31.7H14v1.1H7.5zM14.6 37.5h5.5v1.1h-5.5zM38.6 23.1h6.7v1.1h-6.7zM38.9 28.3h3.3v1.1h-3.3zM38.6 17.8h4.9v1.1h-4.9zM19.1 7.9h10.6V9H19.1zM8.4 12.2h7.1v.8H8.4zM33 11.9h4.7V13H33z"/><path class="st0" d="M26.3 21.5l-1.8 1.8-1.9-1.8-.9.9 1.9 1.8-1.8 1.8.8.9 1.9-1.8 1.8 1.8.8-.9-1.8-1.8 1.9-1.8z"/><path class="st0" d="M25.4 0C11.4 0 0 11.4 0 25.4s11.4 25.4 25.4 25.4 25.4-11.4 25.4-25.4S39.4 0 25.4 0zm0 49.7C11.9 49.7 1 38.8 1 25.4 1 11.9 11.9 1 25.4 1c13.5 0 24.4 10.9 24.4 24.4-.1 13.4-11 24.3-24.4 24.3z"/></g></g></g></svg>