<svg xmlns="http://www.w3.org/2000/svg" viewBox="0 0 73.16 73.09"><defs><style>.cls-1,.cls-4{fill:#fff}.cls-1{opacity:.5}</style></defs><g id="Layer_2" data-name="Layer 2"><g id="one"><g id="tiertracker-one"><circle class="cls-1" cx="36.2" cy="36.2" r="36.2"/><path opacity=".77" fill="#fff" d="M14.29 23.88h7.7v30.81h-7.7z"/><path class="cls-1" d="M27.13 16.17h7.7v38.51h-7.7z"/><path opacity=".33" fill="#fff" d="M39.97 8.47h7.7v46.21h-7.7z"/><path class="cls-4" d="M66.14 69h-1.38v-.5h3.37v.5h-1.4v4h-.59zM72.47 71.09c0-.64-.08-1.4-.07-2-.16.54-.34 1.1-.57 1.73L71 73.06h-.44l-.74-2.17c-.21-.64-.4-1.23-.53-1.77 0 .57 0 1.33-.09 2l-.12 2h-.56l.32-4.55h.75l.77 2.2c.19.56.35 1.06.46 1.53.12-.46.28-1 .48-1.53l.81-2.2h.75l.29 4.55h-.58zM43.82 29.76v-2.85h.34a2.59 2.59 0 011.36.22c.2.16.3.51.3 1.08v.2h.89v-.26a2 2 0 00-.53-1.61 3.41 3.41 0 00-2-.42h-.34v-.76h-.7v.76a4.46 4.46 0 00-2.42.45 2.08 2.08 0 00-.61 1.76 2.13 2.13 0 00.59 1.79 4.55 4.55 0 002.44.43v3h-.29a2.8 2.8 0 01-1.6-.28c-.21-.18-.31-.64-.31-1.37v-.15H40c0 1.59.58 2.44 1.76 2.53h1.35v.92h.7v-.92h.26a3.64 3.64 0 002.23-.49 2.26 2.26 0 00.6-1.79 2.09 2.09 0 00-.62-1.79 4.49 4.49 0 00-2.46-.45zm-.7 0h-.22a2.79 2.79 0 01-1.56-.28 1.6 1.6 0 01-.34-1.27c0-.54.11-.9.35-1.07a3 3 0 011.51-.25h.28zm1 3.87l-.33-.05v-3H44a3.09 3.09 0 011.6.27A1.42 1.42 0 0146 32c0 1.19-.6 1.73-1.85 1.63z"/><path class="cls-4" d="M61 44.57l-7.22-7.29a12.77 12.77 0 10-10.71 5.85 12.63 12.63 0 007.19-2.23l7.19 7.25a2.49 2.49 0 003.55 0 2.55 2.55 0 000-3.58zM50.79 34.25a4.68 4.68 0 01-.3.54v.06a9 9 0 01-1.06 1.4l-.09.1a3.83 3.83 0 01-.29.28l-.26.24-.26.22-.36.27-.22.15a8.2 8.2 0 01-4.61 1.4 8.44 8.44 0 118.37-8.43 8.51 8.51 0 01-.92 3.77z"/></g></g></g></svg>