<svg xmlns="http://www.w3.org/2000/svg" viewBox="0 0 73.2 73"><circle cx="36.2" cy="36.2" r="36.2" opacity=".3"/><path d="M52.7 22.8c-.3 0-.6-.2-.7-.5-5.4-12.5-21.3-8.3-21.5-8.2-.4.1-.8-.1-1-.4-.1-.4.1-.8.4-1h.1c.2 0 17.4-4.6 23.3 9.1.2.4 0 .8-.4 1h-.2zM19.5 22.8c-.1 0-.2 0-.3-.1-.4-.2-.6-.6-.4-1 .1-.2 2.5-5.5 7.3-7.4.4-.1.8.1 1 .4.1.4-.1.8-.4 1-4.2 1.6-6.4 6.5-6.4 6.6-.2.3-.5.5-.8.5z"/><path d="M26.1 22.7c-.2 0-.4-.1-.5-.2-.3-.3-.3-.8 0-1.1.1-.1 10.1-9.9 21.8-.5.3.3.4.7.1 1.1-.3.3-.7.4-1.1.1-10.6-8.5-19.4.1-19.8.4-.1.1-.3.2-.5.2zM20.2 36.9c-.3 0-.6-.2-.7-.5-.9-4.3.6-8.7 4-11.5.3-.3.8-.2 1.1.1.3.3.2.8-.1 1.1-2.9 2.4-4.3 6.3-3.5 10 .1.4-.1.8-.5.9-.1-.1-.2-.1-.3-.1zM52.5 43.6c-.5-.1-.8-.4-.7-.8 2-14.4-3.5-17.9-3.6-18-.3-.2-.5-.7-.3-1 .2-.3.6-.5 1-.3.3.2 6.4 4 4.3 19.5 0 .4-.3.6-.7.6z"/><path d="M32.3 25.3c-.4 0-.7-.3-.7-.8 0-.2.1-.4.3-.6 2.7-2.3 6.7-2.5 9.5-.3.3.3.4.7.1 1.1-.3.3-.7.4-1.1.1-3.7-2.8-7.4.2-7.6.3-.1.1-.3.2-.5.2zM19.9 42.3c-.4 0-.7-.4-.7-.8s.3-.7.6-.7c5.3-.5 5.6-4.2 5.6-4.2.2-8.8 2.2-9.9 3.1-9.9.4 0 .8.4.7.8 0 .3-.2.6-.6.7-.2.1-1.6 1.1-1.7 8.5.1.1-.4 5-7 5.6zm8.7-14.1zM39 44.8c-.4 0-.8-.3-.8-.7 0-.3.1-.5.4-.7 4.1-2.4 3.2-10 3-11-.7-1.5-2.1-2.6-3.7-3-2.5-.4-4.8 1.6-4.8 1.6-.3.3-.8.3-1.1 0-.3-.3-.3-.8 0-1.1.1-.1 2.9-2.5 6-2 1.9.3 3.5 1.6 4.8 3.8 0 .1.1.2.1.2.1.4 1.6 9.7-3.7 12.8-.1.1-.1.1-.2.1z"/><path d="M19.8 46.7c-.5 0-.8-.4-.7-.8 0-.4.3-.6.7-.7.1 0 5.9 0 9.3-3.6 1.8-1.9 2.5-4.5 2.3-7.8 0-.4.3-.8.8-.8.4 0 .7.3.8.6.3 3.7-.6 6.7-2.7 8.9-3.9 4.1-9.9 4.2-10.5 4.2zM52.9 50c-1.7-.1-3.3-.8-4.3-2.2-3.6-4.2-2.6-13.4-2.5-14.3-.2-4.3-2.2-5.2-2.2-5.2-.4-.1-.6-.5-.5-.9s.5-.6.9-.5c0 0 .1 0 .1.1.1 0 3 1.2 3.2 6.6v.1c0 .1-1.1 9.4 2.1 13.3.8 1 2 1.6 3.3 1.6.4 0 .7.4.7.8-.1.3-.3.5-.8.6zM19.9 52.2c-.3 0-.6-.2-.7-.5-.1-.4.1-.8.5-.9.1 0 10.9-3.1 13.7-7.8.2-.3.6-.5 1-.3.3.2.5.6.3 1-3.1 5.3-14.1 8.4-14.6 8.6l-.2-.1zM22.9 56.8c-.4 0-.7-.3-.8-.7 0-.4.2-.8.6-.8 5.4-1.1 10.3-4.2 13.6-8.6.3-.3.8-.3 1.1 0 .3.2.3.6.1 1-3.4 4.7-8.7 8-14.6 9.1zM51.2 55.8c-5.4 0-9-7.2-9.1-7.5-.2-.4 0-.8.4-1 .4-.2.8 0 1 .3 0 .1 3.3 6.6 7.7 6.6.4 0 .8.3.8.7s-.3.8-.7.8c0 .1-.1.1-.1.1zM28.5 60.8c-.3 0-.5-.1-.7-.4-.2-.4-.1-.8.3-1 .1 0 7.3-4.1 9.5-5.7.4-.5 1.1-.7 1.7-.8 2-.1 4.5 1.6 7.6 5 .3.3.2.8-.1 1-.3.3-.8.3-1.1 0-3.6-4.1-5.5-4.6-6.4-4.5-.2 0-.5.1-.7.2 0 .1-.1.1-.2.2-2.2 1.6-9.4 5.6-9.7 5.8.1.2-.1.2-.2.2z"/><path d="M41.3 60.8c-.2 0-.4-.1-.5-.2-.7-.8-1.7-1.3-2.7-1.3-.9.1-1.6.5-2.2 1.2-.3.3-.7.4-1.1.1-.3-.2-.4-.7-.2-1 .8-1 2-1.7 3.3-1.9 1.5 0 2.9.6 3.9 1.7.3.3.3.8 0 1.1-.1.2-.3.3-.5.3zM38.3 39.8c-.4 0-.8-.3-.8-.8 0-1.8-2.3-4.6-3.2-5.5-.3-.3-.2-.8.1-1.1.3-.2.7-.2 1 0 .4.4 3.7 3.7 3.7 6.5 0 .5-.3.9-.8.9z"/><path d="M34 39.8c-.2 0-.4-.1-.5-.2-.3-.3-.3-.8 0-1.1 3.5-3.9 4.1-6.2 4.1-6.2.1-.4.5-.6.9-.5.4.1.6.5.5.9 0 .1-.8 2.7-4.5 6.8 0 .2-.2.3-.5.3zM66.2 69h-1.4v-.5h3.4v.5h-1.4v4h-.6v-4zM72.5 71c0-.6-.1-1.4-.1-2-.2.5-.3 1.1-.6 1.7l-.7 2.3h-.4l-.7-2.2c-.2-.7-.4-1.2-.5-1.8 0 .6 0 1.3-.1 2l-.1 2h-.6l.3-4.6h.8l.8 2.2c.2.5.3 1 .5 1.5.1-.5.3-1 .5-1.5l.8-2.2h.8l.3 4.5h-.6l-.4-1.9z"/></svg>