<svg xmlns="http://www.w3.org/2000/svg" viewBox="0 0 73.06 72.47"><defs><style>.cls-2{fill:#fff}</style></defs><g id="Layer_2" data-name="Layer 2"><g id="color"><g id="detexion-color"><circle cx="36" cy="36" r="36" fill="#cbcdce"/><path class="cls-2" d="M52.4 22.65a.75.75 0 01-.69-.45C46.32 9.75 30.49 13.94 30.33 14a.75.75 0 01-.4-1.45c.17 0 17.26-4.57 23.16 9.06a.75.75 0 01-.39 1 .8.8 0 01-.3.04zM19.43 22.65a.8.8 0 01-.3-.06.76.76 0 01-.39-1c.1-.22 2.46-5.51 7.25-7.31a.75.75 0 01.53 1.4c-4.19 1.57-6.38 6.46-6.4 6.51a.76.76 0 01-.69.46z"/><path class="cls-2" d="M26 22.54a.79.79 0 01-.53-.22.75.75 0 010-1.06c.1-.1 10-9.79 21.66-.54a.77.77 0 01.12 1.06.76.76 0 01-1.06.12c-10.56-8.41-19.29.06-19.66.42a.74.74 0 01-.53.22zM20.12 36.69a.75.75 0 01-.72-.55 11.75 11.75 0 014-11.43.75.75 0 011.06.06.76.76 0 01-.06 1.06 10.25 10.25 0 00-3.56 9.92.75.75 0 01-.53.91zM52.25 43.4h-.1a.74.74 0 01-.64-.84c2-14.33-3.53-17.84-3.58-17.88a.75.75 0 01.76-1.29c.26.16 6.4 3.92 4.31 19.37a.76.76 0 01-.75.64z"/><path class="cls-2" d="M32.14 25.17a.75.75 0 01-.49-1.32 7.51 7.51 0 019.45-.31.77.77 0 01.13 1.06.76.76 0 01-1 .13c-3.73-2.9-7.4.13-7.55.26a.76.76 0 01-.54.18zM19.79 42.1a.75.75 0 01-.08-1.49c5.23-.54 5.62-4.16 5.62-4.2.18-8.78 2.2-9.79 3.06-9.82a.75.75 0 01.77.73.74.74 0 01-.61.76c-.16.09-1.57 1.12-1.72 8.41 0 .1-.52 4.94-7 5.61zm8.65-14zm0 0zm0 0zM38.75 44.55a.75.75 0 01-.38-1.4c4.12-2.39 3.14-9.92 3-11a5.47 5.47 0 00-3.68-3c-2.47-.4-4.75 1.64-4.77 1.67a.75.75 0 01-1-1.12c.12-.1 2.85-2.53 6-2 1.91.3 3.53 1.59 4.81 3.82a.75.75 0 01.09.25c.07.39 1.63 9.59-3.69 12.67a.69.69 0 01-.38.11z"/><path class="cls-2" d="M19.65 46.47a.75.75 0 110-1.5c.06 0 5.9 0 9.23-3.55 1.76-1.9 2.52-4.49 2.26-7.71a.75.75 0 111.49-.12c.3 3.66-.6 6.64-2.66 8.86-3.69 3.91-9.69 4.02-10.32 4.02zM52.64 49.69a5.79 5.79 0 01-4.29-2.13c-3.53-4.22-2.54-13.34-2.43-14.27-.19-4.29-2.21-5.2-2.23-5.21a.75.75 0 11.54-1.4c.13.05 3 1.23 3.19 6.61v.12c0 .09-1.14 9.34 2.08 13.19a4.25 4.25 0 003.22 1.59.76.76 0 01.71.79.75.75 0 01-.79.71zM19.78 52a.75.75 0 01-.2-1.47c.1 0 10.81-3.05 13.63-7.79a.75.75 0 011-.26.73.73 0 01.26 1c-3.1 5.25-14.03 8.33-14.47 8.46zM22.78 56.51a.75.75 0 01-.74-.65.76.76 0 01.64-.85 22.84 22.84 0 0013.57-8.55.74.74 0 011-.13.75.75 0 01.14 1.05 23.94 23.94 0 01-14.51 9.12zM50.91 55.45c-5.39 0-8.9-7.13-9-7.43a.75.75 0 011.35-.66c0 .07 3.25 6.59 7.7 6.59a.75.75 0 010 1.5zM28.35 60.45a.75.75 0 01-.37-1.4c.07 0 7.23-4.09 9.42-5.64a2.45 2.45 0 011.7-.77c2-.1 4.52 1.57 7.58 5a.75.75 0 11-1.13 1c-3.58-4-5.51-4.56-6.36-4.51a.9.9 0 00-.65.25.81.81 0 01-.19.18c-2.15 1.55-9.33 5.61-9.63 5.78a.74.74 0 01-.37.11z"/><path class="cls-2" d="M41.11 60.47a.74.74 0 01-.53-.22A3.55 3.55 0 0037.89 59a3.34 3.34 0 00-2.15 1.21.75.75 0 01-1.2-.9 4.82 4.82 0 013.23-1.81 5 5 0 013.87 1.73.75.75 0 010 1.06.74.74 0 01-.53.18z"/><path d="M37.55 35.19a11.78 11.78 0 001.3-2.68.75.75 0 00-.53-.92.76.76 0 00-.92.53 8.64 8.64 0 01-.8 1.74 17.7 17.7 0 00-1.36-1.55.75.75 0 00-1.06 1.06 17.72 17.72 0 011.57 1.86 30.63 30.63 0 01-2.45 3.08.75.75 0 00.06 1.06.73.73 0 00.5.19.77.77 0 00.56-.24 33.27 33.27 0 002.21-2.74 4.93 4.93 0 01.74 2.23.75.75 0 001.5 0 7.16 7.16 0 00-1.32-3.62z" fill="#aa192d"/><path d="M66 68.41h-1.37v-.5H68v.5h-1.4v4.06H66zM72.37 70.47c0-.64-.08-1.4-.07-2-.16.53-.35 1.1-.58 1.73l-.8 2.22h-.45l-.74-2.18c-.22-.64-.4-1.23-.53-1.77 0 .57 0 1.33-.09 2l-.12 2h-.59l.31-4.56h.76l.78 2.2c.19.57.34 1.07.46 1.54a14.46 14.46 0 01.48-1.54l.81-2.2h.75l.29 4.56h-.58z"/></g></g></g></svg>