<svg xmlns="http://www.w3.org/2000/svg" viewBox="0 0 72.78 73.03"><g data-name="Layer 2"><circle cx="36" cy="36" r="36" fill="#cfd2d3"/><path d="M36 9.09a26.56 26.56 0 1026.88 26.56A26.73 26.73 0 0036 9.09z" fill="#fff"/><path d="M38.27 22.67v9.23l1.4.05c4.68.26 7.85 1.07 9.49 2.43s2.46 3.85 2.46 7.48c0 3.9-.89 6.63-2.68 8.21s-4.94 2.36-9.37 2.36h-1.3v4.14H34v-4.12h-1.2q-6.66 0-9.37-2.26t-2.71-7.85v-1.26h6.3v.64c0 2.28.36 3.75 1.1 4.4s2.37 1 4.91 1h.94v-10q-7.44 0-10.17-2.13t-2.72-8q0-5.67 2.74-7.76T34 17.15v-3.59h4.25v3.59q7.08 0 9.69 2c1.73 1.33 2.6 3.82 2.6 7.44v.85h-6.07v-.67c0-2.74-1.73-4.1-5.18-4.1zm-4.25 0h-.91q-5.59 0-5.6 4.38 0 4.61 5.57 4.6l.94.05zm4.25 24.48h.91c4 0 6.07-1.72 6.07-5.16q0-2.82-1.35-3.72t-5.63-.9z" fill="#a9272f"/><path d="M66.11 16.13a36 36 0 00-10-10.07l-4.74 6A28.41 28.41 0 007.66 35.65a28.38 28.38 0 0056.75 0A27.77 27.77 0 0059.6 20zM36 62.21a26.56 26.56 0 1126.88-26.56A26.73 26.73 0 0136 62.21z" fill="#76777b"/><path d="M65.77 69h-1.39v-.5h3.37v.5h-1.39v4h-.59zM72.09 71c0-.63-.07-1.39-.06-2-.16.53-.35 1.1-.58 1.73l-.8 2.2h-.45l-.73-2.16c-.22-.64-.4-1.23-.53-1.77 0 .57 0 1.33-.09 2l-.12 2h-.56l.32-4.55h.74l.78 2.2c.19.56.34 1.06.46 1.53.11-.45.28-.95.48-1.53l.81-2.2h.75l.27 4.55h-.57z"/><path d="M71.76 31.58H64.1c.1.66.18 1.33.23 2s.08 1.37.08 2.06v1.51q0 .75-.12 1.47h7.62c.09-1 .14-2 .14-3a35.92 35.92 0 00-.29-4.04z" fill="#a7a7a9"/></g></svg>