<svg version="1.1" id="Layer_1" xmlns="http://www.w3.org/2000/svg" x="0" y="0" viewBox="0 0 50.8 50.8" xml:space="preserve"><style>.st0{fill:#aa192d}</style><g id="Layer_2_1_"><g id="small"><g id="detexion-small"><g id="Layer_2-2"><g id="Layer_1-2"><path class="st0" d="M25.4 50.8C11.4 50.8 0 39.4 0 25.4S11.4 0 25.4 0s25.4 11.4 25.4 25.4-11.4 25.4-25.4 25.4zm0-49.8C11.9 1 1 11.9 1 25.4c0 13.5 10.9 24.4 24.4 24.4 13.4 0 24.3-10.9 24.4-24.3C49.8 11.9 38.9 1 25.4 1z"/><path class="st0" d="M19.5 12.6c.1 0 .3-.1.3-.1 3.4-3.6 9.1-3.8 12.7-.4l.1.1c.2.2.5.2.7 0 .2-.2.1-.5-.1-.7-7.6-6.5-14.1.2-14.2.3-.2.2-.2.5 0 .7.2.1.3.2.5.1zM35.2 14.2c-.2-.1-.6-.1-.7.2-.1.2-.1.6.2.7 0 0 3.8 2.4 2.5 12.3 0 .3.2.5.4.6h.1c.3 0 .5-.2.5-.5 1.4-10.6-2.9-13.2-3-13.3z"/><path class="st0" d="M29.2 13.7c.3.2.6.1.8-.1.2-.2.2-.4 0-.6l-.1-.1a6.84 6.84 0 00-7.4.2c-.2.1-.3.4-.1.6l.1.1c.1.1.3.2.5.2.1 0 .3 0 .4-.1 1.7-1.2 4-1.3 5.8-.2zM25.4 31.8c.2-.2.1-.5-.1-.7-.2-.2-.6-.1-.7.1-2.3 3-5.6 5.1-9.4 5.9-.3.1-.4.4-.3.7.1.2.2.3.4.3h.1c4-.8 7.5-3 10-6.3zM27.1 34.2c-.4 0-.9.2-1.2.5-1.5 1.1-6.5 3.9-6.5 3.9-.3 0-.5.3-.5.6s.3.5.6.5h.1c.1 0 .2 0 .3-.1.2-.1 5.2-2.9 6.7-4l.1-.1c.1-.1.3-.2.5-.2.6 0 1.9.3 4.4 3.1.2.2.5.3.7.1.2-.2.3-.5.1-.7 0 0 0-.1-.1-.1-2.1-2.4-3.8-3.5-5.2-3.5zM26.6 39.4c-.9.1-1.7.6-2.2 1.2-.2.2-.1.6.1.7.2.2.6.1.7-.1.4-.5.9-.8 1.5-.8.7 0 1.4.3 1.9.9.1.1.2.2.4.2.1 0 .3-.1.4-.2.2-.2.2-.5 0-.7-.8-.8-1.8-1.3-2.8-1.2zM23.6 27.6c.2 0 .3-.1.5-.2.6-.7 1.2-1.4 1.8-2.2.3.5.5 1.2.6 1.8 0 .3.3.6.6.6s.6-.3.6-.6c-.1-1-.4-2.1-1.1-2.9.4-.7.8-1.4 1-2.2.1-.3-.1-.6-.4-.7-.3-.1-.6.1-.7.4-.2.5-.4 1-.6 1.4-.3-.4-.7-.9-1.1-1.2-.2-.2-.6-.2-.9 0-.2.2-.2.6 0 .8.5.5.9 1 1.2 1.5-.6.9-1.3 1.7-2 2.5-.2.2-.2.6 0 .8.1.2.3.3.5.2zM37.2 31.9c-2.5-1.1-3.8-4.3-3.3-7.8.3-2.2.3-4.4 0-6.6 0-.3-.3-.4-.6-.4s-.5.3-.4.6c.3 2.1.3 4.2 0 6.3-.5 4 1 7.5 3.9 8.9h.2c.2 0 .4-.1.5-.3.1-.4 0-.6-.3-.7zM30 23.9h.2c.2 0 .4-.1.5-.3 0-.1 1.2-3.7-.9-6.4-1.7-2.2-3.8-2-4.7-1.6-.3.1-.4.4-.3.6.1.3.4.4.6.3h.1s1.8-.8 3.5 1.3.7 5.4.7 5.5c-.1.2 0 .5.3.6-.1 0-.1 0 0 0zM36.3 35.5c-6-1.5-6.3-7.6-6.3-7.9 0-.3-.2-.5-.5-.5s-.5.3-.5.5c0 .1.4 7.2 7.1 8.8h.1c.2 0 .4-.2.5-.4 0-.2-.1-.5-.4-.5zM14 23.4c.3 0 .5-.2.5-.4.5-3.1 1.7-6 3.4-8.6.2-.2.1-.5-.1-.7-.2-.2-.5-.1-.7.1-1.9 2.7-3.1 5.8-3.6 9 0 .3.2.6.5.6zM22 30.2c.1-.2.1-.5-.2-.7-.2-.1-.5-.1-.7.2-1.5 2.4-4.2 3.7-7 3.3-.3 0-.5.1-.6.4 0 .3.2.5.4.5.3 0 .7.1 1 .1 3 .1 5.6-1.3 7.1-3.8zM18.7 27.1c-1.2 3.2-3.6 2.5-3.8 2.4-.3-.1-.5.1-.6.3-.1.3 0 .5.3.6.3.1.7.1 1 .1 1.1 0 2.9-.5 4-3.2.1-.2.1-.5-.2-.7s-.5-.1-.7.2v.3zM21.2 16.2c.2-.1.4-.4.2-.7-.1-.2-.4-.4-.6-.2-.1 0-2.4 1.2-2.9 6-.4 4.2-3.3 4.8-3.4 4.9-.3 0-.5.3-.4.5 0 .3.3.5.6.5h.1c.1 0 3.8-.8 4.2-5.8.3-4.2 2.2-5.2 2.2-5.2zM20.9 23.9c.3 0 .6-.2.6-.4.5-3.9 1.1-4.8 1.2-4.9.3 0 .5-.3.4-.6s-.3-.5-.6-.4c-.3 0-1.2 0-2 5.7-.1.3.1.5.4.6z"/></g></g></g></g></g></svg>