<svg version="1.1" id="Layer_1" xmlns="http://www.w3.org/2000/svg" x="0" y="0" viewBox="0 0 73.2 73.2" xml:space="preserve"><style>.st1{opacity:.5;enable-background:new}</style><circle cx="36.2" cy="36.2" r="36.2" opacity=".3"/><path class="st1" d="M42.3 17.4c-3.3 1.3-5.8 4.1-6.8 7.4-1.6-3.4-4.7-5.8-8.4-6.6-6.7-1.3-9.8-1.6-9.8-1.6s9.4 17.8 17.9 9.9C45.4 34.2 51.6 14 51.6 14s-2.9.9-9.3 3.4zM17.7 48L7.4 49l-2-10.7 2-6.5 10.3.8z"/><path d="M14.6 44.2c-.4 0-.9-.2-1.3-.4.4-.5.8-1.1 1.1-1.7.1-.3 0-.6-.3-.7-.3-.1-.6 0-.7.3-.3.5-.6 1-1 1.5-.6-.5-1.1-1-1.6-1.6-.2-.2-.5-.3-.7-.1-.2.2-.3.5-.1.7.5.6 1.1 1.2 1.7 1.8l-1 1c-.2.2-.2.5 0 .7.1.1.2.2.4.2.1 0 .3-.1.4-.1.4-.4.8-.8 1.1-1.2.6.4 1.3.6 1.9.6.3.1.5-.1.6-.4.1-.3-.1-.5-.4-.6 0 .1-.1.1-.1 0zM34.5 34.5s.9-4.6-.6-8c-2.6-2.9-6.1-4.9-9.9-5.8 0 0 5.7-.4 11.2 5.5 0 0 2-4.1 10.1-7 0 0-9.3 5-9.5 9-.1 2.1 0 4.1.5 6.2l-1.8.1zM66.1 69.1h-1.4v-.5h3.4v.5h-1.4v4h-.6v-4zM72.5 71.2c0-.6-.1-1.4-.1-2-.2.5-.3 1.1-.6 1.7l-.8 2.2h-.4l-.8-2.1c-.2-.6-.4-1.2-.5-1.8 0 .6 0 1.3-.1 2l-.1 2h-.6l.3-4.6h.8l.8 2.2c.2.6.3 1.1.5 1.5.1-.5.3-1 .5-1.5l.8-2.2h.8l.3 4.6h-.6l-.2-2z"/><path d="M61.6 48c-2.8-1.5-5.9 2.7-11.1 2.7s-9.4-2.1-14.1-3.7c-2.8-1-3.9-2.1-4.4-2.9-.1-.2-.1-.5.1-.6.1 0 .2-.1.3-.1l11.6.9c.2 0 .4-.1.6-.2.5-.3 1.6-1 1.5-1.8s.2-1.1-2.8-2.6S30 37 29.8 36.9l-12.1-.8v10.3c4.6 1.1 5.6 4.6 11 6.8 6.1 2.4 14.4 3.7 18.4 3.1 4.2-.4 8.3-2.1 11.6-4.7 4-3.1 4.2-2.9 2.9-3.6z" opacity=".33"/><path d="M29.8 36.9c.2.1 10.5 1.2 13.5 2.8 3 1.5 2.8 1.8 2.8 2.6s-1 1.5-1.5 1.8c-.2.1-.4.1-.6.1l-11.6-.8c-.1 0-.2 0-.3.1-.2.1-.3.4-.1.6.4.7 1.5 1.9 4.4 2.9.5.2.9.3 1.4.5 3.5.1 6.9 0 10.3-.4.8-.1 1.5-.2 2.3-.4-3.6-16.2-17-12.7-23.4-10l2.8.2z"/><path class="st1" d="M37.8 47.4c4.1 1.5 8 3.2 12.7 3.2 3.3 0 5.7-1.6 7.8-2.5.1-.2.5-1.8-.4-2.8-.5-.5-5.1 1-9.7 1.7-3.5.5-7 .6-10.4.4z"/></svg>