<svg xmlns="http://www.w3.org/2000/svg" viewBox="0 0 73.2 73.1"><circle cx="36.2" cy="36.2" r="36.2" opacity=".3"/><path d="M14.5 21.5H57c2.8 0 5.1 2.3 5.1 5.1v21.1c0 2.8-2.3 5.1-5.1 5.1H14.5c-2.8 0-5.1-2.3-5.1-5.1V26.6c0-2.8 2.3-5.1 5.1-5.1z" opacity=".33"/><path d="M24.7 29.9c-.7-1.3-2.4-1.7-3.6-1-.4.2-.7.6-1 1l-5.9 10.2c-.7 1.3-.3 2.9 1 3.6.4.2.9.4 1.3.4h11.8c1.5 0 2.7-1.2 2.7-2.6 0-.5-.1-.9-.4-1.4l-5.9-10.2zm-1.5 11.9h-1.5v-1.6h1.5v1.6zm-.1-2.9h-1.4l-.1-5.8h1.6l-.1 5.8zM49.5 18.1h-5.9c-1.7-4.3-6.6-6.4-10.9-4.8a8.7 8.7 0 00-4.8 4.8H22v6.1h27.5v-6.1zm-16.8.8c.1-1.7 1.5-3 3.2-2.9 1.6.1 2.8 1.3 2.9 2.9h-6.1zM37.7 28.7h19.1v1.5H37.7zM37.7 33h13.8v1.5H37.7zM40.5 38.1l-1.4 1.4-1.4-1.4-.7.7 1.4 1.4-1.4 1.5.7.7 1.4-1.4 1.4 1.4.8-.7-1.5-1.5 1.5-1.4zM42.9 42.5h13.2v1H42.9zM50.1 39.3c-.2.1-.4.2-.6.2H49V39c0-.3-.2-.6-.4-.8-.2-.1-.6-.2-1.7.7-.2-.8-.6-1.5-1.4-1.5-1.3 0-2.3 2-2.5 2.3-.1.3 0 .6.2.7.2.1.5 0 .7-.2.4-.8 1.1-1.8 1.6-1.8s.5 1 .5 1.6c0 .2.1.4.3.5.2.1.4 0 .5-.1.4-.4.8-.7 1.2-1 0 1 .4 1.2 1.5 1.2.4 0 .7-.1 1-.3.4-.2.7-.3 1.8.2.1 0 .1.1.2.1.2 0 .4-.1.5-.3.1-.3 0-.6-.2-.7-1.4-.8-2.1-.6-2.7-.3zM66.1 69h-1.4v-.5h3.4v.5h-1.4v4h-.6v-4zM72.5 71.1c0-.6-.1-1.4-.1-2-.2.5-.3 1.1-.6 1.7l-.8 2.3h-.4l-.7-2.2c-.2-.6-.4-1.2-.5-1.8 0 .6 0 1.3-.1 2l-.1 2h-.6l.3-4.6h.8l.8 2.2c.2.6.3 1.1.4 1.5.1-.5.3-1 .5-1.5l.8-2.2h.8l.3 4.6h-.6l-.2-2z"/></svg>