<svg version="1.1" id="Layer_1" xmlns="http://www.w3.org/2000/svg" x="0" y="0" viewBox="0 0 72.8 73.2" xml:space="preserve"><style>.st0,.st1{fill:#050505}.st0{opacity:.3;enable-background:new}.st1{opacity:.5}</style><g id="suppliers-one"><circle class="st0" cx="36.2" cy="36.2" r="36.2"/><circle class="st1" cx="36.6" cy="34.2" r="3.2"/><path class="st0" d="M63.7 34.8c-.8-3.4-4.2-5.6-7.7-4.8-1.6.4-3.1 1.4-4 2.8-.5.8-.8 1.7-.9 2.6h-3.7c-.3-3.2-2-6.2-4.7-8l1.9-3.1c.9.4 1.8.6 2.8.6 1 0 2-.2 2.9-.7 3.1-1.6 4.4-5.5 2.8-8.6-1.6-3.1-5.5-4.4-8.6-2.8-3.1 1.6-4.4 5.5-2.8 8.6.4.8.9 1.5 1.6 2l-1.9 3.1c-3.3-1.6-7.1-1.4-10.2.5L29 23.6l.2-.2c2.5-2.5 2.4-6.6-.1-9.1s-6.6-2.3-9.1.3-2.4 6.6.1 9.1c1.2 1.2 2.8 1.8 4.5 1.8h.1c1.1 0 2.1-.3 3-.8l2.1 3.3c-.9.7-1.7 1.6-2.3 2.6-.9 1.5-1.5 3.1-1.6 4.8h-4.2c-.5-3.5-3.7-5.9-7.2-5.4-.2 0-.4.1-.6.1-3.4.8-5.6 4.2-4.8 7.7s4.2 5.6 7.7 4.8c1.7-.4 3.1-1.4 4-2.8.5-.8.8-1.8.9-2.7h4.2c.2 3.2 1.8 6.1 4.3 8l-2.4 4c-3.1-1.8-7-.7-8.7 2.4-1.8 3.1-.7 7 2.4 8.7.8.5 1.8.8 2.8.8h.4c3.5 0 6.4-2.9 6.4-6.4 0-1.6-.6-3-1.6-4.2l-.4-.4 2.5-4.1c3 1.7 6.7 1.8 9.8.2l3 4.7-.6.6c-2.4 2.6-2.3 6.6.2 9 1.2 1.1 2.7 1.7 4.4 1.8h.1c3.5 0 6.4-3 6.3-6.5 0-1.7-.7-3.3-1.9-4.5-1.9-1.8-4.7-2.3-7.1-1.2l-3-4.7c2.7-1.9 4.5-4.9 4.7-8.2h3.7c.2 1.9 1.3 3.6 3 4.7 1 .6 2.2 1 3.4 1 3.5 0 6.4-2.8 6.4-6.4-.1-.6-.2-1.1-.3-1.6zm-19.2 6.4c-2.7 4.3-8.4 5.6-12.7 2.9-4.3-2.7-5.6-8.4-2.9-12.7 1.7-2.7 4.6-4.3 7.8-4.3 1.7 0 3.4.5 4.9 1.4 4.2 2.7 5.5 8.4 2.9 12.7z"/><path d="M69.1 65.8c2 0 3.6 1.7 3.7 3.7 0 1-.4 1.9-1.1 2.6-.7.7-1.6 1.1-2.6 1.1s-1.9-.4-2.6-1.1c-1.4-1.4-1.4-3.7 0-5.2.7-.7 1.6-1.1 2.6-1.1zm0 .4c-.9 0-1.7.4-2.3 1a3.32 3.32 0 000 4.7c1.2 1.3 3.2 1.3 4.5.1l.1-.1c1.3-1.3 1.3-3.4 0-4.7-.6-.6-1.4-1-2.3-1zm-1.6 5.3v-4.1h2c.8 0 1.2.4 1.2 1.2 0 .6-.2.9-.6 1.1.3.1.5.4.5.8v1h-.5v-.9c0-.4-.2-.7-.6-.7H68v1.6h-.5zm.5-2.1h1.3c.6 0 .9-.2.9-.7 0-.2 0-.5-.1-.7-.2-.1-.4-.2-.6-.2H68v1.6z" fill="#050505"/><path class="st1" d="M38.4 38.5h-3.5c-1.7 0-3.1 1.4-3.1 3.1v2.6c3 1.8 6.7 1.8 9.7 0v-2.6c0-1.7-1.4-3.1-3.1-3.1z"/></g></svg>