<svg xmlns="http://www.w3.org/2000/svg" viewBox="0 0 50.8 50.8"><defs><style>.cls-1{fill:#fff}</style></defs><g id="Layer_2" data-name="Layer 2"><g id="small"><g id="detexion-small"><g id="Layer_2-2" data-name="Layer 2"><g id="Layer_1-2" data-name="Layer 1-2"><path class="cls-1" d="M25.4 50.8a25.4 25.4 0 1125.4-25.4 25.4 25.4 0 01-25.4 25.4zm0-49.8a24.36 24.36 0 1024.36 24.4A24.36 24.36 0 0025.4 1z"/><path class="cls-1" d="M19.46 12.63a.45.45 0 00.34-.15 9 9 0 0112.79-.32.47.47 0 00.66 0 .52.52 0 00-.08-.72c-7.58-6.4-14.06.3-14.13.37a.54.54 0 000 .73.47.47 0 00.42.09zM35.17 14.21a.52.52 0 00-.71.19.53.53 0 00.18.71s3.82 2.45 2.48 12.35a.52.52 0 00.44.58h.07a.51.51 0 00.51-.45c1.45-10.67-2.79-13.27-2.97-13.38z"/><path class="cls-1" d="M29.23 13.68a.68.68 0 00.82-.09.41.41 0 000-.59.39.39 0 00-.1-.08 6.85 6.85 0 00-7.38.2.41.41 0 00-.15.56.31.31 0 00.09.11.65.65 0 00.49.21.73.73 0 00.38-.11 5.5 5.5 0 015.85-.21zM25.39 31.8a.52.52 0 00-.07-.72.53.53 0 00-.73.09 15.7 15.7 0 01-9.38 5.91.53.53 0 00-.32.66.52.52 0 00.39.34h.07a16.56 16.56 0 0010.04-6.28zM27.08 34.23a1.62 1.62 0 00-1.17.53c-1.51 1.07-6.46 3.87-6.51 3.9a.52.52 0 10.25 1 .58.58 0 00.26-.06c.21-.12 5.17-2.93 6.66-4a.37.37 0 00.12-.13.71.71 0 01.46-.17c.58 0 1.92.32 4.39 3.12a.52.52 0 00.85-.6.27.27 0 00-.07-.08c-2.11-2.43-3.87-3.58-5.24-3.51zM26.62 39.36a3.39 3.39 0 00-2.23 1.25.52.52 0 00.1.73.53.53 0 00.73-.1 2.3 2.3 0 011.48-.84 2.44 2.44 0 011.86.89.51.51 0 00.37.15.56.56 0 00.37-.15.52.52 0 000-.73 3.44 3.44 0 00-2.68-1.2zM23.58 27.65a.61.61 0 00.45-.2 25.29 25.29 0 001.78-2.21 4 4 0 01.6 1.8.6.6 0 001.2 0 5.75 5.75 0 00-1.06-2.91 9 9 0 001-2.16.6.6 0 00-.41-.73.58.58 0 00-.73.4 8.08 8.08 0 01-.65 1.4 14.34 14.34 0 00-1.09-1.25.61.61 0 00-.85 0 .6.6 0 000 .85 13.59 13.59 0 011.25 1.48 21.8 21.8 0 01-2 2.49.6.6 0 00.05.85.57.57 0 00.46.19zM37.22 31.85c-2.45-1.15-3.77-4.29-3.3-7.81a23.08 23.08 0 000-6.64.49.49 0 00-.59-.4.5.5 0 00-.41.59 22.23 22.23 0 010 6.31c-.53 4 1 7.52 3.86 8.86a.81.81 0 00.22 0 .5.5 0 00.45-.28.49.49 0 00-.23-.63zM30 23.88h.16a.5.5 0 00.48-.34c.05-.15 1.23-3.73-.86-6.38-1.73-2.21-3.84-2-4.71-1.59a.5.5 0 10.37.93h.06s1.81-.83 3.49 1.3.71 5.42.7 5.45a.48.48 0 00.26.64zM36.26 35.46C30.32 34.05 30 27.85 30 27.59a.5.5 0 00-.52-.48.51.51 0 00-.48.53c0 .07.4 7.21 7.08 8.79h.11a.51.51 0 00.49-.38.51.51 0 00-.4-.59zM14 23.43a.49.49 0 00.5-.43 20.89 20.89 0 013.41-8.55.5.5 0 00-.81-.59 21.66 21.66 0 00-3.59 9 .51.51 0 00.43.57zM22 30.22a.51.51 0 00-.17-.69.51.51 0 00-.69.18 7.1 7.1 0 01-7 3.33.5.5 0 00-.58.41.51.51 0 00.44.55 8.39 8.39 0 001 .06 8 8 0 007-3.84zM18.66 27.06c-1.22 3.21-3.64 2.47-3.76 2.43a.51.51 0 00-.63.32.49.49 0 00.3.62 3.77 3.77 0 001 .14c1.14 0 2.94-.47 4-3.16a.5.5 0 10-.9-.43zM21.19 16.21a.52.52 0 00.25-.67.49.49 0 00-.66-.24c-.1 0-2.42 1.16-2.87 6-.39 4.16-3.29 4.84-3.42 4.87a.5.5 0 00.1 1h.1c.15 0 3.75-.82 4.21-5.76.39-4.22 2.28-5.2 2.29-5.2zM20.91 23.91H21a.51.51 0 00.5-.43c.54-3.92 1.09-4.75 1.2-4.88a.51.51 0 10-.2-1c-.33 0-1.2 0-2 5.7a.51.51 0 00.39.61z"/></g></g></g></g></g></svg>