<svg xmlns="http://www.w3.org/2000/svg" viewBox="0 0 73.19 73.66"><defs><style>.cls-1{fill:#333}.cls-2{fill:#fff}</style></defs><g id="Layer_2" data-name="Layer 2"><g id="one"><g id="myconnxion-one"><path class="cls-1" d="M37.56 8.91v.05zM37.53 9.47zM26.33 20.87l-.09-.05z"/><path class="cls-2" d="M66.15 69.6h-1.39v-.51h3.38v.51h-1.39v4.06h-.6zM72.5 71.66c0-.64-.07-1.41-.07-2-.15.54-.34 1.11-.57 1.74L71 73.63h-.45l-.74-2.17c-.21-.64-.4-1.23-.52-1.78 0 .57 0 1.34-.09 2l-.12 2h-.56l.32-4.57h.75l.78 2.21c.19.57.34 1.07.46 1.54.12-.46.28-1 .48-1.54l.81-2.21h.76l.28 4.57h-.57z"/><ellipse cx="36.2" cy="36.45" rx="36.2" ry="36.45" opacity=".5" fill="#fff"/><g opacity=".5"><path class="cls-2" d="M3.2 30.89c.86 1.29 1.09 3.8 1.51 5.36a3.8 3.8 0 00.75 1.67c.81.85 2 .58 2.93 1a9.8 9.8 0 012.74 2.44 2.92 2.92 0 001.67 1.23h.36a3.49 3.49 0 001.26-.57c-.17-.3-.61-.22-.95-.21a1.73 1.73 0 01-1.72-1.8c0-.42.18-.91-.11-1.2s-1.07 0-1.47-.33c-.24-.2-.3-.51-.68-.7s.86-.68-.75-1c-.68-.15-1.42 0-1.75-.62a3.15 3.15 0 01-.15-2.06 3.92 3.92 0 01.55-1.52 1.66 1.66 0 011.36-.75c.37 0 .76.2 1.09 0 .54-.31.82-1 1.58-.51a1.94 1.94 0 01.68.93 8.06 8.06 0 00.48 1.08.66.66 0 00.33.31c.79-1.07-.44-2.34.84-3.47a6.31 6.31 0 002-2.77 3.79 3.79 0 011.43-1.71c.87-.55 1.25-1.59 2.19-2a1.92 1.92 0 001.64-1c.06-.11-1-1.67-1.3-1.24.4-.67 2.06-.85 2.72-1 .82-.22 2-.31 2.65-.94s.27-.45-.06-1c-.16-.27-.17-.45-.39-.66s-.51-.07-.68-.32-.13-1.14-.34-1.58c-.83-1.79-.67 0-1.78 0-.8 0-.37-.38-.48-.83a1.62 1.62 0 00-1.27-1.36 1.28 1.28 0 00-1.16.14 1.87 1.87 0 00-.42.55c-.2.37-.39.75-.56 1.14a.76.76 0 00-.1.39 1.64 1.64 0 00.28.6c.46.93-1.37 1.06-1.64 1.67-.19.42.26 1.19-.33 1.4-.9.32-.52-.74-.55-1.06-.16-1.39-1.93-1.24-2.37-2.4s1.85-2.67 2.66-3.33a5.87 5.87 0 011.88-1c.59-.2 1.5-.25 1.88-.84.23-.37 0-1-.52-.79a1.78 1.78 0 00-.45.37.61.61 0 01-.53.19c-.35-.05-.15-2.08-.15-2.1-.85.22-1.09.75-1.64 1.35a2.26 2.26 0 01-2.24.69.57.57 0 00-.29 0c-.27.13-.87.69-1.07.15a1.22 1.22 0 010-.57.64.64 0 00-.09-.54c-.36-.38-.35 0-.8-.33A29.47 29.47 0 007 15.05a36.4 36.4 0 00-3.74 6.19c-.36.9.18 1.28-.18 2.18a11.48 11.48 0 00-.8 3.51M32.93 51.27c-.22-.76-1.33-1-2-1.33-1.28-.62-2.75-1-4.09-1.52a2.42 2.42 0 00-.36-.1c-.1 0-1.44 1-1.14.16.06-.17.22-.28.32-.43a1.06 1.06 0 00-.2-1.14c-1-1.3-2.48-.87-3.47-1.86-.29-.28-1.31-.79-1.43-1.07a2.09 2.09 0 01-.07-.36.74.74 0 00-.73-.48c-.79 0-1.4.38-2.18 0s-1.45-.41-1.73.44a.26.26 0 01-.13-.29c0-.16.07-.31.08-.47a.39.39 0 00-.2-.4 15.18 15.18 0 00-1.45 1.45c-1.27 1.2.64 2.29-.31 3.36a2.58 2.58 0 00-.73 1 8 8 0 00.41 2.48c.28 1 1.19 1.41 1.79 2.15s.81 1.66 1.54 2.17a10 10 0 001.24.57c1.2.62 1.3 1.76 1.76 2.88a23.88 23.88 0 011.24 3.72 15.28 15.28 0 002.72 4.8 6.49 6.49 0 00.9 1 6.76 6.76 0 001.77 1.39c.48.23 1.37.49 1.65-.11a.82.82 0 00-.5-.24 2.77 2.77 0 01-1.28-.64c-.44-.44-.42-1.12-.85-1.6a1 1 0 01-.33-.49c-.07-.48.52-1.09-.2-1.28.26-.28.46-.83.88-.89.74-.13.88-.57.22-1-.93-.6.36-.5.69-.64a3.09 3.09 0 001.44-2.4 5.32 5.32 0 01.05-1c.2-.83 1.3-.92 2-1.14a1.27 1.27 0 00.53-.27c.64-.63.52-2 .61-2.86.13-1.22 1.39-1.75 1.6-2.91a1.38 1.38 0 00-.06-.65zM36.63 5.39a12.85 12.85 0 01-1-1.61c-.09-.12-1.8-1.46-1.71-1.45-2-.25-3.25 1-5 1.91a1.08 1.08 0 00-.4.33.35.35 0 00.07.47 1.05 1.05 0 00.24.06 1 1 0 01.68.89 2.14 2.14 0 01-.34 1.14 2.93 2.93 0 00-.59 1.34c.32.13 1 0 1.06-.43a2.43 2.43 0 01-.88 1.32 1.69 1.69 0 00-.66 1.41 1.81 1.81 0 00.2.5l.5.92c.33.63.79 1.33 1.49 1.34a2.66 2.66 0 01.69 0c.33.11.51.53.86.56a.72.72 0 00.62-.41 6.41 6.41 0 00.66-2.08c.46-1.9 2.2-2.13 3.31-3.5a.76.76 0 00.1-.1 1.86 1.86 0 00.34-1.66M56.5 22.1a.63.63 0 01.22.21l.92 1.28a1.51 1.51 0 00.61.59c.62.25 1.33-.36 2-.15s.74 1.3.59 2.08a.92.92 0 01-.26.56.79.79 0 01-.5.13 7.11 7.11 0 01-3.48-.8c-.36-.17-.94-.29-1 .11a2.77 2.77 0 010 .3c-.09.21-.39.18-.6.11l-2.84-.88c-.34-.11-.73-.27-.8-.62s.2-.73 0-1a.65.65 0 00-.46-.2 8 8 0 00-3.3.22 6.87 6.87 0 01-2.34.5 2.49 2.49 0 00-.61 0 1.27 1.27 0 00-.57.35c-.76.72-.92 1.67-1.48 2.52a9.1 9.1 0 01-1 1.06 7.35 7.35 0 00-1.43 2 2.73 2.73 0 00-.32 1.31c0 .35.16.68.19 1a12.6 12.6 0 01-.47 2.22 3.2 3.2 0 00.81 2.29c1.88 2.27 4.66 3.42 7.46 2.28a1.76 1.76 0 011.68 0 4.12 4.12 0 00.85.52c.25.09.53.09.8.16a.94.94 0 01.66 1c0 1.35-.39 1.87.29 3.2.47.9 1.13 1.81.84 2.89s-1.28 1.8-1.34 3.17a16 16 0 00.3 2.84 18.21 18.21 0 01.08 3.42c-.16 2.44 2.91.72 3.94-.05a12.8 12.8 0 002.47-2.62 8.42 8.42 0 00.89-1.39 8.91 8.91 0 01.7-1.5c.47-.66 1.27-1 1.8-1.61.81-.91.64-2 .59-3.07-.06-1.69.47-2.42 1.58-3.63a12.87 12.87 0 002.13-3.17c.16-.33 1-3.35.74-3.38s-.68.29-1 .49c-1.13.7-1.85-1.82-2.22-2.53l-2.29-4.37a1.65 1.65 0 01-.26-1.31c0 .1 2.43 1.45 2.58 1.69a15.34 15.34 0 011.51 2.2c.27.67-.13 1.8.83 1.79a3.23 3.23 0 002.66-2.71 2.12 2.12 0 00-.48-1.47c-.14-.16-.44.71-.67.7-.67 0-.5-.77-1.12-1.5-.32-.38-.88-1-.79-1.48.3.15.45.42.7.65a12.76 12.76 0 001.38.81c1.34.93 2.46.87 3.12 2.55.49 1.26.39 3.68 1.35 4.61v-.32c.34-2.45-.32-5.46-.84-7.84A35.82 35.82 0 0068.91 21 36.62 36.62 0 0057 6.56a16.91 16.91 0 00-1.52-1 2.26 2.26 0 00-.74-.31c-.64 0 1.71 2 1.79 2.16a.45.45 0 00-.34-.11c-.9-.34-2.94-1.37-3.69.37-1.53-.79-3.84-1.37-4.61-.26-.6.86-.4 2.15-1.13 2.9a2.38 2.38 0 00-.52.53 1.34 1.34 0 00-.11.6 1.85 1.85 0 00.29 1.11.8.8 0 001 .25 3.4 3.4 0 01.31-.25c.35-.17.72.15 1 .45l.53.64a.52.52 0 01.16.33.48.48 0 01-.22.34l-3.33 3.08c-.2.19.33 1 .23.64.19.76-.67.47-.39 1.19a1.06 1.06 0 01-.8 1.26c-.58.16-1.9-.56-2 .28-.2 1.05.18.53 1 1.24a2.12 2.12 0 002.88-.36c.52-.59.33.4.84-.19a3.44 3.44 0 011.8-1.05 2.24 2.24 0 011.12 0 2.69 2.69 0 01.93.56 12.39 12.39 0 011.1.94c.59.56.61.86.78.9"/></g><path class="cls-2" d="M65.44 29.74a.8.8 0 00-.3-.48q-.19-.12-.51.36l-.82 1.12c-.38.53-.85 1.16-1.41 1.88s-1.17 1.5-1.84 2.33l-2.07 2.54c-.7.85-1.39 1.68-2.08 2.48s-1.32 1.52-1.9 2.16q1.18-3 2.2-5.8a149.133 149.133 0 002.86-8.68c.28-.97.43-1.56.43-1.75a1.88 1.88 0 00-.59-1.32A5.87 5.87 0 0058 23.39a3.32 3.32 0 00-1.53-.52.63.63 0 00-.75.68 12 12 0 01-.36 1.65q-.31 1.18-.87 2.94a25.92 25.92 0 01-2.25 4.16 43 43 0 01-3 4.17 26.4 26.4 0 01-3.12 3.24A4.25 4.25 0 0143.59 41c-.21 0-.23-.33-.06-1s.45-1.49.83-2.5.83-2.12 1.33-3.31l1.45-3.44c.47-1.09.86-2.06 1.19-2.9a8.65 8.65 0 00.54-1.66 1.8 1.8 0 00-.6-1.3 6.65 6.65 0 00-1.42-1.18 3.35 3.35 0 00-1.51-.51.63.63 0 00-.76.67 9.5 9.5 0 01-.49 2q-.42 1.23-1 2.64c-.18.44-.39.91-.59 1.36l-1.27 1.9c-.56.82-1.13 1.67-1.73 2.53s-1.19 1.73-1.8 2.58-1.19 1.61-1.75 2.26a17.43 17.43 0 01-1.51 1.6 1.9 1.9 0 01-1.11.62c-.32 0-.4-.29-.24-.88s.49-1.41.84-2.32.7-1.86 1.07-2.86.75-2 1.13-3 .73-1.93 1-2.8.56-1.61.76-2.22a7.66 7.66 0 00.33-1.28 1.48 1.48 0 00-.33-1 5.66 5.66 0 00-.94-1 6.64 6.64 0 00-1.19-.75 2.43 2.43 0 00-1.1-.25h-.08a.22.22 0 00-.16 0 .48.48 0 00-.39.28 13.7 13.7 0 00-1.21 1.29c-.49.58-1 1.24-1.61 2s-1.21 1.64-1.79 2.49-1.2 1.69-1.78 2.52-1.13 1.6-1.63 2.34l-1.23 1.81c.34-.88.71-1.81 1.09-2.81s.74-2 1.07-2.84.61-1.69.84-2.38a7.48 7.48 0 00.37-1.48 1.82 1.82 0 00-.61-1.3 7.07 7.07 0 00-1.45-1.18 3.31 3.31 0 00-1.51-.51.62.62 0 00-.75.67c-.3.38-.66.86-1.1 1.44l-1.4 1.94c-.51.71-1 1.45-1.55 2.24l-1.55 2.3c-.5.74-1 1.44-1.39 2.1l-1.07 1.65 1.13-3c.38-1 .73-1.93 1.05-2.8s.58-1.61.8-2.24a6.77 6.77 0 00.35-1.3 1.88 1.88 0 00-.61-1.23A6.57 6.57 0 0017 23.78a3.31 3.31 0 00-1.51-.51.62.62 0 00-.75.67 10.22 10.22 0 01-.48 2.06c-.29.86-.65 1.78-1.07 2.78s-.87 2-1.35 3.12-.93 2.1-1.35 3.1-.78 1.89-1.07 2.7a7.56 7.56 0 00-.48 1.94 2.64 2.64 0 00.52 1.86 5.18 5.18 0 002.94 1.9c.5.1.83.08 1-.08a.59.59 0 00.2-.38v-.5c.39-.72.95-1.65 1.66-2.78s1.49-2.32 2.33-3.58S19.2 33.61 20 32.4s1.53-2.26 2.14-3.14c-.32.77-.64 1.55-.95 2.32s-.62 1.51-.9 2.22-.51 1.35-.69 2a6.83 6.83 0 00-.32 1.54 2.65 2.65 0 00.42 1.86 4.61 4.61 0 001.3 1.21 4.48 4.48 0 001.45.64 1.18 1.18 0 00.95 0 .67.67 0 00.18-.34v-.38c.26-.43.68-1 1.25-1.78s1.23-1.61 2-2.56l2.44-3.05 2.73-3.4c-.42 1-.86 2-1.31 3.1s-.86 2-1.25 3-.71 1.79-1 2.56A7.85 7.85 0 0028 40a2.6 2.6 0 00.46 1.76A4.82 4.82 0 0029.72 43a5.35 5.35 0 001.49.68 2 2 0 001.07.08 4.74 4.74 0 002-1 17.78 17.78 0 002.21-2c.74-.8 1.47-1.68 2.2-2.64l.73-1a6.13 6.13 0 00-.42 1.73 3.47 3.47 0 00.35 1.92 5 5 0 001.1 1.42 5.73 5.73 0 001.36.9 3.16 3.16 0 001.2.32 4.72 4.72 0 002.42-.74 13.86 13.86 0 002.38-1.86A23.08 23.08 0 0050 38.37c.68-.88 1.28-1.7 1.81-2.48q-1.2 3.21-2.56 6.58t-2.8 6.37l-3.53 2.64c-1.11.82-2.09 1.6-2.94 2.32a16.25 16.25 0 00-2 2 3.11 3.11 0 00-.82 1.7 4.06 4.06 0 00.06 1.28 3.62 3.62 0 00.58 1.36 3.31 3.31 0 001.21 1.06 4.24 4.24 0 002 .42 4.81 4.81 0 003-1.32 18.46 18.46 0 003.11-3.52 42.91 42.91 0 003-5 93.2 93.2 0 002.82-5.94.61.61 0 01.16-.12.4.4 0 00.15-.12 19.64 19.64 0 002-2c.79-.87 1.62-1.81 2.48-2.82s1.73-2.06 2.6-3.14 1.67-2.08 2.38-3 1.31-1.69 1.79-2.33l.87-1.2a1.9 1.9 0 00.1-.58 2.79 2.79 0 00-.03-.79z"/></g></g></g></svg>