<svg xmlns="http://www.w3.org/2000/svg" viewBox="0 0 72.45 72.98"><defs><style>.cls-3{fill:#76777b}.cls-5{fill:#54575a}</style></defs><g id="Layer_2" data-name="Layer 2"><g id="color"><g id="scorecard-color"><circle cx="36" cy="36" r="36" fill="#cbcdce"/><rect x="9.35" y="21.42" width="52.41" height="31.11" rx="5.09" fill="#fff"/><path class="cls-3" d="M37.45 28.54h18.99v1.53H37.45zM37.45 32.83h13.68v1.53H37.45z"/><path d="M30.41 39.9l-5.85-10.12a2.64 2.64 0 00-4.57 0L14.14 39.9a2.64 2.64 0 002.29 4h11.7a2.64 2.64 0 002.28-4zM23 41.55h-1.41V40H23zm0-2.88h-1.4l-.1-5.75h1.62z" fill="#aa192d"/><path class="cls-3" d="M43.33 18a8.35 8.35 0 00-15.55 0h-5.9v6.07h27.34V18zm-10.82.76a3 3 0 016.08 0z"/><path class="cls-5" d="M41.03 38.59l-.71-.72-1.41 1.43-1.41-1.43-.72.72 1.42 1.43-1.42 1.42.72.73 1.41-1.43 1.41 1.43.71-.73-1.41-1.42 1.41-1.43zM42.7 42.32h13.14v1.02H42.7z"/><path d="M52.3 40.27a.48.48 0 01-.23-.05c-1.12-.57-1.41-.42-1.79-.23a2.06 2.06 0 01-1 .28c-1.15 0-1.46-.18-1.51-1.14a9.81 9.81 0 00-1.17 1 .49.49 0 01-.55.11.51.51 0 01-.31-.47c0-.62-.2-1.53-.5-1.53-.46 0-1.21 1-1.57 1.76a.51.51 0 01-.68.23.52.52 0 01-.23-.69c.19-.38 1.22-2.32 2.48-2.32.78 0 1.21.68 1.4 1.49 1.12-.94 1.54-.77 1.7-.7a.74.74 0 01.43.74v.5h.5a1.14 1.14 0 00.56-.17c.61-.31 1.24-.51 2.7.23a.5.5 0 01.22.68.49.49 0 01-.45.28z" fill="#79242f"/><path d="M65.44 68.93h-1.39v-.5h3.37v.5H66v4h-.59zM71.76 71c0-.64-.07-1.4-.06-2-.16.54-.35 1.1-.58 1.73L70.3 73h-.45l-.73-2.17c-.22-.64-.4-1.23-.53-1.77 0 .57 0 1.33-.09 2l-.12 2h-.56l.32-4.55h.75l.77 2.2c.19.56.35 1.06.46 1.53.12-.46.28-1 .48-1.53l.81-2.2h.75l.29 4.49h-.57z"/></g></g></g></svg>