<svg xmlns="http://www.w3.org/2000/svg" viewBox="0 0 72.29 73.34"><defs><style>.cls-2{fill:#aa192d}.cls-3{fill:#76777b}.cls-4{fill:#a7a7a9}.cls-5{fill:#fff}</style></defs><g id="Layer_2" data-name="Layer 2"><g id="color"><g id="smartscrub-color"><circle cx="36" cy="36" r="36" fill="#cbcdce"/><path class="cls-2" d="M41.44 9.5l-5.59-1.3-.69 2.99 1 .23-7.22 31.22 3.6.83 7.22-31.22.99.23.69-2.98z"/><path class="cls-3" d="M39.59 26.55l3.15-13.61-9.57-2.21L28.25 32l9.57 2.21 1.26-5.45a10.37 10.37 0 01-1 20.69l.09.54H23.31v3.28h15.37l.46 2.73a14.73 14.73 0 00.45-29.45z"/><circle class="cls-2" cx="39.54" cy="26.21" r="4.56"/><path class="cls-3" d="M52 60.15a4.11 4.11 0 00-3.86-2.73H22.49a4.08 4.08 0 00-3.85 2.73z"/><path class="cls-4" d="M39.37 51.48a3.24 3.24 0 10-6.47 0v8.63h6.47v-8.59zm-3.23 1.24a.82.82 0 11.86-.82.81.81 0 01-.86.82z"/><path class="cls-5" transform="rotate(-33.32 39.543 26.088)" d="M38.94 23.12h1.2v5.92h-1.2z"/><path class="cls-5" transform="rotate(-33.33 39.546 26.088)" d="M36.58 25.49h5.92v1.2h-5.92z"/><path d="M68.65 66a3.67 3.67 0 11-2.59 1.07A3.51 3.51 0 0168.65 66zm0 .38a3.08 3.08 0 00-2.27 1 3.32 3.32 0 000 4.63 3.16 3.16 0 004.54 0 3.32 3.32 0 000-4.63 3 3 0 00-2.28-.97zM67 71.69v-4.08h2c.84 0 1.25.39 1.25 1.19 0 .58-.18.94-.56 1.06a.75.75 0 01.51.79v1h-.54v-.94c0-.43-.2-.65-.6-.65h-1.52v1.59zm.54-2.07h1.32c.59 0 .88-.24.88-.71a1.2 1.2 0 00-.13-.67.79.79 0 00-.58-.15h-1.49z"/><path class="cls-4" d="M38.13 32.87zM37.63 34.16l-9.18-2.12-.5 5.81 7.58 1.75 2.1-5.44z"/></g></g></g></svg>