<svg version="1.1" id="Layer_1" xmlns="http://www.w3.org/2000/svg" x="0" y="0" viewBox="0 0 73.2 73.1" xml:space="preserve"><style>.st3{opacity:.33;enable-background:new}</style><circle cx="36.2" cy="36.2" r="36.2" opacity=".3"/><path opacity=".77" d="M14.3 23.9H22v30.8h-7.7z"/><path d="M66.1 69h-1.4v-.5h3.4v.5h-1.4v4h-.6v-4zM72.5 71.1c0-.6-.1-1.4-.1-2-.2.5-.3 1.1-.6 1.7l-.8 2.3h-.4l-.7-2.2c-.2-.6-.4-1.2-.5-1.8 0 .6 0 1.3-.1 2l-.1 2h-.6l.3-4.6h.8l.8 2.2c.2.6.3 1.1.5 1.5.1-.5.3-1 .5-1.5l.8-2.2h.8l.3 4.6h-.6l-.3-2z"/><path d="M43.8 29.8v-2.9h.3c.5-.1.9 0 1.4.2.2.2.3.5.3 1.1v.2h.9v-.3c.1-.6-.1-1.2-.5-1.6-.6-.3-1.3-.5-2-.4h-.3v-.8h-.7v.8c-.8-.1-1.7.1-2.4.5-.5.5-.7 1.1-.6 1.8-.1.7.1 1.3.6 1.8.8.4 1.6.5 2.4.4v3h-.3c-.5.1-1.1 0-1.6-.3-.2-.2-.3-.6-.3-1.4v-.1h-1c0 1.6.6 2.4 1.8 2.5h1.4v.9h.7v-.9h.3c.8.1 1.6-.1 2.2-.5.5-.5.7-1.1.6-1.8.1-.7-.1-1.3-.6-1.8-.9-.4-1.7-.5-2.6-.4zm-.7 0h-.2c-.5.1-1.1 0-1.6-.3-.3-.4-.4-.8-.3-1.3 0-.5.1-.9.3-1.1.5-.2 1-.3 1.5-.2h.3v2.9zm1 3.8h-.3v-3h.2c.5-.1 1.1 0 1.6.3.3.3.4.7.4 1.1 0 1.2-.6 1.7-1.9 1.6z" opacity=".5"/><path d="M61 44.6l-7.2-7.3c3.8-5.9 2.1-13.8-3.8-17.7s-13.8-2.1-17.7 3.8-2.1 13.8 3.8 17.7c2.1 1.3 4.5 2 6.9 2a13 13 0 007.2-2.2l7.2 7.2c1 1 2.5 1 3.5 0 1-.9 1-2.5.1-3.5zM50.8 34.2c-.1.2-.2.4-.3.5v.1c-.3.5-.7 1-1.1 1.4l-.1.1-.3.3-.3.2-.3.2-.4.3v.2c-1.4.9-3 1.4-4.6 1.4-4.7 0-8.5-3.7-8.5-8.4s3.7-8.5 8.4-8.5 8.5 3.7 8.5 8.4v.1c-.1 1.3-.4 2.6-1 3.7z"/><path class="st3" d="M47.7 37.7V23.3c-1.3-.8-2.8-1.3-4.5-1.2-1.1 0-2.2.2-3.2.7v15.5c1 .4 2.2.7 3.4.7 1.5-.1 3-.5 4.3-1.3zM43.1 43.1c-1.1 0-2.1-.1-3.1-.4v11.9h7.7V42.3c-1.5.5-3 .8-4.6.8zM47.7 18.5v-10H40V18c2.5-.6 5.2-.5 7.7.5z"/><path d="M32.3 23.4c.7-1.1 1.6-2.1 2.5-2.9v-4.4h-7.7v38.5h7.7V40.1c-4.8-4.1-6-11.2-2.5-16.7z" opacity=".5"/></svg>