<svg xmlns="http://www.w3.org/2000/svg" viewBox="0 0 50.8 50.8"><defs><style>.cls-1{fill:#fff}</style></defs><g id="Layer_2" data-name="Layer 2"><g id="small"><g id="smartscrub-small"><path class="cls-1" d="M37.75 28.89a10.16 10.16 0 00-6.87-9.47v-.09a3.13 3.13 0 00-2.27-3.73L30 9.46l-1.38-.32.48-2.06-3.87-.89-.47 2.06-1.38-.32-3.17 13.7v.08l-.43 5 1.32.3-.61 2.64 2.48.58.61-2.64 1.44.33 1.8-4.66h-.02a1.59 1.59 0 00.12-.27l.28-1.23a3.17 3.17 0 002.6-.65 7.13 7.13 0 01-2.62 13.6 2.22 2.22 0 00-3.11-.31 2.29 2.29 0 00-.57.71h-6.87v2.26h6.63v3.4h-7.2a2.81 2.81 0 00-2.66 1.88h23.05a2.82 2.82 0 00-2.66-1.92h-6.06v-1.52a10.17 10.17 0 0010.02-10.32z"/><path class="cls-1" d="M25.4 0a25.4 25.4 0 1025.4 25.4A25.4 25.4 0 0025.4 0zm0 49.72A24.36 24.36 0 1149.76 25.4 24.36 24.36 0 0125.4 49.72z"/></g></g></g></svg>