<svg xmlns="http://www.w3.org/2000/svg" viewBox="0 0 73.16 73.16"><defs><style>.cls-3{opacity:.5}.cls-2,.cls-3{fill:#fff}</style></defs><g id="Layer_2" data-name="Layer 2"><g id="one"><g id="tier1-one"><circle class="cls-2" cx="36.2" cy="36.2" r="36.2" opacity=".5"/><path class="cls-3" d="M36.24 9.15a26.71 26.71 0 1027 26.7 26.88 26.88 0 00-27-26.7z"/><path class="cls-2" d="M38.48 22.79v9.29l1.41.05q7.06.39 9.55 2.44t2.47 7.52c0 3.92-.9 6.68-2.7 8.26s-4.94 2.37-9.42 2.37h-1.31v4.18h-4.27v-4.15h-1.2c-4.47 0-7.61-.75-9.43-2.27s-2.72-4.14-2.72-7.89v-1.27h6.34v.65c0 2.28.37 3.76 1.11 4.42s2.38 1 4.94 1h.94V37.32q-7.49 0-10.22-2.14t-2.74-8c0-3.8.91-6.4 2.75-7.8s5.24-2.1 10.21-2.1v-3.65h4.27v3.62q7.13 0 9.74 2t2.62 7.48v.85h-6.1v-.67q0-4.12-5.22-4.13zm-4.27 0h-.92q-5.62 0-5.63 4.41 0 4.62 5.61 4.62l.94.05zm4.27 24.61h.92c4.06 0 6.1-1.73 6.1-5.19 0-1.89-.45-3.13-1.36-3.74s-2.79-.9-5.66-.9z"/><path class="cls-2" d="M72.4 35.82a34 34 0 00-.24-4.06h-7.7A28.55 28.55 0 007.7 35.85a28.55 28.55 0 0056.9 3h7.66c.09-.99.14-2 .14-3.03zM36.24 62.56a26.71 26.71 0 1127-26.71 26.88 26.88 0 01-27 26.71zM66.14 69.11h-1.38v-.5h3.37v.5h-1.4v4h-.59zM72.47 71.16c0-.64-.08-1.4-.07-2-.16.54-.34 1.1-.57 1.73L71 73.13h-.44L69.82 71c-.21-.64-.4-1.23-.53-1.77 0 .57 0 1.33-.09 2l-.12 2h-.56l.32-4.55h.75l.77 2.2c.19.56.35 1.06.46 1.53.12-.46.28-1 .48-1.53l.81-2.2h.75l.29 4.55h-.58z"/><path class="cls-3" d="M59.93 20.15l6.55-3.93A36.38 36.38 0 0056.37 6.09l-4.76 6a28.54 28.54 0 018.32 8.06z"/></g></g></g></svg>