<svg xmlns="http://www.w3.org/2000/svg" viewBox="0 0 72.98 73.16"><defs><style>.cls-1{fill:#fff}</style></defs><g id="Layer_2" data-name="Layer 2"><g id="one"><g id="database-one"><path class="cls-1" d="M66.06 69.16H64.7v-.49H68v.49h-1.35v4h-.59zM72.3 71.18c0-.62-.07-1.37-.06-1.93-.15.52-.34 1.08-.57 1.7l-.79 2.18h-.44L69.69 71c-.21-.63-.39-1.21-.52-1.74 0 .56 0 1.31-.09 2l-.08 1.9h-.6l.31-4.49h.74l.77 2.17a15.35 15.35 0 01.45 1.51c.12-.45.28-.95.48-1.51l.8-2.17h.73l.32 4.49h-.56z"/><circle cx="36.2" cy="36.2" r="36.2" opacity=".5" fill="#fff"/><path class="cls-1" d="M52.77 47.93l-7.23-7.3a12.76 12.76 0 10-10.71 5.86A12.67 12.67 0 0042 44.25l7.19 7.26a2.49 2.49 0 003.55 0 2.55 2.55 0 00.03-3.58zM35.06 43a9.21 9.21 0 119.14-9.2 9.19 9.19 0 01-9.14 9.2zM7.91 24.32h9.84v1.54H7.91zM5.72 31.19h11.17v1.54H5.72zM12.83 41.5h4.06v1.54h-4.06zM10.01 36.94h6.87v1.54h-6.87zM10.01 47.52h15.47v1.54H10.01zM16.89 52.51h22.34v1.54H16.89zM52.98 32.91h12.03v1.54H52.98zM52.98 40.65h6.87v1.54h-6.87zM51.26 25.18h11.17v1.54H51.26zM26.92 10.79h15.47v1.54H26.92zM11.3 17.05h18.48v1.2H11.3zM42.67 16.58h11.17v1.54H42.67z"/><path class="cls-1" d="M38.14 31.62l-1.09-1.09-2.22 2.22-2.21-2.22-1.09 1.09 2.21 2.22-2.21 2.21 1.09 1.09 2.21-2.22 2.22 2.22 1.09-1.09-2.22-2.21 2.22-2.22z"/></g></g></g></svg>