<svg xmlns="http://www.w3.org/2000/svg" viewBox="0 0 73 73.2"><path d="M66.1 69.2h-1.4v-.5H68v.5h-1.3v4h-.6v-4zM72.3 71.2c0-.6-.1-1.4-.1-1.9-.2.5-.3 1.1-.6 1.7l-.8 2.2h-.4l-.7-2.2c-.2-.6-.4-1.2-.5-1.7 0 .6 0 1.3-.1 2l-.1 1.9h-.6l.3-4.5h.7l.8 2.2c.2.5.3 1 .4 1.5.1-.4.3-.9.5-1.5l.8-2.2h.7l.3 4.5h-.6v-2z"/><circle cx="36.2" cy="36.2" r="36.2" opacity=".3"/><path d="M52.8 47.9l-7.2-7.3c3.8-5.9 2.1-13.8-3.8-17.6S28 20.9 24.2 26.8 22 40.7 27.9 44.5c2.1 1.3 4.5 2 6.9 2a13 13 0 007.2-2.2l7.2 7.3c1 1 2.5 1 3.5 0 1-1.1 1-2.7.1-3.7zM35.1 43c-5.1 0-9.2-4.1-9.3-9.1s4.1-9.2 9.1-9.3c5.1 0 9.2 4.1 9.3 9.1v.1c0 5.1-4.1 9.2-9.1 9.2zM7.9 24.3h9.8v1.5H7.9zM5.7 31.2h11.2v1.5H5.7zM12.8 41.5h4.1V43h-4.1zM10 36.9h6.9v1.5H10zM10 47.5h15.5V49H10zM16.9 52.5h22.3V54H16.9zM53 32.9h12v1.5H53zM53 40.7h6.9v1.5H53zM51.3 25.2h11.2v1.5H51.3zM26.9 10.8h15.5v1.5H26.9zM11.3 17h18.5v1.2H11.3zM42.7 16.6h11.2v1.5H42.7z"/><path d="M38.1 31.6L37 30.5l-2.2 2.3-2.2-2.3-1.1 1.1 2.2 2.2-2.2 2.2 1.1 1.1 2.2-2.2 2.2 2.2 1.1-1.1-2.2-2.2z"/></svg>