<svg version="1.1" id="Layer_1" xmlns="http://www.w3.org/2000/svg" x="0" y="0" viewBox="0 0 831.8 410" xml:space="preserve"><style>.st0{fill:#e12826}.st1{fill:#fff}.st2{fill:#7f7f7f}.st3{fill:#e64d25}</style><path class="st0" d="M1 37.3c0-4 3.3-7.3 7.3-7.3h111.3c4.1 0 7.3 3.3 7.3 7.3v29.3c0 4.1-3.3 7.3-7.3 7.3H8.3C4.3 74 1 70.7 1 66.7V37.3z"/><path class="st1" d="M27.4 56l-2.9-7.7-.7-.1v-.7h2.7v.7l-.8.1 1.9 5.4.2.7.2-.7 2-5.4-.9-.1v-.7h2.7v.7l-.7.1-2.7 7.7h-1zM32.7 56v-.7l1-.2v-4.5l-1-.2v-.7h2.1v5.4l1 .2v.7h-3.1zm.9-7.9v-1.2h1.2v1.2h-1.2zM39.5 56.1c-.6 0-1.1-.1-1.5-.4s-.8-.6-1-1.1-.4-1-.4-1.7v-.3c0-.6.1-1.1.4-1.6s.6-.8 1-1.1.9-.4 1.4-.4c.6 0 1 .1 1.4.4s.7.6.9 1 .3.9.3 1.5v.7h-4.1c0 .4.1.8.2 1.1s.3.6.6.7.6.3.9.3c.4 0 .7-.1 1-.2s.5-.3.8-.5l.5.8c-.2.2-.5.4-.9.6s-.9.2-1.5.2zm-1.6-3.9h2.9V52c0-.3-.1-.6-.2-.8s-.3-.4-.5-.6-.5-.2-.8-.2c-.3 0-.5.1-.7.2s-.4.4-.5.6-.2.6-.2 1zM45.1 56l-1.7-5.5-.7-.1v-.7h2.6v.7l-.8.1.9 3.2.2.8.3-.8 1.4-4h1l1.3 4 .3.9.3-.9.9-3.2-.8-.1v-.7h2.6v.7l-.7.1-1.7 5.5h-1.1l-1.3-3.8-.3-1-.3 1-1.4 3.8h-1zM56.6 56v-.7l1-.2v-6.7l-1-.2v-.7H63v2.1h-.9l-.1-1.2h-3.3v3h3.1v.9h-3.1v2.9l1 .2v.6h-3.1zM66.8 56.1c-.6 0-1.1-.1-1.5-.4s-.8-.7-1-1.1-.3-1-.3-1.7v-.1c0-.6.1-1.2.3-1.7s.6-.9 1-1.1.9-.4 1.5-.4 1.1.1 1.5.4.8.7 1 1.1.3 1 .3 1.7v.1c0 .6-.1 1.2-.3 1.7s-.6.9-1 1.1-.9.4-1.5.4zm0-.9c.4 0 .7-.1.9-.3s.4-.5.6-.8.2-.7.2-1.2v-.1c0-.4-.1-.8-.2-1.2s-.3-.6-.6-.8-.6-.3-.9-.3c-.4 0-.7.1-.9.3s-.4.5-.6.8-.2.7-.2 1.2v.1c0 .4.1.8.2 1.2s.3.6.6.8.5.3.9.3zM70.5 56v-.7l1-.2v-4.5l-1-.2v-.7h2l.1.8v.1c.2-.3.4-.6.7-.8s.6-.3.9-.3h.4c.2 0 .2 0 .3.1l-.2 1.1h-.8c-.3 0-.6 0-.8.2s-.4.4-.5.6v3.6l1 .2v.7h-3.1zM78.4 56.1c-.6 0-1.1-.1-1.5-.4s-.8-.6-1-1.1-.4-1-.4-1.7v-.3c0-.6.1-1.1.4-1.6s.6-.8 1-1.1.9-.4 1.4-.4c.6 0 1 .1 1.4.4s.7.6.9 1 .3.9.3 1.5v.7h-4.1c0 .4.1.8.2 1.1s.3.6.6.7.6.3.9.3c.4 0 .7-.1 1-.2s.5-.3.8-.5l.5.8c-.2.2-.5.4-.9.6s-.9.2-1.5.2zm-1.6-3.9h2.9V52c0-.3-.1-.6-.2-.8s-.3-.4-.5-.6-.5-.2-.8-.2c-.3 0-.5.1-.7.2s-.3.4-.5.7-.2.5-.2.9zM84.6 56.1c-.6 0-1.1-.1-1.5-.4s-.8-.6-1-1.1-.4-1-.4-1.7v-.2c0-.6.1-1.1.3-1.6s.6-.9 1-1.1.9-.4 1.5-.4c.5 0 1 .1 1.3.3s.7.4 1 .7v1.5h-.9l-.2-1.1c-.1-.1-.3-.2-.5-.3s-.4-.1-.7-.1c-.3 0-.6.1-.9.3s-.5.5-.6.8 0 .6 0 1v.3c0 .5.1.9.2 1.2s.3.6.6.8.6.3.9.3c.4 0 .7-.1 1-.3s.4-.5.5-.9h1c0 .4-.1.7-.3 1s-.5.6-.8.8-.9.2-1.5.2zM90.1 56.1c-.7 0-1.2-.2-1.5-.5s-.5-.8-.5-1.4c0-.4.1-.8.3-1.1s.5-.5 1-.7.9-.2 1.5-.2H92v-.6c0-.4-.1-.7-.3-.9s-.6-.3-1-.3c-.3 0-.5 0-.7.1s-.4.2-.5.3l-.1.9h-.9v-1.5c.3-.2.6-.4 1-.5s.8-.2 1.3-.2c.8 0 1.4.2 1.8.6s.7.9.7 1.6V55.2l.6.1v.7h-1.7c0-.2-.1-.3-.1-.5v-.4c-.2.3-.5.5-.8.7s-.8.3-1.2.3zm.2-.9c.4 0 .7-.1 1-.3s.5-.4.7-.7v-1.1h-1.2c-.5 0-.9.1-1.2.4s-.4.5-.4.8c0 .3.1.5.3.6s.4.3.8.3zM97.2 56.1c-.4 0-.8 0-1.2-.1s-.8-.2-1.2-.4v-1.5h.9l.2.9c.2.1.4.2.6.2s.4.1.7.1c.5 0 .8-.1 1-.3s.3-.4.3-.7c0-.2-.1-.5-.3-.6s-.6-.3-1.1-.4c-.8-.2-1.3-.4-1.7-.7s-.5-.7-.5-1.2c0-.3.1-.7.3-.9s.5-.5.8-.6.8-.2 1.2-.2c.5 0 .9.1 1.2.2s.6.3.9.4l.1 1.4h-.9l-.2-.8c-.1-.1-.3-.2-.5-.2s-.4-.1-.6-.1c-.4 0-.7.1-.9.3s-.3.2-.3.4c0 .1 0 .3.1.4s.2.2.4.3.5.2.8.3c.9.2 1.5.5 1.8.8s.5.7.5 1.2-.2 1-.6 1.3-.9.5-1.8.5zM102.9 56.1c-.5 0-.8-.1-1.1-.4s-.4-.7-.4-1.3v-3.8h-1v-.9h1v-1.5h1.2v1.5h1.4v.9h-1.4v3.8c0 .3.1.5.2.7s.3.2.5.2h.5c.2 0 .3 0 .4-.1l.2.8c-.2.1-.4.1-.6.1h-.9z"/><path class="st0" d="M1 111.7c0-5.9 4.8-10.7 10.7-10.7h104.7c5.9 0 10.7 4.8 10.7 10.7v42.7c0 5.9-4.8 10.7-10.7 10.7H11.7C5.8 165 1 160.2 1 154.3v-42.6z"/><path class="st1" d="M39.2 122l-2.9-7.7-.7-.1v-.7h2.7v.7l-.8.1 1.9 5.4.2.7.2-.7 2-5.4-.9-.1v-.7h2.7v.7l-.7.1L40 122h-.8zM44.5 122v-.7l1-.2v-4.5l-1-.2v-.7h2.1v5.4l1 .2v.7h-3.1zm.9-7.9v-1.2h1.2v1.2h-1.2zM51.3 122.1c-.6 0-1.1-.1-1.5-.4s-.8-.6-1-1.1-.4-1-.4-1.7v-.3c0-.6.1-1.1.4-1.6s.6-.8 1-1.1.9-.4 1.4-.4c.6 0 1 .1 1.4.4s.7.6.9 1 .3.9.3 1.5v.7h-4.1c0 .4.1.8.2 1.1s.3.6.6.7.6.3.9.3c.4 0 .7-.1 1-.2s.5-.3.8-.5l.5.8c-.2.2-.5.4-.9.6s-1 .2-1.5.2zm-1.7-3.9h2.9v-.2c0-.3-.1-.6-.2-.8s-.3-.4-.5-.6-.5-.2-.8-.2c-.3 0-.5.1-.7.2s-.4.4-.5.6-.1.6-.2 1zM56.9 122l-1.7-5.5-.7-.1v-.7h2.6v.7l-.8.1.9 3.2.2.8.3-.8 1.4-4h1l1.3 4 .3.9.3-.9.9-3.2-.8-.1v-.7h2.6v.7l-.7.1-1.6 5.5h-1.1l-1.3-3.8-.3-1-.3 1L58 122h-1.1zM72.3 122.1c-.6 0-1.1-.1-1.6-.3s-.8-.6-1.1-1-.4-.9-.4-1.5v-4.9l-1-.2v-.7h3.1v.7l-1 .2v4.9c0 .4.1.8.2 1.1s.4.5.7.7.6.2 1 .2.7-.1 1-.2.5-.4.7-.7.2-.6.2-1.1v-4.9l-1-.2v-.7h3.1v.7l-1 .2v4.9c0 .6-.1 1.1-.4 1.6s-.6.8-1.1 1-.8.2-1.4.2zM77.2 122v-.7l1-.2v-4.5l-1-.2v-.7h2l.1.9c.2-.3.5-.6.8-.8s.7-.3 1.1-.3c.7 0 1.2.2 1.6.6s.6 1 .6 1.9v3.1l1 .2v.7h-3.1v-.7l1-.2V118c0-.6-.1-1-.3-1.2s-.6-.4-1-.4c-.3 0-.6.1-.9.2s-.5.4-.6.7v3.7l1 .2v.7h-3.3zM85 122v-.7l1-.2v-4.5l-1-.2v-.7h2.1v5.4l1 .2v.7H85zm.9-7.9v-1.2h1.2v1.2h-1.2zM91.1 122.1c-.5 0-.8-.1-1.1-.4s-.4-.7-.4-1.3v-3.8h-1v-.9h1v-1.5h1.2v1.5h1.4v.9h-1.4v3.8c0 .3.1.5.2.7s.3.2.5.2h.5c.2 0 .3 0 .4-.1l.2.8c-.2.1-.4.1-.6.1h-.9zM40.3 137.1c-.6 0-1-.1-1.5-.3s-.8-.5-1.1-.9-.5-.8-.7-1.4-.2-1.1-.2-1.7v-.1c0-.6.1-1.2.2-1.7s.4-1 .7-1.4.7-.7 1.1-.9.9-.3 1.5-.3 1.1.1 1.5.3.8.5 1.1.9.5.8.7 1.4.2 1.1.2 1.7v.1c0 .6-.1 1.2-.2 1.7s-.4 1-.7 1.4-.7.7-1.1.9-1 .3-1.5.3zm0-.9c.6 0 1-.1 1.4-.4s.6-.7.8-1.2.2-1.1.2-1.8v-.1c0-.7-.1-1.2-.2-1.7s-.4-.9-.8-1.2-.8-.4-1.4-.4c-.5 0-.9.1-1.3.4s-.6.7-.8 1.2-.3 1.1-.3 1.7v.1c0 .7.1 1.2.3 1.8s.5.9.8 1.2.7.4 1.3.4zM44.4 139.4v-.7l.9-.2v-7l-1-.2v-.7h1.9l.1.8c.2-.3.5-.5.8-.7s.7-.2 1.1-.2c.5 0 1 .1 1.3.4s.7.7.8 1.2.3 1.1.3 1.8v.1c0 .6-.1 1.1-.3 1.6s-.5.8-.8 1.1-.8.4-1.3.4c-.4 0-.7-.1-1-.2s-.5-.3-.8-.6v2.2l1 .2v.7h-3zm3.5-3.2c.5 0 1-.2 1.2-.6s.4-.9.4-1.6v-.1c0-.5-.1-.9-.2-1.3s-.3-.7-.6-.9-.6-.3-.9-.3c-.3 0-.6.1-.8.2s-.4.4-.6.6v3.1c.1.3.3.5.6.6s.6.3.9.3zM54.5 137.1c-.6 0-1.1-.1-1.5-.4s-.8-.6-1-1.1-.4-1-.4-1.7v-.3c0-.6.1-1.1.4-1.6s.6-.8 1-1.1.9-.4 1.4-.4c.6 0 1 .1 1.4.4s.7.6.9 1 .3.9.3 1.5v.7h-4.1c0 .4.1.8.2 1.1s.3.6.6.7.6.3.9.3c.4 0 .7-.1 1-.2s.5-.3.8-.5l.5.8c-.2.2-.5.4-.9.6s-1 .2-1.5.2zm-1.7-3.9h2.9v-.2c0-.3-.1-.6-.2-.8s-.3-.4-.5-.6-.5-.2-.8-.2c-.3 0-.5.1-.7.2s-.4.4-.5.6-.1.6-.2 1zM57.9 137v-.7l1-.2v-4.5l-1-.2v-.7h2l.1.8v.1c.2-.3.4-.6.7-.8s.6-.3.9-.3h.4c.2 0 .2 0 .3.1l-.2 1.1h-.8c-.3 0-.6 0-.8.2s-.4.4-.5.6v3.6l1 .2v.7h-3.1zM64.9 137.1c-.7 0-1.2-.2-1.5-.5s-.5-.8-.5-1.4c0-.4.1-.8.3-1.1s.5-.5 1-.7c.4-.2.9-.2 1.5-.2h1.1v-.6c0-.4-.1-.7-.3-.9s-.6-.3-1-.3c-.3 0-.5 0-.7.1s-.4.2-.5.3l-.1.9h-.9v-1.5c.3-.2.6-.4 1-.5.4-.1.8-.2 1.3-.2.8 0 1.4.2 1.8.6s.7.9.7 1.6V136.2l.6.1v.7H67c0-.2-.1-.3-.1-.5v-.4c-.2.3-.5.5-.8.7s-.8.3-1.2.3zm.2-.9c.4 0 .7-.1 1-.3s.5-.4.7-.7v-1.1h-1.2c-.5 0-.9.1-1.2.4s-.4.5-.4.8c0 .3.1.5.3.6s.4.3.8.3zM71.7 137.1c-.5 0-.8-.1-1.1-.4s-.4-.7-.4-1.3v-3.8h-1v-.9h1v-1.5h1.2v1.5h1.4v.9h-1.4v3.8c0 .3.1.5.2.7s.3.2.5.2h.5c.2 0 .3 0 .4-.1l.2.8c-.2.1-.4.1-.6.1h-.9zM73.7 137v-.7l1-.2v-4.5l-1-.2v-.7h2.1v5.4l1 .2v.7h-3.1zm.9-7.9v-1.2h1.2v1.2h-1.2zM80.5 137.1c-.6 0-1.1-.1-1.5-.4s-.8-.7-1-1.1-.3-1-.3-1.7v-.1c0-.6.1-1.2.3-1.7s.6-.9 1-1.1.9-.4 1.5-.4 1.1.1 1.5.4.8.7 1 1.1.3 1 .3 1.7v.1c0 .6-.1 1.2-.3 1.7s-.6.9-1 1.1-.9.4-1.5.4zm0-.9c.4 0 .7-.1.9-.3s.4-.5.6-.8.2-.7.2-1.2v-.1c0-.4-.1-.8-.2-1.2s-.3-.6-.6-.8-.6-.3-.9-.3c-.4 0-.7.1-.9.3s-.4.5-.6.8-.2.7-.2 1.2v.1c0 .4.1.8.2 1.2s.3.6.6.8.5.3.9.3zM84.2 137v-.7l1-.2v-4.5l-1-.2v-.7h2l.1.9c.2-.3.5-.6.8-.8s.7-.3 1.1-.3c.7 0 1.2.2 1.6.6s.6 1 .6 1.9v3.1l1 .2v.7h-3.1v-.7l1-.2V133c0-.6-.1-1-.3-1.2s-.6-.4-1-.4c-.3 0-.6.1-.9.2s-.5.4-.6.7v3.7l1 .2v.7h-3.3zM41.6 151.1c-.5 0-1-.1-1.5-.2s-.9-.4-1.4-.7v-1.8h.9l.2 1.3c.3.2.5.3.8.4s.6.1 1 .1.7-.1 1-.2.5-.3.6-.5.2-.5.2-.7c0-.3-.1-.5-.2-.7s-.3-.4-.6-.5-.7-.3-1.2-.4c-.6-.1-1.1-.3-1.5-.5s-.7-.5-.9-.8-.3-.7-.3-1.1c0-.4.1-.8.4-1.2s.6-.6 1-.8.9-.3 1.5-.3 1.1.1 1.6.3.8.4 1.1.7v1.7h-.9l-.2-1.2c-.2-.1-.4-.3-.7-.4s-.6-.1-1-.1c-.3 0-.6.1-.9.2s-.4.3-.6.5-.2.5-.2.7c0 .2.1.5.2.6s.3.3.6.5.7.3 1.2.4c.9.2 1.6.6 2 1s.7 1 .7 1.6c0 .5-.1.9-.4 1.2s-.6.6-1 .8-.9.1-1.5.1zM48.5 151.1c-.6 0-1.1-.1-1.5-.4s-.8-.6-1-1.1-.4-1-.4-1.7v-.2c0-.6.1-1.1.3-1.6s.6-.9 1-1.1.9-.4 1.5-.4c.5 0 1 .1 1.3.3s.7.4 1 .7v1.5h-.9l-.2-1.1c-.1-.1-.3-.2-.5-.3s-.4-.1-.7-.1c-.3 0-.6.1-.9.3s-.5.5-.6.8-.2.7-.2 1.1v.2c0 .5.1.9.2 1.2s.3.6.6.8.6.3.9.3c.4 0 .7-.1 1-.3s.4-.5.5-.9h1c0 .4-.1.7-.3 1s-.5.6-.8.8-.8.2-1.3.2zM51.7 151v-.7l1-.2v-7.3l-1-.2v-.7h2.1v3.6c.2-.3.5-.5.8-.7s.7-.3 1.1-.3c.7 0 1.2.2 1.6.6s.6 1 .6 1.9v3.1l1 .2v.7h-3.1v-.7l1-.2V147c0-.5-.1-.9-.3-1.2s-.6-.4-1-.4c-.3 0-.6.1-.9.2s-.5.4-.6.6v3.8l1 .2v.7h-3.3zM62.5 151.1c-.6 0-1.1-.1-1.5-.4s-.8-.6-1-1.1-.4-1-.4-1.7v-.3c0-.6.1-1.1.4-1.6s.6-.8 1-1.1.9-.4 1.4-.4c.6 0 1 .1 1.4.4.4.2.7.6.9 1s.3.9.3 1.5v.7h-4.1c0 .4.1.8.2 1.1s.3.6.6.7.6.3.9.3c.4 0 .7-.1 1-.2s.5-.3.8-.5l.5.8c-.2.2-.5.4-.9.6-.5.1-1 .2-1.5.2zm-1.7-3.9h2.9v-.2c0-.3-.1-.6-.2-.8s-.3-.4-.5-.6-.5-.2-.8-.2c-.3 0-.5.1-.7.2s-.4.4-.5.6-.1.6-.2 1zM68.3 151.1c-.5 0-1-.1-1.3-.4s-.7-.6-.8-1.1-.3-1-.3-1.6v-.1c0-.7.1-1.3.3-1.8s.5-.9.8-1.2.8-.4 1.3-.4c.4 0 .7.1 1 .2s.5.3.7.6v-2.6l-1-.2v-.7h2.2v8.2l1 .2v.7h-2l-.1-.8c-.2.3-.5.5-.8.7s-.6.3-1 .3zm.3-.9c.3 0 .6-.1.9-.2s.4-.4.6-.7v-2.9c-.1-.3-.3-.5-.6-.6s-.5-.2-.9-.2-.7.1-.9.3-.4.5-.5.9-.2.8-.2 1.3v.1c0 .6.1 1.1.4 1.5s.7.5 1.2.5zM75.8 151.1c-.7 0-1.2-.2-1.6-.7s-.6-1.1-.6-2.1v-2.8l-.7-.2v-.7h1.9v3.8c0 .7.1 1.1.3 1.4s.5.4.9.4.7-.1 1-.2.5-.4.6-.7v-3.7l-.8-.2v-.7h2v5.4l.7.2v.7h-1.8l-.1-.9c-.2.3-.5.6-.8.8s-.6.2-1 .2zM80.2 151v-.7l1-.2v-7.3l-1-.2v-.7h2.1v8.2l1 .2v.7h-3.1zM87 151.1c-.6 0-1.1-.1-1.5-.4s-.8-.6-1-1.1-.4-1-.4-1.7v-.3c0-.6.1-1.1.4-1.6s.6-.8 1-1.1.9-.4 1.4-.4c.6 0 1 .1 1.4.4s.7.6.9 1 .3.9.3 1.5v.7h-4.1c0 .4.1.8.2 1.1s.3.6.6.7.6.3.9.3c.4 0 .7-.1 1-.2s.5-.3.8-.5l.5.8c-.2.2-.5.4-.9.6s-1 .2-1.5.2zm-1.7-3.9h2.9v-.2c0-.3-.1-.6-.2-.8s-.3-.4-.5-.6-.5-.2-.8-.2c-.3 0-.5.1-.7.2s-.4.4-.5.6-.2.6-.2 1z"/><path class="st0" d="M346 7.2c0-4 3.2-7.2 7.2-7.2h103.7c4 0 7.2 3.2 7.2 7.2v28.7c0 4-3.2 7.2-7.2 7.2H353.2c-4 0-7.2-3.2-7.2-7.2V7.2z"/><path class="st1" d="M359.8 18.1c-.5 0-1-.1-1.5-.2s-.9-.4-1.4-.7v-1.8h.9l.2 1.3c.3.2.5.3.8.4s.6.1 1 .1.7-.1 1-.2.5-.3.6-.5.2-.5.2-.7c0-.3-.1-.5-.2-.7s-.3-.4-.6-.5-.7-.3-1.2-.4c-.6-.1-1.1-.3-1.5-.5s-.7-.5-.9-.8-.3-.7-.3-1.1c0-.4.1-.8.4-1.2s.6-.6 1-.8.9-.3 1.5-.3 1.1.1 1.6.3.8.4 1.1.7V12h-.9l-.2-1.2c-.2-.1-.4-.3-.7-.4s-.6-.1-1-.1c-.3 0-.6.1-.9.2s-.4.3-.6.5-.2.5-.2.7c0 .2.1.5.2.6s.3.3.6.5.7.3 1.2.4c.9.2 1.6.6 2 1s.7 1 .7 1.6c0 .5-.1.9-.4 1.2s-.6.6-1 .8-.9.3-1.5.3zM366.7 18.1c-.6 0-1.1-.1-1.5-.4s-.8-.6-1-1.1-.4-1-.4-1.7v-.3c0-.6.1-1.1.4-1.6s.6-.8 1-1.1.9-.4 1.4-.4c.6 0 1 .1 1.4.4s.7.6.9 1 .3.9.3 1.5v.7H365c0 .4.1.8.2 1.1s.3.6.6.7.6.3.9.3c.4 0 .7-.1 1-.2s.5-.3.8-.5l.5.8c-.2.2-.5.4-.9.6s-.9.2-1.4.2zm-1.7-3.9h2.9V14c0-.3-.1-.6-.2-.8s-.3-.4-.5-.6-.5-.2-.8-.2c-.3 0-.5.1-.7.2s-.4.4-.5.6-.1.6-.2 1zM372.1 18.1c-.7 0-1.2-.2-1.5-.5s-.5-.8-.5-1.4c0-.4.1-.8.3-1.1s.5-.5 1-.7.9-.2 1.5-.2h1.1v-.6c0-.4-.1-.7-.3-.9s-.6-.3-1-.3c-.3 0-.5 0-.7.1s-.4.2-.5.3l-.1.9h-.9v-1.5c.3-.2.6-.4 1-.5s.8-.2 1.3-.2c.8 0 1.4.2 1.8.6s.7.9.7 1.6V17.2l.6.1v.7h-1.7c0-.2-.1-.3-.1-.5v-.4c-.2.3-.5.5-.8.7s-.8.3-1.2.3zm.2-.9c.4 0 .7-.1 1-.3s.5-.4.7-.7v-1.1h-1.2c-.5 0-.9.1-1.2.4s-.4.5-.4.8c0 .3.1.5.3.6s.4.3.8.3zM376.7 18v-.7l1-.2v-4.5l-1-.2v-.7h2l.1.8v.1c.2-.3.4-.6.7-.8s.6-.3.9-.3h.4c.2 0 .2 0 .3.1l-.2 1.1h-.8c-.3 0-.6 0-.8.2s-.4.4-.5.6v3.6l1 .2v.7h-3.1zM384.6 18.1c-.6 0-1.1-.1-1.5-.4s-.8-.6-1-1.1-.4-1-.4-1.7v-.2c0-.6.1-1.1.3-1.6s.6-.9 1-1.1.9-.4 1.5-.4c.5 0 1 .1 1.3.3s.7.4 1 .7v1.5h-.8l-.2-1.1c-.1-.1-.3-.2-.5-.3s-.4-.1-.7-.1c-.3 0-.6.1-.9.3s-.5.5-.6.8-.2.7-.2 1.1v.2c0 .5.1.9.2 1.2s.3.6.6.8.6.3.9.3c.4 0 .7-.1 1-.3s.4-.5.5-.9h1c0 .4-.1.7-.3 1s-.5.6-.8.8-.9.2-1.4.2zM387.8 18v-.7l1-.2V9.8l-1-.2v-.7h2.1v3.6c.2-.3.5-.5.8-.7s.7-.3 1.1-.3c.7 0 1.2.2 1.6.6s.6 1 .6 1.9v3.1l1 .2v.7h-3.1v-.7l1-.2V14c0-.5-.1-.9-.3-1.2s-.6-.4-1-.4c-.3 0-.6.1-.9.2s-.5.4-.6.6V17l1 .2v.8h-3.3zM402.2 18.1c-.6 0-1-.1-1.5-.3s-.8-.5-1.1-.9-.5-.8-.7-1.4-.2-1.1-.2-1.7v-.1c0-.6.1-1.2.2-1.7s.4-1 .7-1.4.7-.7 1.1-.9.9-.3 1.5-.3 1.1.1 1.5.3.8.5 1.1.9.5.8.7 1.4.2 1.1.2 1.7v.1c0 .6-.1 1.2-.2 1.7s-.4 1-.7 1.4-.7.7-1.1.9-.9.3-1.5.3zm0-.9c.6 0 1-.1 1.4-.4s.6-.7.8-1.2.2-1.1.2-1.8v-.1c0-.7-.1-1.2-.2-1.7s-.4-.9-.8-1.2-.8-.4-1.4-.4c-.5 0-.9.1-1.3.4s-.6.7-.8 1.2-.3 1.1-.3 1.7v.1c0 .7.1 1.2.3 1.8s.5.9.8 1.2.8.4 1.3.4zM406.4 20.4v-.7l.9-.2v-7l-1-.2v-.7h1.9l.1.8c.2-.3.5-.5.8-.7s.7-.2 1.1-.2c.5 0 1 .1 1.3.4s.7.7.8 1.2.3 1.1.3 1.8v.1c0 .6-.1 1.1-.3 1.6s-.5.8-.8 1.1-.8.4-1.3.4c-.4 0-.7-.1-1-.2s-.5-.3-.8-.6v2.2l1 .2v.7h-3zm3.5-3.2c.5 0 1-.2 1.2-.6s.4-.9.4-1.6v-.1c0-.5-.1-.9-.2-1.3s-.3-.7-.6-.9-.6-.3-.9-.3c-.3 0-.6.1-.8.2s-.4.4-.6.6v3.1c.1.3.3.5.6.6s.5.3.9.3zM416.4 18.1c-.6 0-1.1-.1-1.5-.4s-.8-.6-1-1.1-.4-1-.4-1.7v-.3c0-.6.1-1.1.4-1.6s.6-.8 1-1.1.9-.4 1.4-.4c.6 0 1 .1 1.4.4s.7.6.9 1 .3.9.3 1.5v.7h-4.1c0 .4.1.8.2 1.1s.3.6.6.7.6.3.9.3c.4 0 .7-.1 1-.2s.5-.3.8-.5l.5.8c-.2.2-.5.4-.9.6s-.9.2-1.5.2zm-1.6-3.9h2.9V14c0-.3-.1-.6-.2-.8s-.3-.4-.5-.6-.5-.2-.8-.2c-.3 0-.5.1-.7.2s-.4.4-.5.6-.2.6-.2 1zM419.8 18v-.7l1-.2v-4.5l-1-.2v-.7h2l.1.8v.1c.2-.3.4-.6.7-.8s.6-.3.9-.3h.4c.2 0 .2 0 .3.1l-.2 1.1h-.8c-.3 0-.6 0-.8.2s-.4.4-.5.6v3.6l1 .2v.7h-3.1zM426.9 18.1c-.7 0-1.2-.2-1.5-.5s-.5-.8-.5-1.4c0-.4.1-.8.3-1.1s.5-.5 1-.7.9-.2 1.5-.2h1.1v-.6c0-.4-.1-.7-.3-.9s-.6-.3-1-.3c-.3 0-.5 0-.7.1s-.4.2-.5.3l-.1.9h-.9v-1.5c.3-.2.6-.4 1-.5s.8-.2 1.3-.2c.8 0 1.4.2 1.8.6s.7.9.7 1.6V17.2l.6.1v.7H429c0-.2-.1-.3-.1-.5v-.4c-.2.3-.5.5-.8.7s-.9.3-1.2.3zm.1-.9c.4 0 .7-.1 1-.3s.5-.4.7-.7v-1.1h-1.2c-.5 0-.9.1-1.2.4s-.3.5-.3.8c0 .3.1.5.3.6s.4.3.7.3zM433.7 18.1c-.5 0-.8-.1-1.1-.4s-.4-.7-.4-1.3v-3.8h-1v-.9h1v-1.5h1.2v1.5h1.4v.9h-1.4v3.8c0 .3.1.5.2.7s.3.2.5.2h.5c.2 0 .3 0 .4-.1l.2.8c-.2.1-.4.1-.6.1h-.9zM435.6 18v-.7l1-.2v-4.5l-1-.2v-.7h2.1v5.4l1 .2v.7h-3.1zm.9-7.9V8.9h1.2v1.2h-1.2zM442.4 18.1c-.6 0-1.1-.1-1.5-.4s-.8-.7-1-1.1-.3-1-.3-1.7v-.1c0-.6.1-1.2.3-1.7s.6-.9 1-1.1.9-.4 1.5-.4 1.1.1 1.5.4.8.7 1 1.1.3 1 .3 1.7v.1c0 .6-.1 1.2-.3 1.7s-.6.9-1 1.1-.9.4-1.5.4zm0-.9c.4 0 .7-.1.9-.3s.4-.5.6-.8.2-.7.2-1.2v-.1c0-.4-.1-.8-.2-1.2s-.3-.6-.6-.8-.6-.3-.9-.3c-.4 0-.7.1-.9.3s-.4.5-.6.8-.2.7-.2 1.2v.1c0 .4.1.8.2 1.2s.3.6.6.8.6.3.9.3zM446.2 18v-.7l1-.2v-4.5l-1-.2v-.7h2l.1.9c.2-.3.5-.6.8-.8s.7-.3 1.1-.3c.7 0 1.2.2 1.6.6s.6 1 .6 1.9v3.1l1 .2v.7h-3.1v-.7l1-.2V14c0-.6-.1-1-.3-1.2s-.6-.4-1-.4c-.3 0-.6.1-.9.2s-.5.4-.6.7V17l1 .2v.8h-3.3zM384.6 33.1c-.5 0-.8-.1-1.1-.4s-.4-.7-.4-1.3v-3.8h-1v-.9h1v-1.5h1.2v1.5h1.4v.9h-1.4v3.8c0 .3.1.5.2.7s.3.2.5.2h.5c.2 0 .3 0 .4-.1l.2.8c-.2.1-.4.1-.6.1h-.9zM389.5 33.1c-.6 0-1.1-.1-1.5-.4s-.8-.7-1-1.1-.3-1-.3-1.7v-.1c0-.6.1-1.2.3-1.7s.6-.9 1-1.1.9-.4 1.5-.4 1.1.1 1.5.4.8.7 1 1.1.3 1 .3 1.7v.1c0 .6-.1 1.2-.3 1.7s-.6.9-1 1.1-.9.4-1.5.4zm0-.9c.4 0 .7-.1.9-.3s.4-.5.6-.8.2-.7.2-1.2v-.1c0-.4-.1-.8-.2-1.2s-.3-.6-.6-.8-.6-.3-.9-.3c-.4 0-.7.1-.9.3s-.4.5-.6.8-.2.7-.2 1.2v.1c0 .4.1.8.2 1.2s.3.6.6.8.5.3.9.3zM400.1 33.1c-.9 0-1.6-.2-2.1-.6s-1-.9-1.3-1.5-.4-1.4-.4-2.2v-.1c0-.8.2-1.6.5-2.2s.7-1.2 1.3-1.5 1.2-.6 2-.6c.6 0 1.1.1 1.5.3s.8.4 1.1.7v1.8h-.9l-.1-1.3c-.1-.1-.3-.2-.4-.2s-.3-.1-.5-.2-.4-.1-.6-.1c-.6 0-1 .1-1.4.4s-.7.7-.9 1.2-.3 1.1-.3 1.7v.1c0 .7.1 1.3.3 1.8s.5.9.9 1.2.9.4 1.5.4c.3 0 .5 0 .8-.1s.5-.2.7-.3l.1-1.2h.9v1.9c-.3.2-.7.4-1.1.5s-1.1.1-1.6.1zM403.7 33v-.7l1-.2v-7.3l-1-.2v-.7h2.1v8.2l1 .2v.7h-3.1zM410.5 33.1c-.6 0-1.1-.1-1.5-.4s-.8-.7-1-1.1-.3-1-.3-1.7v-.1c0-.6.1-1.2.3-1.7s.6-.9 1-1.1.9-.4 1.5-.4 1.1.1 1.5.4.8.7 1 1.1.3 1 .3 1.7v.1c0 .6-.1 1.2-.3 1.7s-.6.9-1 1.1-.9.4-1.5.4zm0-.9c.4 0 .7-.1.9-.3s.4-.5.6-.8.2-.7.2-1.2v-.1c0-.4-.1-.8-.2-1.2s-.3-.6-.6-.8-.6-.3-.9-.3c-.4 0-.7.1-.9.3s-.4.5-.6.8-.2.7-.2 1.2v.1c0 .4.1.8.2 1.2s.3.6.6.8.5.3.9.3zM414.3 33v-.7l1-.2v-4.5l-1-.2v-.7h2l.1.9c.2-.3.5-.6.8-.8.3-.2.7-.3 1.1-.3.7 0 1.2.2 1.6.6s.6 1 .6 1.9v3.1l1 .2v.7h-3.1v-.7l1-.2V29c0-.6-.1-1-.3-1.2s-.6-.4-1-.4c-.3 0-.6.1-.9.2-.3.2-.5.4-.6.7V32l1 .2v.8h-3.3zM425 33.1c-.6 0-1.1-.1-1.5-.4s-.8-.6-1-1.1-.4-1-.4-1.7v-.3c0-.6.1-1.1.4-1.6s.6-.8 1-1.1.9-.4 1.4-.4c.6 0 1 .1 1.4.4s.7.6.9 1 .3.9.3 1.5v.7h-4.1c0 .4.1.8.2 1.1s.3.6.6.7.6.3.9.3c.4 0 .7-.1 1-.2s.5-.3.8-.5l.5.8c-.2.2-.5.4-.9.6s-1 .2-1.5.2zm-1.6-3.9h2.9V29c0-.3-.1-.6-.2-.8s-.3-.4-.5-.6-.5-.2-.8-.2c-.3 0-.5.1-.7.2s-.4.4-.5.6-.2.6-.2 1z"/><path class="st2" d="M183 70.3c0-4.1 3.3-7.3 7.3-7.3h105.3c4.1 0 7.3 3.3 7.3 7.3v29.3c0 4.1-3.3 7.3-7.3 7.3H190.3c-4.1 0-7.3-3.3-7.3-7.3V70.3z"/><path class="st1" d="M206.5 89.1c-.5 0-1-.1-1.5-.2s-.9-.4-1.4-.7v-1.8h.9l.2 1.3c.3.2.5.3.8.4s.6.1 1 .1.7-.1 1-.2.5-.3.6-.5.2-.5.2-.7c0-.3-.1-.5-.2-.7s-.3-.4-.6-.5-.7-.3-1.2-.4c-.6-.1-1.1-.3-1.5-.5s-.7-.5-.9-.8-.3-.7-.3-1.1c0-.4.1-.8.4-1.2s.6-.6 1-.8.9-.3 1.5-.3 1.1.1 1.6.3.8.4 1.1.7V83h-.9l-.2-1.2c-.2-.1-.4-.3-.7-.4s-.6-.1-1-.1c-.3 0-.6.1-.9.2s-.4.3-.6.5-.2.5-.2.7c0 .2.1.5.2.6s.3.3.6.5.7.3 1.2.4c.9.2 1.6.6 2 1s.7 1 .7 1.6c0 .5-.1.9-.4 1.2s-.6.6-1 .8-.9.3-1.5.3zM213.4 89.1c-.6 0-1.1-.1-1.5-.4s-.8-.6-1-1.1-.4-1-.4-1.7v-.2c0-.6.1-1.1.3-1.6s.6-.9 1-1.1.9-.4 1.5-.4c.5 0 1 .1 1.3.3s.7.4 1 .7v1.5h-.9l-.2-1.1c-.1-.1-.3-.2-.5-.3s-.4-.1-.7-.1c-.3 0-.6.1-.9.3s-.5.5-.6.8-.2.7-.2 1.1v.2c0 .5.1.9.2 1.2s.3.6.6.8.6.3.9.3c.4 0 .7-.1 1-.3s.4-.5.5-.9h1c0 .4-.1.7-.3 1s-.5.6-.8.8-.8.2-1.3.2zM216.6 89v-.7l1-.2v-7.3l-1-.2v-.7h2.1v3.6c.2-.3.5-.5.8-.7s.7-.3 1.1-.3c.7 0 1.2.2 1.6.6s.6 1 .6 1.9v3.1l1 .2v.7h-3.1v-.7l1-.2V85c0-.5-.1-.9-.3-1.2s-.6-.4-1-.4c-.3 0-.6.1-.9.2s-.5.4-.6.6V88l1 .2v.8h-3.3zM227.4 89.1c-.6 0-1.1-.1-1.5-.4s-.8-.6-1-1.1-.4-1-.4-1.7v-.3c0-.6.1-1.1.4-1.6s.6-.8 1-1.1.9-.4 1.4-.4c.6 0 1 .1 1.4.4s.7.6.9 1 .3.9.3 1.5v.7h-4.1c0 .4.1.8.2 1.1s.3.6.6.7.6.3.9.3c.4 0 .7-.1 1-.2s.5-.3.8-.5l.5.8c-.2.2-.5.4-.9.6s-1 .2-1.5.2zm-1.7-3.9h2.9V85c0-.3-.1-.6-.2-.8s-.3-.4-.5-.6-.5-.2-.8-.2c-.3 0-.5.1-.7.2s-.4.4-.5.6-.1.6-.2 1zM233.2 89.1c-.5 0-1-.1-1.3-.4s-.7-.6-.8-1.1-.3-1-.3-1.6v-.1c0-.7.1-1.3.3-1.8s.5-.9.8-1.2.8-.4 1.3-.4c.4 0 .7.1 1 .2s.5.3.7.6v-2.6l-1-.2v-.7h2.2V88l1 .2v.8h-2l-.1-.8c-.2.3-.5.5-.8.7s-.6.2-1 .2zm.3-.9c.3 0 .6-.1.9-.2s.4-.4.6-.7v-2.9c-.1-.3-.3-.5-.6-.6s-.5-.2-.9-.2-.7.1-.9.3-.4.5-.5.9-.2.8-.2 1.3v.1c0 .6.1 1.1.4 1.5s.7.5 1.2.5zM240.7 89.1c-.7 0-1.2-.2-1.6-.7s-.6-1.1-.6-2.1v-2.8l-.7-.2v-.7h1.9v3.8c0 .7.1 1.1.3 1.4s.5.4.9.4.7-.1 1-.2.5-.4.6-.7v-3.7l-.8-.2v-.7h2v5.4l.7.2v.7h-1.8l-.1-.9c-.2.3-.5.6-.8.8s-.6.2-1 .2zM245.1 89v-.7l1-.2v-7.3l-1-.2v-.7h2.1v8.2l1 .2v.7h-3.1zM251.9 89.1c-.6 0-1.1-.1-1.5-.4s-.8-.6-1-1.1-.4-1-.4-1.7v-.3c0-.6.1-1.1.4-1.6s.6-.8 1-1.1.9-.4 1.4-.4c.6 0 1 .1 1.4.4s.7.6.9 1 .3.9.3 1.5v.7h-4.1c0 .4.1.8.2 1.1s.3.6.6.7.6.3.9.3c.4 0 .7-.1 1-.2s.5-.3.8-.5l.5.8c-.2.2-.5.4-.9.6s-1 .2-1.5.2zm-1.7-3.9h2.9V85c0-.3-.1-.6-.2-.8s-.3-.4-.5-.6-.5-.2-.8-.2c-.3 0-.5.1-.7.2s-.4.4-.5.6-.1.6-.2 1zM262.2 89.1c-.6 0-1.1-.1-1.6-.3s-.8-.6-1.1-1-.4-.9-.4-1.5v-4.9l-1-.2v-.7h3.1v.7l-1 .2v4.9c0 .4.1.8.2 1.1s.4.5.7.7.6.2 1 .2.7-.1 1-.2.5-.4.7-.7.2-.6.2-1.1v-4.9l-1-.2v-.7h3.1v.7l-1 .2v4.9c0 .6-.1 1.1-.4 1.6s-.6.8-1.1 1-.7.2-1.4.2zM267.1 89v-.7l1-.2v-4.5l-1-.2v-.7h2l.1.9c.2-.3.5-.6.8-.8s.7-.3 1.1-.3c.7 0 1.2.2 1.6.6s.6 1 .6 1.9v3.1l1 .2v.7h-3.1v-.7l1-.2V85c0-.6-.1-1-.3-1.2s-.6-.4-1-.4c-.3 0-.6.1-.9.2s-.5.4-.6.7V88l1 .2v.8h-3.3zM274.9 89v-.7l1-.2v-4.5l-1-.2v-.7h2.1v5.4l1 .2v.7h-3.1zm.9-7.9v-1.2h1.2v1.2h-1.2zM281.1 89.1c-.5 0-.8-.1-1.1-.4s-.4-.7-.4-1.3v-3.8h-1v-.9h1v-1.5h1.2v1.5h1.4v.9h-1.4v3.8c0 .3.1.5.2.7s.3.2.5.2h.5c.2 0 .3 0 .4-.1l.2.8c-.2.1-.4.1-.6.1h-.9z"/><path class="st0" d="M346 70.3c0-4.1 3.3-7.3 7.3-7.3h103.3c4.1 0 7.3 3.3 7.3 7.3v29.3c0 4.1-3.3 7.3-7.3 7.3H353.3c-4.1 0-7.3-3.3-7.3-7.3V70.3z"/><g><path class="st1" d="M374.5 82.1c-.5 0-1-.1-1.5-.2s-.9-.4-1.4-.7v-1.8h.9l.2 1.3c.3.2.5.3.8.4s.6.1 1 .1.7-.1 1-.2.5-.3.6-.5.2-.5.2-.7c0-.3-.1-.5-.2-.7s-.3-.4-.6-.5-.7-.3-1.2-.4c-.6-.1-1.1-.3-1.5-.5s-.7-.5-.9-.8-.3-.7-.3-1.1c0-.4.1-.8.4-1.2s.6-.6 1-.8.9-.3 1.5-.3 1.1.1 1.6.3.8.4 1.1.7V76h-.9l-.2-1.2c-.2-.1-.4-.3-.7-.4s-.6-.1-1-.1c-.3 0-.6.1-.9.2s-.4.3-.6.5-.2.5-.2.7c0 .2.1.5.2.6s.3.3.6.5.7.3 1.2.4c.9.2 1.6.6 2 1s.7 1 .7 1.6c0 .5-.1.9-.4 1.2s-.6.6-1 .8-.9.3-1.5.3zM380.7 82.1c-.5 0-.8-.1-1.1-.4s-.4-.7-.4-1.3v-3.8h-1v-.9h1v-1.5h1.2v1.5h1.4v.9h-1.4v3.8c0 .3.1.5.2.7s.3.2.5.2h.5c.2 0 .3 0 .4-.1l.2.8c-.2.1-.4.1-.6.1h-.9zM384.8 82.1c-.7 0-1.2-.2-1.5-.5s-.5-.8-.5-1.4c0-.4.1-.8.3-1.1s.5-.5 1-.7.9-.2 1.5-.2h1.1v-.6c0-.4-.1-.7-.3-.9s-.6-.3-1-.3c-.3 0-.5 0-.7.1s-.4.2-.5.3l-.1.9h-.9v-1.5c.3-.2.6-.4 1-.5s.8-.2 1.3-.2c.8 0 1.4.2 1.8.6s.7.9.7 1.6V81.2l.6.1v.7h-1.7c0-.2-.1-.3-.1-.5v-.4c-.2.3-.5.5-.8.7s-.8.3-1.2.3zm.2-.9c.4 0 .7-.1 1-.3s.5-.4.7-.7v-1.1h-1.2c-.5 0-.9.1-1.2.4s-.4.5-.4.8c0 .3.1.5.3.6s.4.3.8.3zM389.4 82v-.7l1-.2v-4.5l-1-.2v-.7h2l.1.8v.1c.2-.3.4-.6.7-.8s.6-.3.9-.3h.4c.2 0 .2 0 .3.1l-.2 1.1h-.8c-.3 0-.6 0-.8.2s-.4.4-.5.6v3.6l1 .2v.7h-3.1zM396.6 82.1c-.5 0-.8-.1-1.1-.4s-.4-.7-.4-1.3v-3.8h-1v-.9h1v-1.5h1.2v1.5h1.4v.9h-1.4v3.8c0 .3.1.5.2.7s.3.2.5.2h.5c.2 0 .3 0 .4-.1l.2.8c-.2.1-.4.1-.6.1h-.9zM398.2 82.7l3.6-9.3h1l-3.6 9.3h-1zM407.4 82.1c-.9 0-1.6-.2-2.1-.6s-1-.9-1.3-1.5-.4-1.4-.4-2.2v-.1c0-.8.2-1.6.5-2.2s.7-1.2 1.3-1.5 1.2-.6 2-.6c.6 0 1.1.1 1.5.3s.8.4 1.1.7v1.8h-1l-.1-1.3c-.1-.1-.3-.2-.4-.2s-.3-.1-.5-.2-.4-.1-.6-.1c-.6 0-1 .1-1.4.4s-.7.7-.9 1.2-.3 1.1-.3 1.7v.1c0 .7.1 1.3.3 1.8s.5.9.9 1.2.9.4 1.5.4c.3 0 .5 0 .8-.1s.5-.2.7-.3l.1-1.2h.9v1.9c-.3.2-.7.4-1.1.5s-1 .1-1.5.1zM411 82v-.7l1-.2v-4.5l-1-.2v-.7h2l.1.8v.1c.2-.3.4-.6.7-.8s.6-.3.9-.3h.4c.2 0 .2 0 .3.1l-.2 1.1h-.8c-.3 0-.6 0-.8.2s-.4.4-.5.6v3.6l1 .2v.7H411zM418.9 82.1c-.6 0-1.1-.1-1.5-.4s-.8-.6-1-1.1-.4-1-.4-1.7v-.3c0-.6.1-1.1.4-1.6s.6-.8 1-1.1.9-.4 1.4-.4c.6 0 1 .1 1.4.4s.7.6.9 1 .3.9.3 1.5v.7h-4.1c0 .4.1.8.2 1.1s.3.6.6.7.6.3.9.3c.4 0 .7-.1 1-.2s.5-.3.8-.5l.5.8c-.2.2-.5.4-.9.6s-1 .2-1.5.2zm-1.7-3.9h2.9V78c0-.3-.1-.6-.2-.8s-.3-.4-.5-.6-.5-.2-.8-.2c-.3 0-.5.1-.7.2s-.4.4-.5.6-.1.6-.2 1zM424.3 82.1c-.7 0-1.2-.2-1.5-.5s-.5-.8-.5-1.4c0-.4.1-.8.3-1.1s.5-.5 1-.7.9-.2 1.5-.2h1.1v-.6c0-.4-.1-.7-.3-.9s-.6-.3-1-.3c-.3 0-.5 0-.7.1s-.4.2-.5.3l-.1.9h-.9v-1.5c.3-.2.6-.4 1-.5s.8-.2 1.3-.2c.8 0 1.4.2 1.8.6s.7.9.7 1.6V81.2l.6.1v.7h-1.7c0-.2-.1-.3-.1-.5v-.4c-.2.3-.5.5-.8.7s-.8.3-1.2.3zm.2-.9c.4 0 .7-.1 1-.3s.5-.4.7-.7v-1.1H425c-.5 0-.9.1-1.2.4s-.4.5-.4.8c0 .3.1.5.3.6s.4.3.8.3zM431.1 82.1c-.5 0-.8-.1-1.1-.4s-.4-.7-.4-1.3v-3.8h-1v-.9h1v-1.5h1.2v1.5h1.4v.9h-1.4v3.8c0 .3.1.5.2.7s.3.2.5.2h.5c.2 0 .3 0 .4-.1l.2.8c-.2.1-.4.1-.6.1h-.9zM436 82.1c-.6 0-1.1-.1-1.5-.4s-.8-.6-1-1.1-.4-1-.4-1.7v-.3c0-.6.1-1.1.4-1.6s.6-.8 1-1.1.9-.4 1.4-.4c.6 0 1 .1 1.4.4s.7.6.9 1 .3.9.3 1.5v.7h-4.1c0 .4.1.8.2 1.1s.3.6.6.7.6.3.9.3c.4 0 .7-.1 1-.2s.5-.3.8-.5l.5.8c-.2.2-.5.4-.9.6s-1 .2-1.5.2zm-1.6-3.9h2.9V78c0-.3-.1-.6-.2-.8s-.3-.4-.5-.6-.5-.2-.8-.2c-.3 0-.5.1-.7.2s-.4.4-.5.6-.2.6-.2 1z"/></g><g><path class="st1" d="M381.2 97.1c-.6 0-1-.1-1.5-.3s-.8-.5-1.1-.9-.5-.8-.7-1.4-.2-1.1-.2-1.7v-.1c0-.6.1-1.2.2-1.7s.4-1 .7-1.4.7-.7 1.1-.9.9-.3 1.5-.3 1.1.1 1.5.3.8.5 1.1.9.5.8.7 1.4.2 1.1.2 1.7v.1c0 .6-.1 1.2-.2 1.7s-.4 1-.7 1.4-.7.7-1.1.9-.9.3-1.5.3zm0-.9c.6 0 1-.1 1.4-.4s.6-.7.8-1.2.2-1.1.2-1.8v-.1c0-.7-.1-1.2-.2-1.7s-.4-.9-.8-1.2-.8-.4-1.4-.4c-.5 0-.9.1-1.3.4s-.6.7-.8 1.2-.3 1.1-.3 1.7v.1c0 .7.1 1.2.3 1.8s.5.9.8 1.2.8.4 1.3.4zM385.4 99.4v-.7l.9-.2v-7l-1-.2v-.7h1.9l.1.8c.2-.3.5-.5.8-.7s.7-.2 1.1-.2c.5 0 1 .1 1.3.4s.7.7.8 1.2.3 1.1.3 1.8v.1c0 .6-.1 1.1-.3 1.6s-.5.8-.8 1.1-.8.4-1.3.4c-.4 0-.7-.1-1-.2s-.5-.3-.8-.6v2.2l1 .2v.7h-3zm3.5-3.2c.5 0 1-.2 1.2-.6s.4-.9.4-1.6v-.1c0-.5-.1-.9-.2-1.3s-.3-.7-.6-.9-.6-.3-.9-.3c-.3 0-.6.1-.8.2s-.4.4-.6.6v3.1c.1.3.3.5.6.6s.5.3.9.3zM395.5 97.1c-.6 0-1.1-.1-1.5-.4s-.8-.6-1-1.1-.4-1-.4-1.7v-.3c0-.6.1-1.1.4-1.6s.6-.8 1-1.1.9-.4 1.4-.4c.6 0 1 .1 1.4.4s.7.6.9 1 .3.9.3 1.5v.7h-4.1c0 .4.1.8.2 1.1s.3.6.6.7.6.3.9.3c.4 0 .7-.1 1-.2s.5-.3.8-.5l.5.8c-.2.2-.5.4-.9.6s-1 .2-1.5.2zm-1.7-3.9h2.9V93c0-.3-.1-.6-.2-.8s-.3-.4-.5-.6-.5-.2-.8-.2c-.3 0-.5.1-.7.2s-.4.4-.5.6-.2.6-.2 1zM398.8 97v-.7l1-.2v-4.5l-1-.2v-.7h2l.1.8v.1c.2-.3.4-.6.7-.8s.6-.3.9-.3h.4c.2 0 .2 0 .3.1l-.2 1.1h-.8c-.3 0-.6 0-.8.2s-.4.4-.5.6v3.6l1 .2v.7h-3.1zM405.9 97.1c-.7 0-1.2-.2-1.5-.5s-.5-.8-.5-1.4c0-.4.1-.8.3-1.1s.5-.5 1-.7.9-.2 1.5-.2h1.1v-.6c0-.4-.1-.7-.3-.9s-.6-.3-1-.3c-.3 0-.5 0-.7.1s-.4.2-.5.3l-.1.9h-.9v-1.5c.3-.2.6-.4 1-.5s.8-.2 1.3-.2c.8 0 1.4.2 1.8.6s.7.9.7 1.6V96.2l.6.1v.7H408c0-.2-.1-.3-.1-.5v-.4c-.2.3-.5.5-.8.7s-.8.3-1.2.3zm.2-.9c.4 0 .7-.1 1-.3s.5-.4.7-.7v-1.1h-1.2c-.5 0-.9.1-1.2.4s-.4.5-.4.8c0 .3.1.5.3.6s.4.3.8.3zM412.7 97.1c-.5 0-.8-.1-1.1-.4s-.4-.7-.4-1.3v-3.8h-1v-.9h1v-1.5h1.2v1.5h1.4v.9h-1.4v3.8c0 .3.1.5.2.7s.3.2.5.2h.5c.2 0 .3 0 .4-.1l.2.8c-.2.1-.4.1-.6.1h-.9zM414.7 97v-.7l1-.2v-4.5l-1-.2v-.7h2.1v5.4l1 .2v.7h-3.1zm.9-7.9v-1.2h1.2v1.2h-1.2zM421.5 97.1c-.6 0-1.1-.1-1.5-.4s-.8-.7-1-1.1-.3-1-.3-1.7v-.1c0-.6.1-1.2.3-1.7s.6-.9 1-1.1.9-.4 1.5-.4 1.1.1 1.5.4.8.7 1 1.1.3 1 .3 1.7v.1c0 .6-.1 1.2-.3 1.7s-.6.9-1 1.1-1 .4-1.5.4zm0-.9c.4 0 .7-.1.9-.3s.4-.5.6-.8.2-.7.2-1.2v-.1c0-.4-.1-.8-.2-1.2s-.3-.6-.6-.8-.6-.3-.9-.3c-.4 0-.7.1-.9.3s-.4.5-.6.8-.2.7-.2 1.2v.1c0 .4.1.8.2 1.2s.3.6.6.8.5.3.9.3zM425.2 97v-.7l1-.2v-4.5l-1-.2v-.7h2l.1.9c.2-.3.5-.6.8-.8s.7-.3 1.1-.3c.7 0 1.2.2 1.6.6s.6 1 .6 1.9v3.1l1 .2v.7h-3.1v-.7l1-.2V93c0-.6-.1-1-.3-1.2s-.6-.4-1-.4c-.3 0-.6.1-.9.2s-.5.4-.6.7V96l1 .2v.8h-3.3z"/></g><path class="st0" d="M346 134.3c0-4.1 3.3-7.3 7.3-7.3h103.3c4.1 0 7.3 3.3 7.3 7.3v29.3c0 4.1-3.3 7.3-7.3 7.3H353.3c-4.1 0-7.3-3.3-7.3-7.3v-29.3z"/><g><path class="st1" d="M361.7 145v-.7l.6-.1 3-7.7h1l2.9 7.7.6.1v.7h-2.4v-.7l.6-.1-.6-1.6H364l-.6 1.6.6.1v.7h-2.3zm2.7-3.4h2.7l-1.3-3.5-.1-.2-.1.2-1.2 3.5zM373.2 145.1c-.5 0-1-.1-1.3-.4s-.7-.6-.8-1.1-.3-1-.3-1.6v-.1c0-.7.1-1.3.3-1.8s.5-.9.8-1.2.8-.4 1.3-.4c.4 0 .7.1 1 .2s.5.3.7.6v-2.6l-1-.2v-.7h2.2v8.2l1 .2v.7h-2l-.1-.8c-.2.3-.5.5-.8.7s-.6.3-1 .3zm.3-.9c.3 0 .6-.1.9-.2s.4-.4.6-.7v-2.9c-.1-.3-.3-.5-.6-.6s-.5-.2-.9-.2-.7.1-.9.3-.4.5-.5.9-.2.8-.2 1.3v.1c0 .6.1 1.1.4 1.5s.6.5 1.2.5zM380.3 145.1c-.5 0-1-.1-1.3-.4s-.7-.6-.8-1.1-.3-1-.3-1.6v-.1c0-.7.1-1.3.3-1.8s.5-.9.8-1.2.8-.4 1.3-.4c.4 0 .7.1 1 .2s.5.3.7.6v-2.6l-1-.2v-.7h2.2v8.2l1 .2v.7h-2l-.1-.8c-.2.3-.5.5-.8.7s-.6.3-1 .3zm.3-.9c.3 0 .6-.1.9-.2s.4-.4.6-.7v-2.9c-.1-.3-.3-.5-.6-.6s-.5-.2-.9-.2-.7.1-.9.3-.4.5-.5.9-.2.8-.2 1.3v.1c0 .6.1 1.1.4 1.5s.7.5 1.2.5zM390.2 145.1c-.5 0-.8-.1-1.1-.4s-.4-.7-.4-1.3v-3.8h-1v-.9h1v-1.5h1.2v1.5h1.4v.9h-1.4v3.8c0 .3.1.5.2.7s.3.2.5.2h.5c.2 0 .3 0 .4-.1l.2.8c-.2.1-.4.1-.6.1h-.9zM395.1 145.1c-.6 0-1.1-.1-1.5-.4s-.8-.7-1-1.1-.3-1-.3-1.7v-.1c0-.6.1-1.2.3-1.7s.6-.9 1-1.1.9-.4 1.5-.4 1.1.1 1.5.4.8.7 1 1.1.3 1 .3 1.7v.1c0 .6-.1 1.2-.3 1.7s-.6.9-1 1.1-.9.4-1.5.4zm0-.9c.4 0 .7-.1.9-.3s.4-.5.6-.8.2-.7.2-1.2v-.1c0-.4-.1-.8-.2-1.2s-.3-.6-.6-.8-.6-.3-.9-.3c-.4 0-.7.1-.9.3s-.4.5-.6.8-.2.7-.2 1.2v.1c0 .4.1.8.2 1.2s.3.6.6.8.5.3.9.3zM401.9 145v-.7l1-.2v-6.7l-1-.2v-.7h6.3v2.1h-.9l-.1-1.2H404v2.8h3.1v.9H404v3.1h3.3l.1-1.2h.9v2h-6.4zM409.3 145v-.7l.7-.1 1.9-2.3-1.9-2.3-.6-.1v-.7h2.5v.7l-.6.1 1.3 1.6 1.3-1.6-.7-.1v-.7h2.4v.7l-.6.1-1.7 2.2 2 2.3.7.1v.7h-2.7v-.7l.8-.1-1.4-1.7-1.3 1.7.7.1v.7h-2.8zM416.4 145v-.7l1-.2v-4.5l-1-.2v-.7h2.1v5.4l1 .2v.7h-3.1zm.9-7.9v-1.2h1.2v1.2h-1.2zM422.9 145.1c-.4 0-.8 0-1.2-.1s-.8-.2-1.2-.4v-1.5h.9l.2.9c.2.1.4.2.6.2s.4.1.7.1c.5 0 .8-.1 1-.3s.3-.4.3-.7c0-.2-.1-.5-.3-.6s-.6-.3-1.1-.4c-.8-.2-1.3-.4-1.7-.7s-.5-.7-.5-1.2c0-.3.1-.7.3-.9s.5-.5.8-.6.8-.2 1.2-.2c.5 0 .9.1 1.2.2s.6.3.9.4l.1 1.4h-.9l-.2-.8c-.1-.1-.3-.2-.5-.2s-.4-.1-.6-.1c-.4 0-.7.1-.9.3s-.3.4-.3.6c0 .1 0 .3.1.4s.2.2.4.3.5.2.8.3c.9.2 1.5.5 1.8.8s.5.7.5 1.2-.2 1-.6 1.3-1 .3-1.8.3zM428.6 145.1c-.5 0-.8-.1-1.1-.4s-.4-.7-.4-1.3v-3.8h-1v-.9h1v-1.5h1.2v1.5h1.4v.9h-1.4v3.8c0 .3.1.5.2.7s.3.2.5.2h.5c.2 0 .3 0 .4-.1l.2.8c-.2.1-.4.1-.6.1h-.9zM430.5 145v-.7l1-.2v-4.5l-1-.2v-.7h2.1v5.4l1 .2v.7h-3.1zm.9-7.9v-1.2h1.2v1.2h-1.2zM434.4 145v-.7l1-.2v-4.5l-1-.2v-.7h2l.1.9c.2-.3.5-.6.8-.8s.7-.3 1.1-.3c.7 0 1.2.2 1.6.6s.6 1 .6 1.9v3.1l1 .2v.7h-3.1v-.7l1-.2V141c0-.6-.1-1-.3-1.2s-.6-.4-1-.4c-.3 0-.6.1-.9.2s-.5.4-.6.7v3.7l1 .2v.7h-3.3zM445.1 147.6c-.3 0-.6 0-1-.1s-.7-.2-.9-.3l.3-.9c.2.1.5.2.8.3s.6.1.9.1c.5 0 .9-.1 1.1-.4s.4-.7.4-1.2v-.6c-.2.3-.5.5-.7.6s-.6.2-1 .2c-.5 0-1-.1-1.3-.4s-.7-.6-.9-1.1-.3-1-.3-1.6v-.1c0-.7.1-1.3.3-1.8s.5-.9.9-1.2.8-.4 1.3-.4c.4 0 .7.1 1 .2s.6.4.8.7l.1-.8h1v6.3c0 .5-.1 1-.3 1.4s-.5.7-.9.9-1 .2-1.6.2zm0-3.4c.3 0 .6-.1.9-.2s.4-.4.6-.7v-2.9c-.1-.3-.3-.5-.6-.6s-.5-.2-.9-.2-.7.1-.9.3-.4.5-.5.9-.2.8-.2 1.3v.1c0 .6.1 1.1.4 1.5s.7.5 1.2.5zm2.4-4.6l-.5-.9h1.4v.7l-.9.2z"/></g><g><path class="st1" d="M381.2 160.1c-.6 0-1-.1-1.5-.3s-.8-.5-1.1-.9-.5-.8-.7-1.4-.2-1.1-.2-1.7v-.1c0-.6.1-1.2.2-1.7s.4-1 .7-1.4.7-.7 1.1-.9.9-.3 1.5-.3 1.1.1 1.5.3.8.5 1.1.9.5.8.7 1.4.2 1.1.2 1.7v.1c0 .6-.1 1.2-.2 1.7s-.4 1-.7 1.4-.7.7-1.1.9-.9.3-1.5.3zm0-.9c.6 0 1-.1 1.4-.4s.6-.7.8-1.2.2-1.1.2-1.8v-.1c0-.7-.1-1.2-.2-1.7s-.4-.9-.8-1.2-.8-.4-1.4-.4c-.5 0-.9.1-1.3.4s-.6.7-.8 1.2-.3 1.1-.3 1.7v.1c0 .7.1 1.2.3 1.8s.5.9.8 1.2.8.4 1.3.4zM385.4 162.4v-.7l.9-.2v-7l-1-.2v-.7h1.9l.1.8c.2-.3.5-.5.8-.7s.7-.2 1.1-.2c.5 0 1 .1 1.3.4s.7.7.8 1.2.3 1.1.3 1.8v.1c0 .6-.1 1.1-.3 1.6s-.5.8-.8 1.1-.8.4-1.3.4c-.4 0-.7-.1-1-.2s-.5-.3-.8-.6v2.2l1 .2v.7h-3zm3.5-3.2c.5 0 1-.2 1.2-.6s.4-.9.4-1.6v-.1c0-.5-.1-.9-.2-1.3s-.3-.7-.6-.9-.6-.3-.9-.3c-.3 0-.6.1-.8.2s-.4.4-.6.6v3.1c.1.3.3.5.6.6s.5.3.9.3zM395.5 160.1c-.6 0-1.1-.1-1.5-.4s-.8-.6-1-1.1-.4-1-.4-1.7v-.3c0-.6.1-1.1.4-1.6s.6-.8 1-1.1.9-.4 1.4-.4c.6 0 1 .1 1.4.4s.7.6.9 1 .3.9.3 1.5v.7h-4.1c0 .4.1.8.2 1.1s.3.6.6.7.6.3.9.3c.4 0 .7-.1 1-.2s.5-.3.8-.5l.5.8c-.2.2-.5.4-.9.6s-1 .2-1.5.2zm-1.7-3.9h2.9v-.2c0-.3-.1-.6-.2-.8s-.3-.4-.5-.6-.5-.2-.8-.2c-.3 0-.5.1-.7.2s-.4.4-.5.6-.2.6-.2 1zM398.8 160v-.7l1-.2v-4.5l-1-.2v-.7h2l.1.8v.1c.2-.3.4-.6.7-.8s.6-.3.9-.3h.4c.2 0 .2 0 .3.1l-.2 1.1h-.8c-.3 0-.6 0-.8.2s-.4.4-.5.6v3.6l1 .2v.7h-3.1zM405.9 160.1c-.7 0-1.2-.2-1.5-.5s-.5-.8-.5-1.4c0-.4.1-.8.3-1.1s.5-.5 1-.7.9-.2 1.5-.2h1.1v-.6c0-.4-.1-.7-.3-.9s-.6-.3-1-.3c-.3 0-.5 0-.7.1s-.4.2-.5.3l-.1.9h-.9v-1.5c.3-.2.6-.4 1-.5s.8-.2 1.3-.2c.8 0 1.4.2 1.8.6s.7.9.7 1.6V159.2l.6.1v.7H408c0-.2-.1-.3-.1-.5v-.4c-.2.3-.5.5-.8.7s-.8.3-1.2.3zm.2-.9c.4 0 .7-.1 1-.3s.5-.4.7-.7v-1.1h-1.2c-.5 0-.9.1-1.2.4s-.4.5-.4.8c0 .3.1.5.3.6s.4.3.8.3zM412.7 160.1c-.5 0-.8-.1-1.1-.4s-.4-.7-.4-1.3v-3.8h-1v-.9h1v-1.5h1.2v1.5h1.4v.9h-1.4v3.8c0 .3.1.5.2.7s.3.2.5.2h.5c.2 0 .3 0 .4-.1l.2.8c-.2.1-.4.1-.6.1h-.9zM414.7 160v-.7l1-.2v-4.5l-1-.2v-.7h2.1v5.4l1 .2v.7h-3.1zm.9-7.9v-1.2h1.2v1.2h-1.2zM421.5 160.1c-.6 0-1.1-.1-1.5-.4s-.8-.7-1-1.1-.3-1-.3-1.7v-.1c0-.6.1-1.2.3-1.7s.6-.9 1-1.1.9-.4 1.5-.4 1.1.1 1.5.4.8.7 1 1.1.3 1 .3 1.7v.1c0 .6-.1 1.2-.3 1.7s-.6.9-1 1.1-1 .4-1.5.4zm0-.9c.4 0 .7-.1.9-.3s.4-.5.6-.8.2-.7.2-1.2v-.1c0-.4-.1-.8-.2-1.2s-.3-.6-.6-.8-.6-.3-.9-.3c-.4 0-.7.1-.9.3s-.4.5-.6.8-.2.7-.2 1.2v.1c0 .4.1.8.2 1.2s.3.6.6.8.5.3.9.3zM425.2 160v-.7l1-.2v-4.5l-1-.2v-.7h2l.1.9c.2-.3.5-.6.8-.8s.7-.3 1.1-.3c.7 0 1.2.2 1.6.6s.6 1 .6 1.9v3.1l1 .2v.7h-3.1v-.7l1-.2V156c0-.6-.1-1-.3-1.2s-.6-.4-1-.4c-.3 0-.6.1-.9.2s-.5.4-.6.7v3.7l1 .2v.7h-3.3z"/></g><path class="st0" d="M507 70.3c0-4.1 3.3-7.3 7.3-7.3h116.3c4.1 0 7.3 3.3 7.3 7.3v29.3c0 4.1-3.3 7.3-7.3 7.3H514.3c-4.1 0-7.3-3.3-7.3-7.3V70.3z"/><g><path class="st1" d="M524.6 81v-.7l.6-.1 3-7.7h1l2.9 7.7.6.1v.7h-2.4v-.7l.6-.1-.6-1.6h-3.4l-.6 1.6.6.1v.7h-2.3zm2.7-3.4h2.7l-1.3-3.5-.1-.2-.1.2-1.2 3.5zM536.1 81.1c-.5 0-1-.1-1.3-.4s-.7-.6-.8-1.1-.3-1-.3-1.6v-.1c0-.7.1-1.3.3-1.8s.5-.9.8-1.2.8-.4 1.3-.4c.4 0 .7.1 1 .2s.5.3.7.6v-2.6l-1-.2v-.7h2.2V80l1 .2v.8h-2l-.1-.8c-.2.3-.5.5-.8.7s-.6.2-1 .2zm.3-.9c.3 0 .6-.1.9-.2s.4-.4.6-.7v-2.9c-.1-.3-.3-.5-.6-.6s-.5-.2-.9-.2-.7.1-.9.3-.4.5-.5.9-.2.8-.2 1.3v.1c0 .6.1 1.1.4 1.5s.6.5 1.2.5zM543.2 81.1c-.5 0-1-.1-1.3-.4s-.7-.6-.8-1.1-.3-1-.3-1.6v-.1c0-.7.1-1.3.3-1.8s.5-.9.8-1.2.8-.4 1.3-.4c.4 0 .7.1 1 .2s.5.3.7.6v-2.6l-1-.2v-.7h2.2V80l1 .2v.8h-2l-.1-.8c-.2.3-.5.5-.8.7s-.6.2-1 .2zm.3-.9c.3 0 .6-.1.9-.2s.4-.4.6-.7v-2.9c-.1-.3-.3-.5-.6-.6s-.5-.2-.9-.2-.7.1-.9.3-.4.5-.5.9-.2.8-.2 1.3v.1c0 .6.1 1.1.4 1.5s.7.5 1.2.5zM550.9 81v-.7l1-.2v-6.7l-1-.2v-.7h3.7c.9 0 1.6.2 2.1.6s.8 1 .8 1.7c0 .4-.1.7-.4 1s-.6.5-1 .7c.3.1.6.2.9.4s.4.5.6.8.2.6.2 1c0 .8-.3 1.4-.8 1.8s-1.2.6-2.1.6h-4zm2.1-4.9h1.9c.4 0 .7-.1 1-.4s.4-.6.4-1c0-.5-.1-.8-.4-1s-.7-.3-1.3-.3H553v2.7zm0 4h1.9c.5 0 .9-.1 1.2-.4s.4-.6.4-1.1c0-.3-.1-.6-.2-.9s-.3-.4-.5-.6-.5-.2-.8-.2h-2v3.2zM558.6 81v-.7l1-.2v-4.5l-1-.2v-.7h2l.1.8v.1c.2-.3.4-.6.7-.8s.6-.3.9-.3h.4c.2 0 .2 0 .3.1l-.2 1.1h-.8c-.3 0-.6 0-.8.2s-.4.4-.5.6v3.6l1 .2v.7h-3.1zM566.5 81.1c-.6 0-1.1-.1-1.5-.4s-.8-.6-1-1.1-.4-1-.4-1.7v-.3c0-.6.1-1.1.4-1.6s.6-.8 1-1.1.9-.4 1.4-.4c.6 0 1 .1 1.4.4s.7.6.9 1 .3.9.3 1.5v.7h-4.1c0 .4.1.8.2 1.1s.3.6.6.7.6.3.9.3c.4 0 .7-.1 1-.2s.5-.3.8-.5l.5.8c-.2.2-.5.4-.9.6s-1 .2-1.5.2zm-1.7-3.9h2.9V77c0-.3-.1-.6-.2-.8s-.3-.4-.5-.6-.5-.2-.8-.2c-.3 0-.5.1-.7.2s-.4.4-.5.6-.1.6-.2 1zM571.9 81.1c-.7 0-1.2-.2-1.5-.5s-.5-.8-.5-1.4c0-.4.1-.8.3-1.1s.5-.5 1-.7.9-.2 1.5-.2h1.1v-.6c0-.4-.1-.7-.3-.9s-.6-.3-1-.3c-.3 0-.5 0-.7.1s-.4.2-.5.3l-.1.9h-.9v-1.5c.3-.2.6-.4 1-.5s.8-.2 1.3-.2c.8 0 1.4.2 1.8.6s.7.9.7 1.6V80.2l.6.1v.7H574c0-.2-.1-.3-.1-.5v-.4c-.2.3-.5.5-.8.7s-.8.3-1.2.3zm.2-.9c.4 0 .7-.1 1-.3s.5-.4.7-.7v-1.1h-1.2c-.5 0-.9.1-1.2.4s-.4.5-.4.8c0 .3.1.5.3.6s.4.3.8.3zM576.4 81v-.7l1-.2v-7.3l-1-.2v-.7h2.1v8.2l1 .2v.7h-3.1zm2-1.8l-.4-.9 2.8-2.7-.7-.1v-.7h2.7v.7l-.8.2-3.6 3.5zm2.1 1.8v-.7l.6-.1-1.8-2.4.6-.9 2.6 3.2.9.1v.8h-2.9z"/></g><g><path class="st1" d="M584.4 77.8v-.9h2.9v.9h-2.9z"/></g><g><path class="st1" d="M591.1 81.1c-.5 0-1-.1-1.3-.4s-.7-.6-.8-1.1-.3-1-.3-1.6v-.1c0-.7.1-1.3.3-1.8s.5-.9.8-1.2.8-.4 1.3-.4c.4 0 .7.1 1 .2s.5.3.7.6v-2.6l-1-.2v-.7h2.2V80l1 .2v.8h-2l-.1-.8c-.2.3-.5.5-.8.7s-.6.2-1 .2zm.3-.9c.3 0 .6-.1.9-.2s.4-.4.6-.7v-2.9c-.1-.3-.3-.5-.6-.6s-.5-.2-.9-.2-.7.1-.9.3-.4.5-.5.9-.2.8-.2 1.3v.1c0 .6.1 1.1.4 1.5s.6.5 1.2.5zM598.6 81.1c-.6 0-1.1-.1-1.5-.4s-.8-.7-1-1.1-.3-1-.3-1.7v-.1c0-.6.1-1.2.3-1.7s.6-.9 1-1.1.9-.4 1.5-.4 1.1.1 1.5.4.8.7 1 1.1.3 1 .3 1.7v.1c0 .6-.1 1.2-.3 1.7s-.6.9-1 1.1-.9.4-1.5.4zm0-.9c.4 0 .7-.1.9-.3s.4-.5.6-.8.2-.7.2-1.2v-.1c0-.4-.1-.8-.2-1.2s-.3-.6-.6-.8-.6-.3-.9-.3c-.4 0-.7.1-.9.3s-.4.5-.6.8-.2.7-.2 1.2v.1c0 .4.1.8.2 1.2s.3.6.6.8.5.3.9.3zM604.6 81l-1.7-5.5-.7-.1v-.7h2.6v.7l-.8.1.9 3.2.2.8.3-.8 1.4-4h1l1.3 4 .3.9.3-.9.9-3.2-.8-.1v-.7h2.6v.7l-.7.1L610 81h-1.1l-1.3-3.8-.3-1-.3 1-1.4 3.8h-1zM613 81v-.7l1-.2v-4.5l-1-.2v-.7h2l.1.9c.2-.3.5-.6.8-.8s.7-.3 1.1-.3c.7 0 1.2.2 1.6.6s.6 1 .6 1.9v3.1l1 .2v.7h-3.1v-.7l1-.2V77c0-.6-.1-1-.3-1.2s-.6-.4-1-.4c-.3 0-.6.1-.9.2s-.5.4-.6.7V80l1 .2v.8H613z"/></g><g><path class="st1" d="M530.7 96v-.7l1-.2v-6.7l-1-.2v-.7h3.1v.7l-1 .2v6.7l1 .2v.7h-3.1zM534.7 96v-.7l1-.2v-4.5l-1-.2v-.7h2l.1.9c.2-.3.5-.6.8-.8s.7-.3 1.1-.3c.7 0 1.2.2 1.6.6s.6 1 .6 1.9v3.1l1 .2v.7h-3.1v-.7l1-.2V92c0-.6-.1-1-.3-1.2s-.6-.4-1-.4c-.3 0-.6.1-.9.2s-.5.4-.6.7V95l1 .2v.8h-3.3zM542.5 96v-.7l1-.2v-4.6h-1v-.9h1v-.8c0-.7.2-1.2.5-1.6s.8-.6 1.5-.6h.4c.1 0 .3.1.5.1l-.1.9h-.6c-.3 0-.6.1-.8.3s-.2.5-.2.9v.8h1.4v.9h-1.4v4.6l1.1.2v.7h-3.3zM549.6 96.1c-.6 0-1.1-.1-1.5-.4s-.8-.7-1-1.1-.3-1-.3-1.7v-.1c0-.6.1-1.2.3-1.7s.6-.9 1-1.1.9-.4 1.5-.4 1.1.1 1.5.4.8.7 1 1.1.3 1 .3 1.7v.1c0 .6-.1 1.2-.3 1.7s-.6.9-1 1.1-.9.4-1.5.4zm0-.9c.4 0 .7-.1.9-.3s.4-.5.6-.8.2-.7.2-1.2v-.1c0-.4-.1-.8-.2-1.2s-.3-.6-.6-.8-.6-.3-.9-.3c-.4 0-.7.1-.9.3s-.4.5-.6.8-.2.7-.2 1.2v.1c0 .4.1.8.2 1.2s.3.6.6.8.6.3.9.3zM558.6 96.1c-.5 0-.8-.1-1.1-.4s-.4-.7-.4-1.3v-3.8h-1v-.9h1v-1.5h1.2v1.5h1.4v.9h-1.4v3.8c0 .3.1.5.2.7s.3.2.5.2h.5c.2 0 .3 0 .4-.1l.2.8c-.2.1-.4.1-.6.1h-.9zM563.5 96.1c-.6 0-1.1-.1-1.5-.4s-.8-.7-1-1.1-.3-1-.3-1.7v-.1c0-.6.1-1.2.3-1.7s.6-.9 1-1.1.9-.4 1.5-.4 1.1.1 1.5.4.8.7 1 1.1.3 1 .3 1.7v.1c0 .6-.1 1.2-.3 1.7s-.6.9-1 1.1-.9.4-1.5.4zm0-.9c.4 0 .7-.1.9-.3s.4-.5.6-.8.2-.7.2-1.2v-.1c0-.4-.1-.8-.2-1.2s-.3-.6-.6-.8-.6-.3-.9-.3c-.4 0-.7.1-.9.3s-.4.5-.6.8-.2.7-.2 1.2v.1c0 .4.1.8.2 1.2s.3.6.6.8.5.3.9.3z"/></g><g><path class="st1" d="M570.3 96v-.7l1-.2v-6.7l-1-.2v-.7h3.4c.8 0 1.4.2 2 .5s1 .9 1.3 1.5.5 1.3.5 2.2v.2c0 .8-.2 1.5-.5 2.1s-.7 1.1-1.3 1.5-1.2.5-2 .5h-3.4zm2.1-.9h1.2c.5 0 1-.1 1.4-.4s.7-.7.9-1.2.3-1 .3-1.6v-.2c0-.6-.1-1.2-.3-1.7s-.5-.9-.9-1.2-.8-.4-1.4-.4h-1.2v6.7zM580.3 96.1c-.7 0-1.2-.2-1.5-.5s-.5-.8-.5-1.4c0-.4.1-.8.3-1.1s.5-.5 1-.7.9-.2 1.5-.2h1.1v-.6c0-.4-.1-.7-.3-.9s-.6-.3-1-.3c-.3 0-.5 0-.7.1s-.4.2-.5.3l-.1.9h-.9v-1.5c.3-.2.6-.4 1-.5s.8-.2 1.3-.2c.8 0 1.4.2 1.8.6s.7.9.7 1.6V95.2l.6.1v.7h-1.7c0-.2-.1-.3-.1-.5v-.4c-.2.3-.5.5-.8.7s-.8.3-1.2.3zm.2-.9c.4 0 .7-.1 1-.3s.5-.4.7-.7v-1.1H581c-.5 0-.9.1-1.2.4s-.4.5-.4.8c0 .3.1.5.3.6s.4.3.8.3zM587.1 96.1c-.5 0-.8-.1-1.1-.4s-.4-.7-.4-1.3v-3.8h-1v-.9h1v-1.5h1.2v1.5h1.4v.9h-1.4v3.8c0 .3.1.5.2.7s.3.2.5.2h.5c.2 0 .3 0 .4-.1l.2.8c-.2.1-.4.1-.6.1h-.9zM591.2 96.1c-.7 0-1.2-.2-1.5-.5s-.5-.8-.5-1.4c0-.4.1-.8.3-1.1s.5-.5 1-.7.9-.2 1.5-.2h1.1v-.6c0-.4-.1-.7-.3-.9s-.6-.3-1-.3c-.3 0-.5 0-.7.1s-.4.2-.5.3l-.1.9h-.9v-1.5c.3-.2.6-.4 1-.5s.8-.2 1.3-.2c.8 0 1.4.2 1.8.6s.7.9.7 1.6V95.2l.6.1v.7h-1.7c0-.2-.1-.3-.1-.5v-.4c-.2.3-.5.5-.8.7s-.8.3-1.2.3zm.2-.9c.4 0 .7-.1 1-.3s.5-.4.7-.7v-1.1h-1.2c-.5 0-.9.1-1.2.4s-.4.5-.4.8c0 .3.1.5.3.6s.4.3.8.3zM599.1 96.1c-.4 0-.8-.1-1.1-.2s-.6-.4-.8-.7l-.1.8h-1v-8.2l-1-.2v-.7h2.1v3.6c.2-.3.4-.5.7-.6s.6-.2 1-.2c.5 0 1 .1 1.3.4s.7.7.8 1.2.3 1.1.3 1.8v.1c0 .6-.1 1.1-.3 1.6s-.5.8-.8 1.1-.6.2-1.1.2zm-.3-.9c.5 0 .9-.2 1.2-.6s.4-.9.4-1.5V93c0-.5-.1-.9-.2-1.3s-.3-.7-.5-.9-.5-.3-.9-.3-.7.1-.9.3-.4.4-.6.7v2.8c.1.3.3.5.6.7s.6.2.9.2zM605.1 96.1c-.4 0-.8 0-1.2-.1s-.8-.2-1.2-.4v-1.5h.9l.2.9c.2.1.4.2.6.2s.4.1.7.1c.5 0 .8-.1 1-.3s.3-.4.3-.7c0-.2-.1-.5-.3-.6s-.6-.3-1.1-.4c-.8-.2-1.3-.4-1.7-.7s-.5-.7-.5-1.2c0-.3.1-.7.3-.9s.5-.5.8-.6.8-.2 1.2-.2c.5 0 .9.1 1.2.2s.6.3.9.4l.1 1.4h-.9l-.2-.8c-.1-.1-.3-.2-.5-.2s-.4-.1-.6-.1c-.4 0-.7.1-.9.3s-.3.4-.3.6c0 .1 0 .3.1.4s.2.2.4.3.5.2.8.3c.9.2 1.5.5 1.8.8s.5.7.5 1.2-.2 1-.6 1.3-1 .3-1.8.3zM611.4 96.1c-.6 0-1.1-.1-1.5-.4s-.8-.6-1-1.1-.4-1-.4-1.7v-.3c0-.6.1-1.1.4-1.6s.6-.8 1-1.1.9-.4 1.4-.4c.6 0 1 .1 1.4.4s.7.6.9 1 .3.9.3 1.5v.7h-4.1c0 .4.1.8.2 1.1s.3.6.6.7.6.3.9.3c.4 0 .7-.1 1-.2s.5-.3.8-.5l.5.8c-.2.2-.5.4-.9.6s-1 .2-1.5.2zm-1.7-3.9h2.9V92c0-.3-.1-.6-.2-.8s-.3-.4-.5-.6-.5-.2-.8-.2c-.3 0-.5.1-.7.2s-.4.4-.5.6-.1.6-.2 1z"/></g><path class="st0" d="M695 70.3c0-4.1 3.3-7.3 7.3-7.3h103.3c4.1 0 7.3 3.3 7.3 7.3v29.3c0 4.1-3.3 7.3-7.3 7.3H702.3c-4.1 0-7.3-3.3-7.3-7.3V70.3z"/><g><path class="st1" d="M719.1 81v-.7l.6-.1 3-7.7h1l2.9 7.7.6.1v.7h-2.4v-.7l.6-.1-.6-1.6h-3.4l-.6 1.6.6.1v.7h-2.3zm2.7-3.4h2.7l-1.3-3.5-.1-.2-.1.2-1.2 3.5zM730.6 81.1c-.5 0-1-.1-1.3-.4s-.7-.6-.8-1.1-.3-1-.3-1.6v-.1c0-.7.1-1.3.3-1.8s.5-.9.8-1.2.8-.4 1.3-.4c.4 0 .7.1 1 .2s.5.3.7.6v-2.6l-1-.2v-.7h2.2V80l1 .2v.8h-2l-.1-.8c-.2.3-.5.5-.8.7s-.6.2-1 .2zm.3-.9c.3 0 .6-.1.9-.2s.4-.4.6-.7v-2.9c-.1-.3-.3-.5-.6-.6s-.5-.2-.9-.2-.7.1-.9.3-.4.5-.5.9-.2.8-.2 1.3v.1c0 .6.1 1.1.4 1.5s.7.5 1.2.5zM737.7 81.1c-.5 0-1-.1-1.3-.4s-.7-.6-.8-1.1-.3-1-.3-1.6v-.1c0-.7.1-1.3.3-1.8s.5-.9.8-1.2.8-.4 1.3-.4c.4 0 .7.1 1 .2s.5.3.7.6v-2.6l-1-.2v-.7h2.2V80l1 .2v.8h-2l-.1-.8c-.2.3-.5.5-.8.7s-.6.2-1 .2zm.3-.9c.3 0 .6-.1.9-.2s.4-.4.6-.7v-2.9c-.1-.3-.3-.5-.6-.6s-.5-.2-.9-.2-.7.1-.9.3-.4.5-.5.9-.2.8-.2 1.3v.1c0 .6.1 1.1.4 1.5s.7.5 1.2.5zM742 81.7l3.6-9.3h1l-3.6 9.3h-1zM747.3 81v-.7l1-.2v-6.7l-1-.2v-.7h3.8c.6 0 1.1.1 1.6.3s.8.5 1 .8.3.8.3 1.3-.1.9-.3 1.3-.5.6-.9.8-.9.3-1.4.3h-1.9v2.9l1 .2v.6h-3.2zm2.1-4.7h1.6c.6 0 1.1-.1 1.4-.4s.4-.6.4-1.1c0-.4-.1-.8-.4-1.1s-.7-.4-1.3-.4h-1.7v3zm3.5 4.7l-1.9-4.3h1.2l1.6 3.4.6.1v.8h-1.5zM758.3 81.1c-.6 0-1.1-.1-1.5-.4s-.8-.6-1-1.1-.4-1-.4-1.7v-.3c0-.6.1-1.1.4-1.6s.6-.8 1-1.1.9-.4 1.4-.4c.6 0 1 .1 1.4.4s.7.6.9 1 .3.9.3 1.5v.7h-4.1c0 .4.1.8.2 1.1s.3.6.6.7.6.3.9.3c.4 0 .7-.1 1-.2s.5-.3.8-.5l.5.8c-.2.2-.5.4-.9.6s-1 .2-1.5.2zm-1.7-3.9h2.9V77c0-.3-.1-.6-.2-.8s-.3-.4-.5-.6-.5-.2-.8-.2c-.3 0-.5.1-.7.2s-.4.4-.5.6-.2.6-.2 1zM764.2 81l-2.3-5.5-.7-.1v-.7h2.7v.7l-.8.1 1.4 3.6.2.5.2-.5 1.3-3.6-.8-.1v-.7h2.7v.7l-.7.1-2.1 5.5h-1.1zM768.7 81v-.7l1-.2v-4.5l-1-.2v-.7h2.1v5.4l1 .2v.7h-3.1zm.9-7.9v-1.2h1.2v1.2h-1.2zM775.5 81.1c-.6 0-1.1-.1-1.5-.4s-.8-.6-1-1.1-.4-1-.4-1.7v-.3c0-.6.1-1.1.4-1.6s.6-.8 1-1.1.9-.4 1.4-.4c.6 0 1 .1 1.4.4s.7.6.9 1 .3.9.3 1.5v.7h-4.1c0 .4.1.8.2 1.1s.3.6.6.7.6.3.9.3c.4 0 .7-.1 1-.2s.5-.3.8-.5l.5.8c-.2.2-.5.4-.9.6s-1 .2-1.5.2zm-1.7-3.9h2.9V77c0-.3-.1-.6-.2-.8s-.3-.4-.5-.6-.5-.2-.8-.2c-.3 0-.5.1-.7.2s-.4.4-.5.6-.1.6-.2 1zM781.1 81l-1.7-5.5-.7-.1v-.7h2.6v.7l-.8.1.9 3.2.2.8.3-.8 1.4-4h1l1.3 4 .3.9.3-.9.9-3.2-.8-.1v-.7h2.6v.7l-.7.1-1.6 5.5h-1.1l-1.3-3.8-.3-1-.3 1-1.4 3.8h-1.1z"/></g><g><path class="st1" d="M730.1 96.1c-.6 0-1-.1-1.5-.3s-.8-.5-1.1-.9-.5-.8-.7-1.4-.2-1.1-.2-1.7v-.1c0-.6.1-1.2.2-1.7s.4-1 .7-1.4.7-.7 1.1-.9.9-.3 1.5-.3 1.1.1 1.5.3.8.5 1.1.9.5.8.7 1.4.2 1.1.2 1.7v.1c0 .6-.1 1.2-.2 1.7s-.4 1-.7 1.4-.7.7-1.1.9-.9.3-1.5.3zm0-.9c.6 0 1-.1 1.4-.4s.6-.7.8-1.2.2-1.1.2-1.8v-.1c0-.7-.1-1.2-.2-1.7s-.4-.9-.8-1.2-.8-.4-1.4-.4c-.5 0-.9.1-1.3.4s-.6.7-.8 1.2-.3 1.1-.3 1.7v.1c0 .7.1 1.2.3 1.8s.5.9.8 1.2.8.4 1.3.4zM734.3 98.4v-.7l.9-.2v-7l-1-.2v-.7h1.9l.1.8c.2-.3.5-.5.8-.7s.7-.2 1.1-.2c.5 0 1 .1 1.3.4s.7.7.8 1.2.3 1.1.3 1.8v.1c0 .6-.1 1.1-.3 1.6s-.5.8-.8 1.1-.8.4-1.3.4c-.4 0-.7-.1-1-.2s-.5-.3-.8-.6v2.2l1 .2v.7h-3zm3.5-3.2c.5 0 1-.2 1.2-.6s.4-.9.4-1.6v-.1c0-.5-.1-.9-.2-1.3s-.3-.7-.6-.9-.6-.3-.9-.3c-.3 0-.6.1-.8.2s-.4.4-.6.6v3.1c.1.3.3.5.6.6s.6.3.9.3zM744.4 96.1c-.6 0-1.1-.1-1.5-.4s-.8-.6-1-1.1-.4-1-.4-1.7v-.3c0-.6.1-1.1.4-1.6s.6-.8 1-1.1.9-.4 1.4-.4c.6 0 1 .1 1.4.4s.7.6.9 1 .3.9.3 1.5v.7h-4.1c0 .4.1.8.2 1.1s.3.6.6.7.6.3.9.3c.4 0 .7-.1 1-.2s.5-.3.8-.5l.5.8c-.2.2-.5.4-.9.6s-1 .2-1.5.2zm-1.7-3.9h2.9V92c0-.3-.1-.6-.2-.8s-.3-.4-.5-.6-.5-.2-.8-.2c-.3 0-.5.1-.7.2s-.4.4-.5.6-.1.6-.2 1zM747.7 96v-.7l1-.2v-4.5l-1-.2v-.7h2l.1.8v.1c.2-.3.4-.6.7-.8s.6-.3.9-.3h.4c.2 0 .2 0 .3.1l-.2 1.1h-.8c-.3 0-.6 0-.8.2s-.4.4-.5.6v3.6l1 .2v.7h-3.1zM754.8 96.1c-.7 0-1.2-.2-1.5-.5s-.5-.8-.5-1.4c0-.4.1-.8.3-1.1s.5-.5 1-.7.9-.2 1.5-.2h1.1v-.6c0-.4-.1-.7-.3-.9s-.6-.3-1-.3c-.3 0-.5 0-.7.1s-.4.2-.5.3l-.1.9h-.9v-1.5c.3-.2.6-.4 1-.5s.8-.2 1.3-.2c.8 0 1.4.2 1.8.6s.7.9.7 1.6V95.2l.6.1v.7h-1.7c0-.2-.1-.3-.1-.5v-.4c-.2.3-.5.5-.8.7s-.8.3-1.2.3zm.2-.9c.4 0 .7-.1 1-.3s.5-.4.7-.7v-1.1h-1.2c-.5 0-.9.1-1.2.4s-.4.5-.4.8c0 .3.1.5.3.6s.4.3.8.3zM761.6 96.1c-.5 0-.8-.1-1.1-.4s-.4-.7-.4-1.3v-3.8h-1v-.9h1v-1.5h1.2v1.5h1.4v.9h-1.4v3.8c0 .3.1.5.2.7s.3.2.5.2h.5c.2 0 .3 0 .4-.1l.2.8c-.2.1-.4.1-.6.1h-.9zM763.6 96v-.7l1-.2v-4.5l-1-.2v-.7h2.1v5.4l1 .2v.7h-3.1zm.9-7.9v-1.2h1.2v1.2h-1.2zM770.4 96.1c-.6 0-1.1-.1-1.5-.4s-.8-.7-1-1.1-.3-1-.3-1.7v-.1c0-.6.1-1.2.3-1.7s.6-.9 1-1.1.9-.4 1.5-.4 1.1.1 1.5.4.8.7 1 1.1.3 1 .3 1.7v.1c0 .6-.1 1.2-.3 1.7s-.6.9-1 1.1-.9.4-1.5.4zm0-.9c.4 0 .7-.1.9-.3s.4-.5.6-.8.2-.7.2-1.2v-.1c0-.4-.1-.8-.2-1.2s-.3-.6-.6-.8-.6-.3-.9-.3c-.4 0-.7.1-.9.3s-.4.5-.6.8-.2.7-.2 1.2v.1c0 .4.1.8.2 1.2s.3.6.6.8.5.3.9.3zM774.1 96v-.7l1-.2v-4.5l-1-.2v-.7h2l.1.9c.2-.3.5-.6.8-.8s.7-.3 1.1-.3c.7 0 1.2.2 1.6.6s.6 1 .6 1.9v3.1l1 .2v.7h-3.1v-.7l1-.2V92c0-.6-.1-1-.3-1.2s-.6-.4-1-.4c-.3 0-.6.1-.9.2s-.5.4-.6.7V95l1 .2v.8h-3.3z"/></g><path class="st0" d="M695 233.3c0-4.1 3.3-7.3 7.3-7.3h103.3c4.1 0 7.3 3.3 7.3 7.3v29.3c0 4.1-3.3 7.3-7.3 7.3H702.3c-4.1 0-7.3-3.3-7.3-7.3v-29.3z"/><g><path class="st1" d="M711 244v-.7l.6-.1 3-7.7h1l2.9 7.7.6.1v.7h-2.4v-.7l.6-.1-.6-1.6h-3.4l-.6 1.6.6.1v.7H711zm2.8-3.4h2.7l-1.3-3.5-.1-.2-.1.2-1.2 3.5zM722.5 244.1c-.5 0-1-.1-1.3-.4s-.7-.6-.8-1.1-.3-1-.3-1.6v-.1c0-.7.1-1.3.3-1.8s.5-.9.8-1.2.8-.4 1.3-.4c.4 0 .7.1 1 .2s.5.3.7.6v-2.6l-1-.2v-.7h2.2v8.2l1 .2v.7h-2l-.1-.8c-.2.3-.5.5-.8.7s-.6.3-1 .3zm.3-.9c.3 0 .6-.1.9-.2s.4-.4.6-.7v-2.9c-.1-.3-.3-.5-.6-.6s-.5-.2-.9-.2-.7.1-.9.3-.4.5-.5.9-.2.8-.2 1.3v.1c0 .6.1 1.1.4 1.5s.7.5 1.2.5zM729.7 244.1c-.5 0-1-.1-1.3-.4s-.7-.6-.8-1.1-.3-1-.3-1.6v-.1c0-.7.1-1.3.3-1.8s.5-.9.8-1.2.8-.4 1.3-.4c.4 0 .7.1 1 .2s.5.3.7.6v-2.6l-1-.2v-.7h2.2v8.2l1 .2v.7h-2l-.1-.8c-.2.3-.5.5-.8.7s-.6.3-1 .3zm.3-.9c.3 0 .6-.1.9-.2s.4-.4.6-.7v-2.9c-.1-.3-.3-.5-.6-.6s-.5-.2-.9-.2-.7.1-.9.3-.4.5-.5.9-.2.8-.2 1.3v.1c0 .6.1 1.1.4 1.5s.6.5 1.2.5z"/></g><g><path class="st1" d="M737.3 244v-.7l.6-.1 3-7.7h1l2.9 7.7.6.1v.7H743v-.7l.6-.1-.6-1.6h-3.4l-.6 1.6.6.1v.7h-2.3zm2.7-3.4h2.7l-1.3-3.5-.1-.2-.1.2-1.2 3.5zM748.8 244.1c-.5 0-1-.1-1.3-.4s-.7-.6-.8-1.1-.3-1-.3-1.6v-.1c0-.7.1-1.3.3-1.8s.5-.9.8-1.2.8-.4 1.3-.4c.4 0 .7.1 1 .2s.5.3.7.6v-2.6l-1-.2v-.7h2.2v8.2l1 .2v.7h-2l-.1-.8c-.2.3-.5.5-.8.7s-.6.3-1 .3zm.3-.9c.3 0 .6-.1.9-.2s.4-.4.6-.7v-2.9c-.1-.3-.3-.5-.6-.6s-.5-.2-.9-.2-.7.1-.9.3-.4.5-.5.9-.2.8-.2 1.3v.1c0 .6.1 1.1.4 1.5s.6.5 1.2.5zM755.9 244.1c-.5 0-1-.1-1.3-.4s-.7-.6-.8-1.1-.3-1-.3-1.6v-.1c0-.7.1-1.3.3-1.8s.5-.9.8-1.2.8-.4 1.3-.4c.4 0 .7.1 1 .2s.5.3.7.6v-2.6l-1-.2v-.7h2.2v8.2l1 .2v.7h-2l-.1-.8c-.2.3-.5.5-.8.7s-.6.3-1 .3zm.3-.9c.3 0 .6-.1.9-.2s.4-.4.6-.7v-2.9c-.1-.3-.3-.5-.6-.6s-.5-.2-.9-.2-.7.1-.9.3-.4.5-.5.9-.2.8-.2 1.3v.1c0 .6.1 1.1.4 1.5s.7.5 1.2.5zM760.5 244v-.7l1-.2v-4.5l-1-.2v-.7h2.1v5.4l1 .2v.7h-3.1zm.9-7.9v-1.2h1.2v1.2h-1.2zM766.7 244.1c-.5 0-.8-.1-1.1-.4s-.4-.7-.4-1.3v-3.8h-1v-.9h1v-1.5h1.2v1.5h1.4v.9h-1.4v3.8c0 .3.1.5.2.7s.3.2.5.2h.5c.2 0 .3 0 .4-.1l.2.8c-.2.1-.4.1-.6.1h-.9zM768.7 244v-.7l1-.2v-4.5l-1-.2v-.7h2.1v5.4l1 .2v.7h-3.1zm.9-7.9v-1.2h1.2v1.2h-1.2zM775.4 244.1c-.6 0-1.1-.1-1.5-.4s-.8-.7-1-1.1-.3-1-.3-1.7v-.1c0-.6.1-1.2.3-1.7s.6-.9 1-1.1.9-.4 1.5-.4 1.1.1 1.5.4.8.7 1 1.1.3 1 .3 1.7v.1c0 .6-.1 1.2-.3 1.7s-.6.9-1 1.1-.9.4-1.5.4zm0-.9c.4 0 .7-.1.9-.3s.4-.5.6-.8.2-.7.2-1.2v-.1c0-.4-.1-.8-.2-1.2s-.3-.6-.6-.8-.6-.3-.9-.3c-.4 0-.7.1-.9.3s-.4.5-.6.8-.2.7-.2 1.2v.1c0 .4.1.8.2 1.2s.3.6.6.8.6.3.9.3zM779.2 244v-.7l1-.2v-4.5l-1-.2v-.7h2l.1.9c.2-.3.5-.6.8-.8s.7-.3 1.1-.3c.7 0 1.2.2 1.6.6s.6 1 .6 1.9v3.1l1 .2v.7h-3.1v-.7l1-.2V240c0-.6-.1-1-.3-1.2s-.6-.4-1-.4c-.3 0-.6.1-.9.2s-.5.4-.6.7v3.7l1 .2v.7h-3.3zM789.1 244.1c-.7 0-1.2-.2-1.5-.5s-.5-.8-.5-1.4c0-.4.1-.8.3-1.1s.5-.5 1-.7.9-.2 1.5-.2h1.1v-.6c0-.4-.1-.7-.3-.9s-.6-.3-1-.3c-.3 0-.5 0-.7.1s-.4.2-.5.3l-.1.9h-.9v-1.5c.3-.2.6-.4 1-.5s.8-.2 1.3-.2c.8 0 1.4.2 1.8.6s.7.9.7 1.6V243.2l.6.1v.7h-1.7c0-.2-.1-.3-.1-.5v-.4c-.2.3-.5.5-.8.7s-.8.3-1.2.3zm.2-.9c.4 0 .7-.1 1-.3s.5-.4.7-.7v-1.1h-1.2c-.5 0-.9.1-1.2.4s-.4.5-.4.8c0 .3.1.5.3.6s.4.3.8.3zM793.6 244v-.7l1-.2v-7.3l-1-.2v-.7h2.1v8.2l1 .2v.7h-3.1z"/></g><g><path class="st1" d="M738.3 259v-.7l1-.2v-6.7l-1-.2v-.7h3.1v.7l-1 .2v6.7l1 .2v.7h-3.1zM744.5 259.1c-.5 0-.8-.1-1.1-.4s-.4-.7-.4-1.3v-3.8h-1v-.9h1v-1.5h1.2v1.5h1.4v.9h-1.4v3.8c0 .3.1.5.2.7s.3.2.5.2h.5c.2 0 .3 0 .4-.1l.2.8c-.2.1-.4.1-.6.1h-.9zM749.4 259.1c-.6 0-1.1-.1-1.5-.4s-.8-.6-1-1.1-.4-1-.4-1.7v-.3c0-.6.1-1.1.4-1.6s.6-.8 1-1.1.9-.4 1.4-.4c.6 0 1 .1 1.4.4s.7.6.9 1 .3.9.3 1.5v.7h-4.1c0 .4.1.8.2 1.1s.3.6.6.7.6.3.9.3c.4 0 .7-.1 1-.2s.5-.3.8-.5l.5.8c-.2.2-.5.4-.9.6s-1 .2-1.5.2zm-1.7-3.9h2.9v-.2c0-.3-.1-.6-.2-.8s-.3-.4-.5-.6-.5-.2-.8-.2c-.3 0-.5.1-.7.2s-.4.4-.5.6-.1.6-.2 1zM752.8 259v-.7l1-.2v-4.5l-1-.2v-.7h2l.1.8c.2-.3.5-.5.8-.7s.7-.2 1.1-.2.8.1 1.1.3.5.5.7.9c.2-.4.5-.6.8-.9s.7-.3 1.1-.3c.6 0 1.2.2 1.5.7s.6 1.1.6 2v2.9l1 .2v.7h-3.1v-.7l1-.2v-2.9c0-.6-.1-1.1-.3-1.3s-.5-.4-1-.4c-.4 0-.7.1-1 .4s-.4.6-.4 1.1v3.1l1 .2v.7h-3.1v-.7l1-.2v-2.9c0-.6-.1-1-.3-1.3s-.5-.4-1-.4c-.4 0-.6.1-.9.2s-.4.3-.5.6v3.8l1 .2v.7h-3.2zM766.9 259.1c-.4 0-.8 0-1.2-.1s-.8-.2-1.2-.4v-1.5h.9l.2.9c.2.1.4.2.6.2s.4.1.7.1c.5 0 .8-.1 1-.3s.3-.4.3-.7c0-.2-.1-.5-.3-.6s-.6-.3-1.1-.4c-.8-.2-1.3-.4-1.7-.7s-.5-.7-.5-1.2c0-.3.1-.7.3-.9s.5-.5.8-.6.8-.2 1.2-.2c.5 0 .9.1 1.2.2s.6.3.9.4l.1 1.4h-.9l-.2-.8c-.1-.1-.3-.2-.5-.2s-.4-.1-.6-.1c-.4 0-.7.1-.9.3s-.3.4-.3.6c0 .1 0 .3.1.4s.2.2.4.3.5.2.8.3c.9.2 1.5.5 1.8.8.3.3.5.7.5 1.2s-.2 1-.6 1.3-.9.3-1.8.3z"/></g><path class="st0" d="M513 233.3c0-4.1 3.3-7.3 7.3-7.3h103.3c4.1 0 7.3 3.3 7.3 7.3v29.3c0 4.1-3.3 7.3-7.3 7.3H520.3c-4.1 0-7.3-3.3-7.3-7.3v-29.3z"/><g><path class="st1" d="M530.3 244v-.7l.6-.1 3-7.7h1l2.9 7.7.6.1v.7H536v-.7l.6-.1-.6-1.6h-3.4l-.6 1.6.6.1v.7h-2.3zm2.7-3.4h2.7l-1.3-3.5-.1-.2-.1.2-1.2 3.5zM541.8 244.1c-.5 0-1-.1-1.3-.4s-.7-.6-.8-1.1-.3-1-.3-1.6v-.1c0-.7.1-1.3.3-1.8s.5-.9.8-1.2.8-.4 1.3-.4c.4 0 .7.1 1 .2s.5.3.7.6v-2.6l-1-.2v-.7h2.2v8.2l1 .2v.7h-2l-.1-.8c-.2.3-.5.5-.8.7s-.6.3-1 .3zm.3-.9c.3 0 .6-.1.9-.2s.4-.4.6-.7v-2.9c-.1-.3-.3-.5-.6-.6s-.5-.2-.9-.2-.7.1-.9.3-.4.5-.5.9-.2.8-.2 1.3v.1c0 .6.1 1.1.4 1.5s.6.5 1.2.5zM548.9 244.1c-.5 0-1-.1-1.3-.4s-.7-.6-.8-1.1-.3-1-.3-1.6v-.1c0-.7.1-1.3.3-1.8s.5-.9.8-1.2.8-.4 1.3-.4c.4 0 .7.1 1 .2s.5.3.7.6v-2.6l-1-.2v-.7h2.2v8.2l1 .2v.7h-2l-.1-.8c-.2.3-.5.5-.8.7s-.6.3-1 .3zm.3-.9c.3 0 .6-.1.9-.2s.4-.4.6-.7v-2.9c-.1-.3-.3-.5-.6-.6s-.5-.2-.9-.2-.7.1-.9.3-.4.5-.5.9-.2.8-.2 1.3v.1c0 .6.1 1.1.4 1.5s.6.5 1.2.5zM556.6 244v-.7l1-.2v-6.7l-1-.2v-.7h4c.6 0 1.1.1 1.6.3s.8.5 1 .9.3.8.3 1.3-.1 1-.3 1.3-.6.7-1 .9-.9.3-1.6.3h-1.8v2.5l1 .2v.7h-3.2zm2.1-4.3h1.8c.6 0 1-.2 1.3-.5s.4-.7.4-1.2-.1-.9-.4-1.2-.7-.5-1.3-.5h-1.8v3.4zM566.2 244.1c-.7 0-1.2-.2-1.5-.5s-.5-.8-.5-1.4c0-.4.1-.8.3-1.1s.5-.5 1-.7.9-.2 1.5-.2h1.1v-.6c0-.4-.1-.7-.3-.9s-.6-.3-1-.3c-.3 0-.5 0-.7.1s-.4.2-.5.3l-.1.9h-.9v-1.5c.3-.2.6-.4 1-.5s.8-.2 1.3-.2c.8 0 1.4.2 1.8.6s.7.9.7 1.6V243.2l.6.1v.7h-1.7c0-.2-.1-.3-.1-.5v-.4c-.2.3-.5.5-.8.7s-.8.3-1.2.3zm.2-.9c.4 0 .7-.1 1-.3s.5-.4.7-.7v-1.1h-1.2c-.5 0-.9.1-1.2.4s-.4.5-.4.8c0 .3.1.5.3.6s.4.3.8.3zM570.8 244v-.7l1-.2v-4.5l-1-.2v-.7h2l.1.8v.1c.2-.3.4-.6.7-.8s.6-.3.9-.3h.4c.2 0 .2 0 .3.1l-.2 1.1h-.8c-.3 0-.6 0-.8.2s-.4.4-.5.6v3.6l1 .2v.7h-3.1zM578 244.1c-.5 0-.8-.1-1.1-.4s-.4-.7-.4-1.3v-3.8h-1v-.9h1v-1.5h1.2v1.5h1.4v.9h-1.4v3.8c0 .3.1.5.2.7s.3.2.5.2h.5c.2 0 .3 0 .4-.1l.2.8c-.2.1-.4.1-.6.1h-.9zM582.6 244.1c-.4 0-.8 0-1.2-.1s-.8-.2-1.2-.4v-1.5h.9l.2.9c.2.1.4.2.6.2s.4.1.7.1c.5 0 .8-.1 1-.3s.3-.4.3-.7c0-.2-.1-.5-.3-.6s-.6-.3-1.1-.4c-.8-.2-1.3-.4-1.7-.7s-.5-.7-.5-1.2c0-.3.1-.7.3-.9s.5-.5.8-.6.8-.2 1.2-.2c.5 0 .9.1 1.2.2s.6.3.9.4l.1 1.4h-.8l-.2-.8c-.1-.1-.3-.2-.5-.2s-.4-.1-.6-.1c-.4 0-.7.1-.9.3s-.3.4-.3.6c0 .1 0 .3.1.4s.2.2.4.3.5.2.8.3c.9.2 1.5.5 1.8.8s.5.7.5 1.2-.2 1-.6 1.3-1 .3-1.9.3zM589.9 244l.5-2.4H589v-.8h1.5l.4-2h-1.5v-.8h1.7l.5-2.4h.9l-.5 2.4h1.5l.5-2.4h.9l-.5 2.4h1.2v.8h-1.3l-.4 2h1.3v.8h-1.5l-.5 2.4h-.9l.5-2.4h-1.5l-.5 2.4h-.9zm1.5-3.2h1.5l.4-2h-1.5l-.4 2zM599.2 244v-.7l1-.2v-4.6h-1v-.9h1v-.8c0-.7.2-1.2.5-1.6s.8-.6 1.5-.6h.4c.1 0 .3.1.5.1l-.1.9h-.6c-.3 0-.6.1-.8.3s-.2.5-.2.9v.8h1.4v.9h-1.4v4.6l1.1.2v.7h-3.3zM606.4 244.1c-.6 0-1.1-.1-1.5-.4s-.8-.7-1-1.1-.3-1-.3-1.7v-.1c0-.6.1-1.2.3-1.7s.6-.9 1-1.1.9-.4 1.5-.4 1.1.1 1.5.4.8.7 1 1.1.3 1 .3 1.7v.1c0 .6-.1 1.2-.3 1.7s-.6.9-1 1.1-.9.4-1.5.4zm0-.9c.4 0 .7-.1.9-.3s.4-.5.6-.8.2-.7.2-1.2v-.1c0-.4-.1-.8-.2-1.2s-.3-.6-.6-.8-.6-.3-.9-.3c-.4 0-.7.1-.9.3s-.4.5-.6.8-.2.7-.2 1.2v.1c0 .4.1.8.2 1.2s.3.6.6.8.5.3.9.3zM610.1 244v-.7l1-.2v-4.5l-1-.2v-.7h2l.1.8v.1c.2-.3.4-.6.7-.8s.6-.3.9-.3h.4c.2 0 .2 0 .3.1l-.2 1.1h-.8c-.3 0-.6 0-.8.2s-.4.4-.5.6v3.6l1 .2v.7h-3.1z"/></g><g><path class="st1" d="M554.3 259v-.7l1-.2v-6.7l-1-.2v-.7h3.8c.6 0 1.1.1 1.6.3s.8.5 1 .8.3.8.3 1.3-.1.9-.3 1.3-.5.6-.9.8-.9.3-1.4.3h-1.9v2.9l1 .2v.7h-3.2zm2.1-4.7h1.6c.6 0 1.1-.1 1.4-.4s.4-.6.4-1.1c0-.4-.1-.8-.4-1.1s-.7-.4-1.3-.4h-1.7v3zm3.5 4.7l-1.9-4.3h1.2l1.6 3.4.6.1v.8h-1.5zM565.3 259.1c-.6 0-1.1-.1-1.5-.4s-.8-.6-1-1.1-.4-1-.4-1.7v-.3c0-.6.1-1.1.4-1.6s.6-.8 1-1.1.9-.4 1.4-.4c.6 0 1 .1 1.4.4s.7.6.9 1 .3.9.3 1.5v.7h-4.1c0 .4.1.8.2 1.1s.3.6.6.7.6.3.9.3c.4 0 .7-.1 1-.2s.5-.3.8-.5l.5.8c-.2.2-.5.4-.9.6s-1 .2-1.5.2zm-1.7-3.9h2.9v-.2c0-.3-.1-.6-.2-.8s-.3-.4-.5-.6-.5-.2-.8-.2c-.3 0-.5.1-.7.2s-.4.4-.5.6-.1.6-.2 1zM568.5 261.4v-.7l.9-.2v-7l-1-.2v-.7h1.9l.1.8c.2-.3.5-.5.8-.7s.7-.2 1.1-.2c.5 0 1 .1 1.3.4s.7.7.8 1.2.3 1.1.3 1.8v.1c0 .6-.1 1.1-.3 1.6s-.5.8-.8 1.1-.8.4-1.3.4c-.4 0-.7-.1-1-.2s-.5-.3-.8-.6v2.2l1 .2v.7h-3zm3.4-3.2c.5 0 1-.2 1.2-.6s.4-.9.4-1.6v-.1c0-.5-.1-.9-.2-1.3s-.3-.7-.6-.9-.6-.3-.9-.3c-.3 0-.6.1-.8.2s-.4.4-.6.6v3.1c.1.3.3.5.6.6s.6.3.9.3zM577.7 259.1c-.7 0-1.2-.2-1.5-.5s-.5-.8-.5-1.4c0-.4.1-.8.3-1.1.2-.3.5-.5 1-.7s.9-.2 1.5-.2h1.1v-.6c0-.4-.1-.7-.3-.9s-.6-.3-1-.3c-.3 0-.5 0-.7.1s-.4.2-.5.3l-.1.9h-1v-1.5c.3-.2.6-.4 1-.5s.8-.2 1.3-.2c.8 0 1.4.2 1.8.6s.7.9.7 1.6V258.2l.6.1v.7h-1.7c0-.2-.1-.3-.1-.5v-.4c-.2.3-.5.5-.8.7s-.7.3-1.1.3zm.2-.9c.4 0 .7-.1 1-.3s.5-.4.7-.7v-1.1h-1.2c-.5 0-.9.1-1.2.4s-.4.5-.4.8c0 .3.1.5.3.6s.4.3.8.3zM582.2 259v-.7l1-.2v-4.5l-1-.2v-.7h2.1v5.4l1 .2v.7h-3.1zm.9-7.9v-1.2h1.2v1.2h-1.2zM586.1 259v-.7l1-.2v-4.5l-1-.2v-.7h2l.1.8v.1c.2-.3.4-.6.7-.8s.6-.3.9-.3h.4c.2 0 .2 0 .3.1l-.2 1.1h-.8c-.3 0-.6 0-.8.2s-.4.4-.5.6v3.6l1 .2v.7h-3.1z"/></g><path class="st0" d="M346 233.3c0-4.1 3.3-7.3 7.3-7.3h103.3c4.1 0 7.3 3.3 7.3 7.3v29.3c0 4.1-3.3 7.3-7.3 7.3H353.3c-4.1 0-7.3-3.3-7.3-7.3v-29.3z"/><g><path class="st1" d="M360.2 244v-.7l.6-.1 3-7.7h1l2.9 7.7.6.1v.7h-2.4v-.7l.6-.1-.6-1.6h-3.4l-.6 1.6.6.1v.7h-2.3zm2.7-3.4h2.7l-1.3-3.5-.1-.2-.1.2-1.2 3.5zM371.7 244.1c-.4 0-.8 0-1.2-.1s-.8-.2-1.2-.4v-1.5h.9l.2.9c.2.1.4.2.6.2s.4.1.7.1c.5 0 .8-.1 1-.3s.3-.4.3-.7c0-.2-.1-.5-.3-.6s-.6-.3-1.1-.4c-.8-.2-1.3-.4-1.7-.7s-.5-.7-.5-1.2c0-.3.1-.7.3-.9s.5-.5.8-.6.8-.2 1.2-.2c.5 0 .9.1 1.2.2s.6.3.9.4l.1 1.4h-.9l-.2-.8c-.1-.1-.3-.2-.5-.2s-.4-.1-.6-.1c-.4 0-.7.1-.9.3s-.3.4-.3.6c0 .1 0 .3.1.4s.2.2.4.3.5.2.8.3c.9.2 1.5.5 1.8.8s.5.7.5 1.2-.2 1-.6 1.3-.9.3-1.8.3zM377.7 244.1c-.4 0-.8 0-1.2-.1s-.8-.2-1.2-.4v-1.5h.9l.2.9c.2.1.4.2.6.2s.4.1.7.1c.5 0 .8-.1 1-.3s.3-.4.3-.7c0-.2-.1-.5-.3-.6s-.6-.3-1.1-.4c-.8-.2-1.3-.4-1.7-.7s-.5-.7-.5-1.2c0-.3.1-.7.3-.9s.5-.5.8-.6.8-.2 1.2-.2c.5 0 .9.1 1.2.2s.6.3.9.4l.1 1.4h-.9l-.2-.8c-.1-.1-.3-.2-.5-.2s-.4-.1-.6-.1c-.4 0-.7.1-.9.3s-.3.4-.3.6c0 .1 0 .3.1.4s.2.2.4.3.5.2.8.3c.9.2 1.5.5 1.8.8s.5.7.5 1.2-.2 1-.6 1.3-.9.3-1.8.3zM381.1 244v-.7l1-.2v-4.5l-1-.2v-.7h2.1v5.4l1 .2v.7h-3.1zm.9-7.9v-1.2h1.2v1.2H382zM387.8 246.6c-.3 0-.6 0-1-.1s-.7-.2-.9-.3l.3-.9c.2.1.5.2.8.3s.6.1.9.1c.5 0 .9-.1 1.1-.4s.4-.7.4-1.2v-.6c-.2.3-.5.5-.7.6s-.6.2-1 .2c-.5 0-1-.1-1.3-.4s-.7-.6-.9-1.1-.3-1-.3-1.6v-.1c0-.7.1-1.3.3-1.8s.5-.9.9-1.2.8-.4 1.3-.4c.4 0 .7.1 1 .2s.6.4.8.7l.1-.8h1v6.3c0 .5-.1 1-.3 1.4s-.5.7-.9.9-1 .2-1.6.2zm0-3.4c.3 0 .6-.1.9-.2s.4-.4.6-.7v-2.9c-.1-.3-.3-.5-.6-.6s-.5-.2-.9-.2-.7.1-.9.3-.4.5-.5.9-.2.8-.2 1.3v.1c0 .6.1 1.1.4 1.5s.7.5 1.2.5zm2.5-4.6l-.5-.9h1.4v.7l-.9.2zM391.8 244v-.7l1-.2v-4.5l-1-.2v-.7h2l.1.9c.2-.3.5-.6.8-.8s.7-.3 1.1-.3c.7 0 1.2.2 1.6.6s.6 1 .6 1.9v3.1l1 .2v.7h-3.1v-.7l1-.2V240c0-.6-.1-1-.3-1.2s-.6-.4-1-.4c-.3 0-.6.1-.9.2s-.5.4-.6.7v3.7l1 .2v.7h-3.3zM404.8 244v-.7l1-.2v-6.8h-1.9l-.2 1.2h-.9v-2.1h7.1v2.1h-.9l-.2-1.2h-1.9v6.8l1 .2v.7h-3.1zM413.8 244.1c-.6 0-1.1-.1-1.5-.4s-.8-.6-1-1.1-.4-1-.4-1.7v-.3c0-.6.1-1.1.4-1.6s.6-.8 1-1.1.9-.4 1.4-.4c.6 0 1 .1 1.4.4s.7.6.9 1 .3.9.3 1.5v.7h-4.1c0 .4.1.8.2 1.1s.3.6.6.7.6.3.9.3c.4 0 .7-.1 1-.2s.5-.3.8-.5l.5.8c-.2.2-.5.4-.9.6s-1 .2-1.5.2zm-1.7-3.9h2.9v-.2c0-.3-.1-.6-.2-.8s-.3-.4-.5-.6-.5-.2-.8-.2c-.3 0-.5.1-.7.2s-.4.4-.5.6-.2.6-.2 1zM420 244.1c-.6 0-1.1-.1-1.5-.4s-.8-.6-1-1.1-.4-1-.4-1.7v-.2c0-.6.1-1.1.3-1.6s.6-.9 1-1.1.9-.4 1.5-.4c.5 0 1 .1 1.3.3s.7.4 1 .7v1.5h-.9l-.2-1.1c-.1-.1-.3-.2-.5-.3s-.4-.1-.7-.1c-.3 0-.6.1-.9.3s-.5.5-.6.8-.2.7-.2 1.1v.2c0 .5.1.9.2 1.2s.3.6.6.8.6.3.9.3c.4 0 .7-.1 1-.3s.4-.5.5-.9h1c0 .4-.1.7-.3 1s-.5.6-.8.8-.8.2-1.3.2zM423.2 244v-.7l1-.2v-7.3l-1-.2v-.7h2.1v3.6c.2-.3.5-.5.8-.7s.7-.3 1.1-.3c.7 0 1.2.2 1.6.6s.6 1 .6 1.9v3.1l1 .2v.7h-3.1v-.7l1-.2V240c0-.5-.1-.9-.3-1.2s-.6-.4-1-.4c-.3 0-.6.1-.9.2s-.5.4-.6.6v3.8l1 .2v.7h-3.3zM433.7 244.1c-.4 0-.8 0-1.2-.1s-.8-.2-1.2-.4v-1.5h.9l.2.9c.2.1.4.2.6.2s.4.1.7.1c.5 0 .8-.1 1-.3s.3-.4.3-.7c0-.2-.1-.5-.3-.6s-.6-.3-1.1-.4c-.8-.2-1.3-.4-1.7-.7s-.5-.7-.5-1.2c0-.3.1-.7.3-.9s.5-.5.8-.6.8-.2 1.2-.2c.5 0 .9.1 1.2.2s.6.3.9.4l.1 1.4h-.9l-.2-.8c-.1-.1-.3-.2-.5-.2s-.4-.1-.6-.1c-.4 0-.7.1-.9.3s-.3.4-.3.6c0 .1 0 .3.1.4s.2.2.4.3.5.2.8.3c.9.2 1.5.5 1.8.8s.5.7.5 1.2-.2 1-.6 1.3-1 .3-1.8.3zM442.3 244.1c-.5 0-.8-.1-1.1-.4s-.4-.7-.4-1.3v-3.8h-1v-.9h1v-1.5h1.2v1.5h1.4v.9H442v3.8c0 .3.1.5.2.7s.3.2.5.2h.5c.2 0 .3 0 .4-.1l.2.8c-.2.1-.4.1-.6.1h-.9zM447.2 244.1c-.6 0-1.1-.1-1.5-.4s-.8-.7-1-1.1-.3-1-.3-1.7v-.1c0-.6.1-1.2.3-1.7s.6-.9 1-1.1.9-.4 1.5-.4 1.1.1 1.5.4.8.7 1 1.1.3 1 .3 1.7v.1c0 .6-.1 1.2-.3 1.7s-.6.9-1 1.1-.9.4-1.5.4zm0-.9c.4 0 .7-.1.9-.3s.4-.5.6-.8.2-.7.2-1.2v-.1c0-.4-.1-.8-.2-1.2s-.3-.6-.6-.8-.6-.3-.9-.3c-.4 0-.7.1-.9.3s-.4.5-.6.8-.2.7-.2 1.2v.1c0 .4.1.8.2 1.2s.3.6.6.8.5.3.9.3z"/></g><g><path class="st1" d="M368.7 259v-.7l1-.2v-6.7l-1-.2v-.7h3.2v.7l-1 .2v6.7h3l.1-1.3h.9v2.2h-6.2zM377.8 259.1c-.7 0-1.2-.2-1.5-.5s-.5-.8-.5-1.4c0-.4.1-.8.3-1.1.2-.3.5-.5 1-.7s.9-.2 1.5-.2h1.1v-.6c0-.4-.1-.7-.3-.9s-.6-.3-1-.3c-.3 0-.5 0-.7.1s-.4.2-.5.3l-.1.9h-.9v-1.5c.3-.2.6-.4 1-.5s.8-.2 1.3-.2c.8 0 1.4.2 1.8.6s.7.9.7 1.6V258.2l.6.1v.7h-1.7c0-.2-.1-.3-.1-.5v-.4c-.2.3-.5.5-.8.7s-.8.3-1.2.3zm.2-.9c.4 0 .7-.1 1-.3s.5-.4.7-.7v-1.1h-1.2c-.5 0-.9.1-1.2.4s-.4.5-.4.8c0 .3.1.5.3.6s.4.3.8.3zM385.7 259.1c-.4 0-.8-.1-1.1-.2s-.6-.4-.8-.7l-.1.8h-1v-8.2l-1-.2v-.7h2.1v3.6c.2-.3.4-.5.7-.6s.6-.2 1-.2c.5 0 1 .1 1.3.4s.7.7.8 1.2.3 1.1.3 1.8v.1c0 .6-.1 1.1-.3 1.6s-.5.8-.8 1.1-.5.2-1.1.2zm-.3-.9c.5 0 .9-.2 1.2-.6s.4-.9.4-1.5v-.1c0-.5-.1-.9-.2-1.3s-.3-.7-.5-.9-.5-.3-.9-.3-.7.1-.9.3-.4.4-.6.7v2.8c.1.3.3.5.6.7s.6.2.9.2zM392 259.1c-.6 0-1.1-.1-1.5-.4s-.8-.7-1-1.1-.3-1-.3-1.7v-.1c0-.6.1-1.2.3-1.7s.6-.9 1-1.1.9-.4 1.5-.4 1.1.1 1.5.4.8.7 1 1.1.3 1 .3 1.7v.1c0 .6-.1 1.2-.3 1.7s-.6.9-1 1.1-.9.4-1.5.4zm0-.9c.4 0 .7-.1.9-.3s.4-.5.6-.8.2-.7.2-1.2v-.1c0-.4-.1-.8-.2-1.2s-.3-.6-.6-.8-.6-.3-.9-.3c-.4 0-.7.1-.9.3s-.4.5-.6.8-.2.7-.2 1.2v.1c0 .4.1.8.2 1.2s.3.6.6.8.5.3.9.3zM395.7 259v-.7l1-.2v-4.5l-1-.2v-.7h2l.1.8v.1c.2-.3.4-.6.7-.8s.6-.3.9-.3h.4c.2 0 .2 0 .3.1l-.2 1.1h-.8c-.3 0-.6 0-.8.2s-.4.4-.5.6v3.6l1 .2v.7h-3.1zM403.8 259v-.7l1-.2v-6.7l-1-.2v-.7h3.2v.7l-1 .2v6.7h3l.1-1.3h.9v2.2h-6.2zM410.8 259v-.7l1-.2v-4.5l-1-.2v-.7h2.1v5.4l1 .2v.7h-3.1zm.9-7.9v-1.2h1.2v1.2h-1.2zM414.7 259v-.7l1-.2v-4.5l-1-.2v-.7h2l.1.9c.2-.3.5-.6.8-.8s.7-.3 1.1-.3c.7 0 1.2.2 1.6.6s.6 1 .6 1.9v3.1l1 .2v.7h-3.1v-.7l1-.2V255c0-.6-.1-1-.3-1.2s-.6-.4-1-.4c-.3 0-.6.1-.9.2s-.5.4-.6.7v3.7l1 .2v.7h-3.3zM425.5 259.1c-.6 0-1.1-.1-1.5-.4s-.8-.6-1-1.1-.4-1-.4-1.7v-.3c0-.6.1-1.1.4-1.6s.6-.8 1-1.1.9-.4 1.4-.4c.6 0 1 .1 1.4.4s.7.6.9 1 .3.9.3 1.5v.7h-4.1c0 .4.1.8.2 1.1s.3.6.6.7.6.3.9.3c.4 0 .7-.1 1-.2s.5-.3.8-.5l.5.8c-.2.2-.5.4-.9.6s-1 .2-1.5.2zm-1.7-3.9h2.9v-.2c0-.3-.1-.6-.2-.8s-.3-.4-.5-.6-.5-.2-.8-.2c-.3 0-.5.1-.7.2s-.4.4-.5.6-.2.6-.2 1zM431.9 261.7c-.3-.2-.7-.5-1-.8s-.7-.8-.9-1.3-.5-1.1-.7-1.8-.3-1.4-.3-2.2v-.1c0-.8.1-1.5.3-2.2s.4-1.3.7-1.8.6-1 .9-1.4.7-.6 1-.8l.2.7c-.3.2-.5.5-.8.8s-.4.7-.6 1.2-.3 1-.4 1.5-.2 1.2-.2 1.9v.1c0 .7.1 1.3.2 1.9s.2 1.1.4 1.5.4.9.6 1.2.5.6.8.9l-.2.7zM435.3 259.1c-.4 0-.8 0-1.2-.1s-.8-.2-1.2-.4v-1.5h.9l.2.9c.2.1.4.2.6.2s.4.1.7.1c.5 0 .8-.1 1-.3s.3-.4.3-.7c0-.2-.1-.5-.3-.6s-.6-.3-1.1-.4c-.8-.2-1.3-.4-1.7-.7s-.5-.7-.5-1.2c0-.3.1-.7.3-.9s.5-.5.8-.6.8-.2 1.2-.2c.5 0 .9.1 1.2.2s.6.3.9.4l.1 1.4h-.9l-.2-.8c-.1-.1-.3-.2-.5-.2s-.4-.1-.6-.1c-.4 0-.7.1-.9.3s-.3.4-.3.6c0 .1 0 .3.1.4s.2.2.4.3.5.2.8.3c.9.2 1.5.5 1.8.8.3.3.5.7.5 1.2s-.2 1-.6 1.3-1 .3-1.8.3zM438.5 261.7l-.2-.6c.3-.2.5-.5.8-.8s.4-.7.6-1.2.3-1 .4-1.6.2-1.2.2-1.9v-.1c0-.7-.1-1.3-.2-1.9s-.3-1.1-.4-1.6-.4-.9-.6-1.2-.5-.6-.7-.8l.2-.6c.3.2.7.5 1 .8s.7.8.9 1.4.5 1.1.7 1.8.3 1.4.3 2.2v.1c0 .8-.1 1.5-.3 2.2s-.4 1.3-.7 1.8-.6 1-.9 1.3-.7.5-1.1.7z"/></g><path class="st2" d="M183 233.3c0-4.1 3.3-7.3 7.3-7.3h105.3c4.1 0 7.3 3.3 7.3 7.3v29.3c0 4.1-3.3 7.3-7.3 7.3H190.3c-4.1 0-7.3-3.3-7.3-7.3v-29.3z"/><g><path class="st1" d="M203.4 252v-.7l1-.2v-6.8h-1.9l-.2 1.2h-.9v-2.1h7.1v2.1h-.9l-.2-1.2h-1.9v6.8l1 .2v.7h-3.1zM212.3 252.1c-.6 0-1.1-.1-1.5-.4s-.8-.6-1-1.1-.4-1-.4-1.7v-.3c0-.6.1-1.1.4-1.6s.6-.8 1-1.1.9-.4 1.4-.4c.6 0 1 .1 1.4.4s.7.6.9 1 .3.9.3 1.5v.7h-4.1c0 .4.1.8.2 1.1s.3.6.6.7.6.3.9.3c.4 0 .7-.1 1-.2s.5-.3.8-.5l.5.8c-.2.2-.5.4-.9.6s-.9.2-1.5.2zm-1.6-3.9h2.9v-.2c0-.3-.1-.6-.2-.8s-.3-.4-.5-.6-.5-.2-.8-.2c-.3 0-.5.1-.7.2s-.4.4-.5.6-.2.6-.2 1zM218.6 252.1c-.6 0-1.1-.1-1.5-.4s-.8-.6-1-1.1-.4-1-.4-1.7v-.2c0-.6.1-1.1.3-1.6s.6-.9 1-1.1.9-.4 1.5-.4c.5 0 1 .1 1.3.3s.7.4 1 .7v1.5h-.8l-.2-1.1c-.1-.1-.3-.2-.5-.3s-.4-.1-.7-.1c-.3 0-.6.1-.9.3s-.5.5-.6.8-.2.7-.2 1.1v.2c0 .5.1.9.2 1.2s.3.6.6.8.6.3.9.3c.4 0 .7-.1 1-.3s.4-.5.5-.9h1c0 .4-.1.7-.3 1s-.5.6-.8.8-.9.2-1.4.2zM221.8 252v-.7l1-.2v-7.3l-1-.2v-.7h2.1v3.6c.2-.3.5-.5.8-.7s.7-.3 1.1-.3c.7 0 1.2.2 1.6.6s.6 1 .6 1.9v3.1l1 .2v.7h-3.1v-.7l1-.2V248c0-.5-.1-.9-.3-1.2s-.6-.4-1-.4c-.3 0-.6.1-.9.2s-.5.4-.6.6v3.8l1 .2v.7h-3.3zM232.3 252.1c-.4 0-.8 0-1.2-.1s-.8-.2-1.2-.4v-1.5h.9l.2.9c.2.1.4.2.6.2s.4.1.7.1c.5 0 .8-.1 1-.3s.3-.4.3-.7c0-.2-.1-.5-.3-.6s-.6-.3-1.1-.4c-.8-.2-1.3-.4-1.7-.7s-.5-.7-.5-1.2c0-.3.1-.7.3-.9s.5-.5.8-.6.8-.2 1.2-.2c.5 0 .9.1 1.2.2s.6.3.9.4l.1 1.4h-.9l-.2-.8c-.1-.1-.3-.2-.5-.2s-.4-.1-.6-.1c-.4 0-.7.1-.9.3s-.3.4-.3.6c0 .1 0 .3.1.4s.2.2.4.3.5.2.8.3c.9.2 1.5.5 1.8.8s.5.7.5 1.2-.2 1-.6 1.3-1 .3-1.8.3zM242.6 252.1c-.9 0-1.6-.2-2.1-.6s-1-.9-1.3-1.5-.4-1.4-.4-2.2v-.1c0-.8.2-1.6.5-2.2s.7-1.2 1.3-1.5 1.2-.6 2-.6c.6 0 1.1.1 1.5.3s.8.4 1.1.7v1.8h-.9l-.1-1.3c-.1-.1-.3-.2-.4-.2s-.3-.1-.5-.2-.4-.1-.6-.1c-.6 0-1 .1-1.4.4s-.7.7-.9 1.2-.3 1.1-.3 1.7v.1c0 .7.1 1.3.3 1.8s.5.9.9 1.2.9.4 1.5.4c.3 0 .5 0 .8-.1s.5-.2.7-.3l.1-1.2h.9v1.9c-.3.2-.7.4-1.1.5s-1.1.1-1.6.1zM246.1 252v-.7l1-.2v-7.3l-1-.2v-.7h2.1v8.2l1 .2v.7h-3.1zM252.9 252.1c-.6 0-1.1-.1-1.5-.4s-.8-.7-1-1.1-.3-1-.3-1.7v-.1c0-.6.1-1.2.3-1.7s.6-.9 1-1.1.9-.4 1.5-.4 1.1.1 1.5.4.8.7 1 1.1.3 1 .3 1.7v.1c0 .6-.1 1.2-.3 1.7s-.6.9-1 1.1-.9.4-1.5.4zm0-.9c.4 0 .7-.1.9-.3s.4-.5.6-.8.2-.7.2-1.2v-.1c0-.4-.1-.8-.2-1.2s-.3-.6-.6-.8-.6-.3-.9-.3c-.4 0-.7.1-.9.3s-.4.5-.6.8-.2.7-.2 1.2v.1c0 .4.1.8.2 1.2s.3.6.6.8.5.3.9.3zM259.5 252.1c-.6 0-1.1-.1-1.5-.4s-.8-.6-1-1.1-.4-1-.4-1.7v-.2c0-.6.1-1.1.3-1.6s.6-.9 1-1.1.9-.4 1.5-.4c.5 0 1 .1 1.3.3s.7.4 1 .7v1.5h-.7l-.2-1.1c-.1-.1-.3-.2-.5-.3s-.4-.1-.7-.1c-.3 0-.6.1-.9.3s-.5.5-.6.8-.2.7-.2 1.1v.2c0 .5.1.9.2 1.2s.3.6.6.8.6.3.9.3c.4 0 .7-.1 1-.3s.4-.5.5-.9h1c0 .4-.1.7-.3 1s-.5.6-.8.8-.9.2-1.5.2zM262.9 252v-.7l1-.2v-7.3l-1-.2v-.7h2.1v8.2l1 .2v.7h-3.1zm2-1.8l-.4-.9 2.8-2.7-.7-.1v-.7h2.7v.7l-.8.2-3.6 3.5zm2 1.8v-.7l.6-.1-1.8-2.4.6-.9 2.6 3.2.9.1v.7h-2.9zM273.5 252v-.7l1-.2v-6.7l-1-.2v-.7h3.1v.7l-1 .2v6.7l1 .2v.7h-3.1zM277.4 252v-.7l1-.2v-4.5l-1-.2v-.7h2l.1.9c.2-.3.5-.6.8-.8s.7-.3 1.1-.3c.7 0 1.2.2 1.6.6s.6 1 .6 1.9v3.1l1 .2v.7h-3.1v-.7l1-.2V248c0-.6-.1-1-.3-1.2s-.6-.4-1-.4c-.3 0-.6.1-.9.2s-.5.4-.6.7v3.7l1 .2v.7h-3.3z"/></g><path class="st2" d="M182 300.3c0-4.1 3.3-7.3 7.3-7.3h106.3c4.1 0 7.3 3.3 7.3 7.3v29.3c0 4.1-3.3 7.3-7.3 7.3H189.3c-4.1 0-7.3-3.3-7.3-7.3v-29.3z"/><g><path class="st1" d="M199.2 319v-.7l1-.2v-6.8h-1.9l-.2 1.2h-.9v-2.1h7.1v2.1h-.9l-.2-1.2h-1.9v6.8l1 .2v.7h-3.1zM208.2 319.1c-.6 0-1.1-.1-1.5-.4s-.8-.6-1-1.1-.4-1-.4-1.7v-.3c0-.6.1-1.1.4-1.6s.6-.8 1-1.1.9-.4 1.4-.4c.6 0 1 .1 1.4.4s.7.6.9 1 .3.9.3 1.5v.7h-4.1c0 .4.1.8.2 1.1s.3.6.6.7.6.3.9.3c.4 0 .7-.1 1-.2s.5-.3.8-.5l.5.8c-.2.2-.5.4-.9.6s-1 .2-1.5.2zm-1.7-3.9h2.9v-.2c0-.3-.1-.6-.2-.8s-.3-.4-.5-.6-.5-.2-.8-.2c-.3 0-.5.1-.7.2s-.4.4-.5.6-.1.6-.2 1zM214.4 319.1c-.6 0-1.1-.1-1.5-.4s-.8-.6-1-1.1-.4-1-.4-1.7v-.2c0-.6.1-1.1.3-1.6s.6-.9 1-1.1.9-.4 1.5-.4c.5 0 1 .1 1.3.3s.7.4 1 .7v1.5h-.9l-.2-1.1c-.1-.1-.3-.2-.5-.3s-.4-.1-.7-.1c-.3 0-.6.1-.9.3s-.5.5-.6.8-.2.7-.2 1.1v.2c0 .5.1.9.2 1.2s.3.6.6.8.6.3.9.3c.4 0 .7-.1 1-.3s.4-.5.5-.9h1c0 .4-.1.7-.3 1s-.5.6-.8.8-.8.2-1.3.2zM217.7 319v-.7l1-.2v-7.3l-1-.2v-.7h2.1v3.6c.2-.3.5-.5.8-.7s.7-.3 1.1-.3c.7 0 1.2.2 1.6.6s.6 1 .6 1.9v3.1l1 .2v.7h-3.1v-.7l1-.2V315c0-.5-.1-.9-.3-1.2s-.6-.4-1-.4c-.3 0-.6.1-.9.2s-.5.4-.6.6v3.8l1 .2v.7h-3.3zM228.1 319.1c-.4 0-.8 0-1.2-.1s-.8-.2-1.2-.4v-1.5h.9l.2.9c.2.1.4.2.6.2s.4.1.7.1c.5 0 .8-.1 1-.3s.3-.4.3-.7c0-.2-.1-.5-.3-.6s-.6-.3-1.1-.4c-.8-.2-1.3-.4-1.7-.7s-.5-.7-.5-1.2c0-.3.1-.7.3-.9s.5-.5.8-.6.8-.2 1.2-.2c.5 0 .9.1 1.2.2s.6.3.9.4l.1 1.4h-.9l-.2-.8c-.1-.1-.3-.2-.5-.2s-.4-.1-.6-.1c-.4 0-.7.1-.9.3s-.3.4-.3.6c0 .1 0 .3.1.4s.2.2.4.3.5.2.8.3c.9.2 1.5.5 1.8.8s.5.7.5 1.2-.2 1-.6 1.3-.9.3-1.8.3zM238.4 319.1c-.9 0-1.6-.2-2.1-.6s-1-.9-1.3-1.5-.4-1.4-.4-2.2v-.1c0-.8.2-1.6.5-2.2s.7-1.2 1.3-1.5 1.2-.6 2-.6c.6 0 1.1.1 1.5.3s.8.4 1.1.7v1.8h-.9l-.1-1.3c-.1-.1-.3-.2-.4-.2s-.3-.1-.5-.2-.4-.1-.6-.1c-.6 0-1 .1-1.4.4s-.7.7-.9 1.2-.3 1.1-.3 1.7v.1c0 .7.1 1.3.3 1.8s.5.9.9 1.2.9.4 1.5.4c.3 0 .5 0 .8-.1s.5-.2.7-.3l.1-1.2h.9v1.9c-.3.2-.7.4-1.1.5s-1.1.1-1.6.1zM242 319v-.7l1-.2v-7.3l-1-.2v-.7h2.1v8.2l1 .2v.7H242zM248.8 319.1c-.6 0-1.1-.1-1.5-.4s-.8-.7-1-1.1-.3-1-.3-1.7v-.1c0-.6.1-1.2.3-1.7s.6-.9 1-1.1.9-.4 1.5-.4 1.1.1 1.5.4.8.7 1 1.1.3 1 .3 1.7v.1c0 .6-.1 1.2-.3 1.7s-.6.9-1 1.1-1 .4-1.5.4zm0-.9c.4 0 .7-.1.9-.3s.4-.5.6-.8.2-.7.2-1.2v-.1c0-.4-.1-.8-.2-1.2s-.3-.6-.6-.8-.6-.3-.9-.3c-.4 0-.7.1-.9.3s-.4.5-.6.8-.2.7-.2 1.2v.1c0 .4.1.8.2 1.2s.3.6.6.8.5.3.9.3zM255.4 319.1c-.6 0-1.1-.1-1.5-.4s-.8-.6-1-1.1-.4-1-.4-1.7v-.2c0-.6.1-1.1.3-1.6s.6-.9 1-1.1.9-.4 1.5-.4c.5 0 1 .1 1.3.3s.7.4 1 .7v1.5h-.9l-.2-1.1c-.1-.1-.3-.2-.5-.3s-.4-.1-.7-.1c-.3 0-.6.1-.9.3s-.5.5-.6.8-.2.7-.2 1.1v.2c0 .5.1.9.2 1.2s.3.6.6.8.6.3.9.3c.4 0 .7-.1 1-.3s.4-.5.5-.9h1c0 .4-.1.7-.3 1s-.5.6-.8.8-.8.2-1.3.2zM258.7 319v-.7l1-.2v-7.3l-1-.2v-.7h2.1v8.2l1 .2v.7h-3.1zm2-1.8l-.4-.9 2.8-2.7-.7-.1v-.7h2.7v.7l-.8.2-3.6 3.5zm2.1 1.8v-.7l.6-.1-1.8-2.4.6-.9 2.6 3.2.9.1v.7h-2.9zM272.8 319.1c-.6 0-1-.1-1.5-.3s-.8-.5-1.1-.9-.5-.8-.7-1.4-.2-1.1-.2-1.7v-.1c0-.6.1-1.2.2-1.7s.4-1 .7-1.4.7-.7 1.1-.9.9-.3 1.5-.3 1.1.1 1.5.3.8.5 1.1.9.5.8.7 1.4.2 1.1.2 1.7v.1c0 .6-.1 1.2-.2 1.7s-.4 1-.7 1.4-.7.7-1.1.9-.9.3-1.5.3zm0-.9c.6 0 1-.1 1.4-.4s.6-.7.8-1.2.2-1.1.2-1.8v-.1c0-.7-.1-1.2-.2-1.7s-.4-.9-.8-1.2-.8-.4-1.4-.4c-.5 0-.9.1-1.3.4s-.6.7-.8 1.2-.3 1.1-.3 1.7v.1c0 .7.1 1.2.3 1.8s.5.9.8 1.2.8.4 1.3.4zM279.9 319.1c-.7 0-1.2-.2-1.6-.7s-.6-1.1-.6-2.1v-2.8l-.7-.2v-.7h1.9v3.8c0 .7.1 1.1.3 1.4s.5.4.9.4.7-.1 1-.2.5-.4.6-.7v-3.7l-.8-.2v-.7h2v5.4l.7.2v.7h-1.8l-.1-.9c-.2.3-.5.6-.8.8s-.6.2-1 .2zM286.6 319.1c-.5 0-.8-.1-1.1-.4s-.4-.7-.4-1.3v-3.8h-1v-.9h1v-1.5h1.2v1.5h1.4v.9h-1.4v3.8c0 .3.1.5.2.7s.3.2.5.2h.5c.2 0 .3 0 .4-.1l.2.8c-.2.1-.4.1-.6.1h-.9z"/></g><path class="st2" d="M346 373.3c0-4.1 3.3-7.3 7.3-7.3h105.3c4.1 0 7.3 3.3 7.3 7.3v29.3c0 4.1-3.3 7.3-7.3 7.3H353.3c-4.1 0-7.3-3.3-7.3-7.3v-29.3z"/><g><path class="st1" d="M374.8 392.1c-.9 0-1.6-.2-2.1-.6s-1-.9-1.3-1.5-.4-1.4-.4-2.2v-.1c0-.8.2-1.6.5-2.2s.7-1.2 1.3-1.5 1.2-.6 2-.6c.6 0 1.1.1 1.5.3s.8.4 1.1.7v1.8h-.9l-.1-1.3c-.1-.1-.3-.2-.4-.2s-.3-.1-.5-.2-.4-.1-.6-.1c-.6 0-1 .1-1.4.4s-.7.7-.9 1.2-.3 1.1-.3 1.7v.1c0 .7.1 1.3.3 1.8s.5.9.9 1.2.9.4 1.5.4c.3 0 .5 0 .8-.1s.5-.2.7-.3l.1-1.2h.9v1.9c-.3.2-.7.4-1.1.5s-1.1.1-1.6.1zM381.3 392.1c-.6 0-1.1-.1-1.5-.4s-.8-.7-1-1.1-.3-1-.3-1.7v-.1c0-.6.1-1.2.3-1.7s.6-.9 1-1.1.9-.4 1.5-.4 1.1.1 1.5.4.8.7 1 1.1.3 1 .3 1.7v.1c0 .6-.1 1.2-.3 1.7s-.6.9-1 1.1-.9.4-1.5.4zm0-.9c.4 0 .7-.1.9-.3s.4-.5.6-.8.2-.7.2-1.2v-.1c0-.4-.1-.8-.2-1.2s-.3-.6-.6-.8-.6-.3-.9-.3c-.4 0-.7.1-.9.3s-.4.5-.6.8-.2.7-.2 1.2v.1c0 .4.1.8.2 1.2s.3.6.6.8.5.3.9.3zM385.1 392v-.7l1-.2v-4.5l-1-.2v-.7h2l.1.8c.2-.3.5-.5.8-.7s.7-.2 1.1-.2.8.1 1.1.3.5.5.7.9c.2-.4.5-.6.8-.9s.7-.3 1.1-.3c.6 0 1.2.2 1.5.7s.6 1.1.6 2v2.9l1 .2v.7h-3.1v-.7l1-.2v-2.9c0-.6-.1-1.1-.3-1.3s-.5-.4-1-.4c-.4 0-.7.1-1 .4s-.4.6-.4 1.1v3.1l1 .2v.7H389v-.7l1-.2v-2.9c0-.6-.1-1-.3-1.3s-.5-.4-1-.4c-.4 0-.6.1-.9.2s-.4.3-.5.6v3.8l1 .2v.7h-3.2zM396.5 394.4v-.7l.9-.2v-7l-1-.2v-.7h1.9l.1.8c.2-.3.5-.5.8-.7s.7-.2 1.1-.2c.5 0 1 .1 1.3.4s.7.7.8 1.2.3 1.1.3 1.8v.1c0 .6-.1 1.1-.3 1.6s-.5.8-.8 1.1-.8.4-1.3.4c-.4 0-.7-.1-1-.2s-.5-.3-.8-.6v2.2l1 .2v.7h-3zm3.5-3.2c.5 0 1-.2 1.2-.6s.4-.9.4-1.6v-.1c0-.5-.1-.9-.2-1.3s-.3-.7-.6-.9-.6-.3-.9-.3c-.3 0-.6.1-.8.2s-.4.4-.6.6v3.1c.1.3.3.5.6.6s.5.3.9.3zM403.6 392v-.7l1-.2v-7.3l-1-.2v-.7h2.1v8.2l1 .2v.7h-3.1zM410.5 392.1c-.6 0-1.1-.1-1.5-.4s-.8-.6-1-1.1-.4-1-.4-1.7v-.3c0-.6.1-1.1.4-1.6s.6-.8 1-1.1.9-.4 1.4-.4c.6 0 1 .1 1.4.4s.7.6.9 1 .3.9.3 1.5v.7h-4.1c0 .4.1.8.2 1.1s.3.6.6.7.6.3.9.3c.4 0 .7-.1 1-.2s.5-.3.8-.5l.5.8c-.2.2-.5.4-.9.6s-1 .2-1.5.2zm-1.7-3.9h2.9v-.2c0-.3-.1-.6-.2-.8s-.3-.4-.5-.6-.5-.2-.8-.2c-.3 0-.5.1-.7.2s-.4.4-.5.6-.2.6-.2 1zM416 392.1c-.5 0-.8-.1-1.1-.4s-.4-.7-.4-1.3v-3.8h-1v-.9h1v-1.5h1.2v1.5h1.4v.9h-1.4v3.8c0 .3.1.5.2.7s.3.2.5.2h.5c.2 0 .3 0 .4-.1l.2.8c-.2.1-.4.1-.6.1h-.9zM420.9 392.1c-.6 0-1.1-.1-1.5-.4s-.8-.6-1-1.1-.4-1-.4-1.7v-.3c0-.6.1-1.1.4-1.6s.6-.8 1-1.1.9-.4 1.4-.4c.6 0 1 .1 1.4.4s.7.6.9 1 .3.9.3 1.5v.7h-4.1c0 .4.1.8.2 1.1s.3.6.6.7.6.3.9.3c.4 0 .7-.1 1-.2s.5-.3.8-.5l.5.8c-.2.2-.5.4-.9.6s-.9.2-1.5.2zm-1.6-3.9h2.9v-.2c0-.3-.1-.6-.2-.8s-.3-.4-.5-.6-.5-.2-.8-.2c-.3 0-.5.1-.7.2s-.4.4-.5.6-.2.6-.2 1z"/></g><g><path class="st1" d="M430.4 392.1c-.5 0-1-.1-1.5-.2s-.9-.4-1.4-.7v-1.8h.9l.2 1.3c.3.2.5.3.8.4s.6.1 1 .1.7-.1 1-.2.5-.3.6-.5.2-.5.2-.7c0-.3-.1-.5-.2-.7s-.3-.4-.6-.5-.7-.3-1.2-.4c-.6-.1-1.1-.3-1.5-.5s-.7-.5-.9-.8-.3-.7-.3-1.1c0-.4.1-.8.4-1.2s.6-.6 1-.8.9-.3 1.5-.3 1.1.1 1.6.3.8.4 1.1.7v1.7h-.9l-.2-1.2c-.2-.1-.4-.3-.7-.4s-.6-.1-1-.1c-.3 0-.6.1-.9.2s-.4.3-.6.5-.2.5-.2.7c0 .2.1.5.2.6s.3.3.6.5.7.3 1.2.4c.9.2 1.6.6 2 1s.7 1 .7 1.6c0 .5-.1.9-.4 1.2s-.6.6-1 .8-.9.1-1.5.1zM437.9 392.1c-.6 0-1-.1-1.5-.3s-.8-.5-1.1-.9-.5-.8-.7-1.4-.2-1.1-.2-1.7v-.1c0-.6.1-1.2.2-1.7s.4-1 .7-1.4.7-.7 1.1-.9.9-.3 1.5-.3 1.1.1 1.5.3.8.5 1.1.9.5.8.7 1.4.2 1.1.2 1.7v.1c0 .6-.1 1.2-.2 1.7s-.4 1-.7 1.4-.7.7-1.1.9-.9.3-1.5.3zm0-.9c.6 0 1-.1 1.4-.4s.6-.7.8-1.2.2-1.1.2-1.8v-.1c0-.7-.1-1.2-.2-1.7s-.4-.9-.8-1.2-.8-.4-1.4-.4c-.5 0-.9.1-1.3.4s-.6.7-.8 1.2-.3 1.1-.3 1.7v.1c0 .7.1 1.2.3 1.8s.5.9.8 1.2.8.4 1.3.4z"/></g><path class="st2" d="M182 373.3c0-4.1 3.3-7.3 7.3-7.3h106.3c4.1 0 7.3 3.3 7.3 7.3v29.3c0 4.1-3.3 7.3-7.3 7.3H189.3c-4.1 0-7.3-3.3-7.3-7.3v-29.3z"/><g><path class="st1" d="M193.2 392v-.7l1-.2v-6.7l-1-.2v-.7h3.1v.7l-1 .2v6.7l1 .2v.7h-3.1zM197.1 392v-.7l1-.2v-4.5l-1-.2v-.7h2l.1.9c.2-.3.5-.6.8-.8s.7-.3 1.1-.3c.7 0 1.2.2 1.6.6s.6 1 .6 1.9v3.1l1 .2v.7h-3.1v-.7l1-.2V388c0-.6-.1-1-.3-1.2s-.6-.4-1-.4c-.3 0-.6.1-.9.2s-.5.4-.6.7v3.7l1 .2v.7h-3.3zM207.6 392l-2.3-5.5-.7-.1v-.7h2.7v.7l-.8.1 1.4 3.6.2.5.2-.5 1.3-3.6-.8-.1v-.7h2.7v.7l-.7.1-2.1 5.5h-1.1zM215 392.1c-.6 0-1.1-.1-1.5-.4s-.8-.7-1-1.1-.3-1-.3-1.7v-.1c0-.6.1-1.2.3-1.7s.6-.9 1-1.1.9-.4 1.5-.4 1.1.1 1.5.4.8.7 1 1.1.3 1 .3 1.7v.1c0 .6-.1 1.2-.3 1.7s-.6.9-1 1.1-.9.4-1.5.4zm0-.9c.4 0 .7-.1.9-.3s.4-.5.6-.8.2-.7.2-1.2v-.1c0-.4-.1-.8-.2-1.2s-.3-.6-.6-.8-.6-.3-.9-.3c-.4 0-.7.1-.9.3s-.4.5-.6.8-.2.7-.2 1.2v.1c0 .4.1.8.2 1.2s.3.6.6.8.5.3.9.3zM218.7 392v-.7l1-.2v-4.5l-1-.2v-.7h2.1v5.4l1 .2v.7h-3.1zm.9-7.9v-1.2h1.2v1.2h-1.2zM225.5 392.1c-.6 0-1.1-.1-1.5-.4s-.8-.6-1-1.1-.4-1-.4-1.7v-.2c0-.6.1-1.1.3-1.6s.6-.9 1-1.1.9-.4 1.5-.4c.5 0 1 .1 1.3.3s.7.4 1 .7v1.5h-.9l-.2-1.1c-.1-.1-.3-.2-.5-.3s-.4-.1-.7-.1c-.3 0-.6.1-.9.3s-.5.5-.6.8-.2.7-.2 1.1v.2c0 .5.1.9.2 1.2s.3.6.6.8.6.3.9.3c.4 0 .7-.1 1-.3s.4-.5.5-.9h1c0 .4-.1.7-.3 1s-.5.6-.8.8-.8.2-1.3.2zM231.8 392.1c-.6 0-1.1-.1-1.5-.4s-.8-.6-1-1.1-.4-1-.4-1.7v-.3c0-.6.1-1.1.4-1.6s.6-.8 1-1.1.9-.4 1.4-.4c.6 0 1 .1 1.4.4s.7.6.9 1 .3.9.3 1.5v.7h-4.1c0 .4.1.8.2 1.1s.3.6.6.7.6.3.9.3c.4 0 .7-.1 1-.2s.5-.3.8-.5l.5.8c-.2.2-.5.4-.9.6s-1 .2-1.5.2zm-1.7-3.9h2.9v-.2c0-.3-.1-.6-.2-.8s-.3-.4-.5-.6-.5-.2-.8-.2c-.3 0-.5.1-.7.2s-.4.4-.5.6-.2.6-.2 1zM242 392.1c-.9 0-1.6-.2-2.1-.6s-1-.9-1.3-1.5-.4-1.4-.4-2.2v-.1c0-.8.2-1.6.5-2.2s.7-1.2 1.3-1.5 1.2-.6 2-.6c.6 0 1.1.1 1.5.3s.8.4 1.1.7v1.8h-.9l-.1-1.3c-.1-.1-.3-.2-.4-.2s-.3-.1-.5-.2-.4-.1-.6-.1c-.6 0-1 .1-1.4.4s-.7.7-.9 1.2-.3 1.1-.3 1.7v.1c0 .7.1 1.3.3 1.8s.5.9.9 1.2.9.4 1.5.4c.3 0 .5 0 .8-.1s.5-.2.7-.3l.1-1.2h.9v1.9c-.3.2-.7.4-1.1.5s-1.1.1-1.6.1zM248.4 392.1c-.7 0-1.2-.2-1.6-.7s-.6-1.1-.6-2.1v-2.8l-.7-.2v-.7h1.9v3.8c0 .7.1 1.1.3 1.4s.5.4.9.4.7-.1 1-.2.5-.4.6-.7v-3.7l-.8-.2v-.7h2v5.4l.7.2v.7h-1.8l-.1-.9c-.2.3-.5.6-.8.8s-.6.2-1 .2zM255.5 392.1c-.4 0-.8 0-1.2-.1s-.8-.2-1.2-.4v-1.5h.9l.2.9c.2.1.4.2.6.2s.4.1.7.1c.5 0 .8-.1 1-.3s.3-.4.3-.7c0-.2-.1-.5-.3-.6s-.6-.3-1.1-.4c-.8-.2-1.3-.4-1.7-.7s-.5-.7-.5-1.2c0-.3.1-.7.3-.9s.5-.5.8-.6.8-.2 1.2-.2c.5 0 .9.1 1.2.2s.6.3.9.4l.1 1.4h-.9l-.2-.8c-.1-.1-.3-.2-.5-.2s-.4-.1-.6-.1c-.4 0-.7.1-.9.3s-.3.4-.3.6c0 .1 0 .3.1.4s.2.2.4.3.5.2.8.3c.9.2 1.5.5 1.8.8s.5.7.5 1.2-.2 1-.6 1.3-1 .3-1.8.3zM261.1 392.1c-.5 0-.8-.1-1.1-.4s-.4-.7-.4-1.3v-3.8h-1v-.9h1v-1.5h1.2v1.5h1.4v.9h-1.4v3.8c0 .3.1.5.2.7s.3.2.5.2h.5c.2 0 .3 0 .4-.1l.2.8c-.2.1-.4.1-.6.1h-.9zM266 392.1c-.6 0-1.1-.1-1.5-.4s-.8-.7-1-1.1-.3-1-.3-1.7v-.1c0-.6.1-1.2.3-1.7s.6-.9 1-1.1.9-.4 1.5-.4 1.1.1 1.5.4.8.7 1 1.1.3 1 .3 1.7v.1c0 .6-.1 1.2-.3 1.7s-.6.9-1 1.1-.9.4-1.5.4zm0-.9c.4 0 .7-.1.9-.3s.4-.5.6-.8.2-.7.2-1.2v-.1c0-.4-.1-.8-.2-1.2s-.3-.6-.6-.8-.6-.3-.9-.3c-.4 0-.7.1-.9.3s-.4.5-.6.8-.2.7-.2 1.2v.1c0 .4.1.8.2 1.2s.3.6.6.8.5.3.9.3zM269.8 392v-.7l1-.2v-4.5l-1-.2v-.7h2l.1.8c.2-.3.5-.5.8-.7s.7-.2 1.1-.2.8.1 1.1.3.5.5.7.9c.2-.4.5-.6.8-.9s.7-.3 1.1-.3c.6 0 1.2.2 1.5.7s.6 1.1.6 2v2.9l1 .2v.7h-3.1v-.7l1-.2v-2.9c0-.6-.1-1.1-.3-1.3s-.5-.4-1-.4c-.4 0-.7.1-1 .4s-.4.6-.4 1.1v3.1l1 .2v.7h-3.1v-.7l1-.2v-2.9c0-.6-.1-1-.3-1.3s-.5-.4-1-.4c-.4 0-.6.1-.9.2s-.4.3-.5.6v3.8l1 .2v.7h-3.2zM284.3 392.1c-.6 0-1.1-.1-1.5-.4s-.8-.6-1-1.1-.4-1-.4-1.7v-.3c0-.6.1-1.1.4-1.6s.6-.8 1-1.1.9-.4 1.4-.4c.6 0 1 .1 1.4.4s.7.6.9 1 .3.9.3 1.5v.7h-4.1c0 .4.1.8.2 1.1s.3.6.6.7.6.3.9.3c.4 0 .7-.1 1-.2s.5-.3.8-.5l.5.8c-.2.2-.5.4-.9.6s-1 .2-1.5.2zm-1.7-3.9h2.9v-.2c0-.3-.1-.6-.2-.8s-.3-.4-.5-.6-.5-.2-.8-.2c-.3 0-.5.1-.7.2s-.4.4-.5.6-.2.6-.2 1zM287.6 392v-.7l1-.2v-4.5l-1-.2v-.7h2l.1.8v.1c.2-.3.4-.6.7-.8s.6-.3.9-.3h.4c.2 0 .2 0 .3.1l-.2 1.1h-.8c-.3 0-.6 0-.8.2s-.4.4-.5.6v3.6l1 .2v.7h-3.1z"/></g><path class="st3" d="M176.9 82.2l6 3-6 3v-6zm-49.4-30h28v33l-.2-.2H178v.5h-23v-33l.2.2h-27.7v-.5z"/><path class="st3" d="M176.9 88.5l6-3-6-3v6zm-49.4 44.9h28V85.5l-.2.2H178v-.5h-23v47.9l.2-.2h-27.7v.5zM340.3 24.5l6-3-6-3v6zm-36.8 60.8h21.7V21.5l-.2.2h16.4v-.5h-16.7V85l.2-.2h-21.4v.5z"/><path class="st3" d="M340.3 82.7l6 3-6 3v-6zm-36.8 2.5h21.7v.5l-.2-.2h16.4v.5h-16.7v-.5l.2.2h-21.4v-.5z"/><path class="st3" d="M340.3 146.4l6 3-6 3v-6zm-36.8-61.2h21.7v64.2l-.2-.2h16.4v.5h-16.7V85.5l.2.2h-21.4v-.5zM501.3 88.5l6-3-6-3v6zm-36.8 61.2h21.7V85.5l-.2.2h16.4v-.5h-16.7v64.2l.2-.2h-21.4v.5z"/><path class="st3" d="M501.3 88.5l6-3-6-3v6zM464.5 86h21.7v-.5l-.2.2h16.4v-.5h-16.7v.5l.2-.2h-21.4v.5z"/><path class="st3" d="M501.3 82l6 3-6 3v-6zm-36.8-60.8h21.7V85l-.2-.2h16.4v.5h-16.7V21.5l.2.2h-21.4v-.5zM689.6 82.5l6 3-6 3v-6zm-51.1 2.7h52.1v.5h-52.1v-.5zM820.5 251.4l-6-3 6-3v6zm-7-166.2h18.2v163.4h-12.2v-.5h12l-.2.2V85.5l.2.2h-18v-.5zM637.5 251.5l-6-3 6-3v6zm57.6-2.7h-32v-.3l.2.2h-26.8v-.5h27v.3l-.2-.2h31.8v.5zM470.5 251.5l-6-3 6-3v6zm43.1-2.7h-44.1v-.5h44.1v.5zM309.5 251.5l-6-3 6-3v6zm37.1-2.7h-38.1v-.5h38.1v.5z"/><path class="st0" d="M0 300.3c0-4.1 3.3-7.3 7.3-7.3h112.3c4.1 0 7.3 3.3 7.3 7.3v29.3c0 4.1-3.3 7.3-7.3 7.3H7.3c-4.1 0-7.3-3.3-7.3-7.3v-29.3z"/><g><path class="st1" d="M40.9 312.1c-.5 0-1-.1-1.5-.2s-.9-.4-1.4-.7v-1.8h1l.2 1.3c.3.2.5.3.8.4s.6.1 1 .1.7-.1 1-.2.5-.3.6-.5.2-.5.2-.7c0-.3-.1-.5-.2-.7s-.3-.4-.6-.5-.7-.3-1.2-.4c-.6-.1-1.1-.3-1.5-.5s-.7-.5-.9-.8-.3-.7-.3-1.1c0-.4.1-.8.4-1.2s.6-.6 1-.8.9-.3 1.5-.3 1.1.1 1.6.3.8.4 1.1.7v1.7h-.9l-.2-1.2c-.2-.1-.4-.3-.7-.4s-.6-.1-1-.1c-.3 0-.6.1-.9.2s-.4.3-.6.5-.2.5-.2.7c0 .2.1.5.2.6s.3.3.6.5.7.3 1.2.4c.9.2 1.6.6 2 1s.7 1 .7 1.6c0 .5-.1.9-.4 1.2s-.6.6-1 .8-.9.1-1.6.1zM47.8 312.1c-.6 0-1.1-.1-1.5-.4s-.8-.6-1-1.1-.4-1-.4-1.7v-.2c0-.6.1-1.1.3-1.6s.6-.9 1-1.1.9-.4 1.5-.4c.5 0 1 .1 1.3.3s.7.4 1 .7v1.5h-.9l-.2-1.1c-.1-.1-.3-.2-.5-.3s-.4-.1-.7-.1c-.3 0-.6.1-.9.3s-.5.5-.6.8-.2.7-.2 1.1v.2c0 .5.1.9.2 1.2s.3.6.6.8.6.3.9.3c.4 0 .7-.1 1-.3s.4-.5.5-.9h1c0 .4-.1.7-.3 1s-.5.6-.8.8-.8.2-1.3.2zM51.1 312v-.7l1-.2v-7.3l-1-.2v-.7h2.1v3.6c.2-.3.5-.5.8-.7s.7-.3 1.1-.3c.7 0 1.2.2 1.6.6s.6 1 .6 1.9v3.1l1 .2v.7h-3.1v-.7l1-.2V308c0-.5-.1-.9-.3-1.2s-.6-.4-1-.4c-.3 0-.6.1-.9.2s-.5.4-.6.6v3.8l1 .2v.7h-3.3zM61.8 312.1c-.6 0-1.1-.1-1.5-.4s-.8-.6-1-1.1-.4-1-.4-1.7v-.3c0-.6.1-1.1.4-1.6s.6-.8 1-1.1.9-.4 1.4-.4c.6 0 1 .1 1.4.4s.7.6.9 1c.2.4.3.9.3 1.5v.7h-4.1c0 .4.1.8.2 1.1s.3.6.6.7.6.3.9.3c.4 0 .7-.1 1-.2s.5-.3.8-.5l.5.8c-.2.2-.5.4-.9.6s-.9.2-1.5.2zm-1.6-3.9h2.9v-.2c0-.3-.1-.6-.2-.8s-.3-.4-.5-.6-.5-.2-.8-.2c-.3 0-.5.1-.7.2s-.4.4-.5.6-.2.6-.2 1zM67.7 312.1c-.5 0-1-.1-1.3-.4s-.7-.6-.8-1.1-.3-1-.3-1.6v-.1c0-.7.1-1.3.3-1.8s.5-.9.8-1.2.8-.4 1.3-.4c.4 0 .7.1 1 .2s.5.3.7.6v-2.6l-1-.2v-.7h2.2v8.2l1 .2v.7h-2l-.1-.8c-.2.3-.5.5-.8.7s-.6.3-1 .3zm.3-.9c.3 0 .6-.1.9-.2s.4-.4.6-.7v-2.9c-.1-.3-.3-.5-.6-.6s-.5-.2-.9-.2-.7.1-.9.3-.4.5-.5.9-.2.8-.2 1.3v.1c0 .6.1 1.1.4 1.5s.6.5 1.2.5zM75.1 312.1c-.7 0-1.2-.2-1.6-.7s-.6-1.1-.6-2.1v-2.8l-.7-.2v-.7h1.9v3.8c0 .7.1 1.1.3 1.4s.5.4.9.4.7-.1 1-.2.5-.4.6-.7v-3.7l-.8-.2v-.7h2v5.4l.7.2v.7H77l-.1-.9c-.2.3-.5.6-.8.8s-.6.2-1 .2zM79.5 312v-.7l1-.2v-7.3l-1-.2v-.7h2.1v8.2l1 .2v.7h-3.1zM86.3 312.1c-.6 0-1.1-.1-1.5-.4s-.8-.6-1-1.1-.4-1-.4-1.7v-.3c0-.6.1-1.1.4-1.6s.6-.8 1-1.1.9-.4 1.4-.4c.6 0 1 .1 1.4.4s.7.6.9 1 .3.9.3 1.5v.7h-4.1c0 .4.1.8.2 1.1s.3.6.6.7.6.3.9.3c.4 0 .7-.1 1-.2s.5-.3.8-.5l.5.8c-.2.2-.5.4-.9.6s-1 .2-1.5.2zm-1.6-3.9h2.9v-.2c0-.3-.1-.6-.2-.8s-.3-.4-.5-.6-.5-.2-.8-.2c-.3 0-.5.1-.7.2s-.4.4-.5.6-.2.6-.2 1z"/></g><g><path class="st1" d="M39.6 327.1c-.6 0-1-.1-1.5-.3s-.8-.5-1.1-.9-.5-.8-.7-1.4-.2-1.1-.2-1.7v-.1c0-.6.1-1.2.2-1.7s.4-1 .7-1.4.7-.7 1.1-.9.9-.3 1.5-.3 1.1.1 1.5.3.8.5 1.1.9.5.8.7 1.4.2 1.1.2 1.7v.1c0 .6-.1 1.2-.2 1.7s-.4 1-.7 1.4-.7.7-1.1.9-.9.3-1.5.3zm0-.9c.6 0 1-.1 1.4-.4s.6-.7.8-1.2.2-1.1.2-1.8v-.1c0-.7-.1-1.2-.2-1.7s-.4-.9-.8-1.2-.8-.4-1.4-.4c-.5 0-.9.1-1.3.4s-.6.7-.8 1.2-.3 1.1-.3 1.7v.1c0 .7.1 1.2.3 1.8s.5.9.8 1.2.8.4 1.3.4zM43.8 329.4v-.7l.9-.2v-7l-1-.2v-.7h1.9l.1.8c.2-.3.5-.5.8-.7s.7-.2 1.1-.2c.5 0 1 .1 1.3.4s.7.7.8 1.2.3 1.1.3 1.8v.1c0 .6-.1 1.1-.3 1.6s-.5.8-.8 1.1-.8.4-1.3.4c-.4 0-.7-.1-1-.2s-.5-.3-.8-.6v2.2l1 .2v.7h-3zm3.5-3.2c.5 0 1-.2 1.2-.6s.4-.9.4-1.6v-.1c0-.5-.1-.9-.2-1.3s-.3-.7-.6-.9-.6-.3-.9-.3c-.3 0-.6.1-.8.2s-.4.4-.6.6v3.1c.1.3.3.5.6.6s.5.3.9.3zM53.9 327.1c-.6 0-1.1-.1-1.5-.4s-.8-.6-1-1.1-.4-1-.4-1.7v-.3c0-.6.1-1.1.4-1.6s.6-.8 1-1.1.9-.4 1.4-.4c.6 0 1 .1 1.4.4s.7.6.9 1 .3.9.3 1.5v.7h-4.1c0 .4.1.8.2 1.1s.3.6.6.7.6.3.9.3c.4 0 .7-.1 1-.2s.5-.3.8-.5l.5.8c-.2.2-.5.4-.9.6s-1 .2-1.5.2zm-1.7-3.9h2.9v-.2c0-.3-.1-.6-.2-.8s-.3-.4-.5-.6-.5-.2-.8-.2c-.3 0-.5.1-.7.2s-.4.4-.5.6-.2.6-.2 1zM57.2 327v-.7l1-.2v-4.5l-1-.2v-.7h2l.1.8v.1c.2-.3.4-.6.7-.8s.6-.3.9-.3h.4c.2 0 .2 0 .3.1l-.2 1.1h-.8c-.3 0-.6 0-.8.2s-.4.4-.5.6v3.6l1 .2v.7h-3.1zM64.3 327.1c-.7 0-1.2-.2-1.5-.5s-.5-.8-.5-1.4c0-.4.1-.8.3-1.1s.5-.5 1-.7.9-.2 1.5-.2h1.1v-.6c0-.4-.1-.7-.3-.9s-.6-.3-1-.3c-.3 0-.5 0-.7.1-.2.1-.4.2-.5.3l-.1.9h-.9v-1.5c.3-.2.6-.4 1-.5s.8-.2 1.3-.2c.8 0 1.4.2 1.8.6s.7.9.7 1.6V326.2l.6.1v.7h-1.7c0-.2-.1-.3-.1-.5v-.4c-.2.3-.5.5-.8.7s-.9.3-1.2.3zm.1-.9c.4 0 .7-.1 1-.3s.5-.4.7-.7v-1.1H65c-.5 0-.9.1-1.2.4-.3.3-.4.5-.4.8 0 .3.1.5.3.6s.4.3.7.3zM71.1 327.1c-.5 0-.8-.1-1.1-.4s-.4-.7-.4-1.3v-3.8h-1v-.9h1v-1.5h1.2v1.5h1.4v.9h-1.4v3.8c0 .3.1.5.2.7s.3.2.5.2h.5c.2 0 .3 0 .4-.1l.2.8c-.2.1-.4.1-.6.1h-.9zM73.1 327v-.7l1-.2v-4.5l-1-.2v-.7h2.1v5.4l1 .2v.7h-3.1zm.9-7.9v-1.2h1.2v1.2H74zM79.8 327.1c-.6 0-1.1-.1-1.5-.4s-.8-.7-1-1.1-.3-1-.3-1.7v-.1c0-.6.1-1.2.3-1.7s.6-.9 1-1.1.9-.4 1.5-.4 1.1.1 1.5.4.8.7 1 1.1.3 1 .3 1.7v.1c0 .6-.1 1.2-.3 1.7s-.6.9-1 1.1-.9.4-1.5.4zm0-.9c.4 0 .7-.1.9-.3s.4-.5.6-.8.2-.7.2-1.2v-.1c0-.4-.1-.8-.2-1.2s-.3-.6-.6-.8-.6-.3-.9-.3c-.4 0-.7.1-.9.3s-.4.5-.6.8-.2.7-.2 1.2v.1c0 .4.1.8.2 1.2s.3.6.6.8.6.3.9.3zM83.6 327v-.7l1-.2v-4.5l-1-.2v-.7h2l.1.9c.2-.3.5-.6.8-.8s.7-.3 1.1-.3c.7 0 1.2.2 1.6.6s.6 1 .6 1.9v3.1l1 .2v.7h-3.1v-.7l1-.2V323c0-.6-.1-1-.3-1.2s-.6-.4-1-.4c-.3 0-.6.1-.9.2s-.5.4-.6.7v3.7l1 .2v.7h-3.3z"/></g><path class="st3" d="M60.5 287.9l3 6 3-6h-6zm122.3-39.7H63.2v40.7h.5v-40.4l-.2.2h119.3v-.5zM176.5 312.5l6 3-6 3v-6zm-49 2.7h50v.5h-50v-.5zM245.5 361l-3 6-3-6h6zm-2.7-23.5V362h-.5v-24.5h.5zM340.7 385.5l6 3-6 3v-6zm-37.2 2.7h38.2v.5h-38.2v-.5z"/></svg>