<svg id="Layer_1" data-name="Layer 1" xmlns="http://www.w3.org/2000/svg" viewBox="0 0 252 144"><defs><clipPath id="clip-path"><path class="cls-1" d="M0 0h252v144H0z"/></clipPath><clipPath id="clip-path-4"><path class="cls-1" d="M9.07 112.7h140.02v15.81H9.07z"/></clipPath><clipPath id="clip-path-5"><path class="cls-1" d="M9.56 101.88h67.06v13.62H9.56z"/></clipPath><style>.cls-1{fill:none}.cls-2{clip-path:url(#clip-path)}.cls-4{fill:#ee6924}.cls-5{fill:#066db6}.cls-6{fill:#fff}.cls-7{opacity:.8}.cls-9{fill:#3d3634}</style></defs><g class="cls-2"><g class="cls-2"><path fill="#216eb3" d="M137.78 0l23.68 144H252V0H137.78z"/><path class="cls-4" d="M18.49 23.07h3.06v13.24h-3.06z"/><g class="cls-2"><path class="cls-4" d="M23.4 23.07h2.68c0 .75.09 1.35.14 1.82s.1 1 .14 1.57a6.8 6.8 0 012.07-2.71 5.39 5.39 0 013.35-1 4.74 4.74 0 013.3 1.11 3.89 3.89 0 011.29 2.88v9.6h-3v-8.2a2.6 2.6 0 00-.7-1.66 2.73 2.73 0 00-2-.77A4.34 4.34 0 0029 26a4.19 4.19 0 00-1.34.89 3.81 3.81 0 00-.86 1.34 4.64 4.64 0 00-.3 1.68v6.39h-3.1z"/><path class="cls-5" d="M40.35 29.64a4.14 4.14 0 00.31 1.62 3.57 3.57 0 00.86 1.29 4 4 0 001.32.86 4.39 4.39 0 001.69.31 4.51 4.51 0 001.7-.31 3.85 3.85 0 002.2-2.18 4.24 4.24 0 00.3-1.59 4.1 4.1 0 00-.3-1.57 3.58 3.58 0 00-.86-1.26 4.09 4.09 0 00-1.34-.81 4.71 4.71 0 00-1.7-.31 4.58 4.58 0 00-1.69.3 3.92 3.92 0 00-1.32.84 3.61 3.61 0 00-.86 1.28 3.93 3.93 0 00-.31 1.57m-3.06.12a7 7 0 01.55-2.8 7 7 0 011.48-2.25 6.83 6.83 0 014.89-2 5.85 5.85 0 011.91.29 6.71 6.71 0 011.39.62 4.45 4.45 0 01.86.65l.36.38a4.11 4.11 0 01.07-.75 5.73 5.73 0 00.06-.84h2.93v12.52a8 8 0 01-.54 3 6 6 0 01-1.51 2.21 6.64 6.64 0 01-2.33 1.35 9.09 9.09 0 01-3 .47 8.38 8.38 0 01-2.18-.25 7.82 7.82 0 01-1.69-.65 8.36 8.36 0 01-1.37-.91l-1.2-1 2-2a10.71 10.71 0 001.91 1.39 5 5 0 002.49.57 4.94 4.94 0 003.15-.93 3.18 3.18 0 001.18-2.65v-.36a3.19 3.19 0 010-.42 1.49 1.49 0 01.07-.49 1.48 1.48 0 00.06-.38c-.19.21-.42.44-.68.69a5.11 5.11 0 01-1 .68 5.88 5.88 0 01-1.29.52 6.58 6.58 0 01-1.69.2 7.27 7.27 0 01-2.8-.53 6.57 6.57 0 01-3.64-3.65 7.07 7.07 0 01-.51-2.71M55.87 29.64a4.32 4.32 0 00.3 1.62 3.84 3.84 0 00.83 1.29 4.12 4.12 0 001.33.86 4.76 4.76 0 003.38 0 4.1 4.1 0 001.32-.87 4 4 0 00.86-1.31 4.24 4.24 0 00.3-1.59 4.07 4.07 0 00-.3-1.57 3.71 3.71 0 00-.86-1.27 4.38 4.38 0 00-1.29-.8 4.83 4.83 0 00-3.38 0 4.07 4.07 0 00-1.33.84 3.9 3.9 0 00-.86 1.28 4.07 4.07 0 00-.3 1.57m-3.09.19a6.68 6.68 0 01.57-2.73 7.58 7.58 0 011.55-2.26 7.73 7.73 0 012.26-1.54 6.69 6.69 0 012.73-.58 5.77 5.77 0 011.72.24 6.82 6.82 0 011.32.54 4.09 4.09 0 01.88.64 2.29 2.29 0 01.41.52l.13-1.59h3v13.19h-3.13v-.88a2.64 2.64 0 010-.29 1.82 1.82 0 000-.2 5.52 5.52 0 01-.44.45A4.13 4.13 0 0163 36a7.1 7.1 0 01-1.29.49 6.94 6.94 0 01-1.74.2 7.27 7.27 0 01-2.87-.56 7.37 7.37 0 01-2.26-1.5 6.64 6.64 0 01-2-4.76M71.39 29.64a4.32 4.32 0 00.3 1.62 3.84 3.84 0 00.86 1.29 4.12 4.12 0 001.33.86 4.39 4.39 0 001.69.31 4.51 4.51 0 001.7-.31 3.85 3.85 0 002.2-2.18 4.24 4.24 0 00.3-1.59 4.1 4.1 0 00-.3-1.57 3.58 3.58 0 00-.86-1.26 4.09 4.09 0 00-1.34-.81 4.71 4.71 0 00-1.7-.31 4.58 4.58 0 00-1.69.3 4.07 4.07 0 00-1.33.84 3.9 3.9 0 00-.86 1.28 4.1 4.1 0 00-.3 1.57m-3.06.12a7.08 7.08 0 012-5 6.78 6.78 0 012.19-1.48 7 7 0 012.7-.53 5.85 5.85 0 011.91.29 6.38 6.38 0 011.38.62 4.55 4.55 0 01.87.65l.36.38a4.11 4.11 0 01.07-.75 5.73 5.73 0 00.06-.84h2.93v12.48a8 8 0 01-.54 3 6.12 6.12 0 01-1.51 2.21 6.64 6.64 0 01-2.33 1.35 9.13 9.13 0 01-3 .47 8.33 8.33 0 01-2.18-.25 7.82 7.82 0 01-1.69-.65 8.36 8.36 0 01-1.37-.91q-.63-.49-1.2-1l2-2a10.71 10.71 0 001.91 1.39 5 5 0 002.49.57 5 5 0 003.15-.93 3.18 3.18 0 001.18-2.65v-.36a3.19 3.19 0 010-.42 1.49 1.49 0 01.07-.49 1.48 1.48 0 00.06-.38q-.29.31-.69.69a4.72 4.72 0 01-.95.68 5.88 5.88 0 01-1.29.52 6.58 6.58 0 01-1.69.2 7.33 7.33 0 01-2.81-.53 6.52 6.52 0 01-2.19-1.46 6.62 6.62 0 01-1.44-2.19 7.07 7.07 0 01-.51-2.71"/><path class="cls-4" d="M18.13 19.87a1.71 1.71 0 01.6-1.34A2 2 0 0120 18a1.9 1.9 0 011.29.53 1.73 1.73 0 01.59 1.34 1.71 1.71 0 01-.59 1.35 1.88 1.88 0 01-1.29.52 2 2 0 01-1.31-.52 1.68 1.68 0 01-.6-1.35"/><path class="cls-5" d="M86.88 29.55a3.36 3.36 0 01.32-1.45 4.29 4.29 0 01.86-1.25 4.12 4.12 0 011.3-.87 4.06 4.06 0 011.64-.33 3.77 3.77 0 011.5.33 2.31 2.31 0 011.14 1l-1.49.58-1.74.7-1.83.74-1.7.67zm5.78 3.87a5 5 0 01-1.67.3 4.08 4.08 0 01-2.17-.59 4.41 4.41 0 01-1.07-.94l9.77-4a6.63 6.63 0 00-6.6-5.4 7 7 0 00-1.6.18 7.31 7.31 0 00-1.12.36 7.08 7.08 0 00-2.26 1.5A7.17 7.17 0 0084.39 27a6.44 6.44 0 00-.53 1.93v.76a6.47 6.47 0 00.57 2.7 7.29 7.29 0 001.55 2.21 7.34 7.34 0 005.11 2 8.54 8.54 0 002.87-.5 7.26 7.26 0 002.39-1.37l-2.26-2.15a3.9 3.9 0 01-1.39.79"/><path class="cls-4" d="M101.69 39.38l-5.14-3.33a.13.13 0 00-.2.1v1.28a.23.23 0 01-.24.23h-1.76a.19.19 0 00-.19.19v3.26a.2.2 0 00.19.19h1.76a.23.23 0 01.24.23v1.27a.13.13 0 00.2.11l5.14-3.33a.12.12 0 000-.2m-9.85 1.45v-.76a.47.47 0 00-.47-.47h-.79a.47.47 0 00-.47.47v.76a.47.47 0 00.47.47h.79a.47.47 0 00.47-.47m2 0v-.76a.47.47 0 00-.48-.47h-.78a.48.48 0 00-.48.47v.76a.48.48 0 00.48.47h.78a.47.47 0 00.48-.47m-4-1.94v-.77a.47.47 0 00-.47-.46h-.79a.47.47 0 00-.47.46v.77a.46.46 0 00.47.46h.79a.46.46 0 00.47-.46m2 0v-.77a.47.47 0 00-.47-.46h-.79a.47.47 0 00-.47.46v.77a.46.46 0 00.47.46h.79a.46.46 0 00.47-.46m1.51.46h-.78a.47.47 0 01-.48-.46v-.77a.48.48 0 01.48-.46h.78a.47.47 0 01.48.46v.77a.46.46 0 01-.48.46"/><path class="cls-6" d="M231.67 38.07a1 1 0 011.05 1.12 1 1 0 01-1 1.07 1 1 0 01-1.13-1.12 1 1 0 011.1-1.07m1.69-1.29a1.57 1.57 0 00-1.69-1.41c-1.36 0-1.93 1-1.93 2.75s.41 2.86 2 2.86a1.69 1.69 0 001.79-1.83 1.63 1.63 0 00-1.68-1.8 1.58 1.58 0 00-1.38.69c0-1.43.42-1.95 1.2-1.95a.8.8 0 01.9.69zm-8.12 4.12h3.64v-.71h-2.37c.87-.8 2.22-1.82 2.22-3.14A1.57 1.57 0 00227 35.4a1.66 1.66 0 00-1.76 1.76h.83c0-.62.34-1 .94-1s.89.39.89 1c0 1.08-1.36 2.07-2.65 3.2zm-4.33 0h3.65v-.71h-2.38c.88-.8 2.23-1.82 2.23-3.14a1.57 1.57 0 00-1.74-1.65 1.66 1.66 0 00-1.77 1.76h.83c0-.62.34-1 .94-1s.89.39.89 1c0 1.08-1.36 2.07-2.65 3.2zm-4.5-5.41v3.16h.81a1 1 0 011-.68 1 1 0 011.07 1.12 1.1 1.1 0 01-2.15.41h-.83a1.75 1.75 0 001.87 1.5 1.77 1.77 0 001.89-1.92 1.67 1.67 0 00-1.76-1.82 1.42 1.42 0 00-1.13.5v-1.5h2.51v-.75zm-4.2 3.6l1.77-2.64v2.64zm1.71 1.91h.84v-1.16h.7v-.75h-.7v-3.52h-1l-2.52 3.62v.65h2.71zm-6.42 0h.85v-5.24h-.85V38h-2.45v-2.24h-.86V41h.86v-2.3h2.45zm-8.6-2.62a1.79 1.79 0 111.79 1.93 1.75 1.75 0 01-1.79-1.93m4.45 0a2.66 2.66 0 10-2.66 2.62 2.6 2.6 0 002.66-2.67m-9.2 3.67h.55l.91-2.07h-.93zm-1-5.73a.53.53 0 00.54-.54.55.55 0 10-1.09 0 .53.53 0 00.55.54m-.46 4.73h.86v-4.16h-.86zm-2.65-1.15c0 .84.46 1.15 1.19 1.15h.68v-.72h-.53c-.36 0-.48-.12-.48-.43v-2.31h1v-.7h-1v-1h-.86v1h-.49v.7h.49zm-2.12-.92a1.28 1.28 0 01-1.26 1.39 1.31 1.31 0 01-1.25-1.41 1.27 1.27 0 011.25-1.37 1.28 1.28 0 011.26 1.39m-3.39 0a2 2 0 001.94 2.07 1.8 1.8 0 001.45-.68V41h.86v-4.16h-.86v.6a1.77 1.77 0 00-1.44-.66 2 2 0 00-1.95 2.11M182.9 41h.85v-2.46a1.6 1.6 0 00-1.69-1.76 1.56 1.56 0 00-1.23.54v-.48H180V41h.86v-2.33c0-.76.41-1.15 1-1.15s1 .39 1 1.15zm-4.9 0h.84v-2.46a1.6 1.6 0 00-1.69-1.76 1.58 1.58 0 00-1.23.54v-.48h-.86V41h.94v-2.33c0-.76.41-1.15 1-1.15a1 1 0 011 1.15zm-4.48-4.69a.53.53 0 00.54-.54.55.55 0 10-1.09 0 .53.53 0 00.55.54m-.4 4.69h.88v-4.16h-.86zm-4.78-2.07a2 2 0 002 2.13 1.85 1.85 0 001.91-1.37h-.92a1 1 0 01-1 .65c-.69 0-1.14-.51-1.14-1.41s.45-1.41 1.14-1.41a1 1 0 011 .65h.92a1.79 1.79 0 00-1.91-1.37 2 2 0 00-2 2.13M166.69 41h.85v-2.46a1.69 1.69 0 00-2.93-1.22v-.48h-.85V41h.85v-2.33c0-.76.41-1.15 1-1.15s1 .39 1 1.15zm-4.48-4.69a.53.53 0 00.54-.54.55.55 0 10-1.09 0 .53.53 0 00.55.54m-.43 4.69h.85v-4.16h-.85zm-6.09-2.62a2.61 2.61 0 002.67 2.62 2.48 2.48 0 002.42-1.56h-1a1.45 1.45 0 01-1.39.82 1.92 1.92 0 010-3.83 1.46 1.46 0 011.39.81h1a2.48 2.48 0 00-2.42-1.56 2.61 2.61 0 00-2.67 2.66M233.64 29.48a.55.55 0 10-.54.55.54.54 0 00.54-.55m-2.91-1.68c0-.88.39-1.14 1-1.14h.27v-.89a1.35 1.35 0 00-1.24.67v-.6h-.85V30h.85zm-5.32 1.48v-3.82h.85a1.74 1.74 0 011.89 1.93 1.72 1.72 0 01-1.89 1.89zm.85-4.52h-1.7V30h1.7a2.5 2.5 0 002.74-2.61 2.53 2.53 0 00-2.77-2.63m-4.6 4h-.93a1 1 0 01-1 .58 1.14 1.14 0 01-1.18-1.09h3.16a3.07 3.07 0 000-.42 1.93 1.93 0 00-2-2 2 2 0 00-2.06 2.13 2 2 0 002.14 2.04 1.9 1.9 0 001.9-1.3m-1.94-2.25a1.08 1.08 0 011.16 1.05h-2.29a1.12 1.12 0 011.13-1.05M216 27.9a1.28 1.28 0 01-1.25 1.4 1.3 1.3 0 01-1.25-1.41 1.26 1.26 0 112.5 0m-3.38 0a2 2 0 001.94 2.11 1.69 1.69 0 001.43-.69V30h.87v-5.58H216v2a1.89 1.89 0 00-1.42-.65 2 2 0 00-2 2.12m-1.26-2.6a.55.55 0 10-.55-.54.54.54 0 00.55.54m-.4 4.71h.85v-4.16h-.85zm-.92-1.18c0-1.49-2.37-1-2.37-1.86 0-.28.24-.47.69-.47a.69.69 0 01.78.61h.85a1.42 1.42 0 00-1.6-1.33c-1 0-1.59.54-1.59 1.2 0 1.51 2.4 1.05 2.4 1.86 0 .28-.26.49-.75.49a.76.76 0 01-.83-.61h-.88a1.55 1.55 0 001.71 1.29c1 0 1.58-.52 1.58-1.22m-5.1-1c0-.88.39-1.14 1-1.14h.21v-.89a1.35 1.35 0 00-1.23.67v-.6H204V30h.86zm-1.81.94h-.92a1 1 0 01-1 .58 1.14 1.14 0 01-1.16-1.07h3.16a3.07 3.07 0 000-.42 1.93 1.93 0 00-2-2 2 2 0 00-2.06 2.13 2 2 0 002.08 2.06 1.89 1.89 0 001.9-1.3m-1.94-2.25a1.08 1.08 0 011.16 1.05H200a1.13 1.13 0 011.13-1.05m-6.54-.65l1.57 4.2h1l1.58-4.13h-.91l-1.17 3.37-1.17-3.37zm-1.06-.55a.55.55 0 10-.55-.54.54.54 0 00.55.54M193.1 30h.9v-4.16h-.86zm-4.74-5.21V30h.86v-2.11h.65l1.2 2.08h1l-1.29-2.16a1.47 1.47 0 001.22-1.49c0-.85-.61-1.56-1.85-1.56zm2.77 1.56a.84.84 0 01-1 .89h-.94v-1.78h.94c.67 0 1 .34 1 .86m-9.3-.46h.83a.85.85 0 01.93-.75c.59 0 .9.32.9.79s-.48.81-1.25.82H183v.7h.19c.9 0 1.36.25 1.36 1a.85.85 0 01-1 .9 1 1 0 01-1.06-.9h-.82a1.68 1.68 0 001.98 1.58 1.54 1.54 0 001.75-1.53 1.33 1.33 0 00-.94-1.4 1.27 1.27 0 00.84-1.24c0-.79-.59-1.42-1.68-1.42a1.6 1.6 0 00-1.79 1.48m-4 2.23l1.77-2.65v2.65zM179.6 30h.84v-1.17h.7v-.74h-.7v-3.52h-1l-2.52 3.62v.64h2.71zm-5.35-2.76a1.06 1.06 0 111-1 .93.93 0 01-1 1m-1.74 1.28a1.57 1.57 0 001.72 1.48c1.44 0 1.83-1 1.83-2.83s-.48-2.76-1.89-2.76a1.68 1.68 0 00-1.81 1.81 1.63 1.63 0 001.74 1.74 1.46 1.46 0 001.21-.53c0 1.4-.34 1.85-1 1.85a.89.89 0 01-1-.76zm-4.67 1.41h3.64v-.71h-2.38c.88-.81 2.23-1.82 2.23-3.15a1.57 1.57 0 00-1.74-1.65 1.66 1.66 0 00-1.76 1.77h.82c0-.62.35-1 .95-1s.88.39.88 1c0 1.07-1.35 2.06-2.64 3.2zM232.25 122.72h-.65v2.43h.68v-1.27c0-.49.17-.69.54-.69s.43.19.43.59v1.37h.68v-1.5c0-.59-.19-1-.91-1a.9.9 0 00-.76.4zm-3 1.21c0-.39.13-.78.6-.78s.61.39.61.78-.14.77-.61.77-.6-.39-.6-.77m-.68 0a1.29 1.29 0 101.28-1.27 1.18 1.18 0 00-1.28 1.27m-.38-1.21h-.68v2.43h.68zm0-.93h-.68v.55h.68zm-2.21.93h-.41v.45h.43v1.42c0 .48.36.58.78.58a2.49 2.49 0 00.4 0v-.52a.68.68 0 01-.21 0c-.23 0-.29-.06-.29-.28v-1.2h.5v-.45h-.5V122H226zm-2.37 1.73c0-.25.19-.31.4-.35a1.58 1.58 0 00.57-.14v.25a.5.5 0 01-.56.56c-.22 0-.42-.07-.42-.32m-.68 0c0 .49.38.72.85.72a1.18 1.18 0 00.83-.3.69.69 0 00.05.24h.69a1.16 1.16 0 01-.09-.55v-1.25c0-.59-.59-.69-1.09-.69s-1.13.18-1.17.81h.69c0-.27.2-.37.45-.37s.45 0 .45.33-.39.24-.81.31-.85.18-.85.74m-1.78-1.77v2.43h.67V124c0-.43.18-.78.68-.78a1 1 0 01.25 0v-.62h-.15a.89.89 0 00-.79.52v-.46zm-2.35 1.21c0-.39.13-.78.6-.78s.61.39.61.78-.14.77-.61.77-.6-.39-.6-.77m-.69 0a1.29 1.29 0 101.29-1.27 1.2 1.2 0 00-1.29 1.27m-2.21 0c0-.39.14-.78.59-.78s.6.39.6.78-.14.77-.59.77-.6-.38-.6-.77m0-1.21h-.65V126h.76v-1.16a.91.91 0 00.75.37 1.13 1.13 0 001.09-1.25c0-.69-.35-1.3-1.13-1.3a.84.84 0 00-.75.38zm-2.62 0v2.43h.73V124c0-.43.18-.78.68-.78a.88.88 0 01.24 0v-.62h-.14a.88.88 0 00-.79.52v-.46zm-2.3 1.21c0-.39.14-.78.61-.78s.61.39.61.78-.15.77-.61.77-.61-.39-.61-.77m-.69 0a1.22 1.22 0 001.3 1.28 1.28 1.28 0 10-1.3-1.28m-3.49-.46a1.63 1.63 0 001.69 1.74 1.42 1.42 0 001.51-1.36h-.73a.76.76 0 01-.78.74c-.68 0-.94-.56-.94-1.11s.26-1.15.94-1.15a.74.74 0 01.76.59h.76a1.39 1.39 0 00-1.48-1.21 1.64 1.64 0 00-1.69 1.77m27.17-4.62h-27.2v1.69H234zm-17.22-22h4.15c1.78 0 3.31.3 3.31 2.4 0 1.59-1 2.41-3.31 2.41h-4.15zm0 6.5h4.73c1.73 0 3.37.55 3.37 2.52a2.63 2.63 0 01-2.92 2.7h-5.18zm3.57-8.18h-5.64v15.1h7.51a4.36 4.36 0 004.72-4.34 3.47 3.47 0 00-3-3.63 3.49 3.49 0 002.31-3.38 3.56 3.56 0 00-1.83-3.15c-.94-.55-2.74-.55-4.11-.55m-11.77 7.55a11.83 11.83 0 1111.82 11.48 11.65 11.65 0 01-11.82-11.48m-1.79 0a13.63 13.63 0 1013.62-13.24 13.43 13.43 0 00-13.62 13.24m1.38-17a2.87 2.87 0 01-.07-.58 2.92 2.92 0 01.07-.61 1.73 1.73 0 01.22-.52 1.25 1.25 0 01.42-.37 1.22 1.22 0 01.61-.14 1 1 0 01.38.07 1 1 0 01.32.17 1.13 1.13 0 01.23.26 1 1 0 01.13.32h1a1.9 1.9 0 00-.23-.72 1.71 1.71 0 00-.47-.53 2.22 2.22 0 00-.63-.33 2.68 2.68 0 00-.76-.1 2.48 2.48 0 00-1 .19 2 2 0 00-.76.53 2.51 2.51 0 00-.47.79 2.86 2.86 0 00-.17 1 2.73 2.73 0 00.17 1 2.36 2.36 0 00.47.78 2.33 2.33 0 00.76.52 2.62 2.62 0 001 .18 2.35 2.35 0 00.82-.13 1.73 1.73 0 00.66-.38 2 2 0 00.45-.6 2.3 2.3 0 00.21-.8h-1a1.21 1.21 0 01-.33.76 1 1 0 01-.77.3 1.34 1.34 0 01-.61-.14 1.14 1.14 0 01-.42-.36 1.79 1.79 0 01-.22-.51m4.67-.34a1 1 0 010-.22 1.16 1.16 0 01.14-.24.76.76 0 01.24-.18.8.8 0 01.39-.08.71.71 0 01.53.18 1.18 1.18 0 01.23.54zm0 .59h2.54a2.14 2.14 0 00-.07-.76 2.17 2.17 0 00-.31-.65 1.52 1.52 0 00-.55-.45 1.61 1.61 0 00-.78-.18 1.77 1.77 0 00-.73.15 1.48 1.48 0 00-.57.37 1.85 1.85 0 00-.34.49 1.8 1.8 0 00-.13.71 1.93 1.93 0 00.12.73 1.54 1.54 0 00.36.57 1.52 1.52 0 00.57.37 1.92 1.92 0 00.74.13 2 2 0 001-.26 1.52 1.52 0 00.62-.88h-.85a.59.59 0 01-.25.31 1 1 0 01-1.13-.07 1 1 0 01-.24-.67m5.09-1.13a.43.43 0 01.17 0V84h-.22a1.34 1.34 0 00-.35 0 2 2 0 00-.33.15 1.43 1.43 0 00-.26.23 1.08 1.08 0 00-.18.29V84h-.92v3.42h1v-1.51a1.48 1.48 0 01.05-.44.81.81 0 01.15-.34.78.78 0 01.3-.24 1.2 1.2 0 01.45-.09h.18m2-.17h.71V84h-.71v-1h-1v1h-.59v.63h.65v2a.83.83 0 00.09.41.58.58 0 00.24.25.85.85 0 00.36.12 2.86 2.86 0 00.42 0h.56v-.71h-.3c-.16 0-.27 0-.32-.08s-.08-.15-.08-.31zm1.2-1.16h1v-.77h-1zm0 4h1V84h-1zm3.29-4h.35v-.7h-.25a1.14 1.14 0 00-.26 0 1.2 1.2 0 00-.89.3 1 1 0 00-.29.74V84h-.58v.63h.58v2.79h1v-2.77h.67V84H224v-.2a.4.4 0 01.09-.3.35.35 0 01.28-.09m.88 0h1v-.71h-1zm0 4h1V84h-1zm2.25-2.08a1 1 0 010-.22.84.84 0 01.14-.24.66.66 0 01.24-.18.8.8 0 01.39-.08.67.67 0 01.52.18.94.94 0 01.24.54zm0 .59h2.54a2.14 2.14 0 00-.07-.76 2.17 2.17 0 00-.31-.65 1.52 1.52 0 00-.55-.45 1.61 1.61 0 00-.78-.18 1.77 1.77 0 00-.73.15 1.56 1.56 0 00-.57.37 1.85 1.85 0 00-.37.58 1.8 1.8 0 00-.13.71 1.93 1.93 0 00.12.73 1.54 1.54 0 00.36.57 1.52 1.52 0 00.57.37 1.92 1.92 0 00.74.13 2 2 0 001-.26 1.52 1.52 0 00.62-.88h-.85a.59.59 0 01-.25.31 1 1 0 01-1.13-.07 1 1 0 01-.24-.67m5.48-.23a1.84 1.84 0 01-.05.41.86.86 0 01-.13.36.69.69 0 01-.26.25.82.82 0 01-.4.1.84.84 0 01-.39-.1.69.69 0 01-.26-.25 1.17 1.17 0 01-.16-.36 1.87 1.87 0 010-.4 1.84 1.84 0 010-.41.88.88 0 01.15-.34.63.63 0 01.26-.25.74.74 0 01.4-.1.67.67 0 01.39.1.82.82 0 01.26.23.83.83 0 01.14.35 1.4 1.4 0 01.05.41m0 1.72H234V82.7h-1v1.72a1 1 0 00-.44-.37 1.31 1.31 0 00-.59-.13 1.48 1.48 0 00-.68.15 1.25 1.25 0 00-.49.39 1.85 1.85 0 00-.29.56 2.07 2.07 0 00-.1.66 2.21 2.21 0 00.1.69 2 2 0 00.29.59 1.39 1.39 0 00.49.4 1.63 1.63 0 00.69.15 1.4 1.4 0 00.62-.12 1.08 1.08 0 00.4-.39z"/><g clip-path="url(#clip-path-4)"><path class="cls-9" d="M139.25 125.47h.85V123a1.7 1.7 0 00-3.14-1 1.73 1.73 0 00-2.71-.28v-.47h-.86v4.13h.86v-2.3c0-.76.41-1.15 1-1.15a1 1 0 011 1.15v2.3h.84v-2.3a1 1 0 011.05-1.15c.62 0 1 .39 1 1.15zm-10.05-2.07a1.23 1.23 0 011.22-1.38 1.25 1.25 0 011.25 1.38 1.28 1.28 0 01-1.27 1.4 1.23 1.23 0 01-1.2-1.4m3.35 0a2.11 2.11 0 10-4.22 0 2 2 0 002.07 2.14 2.07 2.07 0 002.15-2.14m-8.73 0a2 2 0 002 2.14 1.85 1.85 0 001.9-1.37h-.92a.94.94 0 01-1 .65c-.69 0-1.15-.51-1.15-1.42s.46-1.4 1.15-1.4a1 1 0 011 .65h.92a1.79 1.79 0 00-1.9-1.37 2 2 0 00-2 2.12m-.63 1.58a.55.55 0 10-.54.55.54.54 0 00.54-.55m-1.81-.66c0-1.49-2.38-1-2.38-1.86 0-.28.24-.46.7-.46a.68.68 0 01.77.6h.86a1.42 1.42 0 00-1.6-1.32c-1 0-1.59.53-1.59 1.19 0 1.51 2.4 1 2.4 1.86 0 .28-.26.49-.76.49a.75.75 0 01-.82-.61h-.89a1.56 1.56 0 001.73 1.33c1 0 1.58-.52 1.58-1.22m-5.11-1c0-.88.39-1.14 1-1.14h.22v-.88a1.34 1.34 0 00-1.24.66v-.6h-.85v4.13h.85zm-1.81 1h-.92a1 1 0 01-1 .57 1.14 1.14 0 01-1.18-1.09h3.16a3.07 3.07 0 000-.42 1.93 1.93 0 00-2-2 2 2 0 00-2.07 2.12 2 2 0 002.07 2.14 1.87 1.87 0 001.89-1.29m-1.88-2.35a1.06 1.06 0 011.15 1h-2.28a1.12 1.12 0 011.13-1m-3.68 3.47h.85V123a1.6 1.6 0 00-1.69-1.76 1.59 1.59 0 00-1.23.53v-.47h-.86v4.13h.86v-2.3c0-.76.41-1.15 1-1.15s1 .39 1 1.15zm-5.58-1.14c0 .84.45 1.14 1.19 1.14h.67v-.71h-.52c-.36 0-.48-.12-.48-.43V122h1v-.7h-1v-1h-.86v1h-.49v.7h.49zm-2.16-1c0-.88.39-1.14 1-1.14h.21v-.88a1.34 1.34 0 00-1.23.66v-.6h-.86v4.13h.86zm-2.85.1A1.28 1.28 0 0197 124.8a1.3 1.3 0 01-1.25-1.41 1.26 1.26 0 112.5 0m-3.38 0a2 2 0 001.94 2.15 1.76 1.76 0 001.44-.68v.61h.87v-4.13h-.87v.6a1.76 1.76 0 00-1.43-.66 2 2 0 00-2 2.11m-1.43 0a1.31 1.31 0 01-1.26 1.41 1.4 1.4 0 010-2.78 1.27 1.27 0 011.26 1.37M90.94 122v-.61h-.86v6.1h.86v-2.57a1.83 1.83 0 001.44.67 2 2 0 001.94-2.15 2 2 0 00-1.94-2.11 1.8 1.8 0 00-1.44.67m-1.81 2.3h-.92a1 1 0 01-1 .57 1.14 1.14 0 01-1.18-1.09h3.16a3.07 3.07 0 000-.42 1.92 1.92 0 00-2-2 2 2 0 00-2.06 2.12 2 2 0 002.06 2.14 1.89 1.89 0 001.9-1.29m-1.9-2.33a1.08 1.08 0 011.16 1h-2.29a1.13 1.13 0 011.13-1m-3.72 1.4a1.29 1.29 0 01-1.26 1.4 1.31 1.31 0 01-1.21-1.41 1.26 1.26 0 112.51 0m-3.39 0a2 2 0 002 2.15 1.8 1.8 0 001.44-.69v.69a1.1 1.1 0 01-1.16 1.23 1.16 1.16 0 01-1.18-.72h-.84c.1.92.92 1.46 2 1.46a1.87 1.87 0 002-2v-4.2h-.86v.6a1.77 1.77 0 00-1.44-.66 2 2 0 00-2 2.11m-1.7 0a1.29 1.29 0 01-1.25 1.4 1.3 1.3 0 01-1.25-1.41 1.26 1.26 0 011.25-1.35 1.28 1.28 0 011.25 1.38m-3.38 0a2 2 0 001.93 2.15 1.79 1.79 0 001.45-.68v.61h.86v-4.13h-.86v.6a1.76 1.76 0 00-1.43-.66 2 2 0 00-2 2.11m-1.7 0A1.29 1.29 0 0172 124.8a1.31 1.31 0 01-1.25-1.41 1.26 1.26 0 112.51 0m-3.39 0a2 2 0 002 2.15 1.8 1.8 0 001.44-.69v.69a1.1 1.1 0 01-1.16 1.23 1.16 1.16 0 01-1.18-.72h-.84c.1.92.92 1.46 2 1.46a1.87 1.87 0 002-2v-4.2h-.83v.6a1.77 1.77 0 00-1.44-.66 2 2 0 00-2 2.11m-1.65 2.08h.85V123a1.6 1.6 0 00-1.69-1.76 1.59 1.59 0 00-1.23.53v-.47h-.86v4.13h.86v-2.3c0-.76.41-1.15 1-1.15s1 .39 1 1.15zm-4.47-4.68a.55.55 0 10-.55-.54.54.54 0 00.55.54m-.44 4.68h.86v-4.13h-.86zm-3.59-1.92a1.25 1.25 0 01-1.13 1.32c-.49 0-.7-.33-.7-.77 0-.67.4-1.37 1.07-1.37a.74.74 0 01.76.82m.79 2c1.1 0 1.71-1.22 1.71-2.39a2.45 2.45 0 00-2.75-2.51 3.78 3.78 0 00-3.88 3.87 2.45 2.45 0 002.72 2.5 3.73 3.73 0 001.53-.3l-.11-.56a3 3 0 01-1.25.26c-1.39 0-2.2-.68-2.2-2a3.07 3.07 0 013.09-3.21c1.41 0 2.16.69 2.16 2 0 .72-.27 1.78-.89 1.78-.37 0-.4-.27-.34-.67l.38-2.15H60l-.07.38a1 1 0 00-.92-.44 2 2 0 00-1.86 2.15 1.17 1.17 0 001.23 1.3 1.7 1.7 0 001.32-.65.78.78 0 00.87.65m-6.87-2.13a1.29 1.29 0 01-1.26 1.4 1.31 1.31 0 01-1.25-1.41 1.26 1.26 0 112.51 0m-3.39 0a2 2 0 002 2.15 1.8 1.8 0 001.44-.69v.69a1.1 1.1 0 01-1.16 1.23 1.16 1.16 0 01-1.18-.72h-.91c.1.92.92 1.46 2 1.46a1.87 1.87 0 002-2v-4.2h-.86v.6a1.77 1.77 0 00-1.44-.66 2 2 0 00-2 2.11m-1.65 2.08h.85V123a1.6 1.6 0 00-1.69-1.76 1.59 1.59 0 00-1.23.53v-.47h-.86v4.13h.86v-2.3c0-.76.41-1.15 1-1.15s1 .39 1 1.15zm-4.92-2.07a1.28 1.28 0 01-1.25 1.4 1.3 1.3 0 01-1.25-1.41 1.26 1.26 0 112.5 0m-3.38 0a2 2 0 001.94 2.15 1.76 1.76 0 001.44-.68v.61h.87v-4.13h-.87v.6a1.76 1.76 0 00-1.43-.66 2 2 0 00-1.95 2.11m-1.26-2.6a.55.55 0 10-.55-.54.54.54 0 00.55.54m-.43 4.68h.85v-4.13h-.85zm-2 0h.85v-5.55h-.85zm-.93-.49a.54.54 0 10-.54.55.54.54 0 00.54-.55m-2.87-1.58a1.29 1.29 0 01-1.25 1.4 1.3 1.3 0 01-1.25-1.41 1.26 1.26 0 011.36-1.36 1.28 1.28 0 011.25 1.38m-3.38 0a2 2 0 002 2.15 1.78 1.78 0 001.43-.69v.69a1.09 1.09 0 01-1.15 1.23 1.15 1.15 0 01-1.18-.72h-.85c.11.92.92 1.46 2 1.46a1.87 1.87 0 002-2v-4.2h-.87v.6a1.75 1.75 0 00-1.43-.66 2 2 0 00-2 2.11m-1.65 2.08h.85V123a1.7 1.7 0 00-2.93-1.23v-.47h-.85v4.13h.85v-2.3a1 1 0 011-1.15c.62 0 1 .39 1 1.15zm-4.48-4.68a.55.55 0 10-.54-.54.54.54 0 00.54.54m-.43 4.68h.85v-4.13h-.85zm-2.74-1L19 121.34h-1l1.63 4.07-.84 2h.89l2.53-6.08h-.81z"/></g><g clip-path="url(#clip-path-5)"><path class="cls-9" d="M66.77 111.67c0 1.07-.11 2-1.11 2s-1.11-.94-1.11-2 .11-2 1.11-2 1.11 1 1.11 2m-3.06 0c0 1.59.42 2.79 1.95 2.79s2-1.2 2-2.79-.42-2.76-2-2.76-1.95 1.2-1.95 2.76m-1.75 0c0 1.07-.11 2-1.11 2s-1.11-.94-1.11-2 .12-2 1.11-2 1.11 1 1.11 2m-3.06 0c0 1.59.42 2.79 2 2.79s2-1.2 2-2.79-.43-2.76-2-2.76-2 1.2-2 2.76M54.56 109v.73h2.77l-2.11 4.71h.86l2.09-4.8V109zm-4.21 0v.73h2.78L51 114.47h.86l2.09-4.8V109zm-4 3.09h3.05v-.72h-3.08zm-2.24 2.35h.86V109h-1.59v.78h.7zm-5-.07h3.64v-.71h-2.39c.88-.8 2.23-1.82 2.23-3.15a1.57 1.57 0 00-1.74-1.65 1.66 1.66 0 00-1.76 1.77h.82c0-.62.35-1 1-1s.88.39.88 1c0 1.07-1.35 2.06-2.64 3.2zm-4.41-4h.84a.85.85 0 01.93-.75c.58 0 .89.32.89.79s-.47.81-1.25.82h-.2v.7h.2c.89 0 1.35.25 1.35 1a.85.85 0 01-1 .9 1 1 0 01-1.06-.9h-.82a1.68 1.68 0 001.89 1.61 1.54 1.54 0 001.79-1.54 1.34 1.34 0 00-.93-1.4 1.28 1.28 0 00.84-1.24c0-.79-.6-1.42-1.68-1.42a1.61 1.61 0 00-1.8 1.48m-4.17 1.76h3.09v-.72h-3.09zm-4.67-1.76h.83a.85.85 0 01.93-.75c.59 0 .9.32.9.79s-.48.81-1.25.82h-.2v.7h.19c.9 0 1.36.25 1.36 1a.85.85 0 01-.95.9 1 1 0 01-1.06-.9h-.82a1.68 1.68 0 001.89 1.61 1.54 1.54 0 001.75-1.59 1.34 1.34 0 00-.94-1.4 1.27 1.27 0 00.84-1.24c0-.79-.59-1.42-1.68-1.42a1.6 1.6 0 00-1.79 1.48m-2 4.11h.86V109h-1.58v.78h.7zM18.67 109v3.16h.81a1 1 0 011-.68 1 1 0 011.06 1.11c0 .68-.33 1.18-1.06 1.18a1 1 0 01-1.08-.76h-.84a1.74 1.74 0 001.91 1.47 1.75 1.75 0 001.89-1.91 1.67 1.67 0 00-1.76-1.82 1.46 1.46 0 00-1.13.49v-1.49H22V109z"/></g><path class="cls-4" d="M71 80.84c0 1.12.61 1.53 1.59 1.53h.9v-1h-.7c-.48 0-.64-.17-.64-.58v-3h1.34v-.93h-1.35v-1.37H71v1.37h-.65v.93H71zm-2.76 1.53h1.13v-3.25a2.15 2.15 0 00-2.26-2.35 2.12 2.12 0 00-1.64.72v-.63h-1.15v5.51h1.14v-3.08a1.34 1.34 0 011.39-1.53c.83 0 1.38.52 1.38 1.53zm-6.56-2.76A1.71 1.71 0 0160 81.47a1.74 1.74 0 01-1.67-1.88A1.69 1.69 0 0160 77.76a1.71 1.71 0 011.67 1.85m-4.51 0a2.66 2.66 0 002.58 2.87 2.37 2.37 0 001.93-.91v.82h1.15v-5.53h-1.15v.8a2.35 2.35 0 00-1.91-.89 2.62 2.62 0 00-2.6 2.82M54 80.84c0 1.12.61 1.53 1.59 1.53h.9v-1h-.7c-.48 0-.64-.17-.64-.58v-3h1.34v-.93h-1.34v-1.37H54v1.37h-.65v.93H54zm-2.82 1.53h1.14V75h-1.14zm-1.5-5.51h-1.14v3.07a1.34 1.34 0 01-1.39 1.53c-.83 0-1.38-.52-1.38-1.53v-3.07h-1.13v3.24a2.15 2.15 0 002.27 2.35 2.05 2.05 0 001.63-.74v.66h1.14zm-6.22 4c-.06-2-3.17-1.37-3.17-2.48 0-.37.32-.62.93-.62a.91.91 0 011 .81h1.14a1.89 1.89 0 00-2.13-1.77c-1.3 0-2.12.71-2.12 1.59 0 2 3.2 1.4 3.2 2.48 0 .38-.35.66-1 .66a1 1 0 01-1.1-.82h-1.16a2.08 2.08 0 002.3 1.78c1.3 0 2.11-.7 2.11-1.63m-6.69 1.54h1.13v-3.28a2.15 2.15 0 00-2.26-2.35 2.12 2.12 0 00-1.64.72v-.63h-1.14v5.51H34v-3.08a1.34 1.34 0 011.39-1.53c.83 0 1.38.52 1.38 1.53zm-9.5-2.76a1.64 1.64 0 011.63-1.85 1.67 1.67 0 011.66 1.85 1.7 1.7 0 01-1.69 1.86 1.63 1.63 0 01-1.6-1.86m4.46 0a2.81 2.81 0 10-5.62 0 2.69 2.69 0 002.76 2.85 2.76 2.76 0 002.86-2.85m-13.36-.73a3.47 3.47 0 003.55 3.55 3.3 3.3 0 003.23-2.08h-1.37a1.94 1.94 0 01-1.86 1.09 2.56 2.56 0 010-5.11 1.94 1.94 0 011.86 1.09h1.37a3.31 3.31 0 00-3.23-2.09 3.48 3.48 0 00-3.55 3.55"/><path class="cls-9" d="M87.71 62.81a2.39 2.39 0 01-2.34 2.6A2.43 2.43 0 0183 62.78a2.37 2.37 0 012.34-2.56 2.4 2.4 0 012.34 2.59m-6.32 0a3.74 3.74 0 003.64 4 3.32 3.32 0 002.68-1.29v1.28a2.06 2.06 0 01-2.16 2.3 2.15 2.15 0 01-2.2-1.35h-1.55c.19 1.71 1.72 2.73 3.78 2.73a3.5 3.5 0 003.77-3.68V59h-1.61v1.12A3.28 3.28 0 0085 58.83a3.67 3.67 0 00-3.64 4m-3.08 3.89h1.58v-4.6a3.15 3.15 0 00-5.46-2.28V59h-1.56v7.71h1.59v-4.35a1.87 1.87 0 011.95-2.14c1.16 0 1.93.73 1.93 2.14zm-9.18-3.86a2.39 2.39 0 01-2.34 2.6 2.43 2.43 0 01-2.34-2.63 2.37 2.37 0 012.34-2.56 2.4 2.4 0 012.34 2.59m-6.32 0a3.73 3.73 0 003.61 4 3.35 3.35 0 002.71-1.27v1.14h1.61V59h-1.58v1.12a3.31 3.31 0 00-2.68-1.25 3.67 3.67 0 00-3.64 4m-2.35-4.84a1 1 0 10-1-1 1 1 0 001 1m-.81 8.73h1.6V59h-1.6zm-6.22-9.73v9.73h4.89v-1.37H55v-8.45zm-7.35 5.87a2.39 2.39 0 01-2.33 2.6 2.43 2.43 0 01-2.34-2.63 2.35 2.35 0 114.67 0m-6.31 0a3.74 3.74 0 003.64 4 3.3 3.3 0 002.67-1.29v1.22a2.05 2.05 0 01-2.15 2.3 2.15 2.15 0 01-2.2-1.35h-1.58c.19 1.71 1.72 2.73 3.78 2.73a3.49 3.49 0 003.76-3.68V59h-1.61v1.12a3.25 3.25 0 00-2.67-1.25 3.67 3.67 0 00-3.64 4m-3.08 3.89h1.58v-4.64a3 3 0 00-3.16-3.29 3 3 0 00-2.3 1V59h-1.59v7.71h1.59v-4.35a1.87 1.87 0 011.95-2.14c1.16 0 1.93.73 1.93 2.14zm-8.36-8.73a1 1 0 10-1-1 1 1 0 001 1m-.81 8.73h1.6V59h-1.6zm-6.08-3.52v3.52H23v-3.61l3.22-6.21H24.5l-2.26 4.78L20 56.94h-1.79z"/></g></g></g></svg>