<svg id="Layer_1" data-name="Layer 1" xmlns="http://www.w3.org/2000/svg" viewBox="0 0 252 144"><defs><clipPath id="clip-path"><path fill="none" d="M0 0h252v144H0z"/></clipPath><style>.cls-2{clip-path:url(#clip-path)}.cls-3{fill:#fedcc6}.cls-4{fill:#066db6}.cls-5{fill:#323232}</style></defs><g class="cls-2"><g class="cls-2"><path class="cls-3" d="M39 75.89a8.43 8.43 0 00-1.71.18 7.92 7.92 0 00-3 14.14 5 5 0 012 4.07v.07h5.47v-.26a5 5 0 012.09-4A7.93 7.93 0 0039 75.89"/><path class="cls-4" d="M34.3 91.53h4.59a5.53 5.53 0 012.26-4.15 7.47 7.47 0 00.17-11.75 7.56 7.56 0 00-6.32-1.5 7.48 7.48 0 00-2.8 13.35 5.4 5.4 0 012.12 4m5.48.89h-6.38v-.51a4.57 4.57 0 00-1.76-3.71 8.37 8.37 0 1110-.11 4.6 4.6 0 00-1.92 3.63z"/></g><path class="cls-4" d="M33.42 94.36h6.36v.89h-6.36z"/><g class="cls-2"><path class="cls-4" d="M38.15 97.71h-3.1a.45.45 0 010-.89h3.1a.45.45 0 010 .89"/><path class="cls-5" d="M51.45 113h1v-2.9a2 2 0 00-3.45-1.46v-.57h-1v5h1v-2.77a1.21 1.21 0 011.26-1.38c.74 0 1.24.47 1.24 1.38zm-5.91-2.48a1.54 1.54 0 01-1.5 1.67 1.56 1.56 0 01-1.5-1.69 1.51 1.51 0 113 0m-4.06 0a2.4 2.4 0 002.34 2.58 2.11 2.11 0 001.72-.83v.83a1.32 1.32 0 01-1.38 1.48 1.39 1.39 0 01-1.42-.87h-1c.12 1.1 1.1 1.76 2.43 1.76a2.25 2.25 0 002.42-2.37v-5h-1v.72a2.1 2.1 0 00-1.72-.8 2.36 2.36 0 00-2.34 2.54M40 107.41a.64.64 0 00.65-.65.65.65 0 10-1.3 0 .64.64 0 00.65.65m-.55 5.59h1v-5h-1zm-1.11-1.39c-.05-1.79-2.85-1.23-2.85-2.23 0-.33.29-.56.84-.56a.81.81 0 01.92.73h1a1.7 1.7 0 00-1.89-1.55c-1.17 0-1.9.64-1.9 1.43 0 1.82 2.88 1.26 2.88 2.23 0 .34-.32.6-.91.6a.9.9 0 01-1-.74h-1.06a1.88 1.88 0 002.07 1.6c1.17 0 1.9-.63 1.9-1.47m-4.84-.09h-1.11a1.19 1.19 0 01-1.17.7 1.37 1.37 0 01-1.41-1.32h3.79a2.81 2.81 0 000-.5 2.31 2.31 0 00-2.38-2.44 2.38 2.38 0 00-2.47 2.56 2.4 2.4 0 002.47 2.56 2.26 2.26 0 002.28-1.56m-2.32-2.7a1.3 1.3 0 011.39 1.25h-2.75a1.36 1.36 0 011.36-1.25m-7.44 3.34v-4.58h1a2.08 2.08 0 012.26 2.3 2.06 2.06 0 01-2.27 2.27zm1-5.42h-2V113h2a3.14 3.14 0 100-6.26M98.7 110.55a1.54 1.54 0 01-1.51 1.67 1.56 1.56 0 01-1.5-1.69 1.51 1.51 0 113 0m-4.06 0a2.39 2.39 0 002.37 2.58 2.07 2.07 0 001.72-.83v.72h1v-6.66h-1v2.39A2.33 2.33 0 0097 108a2.36 2.36 0 00-2.35 2.54m-2 2.5h1v-6.66h-1zm-1.85-5.62a.64.64 0 00.65-.65.66.66 0 10-.65.65m-.57 5.58h1v-5h-1zm-1.35-5h-1v2.76c0 .91-.49 1.38-1.25 1.38s-1.24-.47-1.24-1.38V108h-1v3a1.94 1.94 0 002 2.11 1.84 1.84 0 001.47-.66v.55h1zm-5.61 3.28a1.55 1.55 0 00-1.21-1.53 1.47 1.47 0 001.07-1.43c0-.89-.71-1.62-2-1.62h-2.41v6.3h2.5c1.28 0 2-.73 2-1.68m-1.19-2.84c0 .58-.4.89-1.07.89h-1.22v-1.79H81c.67 0 1.07.33 1.07.9m.16 2.73c0 .6-.42 1-1.11 1h-1.38v-2h1.35a1 1 0 011.15 1"/></g><path class="cls-3" d="M80.17 77.65h21.37v18.3H80.17z"/><path class="cls-4" d="M77.82 93.13h20.85V75.74H77.82zm21.76.87H76.91V74.83h22.67z"/><g class="cls-2"><path class="cls-4" d="M82.58 84c.73 0 1.06-.37 1.06-1.1V81c0-1.33.93-1.69 2.2-1.69V80c-.76 0-1.27.2-1.27.83V83a1.25 1.25 0 01-1.12 1.44c.69.11 1.12.5 1.12 1.44V88c0 .65.51.83 1.27.83v.75c-1.27 0-2.2-.36-2.2-1.69V86c0-.74-.33-1.12-1.06-1.12zM93.9 84.83c-.73 0-1.06.38-1.06 1.11v2c0 1.33-.93 1.69-2.2 1.69v-.75c.76 0 1.27-.18 1.27-.83V85.9c0-.94.43-1.33 1.12-1.44A1.25 1.25 0 0191.91 83v-2.15c0-.63-.51-.83-1.27-.83v-.75c1.27 0 2.2.36 2.2 1.69v2c0 .73.33 1.1 1.06 1.1zM89.6 83.91a.47.47 0 11-.47.47.47.47 0 01.47-.47m-1.36 0a.47.47 0 110 .94.47.47 0 010-.94m-1.36 0a.47.47 0 11-.47.47.46.46 0 01.47-.47"/><path class="cls-5" d="M154.48 110.42c0-1 .47-1.37 1.22-1.37h.3V108a1.62 1.62 0 00-1.48.8v-.72h-1v5h1zm-2.17 1.13h-1.11a1.2 1.2 0 01-1.17.7 1.37 1.37 0 01-1.41-1.32h3.79a4.19 4.19 0 000-.5A2.31 2.31 0 00150 108a2.37 2.37 0 00-2.47 2.56 2.4 2.4 0 002.47 2.56 2.26 2.26 0 002.28-1.56m-2.32-2.7a1.29 1.29 0 011.38 1.25h-2.74a1.35 1.35 0 011.36-1.25m-7.86-.78l1.88 5h1.22l1.89-5H146l-1.41 4-1.4-4zm-1.27-.66a.64.64 0 00.65-.65.66.66 0 10-.65.65m-.52 5.62h1v-5h-1zM138 113h1v-6.66h-1zm-1.14-1.48h-1.11a1.2 1.2 0 01-1.17.7 1.37 1.37 0 01-1.41-1.32h3.79a2.8 2.8 0 000-.5 2.31 2.31 0 00-2.41-2.44 2.38 2.38 0 00-2.47 2.56 2.4 2.4 0 002.47 2.56 2.26 2.26 0 002.28-1.56m-2.32-2.7a1.28 1.28 0 011.38 1.25h-2.74a1.35 1.35 0 011.36-1.25m-7.45 3.34v-4.58h1a2.08 2.08 0 012.27 2.31 2.06 2.06 0 01-2.27 2.27zm1-5.42h-2V113h2a3.14 3.14 0 100-6.26"/><path class="cls-3" d="M142.84 76.81a10.25 10.25 0 1010.25 10.24 10.25 10.25 0 00-10.25-10.24"/><path class="cls-4" d="M150.58 91.82l-.64.64 1.39 1.39h-6.63a10.41 10.41 0 10-9.62-18.42l.31-1.8-.89-.15-.57 3.41 3.5.59.15-.89-2.1-.35a9.43 9.43 0 015-1.42 9.52 9.52 0 11-6.84 2.9l-.64-.63a10.4 10.4 0 003.25 16.76h-7.75v.9h22.9l-1.4 1.39.63.64 2.45-2.45z"/><path class="cls-4" d="M140.81 78.71a5.61 5.61 0 105.61 5.6 5.6 5.6 0 00-5.61-5.6m0 12.13a6.53 6.53 0 116.53-6.53 6.54 6.54 0 01-6.53 6.53"/><path class="cls-5" d="M228.59 111.55h-1.11a1.2 1.2 0 01-1.17.7 1.37 1.37 0 01-1.41-1.32h3.79a2.81 2.81 0 000-.5 2.31 2.31 0 00-2.42-2.44 2.38 2.38 0 00-2.47 2.56 2.4 2.4 0 002.47 2.56 2.26 2.26 0 002.28-1.56m-2.32-2.7a1.28 1.28 0 011.38 1.25h-2.74a1.36 1.36 0 011.36-1.25m-5.28 2.8c0 1 .55 1.38 1.44 1.38h.81v-.86h-.63c-.44 0-.58-.15-.58-.52v-2.74h1.21v-.84H222v-1.23h-1v1.23h-.58v.84h.58zm-2.54-1.1a1.54 1.54 0 01-1.51 1.67 1.56 1.56 0 01-1.5-1.69 1.51 1.51 0 113 0m-4.06 0a2.39 2.39 0 002.32 2.58 2.15 2.15 0 001.74-.82v.71h1v-5h-1v.72a2.13 2.13 0 00-1.72-.8 2.36 2.36 0 00-2.34 2.54m-2.09-.11c0-1 .47-1.37 1.22-1.37h.27V108a1.63 1.63 0 00-1.49.8v-.72h-1v5h1zm-2.17 1.13H209a1.2 1.2 0 01-1.17.7 1.37 1.37 0 01-1.42-1.32h3.79a2.81 2.81 0 000-.5 2.31 2.31 0 00-2.41-2.44 2.38 2.38 0 00-2.48 2.56 2.41 2.41 0 002.48 2.56 2.26 2.26 0 002.27-1.56m-2.32-2.7a1.29 1.29 0 011.39 1.25h-2.75a1.36 1.36 0 011.36-1.25m-4.39 4.22h1v-6.66h-1zm-1.15-1.48h-1.1a1.2 1.2 0 01-1.17.7 1.38 1.38 0 01-1.42-1.32h3.79a2.81 2.81 0 000-.5 2.31 2.31 0 00-2.41-2.44 2.38 2.38 0 00-2.48 2.56 2.41 2.41 0 002.48 2.56 2.26 2.26 0 002.27-1.56m-2.32-2.7a1.29 1.29 0 011.39 1.25h-2.75a1.36 1.36 0 011.36-1.25m-7.83 1.7a2.37 2.37 0 002.43 2.56 2.22 2.22 0 002.29-1.65h-1.11a1.13 1.13 0 01-1.18.79c-.83 0-1.38-.62-1.38-1.7s.55-1.7 1.38-1.7a1.16 1.16 0 011.18.79h1.11a2.16 2.16 0 00-2.29-1.65 2.37 2.37 0 00-2.43 2.56m-5.4 0a2.37 2.37 0 002.43 2.56 2.22 2.22 0 002.29-1.65h-1.11a1.13 1.13 0 01-1.18.79c-.83 0-1.38-.62-1.38-1.7s.55-1.7 1.38-1.7a1.16 1.16 0 011.18.79h1.11a2.16 2.16 0 00-2.29-1.65 2.37 2.37 0 00-2.43 2.56m-2.45.36h-2l1-2.9zm.74 2.12h1.1l-2.24-6.26h-1.19l-2.22 6.26h1.07l.45-1.28h2.62z"/><path class="cls-3" d="M206 76.14a10.79 10.79 0 1010.79 10.78A10.78 10.78 0 00206 76.14"/></g><path class="cls-4" transform="rotate(-45 196.66 77.4)" d="M196.18 76.49h.97v1.8h-.97z"/><path class="cls-4" d="M194.8 83.87h1.69v.91h-1.69z"/><g class="cls-2"><path class="cls-4" d="M204.63 84.32a1.16 1.16 0 10-1.15 1.15 1.09 1.09 0 00.56-.15l3.13 3 .33-.32-3-3.15a1.13 1.13 0 00.11-.48"/></g><path class="cls-4" transform="rotate(-45 197.961 89.932)" d="M197.12 89.48h1.69v.91h-1.69z"/><path class="cls-4" transform="rotate(-45 208.657 77.392)" d="M207.76 76.91h1.8v.97h-1.8z"/><g class="cls-2"><path class="cls-4" d="M203.48 73.07a11.2 11.2 0 00-7.84 19.2l.63-.65a10.3 10.3 0 1114.51-.1l.64.64a11.19 11.19 0 00-7.94-19.09"/></g><path class="cls-4" d="M210.67 83.87h1.69v.91h-1.69z"/><path class="cls-4" transform="rotate(-45 209.19 89.93)" d="M208.73 89.09h.91v1.69h-.91z"/><path fill="#0b6db6" d="M0 0h252v48.56H0z"/><path fill="#e9622f" d="M22.04 33.17h207.02v24.78H22.04z"/><path d="M221.85 48.13c-.07-2.39-3.8-1.65-3.8-3 0-.44.38-.74 1.11-.74a1.09 1.09 0 011.24 1h1.37a2.27 2.27 0 00-2.56-2.13c-1.56 0-2.54.86-2.54 1.91 0 2.43 3.84 1.68 3.84 3 0 .45-.42.79-1.21.79A1.2 1.2 0 01218 48h-1.42a2.49 2.49 0 002.76 2.13c1.56 0 2.53-.84 2.53-1.95m-8 1.84h1.36v-3.9a2.7 2.7 0 00-4.68-2v-.76h-1.37V50h1.37v-3.72a1.61 1.61 0 011.67-1.84c1 0 1.65.63 1.65 1.84zm-11.39-3.31a2 2 0 011.95-2.22 2 2 0 012 2.22 2 2 0 01-2 2.23c-1 0-1.92-.73-1.92-2.23m5.35 0a3.38 3.38 0 10-6.75 0 3.22 3.22 0 003.32 3.42 3.31 3.31 0 003.43-3.42M199 42.49a.88.88 0 10-.88-.88.86.86 0 00.88.88m-.7 7.48h1.37v-6.61h-1.37zm-4.25-1.83c0 1.34.73 1.83 1.91 1.83h1.08v-1.14h-.84c-.58 0-.77-.2-.77-.69v-3.66h1.61v-1.12h-1.61v-1.64h-1.38v1.64h-.78v1.12h.78zm-2-4.78h-1.37v3.69a1.67 1.67 0 11-3.33 0v-3.69H186v3.89a2.58 2.58 0 002.72 2.82 2.45 2.45 0 002-.89V50h1.37zM182.89 50h1.37v-8.91h-1.37zm-6.71-3.31a2 2 0 012-2.22 2 2 0 012 2.22 2 2 0 01-2 2.23 2 2 0 01-1.92-2.23m5.35 0a3.37 3.37 0 10-6.74 0 3.22 3.22 0 003.31 3.42 3.31 3.31 0 003.43-3.42m-7.92 1c0-3-4.41-1.87-4.41-3.76 0-.8.61-1.18 1.4-1.16a1.31 1.31 0 011.41 1.1h1.51a2.55 2.55 0 00-2.85-2.26c-1.7 0-2.86.91-2.86 2.37 0 3.07 4.42 1.77 4.42 3.78 0 .71-.54 1.23-1.5 1.23a1.34 1.34 0 01-1.48-1.24h-1.47c0 1.48 1.29 2.39 2.95 2.39a2.59 2.59 0 002.88-2.45M157.32 50h1.37v-3.72a1.61 1.61 0 011.67-1.84c1 0 1.65.63 1.65 1.84V50h1.36v-3.9a2.55 2.55 0 00-2.63-2.82 2.62 2.62 0 00-2.05.88v-3h-1.37zm-7.66-3.31a3.16 3.16 0 003.24 3.42 3 3 0 003-2.19h-1.47a1.52 1.52 0 01-1.58 1c-1.1 0-1.83-.82-1.83-2.27s.73-2.25 1.83-2.25a1.55 1.55 0 011.58 1H156a2.88 2.88 0 00-3-2.2 3.17 3.17 0 00-3.24 3.41M148.6 48h-1.48a1.6 1.6 0 01-1.56.92 1.81 1.81 0 01-1.88-1.75h5a5.16 5.16 0 00.05-.67 3.09 3.09 0 00-3.22-3.26 3.17 3.17 0 00-3.3 3.41 3.2 3.2 0 003.3 3.42 3 3 0 003-2.07m-3.1-3.6a1.72 1.72 0 011.85 1.66h-3.66a1.79 1.79 0 011.81-1.66m-10-1.66h2.23V50h1.37v-7.25h2.22v-1.12h-5.82zm-5.63 3.91a2 2 0 01-2 2.23 2.08 2.08 0 01-2-2.25 2 2 0 114 0m-5.41 0a3.2 3.2 0 003.12 3.44 2.74 2.74 0 002.29-1.1v1h1.38v-8.88h-1.38v3.2a3 3 0 00-2.28-1 3.15 3.15 0 00-3.13 3.39m-.96 1.32h-1.48a1.6 1.6 0 01-1.56.92 1.82 1.82 0 01-1.88-1.75h5.05a3.85 3.85 0 000-.67 3.09 3.09 0 00-3.22-3.26 3.17 3.17 0 00-3.3 3.41 3.21 3.21 0 003.3 3.42 3 3 0 003-2.07m-3.1-3.6a1.71 1.71 0 011.85 1.66h-3.57a1.8 1.8 0 011.81-1.66m-6 2.08c0-1.4.63-1.82 1.63-1.82h.35v-1.41a2.16 2.16 0 00-2 1.07v-1h-1.37V50h1.37zM111.4 48h-1.48a1.6 1.6 0 01-1.56.92 1.82 1.82 0 01-1.88-1.75h5a3.85 3.85 0 000-.67 3.09 3.09 0 00-3.22-3.26 3.17 3.17 0 00-3.3 3.41 3.21 3.21 0 003.3 3.42 3 3 0 003-2.07m-3.1-3.6a1.71 1.71 0 011.85 1.66h-3.66a1.8 1.8 0 011.81-1.66m-7 3.73c0 1.34.73 1.83 1.91 1.83h1.08v-1.13h-.84c-.58 0-.77-.2-.77-.69v-3.66h1.61v-1.12h-1.61v-1.64h-1.38v1.64h-.78v1.12h.78zM98 50h1.36v-3.9a2.58 2.58 0 00-2.72-2.82 2.53 2.53 0 00-2 .87v-.76h-1.37V50h1.37v-3.72c0-1.21.65-1.84 1.66-1.84s1.7.63 1.7 1.84zm-6.22-2h-1.51a1.62 1.62 0 01-1.56.92 1.82 1.82 0 01-1.89-1.75h5.06a5.12 5.12 0 000-.67 3.08 3.08 0 00-3.21-3.26 3.17 3.17 0 00-3.3 3.41 3.2 3.2 0 003.3 3.42 3 3 0 003-2.07m-3.09-3.6a1.7 1.7 0 011.84 1.66h-3.59a1.8 1.8 0 011.82-1.66m-12.52 1.39a4.17 4.17 0 004.26 4.26 4 4 0 003.88-2.5h-1.65a2.32 2.32 0 01-2.23 1.31 2.82 2.82 0 01-2.86-3.07 2.81 2.81 0 012.86-3.06A2.33 2.33 0 0182.62 44h1.65a4 4 0 00-3.88-2.5 4.17 4.17 0 00-4.26 4.26m-6.42.42h4.93v-1.13h-4.93zM68 48h-1.43a1.62 1.62 0 01-1.56.92 1.82 1.82 0 01-1.89-1.75h5.05a3.85 3.85 0 000-.67A3.08 3.08 0 0065 43.25a3.17 3.17 0 00-3.3 3.41 3.2 3.2 0 003.3 3.42A3 3 0 0068 48m-3-3.59a1.7 1.7 0 011.84 1.66h-3.71A1.8 1.8 0 0165 44.41M59 50h1.37v-8.91H59zm-2.74-3.33a2.08 2.08 0 01-2 2.25 2.24 2.24 0 112-2.25m-4-2.31v-1h-1.4v9.76h1.37V49a3 3 0 002.3 1.07 3.19 3.19 0 003.11-3.44 3.14 3.14 0 00-3.11-3.39 2.88 2.88 0 00-2.3 1.08m-8.08 2.33a2 2 0 012-2.22 2 2 0 012 2.22 2 2 0 01-2 2.23 2 2 0 01-1.92-2.23m5.35 0a3.37 3.37 0 10-6.74 0 3.22 3.22 0 003.31 3.42 3.31 3.31 0 003.43-3.42M41.68 48H40.2a1.6 1.6 0 01-1.56.92 1.82 1.82 0 01-1.88-1.75h5.05a3.85 3.85 0 000-.67 3.09 3.09 0 00-3.22-3.26 3.17 3.17 0 00-3.3 3.41 3.21 3.21 0 003.3 3.42 3 3 0 003-2.07m-3.1-3.6a1.71 1.71 0 011.85 1.66h-3.57a1.8 1.8 0 011.81-1.66m-4.09-.29c0-1.36-1-2.49-3-2.49h-2.83V50H30v-3.41h1.51c2.17 0 3-1.28 3-2.47M30 45.47v-2.72h1.51c1.07 0 1.55.5 1.55 1.37s-.48 1.35-1.55 1.35z" fill="#fff"/></g></svg>