<svg xmlns="http://www.w3.org/2000/svg" viewBox="0 0 128 128"><defs><style>.cls-1{fill:#517ea3;}.cls-2{fill:#fff;fill-rule:evenodd;}</style></defs><title>insta-large</title><g id="Layer_2" data-name="Layer 2"><g id="Circle_Color" data-name="Circle Color"><g id="Instagram"><circle id="back" class="cls-1" cx="64" cy="64" r="64"/><path id="Instagram-2" data-name="Instagram" class="cls-2" d="M91.57,58.48H85.33A22,22,0,1,1,42,64a22.33,22.33,0,0,1,.72-5.52H36.43V88.81a2.76,2.76,0,0,0,2.76,2.76H88.81a2.76,2.76,0,0,0,2.76-2.76Zm0-19.29a2.75,2.75,0,0,0-2.76-2.76H80.54a2.75,2.75,0,0,0-2.75,2.76v8.27a2.75,2.75,0,0,0,2.75,2.75h8.27a2.75,2.75,0,0,0,2.76-2.75ZM64,50.21A13.79,13.79,0,1,0,77.79,64,13.8,13.8,0,0,0,64,50.21M91.57,99.84H36.43a8.27,8.27,0,0,1-8.27-8.27V36.43a8.27,8.27,0,0,1,8.27-8.27H91.57a8.27,8.27,0,0,1,8.27,8.27V91.57a8.27,8.27,0,0,1-8.27,8.27"/></g></g></g></svg>