<svg id="Layer_1" data-name="Layer 1" xmlns="http://www.w3.org/2000/svg" viewBox="0 0 306 792"><defs><clipPath id="clip-path"><path fill="none" d="M0 0h306v792H0z"/></clipPath><style>.cls-6,.cls-7{fill:none}.cls-2{fill:#f26524}.cls-3{clip-path:url(#clip-path)}.cls-5{fill:#fff}.cls-6,.cls-7{stroke:#286c9d;stroke-miterlimit:10}.cls-7{stroke:#231f20}</style></defs><path class="cls-2" d="M35.41 75.82H269.5v27.04H35.41zM35.41 267.26H269.5v27.04H35.41zM35.41 728.96H269.5V756H35.41z"/><g class="cls-3"><path d="M243.24 64.35h3.08V51.5l5.75 12.85h2.13l5.73-12.85v12.85H263V45.58h-3.29l-6.56 14.72-6.59-14.72h-3.32zm-17.06-18.77v18.77h3.07v-7.51h2.35l4.32 7.51h3.68l-4.6-7.78a5.34 5.34 0 004.35-5.37c0-3.05-2.19-5.62-6.64-5.62zm10 5.62c0 1.86-1.08 3.19-3.48 3.19h-3.41V48.1h3.41c2.4 0 3.48 1.21 3.48 3.1m-29 3.73c0-4.24 2.7-6.89 6.43-6.89s6.39 2.65 6.39 6.89-2.7 6.94-6.42 6.94-6.43-2.7-6.43-6.94m16 0a9.59 9.59 0 10-9.58 9.61 9.36 9.36 0 009.58-9.61m-32.05 9.42h3.08v-8.21h6.21v-2.51h-6.21V48.1h8v-2.52H191.1zM177 45.56v14l-9.27-14h-3.07v18.79h3.07v-14l9.27 14h3V45.56zm-31.38 9.37c0-4.24 2.7-6.89 6.43-6.89s6.42 2.65 6.42 6.89-2.7 6.94-6.42 6.94-6.43-2.7-6.43-6.94m16 0a9.59 9.59 0 10-9.62 9.61 9.36 9.36 0 009.58-9.61m-25.27 9.42h3.08V45.58h-3.08zM120.12 48.1h5v16.25h3.08V48.1h5v-2.52h-13.1zm-7.4 9.9h-6.13l3.08-8.72zm2.22 6.35h3.24l-6.73-18.79h-3.56l-6.72 18.79h3.21l1.35-3.83h7.86zM95.15 45.56v14l-9.26-14h-3.08v18.79h3.08v-14l9.26 14h3.07V45.56zm-31.38 9.37c0-4.24 2.7-6.89 6.43-6.89s6.42 2.65 6.42 6.89-2.7 6.94-6.42 6.94-6.43-2.7-6.43-6.94m16 0a9.59 9.59 0 10-9.58 9.61 9.36 9.36 0 009.58-9.61m-34.2 6.91V48.1h3.06c4.42 0 6.8 2.64 6.8 6.93s-2.38 6.81-6.8 6.81zm3.06-16.26H42.5v18.77h6.13c6 0 10-3.54 10-9.32s-3.94-9.45-10-9.45" fill="#646464"/><path class="cls-5" d="M218.34 94.57H220v-4.88a3.22 3.22 0 00-3.39-3.52 3.16 3.16 0 00-2.46 1.08v-1h-1.71v8.27h1.71V90c0-1.52.82-2.3 2.08-2.3s2.07.78 2.07 2.3zm-14.24-4.14a2.46 2.46 0 012.44-2.78 2.5 2.5 0 012.46 2.78 2.55 2.55 0 01-2.53 2.79c-1.29 0-2.4-.92-2.4-2.79m6.69 0a4.22 4.22 0 10-8.43 0 4 4 0 004.14 4.27 4.14 4.14 0 004.29-4.27m-11-5.22a1.1 1.1 0 10-1.09-1.1 1.08 1.08 0 001.09 1.1m-.76 9.36h1.71V86.3H199zm-5.31-2.3c0 1.68.92 2.3 2.39 2.3h1.35v-1.43h-1c-.72 0-1-.25-1-.87V87.7h2v-1.4h-2v-2h-1.73v2h-1v1.4h1zm-4.24-1.84a2.57 2.57 0 01-2.51 2.79 2.61 2.61 0 01-2.5-2.82 2.54 2.54 0 012.5-2.75 2.57 2.57 0 012.51 2.78m-6.77 0a4 4 0 003.87 4.3 3.59 3.59 0 002.9-1.36v1.23h1.72v-8.3h-1.77v1.2a3.53 3.53 0 00-2.87-1.33 3.94 3.94 0 00-3.9 4.23m-3.3 4.17H181v-4.88a3.39 3.39 0 00-6.29-1.89 3.18 3.18 0 00-3-1.63 3.11 3.11 0 00-2.44 1.08v-1h-1.71v8.27h1.71V90c0-1.52.82-2.3 2.08-2.3s2.07.78 2.07 2.3v4.62h1.7V90c0-1.52.82-2.3 2.08-2.3s2.07.78 2.07 2.3zm-15.76-4.35c0-1.76.78-2.28 2-2.28h.43v-1.77a2.69 2.69 0 00-2.47 1.33v-1.2h-1.71v8.27h1.71zm-10.1.21a2.47 2.47 0 012.45-2.78 2.51 2.51 0 012.49 2.78 2.55 2.55 0 01-2.54 2.79c-1.29 0-2.4-.92-2.4-2.79m6.69 0a4.22 4.22 0 10-8.43 0 4 4 0 004.14 4.27 4.14 4.14 0 004.29-4.27m-12.64 4.14h1.72V87.7h1.53v-1.4h-1.53v-.58c0-1 .36-1.31 1.41-1.31V83c-2.16 0-3.13.82-3.13 2.73v.58h-1v1.4h1zm-4.08 0h1.69v-4.88a3.21 3.21 0 00-3.39-3.52 3.17 3.17 0 00-2.46 1.08v-1h-1.71v8.27h1.71V90a2 2 0 012.09-2.3c1.24 0 2.07.78 2.07 2.3zm-9.83 0h1.71V84.14h-1.71zm-8-4.35c0-1.76.78-2.28 2-2.28h.44v-1.77a2.71 2.71 0 00-2.48 1.33v-1.2H124v8.27h1.71zm-10.09.21a2.46 2.46 0 012.48-2.78 2.5 2.5 0 012.49 2.78 2.55 2.55 0 01-2.49 2.79c-1.29 0-2.4-.92-2.4-2.79m6.69 0a4.22 4.22 0 10-8.43 0A4 4 0 00118 94.7a4.14 4.14 0 004.29-4.27m-11.75 4.14h1.7v-4.88a3.22 3.22 0 00-3.39-3.52 3.16 3.16 0 00-2.46 1.08v-1h-1.71v8.27h1.71V90c0-1.52.82-2.3 2.08-2.3s2.07.78 2.07 2.3zm-14.28-4.14a2.47 2.47 0 012.45-2.78 2.51 2.51 0 012.49 2.78 2.55 2.55 0 01-2.54 2.79c-1.29 0-2.4-.92-2.4-2.79m6.69 0a4.22 4.22 0 10-8.43 0 4 4 0 004.14 4.27 4.14 4.14 0 004.34-4.27m-16.8 2.74v-7.63h1.7c2.46 0 3.78 1.47 3.78 3.85a3.43 3.43 0 01-3.78 3.78zm1.7-9h-3.46v10.4h3.41c3.34 0 5.53-2 5.53-5.18s-2.19-5.25-5.53-5.25M183.94 286h1.69v-4.88a3.21 3.21 0 00-3.39-3.52 3.17 3.17 0 00-2.46 1.08v-.95h-1.71V286h1.71v-4.62a2 2 0 012.09-2.3c1.24 0 2.07.78 2.07 2.3zm-14.25-4.14a2.46 2.46 0 012.44-2.78 2.5 2.5 0 012.49 2.78 2.55 2.55 0 01-2.53 2.79c-1.29 0-2.4-.92-2.4-2.79m6.69 0a4.22 4.22 0 10-8.43 0 4 4 0 004.14 4.27 4.14 4.14 0 004.29-4.27m-11-5.22a1.1 1.1 0 10-1.09-1.1 1.08 1.08 0 001.09 1.1m-.87 9.36h1.71v-8.27h-1.71zm-5.31-2.3c0 1.68.92 2.3 2.39 2.3H163v-1.43h-1.05c-.72 0-1-.25-1-.87v-4.57h2v-1.4h-2v-2.05h-1.73v2.05h-1v1.4h1zm-4.2-1.83a2.57 2.57 0 01-2.51 2.79 2.61 2.61 0 01-2.5-2.82 2.54 2.54 0 012.5-2.75 2.57 2.57 0 012.51 2.78m-6.77 0a4 4 0 003.87 4.3 3.59 3.59 0 002.9-1.36V286h1.72v-8.27H155v1.2a3.53 3.53 0 00-2.87-1.33 3.94 3.94 0 00-3.9 4.23m-3.3 4.17h1.7v-4.88a3.22 3.22 0 00-3.39-3.52 3.16 3.16 0 00-2.46 1.08v-.95h-1.71V286h1.71v-4.62c0-1.52.82-2.3 2.08-2.3s2.07.78 2.07 2.3zm-14.25-4.14a2.47 2.47 0 012.45-2.78 2.51 2.51 0 012.49 2.78 2.55 2.55 0 01-2.54 2.79c-1.29 0-2.4-.92-2.4-2.79m6.69 0a4.22 4.22 0 10-8.43 0 4 4 0 004.14 4.27 4.14 4.14 0 004.29-4.27m-16.8 2.74V277h1.7c2.46 0 3.78 1.47 3.78 3.85a3.43 3.43 0 01-3.78 3.78zm1.7-9h-3.41V286h3.41c3.34 0 5.53-2 5.53-5.18s-2.19-5.25-5.53-5.25M254.86 746.72a1.09 1.09 0 10-1.08 1.1 1.08 1.08 0 001.08-1.1m-1.86-2.16h1.42l.2-7.27h-1.82zm-5.84.86c0 1.68.92 2.29 2.39 2.29h1.35v-1.42h-1c-.72 0-1-.26-1-.87v-4.58h2v-1.39h-2v-2.06h-1.73v2.06h-1v1.39h1zm-4.32-2.06c0-1.75.78-2.28 2-2.28h.44v-1.77a2.69 2.69 0 00-2.48 1.34v-1.2h-1.71v8.26h1.71zm-10.09.21a2.46 2.46 0 012.44-2.77 2.5 2.5 0 012.49 2.77 2.54 2.54 0 01-2.53 2.79c-1.29 0-2.4-.91-2.4-2.79m6.69 0a4.22 4.22 0 10-8.43 0 4 4 0 004.14 4.28 4.14 4.14 0 004.29-4.28m-11.31 0a2.6 2.6 0 01-2.52 2.82 2.79 2.79 0 010-5.56 2.54 2.54 0 012.52 2.74m-5-2.88v-1.21h-1.71v12.19h1.71v-5.13a3.73 3.73 0 002.88 1.34 4 4 0 003.89-4.31 3.92 3.92 0 00-3.89-4.23 3.61 3.61 0 00-2.88 1.35m-5.13 2.85a2.6 2.6 0 01-2.52 2.82 2.79 2.79 0 010-5.56 2.54 2.54 0 012.52 2.74m-5-2.88v-1.21h-1.71v12.19H213v-5.13a3.73 3.73 0 002.88 1.34 4 4 0 003.89-4.31 3.92 3.92 0 00-3.89-4.23 3.61 3.61 0 00-2.88 1.35m-4-1.21h-1.71v4.6c0 1.52-.82 2.3-2.08 2.3s-2.07-.78-2.07-2.3v-4.6h-1.7v4.86a3.23 3.23 0 003.41 3.52 3.06 3.06 0 002.44-1.11v1H209zm-9.33 5.95c-.09-3-4.75-2-4.75-3.72 0-.55.48-.93 1.39-.93a1.38 1.38 0 011.55 1.22h1.71c-.09-1.65-1.32-2.66-3.2-2.66s-3.18 1.07-3.18 2.39c0 3 4.8 2.1 4.8 3.72 0 .57-.52 1-1.51 1a1.51 1.51 0 01-1.65-1.23h-1.77c.07 1.5 1.47 2.67 3.45 2.67s3.16-1.05 3.16-2.45m-14.11-2c0-1.75.78-2.28 2-2.28h.44v-1.77a2.68 2.68 0 00-2.47 1.34v-1.2h-1.71v8.26h1.71zm-4-3.91h-1.71v4.6a2 2 0 01-2.09 2.3c-1.24 0-2.07-.78-2.07-2.3v-4.6H174v4.86a3.22 3.22 0 003.4 3.52 3.06 3.06 0 002.45-1.11v1h1.71zm-15.87 4.12a2.46 2.46 0 012.44-2.77 2.5 2.5 0 012.49 2.77 2.54 2.54 0 01-2.53 2.79c-1.29 0-2.4-.91-2.4-2.79m6.69 0a4.22 4.22 0 10-8.43 0 4 4 0 004.14 4.28 4.14 4.14 0 004.29-4.28m-13.35 2.18l-2.33-6.3h-1.9l3.25 8.13-1.68 4h1.77l5.07-12.15h-1.77zm-11.21-2.39c0-1.75.78-2.28 2-2.28h.44v-1.77a2.69 2.69 0 00-2.48 1.34v-1.2h-1.71v8.26h1.71zm-10.09.21a2.46 2.46 0 012.44-2.77 2.5 2.5 0 012.49 2.77 2.54 2.54 0 01-2.53 2.79c-1.29 0-2.4-.91-2.4-2.79m6.69 0a4.22 4.22 0 10-8.43 0 4 4 0 004.14 4.28 4.14 4.14 0 004.29-4.28m-12.65 4.14h1.73v-6.87h1.53v-1.39h-1.53v-.59c0-.94.36-1.3 1.41-1.3v-1.43c-2.16 0-3.14.83-3.14 2.73v.59h-1v1.39h1zm-6.36-8.26h-1.71v4.6c0 1.52-.82 2.3-2.08 2.3s-2.07-.78-2.07-2.3v-4.6h-1.7v4.86a3.23 3.23 0 003.41 3.52 3.06 3.06 0 002.44-1.11v1h1.71zm-15.87 4.12a2.46 2.46 0 012.46-2.82 2.5 2.5 0 012.49 2.77 2.54 2.54 0 01-2.54 2.79c-1.29 0-2.4-.91-2.4-2.79m6.69 0a4.22 4.22 0 10-8.43 0 4 4 0 004.14 4.28 4.14 4.14 0 004.29-4.28m-13.35 2.18l-2.32-6.3h-1.89l3.26 8.13-1.68 4H102l5.07-12.15h-1.77zm-15.46 2h1.71v-3.55l3.06 3.55h2.31l-3.81-4.12 3.81-4.14h-2.35l-3 3.61v-6.45h-1.71zm-3.87 0h1.7v-4.87a3.23 3.23 0 00-3.39-3.53 3.19 3.19 0 00-2.46 1.08v-.94h-1.69v8.26h1.71v-4.62a2 2 0 012.08-2.29c1.25 0 2.07.78 2.07 2.29zm-9.84-4.14a2.56 2.56 0 01-2.5 2.79 2.6 2.6 0 01-2.51-2.82 2.52 2.52 0 115 0m-6.76 0a4 4 0 003.87 4.31 3.53 3.53 0 002.89-1.37v1.23h1.73v-8.26h-1.7v1.2a3.5 3.5 0 00-2.86-1.34 3.93 3.93 0 00-3.9 4.23m-9.17 4.17h1.71v-4.62a2.09 2.09 0 114.16 0v4.62h1.69v-4.87a3.19 3.19 0 00-3.28-3.53 3.28 3.28 0 00-2.57 1.1v-3.8h-1.71zm-9-9h2.79v9h1.71v-9h2.78v-1.39h-7.28z"/><path d="M87.2 122.23a1.45 1.45 0 011.24-.62 1.6 1.6 0 011.49.91v2.89a1.58 1.58 0 01-1.51.94 1.45 1.45 0 01-1.23-.62 2.84 2.84 0 01-.44-1.68 3.05 3.05 0 01.45-1.82m-.85 4.14a2.16 2.16 0 001.8.9 2.23 2.23 0 001.78-.75v.54a1.7 1.7 0 01-.44 1.25 1.67 1.67 0 01-1.24.45 2.12 2.12 0 01-1.7-.86l-.56.65a2.24 2.24 0 001 .8 3.17 3.17 0 001.34.29 2.7 2.7 0 002-.7A2.58 2.58 0 0091 127v-6.19h-1v.7a2.21 2.21 0 00-1.81-.82 2.18 2.18 0 00-1.82.88 3.7 3.7 0 00-.69 2.36 3.91 3.91 0 00.69 2.44m-1.37-5.6a1.19 1.19 0 00-.48-.08 1.69 1.69 0 00-1.52.85v-.73h-1v6.34h1.09v-4.5a1.41 1.41 0 011.44-.91 3.12 3.12 0 01.54 0zm-5.7 2.47a3.87 3.87 0 01-.62 2.28 2.17 2.17 0 01-3.39 0 3.84 3.84 0 01-.62-2.31v-.63a3.71 3.71 0 01.63-2.25 2 2 0 011.68-.81 2 2 0 011.71.81 3.87 3.87 0 01.61 2.33zm1.11-.62a5.35 5.35 0 00-.42-2.19 3.15 3.15 0 00-1.2-1.43 3.32 3.32 0 00-1.81-.5 3.28 3.28 0 00-1.79.5 3.35 3.35 0 00-1.19 1.45 5.25 5.25 0 00-.43 2.17v.61a5.06 5.06 0 00.45 2.13 3.2 3.2 0 003 1.91 3.3 3.3 0 001.81-.5 3.17 3.17 0 001.17-1.42 5.35 5.35 0 00.42-2.19zm-7.9-4h-.93l-3.56 9.26H69zM66 122a2 2 0 01.45 1.28v.08h-3.19a2.36 2.36 0 01.55-1.34 1.46 1.46 0 011.11-.48A1.32 1.32 0 0166 122m1.45 4l-.66-.51a2.58 2.58 0 01-.7.62 1.93 1.93 0 01-1 .23 1.7 1.7 0 01-1.33-.58 2.21 2.21 0 01-.55-1.51h4.29v-.45a3.56 3.56 0 00-.68-2.33 2.36 2.36 0 00-1.92-.82 2.53 2.53 0 00-1.41.42 2.86 2.86 0 00-1 1.16 3.85 3.85 0 00-.36 1.69v.19a3.15 3.15 0 00.81 2.27 2.79 2.79 0 002.1.85 2.66 2.66 0 002.4-1.23m-15.54-5.19v6.34H53v-4.63a1.45 1.45 0 011.46-.91 1.21 1.21 0 011.33 1.39v4.16h1.09v-4.21a1.5 1.5 0 01.47-1 1.41 1.41 0 011-.36 1.34 1.34 0 011 .34 1.43 1.43 0 01.31 1v4.18h1.08v-4.21c0-1.47-.73-2.21-2.12-2.21a2.37 2.37 0 00-2 1 1.81 1.81 0 00-1.81-1 2.37 2.37 0 00-1.88.82v-.7zM46.62 126a1 1 0 01-.34-.8c0-.78.66-1.17 2-1.17h.85v1.3a1.68 1.68 0 01-.66.69 2 2 0 01-1 .26 1.28 1.28 0 01-.87-.28m3.81 1.11v-.09a3.56 3.56 0 01-.23-1.39v-2.92a2 2 0 00-.64-1.51 2.5 2.5 0 00-1.72-.55 3.13 3.13 0 00-1.27.26 2.23 2.23 0 00-.91.7 1.46 1.46 0 00-.34.92h1.09a.86.86 0 01.39-.71 1.59 1.59 0 011-.3 1.39 1.39 0 011 .34 1.22 1.22 0 01.34.91v.49h-1.06a3.56 3.56 0 00-2.11.55 1.79 1.79 0 00-.76 1.54 1.74 1.74 0 00.6 1.35 2.27 2.27 0 001.54.53 2.46 2.46 0 001.81-.79 2.49 2.49 0 00.15.67zm-6.88-8.53h-1.1v6.6l-4.31-6.6H37v8.53h1.13v-6.58l4.3 6.58h1.13zM64.78 158.68h-1.09v9h1.09zm-3.93 1.42a.76.76 0 001 0 .63.63 0 00.16-.44.64.64 0 00-.16-.45.73.73 0 00-1 0 .69.69 0 00-.16.45.68.68 0 00.16.44m1 1.24h-1.07v6.34h1.08zm-6.46 5.22a1 1 0 01-.34-.79c0-.78.66-1.17 2-1.17h.85v1.3a1.62 1.62 0 01-.66.69 2 2 0 01-1 .26 1.27 1.27 0 01-.87-.29m3.81 1.12v-.1a3.49 3.49 0 01-.18-1.38v-2.92a2 2 0 00-.65-1.51 2.46 2.46 0 00-1.71-.55 3.07 3.07 0 00-1.27.26 2.26 2.26 0 00-.92.7 1.51 1.51 0 00-.33.92h1.08a.86.86 0 01.39-.71 1.54 1.54 0 011-.3 1.37 1.37 0 011 .34 1.22 1.22 0 01.34.91v.49h-1a3.59 3.59 0 00-2.12.55 1.8 1.8 0 00-.75 1.54 1.71 1.71 0 00.6 1.34 2.2 2.2 0 001.54.53 2.42 2.42 0 001.8-.78 2.49 2.49 0 00.15.67zm-15.58-6.34v6.34h1.09v-4.63a1.45 1.45 0 011.46-.91 1.21 1.21 0 011.35 1.38v4.16h1.09v-4.21a1.4 1.4 0 011.47-1.33 1.36 1.36 0 011 .34 1.42 1.42 0 01.31 1v4.19h1.08v-4.25c0-1.47-.73-2.21-2.12-2.21a2.42 2.42 0 00-1.2.28 2.54 2.54 0 00-.82.74 1.81 1.81 0 00-1.81-1 2.32 2.32 0 00-1.88.82v-.7zm-1.82 1.47h-3.66v-2.74h4.23v-.92H37v8.53h5.42v-.92h-4.3v-3h3.69zM66 455.28a2 2 0 01.45 1.28v.08h-3.19a2.39 2.39 0 01.55-1.34 1.49 1.49 0 011.11-.47 1.35 1.35 0 011.07.45m1.45 4l-.66-.52a2.29 2.29 0 01-.7.62 1.84 1.84 0 01-1 .24 1.73 1.73 0 01-1.33-.58 2.24 2.24 0 01-.55-1.52h4.29v-.45a3.56 3.56 0 00-.68-2.33 2.39 2.39 0 00-1.92-.81 2.53 2.53 0 00-1.41.42 2.73 2.73 0 00-1 1.16 3.77 3.77 0 00-.36 1.68v.2a3.13 3.13 0 00.81 2.26 2.76 2.76 0 002.1.85 2.67 2.67 0 002.39-1.22m-15.52-5.23v6.34H53v-4.63a1.45 1.45 0 011.46-.9 1.21 1.21 0 011.35 1.38v4.15h1.09v-4.2a1.47 1.47 0 01.47-1 1.41 1.41 0 011-.36 1.38 1.38 0 011 .33 1.47 1.47 0 01.31 1v4.18h1.08v-4.24c0-1.48-.73-2.21-2.12-2.21a2.37 2.37 0 00-2 1 1.81 1.81 0 00-1.81-1 2.34 2.34 0 00-1.88.82V454zm-5.28 5.23a1 1 0 01-.34-.8c0-.77.66-1.16 2-1.16h.85v1.3a1.6 1.6 0 01-.66.68 1.9 1.9 0 01-1 .27 1.29 1.29 0 01-.87-.29m3.81 1.11v-.09a3.53 3.53 0 01-.23-1.39V456a2 2 0 00-.64-1.51 2.55 2.55 0 00-1.72-.54 3.13 3.13 0 00-1.27.25 2.41 2.41 0 00-.91.7 1.5 1.5 0 00-.34.92h1.09a.87.87 0 01.39-.71 1.65 1.65 0 011-.29 1.35 1.35 0 011 .34 1.18 1.18 0 01.34.9v.5h-1.06a3.49 3.49 0 00-2.11.55 1.78 1.78 0 00-.76 1.54 1.71 1.71 0 00.6 1.34 2.27 2.27 0 001.54.53 2.45 2.45 0 001.81-.78 2.3 2.3 0 00.15.66zm-6.88-8.53h-1.1v6.61l-4.31-6.61H37v8.53h1.13v-6.57l4.3 6.57h1.13zM102.2 496.89h1.55l-.4 2.08h-1.55zm.53 5.29h.84l.47-2.4h1.47V499h-1.32l.41-2.08h1.4v-.81h-1.2l.48-2.44h-.84l-.48 2.44h-1.55l.48-2.44H102l-.48 2.44h-1.66v.81h1.51L101 499h-1.59v.81h1.4l-.47 2.4h.84l.47-2.4h1.55zm-11.67-4.93a1.44 1.44 0 011.24-.61 1.62 1.62 0 011.5.89v2.92a1.59 1.59 0 01-1.51.92 1.44 1.44 0 01-1.23-.61 2.77 2.77 0 01-.45-1.68 3.09 3.09 0 01.45-1.83M89.53 499a3.72 3.72 0 00.7 2.36 2.16 2.16 0 001.79.9 2.2 2.2 0 001.81-.79v.68h1v-9H93.8v3.3a2.2 2.2 0 00-1.77-.76 2.17 2.17 0 00-1.81.89 3.7 3.7 0 00-.69 2.34zm-.62-3.23a1.19 1.19 0 00-.48-.08 1.68 1.68 0 00-1.51.85v-.73h-1.07v6.34h1.08v-4.5a1.43 1.43 0 011.45-.91 2.93 2.93 0 01.53 0zm-8.35 5.26a1 1 0 01-.34-.79c0-.78.66-1.17 2-1.17h.85v1.3a1.62 1.62 0 01-.66.69 2 2 0 01-1 .26 1.32 1.32 0 01-.87-.29m3.81 1.12v-.1a3.51 3.51 0 01-.22-1.39v-2.91a2 2 0 00-.65-1.51 2.47 2.47 0 00-1.72-.55 2.9 2.9 0 00-1.26.26 2.26 2.26 0 00-.92.7 1.5 1.5 0 00-.33.91h1.09a.88.88 0 01.39-.71 1.6 1.6 0 011-.29 1.33 1.33 0 011 .34 1.18 1.18 0 01.34.9v.5H82a3.52 3.52 0 00-2.12.55 1.79 1.79 0 00-.75 1.54 1.71 1.71 0 00.6 1.34 2.2 2.2 0 001.54.53 2.42 2.42 0 001.8-.78 2.49 2.49 0 00.15.67zm-7.55-2.71a2.41 2.41 0 01-.66 1.48 2.21 2.21 0 01-1.44.42 1.85 1.85 0 01-1.62-.82 3.74 3.74 0 01-.58-2.21v-.83a3.67 3.67 0 01.61-2.27 2 2 0 011.69-.79 1.93 1.93 0 011.37.46 2.46 2.46 0 01.63 1.48H78a3.18 3.18 0 00-1-2.1 3.08 3.08 0 00-2.18-.76 3.37 3.37 0 00-1.82.5 3.1 3.1 0 00-1.2 1.39 4.9 4.9 0 00-.43 2.09v.82a4.35 4.35 0 00.92 2.9 3 3 0 002.42 1.08 3.26 3.26 0 002.23-.73 3.13 3.13 0 001-2.09zM65 494.3v1.54h-1.15v.83H65v3.94a1.91 1.91 0 00.37 1.24 1.34 1.34 0 001.1.44 3.44 3.44 0 00.83-.11v-.88a2.41 2.41 0 01-.52.07.63.63 0 01-.53-.19.84.84 0 01-.16-.57v-3.94h1.18v-.83h-1.18v-1.54zm-3.13.29a.73.73 0 001 0 .6.6 0 00.16-.44.63.63 0 00-.16-.44.73.73 0 00-1 0 .63.63 0 00-.16.44.6.6 0 00.16.44m1 1.25H61.8v6.34h1.08zm-6.68 1.41a1.45 1.45 0 011.25-.61 1.6 1.6 0 011.49.89v2.92a1.59 1.59 0 01-1.51.92 1.44 1.44 0 01-1.23-.61 2.84 2.84 0 01-.44-1.68 3.17 3.17 0 01.44-1.83M54.67 499a3.78 3.78 0 00.7 2.36 2.16 2.16 0 001.79.9 2.19 2.19 0 001.84-.76l.06.68h1v-9h-1.12v3.3a2.36 2.36 0 00-3.58.13 3.7 3.7 0 00-.69 2.34zm-2.52-2a2.05 2.05 0 01.45 1.28v.09h-3.18a2.36 2.36 0 01.55-1.34 1.46 1.46 0 011.11-.48 1.35 1.35 0 011.07.45m1.45 4l-.66-.52a2.29 2.29 0 01-.7.62 1.84 1.84 0 01-1 .24 1.7 1.7 0 01-1.33-.58 2.21 2.21 0 01-.55-1.51h4.29v-.46a3.58 3.58 0 00-.68-2.33 2.39 2.39 0 00-1.92-.81 2.53 2.53 0 00-1.41.42 2.87 2.87 0 00-1 1.16 3.77 3.77 0 00-.34 1.77v.2a3.15 3.15 0 00.81 2.27 2.79 2.79 0 002.1.84 2.67 2.67 0 002.39-1.22m-5.9-5.27a1.21 1.21 0 00-.49-.08 1.69 1.69 0 00-1.51.85v-.73h-1.07v6.34h1.08v-4.5a1.43 1.43 0 011.45-.91 3.12 3.12 0 01.54 0zm-5.57 3.67a2.36 2.36 0 01-.66 1.48 2.17 2.17 0 01-1.44.42 1.86 1.86 0 01-1.62-.82 3.74 3.74 0 01-.58-2.21v-.83a3.67 3.67 0 01.61-2.27 2 2 0 011.69-.79 1.91 1.91 0 011.37.46 2.4 2.4 0 01.63 1.48h1.14a3.14 3.14 0 00-1-2.1 3.06 3.06 0 00-2.18-.76 3.36 3.36 0 00-1.8.48 3.12 3.12 0 00-1.21 1.39 4.9 4.9 0 00-.42 2.09v.82a4.34 4.34 0 00.91 2.9 3 3 0 002.43 1.06 3.28 3.28 0 002.24-.73 3.17 3.17 0 001-2.09zM52.83 541.7h-1.22l3.16 8.53h1l3.17-8.53H57.7l-2.44 7zm-7.63 0H44l3.16 8.53h1l3.16-8.53h-1.26l-2.44 7zm-3.07 5.82a2.3 2.3 0 01-.66 1.48 2.12 2.12 0 01-1.44.43 1.88 1.88 0 01-1.62-.82 3.77 3.77 0 01-.58-2.22v-.82a3.65 3.65 0 01.61-2.27 2 2 0 011.69-.8 1.91 1.91 0 011.37.46 2.45 2.45 0 01.63 1.48h1.14a3.18 3.18 0 00-1-2.1 3.06 3.06 0 00-2.18-.76 3.36 3.36 0 00-1.8.48 3.23 3.23 0 00-1.21 1.39 4.9 4.9 0 00-.42 2.09v.82a4.34 4.34 0 00.91 2.9 3 3 0 002.43 1.09 3.29 3.29 0 002.24-.74 3.17 3.17 0 001-2.09zM191.82 542.62h2.09a1.91 1.91 0 011.32.47 1.63 1.63 0 01.48 1.22 1.55 1.55 0 01-.48 1.23 2 2 0 01-1.38.43h-2zm2 4.27a3.3 3.3 0 002.23-.67 2.39 2.39 0 00.77-1.91 2.43 2.43 0 00-.79-1.9 3.19 3.19 0 00-2.19-.71h-3.14v8.53h1.12v-3.34zm-9.93-5.19h-1.32l2.71 4.23-2.77 4.3h1.33l2.16-3.33 2.1 3.33h1.33l-2.76-4.3 2.7-4.23H188l-2 3.3zm-2.72 3.67h-3.7v-2.75h4.24v-.92h-5.36v8.53h5.42v-.92h-4.3v-3h3.7zM68 206.46a2 2 0 01.44 1.28v.08h-3.13a2.29 2.29 0 01.55-1.34A1.44 1.44 0 0167 206a1.36 1.36 0 011.08.46m1.45 4l-.67-.51a2.7 2.7 0 01-.69.62 2 2 0 01-1 .23 1.7 1.7 0 01-1.33-.58 2.26 2.26 0 01-.55-1.51h4.3v-.45a3.5 3.5 0 00-.69-2.33 2.35 2.35 0 00-1.92-.82 2.52 2.52 0 00-1.4.42 2.86 2.86 0 00-1 1.16 3.8 3.8 0 00-.36 1.68v.2a3.15 3.15 0 00.81 2.27 2.79 2.79 0 002.1.85 2.67 2.67 0 002.39-1.23m-11.65-5.23v6.34h1.09v-4.52a1.94 1.94 0 01.62-.74 1.52 1.52 0 01.92-.28 1.24 1.24 0 011 .33 1.47 1.47 0 01.32 1v4.2h1.08v-4.19c0-1.51-.69-2.27-2-2.27a2.33 2.33 0 00-1.9.92v-.8zm-5.55 1.41a1.64 1.64 0 012.61 0 2.7 2.7 0 01.5 1.69 2.91 2.91 0 01-.49 1.81 1.55 1.55 0 01-1.31.65 1.57 1.57 0 01-1.31-.64 2.74 2.74 0 01-.49-1.69 3 3 0 01.49-1.83m-1.58 1.78a3.45 3.45 0 00.8 2.37 2.67 2.67 0 002.09.9 2.86 2.86 0 001.52-.41 2.76 2.76 0 001-1.15 3.71 3.71 0 00.35-1.66v-.08a3.41 3.41 0 00-.8-2.38 2.66 2.66 0 00-2.09-.9 2.75 2.75 0 00-1.49.41 2.69 2.69 0 00-1 1.14 3.7 3.7 0 00-.37 1.68zm-5.24-5.85h-1.11v9h1.08v-4.52a2 2 0 01.63-.74 1.52 1.52 0 01.9-.3 1.27 1.27 0 011 .33 1.47 1.47 0 01.31 1v4.2h1.09v-4.19c0-1.51-.69-2.27-2-2.27a2.32 2.32 0 00-1.88.89zM38.11 204h2.09a1.91 1.91 0 011.32.47 1.61 1.61 0 01.48 1.22 1.55 1.55 0 01-.48 1.23 2 2 0 01-1.38.43h-2zm2 4.27a3.35 3.35 0 002.23-.67 2.4 2.4 0 00.77-1.92 2.43 2.43 0 00-.79-1.89 3.19 3.19 0 00-2.19-.71H37v8.53h1.12v-3.34zM78 249a1.73 1.73 0 01-1 .25 1.67 1.67 0 01-1.08-.32 1.11 1.11 0 01-.43-.86h-1.08a1.84 1.84 0 00.33 1 2.28 2.28 0 00.92.75 3.19 3.19 0 001.35.27 2.85 2.85 0 001.76-.51 1.62 1.62 0 00.68-1.37 1.5 1.5 0 00-.24-.86 1.88 1.88 0 00-.75-.61 6.08 6.08 0 00-1.31-.43A3.79 3.79 0 0176 246a.66.66 0 01-.32-.59.83.83 0 01.34-.68 1.48 1.48 0 01.92-.25 1.41 1.41 0 011 .32 1 1 0 01.37.76h1.09a1.76 1.76 0 00-.67-1.42 2.64 2.64 0 00-1.75-.56 2.57 2.57 0 00-1.68.54 1.65 1.65 0 00-.66 1.32 1.45 1.45 0 00.23.81 1.89 1.89 0 00.72.59 5.67 5.67 0 001.3.42 3.3 3.3 0 011.16.42.8.8 0 01.33.68.76.76 0 01-.38.64m-6.19 0a1.73 1.73 0 01-1 .25 1.64 1.64 0 01-1.07-.32 1.12 1.12 0 01-.44-.86h-1.07a1.84 1.84 0 00.33 1 2.18 2.18 0 00.91.75 3.22 3.22 0 001.35.27 2.9 2.9 0 001.77-.51 1.65 1.65 0 00.68-1.37 1.5 1.5 0 00-.25-.86 1.91 1.91 0 00-.74-.61 6.39 6.39 0 00-1.32-.43 3.79 3.79 0 01-1.12-.38.65.65 0 01-.31-.59.82.82 0 01.33-.68 1.49 1.49 0 01.93-.25 1.38 1.38 0 01.95.32 1 1 0 01.38.76h1.09a1.79 1.79 0 00-.67-1.42 2.66 2.66 0 00-1.75-.56 2.58 2.58 0 00-1.69.54 1.65 1.65 0 00-.66 1.32 1.45 1.45 0 00.23.81 2 2 0 00.72.59 5.77 5.77 0 001.31.42 3.32 3.32 0 011.15.42.8.8 0 01.33.68.74.74 0 01-.37.66m-6.1-4.09a2.08 2.08 0 01.44 1.28v.08H63a2.32 2.32 0 01.55-1.34 1.42 1.42 0 011.1-.47 1.38 1.38 0 011.08.45m1.44 4l-.66-.51a2.43 2.43 0 01-.7.62 1.83 1.83 0 01-1 .23 1.72 1.72 0 01-1.33-.57 2.29 2.29 0 01-.55-1.52h4.3v-.45a3.5 3.5 0 00-.69-2.33 2.39 2.39 0 00-1.92-.82 2.5 2.5 0 00-1.4.42 2.78 2.78 0 00-1 1.16 3.85 3.85 0 00-.36 1.69v.2a3.13 3.13 0 00.81 2.26 2.72 2.72 0 002.09.85 2.65 2.65 0 002.39-1.23m-5.9-5.26a1 1 0 00-.48-.09 1.69 1.69 0 00-1.51.85v-.73h-1.08V250h1.09v-4.5a1.42 1.42 0 011.44-.91 4.41 4.41 0 01.54 0zm-8.57 1.45a1.45 1.45 0 011.24-.62 1.6 1.6 0 011.5.9v2.91a1.59 1.59 0 01-1.51.93 1.44 1.44 0 01-1.23-.61 2.8 2.8 0 01-.44-1.69 3.08 3.08 0 01.44-1.82m-1.53 1.78a3.74 3.74 0 00.7 2.36 2.16 2.16 0 001.79.9 2.2 2.2 0 001.81-.8l.06.68h1v-9h-1.09v3.31a2.35 2.35 0 00-3.58.12 3.73 3.73 0 00-.69 2.35zm-5.24-1.78a1.46 1.46 0 011.25-.62 1.58 1.58 0 011.49.9v2.91a1.59 1.59 0 01-1.51.93 1.44 1.44 0 01-1.23-.61 2.88 2.88 0 01-.44-1.69 3.15 3.15 0 01.44-1.82m-1.53 1.78a3.8 3.8 0 00.7 2.36 2.16 2.16 0 001.79.9 2.23 2.23 0 001.82-.8l.05.68h1v-9h-1.09v3.31a2.34 2.34 0 00-3.57.12 3.73 3.73 0 00-.7 2.35zm-4.47-4l1.46 4h-2.9zm2.61 7.17h1.15l-3.26-8.53h-1L36.16 250h1.16l.81-2.23h3.57zM127.33 431a.67.67 0 00.51.18.65.65 0 00.5-.18.61.61 0 00.18-.45.64.64 0 00-.18-.47.62.62 0 00-.5-.19.64.64 0 00-.51.19.67.67 0 00-.16.47.64.64 0 00.16.45m0 5.17a.65.65 0 00.5.18.69.69 0 00.51-.18.64.64 0 00.17-.45.62.62 0 00-.68-.66.65.65 0 00-.5.19.7.7 0 00-.17.47.64.64 0 00.17.45m-3.67-7.76v1.54h-1.15v.84h1.15v3.93a1.94 1.94 0 00.37 1.25 1.36 1.36 0 001.1.43 3 3 0 00.83-.11v-.88a2.54 2.54 0 01-.52.08.64.64 0 01-.53-.2.83.83 0 01-.16-.57v-3.93h1.18v-.84h-1.18v-1.54zm-7 1.54v6.34h1.08v-4.52a2 2 0 01.62-.74 1.57 1.57 0 01.93-.28 1.23 1.23 0 01.95.33 1.47 1.47 0 01.32 1v4.2h1.08v-4.19c0-1.51-.69-2.27-2-2.27a2.31 2.31 0 00-1.89.91v-.79zm-2.66 6.3h1v-6.34h-1.08v4.61a1.64 1.64 0 01-1.66.93c-.78 0-1.17-.49-1.17-1.45v-4.09H110V434a2.58 2.58 0 00.53 1.75 2 2 0 001.55.58 2.28 2.28 0 001.85-.74zm-9.49-4.93a1.55 1.55 0 011.3-.64 1.58 1.58 0 011.31.65 2.7 2.7 0 01.5 1.69 2.91 2.91 0 01-.49 1.81 1.65 1.65 0 01-2.62 0 2.67 2.67 0 01-.49-1.69 3 3 0 01.49-1.83m-1.58 1.78a3.45 3.45 0 00.8 2.37 2.65 2.65 0 002.09.89 2.74 2.74 0 001.51-.41 2.69 2.69 0 001-1.14 3.85 3.85 0 00.35-1.66v-.08a3.44 3.44 0 00-.8-2.38 2.66 2.66 0 00-2.09-.9 2.75 2.75 0 00-1.49.41 2.64 2.64 0 00-1 1.14 3.7 3.7 0 00-.37 1.68zm-10.24-3.19v6.34h1.09v-4.63a1.45 1.45 0 011.46-.91 1.21 1.21 0 011.35 1.38v4.16h1.09V432a1.46 1.46 0 01.46-1 1.44 1.44 0 011-.36 1.37 1.37 0 011 .34 1.47 1.47 0 01.31 1v4.19h1.08V432c0-1.47-.73-2.21-2.12-2.21a2.34 2.34 0 00-2 1 1.81 1.81 0 00-1.81-1 2.32 2.32 0 00-1.88.82v-.7zm-4.73-.8l1.46 4H86.5zm2.61 7.14h1.13l-3.26-8.53h-1l-3.26 8.53h1.16l.81-2.23h3.57zm-9.67-6.38a1.19 1.19 0 00-.48-.08 1.69 1.69 0 00-1.51.85v-.73h-1.09v6.34h1.08v-4.5a1.43 1.43 0 011.45-.91 2.93 2.93 0 01.53 0zm-5.9 1.28a2.06 2.06 0 01.44 1.28v.08h-3.13a2.29 2.29 0 01.55-1.34 1.43 1.43 0 011.1-.48 1.36 1.36 0 011.08.46m1.44 4l-.66-.52a2.46 2.46 0 01-.7.63 1.93 1.93 0 01-1 .23 1.7 1.7 0 01-1.33-.58 2.26 2.26 0 01-.55-1.51h4.3v-.45a3.5 3.5 0 00-.69-2.33 2.36 2.36 0 00-1.92-.82 2.5 2.5 0 00-1.4.42 2.78 2.78 0 00-1 1.16 3.8 3.8 0 00-.36 1.68v.2a3.15 3.15 0 00.81 2.27 2.75 2.75 0 002.09.84 2.64 2.64 0 002.39-1.22m-10.54-7.89h-1.07v9h1.09v-4.52a1.94 1.94 0 01.62-.74 1.52 1.52 0 01.92-.28 1.24 1.24 0 011 .33 1.47 1.47 0 01.32 1v4.2h1.08v-4.19c0-1.51-.69-2.27-2-2.27a2.3 2.3 0 00-1.87.89zm-4.62 1.12v1.54h-1.13v.84h1.15v3.93a1.88 1.88 0 00.37 1.25 1.35 1.35 0 001.09.43 3.13 3.13 0 00.84-.11v-.88a2.54 2.54 0 01-.52.08.67.67 0 01-.54-.2.88.88 0 01-.16-.57v-3.93h1.19v-.84H62.4v-1.54zm-3 4a3.87 3.87 0 01-.62 2.28 2.17 2.17 0 01-3.39-.05 3.84 3.84 0 01-.62-2.31v-.63a3.78 3.78 0 01.63-2.25 2 2 0 011.68-.81 2 2 0 011.71.81 3.87 3.87 0 01.61 2.33zm1.12-.62a5.35 5.35 0 00-.43-2.19 3.18 3.18 0 00-1.2-1.44 3.29 3.29 0 00-4.79 1.42 5.33 5.33 0 00-.43 2.18v.61a5.06 5.06 0 00.45 2.13 3.17 3.17 0 003 1.9 3.29 3.29 0 001.81-.49 3.22 3.22 0 001.17-1.42 5.35 5.35 0 00.43-2.19zM250.31 686.76a.58.58 0 00.47.18.62.62 0 00.48-.18.6.6 0 00.17-.44.64.64 0 00-.17-.45.62.62 0 00-.48-.18.58.58 0 00-.47.18.64.64 0 00-.17.45.6.6 0 00.17.44m1-2.3a2 2 0 01.42-1.36l.64-.64a2.94 2.94 0 00.95-2 2.15 2.15 0 00-.62-1.63 2.35 2.35 0 00-1.72-.6 2.52 2.52 0 00-1.73.59 2 2 0 00-.68 1.53h1.08a1 1 0 01.37-.85 1.41 1.41 0 011-.32 1.2 1.2 0 01.93.35 1.33 1.33 0 01.33 1 1.75 1.75 0 01-.5 1.19l-.76.79a2.92 2.92 0 00-.6.9 3.51 3.51 0 00-.16 1.1zm-9-3.93v6.34h1.08v-4.52a1.92 1.92 0 01.62-.73 1.58 1.58 0 01.93-.29 1.27 1.27 0 011 .33 1.48 1.48 0 01.31 1v4.19h1.09v-4.19c0-1.51-.69-2.27-2-2.27a2.31 2.31 0 00-1.9.92v-.8zm-5.55 1.41a1.66 1.66 0 012.61 0 2.72 2.72 0 01.5 1.69 3 3 0 01-.49 1.82 1.67 1.67 0 01-2.62 0 2.7 2.7 0 01-.49-1.7 3 3 0 01.49-1.83m-1.58 1.78a3.4 3.4 0 00.8 2.37 2.66 2.66 0 002.09.9 2.82 2.82 0 001.51-.41 2.63 2.63 0 001-1.15 3.71 3.71 0 00.36-1.66v-.07a3.47 3.47 0 00-.8-2.39 2.67 2.67 0 00-2.1-.9 2.71 2.71 0 00-2.51 1.56 3.76 3.76 0 00-.36 1.67zm-2.46-4.43a.64.64 0 001.12-.44.65.65 0 00-.16-.45.73.73 0 00-1 0 .65.65 0 00-.16.45.61.61 0 00.16.44m1 1.24h-1.08v6.34h1.08zM229 679v1.53h-1.15v.84H229v3.93a1.87 1.87 0 00.37 1.25 1.34 1.34 0 001.09.44 3.15 3.15 0 00.84-.12V686a2.41 2.41 0 01-.52.07.67.67 0 01-.54-.19.92.92 0 01-.16-.57v-3.94h1.19v-.84h-1.19V679zm-5.67 6.76a1 1 0 01-.34-.8c0-.78.66-1.16 2-1.16h.85v1.3a1.6 1.6 0 01-.66.68 1.9 1.9 0 01-1 .27 1.3 1.3 0 01-.87-.29m3.81 1.11v-.09a3.56 3.56 0 01-.23-1.39v-2.92a2 2 0 00-.64-1.51 2.54 2.54 0 00-1.72-.55 3.13 3.13 0 00-1.27.26 2.31 2.31 0 00-.91.7 1.54 1.54 0 00-.34.92h1.09a.86.86 0 01.4-.71 1.6 1.6 0 011-.29 1.39 1.39 0 011 .33 1.22 1.22 0 01.34.91v.5h-1.05a3.5 3.5 0 00-2.12.55 1.76 1.76 0 00-.76 1.53 1.71 1.71 0 00.6 1.35 2.27 2.27 0 001.54.53 2.42 2.42 0 001.81-.79 2.39 2.39 0 00.15.67zm-11.68-6.34v6.34h1.09v-4.52a1.84 1.84 0 01.62-.73 1.56 1.56 0 01.93-.29 1.23 1.23 0 01.95.33 1.48 1.48 0 01.32 1v4.19h1.08v-4.19c0-1.51-.69-2.27-2-2.27a2.29 2.29 0 00-1.89.92v-.8zm-5.54 1.41a1.55 1.55 0 011.29-.63 1.58 1.58 0 011.32.64 2.71 2.71 0 01.49 1.69 2.94 2.94 0 01-.49 1.82 1.55 1.55 0 01-1.31.64 1.59 1.59 0 01-1.31-.63 2.77 2.77 0 01-.49-1.7 3 3 0 01.5-1.83m-1.59 1.78a3.45 3.45 0 00.8 2.37 2.67 2.67 0 002.09.9 2.86 2.86 0 001.52-.41 2.7 2.7 0 001-1.15 3.71 3.71 0 00.36-1.66v-.07a3.47 3.47 0 00-.8-2.39 2.69 2.69 0 00-2.1-.9 2.75 2.75 0 00-1.49.41 2.66 2.66 0 00-1 1.15 3.76 3.76 0 00-.37 1.67zm-5.18-1.72a1.45 1.45 0 011.24-.62 1.61 1.61 0 011.5.9v2.91a1.59 1.59 0 01-1.51.93 1.44 1.44 0 01-1.23-.61 2.8 2.8 0 01-.45-1.69 3.07 3.07 0 01.45-1.82m-1.53 1.78a3.78 3.78 0 00.69 2.36 2.19 2.19 0 001.8.9 2.21 2.21 0 001.81-.8v.68h1v-9h-1.08v3.31a2.22 2.22 0 00-1.77-.77 2.2 2.2 0 00-1.81.89 3.73 3.73 0 00-.69 2.35zm-3.7-3.23a1 1 0 00-.48-.09 1.71 1.71 0 00-1.52.85v-.73h-1.06v6.34h1.09v-4.5a1.42 1.42 0 011.44-.91 4.56 4.56 0 01.54 0zm-5.75 6.37h1v-6.34h-1.05v4.61a1.61 1.61 0 01-1.65.93q-1.17 0-1.17-1.44v-4.1h-1.09v4.13a2.58 2.58 0 00.54 1.74 2 2 0 001.54.59 2.29 2.29 0 001.86-.75zm-9.48-4.93a1.66 1.66 0 012.61 0 2.71 2.71 0 01.49 1.69 3 3 0 01-.48 1.82 1.67 1.67 0 01-2.62 0 2.7 2.7 0 01-.49-1.7 3 3 0 01.49-1.83m-1.58 1.78a3.4 3.4 0 00.8 2.37 2.65 2.65 0 002.08.9 2.86 2.86 0 001.52-.41 2.63 2.63 0 001-1.15 3.71 3.71 0 00.36-1.66v-.07a3.47 3.47 0 00-.8-2.39 2.68 2.68 0 00-2.1-.9 2.71 2.71 0 00-2.51 1.56 3.76 3.76 0 00-.36 1.67zm-4.81-3.19h-1.19l2.26 6.27-.24.65a1.63 1.63 0 01-.5.81 1.44 1.44 0 01-.86.22h-.29v.88l.4.07h.2c.86 0 1.49-.53 1.89-1.58l2.54-7.32h-1.16l-1.47 4.75zm-4.46 0a1 1 0 00-.48-.09 1.71 1.71 0 00-1.52.85v-.73h-1.06v6.34h1.09v-4.5a1.42 1.42 0 011.44-.91 4.56 4.56 0 01.54 0zM163.2 682a1.66 1.66 0 012.61 0 2.72 2.72 0 01.5 1.69 2.94 2.94 0 01-.49 1.82 1.55 1.55 0 01-1.31.64 1.58 1.58 0 01-1.31-.63 2.7 2.7 0 01-.49-1.7 3 3 0 01.49-1.83m-1.58 1.78a3.45 3.45 0 00.8 2.37 2.66 2.66 0 002.09.9 2.82 2.82 0 001.51-.41 2.72 2.72 0 001-1.15 3.85 3.85 0 00.35-1.66v-.07a3.42 3.42 0 00-.8-2.39 2.66 2.66 0 00-2.09-.9 2.75 2.75 0 00-1.49.41 2.66 2.66 0 00-1 1.15 3.63 3.63 0 00-.37 1.67zm-2.26 3.15v-5.5h1.35v-.84h-1.35v-.67a1.24 1.24 0 01.29-.88 1 1 0 01.81-.31 3.7 3.7 0 01.59.05l.06-.87a2.76 2.76 0 00-.75-.1 2 2 0 00-1.54.56 2.15 2.15 0 00-.54 1.57v.65h-1v.84h1v5.5zm-7.27 0h1v-6.34H152v4.61a1.61 1.61 0 01-1.65.93q-1.17 0-1.17-1.44v-4.1h-1.09v4.13a2.58 2.58 0 00.54 1.74 2 2 0 001.54.59 2.29 2.29 0 001.86-.75zm-9.48-4.93a1.66 1.66 0 012.61 0 2.71 2.71 0 01.49 1.69 3 3 0 01-.48 1.82 1.68 1.68 0 01-2.63 0 2.76 2.76 0 01-.48-1.7 3 3 0 01.49-1.83m-1.61 1.75a3.4 3.4 0 00.8 2.37 2.64 2.64 0 002.08.9 2.86 2.86 0 001.52-.41 2.63 2.63 0 001-1.15 3.71 3.71 0 00.36-1.66v-.07a3.47 3.47 0 00-.8-2.39 2.68 2.68 0 00-2.1-.9 2.71 2.71 0 00-2.51 1.56 3.76 3.76 0 00-.36 1.67zm-4.82-3.19H135l2.26 6.27-.24.65a1.63 1.63 0 01-.5.81 1.46 1.46 0 01-.86.22h-.3v.88l.41.07h.2c.86 0 1.49-.53 1.88-1.58l2.55-7.32h-1.16l-1.47 4.75zm-6.18 1.23a2.08 2.08 0 01.44 1.28v.08h-3.17a2.32 2.32 0 01.55-1.34 1.43 1.43 0 011.1-.47 1.38 1.38 0 011.08.45m1.45 4l-.67-.51a2.53 2.53 0 01-.69.62 1.87 1.87 0 01-1 .23 1.72 1.72 0 01-1.33-.57 2.29 2.29 0 01-.55-1.52h4.3v-.45a3.5 3.5 0 00-.69-2.33 2.38 2.38 0 00-1.92-.82 2.52 2.52 0 00-1.4.42 2.86 2.86 0 00-1 1.16 3.85 3.85 0 00-.36 1.69v.2a3.13 3.13 0 00.81 2.26 2.76 2.76 0 002.1.85 2.67 2.67 0 002.39-1.23m-6.33-4.46v-.77h-4.8v.9h3.44l-3.49 4.64v.8h5V686h-3.71zm-7.29-2a.58.58 0 00.47.18.6.6 0 00.65-.62.66.66 0 00-.17-.45.62.62 0 00-.48-.18.58.58 0 00-.47.18.66.66 0 00-.17.45.62.62 0 00.17.44m1 1.24h-1.09v6.34h1.09zm-7.8 0v6.34h1.08v-4.52a1.92 1.92 0 01.62-.73 1.58 1.58 0 01.93-.29 1.27 1.27 0 011 .33 1.48 1.48 0 01.31 1v4.19H116v-4.19c0-1.51-.68-2.27-2-2.27a2.31 2.31 0 00-1.9.92v-.8zm-5.47 1.46a1.45 1.45 0 011.24-.62 1.61 1.61 0 011.49.91v2.9a1.58 1.58 0 01-1.5.93 1.44 1.44 0 01-1.23-.61 2.8 2.8 0 01-.44-1.69 3.15 3.15 0 01.44-1.82m-.84 4.14a2.15 2.15 0 001.8.9 2.21 2.21 0 001.77-.75v.54a1.7 1.7 0 01-.44 1.26 1.68 1.68 0 01-1.23.44 2.12 2.12 0 01-1.71-.86l-.56.65a2.24 2.24 0 001 .8 3.22 3.22 0 001.34.3 2.69 2.69 0 002-.71 2.56 2.56 0 00.73-1.94v-6.19h-1v.71a2.18 2.18 0 00-1.81-.83 2.22 2.22 0 00-1.82.88 3.76 3.76 0 00-.68 2.36 3.91 3.91 0 00.69 2.44m-6-4.15a1.55 1.55 0 011.29-.63 1.58 1.58 0 011.32.64 2.71 2.71 0 01.49 1.69 3 3 0 01-.48 1.82 1.68 1.68 0 01-2.63 0 2.77 2.77 0 01-.49-1.7 3 3 0 01.5-1.83m-1.59 1.78a3.45 3.45 0 00.8 2.37 2.67 2.67 0 002.09.9 2.86 2.86 0 001.52-.41 2.63 2.63 0 001-1.15 3.71 3.71 0 00.36-1.66v-.07a3.47 3.47 0 00-.8-2.39 2.69 2.69 0 00-2.1-.9 2.78 2.78 0 00-1.49.41 2.66 2.66 0 00-1 1.15 3.76 3.76 0 00-.37 1.67zm-4.74 1.79a2.72 2.72 0 01-.45-1.69v-.2a2.75 2.75 0 01.46-1.72 1.5 1.5 0 011.28-.59 1.45 1.45 0 011 .39 1.48 1.48 0 01.47 1h1a2.29 2.29 0 00-.75-1.66 2.56 2.56 0 00-1.77-.64 2.86 2.86 0 00-1.51.4 2.66 2.66 0 00-1 1.12 3.77 3.77 0 00-.34 1.65v.18a3.42 3.42 0 00.76 2.36 2.61 2.61 0 002.06.87 2.78 2.78 0 001.23-.29 2.53 2.53 0 00.92-.79 2 2 0 00.37-1h-1a1.21 1.21 0 01-.48.88 1.54 1.54 0 01-1 .35 1.52 1.52 0 01-1.29-.59m-4-3.75a2.08 2.08 0 01.44 1.28v.08h-3.22a2.32 2.32 0 01.55-1.34 1.42 1.42 0 011.1-.47 1.38 1.38 0 011.08.45m1.44 4l-.66-.51a2.53 2.53 0 01-.69.62 1.87 1.87 0 01-1 .23 1.72 1.72 0 01-1.33-.57 2.29 2.29 0 01-.53-1.6h4.3v-.45a3.5 3.5 0 00-.69-2.33 2.39 2.39 0 00-1.92-.82 2.52 2.52 0 00-1.4.42 2.78 2.78 0 00-1 1.16 3.85 3.85 0 00-.36 1.69v.2a3.13 3.13 0 00.81 2.26 2.74 2.74 0 002.09.85 2.65 2.65 0 002.39-1.23m-5.9-5.26a1 1 0 00-.48-.09 1.69 1.69 0 00-1.51.85v-.73h-1.09v6.34h1.09v-4.5a1.42 1.42 0 011.44-.91 4.41 4.41 0 01.54 0zm-8.82 1.26a2.09 2.09 0 01.45 1.28v.08h-3.19a2.32 2.32 0 01.55-1.34 1.43 1.43 0 011.1-.47 1.38 1.38 0 011.08.45m1.45 4l-.67-.51a2.39 2.39 0 01-.69.62 1.86 1.86 0 01-1 .23 1.75 1.75 0 01-1.34-.57 2.29 2.29 0 01-.55-1.52h4.3v-.45a3.5 3.5 0 00-.69-2.33 2.37 2.37 0 00-1.92-.82 2.52 2.52 0 00-1.4.42 2.86 2.86 0 00-1 1.16 3.85 3.85 0 00-.36 1.69v.2a3.13 3.13 0 00.81 2.26 2.76 2.76 0 002.1.85 2.66 2.66 0 002.39-1.23m-9.93-5.23h-.88l-1.47 4.75-1.24-4.74h-1.07l1.84 6.34h.88l1.5-4.8 1.54 4.8h.88l1.84-6.34h-1.08l-1.22 4.85zm-12.27 0h-1.16l2.26 6.27-.24.65a1.57 1.57 0 01-.51.81 1.42 1.42 0 01-.86.22h-.29v.88l.41.07h.2c.86 0 1.49-.53 1.88-1.58l2.55-7.32H57.4l-1.48 4.75zm-5.69 5.23a1 1 0 01-.34-.8c0-.78.67-1.16 2-1.16h.85v1.3a1.49 1.49 0 01-.66.68 1.84 1.84 0 01-1 .27 1.33 1.33 0 01-.88-.29m3.81 1.11v-.09a3.58 3.58 0 01-.22-1.39v-2.92a2 2 0 00-.65-1.51 2.51 2.51 0 00-1.71-.55 3.1 3.1 0 00-1.27.26 2.35 2.35 0 00-.92.7 1.53 1.53 0 00-.33.92h1.09a.87.87 0 01.39-.71 1.62 1.62 0 011-.29 1.37 1.37 0 011 .33 1.22 1.22 0 01.34.91v.5h-1a3.52 3.52 0 00-2.12.55 1.77 1.77 0 00-.75 1.53 1.71 1.71 0 00.6 1.35 2.25 2.25 0 001.54.53 2.38 2.38 0 001.8-.79 2.39 2.39 0 00.15.67zm-15.31-8.52v8.53h1.13v-3.32l-.11-3.55 2.79 6.89h.86l2.8-6.91-.1 3.59v3.32h1.12v-8.53h-1.46l-2.78 7-2.79-7z"/></g><path class="cls-6" d="M36 185.98h234M36 478.7h234M36 523.49h234M36 666.4h234M36 567.23h234M36 229.33h234M36 337.04h234M36 379.88h234M135.38 435.75H270M36 145.7h234"/><g class="cls-3"><path d="M85.9 403.73a3.9 3.9 0 01-.41 2 1.45 1.45 0 01-2.4 0 4 4 0 01-.41-2v-1.74a3.79 3.79 0 01.4-1.92 1.3 1.3 0 011.21-.63 1.31 1.31 0 011.22.63 4 4 0 01.39 2zM87 402a4.71 4.71 0 00-.66-2.72 2.36 2.36 0 00-2-.88 2.32 2.32 0 00-2 .91 4.88 4.88 0 00-.65 2.8v1.44a4.73 4.73 0 00.68 2.71 2.34 2.34 0 002 .9 2.29 2.29 0 002-.92 4.91 4.91 0 00.65-2.83zm-7.82 1.7a4 4 0 01-.4 2 1.45 1.45 0 01-2.41 0 4 4 0 01-.4-2v-1.74a3.7 3.7 0 01.39-1.92 1.31 1.31 0 011.21-.63 1.34 1.34 0 011.23.63 4.08 4.08 0 01.38 2zm1.09-1.7a4.78 4.78 0 00-.67-2.72 2.76 2.76 0 00-4.07 0 4.88 4.88 0 00-.65 2.8v1.44a4.73 4.73 0 00.68 2.71 2.72 2.72 0 004.06 0 5 5 0 00.65-2.83zm-10.73 1l.29-.23a1.76 1.76 0 011.11-.31 1.57 1.57 0 011.24.52 2 2 0 01.47 1.37 2.11 2.11 0 01-.43 1.42 1.45 1.45 0 01-1.19.52 1.6 1.6 0 01-1.11-.37 1.71 1.71 0 01-.52-1.11h-1a2.52 2.52 0 00.82 1.74 2.66 2.66 0 001.84.62 2.61 2.61 0 002-.75 2.9 2.9 0 00.71-2.08 3 3 0 00-.68-2.08 2.35 2.35 0 00-1.85-.78 2.82 2.82 0 00-1.43.37l.26-2.32h3.45v-1h-4.43l-.43 4.25zm-2.91 4.81a2.74 2.74 0 00.29-1.19v-.85h-1.08v1a2.82 2.82 0 01-.58 1.58l.62.43a2.83 2.83 0 00.73-.95m-2-1.64h-4.24l2.29-2.48a4.87 4.87 0 001.6-3 2.14 2.14 0 00-.69-1.66 2.73 2.73 0 00-1.88-.62 2.79 2.79 0 00-2 .73 2.48 2.48 0 00-.76 1.9H60a1.75 1.75 0 01.45-1.28 1.67 1.67 0 011.26-.46 1.4 1.4 0 011.08.43 1.51 1.51 0 01.4 1.09 2 2 0 01-.25 1A6.66 6.66 0 0162 403l-3 3.28v.78h5.59zm-8.46-.3a1.83 1.83 0 01-1.2.37 1.64 1.64 0 01-1.22-.44 1.76 1.76 0 01-.42-1.26h-1.05a2.63 2.63 0 00.62 1.84 2.54 2.54 0 001.71.78v1.12h.87v-1.12a2.66 2.66 0 001.66-.72 2.15 2.15 0 00.6-1.59 2.34 2.34 0 00-.24-1.09 2.26 2.26 0 00-.74-.81 5.7 5.7 0 00-1.39-.64 3.65 3.65 0 01-1.29-.64 1.24 1.24 0 01-.39-1 1.35 1.35 0 01.37-1 1.47 1.47 0 011.07-.36 1.3 1.3 0 011.06.48 2.07 2.07 0 01.39 1.32h1.08a2.93 2.93 0 00-.55-1.89 2.24 2.24 0 00-1.53-.83v-1.29h-.87v1.29a2.34 2.34 0 00-1.54.73 2.25 2.25 0 00-.56 1.57 2.21 2.21 0 00.57 1.56 4 4 0 001.82 1 3.56 3.56 0 011.28.67 1.34 1.34 0 01-.07 1.92M68.94 710.52a1.81 1.81 0 01-1 .25 1.7 1.7 0 01-1.07-.32 1.14 1.14 0 01-.44-.87h-1.07a1.81 1.81 0 00.33 1 2.21 2.21 0 00.92.75 3.18 3.18 0 001.34.27 2.88 2.88 0 001.77-.51 1.63 1.63 0 00.68-1.36 1.46 1.46 0 00-.25-.87 1.9 1.9 0 00-.74-.6 5.8 5.8 0 00-1.32-.44 3.91 3.91 0 01-1.12-.38.65.65 0 01-.31-.59.8.8 0 01.33-.67 1.45 1.45 0 01.93-.26 1.38 1.38 0 011 .32 1 1 0 01.38.77h1.09a1.8 1.8 0 00-.67-1.43 2.66 2.66 0 00-1.75-.55 2.58 2.58 0 00-1.69.54 1.63 1.63 0 00-.66 1.31 1.34 1.34 0 00.24.81 1.85 1.85 0 00.71.59 5.77 5.77 0 001.31.42 3.23 3.23 0 011.15.42.8.8 0 01.33.68.77.77 0 01-.37.67m-6.1-4.1a2.08 2.08 0 01.44 1.28v.08h-3.22a2.32 2.32 0 01.55-1.34 1.47 1.47 0 011.1-.47 1.38 1.38 0 011.08.45m1.45 4l-.67-.52a2.37 2.37 0 01-.69.62 1.87 1.87 0 01-1 .24 1.73 1.73 0 01-1.33-.58 2.29 2.29 0 01-.55-1.52h4.3v-.45a3.5 3.5 0 00-.69-2.33 2.39 2.39 0 00-1.92-.81 2.52 2.52 0 00-1.4.42 2.73 2.73 0 00-1 1.16 3.77 3.77 0 00-.36 1.68v.2a3.13 3.13 0 00.81 2.26 2.75 2.75 0 002.09.85 2.69 2.69 0 002.4-1.22M53 703h-1.29l2.94 5.35v3.18h1.12v-3.18l2.94-5.35h-1.27l-2.23 4.29zM264.61 710.52a1.81 1.81 0 01-1 .25 1.73 1.73 0 01-1.08-.32 1.13 1.13 0 01-.43-.87H261a1.81 1.81 0 00.33 1 2.21 2.21 0 00.92.75 3.19 3.19 0 001.35.27 2.85 2.85 0 001.76-.51 1.61 1.61 0 00.68-1.36 1.53 1.53 0 00-.24-.87 1.86 1.86 0 00-.75-.6 5.54 5.54 0 00-1.31-.44 4 4 0 01-1.13-.38.67.67 0 01-.31-.59.81.81 0 01.34-.67 1.67 1.67 0 011.88.06 1 1 0 01.37.77H266a1.77 1.77 0 00-.67-1.43 2.64 2.64 0 00-1.75-.55 2.57 2.57 0 00-1.68.54 1.63 1.63 0 00-.66 1.31 1.41 1.41 0 00.23.81 1.89 1.89 0 00.72.59 5.67 5.67 0 001.3.42 3.3 3.3 0 011.16.42.83.83 0 010 1.35m-6 1h1v-6.34h-1.08v4.62a1.64 1.64 0 01-1.66.92q-1.17 0-1.17-1.44v-4.1h-1.08v4.13a2.53 2.53 0 00.53 1.74 2 2 0 001.55.59 2.35 2.35 0 001.86-.74zm-9.49-4.92a1.55 1.55 0 011.3-.64 1.57 1.57 0 011.31.64 2.75 2.75 0 01.5 1.7 2.93 2.93 0 01-.49 1.81 1.55 1.55 0 01-1.31.65 1.58 1.58 0 01-1.31-.64 2.7 2.7 0 01-.49-1.7 2.9 2.9 0 01.49-1.82m-1.58 1.77a3.42 3.42 0 00.8 2.37 2.66 2.66 0 002.09.9 2.82 2.82 0 001.51-.41 2.69 2.69 0 001-1.14 3.9 3.9 0 00.35-1.67v-.07a3.44 3.44 0 00-.8-2.39 2.68 2.68 0 00-2.09-.89 2.75 2.75 0 00-1.49.4 2.66 2.66 0 00-1 1.15 3.67 3.67 0 00-.37 1.68zm-10.24-3.19v6.34h1.09v-4.57a1.45 1.45 0 011.46-.9 1.21 1.21 0 011.35 1.38v4.15h1.09v-4.2a1.4 1.4 0 011.47-1.33 1.4 1.4 0 011 .33 1.47 1.47 0 01.31 1v4.18h1.08v-4.24c0-1.48-.73-2.21-2.12-2.21a2.34 2.34 0 00-2 1 1.81 1.81 0 00-1.81-1 2.32 2.32 0 00-1.88.82v-.71zm-5.18 0h-1.18l2.26 6.27-.24.65a1.63 1.63 0 01-.5.81 1.46 1.46 0 01-.86.23h-.3v.91l.41.08h.2c.86 0 1.49-.52 1.88-1.58l2.55-7.32h-1.16l-1.51 4.82zm-7.11 0v6.34h1.09V707a1.79 1.79 0 01.62-.74 1.52 1.52 0 01.92-.28 1.28 1.28 0 011 .32 1.43 1.43 0 01.31 1v4.19H230v-4.19c0-1.51-.69-2.26-2-2.26a2.32 2.32 0 00-1.9.91v-.8zm-5.55 1.42a1.55 1.55 0 011.3-.64 1.57 1.57 0 011.31.64 2.75 2.75 0 01.5 1.7 2.93 2.93 0 01-.49 1.81 1.55 1.55 0 01-1.31.65 1.58 1.58 0 01-1.31-.64 2.7 2.7 0 01-.49-1.7 2.9 2.9 0 01.49-1.82m-1.58 1.77a3.42 3.42 0 00.8 2.37 2.66 2.66 0 002.09.9 2.82 2.82 0 001.51-.41 2.69 2.69 0 001-1.14 3.9 3.9 0 00.35-1.67v-.07a3.44 3.44 0 00-.8-2.39 2.68 2.68 0 00-2.09-.89 2.75 2.75 0 00-1.49.4 2.66 2.66 0 00-1 1.15 3.67 3.67 0 00-.37 1.68zm-6.33-3.19v6.34h1.08V707a2 2 0 01.62-.74 1.57 1.57 0 01.93-.28 1.31 1.31 0 011 .32 1.53 1.53 0 01.31 1v4.19h1.08v-4.19c0-1.51-.68-2.26-2-2.26a2.29 2.29 0 00-1.9.91v-.8zm-5.29 5.23a1 1 0 01-.34-.8c0-.77.67-1.16 2-1.16h.85v1.3a1.49 1.49 0 01-.66.68 1.87 1.87 0 01-1 .27 1.32 1.32 0 01-.87-.29m3.81 1.11v-.09a3.55 3.55 0 01-.22-1.39v-2.92a2 2 0 00-.65-1.51 2.51 2.51 0 00-1.71-.54 3.1 3.1 0 00-1.27.25 2.45 2.45 0 00-.92.7 1.55 1.55 0 00-.33.92h1.09a.87.87 0 01.39-.71 1.6 1.6 0 011-.29 1.33 1.33 0 011 .34 1.18 1.18 0 01.34.9v.5h-1a3.52 3.52 0 00-2.12.55 1.79 1.79 0 00-.75 1.54 1.71 1.71 0 00.6 1.34 2.25 2.25 0 001.54.53 2.41 2.41 0 001.8-.78 2.3 2.3 0 00.15.66zm-10.8-5.11a2.08 2.08 0 01.44 1.28v.08h-3.18a2.39 2.39 0 01.56-1.34 1.45 1.45 0 011.1-.47 1.38 1.38 0 011.08.45m1.44 4l-.66-.52a2.29 2.29 0 01-.7.62 1.84 1.84 0 01-1 .24 1.73 1.73 0 01-1.33-.58 2.29 2.29 0 01-.55-1.52h4.29v-.45a3.5 3.5 0 00-.68-2.33 2.39 2.39 0 00-1.92-.81 2.56 2.56 0 00-1.41.42 2.71 2.71 0 00-1 1.16 3.77 3.77 0 00-.36 1.68v.2a3.17 3.17 0 00.8 2.26 2.76 2.76 0 002.1.85 2.67 2.67 0 002.39-1.22m-7.9-.3a1.42 1.42 0 01-1.21.6 1.63 1.63 0 01-1.56-1V707a1.6 1.6 0 011.54-1 1.41 1.41 0 011.23.6 2.88 2.88 0 01.43 1.71 3.11 3.11 0 01-.43 1.82m1.52-1.79a3.88 3.88 0 00-.66-2.39 2.16 2.16 0 00-1.82-.87 2.2 2.2 0 00-1.81.81v-3.36H189v9h1l.06-.73a2.18 2.18 0 001.85.85 2.15 2.15 0 001.8-.88 3.82 3.82 0 00.67-2.34zm-13.89-1.73a1.55 1.55 0 011.29-.64 1.58 1.58 0 011.32.64 2.74 2.74 0 01.49 1.7 3 3 0 01-.48 1.81 1.65 1.65 0 01-2.62 0 2.7 2.7 0 01-.49-1.7 2.9 2.9 0 01.49-1.82m-1.58 1.77a3.37 3.37 0 00.8 2.37 2.66 2.66 0 002.09.9 2.82 2.82 0 001.51-.41 2.61 2.61 0 001-1.14 3.76 3.76 0 00.36-1.67v-.07a3.49 3.49 0 00-.8-2.39 2.69 2.69 0 00-2.1-.89 2.68 2.68 0 00-2.51 1.55 3.8 3.8 0 00-.36 1.68zm-3.13-4.72v1.53h-1.16v.82h1.16v4a1.87 1.87 0 00.37 1.25 1.34 1.34 0 001.09.44 3.15 3.15 0 00.84-.12v-.87a2.48 2.48 0 01-.52.07.67.67 0 01-.54-.19.86.86 0 01-.16-.57V706h1.2v-.84h-1.19v-1.53zm-6.14 2.76a2.08 2.08 0 01.44 1.28v.08h-3.17a2.32 2.32 0 01.55-1.34 1.45 1.45 0 011.1-.47 1.38 1.38 0 011.08.45m1.44 4l-.66-.52a2.37 2.37 0 01-.69.62 1.87 1.87 0 01-1 .24 1.73 1.73 0 01-1.33-.58 2.29 2.29 0 01-.55-1.52h4.3v-.45a3.5 3.5 0 00-.69-2.33 2.39 2.39 0 00-1.92-.81 2.52 2.52 0 00-1.4.42 2.67 2.67 0 00-1 1.16 3.77 3.77 0 00-.36 1.68v.2a3.13 3.13 0 00.81 2.26 2.74 2.74 0 002.09.85 2.66 2.66 0 002.39-1.22m-7 1.1h1.27l-2.76-3.69 2.47-2.65h-1.32l-2 2.09-.58.7v-5.45H160v9h1.09v-2.22l.68-.71zM157.3 704a.65.65 0 001.13-.44.64.64 0 00-.17-.44.73.73 0 00-1 0 .68.68 0 00-.16.44.66.66 0 00.16.44m1 1.24h-1.08v6.34h1.08zm-2.91-2.66h-1.08v9h1.08zm-9.65 4.08a1.44 1.44 0 011.3-.66 1.61 1.61 0 011.5.89v2.92a1.59 1.59 0 01-1.51.92 1.44 1.44 0 01-1.23-.61 2.78 2.78 0 01-.44-1.69 3.08 3.08 0 01.44-1.82m-1.53 1.78a3.72 3.72 0 00.7 2.36 2.33 2.33 0 003.6.1l.06.68h1v-9h-1.08v3.31a2.37 2.37 0 00-3.58.12 3.75 3.75 0 00-.69 2.35zm-1-3.93a2.59 2.59 0 00.29-1.16v-.77h-1.07v.85a2.8 2.8 0 01-.56 1.6l.61.42a2.58 2.58 0 00.73-.94m-2.68-1.46h-1.13v8.53h1.13zm-6 9.28a2.7 2.7 0 00.29-1.18v-.85h-1.06v1a2.85 2.85 0 01-.58 1.58l.62.42a2.74 2.74 0 00.73-1m-6.24-5.67a1.53 1.53 0 011.29-.64 1.58 1.58 0 011.32.64 2.74 2.74 0 01.49 1.7 3 3 0 01-.48 1.81 1.66 1.66 0 01-2.63 0 2.77 2.77 0 01-.49-1.7 2.9 2.9 0 01.5-1.82m-1.59 1.77a3.42 3.42 0 00.8 2.37 2.67 2.67 0 002.09.9 2.86 2.86 0 001.52-.41 2.61 2.61 0 001-1.14 3.76 3.76 0 00.36-1.67v-.07a3.49 3.49 0 00-.8-2.39 2.72 2.72 0 00-2.1-.89 2.77 2.77 0 00-1.49.4 2.66 2.66 0 00-1 1.15 3.81 3.81 0 00-.37 1.68zm-1.55-5.34h-1.12v6.61l-4.3-6.61h-1.13v8.53h1.13V705l4.29 6.57h1.13z"/></g><path class="cls-7" d="M36.5 397.24h10.68v10.68H36.5zM36.5 426.41h10.68v10.68H36.5z"/><path d="M173.6 403.73a3.91 3.91 0 01-.4 2 1.45 1.45 0 01-2.41 0 4 4 0 01-.4-2v-1.74a3.7 3.7 0 01.39-1.92 1.31 1.31 0 011.21-.63 1.34 1.34 0 011.23.63 4.08 4.08 0 01.38 2zm1.09-1.7a4.78 4.78 0 00-.67-2.72 2.76 2.76 0 00-4.07 0 4.88 4.88 0 00-.65 2.8v1.44a4.73 4.73 0 00.68 2.71 2.72 2.72 0 004.06 0 5 5 0 00.65-2.83zm-7.83 1.7a3.91 3.91 0 01-.4 2 1.45 1.45 0 01-2.41 0 4 4 0 01-.4-2v-1.74A3.91 3.91 0 01164 400a1.31 1.31 0 011.21-.63 1.34 1.34 0 011.23.63 4 4 0 01.38 2zM168 402a4.7 4.7 0 00-.67-2.72 2.76 2.76 0 00-4.07 0 4.88 4.88 0 00-.65 2.8v1.44a4.81 4.81 0 00.68 2.71 2.72 2.72 0 004.06 0 5 5 0 00.65-2.83zm-7.82 1.7a4 4 0 01-.41 2 1.45 1.45 0 01-2.41 0 4 4 0 01-.4-2v-1.74a3.91 3.91 0 01.39-1.92 1.32 1.32 0 011.21-.63 1.34 1.34 0 011.23.63 4 4 0 01.39 2zm1.08-1.7a4.63 4.63 0 00-.67-2.72 2.34 2.34 0 00-2-.88 2.31 2.31 0 00-2 .91 4.8 4.8 0 00-.65 2.8v1.44a4.74 4.74 0 00.67 2.71 2.35 2.35 0 002 .9 2.29 2.29 0 002-.92 5 5 0 00.65-2.83zm-6.9 5.8a2.74 2.74 0 00.29-1.19v-.85h-1.06v1a2.88 2.88 0 01-.57 1.58l.61.43a2.83 2.83 0 00.73-.95m-6.23-4.82l.29-.23a1.76 1.76 0 011.11-.31 1.57 1.57 0 011.24.52 2 2 0 01.47 1.37 2.17 2.17 0 01-.43 1.42 1.46 1.46 0 01-1.19.52 1.6 1.6 0 01-1.11-.37 1.71 1.71 0 01-.52-1.11h-1a2.56 2.56 0 00.81 1.74 2.71 2.71 0 001.85.62 2.62 2.62 0 002-.75 3 3 0 00.71-2.08 3 3 0 00-.68-2.08 2.36 2.36 0 00-1.86-.78 2.81 2.81 0 00-1.42.37l.26-2.32h3.45v-1h-4.41l-.44 4.25zm-4.23 2.87a1.88 1.88 0 01-1.21.37 1.6 1.6 0 01-1.21-.44 1.72 1.72 0 01-.43-1.26H140a2.63 2.63 0 00.62 1.84 2.54 2.54 0 001.71.78v1.12h.87v-1.12a2.66 2.66 0 001.66-.72 2.15 2.15 0 00.6-1.59 2.34 2.34 0 00-.24-1.09 2.26 2.26 0 00-.74-.81 5.7 5.7 0 00-1.39-.64 3.59 3.59 0 01-1.28-.64 1.24 1.24 0 01-.39-1 1.31 1.31 0 01.37-1 1.45 1.45 0 011.06-.36 1.29 1.29 0 011.06.48 2.07 2.07 0 01.39 1.32h1.08a2.93 2.93 0 00-.55-1.89 2.24 2.24 0 00-1.53-.83v-1.29h-.87v1.29a2.34 2.34 0 00-1.54.73 2.25 2.25 0 00-.56 1.57 2.21 2.21 0 00.57 1.56 4 4 0 001.82 1 3.48 3.48 0 011.28.75 1.23 1.23 0 01.37.91 1.25 1.25 0 01-.43 1"/><path class="cls-7" d="M124.2 397.24h10.68v10.68H124.2z"/><path d="M268 403.73a3.9 3.9 0 01-.41 2 1.45 1.45 0 01-2.4 0 4 4 0 01-.4-2v-1.74a3.7 3.7 0 01.39-1.92 1.31 1.31 0 011.21-.63 1.34 1.34 0 011.23.63 4.08 4.08 0 01.38 2zm1.09-1.7a4.78 4.78 0 00-.67-2.72 2.36 2.36 0 00-2-.88 2.33 2.33 0 00-2 .91 4.88 4.88 0 00-.65 2.8v1.44a4.73 4.73 0 00.68 2.71 2.72 2.72 0 004.06 0 5 5 0 00.65-2.83zm-7.83 1.7a3.91 3.91 0 01-.4 2 1.45 1.45 0 01-2.41 0 4 4 0 01-.4-2v-1.74a3.8 3.8 0 01.39-1.92 1.31 1.31 0 011.21-.63 1.34 1.34 0 011.23.63 4.08 4.08 0 01.38 2zm1.09-1.7a4.7 4.7 0 00-.67-2.72 2.76 2.76 0 00-4.07 0 4.88 4.88 0 00-.65 2.8v1.44a4.73 4.73 0 00.68 2.71 2.72 2.72 0 004.06 0 5 5 0 00.65-2.83zm-7.82 1.7a4 4 0 01-.41 2 1.45 1.45 0 01-2.41 0 4 4 0 01-.4-2v-1.74a3.91 3.91 0 01.39-1.92 1.31 1.31 0 011.21-.63 1.34 1.34 0 011.23.63 4 4 0 01.39 2zm1.08-1.7a4.7 4.7 0 00-.67-2.72 2.76 2.76 0 00-4.07 0 4.88 4.88 0 00-.65 2.8v1.44a4.81 4.81 0 00.68 2.71 2.35 2.35 0 002 .9 2.29 2.29 0 002-.92 5 5 0 00.65-2.83zm-6.9 5.8a2.74 2.74 0 00.29-1.19v-.85h-1v1a2.88 2.88 0 01-.57 1.58l.61.43a2.83 2.83 0 00.73-.95m-3.28-4.1a3.9 3.9 0 01-.41 2 1.45 1.45 0 01-2.4 0 4 4 0 01-.41-2v-1.74a3.79 3.79 0 01.4-1.92 1.49 1.49 0 012.43 0 4 4 0 01.39 2zm1.09-1.7a4.78 4.78 0 00-.67-2.72 2.36 2.36 0 00-2-.88 2.32 2.32 0 00-2 .91 4.88 4.88 0 00-.65 2.8v1.44a4.73 4.73 0 00.68 2.71 2.72 2.72 0 004.06 0 5 5 0 00.65-2.83zM238 398.5h-.17l-3.11 1.17v1l2.19-.81v7.23H238zm-6.43 7.39a1.88 1.88 0 01-1.21.37 1.62 1.62 0 01-1.21-.44 1.72 1.72 0 01-.43-1.26h-1.09a2.63 2.63 0 00.62 1.84 2.57 2.57 0 001.71.78v1.12h.87v-1.12a2.71 2.71 0 001.67-.72 2.18 2.18 0 00.59-1.59 2.34 2.34 0 00-.24-1.09 2.26 2.26 0 00-.74-.81 5.52 5.52 0 00-1.39-.64 3.59 3.59 0 01-1.28-.64 1.24 1.24 0 01-.39-1 1.31 1.31 0 01.37-1 1.45 1.45 0 011.06-.36 1.29 1.29 0 011.06.48 2.08 2.08 0 01.4 1.32H233a3 3 0 00-.54-1.89 2.29 2.29 0 00-1.54-.83v-1.29h-.87v1.29a2.36 2.36 0 00-1.54.73 2.25 2.25 0 00-.56 1.57 2.21 2.21 0 00.57 1.56 4.09 4.09 0 001.82 1 3.48 3.48 0 011.28.67 1.24 1.24 0 01.38.91 1.26 1.26 0 01-.44 1"/><path class="cls-7" d="M211.9 397.24h10.68v10.68H211.9zM36.5 701.69h10.68v10.68H36.5zM102.51 701.69h10.68v10.68h-10.68z"/><path d="M74.05 311.55H73v9h1.09V316a1.87 1.87 0 01.62-.74 1.52 1.52 0 01.92-.28 1.24 1.24 0 011 .33 1.45 1.45 0 01.32 1v4.2H78v-4.19c0-1.52-.69-2.27-2-2.27a2.29 2.29 0 00-1.87.88zm-4 8a2 2 0 01-2.07-.07 1.12 1.12 0 01-.43-.87h-1.04a1.81 1.81 0 00.33 1.05 2.21 2.21 0 00.92.75 3.19 3.19 0 001.35.27 2.85 2.85 0 001.76-.51 1.63 1.63 0 00.68-1.36 1.53 1.53 0 00-.24-.87 2 2 0 00-.75-.6 5.54 5.54 0 00-1.31-.44 3.6 3.6 0 01-1.13-.38.67.67 0 01-.31-.59.79.79 0 01.34-.67 1.48 1.48 0 01.92-.26 1.42 1.42 0 011 .32 1 1 0 01.38.77h1.09a1.75 1.75 0 00-.67-1.42 2.61 2.61 0 00-1.75-.56 2.57 2.57 0 00-1.68.54 1.65 1.65 0 00-.66 1.32 1.4 1.4 0 00.23.8 1.74 1.74 0 00.72.59 5.22 5.22 0 001.3.42 3.3 3.3 0 011.16.42.83.83 0 010 1.35m-8.61-.1a1 1 0 01-.34-.79c0-.78.66-1.17 2-1.17H64v1.3a1.56 1.56 0 01-.66.69 2 2 0 01-1 .26 1.32 1.32 0 01-.87-.29m3.81 1.12v-.1a3.51 3.51 0 01-.22-1.39v-2.91a2 2 0 00-.65-1.51 2.46 2.46 0 00-1.71-.55 2.92 2.92 0 00-1.27.26 2.26 2.26 0 00-.92.7 1.5 1.5 0 00-.33.91h1.09a.88.88 0 01.39-.71 1.6 1.6 0 011-.29 1.33 1.33 0 011 .34 1.18 1.18 0 01.34.9v.5h-1.06a3.52 3.52 0 00-2.12.55 1.79 1.79 0 00-.75 1.54 1.71 1.71 0 00.6 1.34 2.2 2.2 0 001.54.53 2.42 2.42 0 001.8-.78 2.49 2.49 0 00.15.67zm-7.55-2.71a2.41 2.41 0 01-.66 1.48 2.21 2.21 0 01-1.44.42 1.85 1.85 0 01-1.62-.82 3.74 3.74 0 01-.58-2.21v-.83a3.67 3.67 0 01.61-2.27 2 2 0 011.69-.79 1.93 1.93 0 011.37.46 2.46 2.46 0 01.63 1.48h1.13a3.13 3.13 0 00-1-2.1 3.08 3.08 0 00-2.18-.76 3.37 3.37 0 00-1.81.48 3.1 3.1 0 00-1.2 1.39 4.9 4.9 0 00-.42 2.09v.82a4.34 4.34 0 00.91 2.9 3 3 0 002.42 1.08 3.26 3.26 0 002.23-.73 3.13 3.13 0 001-2.09z"/><path class="cls-7" d="M36.5 310.7h10.68v10.68H36.5z"/><path d="M122.53 354.21v1.54h-1.15v.84h1.15v3.93a1.94 1.94 0 00.37 1.25 1.37 1.37 0 001.1.44 3 3 0 00.83-.12v-.87a3.32 3.32 0 01-.51.07.68.68 0 01-.54-.19.87.87 0 01-.16-.58v-3.93h1.18v-.84h-1.18v-1.54zm-2.93 7.88v-5.5h1.4v-.84h-1.4v-.67a1.23 1.23 0 01.29-.89 1.06 1.06 0 01.81-.3 2.82 2.82 0 01.59.05v-.88a3.06 3.06 0 00-.74-.09 2.06 2.06 0 00-1.54.55 2.18 2.18 0 00-.55 1.58v.65h-1v.84h1v5.5zm-4.36-7.58a.61.61 0 00.47.17.65.65 0 00.48-.17.64.64 0 00.17-.44.64.64 0 00-.17-.45.62.62 0 00-.48-.18.58.58 0 00-.47.18.64.64 0 00-.17.45.64.64 0 00.17.44m1 1.24h-1.09v6.34h1.09zm-2.89 2.09h-3.09v.92h2v1.91a1.72 1.72 0 01-.78.48 4.1 4.1 0 01-1.11.14 2.13 2.13 0 01-1.77-.85 3.64 3.64 0 01-.66-2.29v-.69a3.86 3.86 0 01.59-2.31 2 2 0 011.71-.79 1.86 1.86 0 012 1.7h1.12a3 3 0 00-1-1.94 3.28 3.28 0 00-2.15-.68 3.12 3.12 0 00-2.53 1.06 4.49 4.49 0 00-.9 3v.74a5 5 0 00.45 2.1 3.38 3.38 0 001.25 1.39 3.58 3.58 0 001.86.49 5 5 0 001.8-.31 2.65 2.65 0 001.21-.93zm-12.21-.84a2 2 0 01.45 1.28v.08h-3.18A2.29 2.29 0 0199 357a1.46 1.46 0 011.1-.48 1.33 1.33 0 011.08.46m1.45 4l-.66-.51a2.74 2.74 0 01-.7.62 2 2 0 01-1 .23 1.72 1.72 0 01-1.34-.58 2.21 2.21 0 01-.54-1.51h4.29v-.45a3.5 3.5 0 00-.69-2.33 2.34 2.34 0 00-1.92-.82 2.52 2.52 0 00-1.4.42 2.86 2.86 0 00-1 1.16 3.85 3.85 0 00-.36 1.69v.19a3.15 3.15 0 00.81 2.27 2.79 2.79 0 002.1.85 2.66 2.66 0 002.39-1.23M87 355.75v6.34h1.09v-4.63a1.45 1.45 0 011.46-.91 1.21 1.21 0 011.35 1.38v4.16H92v-4.21a1.49 1.49 0 01.46-1 1.44 1.44 0 011-.36 1.37 1.37 0 011.05.34 1.48 1.48 0 01.31 1v4.18h1.08v-4.25c0-1.47-.73-2.21-2.12-2.21a2.53 2.53 0 00-1.2.28 2.44 2.44 0 00-.82.74 1.81 1.81 0 00-1.81-1 2.35 2.35 0 00-1.88.82v-.7zm-2.74-1.24a.76.76 0 001 0 .64.64 0 00.17-.44.64.64 0 00-.17-.45.73.73 0 00-1 0 .69.69 0 00-.16.45.68.68 0 00.16.44m1 1.24h-1.03v6.34h1.09zM83 353.56h-6.6v.92h2.74v7.61h1.16v-7.61H83zM75.92 358h-2.86v.89h2.86zm-5-1a2 2 0 01.45 1.28v.08h-3.22a2.36 2.36 0 01.55-1.36 1.46 1.46 0 011.11-.48 1.32 1.32 0 011.07.46m1.45 4l-.66-.51a2.58 2.58 0 01-.7.62 1.93 1.93 0 01-1 .23 1.7 1.7 0 01-1.33-.58 2.21 2.21 0 01-.55-1.51h4.29v-.45a3.56 3.56 0 00-.68-2.33 2.36 2.36 0 00-1.92-.82 2.53 2.53 0 00-1.41.42 2.86 2.86 0 00-1 1.16 3.85 3.85 0 00-.37 1.69v.19a3.15 3.15 0 00.81 2.27 2.79 2.79 0 002.1.85 2.66 2.66 0 002.42-1.21m-11.64-5.23v6.34h1.08v-4.52a2 2 0 01.62-.74 1.65 1.65 0 01.93-.28 1.27 1.27 0 011 .33 1.47 1.47 0 01.31 1v4.2h1.08v-4.2c0-1.51-.68-2.27-2-2.27a2.31 2.31 0 00-1.9.92v-.8zm-2.64 2.43a3.87 3.87 0 01-.61 2.28 2.17 2.17 0 01-3.39 0 3.77 3.77 0 01-.62-2.31v-.63a3.71 3.71 0 01.63-2.25 2.17 2.17 0 013.38 0 3.8 3.8 0 01.61 2.33zm1.12-.62a5.35 5.35 0 00-.42-2.19 3.11 3.11 0 00-1.21-1.43 3.27 3.27 0 00-4.8 1.45 5.09 5.09 0 00-.43 2.17v.61a5.06 5.06 0 00.44 2.13 3.2 3.2 0 003 1.91 3.24 3.24 0 001.8-.5 3.12 3.12 0 001.2-1.42 5.35 5.35 0 00.42-2.19z"/><path class="cls-7" d="M36.5 352.25h10.68v10.68H36.5z"/><path d="M159.7 320.55h1.3l-2.75-3.7 2.46-2.64h-1.32l-2 2.08-.58.7v-5.44h-1.08v9h1.08v-2.23l.68-.71zm-9-1.36a2.76 2.76 0 01-.45-1.69v-.21a2.75 2.75 0 01.46-1.72A1.52 1.52 0 01152 315a1.45 1.45 0 011 .39 1.57 1.57 0 01.47 1h1a2.27 2.27 0 00-.75-1.66 2.52 2.52 0 00-1.77-.64 2.77 2.77 0 00-1.51.4 2.53 2.53 0 00-1 1.12 3.76 3.76 0 00-.34 1.64v.18a3.46 3.46 0 00.76 2.37 2.63 2.63 0 002.06.86 2.58 2.58 0 001.22-.29 2.49 2.49 0 00.93-.79 1.93 1.93 0 00.37-1h-1a1.32 1.32 0 01-.48.88 1.6 1.6 0 01-1 .35 1.53 1.53 0 01-1.29-.59m-4-3.76a2.11 2.11 0 01.44 1.28v.09h-3.18a2.36 2.36 0 01.56-1.34 1.43 1.43 0 011.1-.48 1.38 1.38 0 011.08.45m1.44 4l-.66-.52a2.29 2.29 0 01-.7.62 1.84 1.84 0 01-1 .24 1.7 1.7 0 01-1.33-.58 2.26 2.26 0 01-.55-1.51h4.29v-.46a3.52 3.52 0 00-.68-2.33 2.39 2.39 0 00-1.92-.81 2.56 2.56 0 00-1.41.42 2.77 2.77 0 00-1 1.16 3.77 3.77 0 00-.36 1.68v.2a3.19 3.19 0 00.8 2.27 2.79 2.79 0 002.1.84 2.67 2.67 0 002.39-1.22m-10.54-7.89h-1.09v9h1.09V316a1.79 1.79 0 01.62-.74 1.52 1.52 0 01.92-.28 1.24 1.24 0 011 .33 1.4 1.4 0 01.31 1v4.2h1.09v-4.19c0-1.52-.69-2.27-2-2.27a2.29 2.29 0 00-1.87.88zm-3.54 6.27a2.41 2.41 0 01-.67 1.48 2.17 2.17 0 01-1.44.42 1.87 1.87 0 01-1.62-.82 3.74 3.74 0 01-.58-2.21v-.83a3.67 3.67 0 01.61-2.27 2 2 0 011.69-.79 1.91 1.91 0 011.37.46 2.4 2.4 0 01.64 1.48h1.13a3.14 3.14 0 00-1-2.1 3.06 3.06 0 00-2.18-.76 3.36 3.36 0 00-1.8.48 3.18 3.18 0 00-1.21 1.39 4.9 4.9 0 00-.42 2.09v.82a4.34 4.34 0 00.91 2.9 3 3 0 002.42 1.08 3.28 3.28 0 002.24-.73 3.17 3.17 0 001-2.09z"/><path class="cls-7" d="M112.72 310.7h10.68v10.68h-10.68z"/><path d="M265.63 355.75h-1.18l2.26 6.27-.24.64a1.62 1.62 0 01-.5.82 1.46 1.46 0 01-.86.22h-.3v.88l.41.07h.2c.86 0 1.49-.53 1.88-1.58l2.55-7.32h-1.16l-1.47 4.75zm-2.22-2.66h-1.09v9h1.09zm-6.7 0h-1.09v9h1.09v-4.52a1.86 1.86 0 01.62-.74 1.59 1.59 0 01.92-.28 1.25 1.25 0 011 .33 1.42 1.42 0 01.31 1v4.2h1.09v-4.18c0-1.51-.69-2.27-2-2.27a2.3 2.3 0 00-1.87.89zm-4.62 1.12v1.54h-1.16v.84h1.16v3.93a1.88 1.88 0 00.37 1.25 1.34 1.34 0 001.09.44 3 3 0 00.83-.12v-.87a3.17 3.17 0 01-.51.07.7.7 0 01-.54-.19.87.87 0 01-.16-.58v-3.93h1.19v-.84h-1.19v-1.54zm-7 1.54v6.34h1.08v-4.52a2 2 0 01.63-.74 1.59 1.59 0 01.92-.28 1.27 1.27 0 011 .33 1.47 1.47 0 01.31 1v4.2h1.09v-4.18c0-1.51-.69-2.27-2-2.27a2.31 2.31 0 00-1.9.92v-.8zm-5.55 1.41a1.64 1.64 0 012.61 0 2.7 2.7 0 01.5 1.69 3 3 0 01-.49 1.81 1.53 1.53 0 01-1.31.65 1.55 1.55 0 01-1.31-.64A2.67 2.67 0 01239 359a3 3 0 01.49-1.83m-1.49 1.77a3.45 3.45 0 00.8 2.37 2.66 2.66 0 002.09.9 2.82 2.82 0 001.51-.41 2.78 2.78 0 001-1.15 3.85 3.85 0 00.35-1.66v-.08a3.46 3.46 0 00-.8-2.38 2.66 2.66 0 00-2.09-.9 2.81 2.81 0 00-1.5.41 2.74 2.74 0 00-1 1.14 3.7 3.7 0 00-.37 1.68zm-10-5.38v8.53h1.12v-3.32l-.11-3.57 2.8 6.89h.86l2.8-6.91-.11 3.59v3.32h1.13v-8.53H235l-2.79 7-2.79-7zm-8.32 3.61a1.45 1.45 0 011.24-.62 1.6 1.6 0 011.49.91v2.89a1.58 1.58 0 01-1.51.94 1.45 1.45 0 01-1.23-.62 2.84 2.84 0 01-.44-1.68 3.05 3.05 0 01.45-1.82m-.85 4.14a2.16 2.16 0 001.8.9 2.23 2.23 0 001.78-.75v.54a1.7 1.7 0 01-.44 1.25 1.67 1.67 0 01-1.24.45 2.12 2.12 0 01-1.7-.86l-.56.65a2.24 2.24 0 001 .8 3.17 3.17 0 001.34.29 2.7 2.7 0 002-.7 2.58 2.58 0 00.73-1.94v-6.19h-1l-.05.7a2.36 2.36 0 00-3.63.06 3.7 3.7 0 00-.69 2.36 3.91 3.91 0 00.69 2.44m-7-5.56v6.34h1.09v-4.52a1.86 1.86 0 01.62-.74 1.59 1.59 0 01.92-.28 1.24 1.24 0 011 .33 1.42 1.42 0 01.31 1v4.2h1.09v-4.18c0-1.51-.69-2.27-2-2.27a2.33 2.33 0 00-1.9.92v-.8zm-2.86-1.24a.61.61 0 00.47.17.65.65 0 00.48-.17.64.64 0 00.17-.44.64.64 0 00-.17-.45.62.62 0 00-.48-.18.58.58 0 00-.47.18.64.64 0 00-.16.45.63.63 0 00.16.44m1 1.24h-1.09v6.34H210zm-2.18 0a1.19 1.19 0 00-.48-.08 1.69 1.69 0 00-1.51.85v-.73h-1v6.34h1.08v-4.5a1.43 1.43 0 011.45-.91 2.93 2.93 0 01.53 0zm-5.74 6.38h1v-6.34H202v4.61a1.63 1.63 0 01-1.65.93c-.79 0-1.18-.48-1.18-1.45v-4.09h-1.07v4.12a2.53 2.53 0 00.54 1.75 2 2 0 001.54.59 2.29 2.29 0 001.86-.75zm-9-1.36a2.76 2.76 0 01-.46-1.69v-.2a2.8 2.8 0 01.46-1.72 1.51 1.51 0 011.28-.6 1.42 1.42 0 011 .4 1.48 1.48 0 01.47 1h1a2.29 2.29 0 00-.75-1.66 2.52 2.52 0 00-1.77-.64 2.71 2.71 0 00-1.5.4 2.61 2.61 0 00-1 1.12 3.77 3.77 0 00-.34 1.65v.17a3.42 3.42 0 00.77 2.36 2.6 2.6 0 002.06.87 2.65 2.65 0 001.22-.3 2.42 2.42 0 00.92-.78 1.91 1.91 0 00.37-1h-1a1.24 1.24 0 01-.48.88 1.59 1.59 0 01-1 .35 1.53 1.53 0 01-1.29-.59m-6.29 0a2.76 2.76 0 01-.45-1.69v-.2a2.8 2.8 0 01.46-1.72 1.51 1.51 0 011.28-.6 1.42 1.42 0 011 .4 1.48 1.48 0 01.47 1h1a2.29 2.29 0 00-.75-1.66 2.52 2.52 0 00-1.77-.64 2.71 2.71 0 00-1.5.4 2.61 2.61 0 00-1 1.12 3.77 3.77 0 00-.34 1.65v.15a3.42 3.42 0 00.76 2.36 2.61 2.61 0 002.06.87 2.66 2.66 0 001.23-.3 2.42 2.42 0 00.92-.78 2 2 0 00.37-1h-1a1.24 1.24 0 01-.48.88 1.6 1.6 0 01-1 .35 1.56 1.56 0 01-1.29-.59m-6.8-3.57a1.64 1.64 0 012.61 0 2.7 2.7 0 01.5 1.69 2.91 2.91 0 01-.49 1.81 1.53 1.53 0 01-1.31.65 1.56 1.56 0 01-1.31-.64 2.67 2.67 0 01-.49-1.69 3 3 0 01.49-1.83m-1.58 1.78a3.45 3.45 0 00.8 2.37 2.66 2.66 0 002.09.9 2.82 2.82 0 001.51-.41 2.78 2.78 0 001-1.15 3.85 3.85 0 00.35-1.66v-.08a3.46 3.46 0 00-.8-2.38 2.66 2.66 0 00-2.09-.9 2.75 2.75 0 00-1.49.41 2.69 2.69 0 00-1 1.14 3.7 3.7 0 00-.37 1.68zm-2.5-2a2 2 0 01.45 1.28v.08h-3.09a2.36 2.36 0 01.55-1.34 1.46 1.46 0 011.11-.48 1.32 1.32 0 011.07.46m1.45 4l-.66-.51a2.58 2.58 0 01-.7.62 1.93 1.93 0 01-1 .23 1.7 1.7 0 01-1.33-.58 2.21 2.21 0 01-.55-1.51h4.29v-.45a3.56 3.56 0 00-.68-2.33 2.36 2.36 0 00-1.92-.82 2.53 2.53 0 00-1.41.42 2.86 2.86 0 00-1 1.16 3.82 3.82 0 00-.36 1.69v.19a3.15 3.15 0 00.81 2.27 2.79 2.79 0 002.1.85 2.66 2.66 0 002.39-1.23m-11.11-6.5H168a1.93 1.93 0 011.36.43 1.51 1.51 0 01.47 1.21 1.45 1.45 0 01-.49 1.16 2 2 0 01-1.34.44h-1.72zm3.85 7.61h1.21v-.1l-2-3.62a2.5 2.5 0 001.2-.89 2.27 2.27 0 00.43-1.39 2.39 2.39 0 00-.77-1.91 3.4 3.4 0 00-2.22-.65h-2.82v8.53h1.13v-3.45h2z"/><path class="cls-7" d="M149.03 352.25h10.68v10.68h-10.68z"/><path d="M265.12 315.62a1.44 1.44 0 011.24-.61 1.62 1.62 0 011.5.89v2.92a1.59 1.59 0 01-1.51.92 1.44 1.44 0 01-1.23-.61 2.77 2.77 0 01-.45-1.68 3.09 3.09 0 01.45-1.83m-1.53 1.78a3.78 3.78 0 00.69 2.36 2.35 2.35 0 003.61.11l.05.68h1v-9h-1.08v3.3a2.22 2.22 0 00-1.77-.76 2.17 2.17 0 00-1.81.89 3.7 3.7 0 00-.69 2.34zm-.62-3.23a1.19 1.19 0 00-.48-.08 1.68 1.68 0 00-1.51.85v-.73h-1.08v6.34h1.1v-4.5a1.42 1.42 0 011.45-.91 3 3 0 01.53 0zm-8.35 5.26a1 1 0 01-.34-.79c0-.78.66-1.17 2-1.17h.85v1.3a1.68 1.68 0 01-.66.69 2 2 0 01-1 .26 1.32 1.32 0 01-.87-.29m3.81 1.12v-.1a3.51 3.51 0 01-.22-1.39v-2.91a2 2 0 00-.65-1.51 2.49 2.49 0 00-1.72-.55 2.9 2.9 0 00-1.26.26 2.26 2.26 0 00-.92.7 1.51 1.51 0 00-.34.91h1.09a.89.89 0 01.4-.71 1.6 1.6 0 011-.29 1.35 1.35 0 011 .34 1.18 1.18 0 01.34.9v.5h-1.05a3.52 3.52 0 00-2.12.55 1.79 1.79 0 00-.75 1.54 1.71 1.71 0 00.6 1.34 2.19 2.19 0 001.53.53 2.45 2.45 0 001.81-.78 2.49 2.49 0 00.15.67zm-7.55-2.71a2.41 2.41 0 01-.66 1.48 2.21 2.21 0 01-1.44.42 1.88 1.88 0 01-1.63-.82 3.81 3.81 0 01-.58-2.21v-.83a3.67 3.67 0 01.62-2.27 2 2 0 011.69-.79 1.93 1.93 0 011.37.46 2.46 2.46 0 01.63 1.48H252a3.18 3.18 0 00-.95-2.1 3.08 3.08 0 00-2.18-.76 3.37 3.37 0 00-1.81.48 3.1 3.1 0 00-1.2 1.39 4.9 4.9 0 00-.43 2.09v.82a4.4 4.4 0 00.91 2.9 3 3 0 002.43 1.08 3.26 3.26 0 002.23-.73 3.13 3.13 0 001-2.09zm-11.82-5.17v1.54h-1.15v.79h1.15v4a1.91 1.91 0 00.37 1.24 1.34 1.34 0 001.1.44 3.51 3.51 0 00.83-.11v-.88a2.41 2.41 0 01-.52.07.67.67 0 01-.54-.19.9.9 0 01-.15-.57v-4h1.18v-.83h-1.18v-1.54zm-3.13.29a.73.73 0 001 0 .6.6 0 00.16-.44.63.63 0 00-.16-.44.73.73 0 00-1 0 .63.63 0 00-.16.44.6.6 0 00.16.44m1 1.25h-1.08v6.34h1.08zm-6.68 1.41a1.44 1.44 0 011.24-.61 1.61 1.61 0 011.5.89v2.92a1.59 1.59 0 01-1.51.92 1.44 1.44 0 01-1.23-.61 2.77 2.77 0 01-.44-1.68 3.09 3.09 0 01.44-1.83m-1.53 1.78a3.72 3.72 0 00.7 2.36 2.16 2.16 0 001.79.9 2.19 2.19 0 001.81-.79l.06.68h1v-9H233v3.3a2.2 2.2 0 00-1.77-.76 2.17 2.17 0 00-1.81.89 3.7 3.7 0 00-.69 2.34zm-2.52-2a2.05 2.05 0 01.45 1.28v.09h-3.18a2.36 2.36 0 01.55-1.34 1.46 1.46 0 011.1-.48 1.35 1.35 0 011.08.45m1.45 4l-.66-.52a2.29 2.29 0 01-.7.62 1.84 1.84 0 01-1 .24 1.69 1.69 0 01-1.33-.58 2.21 2.21 0 01-.55-1.51h4.29v-.46a3.58 3.58 0 00-.68-2.33 2.39 2.39 0 00-1.93-.81 2.52 2.52 0 00-1.4.42 2.79 2.79 0 00-1 1.16 3.77 3.77 0 00-.36 1.68v.2a3.15 3.15 0 00.81 2.27 2.79 2.79 0 002.1.84 2.67 2.67 0 002.39-1.22m-5.91-5.27a1.19 1.19 0 00-.48-.08 1.69 1.69 0 00-1.51.85v-.73h-1.05v6.34h1.08v-4.5a1.43 1.43 0 011.45-.91 2.93 2.93 0 01.53 0zm-5.56 3.67a2.41 2.41 0 01-.66 1.48 2.21 2.21 0 01-1.44.42 1.85 1.85 0 01-1.62-.82 3.74 3.74 0 01-.58-2.21v-.83a3.67 3.67 0 01.61-2.27 2 2 0 011.69-.79 1.91 1.91 0 011.37.46 2.4 2.4 0 01.63 1.48h1.13a3.13 3.13 0 00-.95-2.1 3.06 3.06 0 00-2.18-.76 3.4 3.4 0 00-1.81.48 3.16 3.16 0 00-1.2 1.39 4.9 4.9 0 00-.42 2.09v.82a4.34 4.34 0 00.91 2.9 3 3 0 002.42 1.08 3.3 3.3 0 002.24-.73 3.12 3.12 0 001-2.09z"/><path class="cls-7" d="M194.94 310.7h10.68v10.68h-10.68z"/><g class="cls-3"><path d="M146.07 647.32a2.59 2.59 0 010 2.83 1.37 1.37 0 01-1.15.54 1.43 1.43 0 01-1.18-.65 2.76 2.76 0 01-.48-1.7V648a1.78 1.78 0 01.65-.84 1.72 1.72 0 011-.34 1.36 1.36 0 011.13.55m.1-4.39a3.69 3.69 0 00-3 1.27 5.61 5.61 0 00-1 3.6v.42a3.69 3.69 0 00.77 2.42 2.41 2.41 0 002 .94 2.47 2.47 0 001.93-.79 3 3 0 00.72-2.11 3 3 0 00-.67-2 2.2 2.2 0 00-1.78-.79 2.33 2.33 0 00-1.84.77 3.13 3.13 0 01.87-2 2.84 2.84 0 012-.75h.2v-.92zm-5.14 7.6h-4.28l2.28-2.48a4.89 4.89 0 001.61-3 2.14 2.14 0 00-.69-1.66 2.73 2.73 0 00-1.88-.62 2.81 2.81 0 00-2 .72 2.52 2.52 0 00-.76 1.91h1.08a1.75 1.75 0 01.45-1.28 1.67 1.67 0 011.26-.46 1.37 1.37 0 011.07.43 1.52 1.52 0 01.41 1.09 2 2 0 01-.25 1 7.36 7.36 0 01-.91 1.21l-2.95 3.28v.78H141zm-6.74 0h-4.28l2.29-2.48a4.87 4.87 0 001.6-3 2.14 2.14 0 00-.69-1.66 2.73 2.73 0 00-1.88-.62 2.81 2.81 0 00-2 .72 2.52 2.52 0 00-.76 1.91h1.08a1.75 1.75 0 01.45-1.28 1.67 1.67 0 011.26-.46 1.4 1.4 0 011.08.43 1.51 1.51 0 01.4 1.09 2 2 0 01-.25 1 7.18 7.18 0 01-.9 1.21l-3 3.28v.78h5.59zm-11-3.17l.29-.23a1.76 1.76 0 011.11-.31 1.57 1.57 0 011.24.52 2 2 0 01.47 1.37 2.17 2.17 0 01-.43 1.42 1.46 1.46 0 01-1.19.52 1.65 1.65 0 01-1.11-.37 1.72 1.72 0 01-.53-1.11h-1a2.51 2.51 0 00.81 1.74 2.74 2.74 0 001.85.62 2.59 2.59 0 002-.76 2.9 2.9 0 00.71-2.07 3 3 0 00-.69-2.09 2.35 2.35 0 00-1.85-.77 2.81 2.81 0 00-1.42.37l.26-2.32h3.45v-1h-4.37l-.44 4.25zm-4.75-2.76l.13-.23v4.18H116zm1.22-1.71h-1.15l-3.82 5.91v.64h3.88v2h1.09v-2h1.19v-.89h-1.19zm-9.26 0h-1.13v3.66H105v-3.66h-1.13v8.53H105v-4h4.3v4h1.13zm-9.36 4.62a3.81 3.81 0 01-.62 2.27 2.16 2.16 0 01-3.39 0 3.84 3.84 0 01-.62-2.31v-.63a3.71 3.71 0 01.63-2.25 2 2 0 011.68-.82 2 2 0 011.71.82 3.85 3.85 0 01.61 2.33zm1.12-.62a5.35 5.35 0 00-.43-2.19 3.18 3.18 0 00-1.2-1.44 3.52 3.52 0 00-3.6 0 3.26 3.26 0 00-1.21 1.44 5.33 5.33 0 00-.43 2.18v.61a5.06 5.06 0 00.45 2.13 3.17 3.17 0 003 1.9 3.29 3.29 0 001.81-.49 3.19 3.19 0 001.19-1.43 5.26 5.26 0 00.43-2.18zm-11.37 5.28a2.74 2.74 0 00.29-1.19v-.85h-1.06v1a2.91 2.91 0 01-.57 1.58l.61.43a2.83 2.83 0 00.73-.95m-3.44-8.34a.73.73 0 001 0 .59.59 0 00.16-.43.64.64 0 00-.16-.45.73.73 0 00-1 0 .64.64 0 00-.16.45.59.59 0 00.16.43m1 1.25h-1.07v6.34h1.08zm-4.71-1.54v1.54h-1.14v.85h1.15v3.94a1.84 1.84 0 00.37 1.24 1.34 1.34 0 001.1.44 3.51 3.51 0 00.83-.11v-.88a2.41 2.41 0 01-.52.07.67.67 0 01-.54-.19.88.88 0 01-.15-.57V646H86v-.83h-1.19v-1.54zm-5.67 6.76a1 1 0 01-.34-.79c0-.78.66-1.17 2-1.17h.85v1.3a1.68 1.68 0 01-.66.69 2 2 0 01-1 .26 1.32 1.32 0 01-.87-.29m3.81 1.12v-.1a3.51 3.51 0 01-.22-1.39v-2.91a2 2 0 00-.65-1.51 2.49 2.49 0 00-1.72-.55 3.05 3.05 0 00-1.26.26 2.26 2.26 0 00-.92.7 1.51 1.51 0 00-.34.91h1.09a.86.86 0 01.4-.7 1.54 1.54 0 011-.3 1.33 1.33 0 011 .34 1.2 1.2 0 01.34.9v.5h-1a3.59 3.59 0 00-2.12.55 1.8 1.8 0 00-.75 1.54 1.71 1.71 0 00.6 1.34 2.19 2.19 0 001.53.53 2.43 2.43 0 001.81-.78 2.49 2.49 0 00.15.67zm-11.67-6.34v6.34h1.08V647a2 2 0 01.62-.74 1.57 1.57 0 01.93-.28 1.27 1.27 0 011 .33 1.5 1.5 0 01.31 1v4.2h1.08v-4.19c0-1.51-.68-2.27-2-2.27a2.29 2.29 0 00-1.9.91v-.79zm-6.62 0v6.34h1.08V647a1.87 1.87 0 01.62-.74 1.55 1.55 0 01.93-.28 1.23 1.23 0 011 .33 1.45 1.45 0 01.32 1v4.2h1.08v-4.19c0-1.51-.69-2.27-2-2.27a2.29 2.29 0 00-1.89.91v-.79zm-2.75-1.25a.73.73 0 001 0 .59.59 0 00.16-.43.64.64 0 00-.16-.45.73.73 0 00-1 0 .64.64 0 00-.16.45.59.59 0 00.16.43m1 1.25h-1.04v6.34h1.08zm-6.2 5a2.7 2.7 0 01-.46-1.69v-.21a2.82 2.82 0 01.46-1.72 1.53 1.53 0 011.28-.59 1.42 1.42 0 011 .4 1.48 1.48 0 01.47 1h1a2.27 2.27 0 00-.75-1.66 2.52 2.52 0 00-1.77-.64 2.71 2.71 0 00-1.5.4 2.55 2.55 0 00-1 1.12 3.76 3.76 0 00-.34 1.64v.19a3.44 3.44 0 00.77 2.36 2.57 2.57 0 002 .86 2.65 2.65 0 001.23-.29 2.51 2.51 0 00.92-.78 2 2 0 00.37-1h-1a1.24 1.24 0 01-.48.88 1.6 1.6 0 01-1 .35 1.53 1.53 0 01-1.28-.59m-7.88-5v6.34h1.08V647a1.89 1.89 0 01.63-.74 1.52 1.52 0 01.92-.28 1.25 1.25 0 011 .33 1.45 1.45 0 01.31 1v4.2h1.09v-4.19c0-1.51-.69-2.27-2-2.27a2.32 2.32 0 00-1.9.91v-.79zm-2.63-1.3a.58.58 0 00.47.18.62.62 0 00.48-.18.6.6 0 00.17-.43.64.64 0 00-.12-.45.62.62 0 00-.48-.18.58.58 0 00-.52.18.64.64 0 00-.17.45.6.6 0 00.17.43m1 1.25h-1.07v6.34H46zm-3.68 3.63a2.38 2.38 0 01-.66 1.48 2.21 2.21 0 01-1.44.42 1.85 1.85 0 01-1.62-.82 3.71 3.71 0 01-.58-2.21v-.82a3.63 3.63 0 01.61-2.27 2 2 0 011.69-.8 1.93 1.93 0 011.37.46 2.49 2.49 0 01.63 1.48h1.13a3.13 3.13 0 00-.95-2.1 3.08 3.08 0 00-2.18-.76 3.37 3.37 0 00-1.81.48 3.15 3.15 0 00-1.2 1.39 4.9 4.9 0 00-.42 2.09v.82a4.34 4.34 0 00.91 2.9 3 3 0 002.42 1.08 3.26 3.26 0 002.23-.73 3.13 3.13 0 001-2.09zM129.54 629.09a1.19 1.19 0 00-.48-.08 1.69 1.69 0 00-1.52.85v-.73h-1.06v6.34h1.09V631a1.41 1.41 0 011.44-.91 3.12 3.12 0 01.54 0zm-8.33-1.23a2.43 2.43 0 011.94.81 3.44 3.44 0 01.68 2.26v.5a3.36 3.36 0 01-.72 2.31 2.59 2.59 0 01-2 .81h-1.21v-6.69zm-.08 7.61a4.22 4.22 0 002-.5 3.27 3.27 0 001.33-1.4 4.56 4.56 0 00.46-2.11v-.55a4.49 4.49 0 00-.47-2.08 3.31 3.31 0 00-1.32-1.4 3.87 3.87 0 00-2-.49h-2.41v8.53zm-8.28-5.12a2.12 2.12 0 01.44 1.29v.08h-3.17a2.29 2.29 0 01.55-1.34 1.44 1.44 0 011.1-.48 1.38 1.38 0 011.08.45m1.45 4l-.67-.52a2.57 2.57 0 01-.69.63 2 2 0 01-1 .23 1.7 1.7 0 01-1.33-.58 2.26 2.26 0 01-.55-1.51h4.3v-.45a3.55 3.55 0 00-.69-2.34 2.37 2.37 0 00-1.92-.81 2.52 2.52 0 00-1.4.42 2.86 2.86 0 00-1 1.16 3.8 3.8 0 00-.36 1.68v.2a3.15 3.15 0 00.81 2.27 2.78 2.78 0 002.09.84 2.67 2.67 0 002.4-1.22m-10.53-3.81a1.45 1.45 0 011.24-.62 1.6 1.6 0 011.5.9v2.91a1.58 1.58 0 01-1.51.92 1.45 1.45 0 01-1.23-.6 2.88 2.88 0 01-.44-1.69 3.13 3.13 0 01.44-1.82m-1.53 1.78a3.69 3.69 0 00.7 2.35 2.16 2.16 0 001.79.9 2.19 2.19 0 001.81-.79l.06.68h1v-9h-1.08v3.3a2.36 2.36 0 00-3.58.13 3.7 3.7 0 00-.69 2.34zm-2.48-4.44a.76.76 0 001 0 .63.63 0 00.16-.44.64.64 0 00-.16-.45.73.73 0 00-1 0 .64.64 0 00-.16.45.63.63 0 00.16.44m1 1.24h-1.06v6.34h1.08zm-4 5.32a2 2 0 01-2.07-.07 1.11 1.11 0 01-.43-.86h-1.11a1.81 1.81 0 00.33 1 2.14 2.14 0 00.92.75 3.19 3.19 0 001.35.27 2.85 2.85 0 001.76-.51 1.59 1.59 0 00.68-1.36 1.48 1.48 0 00-.24-.86 1.88 1.88 0 00-.75-.61 5.57 5.57 0 00-1.31-.43 3.94 3.94 0 01-1.13-.39.67.67 0 01-.31-.59.82.82 0 01.34-.67 1.48 1.48 0 01.92-.26 1.46 1.46 0 011 .32 1 1 0 01.3.83h1.09a1.75 1.75 0 00-.67-1.42 2.64 2.64 0 00-1.72-.58 2.57 2.57 0 00-1.68.54 1.65 1.65 0 00-.66 1.32 1.45 1.45 0 00.23.81 1.88 1.88 0 00.72.58 4.83 4.83 0 001.3.42 3.3 3.3 0 011.16.42.81.81 0 01.33.69.79.79 0 01-.37.66m-4.32-5.36a1.19 1.19 0 00-.48-.08 1.68 1.68 0 00-1.51.85v-.73h-1.07v6.34h1.08V631a1.43 1.43 0 011.45-.91 2.93 2.93 0 01.53 0zm-5.85 1.26a2.06 2.06 0 01.45 1.29v.08h-3.18a2.36 2.36 0 01.55-1.34 1.46 1.46 0 011.11-.48 1.35 1.35 0 011.07.45m1.45 4l-.66-.52a2.46 2.46 0 01-.7.63 1.93 1.93 0 01-1 .23 1.69 1.69 0 01-1.33-.58 2.21 2.21 0 01-.55-1.51h4.29v-.45a3.61 3.61 0 00-.68-2.34 2.39 2.39 0 00-1.92-.81 2.53 2.53 0 00-1.41.42 2.86 2.86 0 00-1 1.16 3.8 3.8 0 00-.36 1.68v.2a3.15 3.15 0 00.81 2.27 2.79 2.79 0 002.1.84 2.65 2.65 0 002.4-1.2m-10.28-5.23h-1.1l2.29 6.34h.83l2.26-6.34h-1.09L79.34 634zm-3.22-1.24a.62.62 0 00.48.17.65.65 0 00.48-.17.68.68 0 00.16-.44.69.69 0 00-.16-.45.62.62 0 00-.48-.18.59.59 0 00-.48.18.64.64 0 00-.16.45.63.63 0 00.16.44m1 1.24h-1.07v6.34h1.09zm-7.27-1.27H70a2 2 0 011.36.42 1.55 1.55 0 01.47 1.22 1.47 1.47 0 01-.49 1.16 2 2 0 01-1.33.44h-1.76zm3.85 7.61h1.21v-.07l-2-3.62a2.52 2.52 0 001.19-.89 2.27 2.27 0 00.43-1.39 2.36 2.36 0 00-.77-1.91 3.34 3.34 0 00-2.22-.65h-2.8v8.53h1.13V632h2zm-13.39-3.91h.81a2 2 0 011.32.41 1.41 1.41 0 01.46 1.14 1.57 1.57 0 01-.42 1.18 1.66 1.66 0 01-1.2.41 1.74 1.74 0 01-1.18-.4 1.41 1.41 0 01-.44-1.08H57a2.12 2.12 0 00.76 1.71 2.84 2.84 0 002 .65 2.8 2.8 0 002-.67 2.33 2.33 0 00.75-1.82 2.07 2.07 0 00-.38-1.26 2.09 2.09 0 00-1.09-.74 2.17 2.17 0 001-.78 1.89 1.89 0 00.36-1.08 2.32 2.32 0 00-.68-1.77 3.05 3.05 0 00-3.78 0 2.19 2.19 0 00-.74 1.68h1.08a1.4 1.4 0 01.42-1.06 1.55 1.55 0 011.12-.4 1.33 1.33 0 011.5 1.5 1.37 1.37 0 01-.44 1.06 1.76 1.76 0 01-1.21.4h-.81zm-5-2.91l.13-.23v4.18h-2.59zm1.31-1.71h-1.18L50 632.85v.64h3.89v2H55v-2h1.18v-.89H55zm-10 4.21a2.34 2.34 0 01-.42-1.44 2.25 2.25 0 01.43-1.44 1.41 1.41 0 012.32.12 3 3 0 01.47 1.73v.44a2 2 0 01-.68.82 1.61 1.61 0 01-1 .34 1.32 1.32 0 01-1.12-.57m2 2.7a2.94 2.94 0 01-2.06.7h-.23v.92h.21a3.77 3.77 0 003-1.17 5.52 5.52 0 001-3.64v-.31a4.1 4.1 0 00-.73-2.58 2.37 2.37 0 00-2-.95 2.64 2.64 0 00-1.39.36 2.31 2.31 0 00-.92 1.05 3.73 3.73 0 000 3 2.32 2.32 0 00.85 1 2.42 2.42 0 002.32.12 2.83 2.83 0 00.81-.65 3 3 0 01-.79 2.13m-4.51.73h-4.34l2.29-2.48a4.87 4.87 0 001.6-3 2.14 2.14 0 00-.69-1.66 2.73 2.73 0 00-1.88-.62 2.79 2.79 0 00-2 .73 2.51 2.51 0 00-.76 1.9h1.09a1.79 1.79 0 01.44-1.28 1.67 1.67 0 011.26-.46 1.4 1.4 0 011.08.43 1.51 1.51 0 01.4 1.09 2.11 2.11 0 01-.24 1 7.36 7.36 0 01-.91 1.21l-2.95 3.28v.78h5.59zM166.56 611.89a.76.76 0 001 0 .64.64 0 00.17-.44.64.64 0 00-.17-.45.73.73 0 00-1 0 .69.69 0 00-.16.45.68.68 0 00.16.44m1 1.24h-1.08v6.34h1.08zm-4.71-1.54v1.54h-1.15v.87h1.15v3.93a1.94 1.94 0 00.37 1.25 1.36 1.36 0 001.1.43 3 3 0 00.83-.11v-.88a2.41 2.41 0 01-.51.07.64.64 0 01-.54-.19.83.83 0 01-.16-.57V614h1.18v-.84H164v-1.54zm-5.67 6.76a1 1 0 01-.34-.79c0-.78.67-1.17 2-1.17h.85v1.3a1.56 1.56 0 01-.66.69 2 2 0 01-1 .26 1.27 1.27 0 01-.87-.29m3.81 1.12v-.1a3.51 3.51 0 01-.22-1.39v-2.91a2 2 0 00-.65-1.51 2.46 2.46 0 00-1.71-.55 3.1 3.1 0 00-1.27.26 2.26 2.26 0 00-.92.7 1.51 1.51 0 00-.33.92H157a.86.86 0 01.39-.71 1.56 1.56 0 011-.3 1.37 1.37 0 011 .34 1.21 1.21 0 01.34.91v.49h-1.05a3.59 3.59 0 00-2.12.55 1.8 1.8 0 00-.75 1.54 1.71 1.71 0 00.6 1.34 2.2 2.2 0 001.54.53 2.41 2.41 0 001.8-.78 2.49 2.49 0 00.15.67zm-11.67-6.34v6.34h1.08V615a2 2 0 01.62-.74 1.57 1.57 0 01.93-.28 1.27 1.27 0 011 .33 1.47 1.47 0 01.31 1v4.2h1.08v-4.19c0-1.51-.68-2.27-2-2.27a2.3 2.3 0 00-1.9.91v-.79zm-6.62 0v6.34h1.08V615a2 2 0 01.62-.74 1.57 1.57 0 01.93-.28 1.27 1.27 0 011 .33 1.47 1.47 0 01.31 1v4.2h1.08v-4.19c0-1.51-.68-2.27-2-2.27a2.3 2.3 0 00-1.9.91v-.79zm-2.68-1.24a.76.76 0 001 0 .63.63 0 00.16-.44.64.64 0 00-.16-.45.73.73 0 00-1 0 .64.64 0 00-.16.45.63.63 0 00.16.44m1 1.24h-1.08v6.34H141zm-6.2 5a2.76 2.76 0 01-.45-1.69v-.2a2.8 2.8 0 01.45-1.72 1.51 1.51 0 011.28-.6 1.44 1.44 0 011 .4 1.52 1.52 0 01.46 1h1a2.28 2.28 0 00-.76-1.66 2.52 2.52 0 00-1.77-.64 2.71 2.71 0 00-1.5.4 2.55 2.55 0 00-1 1.12 3.91 3.91 0 00-.34 1.64v.19a3.44 3.44 0 00.77 2.36 2.83 2.83 0 003.28.57 2.51 2.51 0 00.92-.78 2 2 0 00.38-1h-1a1.24 1.24 0 01-.48.88 1.59 1.59 0 01-1 .35 1.53 1.53 0 01-1.29-.59m-7.88-5v6.34H128V615a1.94 1.94 0 01.62-.74 1.52 1.52 0 01.92-.28 1.24 1.24 0 011 .33 1.47 1.47 0 01.32 1v4.2h1.08v-4.19c0-1.51-.69-2.27-2-2.27a2.32 2.32 0 00-1.9.91v-.79zm-2.74-1.24a.64.64 0 00.48.17.65.65 0 00.48-.17.63.63 0 00.16-.44.64.64 0 00-.16-.45.62.62 0 00-.48-.18.6.6 0 00-.48.18.64.64 0 00-.16.45.63.63 0 00.16.44m1 1.24h-1.09v6.34h1.09zm-3.68 3.63a2.33 2.33 0 01-.66 1.48 2.17 2.17 0 01-1.44.42 1.87 1.87 0 01-1.62-.82 3.71 3.71 0 01-.58-2.21v-.82a3.63 3.63 0 01.61-2.27 2 2 0 011.69-.8 1.91 1.91 0 011.37.46 2.37 2.37 0 01.63 1.48h1.14a3.14 3.14 0 00-1-2.1 3.06 3.06 0 00-2.18-.76 3.36 3.36 0 00-1.8.48 3.23 3.23 0 00-1.21 1.39 4.9 4.9 0 00-.42 2.09v.82a4.34 4.34 0 00.91 2.9 3 3 0 002.42 1.08 3.28 3.28 0 002.24-.73 3.17 3.17 0 001-2.09zm-13.78-2.21a1.44 1.44 0 011.24-.62 1.58 1.58 0 011.49.9v2.91a1.56 1.56 0 01-1.5.92 1.43 1.43 0 01-1.23-.6 2.8 2.8 0 01-.45-1.69 3.05 3.05 0 01.45-1.82m-1.53 1.78a3.75 3.75 0 00.69 2.35 2.18 2.18 0 001.8.9 2.2 2.2 0 001.81-.79v.68h1v-9h-1.09v3.3a2.35 2.35 0 00-3.57.13 3.7 3.7 0 00-.69 2.34zm-.62-3.24a1.19 1.19 0 00-.48-.08 1.66 1.66 0 00-1.51.85v-.73h-1.06v6.34h1.09V615a1.41 1.41 0 011.44-.91 3 3 0 01.54 0zm-8.35 5.26a1 1 0 01-.34-.79c0-.78.66-1.17 2-1.17h.85v1.3a1.68 1.68 0 01-.66.69 2 2 0 01-1 .26 1.25 1.25 0 01-.87-.29m3.81 1.12v-.1a3.49 3.49 0 01-.23-1.39v-2.91a2 2 0 00-.64-1.51 2.49 2.49 0 00-1.72-.55 3.13 3.13 0 00-1.27.26 2.23 2.23 0 00-.91.7 1.52 1.52 0 00-.34.92H97a.84.84 0 01.4-.71 1.54 1.54 0 011-.3 1.39 1.39 0 011 .34 1.21 1.21 0 01.34.91v.49h-1a3.57 3.57 0 00-2.12.55 1.79 1.79 0 00-.76 1.54 1.71 1.71 0 00.6 1.34 2.22 2.22 0 001.54.53 2.45 2.45 0 001.81-.78 2.49 2.49 0 00.15.67zm-10-6.34h-.88l-1.47 4.74-1.25-4.74h-.99l1.84 6.34h.88l1.5-4.81 1.54 4.81H93l1.84-6.34h-1.07L92.55 618zm-5.21 0a1.19 1.19 0 00-.48-.08 1.69 1.69 0 00-1.51.85v-.73h-1v6.34h1.08V615a1.43 1.43 0 011.45-.91 2.93 2.93 0 01.53 0zm-8.61 1.45a1.55 1.55 0 011.29-.64 1.58 1.58 0 011.32.65 2.69 2.69 0 01.49 1.69 3 3 0 01-.48 1.81 1.57 1.57 0 01-1.31.65 1.55 1.55 0 01-1.31-.64 2.67 2.67 0 01-.49-1.69 2.93 2.93 0 01.49-1.83m-1.58 1.77a3.41 3.41 0 00.8 2.38 2.65 2.65 0 002.09.89 2.74 2.74 0 001.51-.41 2.61 2.61 0 001-1.14 3.74 3.74 0 00.36-1.66v-.08a3.44 3.44 0 00-.8-2.38 2.67 2.67 0 00-2.1-.9 2.89 2.89 0 00-1.49.4 2.86 2.86 0 00-1 1.15 3.83 3.83 0 00-.36 1.68zm-1.35-1.53h-3.49v-2.92h4.16v-.92h-5.29v8.53h1.13v-3.84h3.58zm-11.38-3.19v1.54h-1.06v.8h1.15v3.93a1.88 1.88 0 00.37 1.25 1.36 1.36 0 001.1.43 3.11 3.11 0 00.83-.11v-.88a2.41 2.41 0 01-.52.07.67.67 0 01-.54-.19.88.88 0 01-.16-.57V614h1.19v-.84H64v-1.54zm-3.13.3a.76.76 0 001 0 .63.63 0 00.16-.44.64.64 0 00-.16-.45.73.73 0 00-1 0 .64.64 0 00-.16.45.63.63 0 00.16.44m1 1.24h-.98v6.34h1.08zm-9.33 0h-1.09l2.26 6.27-.24.64a1.62 1.62 0 01-.5.82 1.52 1.52 0 01-.86.22h-.29v.87l.4.08h.2c.86 0 1.49-.53 1.89-1.58l2.54-7.32h-1.16l-1.47 4.75zm-5.69 5.22a1 1 0 01-.34-.79c0-.78.66-1.17 2-1.17h.85v1.3a1.68 1.68 0 01-.66.69 2 2 0 01-1 .26 1.24 1.24 0 01-.87-.29m3.8 1.12v-.1a3.7 3.7 0 01-.22-1.39v-2.91a2 2 0 00-.64-1.51A2.5 2.5 0 0047 613a3.13 3.13 0 00-1.27.26 2.23 2.23 0 00-.91.7 1.46 1.46 0 00-.34.92h1.09a.86.86 0 01.39-.71 1.59 1.59 0 011-.3 1.39 1.39 0 011 .34 1.25 1.25 0 01.34.91v.49h-1.08a3.61 3.61 0 00-2.12.55 1.8 1.8 0 00-.75 1.54 1.71 1.71 0 00.6 1.34 2.22 2.22 0 001.54.53 2.45 2.45 0 001.81-.78 2.15 2.15 0 00.15.67zm-11.26-7.61h2.09a1.91 1.91 0 011.32.47 1.61 1.61 0 01.48 1.22 1.55 1.55 0 01-.48 1.23 2 2 0 01-1.39.43h-2zm2 4.27a3.35 3.35 0 002.23-.67 2.72 2.72 0 000-3.81 3.15 3.15 0 00-2.2-.71H37.2v8.53h1.12v-3.34zM203.42 586.42a.65.65 0 00.5.18.67.67 0 00.51-.18.64.64 0 00.17-.45.7.7 0 00-.17-.47.67.67 0 00-.51-.18.65.65 0 00-.5.18.7.7 0 00-.17.47.64.64 0 00.17.45m0 5.18a.64.64 0 00.5.18.65.65 0 00.5-.18.61.61 0 00.18-.45.64.64 0 00-.18-.47.62.62 0 00-.5-.19.61.61 0 00-.5.19.63.63 0 00-.17.47.6.6 0 00.17.45m-5.68-4.81a1.53 1.53 0 011.29-.64 1.56 1.56 0 011.32.65 2.69 2.69 0 01.49 1.69 2.93 2.93 0 01-.49 1.81 1.55 1.55 0 01-1.35.7 1.6 1.6 0 01-1.31-.64 2.77 2.77 0 01-.49-1.7 2.9 2.9 0 01.5-1.82m-1.59 1.77a3.46 3.46 0 00.8 2.38 2.7 2.7 0 002.09.89 2.86 2.86 0 001.52-.41 2.67 2.67 0 001-1.14 3.76 3.76 0 00.35-1.67v-.07a3.48 3.48 0 00-.79-2.39 2.72 2.72 0 00-2.1-.89 2.75 2.75 0 00-1.49.4 2.66 2.66 0 00-1 1.15 3.81 3.81 0 00-.37 1.68zm-3.11-4.77v1.53h-1.15v.84H193v3.93a1.92 1.92 0 00.37 1.25 1.34 1.34 0 001.1.44 3.44 3.44 0 00.83-.11v-.88a2.41 2.41 0 01-.51.07.64.64 0 01-.54-.19.86.86 0 01-.16-.57v-3.94h1.18v-.84h-1.18v-1.53zm-6.14 2.76a2 2 0 01.45 1.28v.12h-3.18a2.32 2.32 0 01.55-1.33 1.46 1.46 0 011.11-.48 1.35 1.35 0 011.07.45m1.45 4l-.66-.52a2.29 2.29 0 01-.7.62 1.84 1.84 0 01-1 .24 1.73 1.73 0 01-1.33-.58 2.24 2.24 0 01-.55-1.52h4.29v-.45a3.56 3.56 0 00-.68-2.33 2.39 2.39 0 00-1.92-.81 2.53 2.53 0 00-1.41.42 2.79 2.79 0 00-1 1.16 3.77 3.77 0 00-.36 1.68v.2a3.11 3.11 0 00.81 2.26 2.76 2.76 0 002.1.85 2.67 2.67 0 002.39-1.22m-6.75-7.9h-1.09v9h1.09zm-4.07 7.6a1.39 1.39 0 01-1.21.6 1.63 1.63 0 01-1.55-1v-2.75a1.59 1.59 0 011.54-1 1.41 1.41 0 011.23.6 2.88 2.88 0 01.43 1.71 3.11 3.11 0 01-.44 1.82m1.52-1.79a3.88 3.88 0 00-.66-2.39 2.14 2.14 0 00-1.81-.87 2.2 2.2 0 00-1.81.81v-3.36h-1.08v9h1l.05-.73a2.21 2.21 0 001.86.85 2.12 2.12 0 001.79-.88 3.76 3.76 0 00.67-2.34zm-10.65 2.08a1 1 0 01-.34-.8c0-.77.66-1.16 2-1.16h.85v1.3a1.54 1.54 0 01-.66.68 1.87 1.87 0 01-1 .27 1.32 1.32 0 01-.87-.29m3.81 1.11v-.09a3.55 3.55 0 01-.22-1.39v-2.92a2 2 0 00-.65-1.5 2.49 2.49 0 00-1.72-.55 2.9 2.9 0 00-1.26.26 2.26 2.26 0 00-.92.7 1.5 1.5 0 00-.33.91h1.08a.88.88 0 01.4-.71 1.6 1.6 0 011-.29 1.33 1.33 0 011 .34 1.18 1.18 0 01.34.9v.5h-1a3.52 3.52 0 00-2.12.55A1.79 1.79 0 00167 590a1.71 1.71 0 00.6 1.34 2.24 2.24 0 001.53.53 2.43 2.43 0 001.81-.78 2.3 2.3 0 00.15.66zM162 585.37h-1.18l2.26 6.27-.24.65a1.57 1.57 0 01-.51.81 1.42 1.42 0 01-.86.23h-.29v.88l.4.08h.21c.86 0 1.49-.52 1.88-1.58l2.55-7.32h-1.12l-1.48 4.76zm-5.69 5.23a1 1 0 01-.34-.8c0-.77.66-1.16 2-1.16h.85v1.3a1.49 1.49 0 01-.66.68 1.87 1.87 0 01-1 .27 1.32 1.32 0 01-.87-.29m3.81 1.11v-.09a3.55 3.55 0 01-.22-1.39v-2.92a2 2 0 00-.65-1.5 2.46 2.46 0 00-1.71-.55 2.92 2.92 0 00-1.27.26 2.26 2.26 0 00-.92.7 1.5 1.5 0 00-.33.91h1.09a.87.87 0 01.39-.71 1.6 1.6 0 011-.29 1.33 1.33 0 011 .34 1.18 1.18 0 01.34.9v.5h-1a3.52 3.52 0 00-2.12.55 1.79 1.79 0 00-.75 1.54 1.71 1.71 0 00.6 1.34 2.25 2.25 0 001.54.53 2.42 2.42 0 001.8-.78 2.3 2.3 0 00.15.66zm-8-1.38a1.48 1.48 0 01-1.1.67 1.59 1.59 0 01-1.49-.87v-3a1.6 1.6 0 011.48-.87 1.45 1.45 0 011.25.62 2.76 2.76 0 01.46 1.69 3.12 3.12 0 01-.46 1.84m1.54-1.81a3.85 3.85 0 00-.66-2.4 2.16 2.16 0 00-1.81-.86 2.22 2.22 0 00-1.84.82v-.71h-1v8.78h1.08v-3a2.32 2.32 0 001.82.73 2.12 2.12 0 001.79-.88 3.82 3.82 0 00.66-2.34zm-11.19 2.18a1.81 1.81 0 01-1 .25 1.73 1.73 0 01-1.08-.32 1.13 1.13 0 01-.43-.87H139a1.76 1.76 0 00.34 1 2.18 2.18 0 00.91.75 3.19 3.19 0 001.35.27 2.85 2.85 0 001.76-.51A1.61 1.61 0 00144 590a1.53 1.53 0 00-.24-.87 1.86 1.86 0 00-.75-.6 5.54 5.54 0 00-1.31-.44 3.79 3.79 0 01-1.12-.38.66.66 0 01-.32-.59.81.81 0 01.34-.67 1.42 1.42 0 01.92-.26 1.46 1.46 0 011 .32 1 1 0 01.37.77h1.09a1.78 1.78 0 00-.67-1.43 2.64 2.64 0 00-1.75-.55 2.57 2.57 0 00-1.68.54 1.64 1.64 0 00-.66 1.31 1.41 1.41 0 00.23.81 1.81 1.81 0 00.72.59 5.84 5.84 0 001.3.42 3.3 3.3 0 011.16.42.8.8 0 01.33.68.77.77 0 01-.37.67m-5.43 1h1.28l-2.81-3.74 2.47-2.65h-1.32l-2 2.09-.58.7v-5.45h-1.09v9h1.09v-2.22l.68-.71zm-9-1.36a2.71 2.71 0 01-.45-1.68v-.21a2.82 2.82 0 01.45-1.72 1.53 1.53 0 011.28-.59 1.48 1.48 0 011 .39 1.49 1.49 0 01.46 1h1a2.26 2.26 0 00-.76-1.65 2.52 2.52 0 00-1.77-.64 2.71 2.71 0 00-1.5.4 2.53 2.53 0 00-1 1.11 4 4 0 00-.34 1.65v.18a3.47 3.47 0 00.77 2.37 2.62 2.62 0 002.06.86 2.74 2.74 0 001.22-.29 2.53 2.53 0 00.92-.79 1.94 1.94 0 00.38-1h-1a1.24 1.24 0 01-.48.88 1.59 1.59 0 01-1 .35 1.52 1.52 0 01-1.29-.6m-4-3.75a2 2 0 01.45 1.28v.07h-3.18a2.26 2.26 0 01.55-1.33 1.46 1.46 0 011.1-.48 1.35 1.35 0 011.08.45m1.45 4l-.66-.52a2.41 2.41 0 01-.7.62 1.86 1.86 0 01-1 .24 1.75 1.75 0 01-1.34-.58 2.23 2.23 0 01-.54-1.52h4.29v-.45a3.56 3.56 0 00-.68-2.33 2.39 2.39 0 00-1.93-.81 2.52 2.52 0 00-1.4.42 2.79 2.79 0 00-1 1.16 3.77 3.77 0 00-.36 1.68v.2A3.11 3.11 0 00121 591a2.76 2.76 0 002.1.85 2.67 2.67 0 002.39-1.22M115 582.71h-1.08v9H115v-4.51a2 2 0 01.62-.74 1.57 1.57 0 01.93-.28 1.27 1.27 0 011 .33 1.43 1.43 0 01.31 1v4.19h1.08v-4.19c0-1.51-.68-2.26-2-2.26a2.31 2.31 0 00-1.88.88zm-6.11 7.64a2.71 2.71 0 01-.45-1.68v-.21a2.82 2.82 0 01.45-1.72 1.54 1.54 0 011.28-.59 1.48 1.48 0 011 .39 1.49 1.49 0 01.46 1h1a2.25 2.25 0 00-.75-1.65 2.54 2.54 0 00-1.78-.64 2.73 2.73 0 00-1.5.4 2.51 2.51 0 00-1 1.11 3.8 3.8 0 00-.34 1.65v.18a3.46 3.46 0 00.76 2.37 2.63 2.63 0 002.06.86 2.71 2.71 0 001.22-.29 2.45 2.45 0 00.92-.79 1.94 1.94 0 00.38-1h-1a1.24 1.24 0 01-.48.88 1.57 1.57 0 01-1 .35 1.52 1.52 0 01-1.29-.6m-7-3.75a2 2 0 01.45 1.28v.1h-3.16a2.32 2.32 0 01.55-1.33 1.46 1.46 0 011.1-.48 1.35 1.35 0 011.08.45m1.45 4l-.66-.52a2.29 2.29 0 01-.7.62 1.86 1.86 0 01-1 .24 1.75 1.75 0 01-1.34-.58 2.28 2.28 0 01-.54-1.52h4.29v-.45a3.56 3.56 0 00-.68-2.33 2.39 2.39 0 00-1.93-.81 2.52 2.52 0 00-1.4.42 2.79 2.79 0 00-1 1.16 3.77 3.77 0 00-.36 1.68v.2a3.11 3.11 0 00.81 2.26 2.76 2.76 0 002.1.85 2.67 2.67 0 002.39-1.22m-7 1.1h1.27L94.81 588l2.47-2.65H96l-2 2.09-.58.7v-5.45h-1.1v9h1.08v-2.22l.68-.71zM87 590.6a1 1 0 01-.34-.8c0-.77.66-1.16 2-1.16h.85v1.3a1.6 1.6 0 01-.66.68 1.9 1.9 0 01-1 .27 1.3 1.3 0 01-.87-.29m3.81 1.11v-.09a3.53 3.53 0 01-.23-1.39v-2.92a1.94 1.94 0 00-.64-1.5 2.49 2.49 0 00-1.72-.55 3 3 0 00-1.27.26 2.23 2.23 0 00-.91.7 1.51 1.51 0 00-.34.91h1.09a.86.86 0 01.4-.71 1.6 1.6 0 011-.29 1.35 1.35 0 011 .34 1.18 1.18 0 01.34.9v.5h-1a3.52 3.52 0 00-2.12.55 1.8 1.8 0 00-.79 1.58 1.68 1.68 0 00.61 1.34 2.24 2.24 0 001.53.53 2.45 2.45 0 001.81-.78 2.3 2.3 0 00.15.66zm-15.58-6.34v6.34h1.09v-4.62a1.44 1.44 0 011.46-.91 1.21 1.21 0 011.35 1.38v4.15h1.09v-4.2a1.46 1.46 0 01.46-1 1.44 1.44 0 011-.36 1.41 1.41 0 011.05.33 1.52 1.52 0 01.31 1v4.18h1.08v-4.24c0-1.48-.73-2.21-2.12-2.21a2.42 2.42 0 00-1.2.28 2.34 2.34 0 00-.82.74 1.81 1.81 0 00-1.81-1 2.32 2.32 0 00-1.88.82v-.71zm-5.75 1.23a2 2 0 01.45 1.28v.12h-3.13a2.26 2.26 0 01.56-1.33 1.43 1.43 0 011.1-.48 1.35 1.35 0 011.07.45m1.45 4l-.66-.52a2.29 2.29 0 01-.7.62 1.84 1.84 0 01-1 .24 1.73 1.73 0 01-1.33-.58 2.24 2.24 0 01-.55-1.52H71v-.45a3.5 3.5 0 00-.68-2.33 2.39 2.39 0 00-1.92-.81 2.53 2.53 0 00-1.41.42 2.77 2.77 0 00-1 1.16 3.77 3.77 0 00-.36 1.68v.2a3.11 3.11 0 00.8 2.26 2.76 2.76 0 002.1.85 2.67 2.67 0 002.47-1.25m-7.89.09a1.78 1.78 0 01-1 .25 1.71 1.71 0 01-1.08-.32 1.14 1.14 0 01-.44-.87h-1.1a1.81 1.81 0 00.33 1 2.21 2.21 0 00.92.75 3.19 3.19 0 001.35.27 2.85 2.85 0 001.76-.51 1.63 1.63 0 00.68-1.36 1.53 1.53 0 00-.24-.87 2 2 0 00-.75-.6 5.8 5.8 0 00-1.32-.44 3.91 3.91 0 01-1.12-.38.65.65 0 01-.31-.59.8.8 0 01.33-.67 1.47 1.47 0 01.93-.26 1.44 1.44 0 011 .32 1 1 0 01.38.77h1.09a1.78 1.78 0 00-.67-1.43 2.66 2.66 0 00-1.75-.55 2.55 2.55 0 00-1.68.54 1.64 1.64 0 00-.66 1.31 1.34 1.34 0 00.23.81 1.77 1.77 0 00.71.59 5.77 5.77 0 001.31.42 3.23 3.23 0 011.15.42.8.8 0 01.33.68.77.77 0 01-.37.67m-8.6-.1a1 1 0 01-.34-.8c0-.77.66-1.16 2-1.16H57v1.3a1.6 1.6 0 01-.66.68 1.9 1.9 0 01-1 .27 1.3 1.3 0 01-.87-.29m3.81 1.11v-.09a3.53 3.53 0 01-.23-1.39v-2.92a1.94 1.94 0 00-.64-1.5 2.49 2.49 0 00-1.72-.55 3 3 0 00-1.27.26 2.23 2.23 0 00-.91.7 1.51 1.51 0 00-.34.91h1.09a.86.86 0 01.4-.71 1.6 1.6 0 011-.29 1.35 1.35 0 011 .34 1.18 1.18 0 01.34.9v.5h-1a3.5 3.5 0 00-2.12.55A1.78 1.78 0 0053 590a1.71 1.71 0 00.6 1.34 2.27 2.27 0 001.54.53 2.45 2.45 0 001.81-.78 2.3 2.3 0 00.15.66zm-7.84-5.11a2 2 0 01.45 1.28v.17h-3.18a2.32 2.32 0 01.55-1.33 1.46 1.46 0 011.1-.48 1.35 1.35 0 011.08.45m1.45 4l-.66-.52a2.29 2.29 0 01-.7.62 1.86 1.86 0 01-1 .24 1.75 1.75 0 01-1.34-.58 2.28 2.28 0 01-.54-1.52H52v-.45a3.56 3.56 0 00-.68-2.33 2.39 2.39 0 00-1.93-.81 2.52 2.52 0 00-1.4.42 2.79 2.79 0 00-1 1.16 3.77 3.77 0 00-.36 1.68v.2a3.11 3.11 0 00.77 2.25 2.76 2.76 0 002.1.85 2.67 2.67 0 002.39-1.22m-6.76-7.9h-1.08v9h1.08zm-7.45 1.39h2.09a1.89 1.89 0 011.32.48 1.6 1.6 0 01.48 1.22 1.55 1.55 0 01-.48 1.23 2.08 2.08 0 01-1.39.42h-2zm2 4.27a3.26 3.26 0 002.22-.67 2.37 2.37 0 00.78-1.91 2.41 2.41 0 00-.79-1.89 3.15 3.15 0 00-2.2-.72h-3.13v8.53h1.12v-3.34z"/></g></svg>